<?xml version="1.0" encoding="utf-8"?>
<svg version="1.1" id="Layer_1"
xmlns="http://www.w3.org/2000/svg"
xmlns:xlink="http://www.w3.org/1999/xlink"
xmlns:author="http://www.sothink.com"
width="66px" height="47px"
xml:space="preserve">
<g id="73" transform="matrix(1, 0, 0, 1, 32.6, 23.35)">
<path style="fill:#ECECEC;fill-opacity:1" d="M14.6,-20.55L9.25 -18.65L9.25 -18.5L0.85 -15.6L-0.75 -15.3L-0.75 -15.2L-0.75 -15.15L-0.7 -15.1L-0.75 -15.1L-0.85 -15L-0.85 -15.05L-6.25 -13.25L-6.25 -14.2L-6.4 -14.2L-6.45 -14.4L-20.75 -10.55L-21.5 -11.25L-0.75 -18.15L-0.75 -18.1L7.85 -20.95L7.85 -21L14.8 -23.35L14.6 -20.6L14.6 -20.55M32.65,0.15L32.6 3.5L-16.65 23.35L-16.6 19.45L30.8 1L30.75 0.9L30.8 0.9L32.5 0.25L32.65 0.15M-29.4,-9.05L-29.35 -9.3L-29.35 -6.3L-29.35 -5.35L-30.7 -4.9L-32.6 -8.1L-29.4 -9.05M-10.35,-12.3L-10.1 -12.1L-10.85 -12L-10.7 -11.8L-10.75 -11.8L-10.85 -11.7L-10.85 -11.75L-19.2 -9.1L-20.05 -9.85L-10.35 -12.45L-10.35 -12.3M-9.65,-12.65L-7.1 -13.35L-7.1 -12.95L-9.15 -12.3L-9.65 -12.65" />
<path style="fill:#715944;fill-opacity:1" d="M-20.5,16.9L-20.6 13.25L-30.7 -4.9L-29.35 -5.35L-29.3 -4.25L-26.3 0.8L-17.6 -1.9L-17.55 -7.5L-17.6 -7.6L-17.6 -7.55L-19.2 -9.1L-10.85 -11.75L-10.85 -11.7L-10.75 -11.8L-10.7 -11.8L-10.85 -12L-10.1 -12.1L-7.95 -10.5L-12 -9.25L-7.1 -2.75L-3.95 1.5L5.9 -1.8L8.15 -2.6L6.7 -4.35L10.25 -5L11.55 -3.35L16.3 -5.15L16.25 -3.6L12.9 -2.25L14.3 -0.45L14.25 -0.45L18.8 5.5L18.85 5.5L29.2 1.35L23.2 -6.4L17.15 -3.95L17.15 -5.45L19.4 -6.3L21.05 -6.95L22.45 -7.45L13.9 -18.1L2.95 -14.1L5.85 -10.7L2.4 -9.5L-0.4 -12.85L-6.25 -11.05L-6.25 -13.25L-0.85 -15.05L-0.85 -15L-0.75 -15.1L-0.7 -15.1L-0.75 -15.15L-0.75 -15.2L-0.75 -15.3L0.85 -15.6L9.25 -18.5L9.25 -18.65L14.6 -20.55L14.6 -20.6L30.75 0.9L30.8 1L-16.6 19.45L-16.65 23.35L-20.5 16.9M9.75,-5.65L6.15 -5L3.8 -7.8L7.1 -9.05L9.75 -5.65M15.85,6.7L10.65 0L10.65 -1L10.5 -1L10.45 -1.2L9.85 -1.05L9.8 -1.1L9.35 -0.9L8.8 -0.75L8.8 -0.7L-0.65 1.85L-0.65 1.9L-12.15 5L-11.55 4.85L-12.3 4.15L-20.1 5.95L-20.15 6.1L-20.1 11.15L-17.1 16.2L-8.4 13.5L-8.35 7.9L-8.4 7.8L-8.4 7.85L-10.85 5.55L-7.75 4.7L0 2.65L0 2.6L1.1 2.3L1.5 2.2L-1.8 3.5L-0.4 5.3L-0.1 5.45L-0.45 5.3L4.2 11.3L4.25 11.25L13.95 7.45L15.85 6.7" />
<path style="fill:#D9DBDB;fill-opacity:1" d="M32.5,0.25L30.8 0.9L30.75 0.9L14.6 -20.6L14.8 -23.35L32.5 0.25M-20.6,13.25L-20.5 16.9L-32.4 -4.05L-32.6 -8.1L-30.7 -4.9L-20.6 13.25" />
<path style="fill:#977859;fill-opacity:1" d="M6.15,-5L3.7 -4.55L1.75 -7L3.8 -7.8L6.15 -5M-0.75,-10.1L-4.6 -8.85L-6.25 -10.1L-6.25 -11.05L-0.4 -12.85L2.4 -9.5L0.3 -8.8L-0.75 -10.1M-5.4,-8.6L-6.25 -8.3L-6.25 -9.2L-5.4 -8.6M-7.95,-10.5L-7.1 -9.85L-7.1 -8.05L-10.2 -7.05L-12 -9.25L-7.95 -10.5M6.7,-4.35L8.15 -2.6L5.9 -1.8L4.2 -3.9L6.7 -4.35M9.8,-1.1L9.85 -1.05L9.35 -0.9L9.8 -1.1M9.8,1.5L9.8 2.1L9.5 1.7L-0.4 5.3L-1.8 3.5L1.5 2.2L8 0.45L8 0.4L9.1 0.1L9.1 0.05L9.8 -0.15L9.8 1.5M13.55,-14.95L5 -11.8L2.95 -14.1L13.9 -18.1L22.45 -7.45L21.05 -6.95L20.2 -6.65L18.05 -9.3L18.05 -9.6L19.6 -10.4L19.2 -11.15L17.35 -10.2L13.55 -14.95M16.25,-1.65L16.1 -1.15L14.3 -0.45L12.9 -2.25L16.25 -3.6L16.25 -1.65M17.15,-3.95L23.2 -6.4L29.2 1.35L18.85 5.5L18.8 5.5L27.45 2.05L22.9 -3.9L17.75 -1.85L17.15 -2.15L17.1 -2.15L17.15 -3.95M17.3,-1.7L17.35 -1.7L17.3 -1.65L17.3 -1.7M10.65,1.5L10.65 0L15.85 6.7L13.95 7.45L10.65 3.2L10.65 1.5" />
<path style="fill:#DDC5BB;fill-opacity:1" d="M-0.8,-6L-1.4 -6.45L12 -11.35L12.05 -11.65L12.05 -11.2L12.1 -11L12.05 -10.8L12.05 -6.7L11.65 -6.7L11.65 -10.65L11.55 -10.6L11.55 -10.7L11.05 -10.45L10.9 -10.4L10.35 -10.3L10.35 -10.2L7.1 -9.05L3.8 -7.8L1.75 -7L-0.8 -6M-2.2,-6.1L-2.1 -6.1L-1.55 -5.7L-1.7 -5.65L-1.7 -1.6L-2.2 -1.6L-2.2 -1.8L-2.2 -6.1" />
<path style="fill:#EFE3DE;fill-opacity:1" d="M5.85,-10.7L10.85 -12.45L12 -11.35L-1.4 -6.45L-2.95 -7.6L0.3 -8.8L2.4 -9.5L5.85 -10.7M-2.1,-6.1L-2.2 -6.1L-2.2 -1.8L-3.6 -4.1L-3.5 -7.15L-2.1 -6.1" />
<path style="fill:#8E9DCA;fill-opacity:1" d="M1.6,-4.2L-0.8 -6L1.75 -7L3.7 -4.55L1.6 -4.2M17.35,-10.2L17.3 -10.2L17.2 -10.2L17.2 -6.45L18.05 -6.45L18.05 -9.3L20.2 -6.65L19.4 -6.3L17.15 -5.45L17.2 -6.75L17 -6.75L16.95 -6.95L9.75 -5.65L7.1 -9.05L10.35 -10.2L10.35 -8.7L11.55 -6.9L11.55 -10.6L11.65 -10.65L11.65 -6.7L12.05 -6.7L12.05 -10.8L12.1 -11L12.05 -11.2L12.05 -11.65L12 -11.35L10.85 -12.45L5.85 -10.7L5 -11.8L13.55 -14.95L17.35 -10.2M-4.6,-8.85L-0.75 -10.1L0.3 -8.8L-2.95 -7.6L-4.6 -8.85M4.2,-3.9L5.9 -1.8L-3.95 1.5L-7.1 -2.75L-10.2 -7.05L-7.1 -8.05L-7.1 -3.6L-6.25 -3.6L-6.25 -8.3L-5.4 -8.6L-3.5 -7.15L-3.6 -4.1L-2.2 -1.8L-2.2 -1.6L-1.7 -1.6L-1.7 -5.65L-1.55 -5.7L1 -3.75L0.65 -4L0.7 -3.75L1 -3.75L1.55 -3.35L1.6 -3.45L4.2 -3.9M16.1,-1.05L16 -1.05L16 -0.8L16.1 -0.8L16.25 -0.4L16.2 2L17.05 2L17.05 0.25L17.3 0.25L17.3 0.15L17.75 -0.2L18 -0.8L18.1 -0.8L18.1 -1.05L18 -1.05L17.75 -1.85L22.9 -3.9L27.45 2.05L18.8 5.5L14.25 -0.45L14.3 -0.45L16.1 -1.15L16.1 -1.05M16.3,-6.1L16.3 -5.15L11.55 -3.35L10.25 -5L16.3 -6.1M17.3,-1.05L17.3 -1.65L17.35 -1.7L17.45 -1.6L17.65 -1.05L17.3 -1.05M17.8,-1.05L17.75 -1.4L17.85 -1.05L17.8 -1.05M17.45,-0.4L17.3 -0.25L17.3 -0.8L17.65 -0.8L17.45 -0.4M17.8,-0.8L17.85 -0.8L17.75 -0.5L17.8 -0.8M-22.25,-4.25L-22.35 -2.15L-24.6 -1.55L-24.5 -3.65L-22.25 -4.25M9.5,1.7L9.8 2.1L9.8 4.1L9.8 6.65L10.65 6.65L10.65 4.1L10.65 3.2L13.95 7.45L4.25 11.25L4.2 11.3L-0.45 5.3L-0.1 5.45L-0.4 5.3L9.5 1.7" />
<linearGradient
id="LinearGradID_235" gradientUnits="userSpaceOnUse" gradientTransform="matrix(-0.000137329, -0.000411987, 0.00994873, -0.00178528, 8.9, -5.15)" spreadMethod ="pad" x1="-819.2" y1="0" x2="819.2" y2="0" >
<stop  offset="0" style="stop-color:#A7907A;stop-opacity:1" />
<stop  offset="1" style="stop-color:#D9CFC6;stop-opacity:1" />
</linearGradient>
<path style="fill:url(#LinearGradID_235) " d="M10.25,-5L6.7 -4.35L4.2 -3.9L1.6 -3.45L1.9 -3.95L1.6 -4.2L3.7 -4.55L6.15 -5L9.75 -5.65L16.95 -6.95L17 -6.75L17.15 -6.25L16.3 -6.1L10.25 -5M1,-3.75L0.7 -3.75L0.65 -4L1 -3.75" />
<linearGradient
id="LinearGradID_236" gradientUnits="userSpaceOnUse" gradientTransform="matrix(0.000213623, -0.00038147, 0.0080719, 0.00605774, -4.9, -8.65)" spreadMethod ="pad" x1="-819.2" y1="0" x2="819.2" y2="0" >
<stop  offset="0" style="stop-color:#A7907A;stop-opacity:1" />
<stop  offset="1" style="stop-color:#D9CFC6;stop-opacity:1" />
</linearGradient>
<path style="fill:url(#LinearGradID_236) " d="M-9.15,-12.3L-7.1 -10.75L-6.25 -10.1L-4.6 -8.85L-2.95 -7.6L-1.4 -6.45L-0.8 -6L1.6 -4.2L1.9 -3.95L1.6 -3.45L1.55 -3.35L1 -3.75L-1.55 -5.7L-2.1 -6.1L-3.5 -7.15L-5.4 -8.6L-6.25 -9.2L-7.1 -9.85L-7.95 -10.5L-10.1 -12.1L-10.35 -12.3L-10.35 -12.45L-10.35 -13.2L-9.65 -12.65L-9.15 -12.3" />
<linearGradient
id="LinearGradID_237" gradientUnits="userSpaceOnUse" gradientTransform="matrix(-0.000137329, -0.00050354, 0.0098877, -0.00265503, 2.45, 1.4)" spreadMethod ="pad" x1="-819.2" y1="0" x2="819.2" y2="0" >
<stop  offset="0" style="stop-color:#A7907A;stop-opacity:1" />
<stop  offset="1" style="stop-color:#D9CFC6;stop-opacity:1" />
</linearGradient>
<path style="fill:url(#LinearGradID_237) " d="M10.45,-1.2L10.5 -1L10.65 -0.35L9.8 -0.15L9.1 0.05L8.8 0.1L8.8 -0.7L8.8 -0.75L9.35 -0.9L9.85 -1.05L10.45 -1.2" />
<linearGradient
id="LinearGradID_238" gradientUnits="userSpaceOnUse" gradientTransform="matrix(0.000228882, 0.000457764, -0.00115967, 0.000579834, 18.4, -10.35)" spreadMethod ="pad" x1="-819.2" y1="0" x2="819.2" y2="0" >
<stop  offset="0" style="stop-color:#A7907A;stop-opacity:1" />
<stop  offset="1" style="stop-color:#D9CFC6;stop-opacity:1" />
</linearGradient>
<path style="fill:url(#LinearGradID_238) " d="M17.7,-9.45L17.3 -10.2L17.35 -10.2L19.2 -11.15L19.6 -10.4L18.05 -9.6L17.7 -9.45" />
<linearGradient
id="LinearGradID_239" gradientUnits="userSpaceOnUse" gradientTransform="matrix(0.000518799, 0, 0, 0.00228882, 17.6, -8.35)" spreadMethod ="pad" x1="-819.2" y1="0" x2="819.2" y2="0" >
<stop  offset="0" style="stop-color:#A7907A;stop-opacity:1" />
<stop  offset="1" style="stop-color:#D9CFC6;stop-opacity:1" />
</linearGradient>
<path style="fill:url(#LinearGradID_239) " d="M18.05,-6.45L17.2 -6.45L17.2 -10.2L17.3 -10.2L17.7 -9.45L18.05 -9.6L18.05 -9.3L18.05 -6.45" />
<linearGradient
id="LinearGradID_240" gradientUnits="userSpaceOnUse" gradientTransform="matrix(0.000518799, 1.52588e-005, -7.62939e-005, 0.00535583, 16.65, -2.4)" spreadMethod ="pad" x1="-819.2" y1="0" x2="819.2" y2="0" >
<stop  offset="0" style="stop-color:#A7907A;stop-opacity:1" />
<stop  offset="1" style="stop-color:#D9CFC6;stop-opacity:1" />
</linearGradient>
<path style="fill:url(#LinearGradID_240) " d="M17.1,-2.15L17.05 -2.15L16.95 -2.15L16.35 -1.85L16.25 -1.65L16.25 -3.6L16.3 -5.15L16.3 -6.1L17.15 -6.25L17 -6.75L17.2 -6.75L17.15 -5.45L17.15 -3.95L17.1 -2.15M16.35,-0.2L16.85 0.15L16.85 0.25L17.05 0.25L17.05 2L16.2 2L16.25 -0.4L16.35 -0.2M16.85,-1.05L16.6 -1.05L16.8 -1.6L16.85 -1.65L16.85 -1.05M16.85,-0.3L16.8 -0.4L16.6 -0.8L16.85 -0.8L16.85 -0.3" />
<path style="fill:#BA8874;fill-opacity:1" d="M10.35,-10.2L10.35 -10.3L10.9 -10.4L11.05 -10.45L11.55 -10.7L11.55 -10.6L11.55 -6.9L10.35 -8.7L10.35 -10.2" />
<linearGradient
id="LinearGradID_241" gradientUnits="userSpaceOnUse" gradientTransform="matrix(0.000518799, 0, 0, 0.00646973, 10.2, 4.3)" spreadMethod ="pad" x1="-819.2" y1="0" x2="819.2" y2="0" >
<stop  offset="0" style="stop-color:#A7907A;stop-opacity:1" />
<stop  offset="1" style="stop-color:#D9CFC6;stop-opacity:1" />
</linearGradient>
<path style="fill:url(#LinearGradID_241) " d="M9.8,-0.15L10.65 -0.35L10.5 -1L10.65 -1L10.65 0L10.65 1.5L9.8 1.5L9.8 -0.15M10.65,4.1L10.65 6.65L9.8 6.65L9.8 4.1L10.65 4.1" />
<path style="fill:#8B2E2E;fill-opacity:1" d="M16.35,-1.85L16.95 -2.15L17.05 -2.15Q16.75 -2.1 16.55 -1.85L16.3 -1.05L16.2 -1.05L16.2 -0.8L16.3 -0.8L16.55 -0.2L17.05 0.15L17.05 0.25L16.85 0.25L16.85 0.15L16.35 -0.2L16.25 -0.4L16.1 -0.8L16 -0.8L16 -1.05L16.1 -1.05L16.1 -1.15L16.25 -1.65L16.35 -1.85M16.85,-1.05L16.85 -1.65L17.05 -1.8L17.05 -1.05L16.85 -1.05M17.8,-1.05L17.65 -1.05L17.45 -1.6L17.35 -1.7L17.3 -1.7L17.3 -1.8L17.5 -1.75L17.65 -1.6L17.75 -1.4L17.8 -1.05M17.75,-0.5L17.65 -0.4L17.3 -0.15L17.3 -0.25L17.45 -0.4L17.65 -0.8L17.8 -0.8L17.75 -0.5M16.85,-0.3L16.85 -0.8L17.05 -0.8L17.05 -0.15L16.85 -0.3" />
<path style="fill:#CC6666;fill-opacity:1" d="M17.15,-2.15L17.75 -1.85L18 -1.05L18.1 -1.05L18.1 -0.8L18 -0.8L17.75 -0.2L17.3 0.15L17.3 0.25L17.05 0.25L17.05 0.15L16.55 -0.2L16.3 -0.8L16.2 -0.8L16.2 -1.05L16.3 -1.05L16.55 -1.85Q16.75 -2.1 17.05 -2.15L17.1 -2.15L17.15 -2.15M17.05,-1.05L17.05 -1.8L16.85 -1.65L16.8 -1.6L16.6 -1.05L16.85 -1.05L17.05 -1.05M17.3,-1.65L17.3 -1.05L17.65 -1.05L17.8 -1.05L17.85 -1.05L17.75 -1.4L17.65 -1.6L17.5 -1.75L17.3 -1.8L17.3 -1.7L17.3 -1.65M17.3,-0.15L17.65 -0.4L17.75 -0.5L17.85 -0.8L17.8 -0.8L17.65 -0.8L17.3 -0.8L17.3 -0.25L17.3 -0.15M17.05,-0.15L17.05 -0.8L16.85 -0.8L16.6 -0.8L16.8 -0.4L16.85 -0.3L17.05 -0.15" />
<linearGradient
id="LinearGradID_242" gradientUnits="userSpaceOnUse" gradientTransform="matrix(0.000518799, 0, 0, 0.00646973, 10.2, 0.3)" spreadMethod ="pad" x1="-819.2" y1="0" x2="819.2" y2="0" >
<stop  offset="0" style="stop-color:#A7907A;stop-opacity:1" />
<stop  offset="1" style="stop-color:#D9CFC6;stop-opacity:1" />
</linearGradient>
<path style="fill:url(#LinearGradID_242) " d="M9.8,4.1L9.8 2.1L9.8 1.5L10.65 1.5L10.65 3.2L10.65 4.1L9.8 4.1" />
<linearGradient
id="LinearGradID_243" gradientUnits="userSpaceOnUse" gradientTransform="matrix(-0.000137329, -0.00050354, 0.0098877, -0.00265503, 2.75, 1.4)" spreadMethod ="pad" x1="-819.2" y1="0" x2="819.2" y2="0" >
<stop  offset="0" style="stop-color:#A7907A;stop-opacity:1" />
<stop  offset="1" style="stop-color:#D9CFC6;stop-opacity:1" />
</linearGradient>
<path style="fill:url(#LinearGradID_243) " d="M9.1,0.1L8 0.4L8 -0.45L0.25 1.65L0.25 2.5L0 2.6L-0.65 2.75L-0.65 1.95L-0.65 1.9L-0.65 1.85L8.8 -0.7L8.8 0.1L9.1 0.05L9.1 0.1" />
<linearGradient
id="LinearGradID_244" gradientUnits="userSpaceOnUse" gradientTransform="matrix(-0.000137329, -0.00050354, 0.0098877, -0.00265503, 4.25, 1)" spreadMethod ="pad" x1="-819.2" y1="0" x2="819.2" y2="0" >
<stop  offset="0" style="stop-color:#A7907A;stop-opacity:1" />
<stop  offset="1" style="stop-color:#D9CFC6;stop-opacity:1" />
</linearGradient>
<path style="fill:url(#LinearGradID_244) " d="M0.25,2.5L0.25 1.65L8 -0.45L8 0.4L8 0.45L1.5 2.2L1.1 2.3L0.25 2.5" />
<linearGradient
id="LinearGradID_245" gradientUnits="userSpaceOnUse" gradientTransform="matrix(-0.000137329, -0.00050354, 0.0098877, -0.00265503, -3.75, 3.2)" spreadMethod ="pad" x1="-819.2" y1="0" x2="819.2" y2="0" >
<stop  offset="0" style="stop-color:#A7907A;stop-opacity:1" />
<stop  offset="1" style="stop-color:#D9CFC6;stop-opacity:1" />
</linearGradient>
<path style="fill:url(#LinearGradID_245) " d="M-7.75,3.85L-0.65 1.95L-0.65 2.75L0 2.6L0 2.65L-7.75 4.7L-7.75 3.85" />
<linearGradient
id="LinearGradID_246" gradientUnits="userSpaceOnUse" gradientTransform="matrix(-0.000137329, -0.00050354, 0.0098877, -0.00265503, -5.25, 3.6)" spreadMethod ="pad" x1="-819.2" y1="0" x2="819.2" y2="0" >
<stop  offset="0" style="stop-color:#A7907A;stop-opacity:1" />
<stop  offset="1" style="stop-color:#D9CFC6;stop-opacity:1" />
</linearGradient>
<path style="fill:url(#LinearGradID_246) " d="M1.1,2.3L0 2.6L0.25 2.5L1.1 2.3M-12.6,5.65L-13.4 5.65L-13.5 5.35L-12.15 5L-0.65 1.9L-0.65 1.95L-7.75 3.85L-7.75 4.7L-10.85 5.55L-12.6 6L-12.6 5.65" />
<path style="fill:#DBE6BE;fill-opacity:1" d="M-19.2,-9.1L-17.6 -7.55L-17.6 -7.35L-26.1 -4.85L-29.3 -9.45L-21.5 -11.25L-20.75 -10.55L-22.7 -10.05L-22.6 -9.75L-22.65 -9.75L-22.65 -8.15L-21.8 -8.15L-21.8 -9.4L-20.05 -9.85L-19.2 -9.1M-20.1,5.95L-12.3 4.15L-11.55 4.85L-12.15 5L-13.5 5.35L-13.4 5.65L-13.45 5.65L-13.45 7.25L-12.6 7.25L-12.6 6L-10.85 5.55L-8.4 7.85L-8.4 8.05L-16.9 10.55L-20.1 5.95" />
<linearGradient
id="LinearGradID_247" gradientUnits="userSpaceOnUse" gradientTransform="matrix(-0.000137329, -0.00050354, 0.0098877, -0.00265503, -14.45, -11.8)" spreadMethod ="pad" x1="-819.2" y1="0" x2="819.2" y2="0" >
<stop  offset="0" style="stop-color:#A7907A;stop-opacity:1" />
<stop  offset="1" style="stop-color:#D9CFC6;stop-opacity:1" />
</linearGradient>
<path style="fill:url(#LinearGradID_247) " d="M-22.7,-10.05L-20.75 -10.55L-6.45 -14.4L-6.4 -14.2L-6.25 -13.55L-7.1 -13.35L-9.65 -12.65L-10.35 -13.2L-10.35 -12.45L-20.05 -9.85L-21.8 -9.4L-21.8 -9.75L-22.6 -9.75L-22.7 -10.05" />
<linearGradient
id="LinearGradID_248" gradientUnits="userSpaceOnUse" gradientTransform="matrix(0.000518799, 0, 0, 0.000976563, -22.25, -8.95)" spreadMethod ="pad" x1="-819.2" y1="0" x2="819.2" y2="0" >
<stop  offset="0" style="stop-color:#A7907A;stop-opacity:1" />
<stop  offset="1" style="stop-color:#D9CFC6;stop-opacity:1" />
</linearGradient>
<path style="fill:url(#LinearGradID_248) " d="M-21.8,-8.15L-22.65 -8.15L-22.65 -9.75L-22.6 -9.75L-21.8 -9.75L-21.8 -9.4L-21.8 -8.15" />
<path style="fill:#C9BD6B;fill-opacity:1" d="M-26.3,0.8L-29.3 -4.25L-29.35 -6.3L-29.35 -9.3L-29.3 -9.45L-26.1 -4.85L-26.3 0.8M-17.1,16.2L-20.1 11.15L-20.15 6.1L-20.1 5.95L-16.9 10.55L-17.1 16.2" />
<path style="fill:#DCD5A3;fill-opacity:1" d="M-24.5,-3.65L-24.6 -1.55L-22.35 -2.15L-22.25 -4.25L-24.5 -3.65M-26.1,-4.85L-17.6 -7.35L-17.6 -7.55L-17.6 -7.6L-17.55 -7.5L-17.6 -1.9L-26.3 0.8L-26.1 -4.85M-16.9,10.55L-8.4 8.05L-8.4 7.85L-8.4 7.8L-8.35 7.9L-8.4 13.5L-17.1 16.2L-16.9 10.55M-15.3,11.75L-15.4 13.85L-13.15 13.25L-13.05 11.15L-15.3 11.75" />
<linearGradient
id="LinearGradID_249" gradientUnits="userSpaceOnUse" gradientTransform="matrix(0.000518799, 0, 0, 0.00646973, -6.7, -8.9)" spreadMethod ="pad" x1="-819.2" y1="0" x2="819.2" y2="0" >
<stop  offset="0" style="stop-color:#A7907A;stop-opacity:1" />
<stop  offset="1" style="stop-color:#D9CFC6;stop-opacity:1" />
</linearGradient>
<path style="fill:url(#LinearGradID_249) " d="M-6.25,-11.05L-6.25 -10.1L-7.1 -10.75L-7.1 -12.95L-7.1 -13.35L-6.25 -13.55L-6.4 -14.2L-6.25 -14.2L-6.25 -13.25L-6.25 -11.05M-7.1,-9.85L-6.25 -9.2L-6.25 -8.3L-6.25 -3.6L-7.1 -3.6L-7.1 -8.05L-7.1 -9.85" />
<path style="fill:#BF9E7F;fill-opacity:1" d="M-7.1,-12.95L-7.1 -10.75L-9.15 -12.3L-7.1 -12.95" />
<linearGradient
id="LinearGradID_250" gradientUnits="userSpaceOnUse" gradientTransform="matrix(0.000518799, 0, 0, 0.000976563, -13.05, 6.45)" spreadMethod ="pad" x1="-819.2" y1="0" x2="819.2" y2="0" >
<stop  offset="0" style="stop-color:#A7907A;stop-opacity:1" />
<stop  offset="1" style="stop-color:#D9CFC6;stop-opacity:1" />
</linearGradient>
<path style="fill:url(#LinearGradID_250) " d="M-12.6,6L-12.6 7.25L-13.45 7.25L-13.45 5.65L-13.4 5.65L-12.6 5.65L-12.6 6" />
<path style="fill:#8E9DCA;fill-opacity:1" d="M-15.3,11.75L-13.05 11.15L-13.15 13.25L-15.4 13.85L-15.3 11.75" />
<linearGradient
id="LinearGradID_251" gradientUnits="userSpaceOnUse" gradientTransform="matrix(0.000518799, 1.52588e-005, -7.62939e-005, 0.00535583, 16.65, -2.4)" spreadMethod ="pad" x1="-819.2" y1="0" x2="819.2" y2="0" >
<stop  offset="0" style="stop-color:#A7907A;stop-opacity:1" />
<stop  offset="1" style="stop-color:#D9CFC6;stop-opacity:1" />
</linearGradient>
<path style="fill:url(#LinearGradID_251) " d="M16.35,-0.2L16.85 0.15L16.85 0.25L17.05 0.25L17.05 2L16.2 2L16.25 -0.4L16.35 -0.2" />
<path style="fill:#8E9DCA;fill-opacity:1" d="M0.05,-10.4L1.15 -9.05L-3.5 -7.45L-3.35 -7.3L-3.5 -7.4L-3.55 -5.3L-2.25 -3.7L-1.4 -4.05L-1.7 -3.95L-1.7 -5.65L-0.6 -6.05L-0.65 -6.1L2.4 -7.2L3.55 -5.85L3.6 -5.85L4.75 -4.5L4.8 -4.5L5.6 -3.6L6.8 -2.1L5.45 -1.7L5.9 -1.8L-3.95 1.5L-10.15 -7L-10.2 -7L-10.2 -7.05L-11.35 -8.45L-7.2 -9.8L-7.1 -8.05L-7.1 -3.6L-6.25 -3.6L-6.25 -8.3L-6.2 -8.3L-6.15 -10.05L-0.9 -11.6L0.05 -10.4M-0.15,-10.5L-0.2 -10.5L-0.15 -10.45L-0.1 -10.5L-0.15 -10.5M-1.95,-8.1L-2.4 -8.65L-2.5 -8.6L-2 -8.05L-1.95 -8.1" />
<path style="fill:#FFFF00;fill-opacity:1" d="M-22.35,-2.15L-24.6 -1.55L-24.5 -3.65L-22.25 -4.25L-22.35 -2.15M-13.05,11.15L-13.15 13.25L-15.4 13.85L-15.3 11.75L-13.05 11.15" />
</g>
</svg>
