<?xml version="1.0" encoding="utf-8"?>
<svg version="1.1" id="Layer_1"
xmlns="http://www.w3.org/2000/svg"
xmlns:xlink="http://www.w3.org/1999/xlink"
xmlns:author="http://www.sothink.com"
width="61px" height="30px"
xml:space="preserve">
<g id="187" transform="matrix(1, 0, 0, 1, 30, 15)">
<path style="fill:#9DD6DD;fill-opacity:0.6" d="M-30,11.95L-27.1 11.95L-27.1 -12.35L27 -12.35L27 12L-29.95 12L-30 12L-30 11.95M9.95,7.1L9.95 7.15L12.1 5.85L12.1 -1.45Q9.1 2.05 9.95 7.1" />
<path style="fill:#42AEBD;fill-opacity:1" d="M-27.1,-12.35L-27.1 11.95L-30 11.95L-30 -15L27 -15L27 -12.35L-27.1 -12.35" />
<path style="fill:#D1EAED;fill-opacity:1" d="M30.05,-15L30.05 15L-29.95 15L-29.95 12L27 12L27 -12.35L27 -15L30.05 -15" />
<path style="fill:#FF9900;fill-opacity:1" d="M12.1,-1.45L12.1 5.85L9.95 7.15L9.95 7.1Q9.1 2.05 12.1 -1.45" />
<path style="fill:none;stroke-width:1;stroke-linecap:round;stroke-linejoin:round;stroke-miterlimit:3;stroke:#FF9900;stroke-opacity:1" d="M1.25,-2L1.25 -6.9L1.25 -7.2L7 -7.2L7 -1.5L1.25 -1.5L1.25 -2L6.15 -4.45L1.25 -6.9M9.95,7.15L9.9 7.15L9.85 7.15L2.55 7.15L-0.85 9.7L-9.9 9.1L-4.9 7.15L-6.2 7.15Q-6.05 0.5 -3 -1.45L12.1 -1.45L12.1 5.85L9.95 7.15L9.95 7.1L9.9 7.15M9.85,7.15L9.95 7.1Q9.1 2.05 12.1 -1.45M-4.9,7.15L-1.35 5.75L4.8 5.75L2.55 7.15M16.2,11.25L-13.8 11.25L-13.8 -8.75L16.2 -8.75L16.2 11.25M-2.95,5.55L6.15 5.55" />
</g>
</svg>
