<?xml version="1.0" encoding="utf-8"?>
<svg version="1.1" id="Layer_1"
xmlns="http://www.w3.org/2000/svg"
xmlns:xlink="http://www.w3.org/1999/xlink"
xmlns:author="http://www.sothink.com"
width="30px" height="31px"
xml:space="preserve">
<g id="190" transform="matrix(1, 0, 0, 1, 15, 15)">
<path style="fill:#9DD6DD;fill-opacity:1" d="M-15,-14.95L-15 -15L12 -15L12 -14.95L-15 -14.95" />
<path style="fill:#9DD6DD;fill-opacity:0.6" d="M3.95,-6.4L-1.3 -6.4L-1.3 -0.65L-6.6 -0.65L1.4 9.6L9.4 -0.7L3.95 -0.7L3.95 -6.4M-12.3,-12.25L12 -12.25L12 12L-12.3 12L-12.3 -12.25" />
<path style="fill:#FF9900;fill-opacity:1" d="M3.95,-0.7L9.4 -0.7L1.4 9.6L-6.6 -0.65L-1.3 -0.65L-1.3 -6.4L3.95 -6.4L3.95 -0.7" />
<path style="fill:#42AEBD;fill-opacity:1" d="M-15,-14.95L12 -14.95L12 -12.25L-12.3 -12.25L-12.3 12L-12.3 12.05L-15 12.05L-15 -14.95" />
<path style="fill:#D1EAED;fill-opacity:1" d="M15,-14.95L15 15.05L-15 15.05L-15 12.05L-12.3 12.05L-12.3 12L12 12L12 -12.25L12 -14.95L15 -14.95" />
<path style="fill:none;stroke-width:1;stroke-linecap:round;stroke-linejoin:round;stroke-miterlimit:3;stroke:#FF9900;stroke-opacity:1" d="M11.4,11.35L-8.6 11.35L-8.6 -8.65L11.4 -8.65L11.4 11.35z" />
</g>
</svg>
