<?xml version="1.0" encoding="utf-8"?>
<svg version="1.1" id="Layer_1"
xmlns="http://www.w3.org/2000/svg"
xmlns:xlink="http://www.w3.org/1999/xlink"
xmlns:author="http://www.sothink.com"
width="35px" height="25px"
xml:space="preserve">
<g id="157" transform="matrix(1, 0, 0, 1, 17.1, 12.5)">
<path style="fill:#4E6C33;fill-opacity:1" d="M-16.7,-12.5L14.9 -12.5L14.9 -12.45L-16.7 -12.45L-16.7 -12.5M16.9,-12.45L16.9 -12.5L17.05 -12.5L17.05 -12.45L16.9 -12.45" />
<path style="fill:#563529;fill-opacity:1" d="M16.9,-12.45L16.9 12.5L-17.1 12.5L-17.1 -12.45L-16.7 -12.45L14.9 -12.45L14.9 -12.5L16.9 -12.5L16.9 -12.45M14.9,-10.6L-15.2 -10.6L-15.2 10.5L14.9 10.5L14.9 -10.6" />
<path style="fill:#DBE6BE;fill-opacity:1" d="M14.9,10.5L-15.2 10.5L-15.2 -10.6L14.9 -10.6L14.9 10.5" />
<path style="fill:#D5DAF1;fill-opacity:1" d="M5.75,-7.25L5.6 -7.05L5.5 -7L5.25 -6.95L5.25 -7.1L5.5 -7.2L5.65 -7.55L5.55 -7.8L5.7 -8.15L5.55 -8.45L5.3 -8.55L5.3 -8.7L5.15 -9.05L4.8 -9.2L4.9 -9.35L5.3 -9.5L5.65 -9.35L5.85 -9L5.8 -8.85L6.05 -8.75L6.25 -8.4L6.1 -8.1L6.2 -7.8L6 -7.5L5.95 -7.45L5.8 -7.4L5.75 -7.25M4.7,-6.6L4.65 -6.6L4.7 -6.6L5.1 -6.75L5.05 -6.7L5 -6.65L4.7 -6.6M4.1,-6.05L4.15 -6.25L4.15 -6.3Q4.35 -6.3 4.55 -6.45L4.65 -6.55L4.6 -6.4L4.5 -6.2L4.4 -6.15L4.1 -6.05M2.55,-4.9L2.5 -4.9L2.55 -5.05L2.45 -5.35L2.6 -5.65L2.55 -5.8L2.8 -5.75L3.1 -5.9L3.1 -5.85L2.95 -5.65L3.1 -5.35L2.95 -5.05L2.85 -5L2.55 -4.9M1.65,-6.8L1.75 -6.9L1.7 -6.8L1.7 -6.75L1.65 -6.75L1.65 -6.8M3.5,-8.7L3.35 -8.4L3.15 -8.45L3.3 -8.6L3.6 -8.75L3.5 -8.7M4.35,-9.05L4.2 -8.75L3.95 -8.8L3.95 -8.85L4.05 -9L4.45 -9.15L4.5 -9.15L4.35 -9.05M3.25,-7.55L3.25 -7.5L3.25 -7.55" />
<path style="fill:#FFFFFF;fill-opacity:1" d="M5.8,-7.4L5.95 -7.45L5.8 -7.3L5.75 -7.25L5.8 -7.4M1.75,-4.65L1.65 -4.75L1.45 -5.05L1.55 -5.3L1.15 -5.45Q1 -5.6 1 -5.8L1.15 -6.1L1.1 -6.3L1.25 -6.65L1.65 -6.75L1.65 -6.8L1.65 -6.75L1.7 -6.75L1.7 -6.8L1.75 -6.9L1.85 -7.15L2.2 -7.25L2.2 -7.35L2.35 -7.7L2.6 -7.8L2.6 -8L2.75 -8.3Q2.9 -8.45 3.15 -8.45L3.35 -8.4L3.5 -8.7L3.6 -8.75L3.9 -8.8L3.95 -8.85L3.95 -8.8L4.2 -8.75L4.35 -9.05L4.5 -9.15L4.75 -9.2L4.8 -9.2L5.15 -9.05L5.3 -8.7L5.3 -8.55L5.55 -8.45L5.7 -8.15L5.55 -7.8L5.65 -7.55L5.5 -7.2L5.25 -7.1L5.25 -6.95L5.5 -7L5.4 -6.85L5.05 -6.7L5.1 -6.75L4.7 -6.6L4.65 -6.6L4.7 -6.6L5 -6.65L4.85 -6.5L4.6 -6.4L4.65 -6.55L4.55 -6.45Q4.35 -6.3 4.15 -6.3L4.15 -6.25L4.1 -6.05L4.4 -6.15L4.25 -6Q4.1 -5.85 3.9 -5.85L3.6 -5.75L3.25 -5.9L3.1 -5.85L3.1 -5.9L2.8 -5.75L2.55 -5.8L2.6 -5.65L2.45 -5.35L2.55 -5.05L2.5 -4.9L2.55 -4.9L2.85 -5L2.7 -4.85L2.3 -4.65L2.05 -4.6L1.75 -4.65M3.25,-7.5L3.25 -7.55L3.25 -7.5" />
<linearGradient
id="LinearGradID_504" gradientUnits="userSpaceOnUse" gradientTransform="matrix(0.000442505, 0, 0, 0.000167847, 93.85, 32.45)" spreadMethod ="pad" x1="-819.2" y1="0" x2="819.2" y2="0" >
<stop  offset="0" style="stop-color:#A7907A;stop-opacity:1" />
<stop  offset="1" style="stop-color:#D9CFC6;stop-opacity:1" />
</linearGradient>
<path style="fill:url(#LinearGradID_504) " d="M2.05,-4.6L2.3 -4.65L2.4 -4.55L2.3 -4.5L2.05 -4.45L1.8 -4.5L1.7 -4.55L1.7 -4.6L1.75 -4.65L2.05 -4.6" />
<linearGradient
id="LinearGradID_505" gradientUnits="userSpaceOnUse" gradientTransform="matrix(0.000640869, 0, 0, 0.00291443, 2, -2.25)" spreadMethod ="pad" x1="-819.2" y1="0" x2="819.2" y2="0" >
<stop  offset="0" style="stop-color:#A7907A;stop-opacity:1" />
<stop  offset="1" style="stop-color:#D9CFC6;stop-opacity:1" />
</linearGradient>
<path style="fill:url(#LinearGradID_505) " d="M2.55,0.15Q2 0.45 1.5 0.15L1.5 0.05L1.7 -4.55L1.7 -4.6L1.7 -4.55L1.8 -4.5L2.05 -4.45L2.3 -4.5L2.4 -4.55L2.55 0.05L2.55 0.15" />
<path style="fill:#EFE3DE;fill-opacity:1" d="M2.55,-0.2L2.55 -0.3L2.95 -0.4L2.95 0.05L2.9 0.1L2.55 -0.2M-3.3,8.6L6.85 4.4L6.9 4.4L7.25 4.2L7.2 4.95L-3.25 9.35L-3.3 9.35L-3.3 8.6M-7.05,3.35L-7.45 2.75L-7.45 3.45L-7.5 2.8L-7.45 2.75L-5.9 2.25L-5.9 2.35L-5.9 2.45L-5.85 2.45L-5.85 2.5L-5.9 2.45L-5.9 3L-7.05 3.35M-4.65,1.9L-1.65 1L-1.55 1.55L-3.45 2.2L-3.55 2.15L-3.75 2.05L-4.6 1.9L-4.65 1.9" />
<path style="fill:#E4D0C9;fill-opacity:1" d="M2.95,0.05L2.95 -0.4L3.25 -0.05L2.95 0.05M3.65,0.65L3.4 0.1L3.85 0.55L3.65 0.65M4.2,1.2L4 0.75L4.35 1.1L4.2 1.2M4.55,1.35L4.95 1.75L4.85 1.75L4.8 1.75L4.55 1.35M5.35,2.2L5.2 2.05L5.15 1.95L5.5 2.3L5.35 2.2M6.9,4.4L5.7 3.1L5.7 2.55L5.65 2.55L5.65 2.5L5.7 2.55L7.25 4.2L6.9 4.4M-7.45,2.75L-7.05 3.35L-5.6 5.35L-5.6 5.4L-5.45 5.55L-4.6 6.75L-4.6 7.45L-7.4 3.45L-7.45 3.45L-7.45 2.75" />
<path style="fill:#EAEAEA;fill-opacity:1" d="M-0.05,2.2L-0.2 1.9L-0.15 2.25L-0.25 2.25L-0.75 1.35L1.2 0.7L1.2 0.65L2.9 0.1L2.95 0.05L3.25 -0.05L3.3 -0.05L3.4 0.1L3.65 0.65L3.85 0.55L3.9 0.55L4 0.75L4.2 1.2L4.35 1.1L4.4 1.1L4.55 1.35L4.8 1.75L4.85 1.75L4.95 1.75L5 1.7L5.15 1.95L5.2 2.05L5.35 2.2L5.5 2.3L5.55 2.35L5.55 2.4L5.65 2.55L1.4 4.15L1.4 4.1L1.2 3.55L1.15 3.55L0.9 3.05L0.95 3.55L0.5 2.85L0.4 2.7L0.4 2.85L0.3 2.9L0.25 2.7L-0.05 2.2" />
<path style="fill:#D5D5D5;fill-opacity:1" d="M-1.65,0.8L-1.7 0.75L1.5 -0.25L1.5 0.05L1.5 0.15Q2 0.45 2.55 0.15L2.55 0.05L2.55 -0.2L2.9 0.1L1.2 0.65L1.2 0.7L-0.75 1.35L-0.25 2.25L-0.25 2.3L-0.8 1.3L-0.75 1.8L-1.65 0.8M4.8,1.75L4.85 1.75L4.8 1.75M0.4,2.85L0.45 3.15L0.25 2.9L0.35 3L0.3 2.9L0.4 2.85M0.25,2.7L-0.05 2.2L0.25 2.7M-0.15,2.25L-0.15 2.4L-0.2 2.35L-0.25 2.25L-0.15 2.25M0.5,2.85L0.95 3.55L0.95 3.6L0.5 2.85M1.15,3.55L1.2 3.55L1.4 4.1L1.15 3.55" />
<path style="fill:#A8ABAC;fill-opacity:1" d="M-1.65,1L-1.65 0.8L-0.75 1.8L-0.8 1.3L-0.25 2.3L-0.25 2.25L-0.2 2.35L-0.15 2.4L-0.15 2.25L-0.2 1.9L-0.05 2.2L0.25 2.7L0.3 2.9L0.35 3L0.25 2.9L0.45 3.15L0.4 2.85L0.4 2.7L0.5 2.85L0.95 3.6L0.95 3.55L0.9 3.05L1.15 3.55L1.4 4.1L1.4 4.2L1.6 6.1L-1.4 2.55L-1.55 1.55L-1.65 1M1.25,4.45L-1.35 1.65L-1.3 2L1.3 4.85L1.25 4.45" />
<path style="fill:#C9D8F3;fill-opacity:1" d="M1.3,4.85L-1.3 2L-1.35 1.65L1.25 4.45L1.3 4.85" />
<path style="fill:#715944;fill-opacity:1" d="M-4.6,6.75L-5.45 5.55L-5.3 5.65L-4.7 5.8L-4 5.65L-3.8 5.55L-3.6 5.4L-3.6 4.35L-3.55 4.35L-3.45 4.25L-3.45 4.7L-3.3 4.85L-3 4.95L-2.55 4.85L-2.45 4.8L-2.35 4.7L-2.35 4L-2.35 3.9L-2.45 3.8L-2.5 3.8L-2.9 3.75L-3.3 3.8L-3.4 3.8L-3.4 2.45L-3.35 2.35L-3.35 2.3L-3.4 2.3L-3.45 2.2L-1.55 1.55L-1.4 2.55L1.6 6.1L5.75 4.25L5.7 3.1L6.9 4.4L6.85 4.4L-3.3 8.6L-3.3 9.35L-4.6 7.45L-4.6 6.75M-5.9,3L-5.9 4.15L-5.6 4.45L-5.6 5.35L-7.05 3.35L-5.9 3" />
<linearGradient
id="LinearGradID_506" gradientUnits="userSpaceOnUse" gradientTransform="matrix(0.00152588, 0, 0, 0.0012207, -4.65, 3.1)" spreadMethod ="pad" x1="-819.2" y1="0" x2="819.2" y2="0" >
<stop  offset="0" style="stop-color:#A7907A;stop-opacity:1" />
<stop  offset="1" style="stop-color:#D9CFC6;stop-opacity:1" />
</linearGradient>
<path style="fill:url(#LinearGradID_506) " d="M-3.45,4.25L-3.55 4.35L-3.6 4.35L-3.6 4.05L-3.6 4L-3.6 3.95L-3.75 3.85L-3.9 3.75L-4.6 3.65L-5.3 3.75L-5.55 3.9L-5.6 3.9L-5.55 3.9L-5.55 3.95L-5.6 4L-5.55 4.1L-5.6 4.1L-5.6 4.45L-5.9 4.15L-5.9 3L-5.9 2.45L-5.85 2.5L-5.5 2.7L-5.25 2.8L-5.15 2.8L-4.7 2.85L-4.65 2.85L-4.15 2.8L-3.75 2.7L-3.55 2.6L-3.5 2.55L-3.45 2.5L-3.4 2.5L-3.4 2.45L-3.4 3.8L-3.45 3.9L-3.45 3.95L-3.45 4L-3.45 4.25" />
<linearGradient
id="LinearGradID_507" gradientUnits="userSpaceOnUse" gradientTransform="matrix(0.00152588, 0, 0, 0.000564575, 103.1, 57.85)" spreadMethod ="pad" x1="-819.2" y1="0" x2="819.2" y2="0" >
<stop  offset="0" style="stop-color:#A7907A;stop-opacity:1" />
<stop  offset="1" style="stop-color:#D9CFC6;stop-opacity:1" />
</linearGradient>
<path style="fill:url(#LinearGradID_507) " d="M-5.9,2.25L-5.85 2.25L-5.5 2.05L-4.65 1.9L-4.6 1.9L-3.75 2.05L-3.55 2.15L-3.45 2.2L-3.4 2.3L-3.35 2.3L-3.35 2.35L-3.4 2.45L-3.4 2.5L-3.45 2.5L-3.5 2.55L-3.55 2.6L-3.75 2.7L-4.15 2.8L-4.65 2.85L-4.7 2.85L-5.15 2.8L-5.25 2.8L-5.5 2.7L-5.85 2.5L-5.85 2.45L-5.9 2.45L-5.9 2.35L-5.9 2.25" />
<linearGradient
id="LinearGradID_508" gradientUnits="userSpaceOnUse" gradientTransform="matrix(0.000686646, 0, 0, 0.000244141, 44.85, 28.55)" spreadMethod ="pad" x1="-819.2" y1="0" x2="819.2" y2="0" >
<stop  offset="0" style="stop-color:#A7907A;stop-opacity:1" />
<stop  offset="1" style="stop-color:#D9CFC6;stop-opacity:1" />
</linearGradient>
<path style="fill:url(#LinearGradID_508) " d="M-3.45,4L-3.45 3.95L-3.45 3.9L-3.4 3.8L-3.3 3.8L-2.9 3.75L-2.5 3.8L-2.45 3.8L-2.35 3.9L-2.35 4L-2.4 4L-2.45 4.05L-2.5 4.05L-2.7 4.1L-2.9 4.15L-2.95 4.15L-3.15 4.1L-3.3 4.05L-3.4 4.05L-3.45 4" />
<linearGradient
id="LinearGradID_509" gradientUnits="userSpaceOnUse" gradientTransform="matrix(0.000671387, 0, 0, 0.000549316, -2.95, 4.25)" spreadMethod ="pad" x1="-819.2" y1="0" x2="819.2" y2="0" >
<stop  offset="0" style="stop-color:#A7907A;stop-opacity:1" />
<stop  offset="1" style="stop-color:#D9CFC6;stop-opacity:1" />
</linearGradient>
<path style="fill:url(#LinearGradID_509) " d="M-3.45,4L-3.4 4.05L-3.3 4.05L-3.15 4.1L-2.95 4.15L-2.9 4.15L-2.7 4.1L-2.5 4.05L-2.45 4.05L-2.4 4L-2.35 4L-2.35 4.7L-2.45 4.8L-2.55 4.85L-3 4.95L-3.3 4.85L-3.45 4.7L-3.45 4.25L-3.45 4" />
<linearGradient
id="LinearGradID_510" gradientUnits="userSpaceOnUse" gradientTransform="matrix(0.00120544, 0, 0, 0.000946045, -4.65, 4.6)" spreadMethod ="pad" x1="-819.2" y1="0" x2="819.2" y2="0" >
<stop  offset="0" style="stop-color:#A7907A;stop-opacity:1" />
<stop  offset="1" style="stop-color:#D9CFC6;stop-opacity:1" />
</linearGradient>
<path style="fill:url(#LinearGradID_510) " d="M-5.6,4.45L-5.6 4.1L-5.55 4.1L-5.3 4.25L-5 4.35L-4.6 4.35L-4.25 4.35L-3.9 4.25L-3.75 4.2L-3.7 4.15L-3.65 4.1L-3.6 4.05L-3.6 4.35L-3.6 5.4L-3.8 5.55L-4 5.65L-4.7 5.8L-5.3 5.65L-5.45 5.55L-5.6 5.4L-5.6 5.35L-5.6 4.45M-5.55,3.9L-5.6 3.9L-5.55 3.9" />
<linearGradient
id="LinearGradID_511" gradientUnits="userSpaceOnUse" gradientTransform="matrix(0.00120544, 0, 0, 0.000442505, 80.15, 47.7)" spreadMethod ="pad" x1="-819.2" y1="0" x2="819.2" y2="0" >
<stop  offset="0" style="stop-color:#A7907A;stop-opacity:1" />
<stop  offset="1" style="stop-color:#D9CFC6;stop-opacity:1" />
</linearGradient>
<path style="fill:url(#LinearGradID_511) " d="M-3.65,4.1L-3.7 4.15L-3.75 4.2L-3.9 4.25L-4.25 4.35L-4.6 4.35L-5 4.35L-5.3 4.25L-5.55 4.1L-5.6 4L-5.55 3.95L-5.55 3.9L-5.3 3.75L-4.6 3.65L-3.9 3.75L-3.75 3.85L-3.6 3.95L-3.6 4L-3.6 4.05L-3.65 4.1" />
<path style="fill:#CED0D0;fill-opacity:1" d="M5.75,4.25L1.6 6.1L1.4 4.2L1.4 4.1L1.4 4.15L5.65 2.55L5.55 2.4L5.6 2.45L5.65 2.5L5.65 2.55L5.7 2.55L5.7 3.1L5.75 4.25" />
</g>
</svg>
