<?xml version="1.0" encoding="utf-8"?>
<svg version="1.1" id="Layer_1"
xmlns="http://www.w3.org/2000/svg"
xmlns:xlink="http://www.w3.org/1999/xlink"
xmlns:author="http://www.sothink.com"
width="67px" height="64px"
xml:space="preserve">
<g id="54" transform="matrix(1, 0, 0, 1, 33.2, 20.75)">
<linearGradient
id="LinearGradID_111" gradientUnits="userSpaceOnUse" gradientTransform="matrix(0.00198364, 0, 0, 0.000747681, 423.1, 146.55)" spreadMethod ="pad" x1="-819.2" y1="0" x2="819.2" y2="0" >
<stop  offset="0" style="stop-color:#A7907A;stop-opacity:1" />
<stop  offset="1" style="stop-color:#D9CFC6;stop-opacity:1" />
</linearGradient>
<path style="fill:url(#LinearGradID_111) " d="M8.35,-20.75Q8.9 -20.45 9.6 -20.45Q10.3 -20.45 10.9 -20.75L11.3 -20.35L11.25 -20.25L10.8 -19.9L9.65 -19.7L8.45 -19.9Q8 -20.1 8.05 -20.35L8.15 -20.6L8.35 -20.75" />
<linearGradient
id="LinearGradID_112" gradientUnits="userSpaceOnUse" gradientTransform="matrix(0.00289917, 0, 0, 0.0131226, 9.6, -9.85)" spreadMethod ="pad" x1="-819.2" y1="0" x2="819.2" y2="0" >
<stop  offset="0" style="stop-color:#A7907A;stop-opacity:1" />
<stop  offset="1" style="stop-color:#D9CFC6;stop-opacity:1" />
</linearGradient>
<path style="fill:url(#LinearGradID_112) " d="M12,0.55L12 0.9Q9.65 2.3 7.25 0.9L7.3 0.55L8 -20.6L8.15 -20.6L8.05 -20.35Q8 -20.1 8.45 -19.9L9.65 -19.7L10.8 -19.9L11.25 -20.25L12 0.55" />
<linearGradient
id="LinearGradID_113" gradientUnits="userSpaceOnUse" gradientTransform="matrix(0.00198364, 0, 0, 0.000747681, 417.1, 148.45)" spreadMethod ="pad" x1="-819.2" y1="0" x2="819.2" y2="0" >
<stop  offset="0" style="stop-color:#A7907A;stop-opacity:1" />
<stop  offset="1" style="stop-color:#D9CFC6;stop-opacity:1" />
</linearGradient>
<path style="fill:url(#LinearGradID_113) " d="M4.8,-18L3.65 -17.8L2.45 -18Q2 -18.2 2.05 -18.45L2.15 -18.7L2.35 -18.85Q2.9 -18.55 3.6 -18.55L4.9 -18.85L5.3 -18.45L5.25 -18.35L4.8 -18" />
<linearGradient
id="LinearGradID_114" gradientUnits="userSpaceOnUse" gradientTransform="matrix(0.00289917, 0, 0, 0.0131226, 3.6, -7.95)" spreadMethod ="pad" x1="-819.2" y1="0" x2="819.2" y2="0" >
<stop  offset="0" style="stop-color:#A7907A;stop-opacity:1" />
<stop  offset="1" style="stop-color:#D9CFC6;stop-opacity:1" />
</linearGradient>
<path style="fill:url(#LinearGradID_114) " d="M6,2.8Q3.65 4.2 1.25 2.8L1.35 0.95L2 -18.7L2.15 -18.7L2.05 -18.45Q2 -18.2 2.45 -18L3.65 -17.8L4.8 -18L5.25 -18.35L5.9 -0.5L6 2.8" />
<path style="fill:#D5D5D5;fill-opacity:1" d="M-6.45,4.35L-7.15 3.55L1.35 0.95L1.25 2.8Q3.65 4.2 6 2.8L5.9 -0.5L7.3 -0.9L7.25 0.55L7.3 0.55L7.25 0.9Q9.65 2.3 12 0.9L12 0.55L12 -0.55L13.45 0.65L5.95 3.25L5.95 3.3L-2.8 6.3L-0.7 10.5L-0.65 10.5L-0.3 10.4L-0.25 11.2L-0.45 10.95L-0.7 10.5L-0.7 10.55L-3 6.2L-2.85 8.3L-6.45 4.35M22.2,8.15L22.1 8.15L22.05 8L22.2 8.15M1.9,13.25L0.3 10.2L0.35 10.15L1.9 13.2L1.9 13.25M2.6,14.35L1.65 13.3L2.15 13.7L1.9 13.2L1.95 13.2L2.45 13.05L2.6 14.35M4.75,16.45L2.7 12.95L2.8 12.95L4.75 16.35L4.75 16.45M5.75,16.25L5.85 16.25L6.75 18.7L5.75 16.25" />
<path style="fill:#EFE3DE;fill-opacity:1" d="M13.65,0.6L13.45 0.65L12 -0.55L12 -1L13.65 -1.55L13.7 -1.55L13.65 0.6M33.2,19.2L32.8 22.6L-14.25 42.35L-14.35 42.35L-14.45 39L31.3 20.2L31.3 20.15L31.45 20.05L33.2 19.2M-33.1,12.7L-33 15.8L-32.95 15.8L-33.05 15.85L-33.05 15.75L-33 15.8L-33.2 12.8L-33.1 12.7L-25.9 10.55L-26 10.95L-25.9 11.4L-25.9 11.45L-25.75 11.6L-25.85 11.5L-26 11.35L-26 13.75L-31.2 15.45L-33.1 12.7M-20.4,8.85L-6.8 4.7L-6.45 7.35L-15.05 10.2L-15.5 9.85L-16.35 9.45Q-18 8.85 -20.35 8.85L-20.4 8.85" />
<path style="fill:#EAEAEA;fill-opacity:1" d="M-0.4,8.9L-0.3 10.4L-0.65 10.5L-0.7 10.5L-2.8 6.3L5.95 3.3L5.95 3.25L13.45 0.65L13.65 0.6L15.2 0.05L15.45 0L15.75 0.65L16.95 3.05L17.75 2.8L18.05 2.7L18.45 3.5L19.45 5.6L20.1 5.3L20.4 5.2L21.05 6.3L22.05 8L22.1 8.15L22.2 8.15L22.65 8L23.05 7.85L23.65 9.05L23.9 9.6L24.55 10.15L24.65 10.25L25.2 10.7L25.45 10.9L25.55 11.15L25.6 11.15L25.9 11.8L6.85 19L6.75 18.7L5.85 16.25L5.75 16.25L4.6 14.05L4.75 16.35L2.8 12.95L2.7 12.95L2.4 12.45L2.45 13.05L1.95 13.2L1.9 13.2L0.35 10.15L0.3 10.2L-0.4 8.9" />
<path style="fill:#E4D0C9;fill-opacity:1" d="M13.65,0.6L13.7 -1.55L15.2 0.05L13.65 0.6M15.75,0.65L17.75 2.8L16.95 3.05L15.75 0.65M18.45,3.5L20.1 5.3L19.45 5.6L18.45 3.5M22.05,8L21.05 6.3L22.65 8L22.2 8.15L22.05 8M24.65,10.25L24.55 10.15L23.9 9.6L23.65 9.05L25.2 10.7L24.65 10.25M25.9,11.45L26.1 11.7L25.95 11.8L25.9 11.45M26.1,14.25L26.15 11.75L33.2 19.2L31.45 20.05L26.1 14.25M-31.2,15.45L-20.25 30.75L-20.25 33.85L-20.25 33.9L-32.9 15.8L-32.95 15.8L-33 15.8L-33.1 12.7L-31.2 15.45" />
<path style="fill:#CED0D0;fill-opacity:1" d="M26.1,14.25L26.5 19.35L7.7 27.6L6.85 19.25L6.75 18.7L6.85 19L25.9 11.8L25.6 11.15L25.85 11.25L25.9 11.45L25.95 11.8L26.1 11.7L26.15 11.65L26.15 11.75L26.1 14.25" />
<path style="fill:#715944;fill-opacity:1" d="M-20.25,30.75L-31.2 15.45L-26 13.75L-26 18.9L-24.65 20.3L-24.65 24.6L-23.25 25.85Q-22.25 26.35 -20.7 26.45Q-18.8 26.5 -17.4 25.85L-16.45 25.25L-15.8 24.6L-15.8 19.95L-15.6 19.75L-15.15 19.35L-15.15 21.45L-14.35 22.15L-12.9 22.5L-11.05 22.15L-10.5 21.85L-10.15 21.45L-10.15 18.1L-10.1 17.95L-10.15 17.8L-10.5 17.45L-10.85 17.25L-12.65 17L-14.4 17.25L-14.75 17.4L-14.75 11.3L-14.65 10.95L-14.7 10.7L-14.75 10.6L-15.05 10.2L-6.45 7.35L-5.8 11.75L7.7 27.6L26.5 19.35L26.1 14.25L31.45 20.05L31.3 20.15L31.3 20.2L-14.45 39L-14.35 42.35L-20.25 33.85L-20.25 30.75M-14.3,11.95L-14.4 11.85L-14.4 15.2L-13.6 15.9L-12.15 16.25L-10.3 15.9L-9.75 15.6L-9.4 15.2L-9.4 11.85L-9.35 11.7L-9.4 11.55L-9.75 11.2L-10.1 11L-11.9 10.75L-13.65 11L-14 11.15L-14.3 11.45L-14.35 11.45L-14.4 11.7L-14.35 11.85L-14.35 11.9L-14.25 11.95L-14.3 11.95" />
<path style="fill:#A8ABAC;fill-opacity:1" d="M-6.8,4.7L-6.95 3.8L-6.45 4.35L-2.85 8.3L-3 6.2L-0.7 10.55L-0.7 10.5L-0.45 10.95L-0.25 11.2L-0.3 10.4L-0.4 8.9L0.3 10.2L1.9 13.25L1.9 13.2L2.15 13.7L1.65 13.3L2.6 14.35L2.45 13.05L2.4 12.45L2.7 12.95L4.75 16.45L4.75 16.35L4.6 14.05L5.75 16.25L6.75 18.7L6.85 19.25L7.7 27.6L-5.8 11.75L-6.45 7.35L-6.8 4.7M6.15,20.3L-5.55 7.75L-5.4 9.3L6.3 22.1L6.15 20.3" />
<path style="fill:#C9D8F3;fill-opacity:1" d="M6.3,22.1L-5.4 9.3L-5.55 7.75L6.15 20.3L6.3 22.1" />
<linearGradient
id="LinearGradID_115" gradientUnits="userSpaceOnUse" gradientTransform="matrix(0.00306702, 0, 0, 0.00112915, 203.25, 122.55)" spreadMethod ="pad" x1="-819.2" y1="0" x2="819.2" y2="0" >
<stop  offset="0" style="stop-color:#A7907A;stop-opacity:1" />
<stop  offset="1" style="stop-color:#D9CFC6;stop-opacity:1" />
</linearGradient>
<path style="fill:url(#LinearGradID_115) " d="M-9.45,11.9L-9.5 12L-9.65 12.1L-9.75 12.15L-10.1 12.35L-10.95 12.55L-11.9 12.6L-12.05 12.6L-12.1 12.6L-12.9 12.55L-13.65 12.35L-14 12.2L-14.25 11.95L-14.35 11.9L-14.35 11.85L-14.4 11.7L-14.35 11.45L-14.3 11.45L-14 11.15L-13.65 11L-11.9 10.75L-10.1 11L-9.75 11.2L-9.4 11.55L-9.35 11.7L-9.4 11.85L-9.45 11.9" />
<linearGradient
id="LinearGradID_116" gradientUnits="userSpaceOnUse" gradientTransform="matrix(0.00305176, 0, 0, 0.00244141, -11.9, 13.2)" spreadMethod ="pad" x1="-819.2" y1="0" x2="819.2" y2="0" >
<stop  offset="0" style="stop-color:#A7907A;stop-opacity:1" />
<stop  offset="1" style="stop-color:#D9CFC6;stop-opacity:1" />
</linearGradient>
<path style="fill:url(#LinearGradID_116) " d="M-9.4,11.85L-9.4 15.2L-9.75 15.6L-10.3 15.9L-12.15 16.25L-13.6 15.9L-14.4 15.2L-14.4 11.85L-14.3 11.95L-14.25 11.95L-14 12.2L-13.65 12.35L-12.9 12.55L-12.1 12.6L-12.05 12.6L-11.9 12.6L-10.95 12.55L-10.1 12.35L-9.75 12.15L-9.65 12.1L-9.5 12L-9.45 11.9L-9.4 11.85" />
<linearGradient
id="LinearGradID_117" gradientUnits="userSpaceOnUse" gradientTransform="matrix(0.00691223, 0, 0, 0.00253296, 464.75, 260.95)" spreadMethod ="pad" x1="-819.2" y1="0" x2="819.2" y2="0" >
<stop  offset="0" style="stop-color:#A7907A;stop-opacity:1" />
<stop  offset="1" style="stop-color:#D9CFC6;stop-opacity:1" />
</linearGradient>
<path style="fill:url(#LinearGradID_117) " d="M-25.9,11.45L-25.9 11.4L-26 10.95L-25.9 10.55L-25.9 10.5L-25.85 10.4L-24.35 9.45Q-22.7 8.85 -20.4 8.85L-20.35 8.85Q-18 8.85 -16.35 9.45L-15.5 9.85L-15.05 10.2L-14.75 10.6L-14.7 10.7L-14.65 10.95L-14.75 11.3L-14.85 11.45L-15 11.65L-15.35 11.9L-15.5 12L-16.35 12.4L-18.25 12.9L-20.35 13.05L-20.45 13.05L-20.7 13.05L-20.8 13.05L-22.7 12.9L-23.05 12.8L-24.35 12.4Q-25.35 12.05 -25.75 11.6L-25.9 11.45" />
<linearGradient
id="LinearGradID_118" gradientUnits="userSpaceOnUse" gradientTransform="matrix(0.00686646, 0, 0, 0.00549316, -20.4, 14.4)" spreadMethod ="pad" x1="-819.2" y1="0" x2="819.2" y2="0" >
<stop  offset="0" style="stop-color:#A7907A;stop-opacity:1" />
<stop  offset="1" style="stop-color:#D9CFC6;stop-opacity:1" />
</linearGradient>
<path style="fill:url(#LinearGradID_118) " d="M-24.55,18.75L-24.65 18.65L-24.65 20.3L-26 18.9L-26 13.75L-26 11.35L-25.85 11.5L-25.75 11.6Q-25.35 12.05 -24.35 12.4L-23.05 12.8L-22.7 12.9L-20.8 13.05L-20.7 13.05L-20.45 13.05L-20.35 13.05L-18.25 12.9L-16.35 12.4L-15.5 12L-15.35 11.9L-15 11.65L-14.85 11.45L-14.75 11.3L-14.75 17.4L-15.05 17.7L-15.1 17.7L-15.15 17.95L-15.1 18.1L-15.1 18.15L-15 18.2L-15.05 18.2L-15.15 18.1L-15.15 19.35L-15.6 19.75L-15.8 19.95L-15.8 18.6L-15.75 18.35L-15.8 18.15L-15.8 18.05L-16.4 17.45L-17.05 17.15L-20.2 16.7L-23.35 17.15L-24.55 17.9L-24.55 17.95L-24.65 18.35L-24.6 18.65L-24.55 18.7L-24.45 18.85L-24.55 18.75M-15.15,17.6L-15.15 17.7L-15.1 17.65L-15.15 17.6M-25.95,10.3L-26 10.4L-26 10.25L-25.95 10.3M-24.65,17.8L-24.65 17.9L-24.6 17.8L-24.65 17.8" />
<linearGradient
id="LinearGradID_119" gradientUnits="userSpaceOnUse" gradientTransform="matrix(0.00306702, 0, 0, 0.00112915, 202.5, 128.8)" spreadMethod ="pad" x1="-819.2" y1="0" x2="819.2" y2="0" >
<stop  offset="0" style="stop-color:#A7907A;stop-opacity:1" />
<stop  offset="1" style="stop-color:#D9CFC6;stop-opacity:1" />
</linearGradient>
<path style="fill:url(#LinearGradID_119) " d="M-10.2,18.15L-10.25 18.25L-10.4 18.35L-10.5 18.4L-10.85 18.6L-11.7 18.8L-12.65 18.85L-12.8 18.85L-12.85 18.85L-13.65 18.8L-14.4 18.6L-14.75 18.45L-15 18.2L-15.1 18.15L-15.1 18.1L-15.15 17.95L-15.1 17.7L-15.05 17.7L-14.75 17.4L-14.4 17.25L-12.65 17L-10.85 17.25L-10.5 17.45L-10.15 17.8L-10.1 17.95L-10.15 18.1L-10.2 18.15" />
<linearGradient
id="LinearGradID_120" gradientUnits="userSpaceOnUse" gradientTransform="matrix(0.00305176, 0, 0, 0.00244141, -12.65, 19.45)" spreadMethod ="pad" x1="-819.2" y1="0" x2="819.2" y2="0" >
<stop  offset="0" style="stop-color:#A7907A;stop-opacity:1" />
<stop  offset="1" style="stop-color:#D9CFC6;stop-opacity:1" />
</linearGradient>
<path style="fill:url(#LinearGradID_120) " d="M-15.15,18.1L-15.05 18.2L-15 18.2L-14.75 18.45L-14.4 18.6L-13.65 18.8L-12.85 18.85L-12.8 18.85L-12.65 18.85L-11.7 18.8L-10.85 18.6L-10.5 18.4L-10.4 18.35L-10.25 18.25L-10.2 18.15L-10.15 18.1L-10.15 21.45L-10.5 21.85L-11.05 22.15L-12.9 22.5L-14.35 22.15L-15.15 21.45L-15.15 19.35L-15.15 18.1M-15.1,17.65L-15.15 17.7L-15.15 17.6L-15.1 17.65" />
<linearGradient
id="LinearGradID_121" gradientUnits="userSpaceOnUse" gradientTransform="matrix(0.00543213, 0, 0, 0.0019989, 361.2, 214.9)" spreadMethod ="pad" x1="-819.2" y1="0" x2="819.2" y2="0" >
<stop  offset="0" style="stop-color:#A7907A;stop-opacity:1" />
<stop  offset="1" style="stop-color:#D9CFC6;stop-opacity:1" />
</linearGradient>
<path style="fill:url(#LinearGradID_121) " d="M-15.9,18.75L-16 18.9L-16.25 19.1L-16.4 19.15L-17.05 19.45L-18.55 19.85L-20.2 20L-20.3 20L-20.5 20L-20.55 20L-22.05 19.85L-23.35 19.45L-24.45 18.85L-24.55 18.7L-24.6 18.65L-24.65 18.35L-24.55 17.95L-24.55 17.9L-23.35 17.15L-20.2 16.7L-17.05 17.15L-16.4 17.45L-15.8 18.05L-15.8 18.15L-15.75 18.35L-15.8 18.6L-15.9 18.75" />
<linearGradient
id="LinearGradID_122" gradientUnits="userSpaceOnUse" gradientTransform="matrix(0.00540161, 0, 0, 0.00431824, -20.25, 21.05)" spreadMethod ="pad" x1="-819.2" y1="0" x2="819.2" y2="0" >
<stop  offset="0" style="stop-color:#A7907A;stop-opacity:1" />
<stop  offset="1" style="stop-color:#D9CFC6;stop-opacity:1" />
</linearGradient>
<path style="fill:url(#LinearGradID_122) " d="M-24.45,18.85L-23.35 19.45L-22.05 19.85L-20.55 20L-20.5 20L-20.3 20L-20.2 20L-18.55 19.85L-17.05 19.45L-16.4 19.15L-16.25 19.1L-16 18.9L-15.9 18.75L-15.8 18.6L-15.8 19.95L-15.8 24.6L-16.45 25.25L-17.4 25.85Q-18.8 26.5 -20.7 26.45Q-22.25 26.35 -23.25 25.85L-24.65 24.6L-24.65 20.3L-24.65 18.65L-24.55 18.75L-24.45 18.85M-24.6,17.8L-24.65 17.9L-24.65 17.8L-24.6 17.8" />
</g>
</svg>
