<?xml version="1.0" encoding="utf-8"?>
<svg version="1.1" id="Layer_1"
xmlns="http://www.w3.org/2000/svg"
xmlns:xlink="http://www.w3.org/1999/xlink"
xmlns:author="http://www.sothink.com"
width="36px" height="26px"
xml:space="preserve">
<g id="239" transform="matrix(1, 0, 0, 1, 18, 13)">
<path style="fill:#DBE6BE;fill-opacity:1" d="M-14.35,-1.9L-9 7.4L-7.35 10.25L14.45 1.5L14.45 0L14.4 0.05L6.55 -10.4L3.45 -9.45L3.45 -9.4L-9.5 -5.05L-9.15 -4.75L-10 -4.55L-10 -4.45L-10 -3.7L-9.6 -3.7L-9.6 -4.25L-8.85 -4.45L-8.5 -4.1L-7.75 -3.45L-7.75 -3.35L-11.5 -2.25L-12.95 -4.25L-12.95 -4.2L-12.95 -4.1L-14.35 -3.65L-14.35 -1.9M-4.1,-2.55L-4.9 -3.65L-4.5 -3.15L-4.1 -2.55M2.6,-4.8L1.7 -5.85L2.2 -5.3L2.6 -4.8M-8.85,2.6L-5.4 1.75L-5.1 2.05L-5.35 2.15L-5.95 2.3L-5.9 2.4L-5.9 3.1L-5.55 3.1L-5.55 2.6L-4.75 2.35L-3.7 3.45L-3.7 3.5L-7.45 4.6L-8.85 2.6M-17.5,-12.5L17.5 -12.5L17.5 12.5L-17.5 12.5L-17.5 -12.5" />
<path style="fill:#ECECEC;fill-opacity:1" d="M-4.6,-5.55L-4.45 -5.45L-4.75 -5.4L-4.7 -5.3L-4.75 -5.3L-4.75 -5.25L-4.75 -5.3L-8.5 -4.1L-8.85 -4.45L-4.6 -5.6L-4.6 -5.55M-4,-5.55L-4.25 -5.7L-3.15 -6L-3.15 -5.85L-4 -5.55M6.45,-9.2L4.1 -8.35L4.1 -8.3L0.4 -7L-0.35 -6.9L-0.35 -6.8L-0.3 -6.8L-0.35 -6.8L-0.35 -6.75L-2.75 -6L-2.75 -6.1L-2.75 -6.4L-2.8 -6.4L-2.85 -6.45L-9.15 -4.75L-9.5 -5.05L3.45 -9.4L3.45 -9.45L6.55 -10.4L6.45 -9.2M-13.55,-2.25L-14.35 -3.65L-12.95 -4.1L-12.95 -4.2L-12.95 -2.45L-13.55 -2.25M14.4,0.05L14.45 0L14.45 1.5L-7.35 10.25L-7.3 8.55L13.65 0.35L13.6 0.3L13.65 0.3L14.4 0.05" />
<path style="fill:#BF9E7F;fill-opacity:1" d="M-4,-5.55L-3.15 -5.85L-3.15 -4.85L-4 -5.55" />
<path style="fill:#977859;fill-opacity:1" d="M-0.15,-5.8L1.05 -4.25L0.1 -3.95L-0.35 -4.6L-2 -4L-2.75 -4.6L-2.75 -5L-0.15 -5.8M-3.15,-3.65L-4.5 -3.15L-4.9 -3.65L-5.25 -4.15L-3.5 -4.75L-3.15 -4.45L-3.15 -3.65M-2.75,-4.15L-2.35 -3.9L-2.75 -3.75L-2.75 -4.15M8,-4.2L8 -4.35L8.7 -4.7L8.5 -5.05L7.65 -4.6L6 -6.7L2.2 -5.3L1.7 -5.85L1.35 -6.3L6.15 -8.1L9.95 -3.35L8.95 -3L8 -4.2M7.55,-1.05L7.6 -1.85L10.25 -2.9L12.9 0.55L11.55 1.1L12.1 0.8L10.15 -1.8L7.85 -0.9L7.6 -1.05L7.55 -1.05M7.2,-0.8L7.15 -0.6L6.35 -0.3L5.7 -1.1L7.2 -1.7L7.2 -0.8M2.95,-2.05L3.6 -1.25L2.65 -0.85L2.6 -0.85L1.85 -1.8L2.95 -2.05M1.7,-3.55L2.75 -2.3L1.65 -2.1L0.8 -3.15L1.7 -3.55M7,2.9L6.2 3.2L4.7 1.35L4.7 0.6L4.7 -0.05L7 2.9M4.35,0.85L4.2 0.65L-0.2 2.25L-0.8 1.45L0.5 0.95L0.65 0.9L3.55 0.15L4.05 0L4.05 -0.05L4.35 -0.15L4.35 0.6L4.35 0.85" />
<path style="fill:#715944;fill-opacity:1" d="M13.6,0.3L13.65 0.35L-7.3 8.55L-7.35 10.25L-9 7.4L-9.05 5.8L-13.55 -2.25L-12.95 -2.45L-12.95 -1.95L-11.6 0.3L-7.75 -0.9L-7.75 -3.4L-7.75 -3.45L-8.5 -4.1L-4.75 -5.3L-4.75 -5.25L-4.75 -5.3L-4.7 -5.3L-4.75 -5.4L-4.45 -5.45L-3.5 -4.75L-5.25 -4.15L-4.9 -3.65L-4.1 -2.55L-1.75 0.6L2.65 -0.85L3.6 -1.25L2.95 -2.05L4.55 -2.3L5.15 -1.6L7.2 -2.35L7.2 -1.7L5.7 -1.1L6.35 -0.3L8.3 2.35L11.55 1.1L12.9 0.55L10.25 -2.9L7.6 -1.85L7.6 -2.55L8.95 -3L9.95 -3.35L6.15 -8.1L1.35 -6.3L1.7 -5.85L2.6 -4.8L1.05 -4.25L-0.15 -5.8L-2.75 -5L-2.75 -6L-0.35 -6.75L-0.35 -6.8L-0.3 -6.8L-0.35 -6.8L-0.35 -6.9L0.4 -7L4.1 -8.3L4.1 -8.35L6.45 -9.2L13.6 0.3M3.15,-4.1L4.35 -2.6L2.75 -2.3L1.7 -3.55L3.15 -4.1M-7.55,7.1L-3.7 5.95L-3.65 3.45L-3.7 3.4L-3.7 3.45L-4.75 2.35L-3.4 2L0.05 1.1L0.5 0.95L0.5 0.9L0.65 0.9L0.5 0.95L-0.8 1.45L-0.2 2.25L1.85 4.95L1.9 4.9L6.2 3.2L7 2.9L4.7 -0.05L4.7 -0.25L4.7 -0.5L4.65 -0.5L4.65 -0.65L3.9 -0.4L3.9 -0.35L3.55 -0.3L0.1 0.65L-0.3 0.75L-1.45 1.1L-3.4 1.6L-5.35 2.15L-5.1 2.05L-5.4 1.75L-8.85 2.6L-8.9 2.6L-8.85 4.85L-7.55 7.1" />
<path style="fill:#8E9DCA;fill-opacity:1" d="M-4.5,-3.15L-3.15 -3.65L-3.15 -1.7L-2.75 -1.7L-2.75 -3.75L-2.35 -3.9L-1.5 -3.25L-1.6 -1.9L-0.95 -0.85L-0.95 -0.8L-0.75 -0.8L-0.75 -2.6L-0.65 -2.6L0.3 -1.85L0.3 -1.75L0.45 -1.75L0.7 -1.6L1.85 -1.8L2.6 -0.85L2.65 -0.85L-1.75 0.6L-4.1 -2.55L-4.5 -3.15M0.8,-3.15L1.65 -2.1L0.75 -1.9L-0.35 -2.7L0.8 -3.15M-1.3,-3.5L-2 -4L-0.35 -4.6L0.1 -3.95L-1.3 -3.5M7.65,-2.95L8 -2.95L8 -4.2L8.95 -3L7.6 -2.55L7.6 -2.85L7.6 -3.1L7.5 -3.1L7.5 -3.15L4.35 -2.6L3.15 -4.1L4.6 -4.6L4.6 -3.95L5.15 -3.15L5.15 -4.75L5.15 -4.8L5.15 -3.05L5.35 -3.05L5.35 -4.9L5.4 -4.95L5.35 -5.05L5.35 -5.2L5.3 -5.1L4.85 -5.6L2.6 -4.8L2.2 -5.3L6 -6.7L7.65 -4.6L7.65 -2.95M7.15,-0.6L7.15 -0.55L7.1 -0.55L7.1 -0.45L7.15 -0.45L7.2 -0.3L7.2 0.75L7.5 0.8L7.55 0.05L7.65 0.05L7.65 0L7.85 -0.2L8 -0.45L8 -0.55L7.85 -0.9L10.15 -1.8L12.1 0.8L11.55 1.1L8.3 2.35L6.35 -0.3L7.15 -0.6M7.2,-2.75L7.2 -2.35L5.15 -1.6L4.55 -2.3L7.2 -2.75M-0.2,2.25L4.2 0.65L4.35 0.85L4.35 1.7L4.35 2.85L4.7 2.85L4.7 1.7L4.7 1.35L6.2 3.2L1.9 4.9L1.85 4.95L-0.2 2.25M-9.85,-1.05L-10.9 -0.8L-10.8 -1.75L-9.8 -1.95L-9.85 -1.05M-5.7,4.85L-5.8 5.8L-6.8 6.05L-6.75 5.15L-5.7 4.85M7.65,-0.55L7.65 -0.8L7.7 -0.8L7.75 -0.8L7.8 -0.55L7.65 -0.55M7.85,-0.55L7.85 -0.7L7.9 -0.55L7.85 -0.55M7.85,-0.45L7.9 -0.45L7.85 -0.3L7.85 -0.45M7.65,-0.2L7.65 -0.45L7.8 -0.45L7.75 -0.3L7.65 -0.2" />
<path style="fill:#EFE3DE;fill-opacity:1" d="M-0.95,-2.75L-0.95 -0.85L-1.6 -1.9L-1.5 -3.25L-0.9 -2.75L-0.95 -2.75M0.1,-3.95L1.05 -4.25L2.6 -4.8L4.85 -5.6L5.3 -5.1L-0.6 -2.95L-1.3 -3.5L0.1 -3.95" />
<path style="fill:#BA8874;fill-opacity:1" d="M4.85,-4.7L4.9 -4.7L5.15 -4.8L5.15 -4.75L5.15 -3.15L4.6 -3.95L4.6 -4.6L4.85 -4.7" />
<path style="fill:#DDC5BB;fill-opacity:1" d="M-0.9,-2.75L-0.65 -2.6L-0.75 -2.6L-0.75 -0.8L-0.95 -0.8L-0.95 -0.85L-0.95 -2.75L-0.9 -2.75M1.7,-3.55L0.8 -3.15L-0.35 -2.7L-0.6 -2.95L5.3 -5.1L5.35 -5.2L5.35 -5.05L5.4 -4.95L5.35 -4.9L5.35 -3.05L5.15 -3.05L5.15 -4.8L5.15 -4.75L5.15 -4.8L4.9 -4.7L4.85 -4.7L4.6 -4.6L3.15 -4.1L1.7 -3.55" />
<path style="fill:#D9DBDB;fill-opacity:1" d="M6.45,-9.2L6.55 -10.4L14.4 0.05L13.65 0.3L13.6 0.3L6.45 -9.2M-9.05,5.8L-9 7.4L-14.35 -1.9L-14.35 -3.65L-13.55 -2.25L-9.05 5.8" />
<path style="fill:#8B2E2E;fill-opacity:1" d="M7.2,-0.3L7.15 -0.45L7.1 -0.45L7.1 -0.55L7.15 -0.55L7.15 -0.6L7.2 -0.8L7.25 -0.9L7.5 -1.05L7.35 -0.9L7.2 -0.55L7.2 -0.45L7.35 -0.2L7.55 0L7.55 0.05L7.45 0.05L7.45 0L7.25 -0.2L7.2 -0.3M7.85,-0.55L7.8 -0.55L7.75 -0.8L7.7 -0.8L7.65 -0.8L7.65 -0.85L7.75 -0.85L7.8 -0.8L7.85 -0.7L7.85 -0.55M7.45,-0.8L7.55 -0.85L7.55 -0.55L7.45 -0.55L7.45 -0.8M7.75,-0.3L7.8 -0.45L7.85 -0.45L7.85 -0.3L7.8 -0.3L7.65 -0.15L7.65 -0.2L7.75 -0.3M7.45,-0.2L7.45 -0.45L7.55 -0.45L7.55 -0.15L7.45 -0.2" />
<path style="fill:#CC6666;fill-opacity:1" d="M7.6,-1.05L7.85 -0.9L8 -0.55L8 -0.45L7.85 -0.2L7.65 0L7.65 0.05L7.55 0.05L7.55 0L7.35 -0.2L7.2 -0.45L7.2 -0.55L7.35 -0.9L7.5 -1.05L7.55 -1.05L7.6 -1.05M7.8,-0.55L7.85 -0.55L7.9 -0.55L7.85 -0.7L7.8 -0.8L7.75 -0.85L7.65 -0.85L7.65 -0.8L7.65 -0.55L7.8 -0.55M7.4,-0.8L7.35 -0.55L7.45 -0.55L7.55 -0.55L7.55 -0.85L7.45 -0.8L7.4 -0.8M7.8,-0.45L7.65 -0.45L7.65 -0.2L7.65 -0.15L7.8 -0.3L7.85 -0.3L7.9 -0.45L7.85 -0.45L7.8 -0.45M7.55,-0.15L7.55 -0.45L7.45 -0.45L7.35 -0.45L7.4 -0.3L7.45 -0.2L7.55 -0.15" />
<path style="fill:#DCD5A3;fill-opacity:1" d="M-7.75,-3.4L-7.75 -0.9L-11.6 0.3L-11.5 -2.25L-7.75 -3.35L-7.75 -3.45L-7.75 -3.4M-3.7,3.4L-3.65 3.45L-3.7 5.95L-7.55 7.1L-7.45 4.6L-3.7 3.5L-3.7 3.45L-3.7 3.4M-9.8,-1.95L-10.8 -1.75L-10.9 -0.8L-9.85 -1.05L-9.8 -1.95M-6.75,5.15L-6.8 6.05L-5.8 5.8L-5.7 4.85L-6.75 5.15" />
<path style="fill:#C9BD6B;fill-opacity:1" d="M-11.6,0.3L-12.95 -1.95L-12.95 -2.45L-12.95 -4.2L-12.95 -4.25L-11.5 -2.25L-11.6 0.3M-8.85,4.85L-8.9 2.6L-8.85 2.6L-7.45 4.6L-7.55 7.1L-8.85 4.85" />
<linearGradient
id="LinearGradID_760" gradientUnits="userSpaceOnUse" gradientTransform="matrix(0.000228882, 0, 0, 0.00286865, -2.9, -4.05)" spreadMethod ="pad" x1="-819.2" y1="0" x2="819.2" y2="0" >
<stop  offset="0" style="stop-color:#A7907A;stop-opacity:1" />
<stop  offset="1" style="stop-color:#D9CFC6;stop-opacity:1" />
</linearGradient>
<path style="fill:url(#LinearGradID_760) " d="M-2.75,-5L-2.75 -4.6L-3.15 -4.85L-3.15 -5.85L-3.15 -6L-2.75 -6.1L-2.8 -6.4L-2.75 -6.4L-2.75 -6.1L-2.75 -6L-2.75 -5M-2.75,-3.75L-2.75 -1.7L-3.15 -1.7L-3.15 -3.65L-3.15 -4.45L-2.75 -4.15L-2.75 -3.75" />
<linearGradient
id="LinearGradID_761" gradientUnits="userSpaceOnUse" gradientTransform="matrix(-7.62939e-005, -0.000213623, 0.00437927, -0.00117493, -6.4, -5.35)" spreadMethod ="pad" x1="-819.2" y1="0" x2="819.2" y2="0" >
<stop  offset="0" style="stop-color:#A7907A;stop-opacity:1" />
<stop  offset="1" style="stop-color:#D9CFC6;stop-opacity:1" />
</linearGradient>
<path style="fill:url(#LinearGradID_761) " d="M-10,-4.55L-9.15 -4.75L-2.85 -6.45L-2.8 -6.4L-2.75 -6.1L-3.15 -6L-4.25 -5.7L-4.6 -5.95L-4.6 -5.6L-8.85 -4.45L-9.6 -4.25L-9.6 -4.45L-10 -4.45L-10 -4.55" />
<linearGradient
id="LinearGradID_762" gradientUnits="userSpaceOnUse" gradientTransform="matrix(9.15527e-005, -0.000167847, 0.00357056, 0.00268555, -2.15, -3.9)" spreadMethod ="pad" x1="-819.2" y1="0" x2="819.2" y2="0" >
<stop  offset="0" style="stop-color:#A7907A;stop-opacity:1" />
<stop  offset="1" style="stop-color:#D9CFC6;stop-opacity:1" />
</linearGradient>
<path style="fill:url(#LinearGradID_762) " d="M-4.45,-5.45L-4.6 -5.55L-4.6 -5.6L-4.6 -5.95L-4.25 -5.7L-4 -5.55L-3.15 -4.85L-2.75 -4.6L-2 -4L-1.3 -3.5L-0.6 -2.95L-0.35 -2.7L0.75 -1.9L0.85 -1.85L0.7 -1.6L0.45 -1.75L0.3 -1.85L-0.65 -2.6L-0.9 -2.75L-1.5 -3.25L-2.35 -3.9L-2.75 -4.15L-3.15 -4.45L-3.5 -4.75L-4.45 -5.45" />
<linearGradient
id="LinearGradID_763" gradientUnits="userSpaceOnUse" gradientTransform="matrix(0.00012207, 0.000183105, -0.00050354, 0.000259399, 8.1, -4.65)" spreadMethod ="pad" x1="-819.2" y1="0" x2="819.2" y2="0" >
<stop  offset="0" style="stop-color:#A7907A;stop-opacity:1" />
<stop  offset="1" style="stop-color:#D9CFC6;stop-opacity:1" />
</linearGradient>
<path style="fill:url(#LinearGradID_763) " d="M7.85,-4.25L7.65 -4.6L8.5 -5.05L8.7 -4.7L8 -4.35L7.85 -4.25" />
<linearGradient
id="LinearGradID_764" gradientUnits="userSpaceOnUse" gradientTransform="matrix(0.000228882, 0, 0, 0.00102234, 7.8, -3.75)" spreadMethod ="pad" x1="-819.2" y1="0" x2="819.2" y2="0" >
<stop  offset="0" style="stop-color:#A7907A;stop-opacity:1" />
<stop  offset="1" style="stop-color:#D9CFC6;stop-opacity:1" />
</linearGradient>
<path style="fill:url(#LinearGradID_764) " d="M7.65,-4.6L7.85 -4.25L8 -4.35L8 -4.2L8 -2.95L7.65 -2.95L7.65 -4.6" />
<linearGradient
id="LinearGradID_765" gradientUnits="userSpaceOnUse" gradientTransform="matrix(-7.62939e-005, -0.000183105, 0.00439453, -0.000793457, 4, -2.4)" spreadMethod ="pad" x1="-819.2" y1="0" x2="819.2" y2="0" >
<stop  offset="0" style="stop-color:#A7907A;stop-opacity:1" />
<stop  offset="1" style="stop-color:#D9CFC6;stop-opacity:1" />
</linearGradient>
<path style="fill:url(#LinearGradID_765) " d="M0.3,-1.75L0.3 -1.85L0.45 -1.75L0.3 -1.75M4.55,-2.3L2.95 -2.05L1.85 -1.8L0.7 -1.6L0.85 -1.85L0.75 -1.9L1.65 -2.1L2.75 -2.3L4.35 -2.6L7.5 -3.15L7.5 -3.1L7.6 -2.85L7.2 -2.75L4.55 -2.3" />
<linearGradient
id="LinearGradID_766" gradientUnits="userSpaceOnUse" gradientTransform="matrix(0.000228882, 0, -4.57764e-005, 0.00238037, 7.3, -1.2)" spreadMethod ="pad" x1="-819.2" y1="0" x2="819.2" y2="0" >
<stop  offset="0" style="stop-color:#A7907A;stop-opacity:1" />
<stop  offset="1" style="stop-color:#D9CFC6;stop-opacity:1" />
</linearGradient>
<path style="fill:url(#LinearGradID_766) " d="M7.2,-1.7L7.2 -2.35L7.2 -2.75L7.6 -2.85L7.5 -3.1L7.6 -3.1L7.6 -2.85L7.6 -2.55L7.6 -1.85L7.55 -1.05L7.5 -1.05L7.25 -0.9L7.2 -0.8L7.2 -1.7M7.25,-0.2L7.45 0L7.45 0.05L7.55 0.05L7.5 0.8L7.2 0.75L7.2 -0.3L7.25 -0.2M7.45,-0.55L7.35 -0.55L7.4 -0.8L7.45 -0.8L7.45 -0.55M7.45,-0.2L7.4 -0.3L7.35 -0.45L7.45 -0.45L7.45 -0.2" />
<linearGradient
id="LinearGradID_767" gradientUnits="userSpaceOnUse" gradientTransform="matrix(0.000228882, 0, 0, 0.00286865, 4.5, 1.8)" spreadMethod ="pad" x1="-819.2" y1="0" x2="819.2" y2="0" >
<stop  offset="0" style="stop-color:#A7907A;stop-opacity:1" />
<stop  offset="1" style="stop-color:#D9CFC6;stop-opacity:1" />
</linearGradient>
<path style="fill:url(#LinearGradID_767) " d="M4.35,0.6L4.35 -0.15L4.7 -0.25L4.7 -0.05L4.7 0.6L4.35 0.6M4.7,-0.5L4.7 -0.25L4.65 -0.5L4.7 -0.5M4.7,1.7L4.7 2.85L4.35 2.85L4.35 1.7L4.7 1.7" />
<linearGradient
id="LinearGradID_768" gradientUnits="userSpaceOnUse" gradientTransform="matrix(-7.62939e-005, -0.000213623, 0.00437927, -0.00117493, 1.1, 0.5)" spreadMethod ="pad" x1="-819.2" y1="0" x2="819.2" y2="0" >
<stop  offset="0" style="stop-color:#A7907A;stop-opacity:1" />
<stop  offset="1" style="stop-color:#D9CFC6;stop-opacity:1" />
</linearGradient>
<path style="fill:url(#LinearGradID_768) " d="M4.05,-0.05L3.9 0L3.9 -0.35L3.9 -0.4L4.65 -0.65L4.65 -0.5L4.7 -0.25L4.35 -0.15L4.05 -0.05" />
<linearGradient
id="LinearGradID_769" gradientUnits="userSpaceOnUse" gradientTransform="matrix(0.000228882, 0, 0, 0.00286865, 4.5, 0.05)" spreadMethod ="pad" x1="-819.2" y1="0" x2="819.2" y2="0" >
<stop  offset="0" style="stop-color:#A7907A;stop-opacity:1" />
<stop  offset="1" style="stop-color:#D9CFC6;stop-opacity:1" />
</linearGradient>
<path style="fill:url(#LinearGradID_769) " d="M4.35,1.7L4.35 0.85L4.35 0.6L4.7 0.6L4.7 1.35L4.7 1.7L4.35 1.7" />
<linearGradient
id="LinearGradID_770" gradientUnits="userSpaceOnUse" gradientTransform="matrix(-7.62939e-005, -0.000213623, 0.00437927, -0.00117493, 1.25, 0.5)" spreadMethod ="pad" x1="-819.2" y1="0" x2="819.2" y2="0" >
<stop  offset="0" style="stop-color:#A7907A;stop-opacity:1" />
<stop  offset="1" style="stop-color:#D9CFC6;stop-opacity:1" />
</linearGradient>
<path style="fill:url(#LinearGradID_770) " d="M3.55,-0.3L3.9 -0.35L3.9 0L4.05 -0.05L4.05 0L3.55 0.15L3.55 -0.3M0.05,1.1L-0.3 1.15L-0.3 0.75L0.1 0.65L0.1 1.05L0.05 1.1" />
<linearGradient
id="LinearGradID_771" gradientUnits="userSpaceOnUse" gradientTransform="matrix(-7.62939e-005, -0.000213623, 0.00437927, -0.00117493, 1.85, 0.4)" spreadMethod ="pad" x1="-819.2" y1="0" x2="819.2" y2="0" >
<stop  offset="0" style="stop-color:#A7907A;stop-opacity:1" />
<stop  offset="1" style="stop-color:#D9CFC6;stop-opacity:1" />
</linearGradient>
<path style="fill:url(#LinearGradID_771) " d="M0.5,0.9L0.1 1.05L0.1 0.65L3.55 -0.3L3.55 0.15L0.65 0.9L0.5 0.9" />
<linearGradient
id="LinearGradID_772" gradientUnits="userSpaceOnUse" gradientTransform="matrix(-7.62939e-005, -0.000213623, 0.00437927, -0.00117493, -1.65, 1.35)" spreadMethod ="pad" x1="-819.2" y1="0" x2="819.2" y2="0" >
<stop  offset="0" style="stop-color:#A7907A;stop-opacity:1" />
<stop  offset="1" style="stop-color:#D9CFC6;stop-opacity:1" />
</linearGradient>
<path style="fill:url(#LinearGradID_772) " d="M-1.45,1.1L-0.3 0.75L-0.3 1.15L0.05 1.1L-3.4 2L-3.4 1.6L-1.45 1.1" />
<linearGradient
id="LinearGradID_773" gradientUnits="userSpaceOnUse" gradientTransform="matrix(-7.62939e-005, -0.000213623, 0.00437927, -0.00117493, -2.3, 1.5)" spreadMethod ="pad" x1="-819.2" y1="0" x2="819.2" y2="0" >
<stop  offset="0" style="stop-color:#A7907A;stop-opacity:1" />
<stop  offset="1" style="stop-color:#D9CFC6;stop-opacity:1" />
</linearGradient>
<path style="fill:url(#LinearGradID_773) " d="M0.1,1.05L0.5 0.9L0.5 0.95L0.05 1.1L0.1 1.05M-4.75,2.35L-5.55 2.6L-5.55 2.4L-5.9 2.4L-5.95 2.3L-5.35 2.15L-3.4 1.6L-3.4 2L-4.75 2.35M-0.3,0.75L-1.45 1.1L-0.3 0.75" />
<linearGradient
id="LinearGradID_774" gradientUnits="userSpaceOnUse" gradientTransform="matrix(0.000228882, 0, 0, 0.000442505, -9.85, -4.05)" spreadMethod ="pad" x1="-819.2" y1="0" x2="819.2" y2="0" >
<stop  offset="0" style="stop-color:#A7907A;stop-opacity:1" />
<stop  offset="1" style="stop-color:#D9CFC6;stop-opacity:1" />
</linearGradient>
<path style="fill:url(#LinearGradID_774) " d="M-9.6,-3.7L-10 -3.7L-10 -4.45L-9.6 -4.45L-9.6 -4.25L-9.6 -3.7" />
<linearGradient
id="LinearGradID_775" gradientUnits="userSpaceOnUse" gradientTransform="matrix(0.000228882, 0, 0, 0.000442505, -5.75, 2.75)" spreadMethod ="pad" x1="-819.2" y1="0" x2="819.2" y2="0" >
<stop  offset="0" style="stop-color:#A7907A;stop-opacity:1" />
<stop  offset="1" style="stop-color:#D9CFC6;stop-opacity:1" />
</linearGradient>
<path style="fill:url(#LinearGradID_775) " d="M-5.9,2.4L-5.55 2.4L-5.55 2.6L-5.55 3.1L-5.9 3.1L-5.9 2.4" />
<path style="fill:none;stroke-width:1;stroke-linecap:round;stroke-linejoin:round;stroke-miterlimit:3;stroke:#563529;stroke-opacity:1" d="M-17.5,-12.5L17.5 -12.5L17.5 12.5L-17.5 12.5L-17.5 -12.5z" />
</g>
</svg>
