<?xml version="1.0" encoding="utf-8"?>
<svg version="1.1" id="Layer_1"
xmlns="http://www.w3.org/2000/svg"
xmlns:xlink="http://www.w3.org/1999/xlink"
xmlns:author="http://www.sothink.com"
width="36px" height="26px"
xml:space="preserve">
<g id="183" transform="matrix(1, 0, 0, 1, 18, 13)">
<path style="fill:#DBE6BE;fill-opacity:1" d="M-11.7,1.7L-11.65 1.75L-11 2.05Q-10.65 2.05 -10.4 1.75L-10.1 1.2L-10.1 0.95L-10.15 0.9L-10.4 0.5Q-10.65 0.25 -11 0.3L-11.65 0.5L-11.9 1.2L-11.85 1.45L-11.7 1.7M-2.3,-1.9L-1.65 -1.6Q-1.3 -1.65 -1.05 -1.9Q-0.75 -2.15 -0.75 -2.5L-0.75 -2.65L-1.05 -3.2L-1.65 -3.4L-2.3 -3.2L-2.55 -2.5L-2.35 -1.95L-2.3 -1.9M9.2,-8.9L9.8 -9.2L10.1 -9.8L9.85 -10.45L9.8 -10.5L9.2 -10.7L8.55 -10.5Q8.3 -10.2 8.3 -9.8Q8.3 -9.45 8.55 -9.2Q8.55 -9.2 8.65 -9.15Q8.9 -8.95 9.2 -8.9M-0.85,-0.65L-1 -1L-1.05 -1.1L-1.15 -1.15L-1.25 -1.2L-1.55 -1.25L-2 -1.25L-2.35 -1.05L-2.5 -0.75L-2.5 -0.55L-2.45 -0.55L-2.3 -0.65L-1.75 -0.75L-1.5 -0.7L-0.85 -0.65M-1.9,-0.7L-2.35 -0.55L-1.6 -0.4L-1.5 -0.4L-0.95 -0.55L-1 -0.6L-1.5 -0.7L-1.9 -0.7M-2.35,0.05L-2.3 0.15L-2.15 0.35L-2.05 0.35L-2.05 0.4L-1.7 0.5L-1.55 0.5L-1.3 0.4L-0.9 -0.1L-0.85 -0.35L-0.85 -0.4L-0.85 -0.5L-0.95 -0.5L-1.45 -0.4L-1.75 -0.4L-2.3 -0.5L-2.55 -0.4L-2.55 -0.2L-2.45 0.05L-2.35 0.05M-3.2,1L-4.2 2.1L-4.55 2.85L-4.6 2.95L-4.6 3.05L-4.45 3.35L-4.3 3.5L-4.3 3.55L-4 3.7L-3.95 3.7L-3.35 4.3L-3.25 4.35L-3.15 4.35L-3.1 4.3L-3 4.25L-2.85 4.1L-2.75 3.9L-2.75 3.85L-3.1 3.55L-3.15 3.45L-3.35 3.25L-3.4 3.25L-3.45 3.15L-3.5 3.1L-3.65 2.9L-3.65 2.85L-3.55 2.8L-3.5 2.7L-3.45 2.65L-3.15 2.25L-3.1 2.2L-3.05 2.25L-3 2.35L-3 2.45L-2.95 2.45L-2.9 1.95L-3.05 0.9L-3.2 1M-2.3,0.55L-2.2 0.7L-2 0.85L-1.75 0.9L-1.35 0.85L-1.15 0.65L-1.1 0.6L-1.1 0.25L-1.3 0.5L-1.5 0.55L-1.85 0.55L-2 0.5L-2.25 0.3L-2.3 0.5L-2.3 0.55M-2.75,0.75L-2.8 0.8L-2.95 0.85L-2.9 1.65L-2.8 2L-2.65 2.1L-2.5 2.1L-2.45 2.1L-2.35 2.05L-2.35 1.95L-2.35 1.65L-2.45 0.85L-2.55 0.7L-2.6 0.75L-2.75 0.75M-1.1,1.75L-1 1.7L-0.95 1.2L-1 0.65L-1 0.6L-1.05 0.6L-1.15 0.75L-1.45 0.95L-1.6 0.95L-1.75 0.95L-1.9 0.95L-2.25 0.8L-2.35 0.65L-2.45 0.7L-2.45 0.75L-2.25 1.75L-2.15 1.75L-2.05 1.8L-1.5 1.8L-1.1 1.75M-1.95,1.85L-2.05 1.8L-2.2 1.8L-2.25 1.8L-2.3 2L-2.35 2.1L-2.5 2.2L-2.75 2.1L-2.8 2.1L-2.85 2.2L-2.9 2.5L-2.95 2.65L-2.95 3.6L-2.8 3.65L-2.8 3.7L-2.65 3.85L-2.6 3.9L-2.15 4L-2.1 4L-1.95 4.1L-1.9 4.15L-1.85 4.15L-1.85 4.2L-1.85 4.3L-2 4.35L-2.15 4.35L-2.2 4.3L-2.25 4.3L-2.75 4.6L-3 4.6L-3.1 4.6L-2.9 7.4L-3.2 9.7L-3.1 10.1L-2.9 10.25L-2.55 10.35L-2.15 10.4L-1.9 10.3L-1.75 10.2L-1.7 10.1L-1.5 6.8L-1.45 7.7L-1.6 10L-1.25 10.05L-1 10.05L-0.85 10L-0.6 9.95L-0.1 7.1L-0.35 4.45L-0.3 4.5L-0.3 4.45L-0.25 4.4L-0.2 4.3L-0.4 4.15L-0.4 4.1L-0.2 4.2L-0.15 4.3L-0.05 4.3L0.55 3.7L0.65 3.65L0.7 3.6L1.15 3.3L1.2 3.15L1.25 3L1.15 2.9L1.15 2.25L0.95 2L0.9 2.1L0.6 1.65L-0.15 0.9L-0.35 0.85L-0.45 1.9L-0.35 2.4L-0.45 2L-0.5 2.05L-0.6 2.1L-0.7 2.1L-0.85 2.05L-0.95 1.95L-1 1.8L-1.5 1.8L-1.95 1.85M-0.6,0.75L-0.9 0.65L-0.95 1.8L-0.9 1.9L-0.9 1.95L-0.85 2L-0.7 2.05L-0.65 2.05L-0.5 2L-0.5 1.95L-0.45 1.05L-0.5 0.8L-0.6 0.75M8.65,-4.9L8.55 -4.8L8.35 -4.45L8.35 -4.2L8.45 -4.2L8.65 -4.35L9.3 -4.45L10.45 -4.3L10.4 -4.6L10.3 -4.75L10.15 -4.95L10 -5.05L9.6 -5.1L9.05 -5.05L8.65 -4.9M8.3,-3.75L8.45 -3.45L8.5 -3.4L8.6 -3.25L8.65 -3.25L8.9 -3L8.95 -2.9L9.4 -2.85L9.6 -2.85L9.75 -2.85L9.95 -2.95L10.2 -3.25L10.3 -3.45L10.35 -3.45L10.45 -3.55L10.5 -3.9L10.5 -4L10.45 -4.15L10.4 -4.15L9.7 -3.95L9.35 -3.95L8.65 -4.05L8.45 -4.05L8.3 -4L8.3 -3.75M8.65,-4.25L8.55 -4.15L9.55 -4L9.7 -4L10.35 -4.2L10.3 -4.25L9.7 -4.35L9.1 -4.35L8.65 -4.25M7.45,-2.2L6.5 -1.2L6.15 -0.7L5.7 0.25L5.7 0.35L5.7 0.5L5.75 0.7L5.85 0.9L6.05 1.1L6.4 1.35L7.3 2.1L7.4 2.2L7.55 2.2L7.6 2.1L7.75 2.05L7.9 1.85L8.05 1.55L7.55 1.15L7.55 1.05L7.25 0.75L7.1 0.65L7.1 0.55L6.85 0.3L6.85 0.2L7 0.1L7.05 0.1L7.55 -0.55L7.6 -0.55L7.7 -0.5L7.75 -0.3L7.85 -0.95L7.7 -2.3L7.45 -2.2M8.45,-2.55L8.45 -2.5L8.65 -1.2L8.8 -1.2L8.85 -1.15L8.95 -1.15L9.7 -1.1L10.15 -1.2L10.3 -1.25L10.4 -1.9L10.3 -2.65L10.25 -2.65L10.1 -2.5L9.75 -2.25L9.55 -2.2L9.3 -2.2L9.15 -2.25L8.7 -2.45L8.6 -2.65L8.5 -2.65L8.45 -2.55M8.05,-2.5L8 -2.4L7.75 -2.35L7.85 -1.25L8 -0.85L8.15 -0.75L8.35 -0.7L8.45 -0.75L8.55 -0.8L8.6 -0.95L8.6 -1.25L8.45 -2.35L8.3 -2.55L8.2 -2.5L8.05 -2.5M9.05,-2.35L9.3 -2.3L9.85 -2.35L10.15 -2.6L10.15 -2.7L10.2 -3.1L9.9 -2.85L9.7 -2.8L9.25 -2.8L9.05 -2.8L8.65 -3.05L8.65 -2.8L8.65 -2.7L8.75 -2.55L9.05 -2.35M11.1,1.95L11.1 1.85L11.4 2.1L11.55 2.1L11.65 2.05L12.35 1.4L12.35 1.35L12.45 1.25L12.5 1.2L12.85 1L12.85 0.95L13.05 0.8L13.2 0.6L13.2 0.5L13.1 0.35L13.1 -0.55L12.85 -0.85L12.8 -0.75L12.8 -0.7L12.35 -1.3L11.4 -2.3L11.2 -2.35L11.05 -1L11.1 -0.35L11.15 -0.35L11.2 -0.55L11.25 -0.7L11.35 -0.65L12 0.1L12 0.2L11.8 0.45L11.8 0.55L11.7 0.55L11.65 0.65L11.4 0.95L11.35 0.95L11.35 1L11.15 1.2L11.2 -0.1L11.1 -0.35L11.05 -0.85L10.85 -0.7L10.7 -0.7L10.5 -0.8L10.45 -0.85L10.35 -0.95L10.35 -1.15L9.1 -1.05L8.9 -1.1L8.75 -1.1L8.75 -1.15L8.7 -1.15L8.65 -0.85L8.5 -0.7L8.35 -0.65L8.05 -0.7L8 -0.7L8 -0.8L7.9 -0.65L7.85 -0.2L7.75 -0.05L7.8 1.2L8 1.3L8 1.35L8.25 1.6L8.85 1.7L8.9 1.7L8.95 1.8L9.1 1.9L9.15 1.95L9.25 1.95L9.25 2.1L9.2 2.1L9.05 2.2L8.75 2.1L8.65 2.1L8 2.5L7.75 2.55L7.6 2.5L7.85 6.1L7.5 9.15L7.6 9.6L7.85 9.8L8.3 9.95L8.8 10L8.95 9.95L9.3 9.8L9.45 9.6L9.65 5.4L9.7 6.5L9.55 9.5L10 9.55L10.35 9.55L10.8 9.45L11.5 5.7L11.1 2.35L11.2 2.35L11.3 2.25L11.35 2.1L11.1 1.95M9.7,3.95L9.7 3.3L9.75 3.35L9.7 3.95M10.95,-2.4L10.8 -2.5L10.5 -2.55L10.45 -2.65L10.4 -1.1L10.45 -1L10.45 -0.95L10.5 -0.85L10.65 -0.8L10.75 -0.8L10.95 -0.85L11 -0.95L11.05 -2.1L10.95 -2.4M17.5,-12.5L17.5 12.5L-17.5 12.5L-17.5 -12.5L17.5 -12.5M8,1.9L7.6 2.25L7.6 2.35L7.7 2.4L8.2 2.3L8.65 2.05L8.8 2.05L8.95 2.1L9.05 2.1L9.1 2.05L8.8 1.8L8.7 1.75L8.55 1.75L8.5 1.7L8.45 1.7L8.15 1.65L8 1.9M7.85,10.1L7.85 10.3L7.85 10.45L7.9 10.6L8.1 10.65L8.2 10.65L8.25 10.7L8.6 10.9L9.1 10.85L9.25 10.8L9.3 10.4L9.3 10.3L9.2 10.25L9.15 10.2L9.1 10.15L9.1 10L8.95 10.1L8.8 10.1L8.35 10.1L7.85 9.9L7.85 10.1M9.5,9.6L9.45 9.7L9.2 10L9.2 10.15L9.3 10.2L9.4 10.3L9.4 10.35L9.45 10.45L9.7 10.6L10 10.6L10.05 10.45L10.25 10.45L10.8 10.7L11.5 10.6L11.55 10.6L11.65 10.55L11.65 10.35L11.6 10.2L11.5 10.1L11.3 10.1L11.15 10.1L11.05 10.1L10.9 10L10.8 9.9L10.6 9.65L10.35 9.65L9.75 9.65L9.55 9.6L9.5 9.6M-0.35,2.55L-0.35 2.4L-0.35 2.25L-0.3 2.1L-0.2 2.15L0.3 2.8L-0.15 3.4L-0.2 3.4L-0.2 3.45L-0.35 3.6L-0.35 2.55M-2.8,4.1L-3.1 4.4L-3.1 4.5L-3.05 4.5L-3.05 4.55L-2.65 4.45L-2.3 4.25L-2.2 4.25L-2.05 4.3L-2 4.3L-1.9 4.25L-1.9 4.2L-2.15 4.1L-2.15 4.05L-2.2 4.05L-2.25 4.05L-2.35 4L-2.4 4L-2.45 4L-2.65 3.9L-2.7 3.9L-2.8 4.1M-1.5,5.7L-1.45 5.2L-1.4 5.25L-1.5 5.7M-1.65,10.15L-1.75 10.3L-1.85 10.4L-1.85 10.5L-1.75 10.55L-1.7 10.65L-1.7 10.75L-1.45 10.85L-1.25 10.85L-1.15 10.75L-1.05 10.75L-0.65 10.9L-0.3 10.9L-0.1 10.85L-0.05 10.85L0 10.75L0 10.65L0 10.55L-0.1 10.45L-0.45 10.45L-0.5 10.4L-0.6 10.4L-0.8 10.1L-1 10.1L-1.4 10.1L-1.6 10.1L-1.65 10.15M-1.85,10.6L-1.9 10.5L-1.9 10.4L-2.05 10.45L-2.5 10.45L-2.9 10.3L-2.9 10.45L-2.9 10.6L-2.9 10.75L-2.85 10.85L-2.7 10.9L-2.65 10.9L-2.55 10.95L-2.45 11.05L-2.35 11.05L-1.95 11.05L-1.8 11L-1.75 10.7L-1.8 10.6L-1.85 10.6M-10.55,4.5L-10.55 4.4L-10.65 4.2L-10.9 4.1L-11.2 4.15L-11.35 4.2L-11.4 4.25L-11.5 4.4L-11.5 4.5L-11.45 4.5L-11.35 4.45L-11.05 4.4L-10.9 4.45L-10.55 4.5M-11.15,4.45L-11.4 4.5L-10.95 4.6L-11.45 4.6L-11.5 4.6L-11.5 4.7L-11.45 4.8L-11.45 4.85L-11.35 4.9L-11.3 5L-11.25 5L-11.2 5.1L-11 5.1L-10.95 5.1L-10.85 5.1L-10.8 5.05L-10.7 4.95L-10.6 4.85L-10.55 4.8L-10.55 4.65L-10.55 4.6L-10.55 4.55L-10.6 4.55L-10.9 4.6L-10.6 4.5L-10.9 4.45L-11.15 4.45M-11.3,5.9L-11.35 5.85L-11.35 6L-11.45 6.05L-11.5 6.1L-11.65 6.05L-11.7 6.1L-11.7 6.3L-11.75 6.35L-11.75 6.9L-11.65 6.95L-11.6 7.05L-11.55 7.1L-11.3 7.15L-11.25 7.15L-11.2 7.2L-11.15 7.2L-11.15 7.25L-11.1 7.25L-11.1 7.35L-11.2 7.35L-11.3 7.35L-11.35 7.35L-11.65 7.5L-11.75 7.5L-11.8 7.5L-11.7 9.1L-11.9 10.45L-11.9 10.5L-11.8 10.65L-11.75 10.75L-11.5 10.8L-11.2 10.8L-11.05 10.7L-11 10.65L-10.9 8.75L-10.9 9.25L-11 10.6L-10.75 10.6L-10.55 10.6L-10.4 10.55L-10.1 8.9L-10.25 7.4L-10.2 7.4L-10.2 7.35L-10.25 7.25L-10.25 7.2L-10.25 7.25L-10.15 7.3L-10.1 7.3L-10.05 7.25L-9.75 6.95L-9.65 6.95L-9.65 6.9L-9.5 6.8L-9.4 6.75L-9.35 6.65L-9.35 6.6L-9.4 6.5L-9.4 6.15L-9.5 6L-9.5 6.05L-9.55 6L-9.7 5.75L-10.15 5.35L-10.25 5.3L-10.3 5.9L-10.25 6.2L-10.3 6L-10.35 6.05L-10.55 6.05L-10.55 6L-10.6 5.95L-10.6 5.85L-10.85 5.85L-10.7 5.85L-10.6 5.85L-10.6 5.55L-10.6 5.2L-10.65 5.2L-10.7 5.25L-10.9 5.4L-11.15 5.4L-11.35 5.3L-11.4 5.2L-11.45 5.2L-11.45 5.25L-11.35 5.85L-11.3 5.85L-11.2 5.85L-11 5.9L-11.3 5.9M-10.7,5L-10.8 5.1L-10.9 5.15L-11.1 5.15L-11.2 5.1L-11.35 5L-11.35 5.15L-11.3 5.25L-11.2 5.3L-11.15 5.35L-10.9 5.35L-10.7 5.15L-10.7 5M-10.55,5.2L-10.6 5.9L-10.55 5.9L-10.55 5.95L-10.55 6L-10.45 6L-10.35 6L-10.3 5.95L-10.3 5.45L-10.3 5.3L-10.35 5.3L-10.4 5.25L-10.55 5.25L-10.55 5.2M-10.25,6.9L-10.25 6.3L-10.25 6.2L-10.2 6.05L-9.9 6.45L-9.95 6.6L-10.25 6.9M-11.7,7.2L-11.65 7.1L-11.65 7.05L-11.85 6.9L-11.85 6.85L-11.9 6.85L-11.95 6.7L-12 6.7L-12.05 6.6L-12.15 6.5L-12.15 6.45L-12.1 6.45L-12.1 6.4L-12.05 6.35L-11.85 6.15L-11.8 6.1L-11.8 6.15L-11.8 6.2L-11.75 6.25L-11.7 5.95L-11.8 5.35L-11.9 5.4L-12.5 6.05L-12.7 6.5L-12.7 6.6L-12.65 6.7L-12.5 6.85L-12.5 6.9L-12.35 6.95L-11.95 7.35L-11.9 7.35L-11.75 7.3L-11.7 7.2M-11.8,7.35L-11.8 7.4L-11.8 7.45L-11.55 7.4L-11.35 7.3L-11.15 7.3L-11.15 7.25L-11.3 7.2L-11.35 7.15L-11.45 7.15L-11.6 7.1L-11.65 7.2L-11.75 7.3L-11.8 7.35M-11.65,5.25L-11.65 5.3L-11.75 5.3L-11.7 5.8L-11.65 6L-11.6 6.05L-11.45 6.05L-11.4 6L-11.4 5.8L-11.45 5.3L-11.5 5.25L-11.55 5.25L-11.65 5.25M-11.1,10.9L-11.15 10.9L-11.15 10.85L-11.2 10.85L-11.5 10.85L-11.7 10.75L-11.75 10.85L-11.75 10.95L-11.7 11.05L-11.65 11.1L-11.55 11.1L-11.5 11.1L-11.4 11.2L-11.15 11.2L-11.1 11.2L-11.05 11L-11.05 10.95L-11.1 10.9L-11.05 10.95L-11 11M-11,11L-11 11.05L-10.9 11.05L-10.75 11.05L-10.65 11.05L-10.5 11.05L-10.45 11.1L-10.4 11.1L-10.2 11.1L-10.1 11.05L-10.05 11.05L-10.05 11L-10.1 10.85L-10.3 10.85L-10.4 10.8L-10.4 10.75L-10.5 10.65L-11 10.65L-11 10.7L-11.1 10.8L-11.1 10.9M-10.9,8.15L-10.9 7.85L-10.85 7.85L-10.9 8.15" />
<linearGradient
id="LinearGradID_658" gradientUnits="userSpaceOnUse" gradientTransform="matrix(0.000839233, 0, 0, 0.000167847, -1.65, -0.6)" spreadMethod ="pad" x1="-819.2" y1="0" x2="819.2" y2="0" >
<stop  offset="0" style="stop-color:#143141;stop-opacity:1" />
<stop  offset="1" style="stop-color:#98EBF5;stop-opacity:1" />
<stop  offset="1" style="stop-color:#5EB802;stop-opacity:1" />
<stop  offset="1" style="stop-color:#5EB802;stop-opacity:1" />
</linearGradient>
<path style="fill:url(#LinearGradID_658) " d="M-1.5,-0.7L-1 -0.6L-0.95 -0.55L-1.5 -0.4L-1.6 -0.4L-2.35 -0.55L-1.9 -0.7L-1.5 -0.7" />
<linearGradient
id="LinearGradID_659" gradientUnits="userSpaceOnUse" gradientTransform="matrix(0.000991821, 0, 0, 0.000427246, -1.7, -0.95)" spreadMethod ="pad" x1="-819.2" y1="0" x2="819.2" y2="0" >
<stop  offset="0" style="stop-color:#143141;stop-opacity:1" />
<stop  offset="1" style="stop-color:#98EBF5;stop-opacity:1" />
<stop  offset="1" style="stop-color:#5EB802;stop-opacity:1" />
<stop  offset="1" style="stop-color:#5EB802;stop-opacity:1" />
</linearGradient>
<path style="fill:url(#LinearGradID_659) " d="M-1.5,-0.7L-1.75 -0.75L-2.3 -0.65L-2.45 -0.55L-2.5 -0.55L-2.5 -0.75L-2.35 -1.05L-2 -1.25L-1.55 -1.25L-1.25 -1.2L-1.15 -1.15L-1.05 -1.1L-1 -1L-0.85 -0.65L-1.5 -0.7" />
<linearGradient
id="LinearGradID_660" gradientUnits="userSpaceOnUse" gradientTransform="matrix(0.0010376, 0, 0, 0.000595093, -1.7, -0.05)" spreadMethod ="pad" x1="-819.2" y1="0" x2="819.2" y2="0" >
<stop  offset="0" style="stop-color:#DDC9BB;stop-opacity:1" />
<stop  offset="1" style="stop-color:#EFE3DE;stop-opacity:1" />
<stop  offset="1" style="stop-color:#563529;stop-opacity:1" />
</linearGradient>
<path style="fill:url(#LinearGradID_660) " d="M-2.45,0.05L-2.55 -0.2L-2.55 -0.4L-2.3 -0.5L-1.75 -0.4L-1.45 -0.4L-0.95 -0.5L-0.85 -0.5L-0.85 -0.4L-0.85 -0.35L-0.9 -0.1L-1.3 0.4L-1.55 0.5L-1.7 0.5L-2.05 0.4L-2.05 0.35L-2.15 0.35L-2.3 0.15L-2.35 0.05L-2.45 0.05" />
<path style="fill:#563529;fill-opacity:1" d="M-3.05,0.9L-2.9 1.95L-2.95 2.45L-3 2.45L-3 2.35L-3.05 2.25L-3.1 2.2L-3.15 2.25L-3.45 2.65L-3.5 2.7L-3.55 2.8L-3.65 2.85L-3.65 2.9L-3.5 3.1L-3.45 3.15L-3.4 3.25L-3.35 3.25L-3.15 3.45L-3.1 3.55L-2.75 3.85L-2.75 3.9L-2.85 4.1L-3 4.25L-3.1 4.3L-3.15 4.35L-3.25 4.35L-3.35 4.3L-3.95 3.7L-4 3.7L-4.3 3.55L-4.3 3.5L-4.45 3.35L-4.6 3.05L-4.6 2.95L-4.55 2.85L-4.2 2.1L-3.2 1L-3.05 0.9M-1.5,1.8L-2.05 1.8L-2.15 1.75L-2.25 1.75L-2.45 0.75L-2.45 0.7L-2.35 0.65L-2.25 0.8L-1.9 0.95L-1.75 0.95L-1.6 0.95L-1.45 0.95L-1.15 0.75L-1.05 0.6L-1 0.6L-1 0.65L-0.95 1.2L-1 1.7L-1.1 1.75L-1.5 1.8M-0.6,3.8L-0.35 3.6L-0.2 3.45L-0.2 3.4L-0.15 3.4L0.3 2.8L-0.2 2.15L-0.3 2.1L-0.35 2.25L-0.35 2.4L-0.45 1.9L-0.35 0.85L-0.15 0.9L0.6 1.65L0.9 2.1L0.95 2L1.15 2.25L1.15 2.9L1.25 3L1.2 3.15L1.15 3.3L0.7 3.6L0.65 3.65L0.55 3.7L-0.05 4.3L-0.15 4.3L-0.2 4.2L-0.4 4.1L-0.6 3.8M7.7,-2.3L7.85 -0.95L7.75 -0.3L7.7 -0.5L7.6 -0.55L7.55 -0.55L7.05 0.1L7 0.1L6.85 0.2L6.85 0.3L7.1 0.55L7.1 0.65L7.25 0.75L7.55 1.05L7.55 1.15L8.05 1.55L7.9 1.85L7.75 2.05L7.6 2.1L7.55 2.2L7.4 2.2L7.3 2.1L6.4 1.35L6.05 1.1L5.85 0.9L5.75 0.7L5.7 0.5L5.7 0.35L5.7 0.25L6.15 -0.7L6.5 -1.2L7.45 -2.2L7.7 -2.3M8.5,-2.65L8.6 -2.65L8.7 -2.45L9.15 -2.25L9.3 -2.2L9.55 -2.2L9.75 -2.25L10.1 -2.5L10.25 -2.65L10.3 -2.65L10.4 -1.9L10.3 -1.25L10.15 -1.2L9.7 -1.1L8.95 -1.15L8.85 -1.15L8.8 -1.2L8.65 -1.2L8.45 -2.5L8.45 -2.55L8.5 -2.65M11.1,1.85L10.9 1.5L10.9 1.45L11.15 1.2L11.35 1L11.35 0.95L11.4 0.95L11.65 0.65L11.7 0.55L11.8 0.55L11.8 0.45L12 0.2L12 0.1L11.35 -0.65L11.25 -0.7L11.2 -0.55L11.15 -0.35L11.1 -0.35L11.05 -1L11.2 -2.35L11.4 -2.3L12.35 -1.3L12.8 -0.7L12.8 -0.75L12.85 -0.85L13.1 -0.55L13.1 0.35L13.2 0.5L13.2 0.6L13.05 0.8L12.85 0.95L12.85 1L12.5 1.2L12.45 1.25L12.35 1.35L12.35 1.4L11.65 2.05L11.55 2.1L11.4 2.1L11.1 1.85M7.85,9.9L8.35 10.1L8.8 10.1L8.95 10.1L9.1 10L9.1 10.15L9.15 10.2L9.2 10.25L9.3 10.3L9.3 10.4L9.25 10.8L9.1 10.85L8.6 10.9L8.25 10.7L8.2 10.65L8.1 10.65L7.9 10.6L7.85 10.45L7.85 10.3L7.85 10.1L7.85 9.9M9.55,9.6L9.75 9.65L10.35 9.65L10.6 9.65L10.8 9.9L10.9 10L11.05 10.1L11.15 10.1L11.3 10.1L11.5 10.1L11.6 10.2L11.65 10.35L11.65 10.55L11.55 10.6L11.5 10.6L10.8 10.7L10.25 10.45L10.05 10.45L10 10.6L9.7 10.6L9.45 10.45L9.4 10.35L9.4 10.3L9.3 10.2L9.2 10.15L9.2 10L9.45 9.7L9.5 9.6L9.55 9.6M-1.6,10.1L-1.4 10.1L-1 10.1L-0.8 10.1L-0.6 10.4L-0.5 10.4L-0.45 10.45L-0.1 10.45L0 10.55L0 10.65L0 10.75L-0.05 10.85L-0.1 10.85L-0.3 10.9L-0.65 10.9L-1.05 10.75L-1.15 10.75L-1.25 10.85L-1.45 10.85L-1.7 10.75L-1.7 10.65L-1.75 10.55L-1.85 10.5L-1.85 10.4L-1.75 10.3L-1.65 10.15L-1.6 10.1M-1.8,10.6L-1.75 10.7L-1.8 11L-1.95 11.05L-2.35 11.05L-2.45 11.05L-2.55 10.95L-2.65 10.9L-2.7 10.9L-2.85 10.85L-2.9 10.75L-2.9 10.6L-2.9 10.45L-2.9 10.3L-2.5 10.45L-2.05 10.45L-1.9 10.4L-1.9 10.5L-1.85 10.6L-1.8 10.6M-10.9,5.9L-11 5.9L-11.2 5.85L-11.3 5.85L-11.35 5.85L-11.45 5.25L-11.45 5.2L-11.4 5.2L-11.35 5.3L-11.15 5.4L-10.9 5.4L-10.7 5.25L-10.65 5.2L-10.6 5.2L-10.6 5.55L-10.6 5.85L-10.7 5.85L-10.85 5.85L-10.9 5.9M-10.35,7.05L-10.4 7.05L-10.25 6.9L-9.95 6.6L-9.9 6.45L-10.2 6.05L-10.25 6.2L-10.3 5.9L-10.25 5.3L-10.15 5.35L-9.7 5.75L-9.55 6L-9.5 6.05L-9.5 6L-9.4 6.15L-9.4 6.5L-9.35 6.6L-9.35 6.65L-9.4 6.75L-9.5 6.8L-9.65 6.9L-9.65 6.95L-9.75 6.95L-10.05 7.25L-10.1 7.3L-10.15 7.3L-10.25 7.25L-10.25 7.2L-10.35 7.05M-11.75,7.3L-11.9 7.35L-11.95 7.35L-12.35 6.95L-12.5 6.9L-12.5 6.85L-12.65 6.7L-12.7 6.6L-12.7 6.5L-12.5 6.05L-11.9 5.4L-11.8 5.35L-11.7 5.95L-11.75 6.25L-11.8 6.2L-11.8 6.15L-11.8 6.1L-11.85 6.15L-12.05 6.35L-12.1 6.4L-12.1 6.45L-12.15 6.45L-12.15 6.5L-12.05 6.6L-12 6.7L-11.95 6.7L-11.9 6.85L-11.85 6.85L-11.85 6.9L-11.65 7.05L-11.65 7.1L-11.7 7.2L-11.75 7.3M-11.1,10.9L-11.05 10.95L-11.1 10.9L-11.1 10.8L-11 10.7L-11 10.65L-10.5 10.65L-10.4 10.75L-10.4 10.8L-10.3 10.85L-10.1 10.85L-10.05 11L-10.05 11.05L-10.1 11.05L-10.2 11.1L-10.4 11.1L-10.45 11.1L-10.5 11.05L-10.65 11.05L-10.75 11.05L-10.9 11.05L-11 11.05L-11 11L-11.05 10.95L-11.05 11L-11.1 11.2L-11.15 11.2L-11.4 11.2L-11.5 11.1L-11.55 11.1L-11.65 11.1L-11.7 11.05L-11.75 10.95L-11.75 10.85L-11.7 10.75L-11.5 10.85L-11.2 10.85L-11.15 10.85L-11.15 10.9L-11.1 10.9" />
<linearGradient
id="LinearGradID_661" gradientUnits="userSpaceOnUse" gradientTransform="matrix(0.000732422, 0, 0, 0.000396729, -1.7, 0.55)" spreadMethod ="pad" x1="-819.2" y1="0" x2="819.2" y2="0" >
<stop  offset="0" style="stop-color:#DDC9BB;stop-opacity:1" />
<stop  offset="1" style="stop-color:#EFE3DE;stop-opacity:1" />
<stop  offset="1" style="stop-color:#563529;stop-opacity:1" />
</linearGradient>
<path style="fill:url(#LinearGradID_661) " d="M-2.3,0.5L-2.25 0.3L-2 0.5L-1.85 0.55L-1.5 0.55L-1.3 0.5L-1.1 0.25L-1.1 0.6L-1.15 0.65L-1.35 0.85L-1.75 0.9L-2 0.85L-2.2 0.7L-2.3 0.55L-2.3 0.5" />
<linearGradient
id="LinearGradID_662" gradientUnits="userSpaceOnUse" gradientTransform="matrix(0.000366211, 0, 0, 0.000869751, -2.65, 1.4)" spreadMethod ="pad" x1="-819.2" y1="0" x2="819.2" y2="0" >
<stop  offset="0" style="stop-color:#143141;stop-opacity:1" />
<stop  offset="1" style="stop-color:#98EBF5;stop-opacity:1" />
<stop  offset="1" style="stop-color:#5EB802;stop-opacity:1" />
<stop  offset="1" style="stop-color:#5EB802;stop-opacity:1" />
</linearGradient>
<path style="fill:url(#LinearGradID_662) " d="M-2.6,0.75L-2.55 0.7L-2.45 0.85L-2.35 1.65L-2.35 1.95L-2.35 2.05L-2.45 2.1L-2.5 2.1L-2.65 2.1L-2.8 2L-2.9 1.65L-2.95 0.85L-2.8 0.8L-2.75 0.75L-2.6 0.75" />
<linearGradient
id="LinearGradID_663" gradientUnits="userSpaceOnUse" gradientTransform="matrix(0.000289917, 0, 0, 0.000869751, -0.7, 1.35)" spreadMethod ="pad" x1="-819.2" y1="0" x2="819.2" y2="0" >
<stop  offset="0" style="stop-color:#143141;stop-opacity:1" />
<stop  offset="1" style="stop-color:#98EBF5;stop-opacity:1" />
<stop  offset="1" style="stop-color:#5EB802;stop-opacity:1" />
<stop  offset="1" style="stop-color:#5EB802;stop-opacity:1" />
</linearGradient>
<path style="fill:url(#LinearGradID_663) " d="M-0.5,0.8L-0.45 1.05L-0.5 1.95L-0.5 2L-0.65 2.05L-0.7 2.05L-0.85 2L-0.9 1.95L-0.9 1.9L-0.95 1.8L-0.9 0.65L-0.6 0.75L-0.5 0.8" />
<linearGradient
id="LinearGradID_664" gradientUnits="userSpaceOnUse" gradientTransform="matrix(0.001297, 0, 0, 0.000549316, 9.45, -4.65)" spreadMethod ="pad" x1="-819.2" y1="0" x2="819.2" y2="0" >
<stop  offset="0" style="stop-color:#143141;stop-opacity:1" />
<stop  offset="1" style="stop-color:#98EBF5;stop-opacity:1" />
<stop  offset="1" style="stop-color:#5EB802;stop-opacity:1" />
<stop  offset="1" style="stop-color:#5EB802;stop-opacity:1" />
</linearGradient>
<path style="fill:url(#LinearGradID_664) " d="M9.05,-5.05L9.6 -5.1L10 -5.05L10.15 -4.95L10.3 -4.75L10.4 -4.6L10.45 -4.3L9.3 -4.45L8.65 -4.35L8.45 -4.2L8.35 -4.2L8.35 -4.45L8.55 -4.8L8.65 -4.9L9.05 -5.05" />
<linearGradient
id="LinearGradID_665" gradientUnits="userSpaceOnUse" gradientTransform="matrix(0.00135803, 0, 0, 0.000762939, 9.45, -3.5)" spreadMethod ="pad" x1="-819.2" y1="0" x2="819.2" y2="0" >
<stop  offset="0" style="stop-color:#DDC9BB;stop-opacity:1" />
<stop  offset="1" style="stop-color:#EFE3DE;stop-opacity:1" />
<stop  offset="1" style="stop-color:#563529;stop-opacity:1" />
</linearGradient>
<path style="fill:url(#LinearGradID_665) " d="M8.3,-4L8.45 -4.05L8.65 -4.05L9.35 -3.95L9.7 -3.95L10.4 -4.15L10.45 -4.15L10.5 -4L10.5 -3.9L10.45 -3.55L10.35 -3.45L10.3 -3.45L10.2 -3.25L9.95 -2.95L9.75 -2.85L9.6 -2.85L9.4 -2.85L8.95 -2.9L8.9 -3L8.65 -3.25L8.6 -3.25L8.5 -3.4L8.45 -3.45L8.3 -3.75L8.3 -4" />
<linearGradient
id="LinearGradID_666" gradientUnits="userSpaceOnUse" gradientTransform="matrix(0.00109863, 0, 0, 0.000198364, 9.45, -4.15)" spreadMethod ="pad" x1="-819.2" y1="0" x2="819.2" y2="0" >
<stop  offset="0" style="stop-color:#143141;stop-opacity:1" />
<stop  offset="1" style="stop-color:#98EBF5;stop-opacity:1" />
<stop  offset="1" style="stop-color:#5EB802;stop-opacity:1" />
<stop  offset="1" style="stop-color:#5EB802;stop-opacity:1" />
</linearGradient>
<path style="fill:url(#LinearGradID_666) " d="M9.1,-4.35L9.7 -4.35L10.3 -4.25L10.35 -4.2L9.7 -4L9.55 -4L8.55 -4.15L8.65 -4.25L9.1 -4.35" />
<linearGradient
id="LinearGradID_667" gradientUnits="userSpaceOnUse" gradientTransform="matrix(0.000473022, 0, 0, 0.00112915, 8.1, -1.65)" spreadMethod ="pad" x1="-819.2" y1="0" x2="819.2" y2="0" >
<stop  offset="0" style="stop-color:#143141;stop-opacity:1" />
<stop  offset="1" style="stop-color:#98EBF5;stop-opacity:1" />
<stop  offset="1" style="stop-color:#5EB802;stop-opacity:1" />
<stop  offset="1" style="stop-color:#5EB802;stop-opacity:1" />
</linearGradient>
<path style="fill:url(#LinearGradID_667) " d="M8.2,-2.5L8.3 -2.55L8.45 -2.35L8.6 -1.25L8.6 -0.95L8.55 -0.8L8.45 -0.75L8.35 -0.7L8.15 -0.75L8 -0.85L7.85 -1.25L7.75 -2.35L8 -2.4L8.05 -2.5L8.2 -2.5" />
<linearGradient
id="LinearGradID_668" gradientUnits="userSpaceOnUse" gradientTransform="matrix(0.000946045, 0, 0, 0.00050354, 9.45, -2.75)" spreadMethod ="pad" x1="-819.2" y1="0" x2="819.2" y2="0" >
<stop  offset="0" style="stop-color:#DDC9BB;stop-opacity:1" />
<stop  offset="1" style="stop-color:#EFE3DE;stop-opacity:1" />
<stop  offset="1" style="stop-color:#563529;stop-opacity:1" />
</linearGradient>
<path style="fill:url(#LinearGradID_668) " d="M8.75,-2.55L8.65 -2.7L8.65 -2.8L8.65 -3.05L9.05 -2.8L9.25 -2.8L9.7 -2.8L9.9 -2.85L10.2 -3.1L10.15 -2.7L10.15 -2.6L9.85 -2.35L9.3 -2.3L9.05 -2.35L8.75 -2.55" />
<linearGradient
id="LinearGradID_669" gradientUnits="userSpaceOnUse" gradientTransform="matrix(0.00241089, 0, 0, 0.00680542, 9.45, 4.45)" spreadMethod ="pad" x1="-819.2" y1="0" x2="819.2" y2="0" >
<stop  offset="0" style="stop-color:#143141;stop-opacity:1" />
<stop  offset="1" style="stop-color:#98EBF5;stop-opacity:1" />
<stop  offset="1" style="stop-color:#5EB802;stop-opacity:1" />
<stop  offset="1" style="stop-color:#5EB802;stop-opacity:1" />
</linearGradient>
<path style="fill:url(#LinearGradID_669) " d="M10.9,1.45L10.9 1.5L11.1 1.85L11.1 1.95L10.95 1.8L10.8 1.5L10.75 1.5L10.5 1.65L10.35 1.65L10.2 1.65L10.1 1.75L9.75 1.9L9.75 1.95L9.85 2L9.95 2L10.15 1.95L10.2 1.95L10.95 2.3L11.1 2.35L11.5 5.7L10.8 9.45L10.35 9.55L10 9.55L9.55 9.5L9.7 6.5L9.65 5.4L9.7 3.95L9.75 3.35L9.7 3.3L9.7 3.95L9.6 4.7L9.65 5.4L9.45 9.6L9.3 9.8L8.95 9.95L8.8 10L8.3 9.95L7.85 9.8L7.6 9.6L7.5 9.15L7.85 6.1L7.6 2.5L7.75 2.55L8 2.5L8.65 2.1L8.75 2.1L9.05 2.2L9.2 2.1L9.25 2.1L9.25 1.95L9.15 1.95L9.1 1.9L8.95 1.8L8.9 1.7L8.85 1.7L8.25 1.6L8 1.35L8 1.3L7.8 1.2L7.75 -0.05L7.85 -0.2L7.9 -0.65L8 -0.8L8 -0.7L8.05 -0.7L8.35 -0.65L8.5 -0.7L8.65 -0.85L8.7 -1.15L8.75 -1.15L8.75 -1.1L8.9 -1.1L9.1 -1.05L10.35 -1.15L10.35 -0.95L10.45 -0.85L10.5 -0.8L10.7 -0.7L10.85 -0.7L11.05 -0.85L11.1 -0.35L11.2 -0.1L11.15 1.2L10.9 1.45M8.9,2.35L9 2.65L9.1 2.7L9.1 2.65L9.1 2.5L8.9 2.25L8.9 2.35" />
<linearGradient
id="LinearGradID_670" gradientUnits="userSpaceOnUse" gradientTransform="matrix(0.00038147, 0, 0, 0.00112915, 10.75, -1.8)" spreadMethod ="pad" x1="-819.2" y1="0" x2="819.2" y2="0" >
<stop  offset="0" style="stop-color:#143141;stop-opacity:1" />
<stop  offset="1" style="stop-color:#98EBF5;stop-opacity:1" />
<stop  offset="1" style="stop-color:#5EB802;stop-opacity:1" />
<stop  offset="1" style="stop-color:#5EB802;stop-opacity:1" />
</linearGradient>
<path style="fill:url(#LinearGradID_670) " d="M11.05,-2.1L11 -0.95L10.95 -0.85L10.75 -0.8L10.65 -0.8L10.5 -0.85L10.45 -0.95L10.45 -1L10.4 -1.1L10.45 -2.65L10.5 -2.55L10.8 -2.5L10.95 -2.4L11.05 -2.1" />
<path style="fill:#EFE3DE;fill-opacity:1" d="M-0.4,4.15L-0.2 4.3L-0.25 4.4L-0.3 4.45L-0.3 4.5L-0.35 4.45L-0.5 4.45L-1.05 4.15L-1.1 4.15L-1.15 4.2L-1.3 4.2L-1.35 4.2L-1.4 4.15L-1.2 4.05L-1.1 4L-0.9 3.9L-0.85 3.9L-0.65 3.85L-0.5 4.05L-0.4 4.15M11.35,2.1L11.3 2.25L11.2 2.35L11.1 2.35L10.95 2.3L10.2 1.95L10.15 1.95L9.95 2L9.85 2L9.75 1.95L9.75 1.9L10.1 1.75L10.2 1.65L10.35 1.65L10.5 1.65L10.75 1.5L10.8 1.5L10.95 1.8L11.1 1.95L11.35 2.1M8.15,1.65L8.45 1.7L8.5 1.7L8.55 1.75L8.7 1.75L8.8 1.8L9.1 2.05L9.05 2.1L8.95 2.1L8.8 2.05L8.65 2.05L8.2 2.3L7.7 2.4L7.6 2.35L7.6 2.25L8 1.9L8.15 1.65M-2.7,3.9L-2.65 3.9L-2.45 4L-2.4 4L-2.35 4L-2.25 4.05L-2.2 4.05L-2.15 4.05L-2.15 4.1L-1.9 4.2L-1.9 4.25L-2 4.3L-2.05 4.3L-2.2 4.25L-2.3 4.25L-2.65 4.45L-3.05 4.55L-3.05 4.5L-3.1 4.5L-3.1 4.4L-2.8 4.1L-2.7 3.9M-10.25,7.25L-10.2 7.35L-10.2 7.4L-10.25 7.4L-10.35 7.4L-10.65 7.25L-10.7 7.25L-10.8 7.25L-10.85 7.25L-10.75 7.15L-10.7 7.15L-10.7 7.1L-10.6 7.1L-10.55 7.1L-10.4 7.05L-10.35 7.2L-10.25 7.25M-11.75,7.3L-11.65 7.2L-11.6 7.1L-11.45 7.15L-11.35 7.15L-11.3 7.2L-11.15 7.25L-11.15 7.3L-11.35 7.3L-11.55 7.4L-11.8 7.45L-11.8 7.4L-11.8 7.35L-11.75 7.3" />
<path style="fill:#BF9E7F;fill-opacity:1" d="M9.65,5.4L9.6 4.7L9.7 3.95L9.65 5.4M-1.5,5.7L-1.5 6.8L-1.55 6.3L-1.5 5.7M-10.9,8.15L-10.9 8.75L-10.95 8.45L-10.9 8.15" />
<path style="fill:#B2B7C9;fill-opacity:1" d="M8.9,2.25L9.1 2.5L9.1 2.65L9.1 2.7L9 2.65L8.9 2.35L8.9 2.25M-2.05,4.5L-1.95 4.6L-1.9 4.7L-1.95 4.7L-2 4.7L-2.15 4.4L-2.05 4.4L-2.05 4.5M-11.25,7.35L-11.2 7.4L-11.15 7.5L-11.15 7.55L-11.2 7.55L-11.25 7.4L-11.3 7.35L-11.25 7.35" />
<linearGradient
id="LinearGradID_671" gradientUnits="userSpaceOnUse" gradientTransform="matrix(0.00186157, 0, 0, 0.00526428, -1.65, 6.05)" spreadMethod ="pad" x1="-819.2" y1="0" x2="819.2" y2="0" >
<stop  offset="0" style="stop-color:#143141;stop-opacity:1" />
<stop  offset="1" style="stop-color:#98EBF5;stop-opacity:1" />
<stop  offset="1" style="stop-color:#5EB802;stop-opacity:1" />
<stop  offset="1" style="stop-color:#5EB802;stop-opacity:1" />
</linearGradient>
<path style="fill:url(#LinearGradID_671) " d="M-0.35,3.6L-0.6 3.8L-0.4 4.1L-0.4 4.15L-0.5 4.05L-0.65 3.85L-0.85 3.9L-0.9 3.9L-1.1 4L-1.2 4.05L-1.4 4.15L-1.35 4.2L-1.3 4.2L-1.15 4.2L-1.1 4.15L-1.05 4.15L-0.5 4.45L-0.35 4.45L-0.1 7.1L-0.6 9.95L-0.85 10L-1 10.05L-1.25 10.05L-1.6 10L-1.45 7.7L-1.5 6.8L-1.7 10.1L-1.75 10.2L-1.9 10.3L-2.15 10.4L-2.55 10.35L-2.9 10.25L-3.1 10.1L-3.2 9.7L-2.9 7.4L-3.1 4.6L-3 4.6L-2.75 4.6L-2.25 4.3L-2.2 4.3L-2.15 4.35L-2 4.35L-1.85 4.3L-1.85 4.2L-1.85 4.15L-1.9 4.15L-1.95 4.1L-2.1 4L-2.15 4L-2.6 3.9L-2.65 3.85L-2.8 3.7L-2.8 3.65L-2.95 3.6L-2.95 2.65L-2.9 2.5L-2.85 2.2L-2.8 2.1L-2.75 2.1L-2.5 2.2L-2.35 2.1L-2.3 2L-2.25 1.8L-2.2 1.8L-2.05 1.8L-1.95 1.85L-1.5 1.8L-1 1.8L-0.95 1.95L-0.85 2.05L-0.7 2.1L-0.6 2.1L-0.5 2.05L-0.45 2L-0.35 2.4L-0.35 2.55L-0.35 3.6M-2.05,4.4L-2.15 4.4L-2 4.7L-1.95 4.7L-1.9 4.7L-1.95 4.6L-2.05 4.5L-2.05 4.4M-1.4,5.25L-1.45 5.2L-1.5 5.7L-1.4 5.25M-1.55,6.3L-1.5 6.8L-1.5 5.7L-1.55 6.3" />
<linearGradient
id="LinearGradID_672" gradientUnits="userSpaceOnUse" gradientTransform="matrix(0.000564575, 0, 0, 0.000244141, -11.05, 4.3)" spreadMethod ="pad" x1="-819.2" y1="0" x2="819.2" y2="0" >
<stop  offset="0" style="stop-color:#143141;stop-opacity:1" />
<stop  offset="1" style="stop-color:#98EBF5;stop-opacity:1" />
<stop  offset="1" style="stop-color:#5EB802;stop-opacity:1" />
<stop  offset="1" style="stop-color:#5EB802;stop-opacity:1" />
</linearGradient>
<path style="fill:url(#LinearGradID_672) " d="M-10.9,4.45L-11.05 4.4L-11.35 4.45L-11.45 4.5L-11.5 4.5L-11.5 4.4L-11.4 4.25L-11.35 4.2L-11.2 4.15L-10.9 4.1L-10.65 4.2L-10.55 4.4L-10.55 4.5L-10.9 4.45" />
<linearGradient
id="LinearGradID_673" gradientUnits="userSpaceOnUse" gradientTransform="matrix(0.000595093, 0, 0, 0.000350952, -11.05, 4.8)" spreadMethod ="pad" x1="-819.2" y1="0" x2="819.2" y2="0" >
<stop  offset="0" style="stop-color:#DDC9BB;stop-opacity:1" />
<stop  offset="1" style="stop-color:#EFE3DE;stop-opacity:1" />
<stop  offset="1" style="stop-color:#563529;stop-opacity:1" />
</linearGradient>
<path style="fill:url(#LinearGradID_673) " d="M-10.9,4.6L-10.6 4.55L-10.55 4.55L-10.55 4.6L-10.55 4.65L-10.55 4.8L-10.6 4.85L-10.7 4.95L-10.8 5.05L-10.85 5.1L-10.95 5.1L-11 5.1L-11.2 5.1L-11.25 5L-11.3 5L-11.35 4.9L-11.45 4.85L-11.45 4.8L-11.5 4.7L-11.5 4.6L-11.45 4.6L-10.95 4.6L-10.9 4.6" />
<linearGradient
id="LinearGradID_674" gradientUnits="userSpaceOnUse" gradientTransform="matrix(0.000488281, 0, 0, 9.15527e-005, -11.05, 4.5)" spreadMethod ="pad" x1="-819.2" y1="0" x2="819.2" y2="0" >
<stop  offset="0" style="stop-color:#143141;stop-opacity:1" />
<stop  offset="1" style="stop-color:#98EBF5;stop-opacity:1" />
<stop  offset="1" style="stop-color:#5EB802;stop-opacity:1" />
<stop  offset="1" style="stop-color:#5EB802;stop-opacity:1" />
</linearGradient>
<path style="fill:url(#LinearGradID_674) " d="M-10.95,4.6L-11.4 4.5L-11.15 4.45L-10.9 4.45L-10.6 4.5L-10.9 4.6L-10.95 4.6" />
<linearGradient
id="LinearGradID_675" gradientUnits="userSpaceOnUse" gradientTransform="matrix(0.000167847, 0, 0, 0.000488281, -10.45, 5.6)" spreadMethod ="pad" x1="-819.2" y1="0" x2="819.2" y2="0" >
<stop  offset="0" style="stop-color:#143141;stop-opacity:1" />
<stop  offset="1" style="stop-color:#98EBF5;stop-opacity:1" />
<stop  offset="1" style="stop-color:#5EB802;stop-opacity:1" />
<stop  offset="1" style="stop-color:#5EB802;stop-opacity:1" />
</linearGradient>
<path style="fill:url(#LinearGradID_675) " d="M-10.55,5.25L-10.4 5.25L-10.35 5.3L-10.3 5.3L-10.3 5.45L-10.3 5.95L-10.35 6L-10.45 6L-10.55 6L-10.55 5.95L-10.55 5.9L-10.6 5.9L-10.55 5.2L-10.55 5.25" />
<linearGradient
id="LinearGradID_676" gradientUnits="userSpaceOnUse" gradientTransform="matrix(0.000427246, 0, 0, 0.000244141, -11.05, 5.15)" spreadMethod ="pad" x1="-819.2" y1="0" x2="819.2" y2="0" >
<stop  offset="0" style="stop-color:#DDC9BB;stop-opacity:1" />
<stop  offset="1" style="stop-color:#EFE3DE;stop-opacity:1" />
<stop  offset="1" style="stop-color:#563529;stop-opacity:1" />
</linearGradient>
<path style="fill:url(#LinearGradID_676) " d="M-10.7,5.15L-10.9 5.35L-11.15 5.35L-11.2 5.3L-11.3 5.25L-11.35 5.15L-11.35 5L-11.2 5.1L-11.1 5.15L-10.9 5.15L-10.8 5.1L-10.7 5L-10.7 5.15" />
<linearGradient
id="LinearGradID_677" gradientUnits="userSpaceOnUse" gradientTransform="matrix(0.00108337, 0, 0, 0.0030365, -11.05, 8.35)" spreadMethod ="pad" x1="-819.2" y1="0" x2="819.2" y2="0" >
<stop  offset="0" style="stop-color:#143141;stop-opacity:1" />
<stop  offset="1" style="stop-color:#98EBF5;stop-opacity:1" />
<stop  offset="1" style="stop-color:#5EB802;stop-opacity:1" />
<stop  offset="1" style="stop-color:#5EB802;stop-opacity:1" />
</linearGradient>
<path style="fill:url(#LinearGradID_677) " d="M-10.35,7.2L-10.4 7.05L-10.55 7.1L-10.6 7.1L-10.7 7.1L-10.7 7.15L-10.75 7.15L-10.85 7.25L-10.8 7.25L-10.7 7.25L-10.65 7.25L-10.35 7.4L-10.25 7.4L-10.1 8.9L-10.4 10.55L-10.55 10.6L-10.75 10.6L-11 10.6L-10.9 9.25L-10.9 8.75L-11 10.65L-11.05 10.7L-11.2 10.8L-11.5 10.8L-11.75 10.75L-11.8 10.65L-11.9 10.5L-11.9 10.45L-11.7 9.1L-11.8 7.5L-11.75 7.5L-11.65 7.5L-11.35 7.35L-11.3 7.35L-11.2 7.35L-11.1 7.35L-11.1 7.25L-11.15 7.25L-11.15 7.2L-11.2 7.2L-11.25 7.15L-11.3 7.15L-11.55 7.1L-11.6 7.05L-11.65 6.95L-11.75 6.9L-11.75 6.35L-11.7 6.3L-11.7 6.1L-11.65 6.05L-11.5 6.1L-11.45 6.05L-11.35 6L-11.35 5.85L-11.3 5.9L-11 5.9L-10.9 5.9L-10.85 5.85L-10.6 5.85L-10.6 5.95L-10.55 6L-10.55 6.05L-10.35 6.05L-10.3 6L-10.25 6.2L-10.25 6.3L-10.25 6.9L-10.4 7.05L-10.35 7.05L-10.25 7.2L-10.25 7.25L-10.35 7.2M-11.3,7.35L-11.25 7.4L-11.2 7.55L-11.15 7.55L-11.15 7.5L-11.2 7.4L-11.25 7.35L-11.3 7.35M-10.85,7.85L-10.9 7.85L-10.9 8.15L-10.85 7.85M-10.95,8.45L-10.9 8.75L-10.9 8.15L-10.95 8.45" />
<linearGradient
id="LinearGradID_678" gradientUnits="userSpaceOnUse" gradientTransform="matrix(0.000213623, 0, 0, 0.000488281, -11.6, 5.65)" spreadMethod ="pad" x1="-819.2" y1="0" x2="819.2" y2="0" >
<stop  offset="0" style="stop-color:#143141;stop-opacity:1" />
<stop  offset="1" style="stop-color:#98EBF5;stop-opacity:1" />
<stop  offset="1" style="stop-color:#5EB802;stop-opacity:1" />
<stop  offset="1" style="stop-color:#5EB802;stop-opacity:1" />
</linearGradient>
<path style="fill:url(#LinearGradID_678) " d="M-11.55,5.25L-11.5 5.25L-11.45 5.3L-11.4 5.8L-11.4 6L-11.45 6.05L-11.6 6.05L-11.65 6L-11.7 5.8L-11.75 5.3L-11.65 5.3L-11.65 5.25L-11.55 5.25" />
<path style="fill:#000066;fill-opacity:1" d="M-11.85,1.45L-11.9 1.2L-11.65 0.5L-11 0.3Q-10.65 0.25 -10.4 0.5L-10.15 0.9L-10.1 0.95L-10.1 1.2L-10.4 1.75Q-10.65 2.05 -11 2.05L-11.65 1.75L-11.7 1.7L-11.85 1.45M-2.35,-1.95L-2.55 -2.5L-2.3 -3.2L-1.65 -3.4L-1.05 -3.2L-0.75 -2.65L-0.75 -2.5Q-0.75 -2.15 -1.05 -1.9Q-1.3 -1.65 -1.65 -1.6L-2.3 -1.9L-2.35 -1.95M8.65,-9.15Q8.55 -9.2 8.55 -9.2Q8.3 -9.45 8.3 -9.8Q8.3 -10.2 8.55 -10.5L9.2 -10.7L9.8 -10.5L9.85 -10.45L10.1 -9.8L9.8 -9.2L9.2 -8.9Q8.9 -8.95 8.65 -9.15" />
<path style="fill:none;stroke-width:1;stroke-linecap:round;stroke-linejoin:round;stroke-miterlimit:3;stroke:#563529;stroke-opacity:1" d="M17.5,-12.5L17.5 12.5L-17.5 12.5L-17.5 -12.5L17.5 -12.5z" />
<path style="fill:none;stroke-width:1;stroke-linecap:round;stroke-linejoin:round;stroke-miterlimit:3;stroke:#FF0000;stroke-opacity:1" d="M-10.1,0.95Q-5.85 -0.4 -2.35 -1.95M-0.75,-2.65Q5.1 -5.55 8.65 -9.15M9.85,-10.45L10.3 -11.05M-11.85,1.45L-13.05 1.8" />
</g>
</svg>
