<?xml version="1.0" encoding="utf-8"?>
<svg version="1.1" id="Layer_1"
xmlns="http://www.w3.org/2000/svg"
xmlns:xlink="http://www.w3.org/1999/xlink"
xmlns:author="http://www.sothink.com"
width="30px" height="31px"
xml:space="preserve">
<g id="193" transform="matrix(1, 0, 0, 1, 15, 15.05)">
<path style="fill:#42AEBD;fill-opacity:1" d="M-12.3,-12.3L-12.3 11.95L-12.3 12L-15 12L-15 -15L12 -15L12 -12.3L-12.3 -12.3" />
<path style="fill:#D1EAED;fill-opacity:1" d="M-12.3,12L-12.3 11.95L12 11.95L12 -12.3L12 -15L15 -15L15 15L-15 15L-15 12L-12.3 12" />
<path style="fill:#9DD6DD;fill-opacity:1" d="M-15,-15L-15 -15.05L12 -15.05L12 -15L-15 -15" />
<path style="fill:#FF9900;fill-opacity:1" d="M3.95,3.25L3.95 9L-1.3 9L-1.3 3.25L-6.6 3.2L1.4 -7.05L9.4 3.3L3.95 3.25" />
<path style="fill:#9DD6DD;fill-opacity:0.6" d="M12,-12.3L12 11.95L-12.3 11.95L-12.3 -12.3L12 -12.3M9.4,3.3L1.4 -7.05L-6.6 3.2L-1.3 3.25L-1.3 9L3.95 9L3.95 3.25L9.4 3.3" />
<path style="fill:none;stroke-width:1;stroke-linecap:round;stroke-linejoin:round;stroke-miterlimit:3;stroke:#FF9900;stroke-opacity:1" d="M11.4,11.25L-8.6 11.25L-8.6 -8.75L11.4 -8.75L11.4 11.25z" />
</g>
</svg>
