<?xml version="1.0" encoding="utf-8"?>
<svg version="1.1" id="Layer_1"
xmlns="http://www.w3.org/2000/svg"
xmlns:xlink="http://www.w3.org/1999/xlink"
xmlns:author="http://www.sothink.com"
width="67px" height="64px"
xml:space="preserve">
<g id="61" transform="matrix(1, 0, 0, 1, 30.25, 43)">
<path style="fill:#EFE3DE;fill-opacity:1" d="M14.95,-22.8L14.95 -23.25L16.6 -23.8L16.65 -23.8L16.6 -21.65L16.4 -21.6L14.95 -22.8M-11.5,16.75L34.25 -2.05L34.25 -2.1L34.4 -2.2L36.15 -3.05L35.75 0.35L-11.3 20.1L-11.4 20.1L-11.5 16.75M-30,-6.45L-30.1 -6.4L-30.1 -6.5L-30.05 -6.45L-30.25 -9.45L-30.15 -9.55L-22.95 -11.7L-23.05 -11.3L-22.95 -10.85L-22.95 -10.8L-22.8 -10.65L-22.9 -10.75L-23.05 -10.9L-23.05 -8.5L-28.25 -6.8L-30.15 -9.55L-30.05 -6.45L-30 -6.45M-17.45,-13.4L-3.85 -17.55L-3.5 -14.9L-12.1 -12.05L-12.55 -12.4L-13.4 -12.8Q-15.05 -13.4 -17.4 -13.4L-17.45 -13.4" />
<path style="fill:#E4D0C9;fill-opacity:1" d="M16.6,-21.65L16.65 -23.8L18.15 -22.2L16.6 -21.65M18.7,-21.6L20.7 -19.45L19.9 -19.2L18.7 -21.6M21.4,-18.75L23.05 -16.95L22.4 -16.65L21.4 -18.75M24,-15.95L25.6 -14.25L25.15 -14.1L25 -14.25L24 -15.95M26.6,-13.2L28.15 -11.55L27.6 -12L27.5 -12.1L26.85 -12.65L26.6 -13.2M28.85,-10.8L29.05 -10.55L28.9 -10.45L28.85 -10.8M34.4,-2.2L29.05 -8L29.1 -10.5L36.15 -3.05L34.4 -2.2M-30.05,-6.45L-30.15 -9.55L-28.25 -6.8L-17.3 8.5L-17.3 11.6L-17.3 11.65L-29.95 -6.45L-30 -6.45L-30.05 -6.45" />
<path style="fill:#A8ABAC;fill-opacity:1" d="M-3.85,-17.55L-4 -18.45L-3.5 -17.9L0.1 -13.95L-0.05 -16.05L2.25 -11.7L2.25 -11.75L2.5 -11.3L2.7 -11.05L2.65 -11.85L2.55 -13.35L3.25 -12.05L4.85 -9L4.85 -9.05L5.1 -8.55L4.6 -8.95L5.55 -7.9L5.4 -9.2L5.35 -9.8L5.65 -9.3L7.7 -5.8L7.7 -5.9L7.55 -8.2L8.7 -6L9.7 -3.55L9.8 -3L10.65 5.35L7.8 2L7.8 0.45L7.85 0.2L7.8 0L7.8 -0.1L7.2 -0.7L6.55 -1L4.95 -1.35L-2.85 -10.5L-3.5 -14.9L-3.85 -17.55" />
<path style="fill:#CED0D0;fill-opacity:1" d="M29.45,-2.9L10.65 5.35L9.8 -3L9.7 -3.55L9.8 -3.25L28.85 -10.45L28.55 -11.1L28.8 -11L28.85 -10.8L28.9 -10.45L29.05 -10.55L29.1 -10.6L29.1 -10.5L29.05 -8L29.45 -2.9" />
<path style="fill:#EAEAEA;fill-opacity:1" d="M26.85,-12.65L27.5 -12.1L27.6 -12L28.15 -11.55L28.4 -11.35L28.5 -11.1L28.55 -11.1L28.85 -10.45L9.8 -3.25L9.7 -3.55L8.8 -6L8.7 -6L7.55 -8.2L7.7 -5.9L5.75 -9.3L5.65 -9.3L5.35 -9.8L5.4 -9.2L4.9 -9.05L4.85 -9.05L3.3 -12.1L3.25 -12.05L2.55 -13.35L2.65 -11.85L2.3 -11.75L2.25 -11.75L0.15 -15.95L8.9 -18.95L8.9 -19L16.4 -21.6L16.6 -21.65L18.15 -22.2L18.4 -22.25L18.7 -21.6L19.9 -19.2L20.7 -19.45L21 -19.55L21.4 -18.75L22.4 -16.65L23.05 -16.95L23.35 -17.05L24 -15.95L25 -14.25L25.05 -14.1L25.15 -14.1L25.6 -14.25L26 -14.4L26.6 -13.2L26.85 -12.65" />
<path style="fill:#D5D5D5;fill-opacity:1" d="M-3.5,-17.9L-4.2 -18.7L-2 -19.35L-2.1 -17.45Q0.3 -16.05 2.65 -17.45L2.55 -20.75L4.3 -21.3L4.2 -19.45Q6.6 -18.05 8.95 -19.45L8.85 -22.75L10.25 -23.15L10.2 -21.7L10.25 -21.7L10.2 -21.35Q12.6 -19.95 14.95 -21.35L14.95 -21.7L14.95 -22.8L16.4 -21.6L8.9 -19L8.9 -18.95L0.15 -15.95L2.25 -11.75L2.3 -11.75L2.65 -11.85L2.7 -11.05L2.5 -11.3L2.25 -11.75L2.25 -11.7L-0.05 -16.05L0.1 -13.95L-3.5 -17.9M4.85,-9L3.25 -12.05L3.3 -12.1L4.85 -9.05L4.9 -9.05L5.4 -9.2L5.55 -7.9L4.6 -8.95L5.1 -8.55L4.85 -9.05L4.85 -9M7.7,-5.8L5.65 -9.3L5.75 -9.3L7.7 -5.9L7.7 -5.8M8.7,-6L8.8 -6L9.7 -3.55L8.7 -6M25,-14.25L25.15 -14.1L25.05 -14.1L25 -14.25" />
<linearGradient
id="LinearGradID_139" gradientUnits="userSpaceOnUse" gradientTransform="matrix(0.00289917, 0, 0, 0.0131226, 12.55, -32.1)" spreadMethod ="pad" x1="-819.2" y1="0" x2="819.2" y2="0" >
<stop  offset="0" style="stop-color:#A7907A;stop-opacity:1" />
<stop  offset="1" style="stop-color:#D9CFC6;stop-opacity:1" />
</linearGradient>
<path style="fill:url(#LinearGradID_139) " d="M14.95,-21.35Q12.6 -19.95 10.2 -21.35L10.25 -21.7L10.95 -42.85L11.1 -42.85L11 -42.6Q10.95 -42.35 11.4 -42.15L12.6 -41.95L13.75 -42.15L14.2 -42.5L14.95 -21.7L14.95 -21.35" />
<linearGradient
id="LinearGradID_140" gradientUnits="userSpaceOnUse" gradientTransform="matrix(0.00198364, 0, 0, 0.000747681, 426.05, 124.3)" spreadMethod ="pad" x1="-819.2" y1="0" x2="819.2" y2="0" >
<stop  offset="0" style="stop-color:#A7907A;stop-opacity:1" />
<stop  offset="1" style="stop-color:#D9CFC6;stop-opacity:1" />
</linearGradient>
<path style="fill:url(#LinearGradID_140) " d="M13.75,-42.15L12.6 -41.95L11.4 -42.15Q10.95 -42.35 11 -42.6L11.1 -42.85L11.3 -43Q11.85 -42.7 12.55 -42.7L13.85 -43L14.25 -42.6L14.2 -42.5L13.75 -42.15" />
<linearGradient
id="LinearGradID_141" gradientUnits="userSpaceOnUse" gradientTransform="matrix(0.00686646, 0, 0, 0.00549316, -17.45, -7.85)" spreadMethod ="pad" x1="-819.2" y1="0" x2="819.2" y2="0" >
<stop  offset="0" style="stop-color:#A7907A;stop-opacity:1" />
<stop  offset="1" style="stop-color:#D9CFC6;stop-opacity:1" />
</linearGradient>
<path style="fill:url(#LinearGradID_141) " d="M-12.1,-4.55L-12.15 -4.55L-12.2 -4.3L-12.15 -4.15L-12.15 -4.1L-12.05 -4.05L-12.1 -4.05L-12.2 -4.15L-12.2 -2.9L-12.65 -2.5L-12.85 -2.3L-12.85 -3.65L-12.8 -3.9L-12.85 -4.1L-12.85 -4.2L-13.45 -4.8L-14.1 -5.1L-17.25 -5.55L-20.4 -5.1Q-21.3 -4.75 -21.6 -4.35L-21.6 -4.3L-21.7 -3.9L-21.65 -3.6L-21.6 -3.55L-21.5 -3.4L-21.6 -3.5L-21.7 -3.6L-21.7 -1.95Q-22.55 -2.5 -23.05 -3.35L-23.05 -8.5L-23.05 -10.9L-22.9 -10.75L-22.8 -10.65Q-22.4 -10.2 -21.4 -9.85L-20.1 -9.45L-19.75 -9.35L-17.85 -9.2L-17.75 -9.2L-17.5 -9.2L-17.4 -9.2L-15.3 -9.35L-13.4 -9.85L-12.55 -10.25L-12.4 -10.35L-12.05 -10.6L-11.9 -10.8L-11.8 -10.95L-11.8 -4.85L-12.1 -4.55M-23,-11.95L-23.05 -11.85L-23.05 -12L-23 -11.95M-21.7,-4.35L-21.65 -4.45L-21.7 -4.45L-21.7 -4.35M-12.15,-4.6L-12.2 -4.65L-12.2 -4.55L-12.15 -4.6" />
<linearGradient
id="LinearGradID_142" gradientUnits="userSpaceOnUse" gradientTransform="matrix(0.00691223, 0, 0, 0.00253296, 467.7, 238.7)" spreadMethod ="pad" x1="-819.2" y1="0" x2="819.2" y2="0" >
<stop  offset="0" style="stop-color:#A7907A;stop-opacity:1" />
<stop  offset="1" style="stop-color:#D9CFC6;stop-opacity:1" />
</linearGradient>
<path style="fill:url(#LinearGradID_142) " d="M-17.4,-13.4Q-15.05 -13.4 -13.4 -12.8L-12.55 -12.4L-12.1 -12.05L-11.8 -11.65L-11.75 -11.55L-11.7 -11.3L-11.8 -10.95L-11.9 -10.8L-12.05 -10.6L-12.4 -10.35L-12.55 -10.25L-13.4 -9.85L-15.3 -9.35L-17.4 -9.2L-17.5 -9.2L-17.75 -9.2L-17.85 -9.2L-19.75 -9.35L-20.1 -9.45L-21.4 -9.85Q-22.4 -10.2 -22.8 -10.65L-22.95 -10.8L-22.95 -10.85L-23.05 -11.3L-22.95 -11.7L-22.95 -11.75L-22.9 -11.85L-21.4 -12.8Q-19.75 -13.4 -17.45 -13.4L-17.4 -13.4" />
<linearGradient
id="LinearGradID_143" gradientUnits="userSpaceOnUse" gradientTransform="matrix(0.00543213, 0, 0, 0.0019989, 364.15, 192.65)" spreadMethod ="pad" x1="-819.2" y1="0" x2="819.2" y2="0" >
<stop  offset="0" style="stop-color:#A7907A;stop-opacity:1" />
<stop  offset="1" style="stop-color:#D9CFC6;stop-opacity:1" />
</linearGradient>
<path style="fill:url(#LinearGradID_143) " d="M-12.95,-3.5L-13.05 -3.35L-13.3 -3.15L-13.45 -3.1L-14.1 -2.8L-15.6 -2.4L-17.25 -2.25L-17.35 -2.25L-17.55 -2.25L-17.6 -2.25L-19.1 -2.4L-20.4 -2.8Q-21.2 -3.05 -21.5 -3.4L-21.6 -3.55L-21.65 -3.6L-21.7 -3.9L-21.6 -4.3L-21.6 -4.35Q-21.3 -4.75 -20.4 -5.1L-17.25 -5.55L-14.1 -5.1L-13.45 -4.8L-12.85 -4.2L-12.85 -4.1L-12.8 -3.9L-12.85 -3.65L-12.95 -3.5" />
<linearGradient
id="LinearGradID_144" gradientUnits="userSpaceOnUse" gradientTransform="matrix(0.00540161, 0, 0, 0.00431824, -17.3, -1.2)" spreadMethod ="pad" x1="-819.2" y1="0" x2="819.2" y2="0" >
<stop  offset="0" style="stop-color:#A7907A;stop-opacity:1" />
<stop  offset="1" style="stop-color:#D9CFC6;stop-opacity:1" />
</linearGradient>
<path style="fill:url(#LinearGradID_144) " d="M-21.5,-3.4Q-21.2 -3.05 -20.4 -2.8L-19.1 -2.4L-17.6 -2.25L-17.55 -2.25L-17.35 -2.25L-17.25 -2.25L-15.6 -2.4L-14.1 -2.8L-13.45 -3.1L-13.3 -3.15L-13.05 -3.35L-12.95 -3.5L-12.85 -3.65L-12.85 -2.3L-12.85 2.35L-13.5 3L-14.45 3.6Q-15.85 4.25 -17.75 4.2L-20.3 3.6L-21.7 2.35L-21.7 -1.95L-21.7 -3.6L-21.6 -3.5L-21.5 -3.4M-21.7,-4.45L-21.65 -4.45L-21.7 -4.35L-21.7 -4.45" />
<linearGradient
id="LinearGradID_145" gradientUnits="userSpaceOnUse" gradientTransform="matrix(0.00305176, 0, 0, 0.00244141, -9.7, -2.8)" spreadMethod ="pad" x1="-819.2" y1="0" x2="819.2" y2="0" >
<stop  offset="0" style="stop-color:#A7907A;stop-opacity:1" />
<stop  offset="1" style="stop-color:#D9CFC6;stop-opacity:1" />
</linearGradient>
<path style="fill:url(#LinearGradID_145) " d="M-7.2,-4.15L-7.2 -0.8L-7.55 -0.4L-8.1 -0.1L-9.95 0.25L-11.4 -0.1L-12.2 -0.8L-12.2 -2.9L-12.2 -4.15L-12.1 -4.05L-12.05 -4.05L-11.8 -3.8L-11.45 -3.65L-10.7 -3.45L-9.9 -3.4L-9.85 -3.4L-9.7 -3.4L-8.75 -3.45L-7.9 -3.65L-7.55 -3.85L-7.45 -3.9L-7.3 -4L-7.25 -4.1L-7.2 -4.15M-12.2,-4.55L-12.2 -4.65L-12.15 -4.6L-12.2 -4.55" />
<linearGradient
id="LinearGradID_146" gradientUnits="userSpaceOnUse" gradientTransform="matrix(0.00306702, 0, 0, 0.00112915, 205.45, 106.55)" spreadMethod ="pad" x1="-819.2" y1="0" x2="819.2" y2="0" >
<stop  offset="0" style="stop-color:#A7907A;stop-opacity:1" />
<stop  offset="1" style="stop-color:#D9CFC6;stop-opacity:1" />
</linearGradient>
<path style="fill:url(#LinearGradID_146) " d="M-7.25,-4.1L-7.3 -4L-7.45 -3.9L-7.55 -3.85L-7.9 -3.65L-8.75 -3.45L-9.7 -3.4L-9.85 -3.4L-9.9 -3.4L-10.7 -3.45L-11.45 -3.65L-11.8 -3.8L-12.05 -4.05L-12.15 -4.1L-12.15 -4.15L-12.2 -4.3L-12.15 -4.55L-12.1 -4.55L-11.8 -4.85L-11.45 -5L-9.7 -5.25L-7.9 -5L-7.55 -4.8L-7.2 -4.45L-7.15 -4.3L-7.2 -4.15L-7.25 -4.1" />
<linearGradient
id="LinearGradID_147" gradientUnits="userSpaceOnUse" gradientTransform="matrix(0.00289917, 0, 0, 0.0131226, 6.55, -30.2)" spreadMethod ="pad" x1="-819.2" y1="0" x2="819.2" y2="0" >
<stop  offset="0" style="stop-color:#A7907A;stop-opacity:1" />
<stop  offset="1" style="stop-color:#D9CFC6;stop-opacity:1" />
</linearGradient>
<path style="fill:url(#LinearGradID_147) " d="M4.3,-21.3L4.95 -40.95L5.1 -40.95L5 -40.7Q4.95 -40.45 5.4 -40.25L6.6 -40.05L7.75 -40.25L8.2 -40.6L8.85 -22.75L8.95 -19.45Q6.6 -18.05 4.2 -19.45L4.3 -21.3" />
<linearGradient
id="LinearGradID_148" gradientUnits="userSpaceOnUse" gradientTransform="matrix(0.00198364, 0, 0, 0.000747681, 420.05, 126.2)" spreadMethod ="pad" x1="-819.2" y1="0" x2="819.2" y2="0" >
<stop  offset="0" style="stop-color:#A7907A;stop-opacity:1" />
<stop  offset="1" style="stop-color:#D9CFC6;stop-opacity:1" />
</linearGradient>
<path style="fill:url(#LinearGradID_148) " d="M7.75,-40.25L6.6 -40.05L5.4 -40.25Q4.95 -40.45 5 -40.7L5.1 -40.95L6.25 -40.7L7.25 -40.85L7.7 -41.05L7.95 -41.05L8.25 -40.7L8.2 -40.6L7.75 -40.25" />
<linearGradient
id="LinearGradID_149" gradientUnits="userSpaceOnUse" gradientTransform="matrix(0.00306702, 0, 0, 0.00112915, 206.2, 100.3)" spreadMethod ="pad" x1="-819.2" y1="0" x2="819.2" y2="0" >
<stop  offset="0" style="stop-color:#A7907A;stop-opacity:1" />
<stop  offset="1" style="stop-color:#D9CFC6;stop-opacity:1" />
</linearGradient>
<path style="fill:url(#LinearGradID_149) " d="M-6.5,-10.35L-6.55 -10.25L-6.7 -10.15L-6.8 -10.1L-7.15 -9.9L-8 -9.7L-8.95 -9.65L-9.1 -9.65L-9.15 -9.65L-9.95 -9.7L-10.7 -9.9L-11.05 -10.05L-11.3 -10.3L-11.4 -10.35L-11.4 -10.4L-11.45 -10.55L-11.4 -10.8L-11.35 -10.8L-11.05 -11.1L-10.7 -11.25L-8.95 -11.5L-7.15 -11.25L-6.8 -11.05L-6.45 -10.7L-6.4 -10.55L-6.45 -10.4L-6.5 -10.35" />
<linearGradient
id="LinearGradID_150" gradientUnits="userSpaceOnUse" gradientTransform="matrix(0.00305176, 0, 0, 0.00244141, -8.95, -9.05)" spreadMethod ="pad" x1="-819.2" y1="0" x2="819.2" y2="0" >
<stop  offset="0" style="stop-color:#A7907A;stop-opacity:1" />
<stop  offset="1" style="stop-color:#D9CFC6;stop-opacity:1" />
</linearGradient>
<path style="fill:url(#LinearGradID_150) " d="M-6.45,-10.4L-6.45 -7.05L-6.8 -6.65L-7.35 -6.35Q-8.1 -5.95 -9.2 -6L-10.65 -6.35L-11.45 -7.05L-11.45 -10.4L-11.35 -10.3L-11.3 -10.3L-11.05 -10.05L-10.7 -9.9L-9.95 -9.7L-9.15 -9.65L-9.1 -9.65L-8.95 -9.65L-8 -9.7L-7.15 -9.9L-6.8 -10.1L-6.7 -10.15L-6.55 -10.25L-6.5 -10.35L-6.45 -10.4" />
<linearGradient
id="LinearGradID_151" gradientUnits="userSpaceOnUse" gradientTransform="matrix(0.00198364, 0, 0, 0.000747681, 413.75, 128.2)" spreadMethod ="pad" x1="-819.2" y1="0" x2="819.2" y2="0" >
<stop  offset="0" style="stop-color:#A7907A;stop-opacity:1" />
<stop  offset="1" style="stop-color:#D9CFC6;stop-opacity:1" />
</linearGradient>
<path style="fill:url(#LinearGradID_151) " d="M-1.2,-38.95L-1 -39.1Q-0.45 -38.8 0.25 -38.8L1.55 -39.1L1.95 -38.7L1.9 -38.6L1.45 -38.25L0.3 -38.05L-0.9 -38.25Q-1.35 -38.45 -1.3 -38.7L-1.2 -38.95" />
<linearGradient
id="LinearGradID_152" gradientUnits="userSpaceOnUse" gradientTransform="matrix(0.00289917, 0, 0, 0.0131226, 0.25, -28.2)" spreadMethod ="pad" x1="-819.2" y1="0" x2="819.2" y2="0" >
<stop  offset="0" style="stop-color:#A7907A;stop-opacity:1" />
<stop  offset="1" style="stop-color:#D9CFC6;stop-opacity:1" />
</linearGradient>
<path style="fill:url(#LinearGradID_152) " d="M2.65,-17.45Q0.3 -16.05 -2.1 -17.45L-2 -19.35L-1.35 -38.95L-1.2 -38.95L-1.3 -38.7Q-1.35 -38.45 -0.9 -38.25L0.3 -38.05L1.45 -38.25L1.9 -38.6L2.55 -20.75L2.65 -17.45" />
<linearGradient
id="LinearGradID_153" gradientUnits="userSpaceOnUse" gradientTransform="matrix(0.00543213, 0, 0, 0.0019989, 384.8, 196.75)" spreadMethod ="pad" x1="-819.2" y1="0" x2="819.2" y2="0" >
<stop  offset="0" style="stop-color:#A7907A;stop-opacity:1" />
<stop  offset="1" style="stop-color:#D9CFC6;stop-opacity:1" />
</linearGradient>
<path style="fill:url(#LinearGradID_153) " d="M-0.85,0.7L-0.95 0.55L-1 0.5L-1.05 0.2L-0.95 -0.2L-0.95 -0.25Q-0.65 -0.65 0.25 -1L3.4 -1.45L4.95 -1.35L6.55 -1L7.2 -0.7L7.8 -0.1L7.8 0L7.85 0.2L7.8 0.45L7.7 0.6L7.6 0.75L7.35 0.95L7.2 1L7.05 1.1L6.55 1.3L5.05 1.7L3.4 1.85L3.3 1.85L3.1 1.85L3.05 1.85L1.55 1.7L0.25 1.3L-0.85 0.7" />
<linearGradient
id="LinearGradID_154" gradientUnits="userSpaceOnUse" gradientTransform="matrix(0.00540161, 0, 0, 0.00431824, 3.35, 2.9)" spreadMethod ="pad" x1="-819.2" y1="0" x2="819.2" y2="0" >
<stop  offset="0" style="stop-color:#A7907A;stop-opacity:1" />
<stop  offset="1" style="stop-color:#D9CFC6;stop-opacity:1" />
</linearGradient>
<path style="fill:url(#LinearGradID_154) " d="M7.8,6.45L7.15 7.1L6.2 7.7Q4.8 8.35 2.9 8.3Q1.35 8.2 0.35 7.7L-1.05 6.45L-1.05 0.5L-0.95 0.6L-0.85 0.7L0.25 1.3L1.55 1.7L3.05 1.85L3.1 1.85L3.3 1.85L3.4 1.85L5.05 1.7L6.55 1.3L7.05 1.1L7.2 1L7.35 0.95L7.6 0.75L7.7 0.6L7.8 0.45L7.8 2L7.8 6.45" />
<path style="fill:#715944;fill-opacity:1" d="M7.8,2L10.65 5.35L29.45 -2.9L29.05 -8L34.4 -2.2L34.25 -2.1L34.25 -2.05L-11.5 16.75L-11.4 20.1L-17.3 11.6L-17.3 8.5L-28.25 -6.8L-23.05 -8.5L-23.05 -3.35Q-22.55 -2.5 -21.7 -1.95L-21.7 2.35L-20.3 3.6L-17.75 4.2Q-15.85 4.25 -14.45 3.6L-13.5 3L-12.85 2.35L-12.85 -2.3L-12.65 -2.5L-12.2 -2.9L-12.2 -0.8L-11.4 -0.1L-9.95 0.25L-8.1 -0.1L-7.55 -0.4L-7.2 -0.8L-7.2 -4.15L-7.15 -4.3L-7.2 -4.45L-7.55 -4.8L-7.9 -5L-9.7 -5.25L-11.45 -5L-11.8 -4.85L-11.8 -10.95L-11.7 -11.3L-11.75 -11.55L-11.8 -11.65L-12.1 -12.05L-3.5 -14.9L-2.85 -10.5L4.95 -1.35L3.4 -1.45L0.25 -1Q-0.65 -0.65 -0.95 -0.25L-0.95 -0.2L-1.05 0.2L-1 0.5L-0.95 0.55L-0.85 0.7L-0.95 0.6L-1.05 0.5L-1.05 6.45L0.35 7.7Q1.35 8.2 2.9 8.3Q4.8 8.35 6.2 7.7L7.15 7.1L7.8 6.45L7.8 2M-11.35,-10.3L-11.45 -10.4L-11.45 -7.05L-10.65 -6.35L-9.2 -6Q-8.1 -5.95 -7.35 -6.35L-6.8 -6.65L-6.45 -7.05L-6.45 -10.4L-6.4 -10.55L-6.45 -10.7L-6.8 -11.05L-7.15 -11.25L-8.95 -11.5L-10.7 -11.25L-11.05 -11.1L-11.35 -10.8L-11.4 -10.8L-11.45 -10.55L-11.4 -10.4L-11.4 -10.35L-11.3 -10.3L-11.35 -10.3" />
</g>
</svg>
