<?xml version="1.0" encoding="utf-8"?>
<svg version="1.1" id="Layer_1"
xmlns="http://www.w3.org/2000/svg"
xmlns:xlink="http://www.w3.org/1999/xlink"
xmlns:author="http://www.sothink.com"
width="170px" height="30px"
xml:space="preserve">
<g id="200" transform="matrix(1, 0, 0, 1, 85, 15)">
<path style="fill:#9DD6DD;fill-opacity:0.6" d="M82,-12.3L82 12L-81.95 12L-81.95 -12.3L82 -12.3M-15.95,-5.65L-15.95 -5.6L-15.95 -5.65M-16,-5.6L-16 -5.65L-16 -5.6M-16,-5.1L-30.65 1.95L-16 8.9L-16 4.25L34.35 4.25L34.35 -0.45L-16 -0.45L-16 -5.1" />
<path style="fill:#D1EAED;fill-opacity:1" d="M-81.95,12L82 12L82 -12.3L82.1 -12.3L82.1 12L82.1 -15L85 -15L85 15L-85 15L-85 -15L-85 12L-84.9 12L-81.95 12" />
<path style="fill:#42AEBD;fill-opacity:1" d="M-81.95,-12.3L-81.95 12L-84.9 12L-84.9 -15L82.1 -15L82.1 12L82.1 -12.3L82 -12.3L-81.95 -12.3" />
<path style="fill:#FF9900;fill-opacity:1" d="M-16,-0.45L34.35 -0.45L34.35 4.25L-16 4.25L-16 8.9L-30.65 1.95L-16 -5.1L-16 -0.45" />
<path style="fill:none;stroke-width:1;stroke-linecap:round;stroke-linejoin:round;stroke-miterlimit:3;stroke:#FF9900;stroke-opacity:1" d="M53.65,-7.25L53.65 11.05L-50.25 11.05L-50.25 -7.25L53.65 -7.25z" />
</g>
</svg>
