<?xml version="1.0" encoding="utf-8"?>
<svg version="1.1" id="Layer_1"
xmlns="http://www.w3.org/2000/svg"
xmlns:xlink="http://www.w3.org/1999/xlink"
xmlns:author="http://www.sothink.com"
width="168px" height="365px"
xml:space="preserve">
<g id="172" transform="matrix(1, 0, 0, 1, 310.1, 170)">
<path style="fill:#BF9E7F;fill-opacity:1" d="M-309.9,-103L-306.85 -103L-146.1 -103L-146.1 -167.1L-145.9 -167.1L-145.9 -170L-143 -170L-143 -100L-310 -100L-310 -103L-310.1 -103L-310.1 -170L-309.9 -170L-309.9 -103M-309.95,192L-145.95 192L-145.95 -2.1L-145.95 3.4L-145.9 3.4L-145.9 -5L-143 -5L-143 195L-310 195L-310 186.45L-309.95 186.45L-309.95 192" />
<path style="fill:#563529;fill-opacity:1" d="M-306.85,-167.1L-306.85 -103L-309.9 -103L-309.9 -170L-145.9 -170L-145.9 -167.1L-146.1 -167.1L-306.85 -167.1M-309.9,183.55L-309.9 -5.05L-145.9 -5.05L-145.9 -5L-145.9 3.4L-145.95 3.4L-145.95 -2.1L-307 -2.1L-307 191.95L-309.9 191.95L-309.9 183.55" />
<path style="fill:#DBE6BE;fill-opacity:1" d="M-146.1,-167.1L-146.1 -103L-306.85 -103L-306.85 -167.1L-146.1 -167.1M-309.9,191.95L-307 191.95L-307 -2.1L-145.95 -2.1L-145.95 192L-309.95 192L-309.95 186.45L-309.95 183.55L-309.9 183.55L-309.9 191.95" />
</g>
</svg>
