<?xml version="1.0" encoding="utf-8"?>
<svg version="1.1" id="Layer_1"
xmlns="http://www.w3.org/2000/svg"
xmlns:xlink="http://www.w3.org/1999/xlink"
xmlns:author="http://www.sothink.com"
width="114px" height="61px"
xml:space="preserve">
<g id="219" transform="matrix(1, 0, 0, 1, 57.05, 30.5)">
<path style="fill:#374777;fill-opacity:1" d="M56.2,-30L56.6 -30L56.6 30L56.2 30L56.2 -30" />
<path style="fill:#9DD6DD;fill-opacity:0.6" d="M5.4,-4.65Q5.9 -5.85 5.9 -6.95Q5.9 -8.6 4.8 -9.95Q3.3 -11.8 0.05 -11.8Q-2.55 -11.8 -4.05 -10.45Q-5.55 -9.15 -5.55 -7.4Q-5.55 -6.25 -5 -5.6Q-4.5 -5 -3.85 -5Q-3.3 -5 -2.95 -5.35Q-2.6 -5.75 -2.6 -6.3L-3.05 -7.55L-3.55 -8.95Q-3.55 -9.7 -2.75 -10.3Q-1.95 -10.95 -0.6 -10.95Q0.9 -10.95 2 -9.8Q3.05 -8.65 3.05 -6.7L2.75 -4.8L1.55 -2.15Q0.3 0.1 -0.05 1.4Q-0.45 2.65 -0.55 4.6L0.1 4.6Q0.2 2.75 0.7 1.7Q1.2 0.65 3.5 -1.9Q4.9 -3.45 5.4 -4.65M50.1,23L50.1 23.05L-50.45 23.05L-50.45 23L-50.45 -24.4L50.1 -24.4L50.1 23M1.6,8.2Q1.6 7.5 1.1 7Q0.6 6.5 -0.15 6.5Q-0.85 6.5 -1.35 7Q-1.85 7.5 -1.85 8.2Q-1.85 8.9 -1.35 9.4Q-0.85 9.9 -0.15 9.9Q0.6 9.9 1.1 9.4Q1.6 8.9 1.6 8.2" />
<path style="fill:#D1EAED;fill-opacity:1" d="M50.1,-24.4L-50.45 -24.4L-50.45 23L-56.4 23L-56.4 -29.95L50.15 -29.95L50.15 23L50.1 23L50.1 -24.4" />
<path style="fill:#42AEBD;fill-opacity:1" d="M56.2,30L-56.55 30L-56.55 -30L56.2 -30L56.2 30M-50.45,23.05L50.1 23.05L50.1 23L50.15 23L50.15 -29.95L-56.4 -29.95L-56.4 23L-50.45 23L-50.45 23.05" />
<path style="fill:#046B81;fill-opacity:1" d="M3.5,-1.9Q1.2 0.65 0.7 1.7Q0.2 2.75 0.1 4.6L-0.55 4.6Q-0.45 2.65 -0.05 1.4Q0.3 0.1 1.55 -2.15L2.75 -4.8L3.05 -6.7Q3.05 -8.65 2 -9.8Q0.9 -10.95 -0.6 -10.95Q-1.95 -10.95 -2.75 -10.3Q-3.55 -9.7 -3.55 -8.95L-3.05 -7.55L-2.6 -6.3Q-2.6 -5.75 -2.95 -5.35Q-3.3 -5 -3.85 -5Q-4.5 -5 -5 -5.6Q-5.55 -6.25 -5.55 -7.4Q-5.55 -9.15 -4.05 -10.45Q-2.55 -11.8 0.05 -11.8Q3.3 -11.8 4.8 -9.95Q5.9 -8.6 5.9 -6.95Q5.9 -5.85 5.4 -4.65Q4.9 -3.45 3.5 -1.9M1.1,9.4Q0.6 9.9 -0.15 9.9Q-0.85 9.9 -1.35 9.4Q-1.85 8.9 -1.85 8.2Q-1.85 7.5 -1.35 7Q-0.85 6.5 -0.15 6.5Q0.6 6.5 1.1 7Q1.6 7.5 1.6 8.2Q1.6 8.9 1.1 9.4" />
<path style="fill:none;stroke-width:1;stroke-linecap:round;stroke-linejoin:round;stroke-miterlimit:3;stroke:#FFFFFF;stroke-opacity:1" d="M56.2,30L-56.55 30L-56.55 -30L56.2 -30L56.2 30z" />
<path style="fill:none;stroke-width:0.5;stroke-linecap:round;stroke-linejoin:round;stroke-miterlimit:3;stroke:#046B81;stroke-opacity:1" d="M17.55,16.6L-17.2 16.6L-17.2 -18.25L17.55 -18.25L17.55 16.6z" />
</g>
</svg>
