<?xml version="1.0" encoding="utf-8"?>
<svg version="1.1" id="Layer_1"
xmlns="http://www.w3.org/2000/svg"
xmlns:xlink="http://www.w3.org/1999/xlink"
xmlns:author="http://www.sothink.com"
width="40px" height="12px"
xml:space="preserve">
<g id="85" transform="matrix(1, 0, 0, 1, 22.9, 8.2)">
<path style="fill:none;stroke-width:0.25;stroke-linecap:round;stroke-linejoin:round;stroke-miterlimit:3;stroke:#FFFFFF;stroke-opacity:1" d="M-15.35,-7.6L-13.6 -7.7Q-9.8 -7.7 -7.1 -6.1Q-4.4 -4.5 -4.4 -2.25Q-4.4 0 -7.1 1.6Q-9.8 3.2 -13.6 3.2Q-17.4 3.2 -20.1 1.6Q-22.8 0 -22.8 -2.25Q-22.8 -4.5 -20.1 -6.1L-17.85 -7.1" />
<path style="fill:none;stroke-width:0.25;stroke-linecap:round;stroke-linejoin:round;stroke-miterlimit:3;stroke:#FFFFFF;stroke-opacity:1" d="M12.25,-7.6L13.95 -6.85Q16.05 -5.65 16.05 -3.9Q16.05 -2.15 13.95 -0.9Q11.85 0.3 8.95 0.3Q6 0.3 3.95 -0.9Q1.85 -2.15 1.85 -3.9Q1.85 -5.65 3.95 -6.85Q6 -8.1 8.95 -8.1L9.8 -8.1" />
</g>
</svg>
