<?xml version="1.0" encoding="utf-8"?>
<svg version="1.1" id="Layer_1"
xmlns="http://www.w3.org/2000/svg"
xmlns:xlink="http://www.w3.org/1999/xlink"
xmlns:author="http://www.sothink.com"
width="25px" height="13px"
xml:space="preserve">
<g id="36" transform="matrix(1, 0, 0, 1, 12.95, 5.7)">
<path style="fill:#D1EAED;fill-opacity:1" d="M10.65,5.1Q6.05 3.85 2.95 2.15L2.9 2.2L1.25 1.1L0.1 0.15Q-3.45 3.8 -10.55 5.1L-10.55 -5.1Q-2.45 -3.15 0.1 -0.15L1 -0.95L1.5 -1.3L1.05 -0.9L1.9 -1.5L1.95 -1.5L2.35 -1.8L2.95 -2.25Q4.3 -3.05 5.9 -3.65L6.75 -3.95L10.65 -5.1L10.65 5.1M4.75,-2.4L4.55 -2.35L4.25 -2.2L2.9 -1.55Q1.75 -0.95 2.4 -1.2L3.95 -1.8L4.1 -1.85L4.35 -1.95L4.6 -2.05L4.75 -2.1L4.9 -2.15L5 -2.2L5.25 -2.3L5.4 -2.35L5.7 -2.45L5.8 -2.45L5.95 -2.5L6.45 -2.7L6.55 -2.7L7.2 -2.85L7.45 -2.95L8.45 -3.25L9.45 -3.7L10.05 -4.05L10.3 -4.3L10.3 -4.35L10.25 -4.4L10.15 -4.4L8.7 -4.05L5.6 -2.8L5.55 -2.8L5.1 -2.55L4.95 -2.5L4.75 -2.4M-10.3,4.8L-8.9 4.3L-8.65 4.2L-8.1 4L-4.95 2.8L-4.95 2.75L-2.25 1.5Q-1.15 0.9 -1.8 1.2L-3.95 2.05L-4.3 2.15L-4.4 2.2L-4.5 2.2L-6.5 2.85L-4.7 0.8L-4.7 0.15L-4.7 -0.15L-4.7 -0.6Q-5.45 -1.85 -6.9 -2.85L-7.55 -3.25Q-8.75 -4 -10.3 -4.55L-10.3 4.8M-6.3,-2.85L-4.9 -2.25L-3.2 -1.65L-1.8 -1.05Q-1.35 -0.85 -2.05 -1.25L-3.9 -2.2L-5.9 -3.05L-6.9 -3.3L-6.3 -2.85M5.95,2.45L4.7 2.05L4.2 1.85L3.95 1.75L2.8 1.25Q2.35 1.05 3.05 1.5L4.85 2.4L4.9 2.4L6.9 3.25L7.3 3.4L7.95 3.55L7.95 3.45L7.35 3.05Q6.65 2.6 5.95 2.45M0.35,0.15L0.4 0.2L0.45 0.2L0.4 0.15L0.35 0.1L0.35 0.15" />
<path style="fill:#0099CC;fill-opacity:1" d="M4.95,-2.5L5.1 -2.55L5.55 -2.8L5.6 -2.8L8.7 -4.05L10.15 -4.4L10.25 -4.4L10.3 -4.35L10.3 -4.3L10.05 -4.05L9.45 -3.7L8.45 -3.25L7.45 -2.95L7.2 -2.85L6.55 -2.7L6.45 -2.7L5.95 -2.5L5.8 -2.45L5.7 -2.45L5.4 -2.35L5.25 -2.3L5 -2.2L4.9 -2.15L4.75 -2.1L4.6 -2.05L4.35 -1.95L4.1 -1.85L3.95 -1.8L2.4 -1.2Q1.75 -0.95 2.9 -1.55L4.25 -2.2L4.55 -2.35L4.75 -2.4L4.95 -2.5M-9.65,4.35L-9.65 4.3L-9.4 4.05L-8.8 3.7Q-7.85 3.15 -6.8 2.9L-6.6 2.85L-6.5 2.85L-4.5 2.2L-4.4 2.2L-4.3 2.15L-3.95 2.05L-1.8 1.2Q-1.15 0.9 -2.25 1.5L-4.95 2.75L-4.95 2.8L-8.1 4L-8.65 4.2L-9.65 4.35" />
<path style="fill:#000066;fill-opacity:1" d="M10.65,5.1L10.65 -5.1L10.65 -5.4L10.85 -5.6L11.35 -5.7L11.85 -5.6L12.05 -5.4L12.05 5.4L11.85 5.65L11.35 5.75L11.05 5.7L10.85 5.65L10.65 5.4L10.65 5.1M-11.9,-4.55L-11.9 -5.4L-11.7 -5.6L-11.2 -5.7L-10.7 -5.6L-10.55 -5.4L-10.55 -5.1L-10.55 5.1L-10.55 5.4L-10.7 5.65L-11.2 5.75L-11.7 5.65L-11.9 5.4L-11.9 -4.55" />
<path style="fill:#999999;fill-opacity:1" d="M3.25,2.35L2.95 2.15Q6.05 3.85 10.65 5.1L10.65 5.4L10.85 5.65L11.05 5.7L11.05 6.55L10.85 6.75L10.35 6.9L9.85 6.75L9.65 6.55L9.65 6.25Q2.55 4.4 -0.95 1.3Q-4.5 4.95 -11.55 6.25L-11.55 6.55L-11.7 6.75L-12.2 6.9L-12.7 6.75L-12.95 6.55L-12.95 -4.25L-12.7 -4.5L-12.2 -4.55L-11.9 -4.55L-11.9 5.4L-11.7 5.65L-11.2 5.75L-10.7 5.65L-10.55 5.4L-10.55 5.1Q-3.45 3.8 0.1 0.15L1.25 1.1L2.9 2.2L3.25 2.35" />
<path style="fill:#FFFFFF;fill-opacity:1" d="M-6.9,-3.3L-5.9 -3.05L-3.9 -2.2L-2.05 -1.25Q-1.35 -0.85 -1.8 -1.05L-3.2 -1.65L-4.9 -2.25L-6.3 -2.85L-6.9 -3.3M7.35,3.05L7.95 3.45L7.95 3.55L7.3 3.4L6.9 3.25L4.9 2.4L4.85 2.4L3.05 1.5Q2.35 1.05 2.8 1.25L3.95 1.75L4.2 1.85L4.7 2.05L5.95 2.45Q6.65 2.6 7.35 3.05" />
<path style="fill:#FF9900;fill-opacity:1" d="M-8.65,4.2L-8.9 4.3L-10.3 4.8L-10.3 -4.55Q-8.75 -4 -7.55 -3.25L-6.9 -2.85Q-5.45 -1.85 -4.7 -0.6L-4.7 -0.15L-4.7 0.15L-4.7 0.8L-6.5 2.85L-6.6 2.85L-6.8 2.9Q-7.85 3.15 -8.8 3.7L-9.4 4.05L-9.65 4.3L-9.65 4.35L-8.65 4.2" />
</g>
</svg>
