<?xml version="1.0" encoding="utf-8"?>
<svg version="1.1" id="Layer_1"
xmlns="http://www.w3.org/2000/svg"
xmlns:xlink="http://www.w3.org/1999/xlink"
xmlns:author="http://www.sothink.com"
width="35px" height="25px"
xml:space="preserve">
<g id="158" transform="matrix(1, 0, 0, 1, 17.25, 12.5)">
<path style="fill:#4E6C33;fill-opacity:1" d="M-16.9,-12.5L14.75 -12.5L14.75 -12.45L-16.9 -12.45L-16.9 -12.5M16.75,-12.45L16.75 -12.5L17.2 -12.5L17.2 -12.45L16.75 -12.45" />
<path style="fill:#563529;fill-opacity:1" d="M16.75,-12.45L16.75 12.5L-17.25 12.5L-17.25 -12.45L-16.9 -12.45L14.75 -12.45L14.75 -12.5L16.75 -12.5L16.75 -12.45M14.75,-10.6L-15.4 -10.6L-15.4 10.5L14.75 10.5L14.75 -10.6" />
<path style="fill:#DBE6BE;fill-opacity:1" d="M14.75,10.5L-15.4 10.5L-15.4 -10.6L14.75 -10.6L14.75 10.5" />
<linearGradient
id="LinearGradID_512" gradientUnits="userSpaceOnUse" gradientTransform="matrix(-0.000335693, -3.05176e-005, 3.05176e-005, -0.000350952, 6.45, -5.8)" spreadMethod ="pad" x1="-819.2" y1="0" x2="819.2" y2="0" >
<stop  offset="0" style="stop-color:#000000;stop-opacity:1" />
<stop  offset="1" style="stop-color:#FFFFFF;stop-opacity:1" />
</linearGradient>
<path style="fill:url(#LinearGradID_512) " d="M6.8,-6.15L6.75 -5.5L6.75 -5.35L6.7 -5.15L6.1 -5.25L6.15 -5.45L6.15 -5.65L6.2 -6.25L6.3 -6.2L6.3 -6.15L6.35 -6.15L6.5 -6.1L6.7 -6.1L6.75 -6.15L6.8 -6.15" />
<path style="fill:#CCCCCC;fill-opacity:1" d="M6.75,-6.15L6.7 -6.1L6.5 -6.1L6.35 -6.15L6.3 -6.15L6.3 -6.2L6.25 -6.25L6.25 -6.3L6.35 -6.4L6.6 -6.45L6.75 -6.35L6.8 -6.25L6.8 -6.15L6.75 -6.15M-4.1,-1.35L-4.2 -1.35L-4.25 -1.35L-4.2 -1.35L-4.1 -1.45M-4.1,-1.45L-4.05 -1.5L-4.05 -1.45L-4.1 -1.35M4,-6.4L4.2 -6.4L4.45 -6.6L4.5 -6.95L4.4 -7.15L4.2 -7.15L4.1 -7.15L3.9 -6.95L3.85 -6.65L3.85 -6.55L3.8 -6.65L3.9 -7.05L4.1 -7.25L4.15 -7.3L4.2 -7.3L4.45 -7.3L4.6 -7.05L4.55 -6.65L4.25 -6.4L4 -6.35L3.9 -6.45L4 -6.4M-4.05,-0.05L-0.45 1.25L-1.2 1.95L-1.7 2.35L-1.7 2.4L-1.65 4.1L-6.65 1.6L-4.25 -0.2L-4.25 2.6L-4.2 2.6L-4.1 2.6L-4.1 -0.25L-4.05 -0.35L-4.05 -0.05" />
<linearGradient
id="LinearGradID_513" gradientUnits="userSpaceOnUse" gradientTransform="matrix(-0.000152588, 4.57764e-005, 0.00117493, 0.00224304, 2, -6.35)" spreadMethod ="pad" x1="-819.2" y1="0" x2="819.2" y2="0" >
<stop  offset="0" style="stop-color:#000000;stop-opacity:1" />
<stop  offset="1" style="stop-color:#FFFFFF;stop-opacity:1" />
</linearGradient>
<path style="fill:url(#LinearGradID_513) " d="M1.05,-8.1L1 -8.2L1.05 -8.2L1.05 -8.1M2.85,-4.85L1.15 -7.95L1.15 -8.25L1.2 -8.25L2.85 -5.2L2.85 -4.85" />
<path style="fill:#999999;fill-opacity:1" d="M-6.65,2.65L-6.65 1.6L-1.65 4.1L-1.65 4.15L-1.65 6.1L-6.25 3.55L-6.6 3.35L-6.65 2.65M1.1,-2.55L1.05 -8.1L1.05 -8.2L1.05 -8.35L1.1 -8.35L1.05 -8.4L2.95 -9.05L2.95 -9.1L4.1 -8.9L4.3 -8.9L4.25 -8.85L4.2 -7.3L4.15 -7.3L4.1 -7.25L4.15 -8.6L4.15 -8.8L4.1 -8.8L3.15 -8.9L2.9 -8.9L2.85 -8.9L1.15 -8.35L1.15 -8.25L1.15 -7.95L1.2 -3.6L1.2 -3.4L1.2 -2.05L1.25 -0.7L1.15 -0.7L1.1 -2.55M-0.45,1.25L-4.05 -0.05L-4.05 -0.35L-4.05 -1.45L-4.05 -1.5L-4.05 -1.45L-3.95 -1.15L-3.9 -1.25L-3.9 -1.2L-0.25 0.1L-0.2 0.1L-0.1 0.15L-0.15 0.15L0.15 0.25L0.2 0.25L0.25 0.25L0.3 0.25L0.35 0.6L-0.45 1.25M-3.2,3.85L-3.85 3.55L-3.8 4.25L-3.15 4.55L-3.2 3.85M-4.55,3.2L-5.15 2.9L-5.15 3.55L-4.5 3.9L-4.55 3.2" />
<linearGradient
id="LinearGradID_514" gradientUnits="userSpaceOnUse" gradientTransform="matrix(9.15527e-005, 6.10352e-005, -0.000747681, 0.00271606, 3.45, -6.65)" spreadMethod ="pad" x1="-819.2" y1="0" x2="819.2" y2="0" >
<stop  offset="0" style="stop-color:#000000;stop-opacity:1" />
<stop  offset="1" style="stop-color:#FFFFFF;stop-opacity:1" />
</linearGradient>
<path style="fill:url(#LinearGradID_514) " d="M3.05,-5.25L3.1 -5.35L4.1 -8.8L4.15 -8.8L4.15 -8.6L3.05 -4.85L3.05 -5.25" />
<linearGradient
id="LinearGradID_515" gradientUnits="userSpaceOnUse" gradientTransform="matrix(0.000244141, 0, 0, 0.00483704, 2.9, -5)" spreadMethod ="pad" x1="-819.2" y1="0" x2="819.2" y2="0" >
<stop  offset="0" style="stop-color:#000000;stop-opacity:1" />
<stop  offset="1" style="stop-color:#FFFFFF;stop-opacity:1" />
</linearGradient>
<path style="fill:url(#LinearGradID_515) " d="M3.1,-5.35L3.05 -5.25L3.05 -4.85L3.05 -4.75L3.05 -4.5L3.05 -1.75L2.75 -1.75L2.8 -4.35L2.8 -4.55L2.8 -4.9L2.85 -4.85L2.85 -5.2L2.85 -5.25L2.8 -5.35L2.85 -8.9L2.9 -8.9L3.15 -8.9L3.1 -5.35" />
<path style="fill:#EAEAEA;fill-opacity:1" d="M3.9,-6.45L3.85 -6.55L3.85 -6.65L3.9 -6.95L4.1 -7.15L4.2 -7.15L4.4 -7.15L4.5 -6.95L4.45 -6.6L4.2 -6.4L4 -6.4L3.9 -6.45" />
<path style="fill:#315951;fill-opacity:1" d="M6.9,-5.25L6.75 -5.35L6.75 -5.5L6.9 -5.4L7.2 -4.75L6.9 -5.25M-7.6,7.8Q-8.2 6.7 -7.4 4.1L-6.65 2.65L-6.6 3.35L-7 4.25Q-7.75 6.75 -7.15 7.9L-7.6 7.8M-1.55,-1.45L-1.85 -1.55L1.1 -3.55L1.1 -3.3L-1.55 -1.45M3.9,-4.95L3.05 -4.5L3.05 -4.75L3.8 -5.1L6.15 -5.65L6.15 -5.45L3.9 -4.95M2.8,-4.55L2.8 -4.35L1.2 -3.4L1.2 -3.6L2.8 -4.55" />
<path style="fill:#AAB3CD;fill-opacity:1" d="M1.1,-3.3L1.1 -2.55L1.15 -0.7L1.25 -0.7L1.2 -2.05L1.2 -3.4L2.8 -4.35L2.75 -1.75L3.05 -1.75L3.05 -4.5L3.9 -4.95L6.15 -5.45L6.1 -5.25L6.7 -5.15L6.75 -5.35L6.9 -5.25L7.2 -4.75L7.2 -4.65L7.2 -4.25L6.55 -3.05L1.95 3.05L1.05 2.7L1.05 1.25L1.35 0.85L1.35 -0.3L1.35 -0.55L1 -0.75L-1.55 -1.45L1.1 -3.3" />
<path style="fill:#5E4937;fill-opacity:1" d="M-4.2,-0.2L-4.25 -0.2L-6.65 1.6L-6.65 0.35L-4.2 -1.25L-4.2 -0.2M0.35,0.6L0.3 0.25L1.35 -0.55L1.35 -0.3L0.35 0.6M1.05,1.25L1.05 2.7L-1.65 6.1L-1.65 4.15L1.05 1.25M-0.45,3.4L-0.85 3.9L-0.85 5.05L-0.45 4.5L-0.45 3.4" />
<path style="fill:#DBE6BE;fill-opacity:1" d="M0.25,0.25L0.2 0.25L0.15 0.25L-0.15 0.15L-0.1 0.15L-0.2 0.1L-0.25 0.1L-3.9 -1.2L-3.9 -1.25L-3.95 -1.15L-4.05 -1.45L-4.05 -1.5L-3.9 -1.55L-3.2 -1.95L-1.85 -1.55L-1.55 -1.45L1 -0.75L1.35 -0.55L0.3 0.25L0.25 0.25" />
<path style="fill:#563529;fill-opacity:1" d="M-7.15,7.9L-4.75 8.1Q-3.2 7.95 -1.75 6.9Q0.4 5.2 1.95 3.05L6.55 -3.05L7.2 -4.25L7.2 -3.75Q6.7 -2.5 5.4 -0.9L3.45 1.75L0.05 6.1Q-3.1 9.25 -6.65 8.7L-7.6 7.8L-7.15 7.9" />
<path style="fill:#E7E7E7;fill-opacity:1" d="M-4.2,-0.2L-4.2 -1.25L-4.2 -1.35L-4.2 -4.25L-4.1 -4.25L-4.1 -1.45L-4.2 -1.35L-4.1 -1.35L-4.1 -0.25L-4.1 2.6L-4.2 2.6L-4.2 -0.2" />
<path style="fill:#666666;fill-opacity:1" d="M-4.1,-1.35L-4.05 -1.45L-4.05 -0.35L-4.1 -0.25L-4.1 -1.35" />
<path style="fill:#977859;fill-opacity:1" d="M0.35,0.6L1.35 -0.3L1.35 0.85L1.05 1.25L-1.65 4.15L-1.65 4.1L-1.7 2.4L-1.2 1.95L-0.45 1.25L0.35 0.6" />
<path style="fill:#C0C8E2;fill-opacity:1" d="M-1.75,6.9Q-3.2 7.95 -4.75 8.1L-7.15 7.9Q-7.75 6.75 -7 4.25L-6.6 3.35L-6.25 3.55L-6.25 3.6L-1.6 6.1L-1.65 6.1L1.05 2.7L1.95 3.05Q0.4 5.2 -1.75 6.9M-3.15,4.55L-3.8 4.25L-3.85 3.55L-3.2 3.85L-3.15 4.55M-4.5,3.9L-5.15 3.55L-5.15 2.9L-4.55 3.2L-4.5 3.9M-5,6.1L-4.9 6.15L-4.75 6.1L-4.55 5.9L-4.5 5.55L-4.6 5.35L-4.65 5.35L-4.8 5.35L-4.85 5.35L-4.8 5.3L-4.75 5.3L-6.05 4.7Q-6.6 4.95 -6.4 5.45L-5.1 6.05L-5.1 6L-5 6.1M-6.75,5.7Q-7.3 5.95 -7.05 6.45L-5.75 7.05L-5.75 7L-5.65 7.15L-5.35 7.1L-5.1 6.9L-5.05 6.55Q-5.05 6.4 -5.2 6.35L-5.2 6.3L-5.25 6.3L-5.4 6.3L-6.75 5.7" />
<linearGradient
id="LinearGradID_516" gradientUnits="userSpaceOnUse" gradientTransform="matrix(0.000274658, 0.000167847, -0.000213623, 0.000457764, 230.05, 173.45)" spreadMethod ="pad" x1="-819.2" y1="0" x2="819.2" y2="0" >
<stop  offset="0" style="stop-color:#000000;stop-opacity:1" />
<stop  offset="1" style="stop-color:#FFFFFF;stop-opacity:1" />
</linearGradient>
<path style="fill:url(#LinearGradID_516) " d="M-4.85,5.35L-4.8 5.35L-4.65 5.35L-4.6 5.35L-4.5 5.55L-4.55 5.9L-4.75 6.1L-4.9 6.15L-5 6.1L-5.1 6L-5.1 5.95L-5.1 5.9L-5.05 5.6L-5.05 5.55L-4.85 5.35" />
<linearGradient
id="LinearGradID_517" gradientUnits="userSpaceOnUse" gradientTransform="matrix(0.000198364, -0.000427246, 0.000457764, 0.000213623, -5.5, 5.4)" spreadMethod ="pad" x1="-819.2" y1="0" x2="819.2" y2="0" >
<stop  offset="0" style="stop-color:#000000;stop-opacity:1" />
<stop  offset="1" style="stop-color:#FFFFFF;stop-opacity:1" />
</linearGradient>
<path style="fill:url(#LinearGradID_517) " d="M-5.05,5.55L-5.05 5.6L-5.1 5.9L-5.1 5.95L-5.1 6L-5.1 6.05L-6.4 5.45Q-6.6 4.95 -6.05 4.7L-4.75 5.3L-4.8 5.3L-4.85 5.35L-5.05 5.55" />
<path style="fill:#4F65A6;fill-opacity:1" d="M-0.45,4.5L-0.85 5.05L-0.85 3.9L-0.45 3.4L-0.45 4.5" />
<path style="fill:#B5B5B5;fill-opacity:1" d="M-1.65,6.1L-1.6 6.1L-6.25 3.6L-6.25 3.55L-1.65 6.1" />
<linearGradient
id="LinearGradID_518" gradientUnits="userSpaceOnUse" gradientTransform="matrix(0.000335693, 0.000167847, -0.000259399, 0.00050354, 278.9, 188.45)" spreadMethod ="pad" x1="-819.2" y1="0" x2="819.2" y2="0" >
<stop  offset="0" style="stop-color:#000000;stop-opacity:1" />
<stop  offset="1" style="stop-color:#FFFFFF;stop-opacity:1" />
</linearGradient>
<path style="fill:url(#LinearGradID_518) " d="M-5.8,7L-5.8 6.9L-5.7 6.6L-5.45 6.35L-5.4 6.3L-5.25 6.3L-5.2 6.3L-5.2 6.35Q-5.05 6.4 -5.05 6.55L-5.1 6.9L-5.35 7.1L-5.65 7.15L-5.75 7L-5.8 7" />
<linearGradient
id="LinearGradID_519" gradientUnits="userSpaceOnUse" gradientTransform="matrix(0.000198364, -0.000427246, 0.000457764, 0.000213623, -6.2, 6.45)" spreadMethod ="pad" x1="-819.2" y1="0" x2="819.2" y2="0" >
<stop  offset="0" style="stop-color:#000000;stop-opacity:1" />
<stop  offset="1" style="stop-color:#FFFFFF;stop-opacity:1" />
</linearGradient>
<path style="fill:url(#LinearGradID_519) " d="M-5.4,6.3L-5.45 6.35L-5.7 6.6L-5.8 6.9L-5.8 7L-5.75 7L-5.75 7.05L-7.05 6.45Q-7.3 5.95 -6.75 5.7L-5.4 6.3" />
</g>
</svg>
