<?xml version="1.0" encoding="utf-8"?>
<svg version="1.1" id="Layer_1"
xmlns="http://www.w3.org/2000/svg"
xmlns:xlink="http://www.w3.org/1999/xlink"
xmlns:author="http://www.sothink.com"
width="35px" height="25px"
xml:space="preserve">
<g id="159" transform="matrix(1, 0, 0, 1, 17.25, 12.5)">
<path style="fill:#563529;fill-opacity:1" d="M14.75,-12.5L16.75 -12.5L16.75 -12.45L16.75 12.5L-17.25 12.5L-17.25 -12.45L-16.9 -12.45L14.75 -12.45L14.75 -12.5M14.75,-10.6L-15.4 -10.6L-15.4 10.5L14.75 10.5L14.75 -10.6" />
<path style="fill:#DBE6BE;fill-opacity:1" d="M14.75,10.5L-15.4 10.5L-15.4 -10.6L14.75 -10.6L14.75 10.5" />
<path style="fill:#4E6C33;fill-opacity:1" d="M16.75,-12.5L17.2 -12.5L17.2 -12.45L16.75 -12.45L16.75 -12.5M14.75,-12.45L-16.9 -12.45L-16.9 -12.5L14.75 -12.5L14.75 -12.45" />
<path style="fill:#BA8D74;fill-opacity:1" d="M-7.4,-0.75L-7.5 -0.7L-7.85 -1.05L-9.1 -0.45L-9.15 -0.5L-7.85 -1.2L-7.8 -1.2L-7.75 -1.15L-7.4 -0.75" />
<path style="fill:#DCC5B8;fill-opacity:1" d="M0.35,-6.1L0.35 -6.15L0.4 -6.15L0.35 -6.1" />
<path style="fill:#98CF5F;fill-opacity:1" d="M3.65,-1.6L3.6 -1.6L0.4 -5.35L0.15 -5.65L0.45 -5.75L5.3 -6.5L8.85 -3.5L3.65 -1.6" />
<path style="fill:#FFFF00;fill-opacity:1" d="M0.8,-4.25L1.25 -3.75L1.1 -2.75L0.7 -3.3L0.8 -4.25M1.55,-2.4L1.6 -3.35L2.05 -2.85L1.95 -1.85L1.55 -2.4M4,-0.4L4.1 -1.45L4.8 -1.7L4.75 -0.7L4 -0.4M7.1,-1.65L6.35 -1.3L6.45 -2.35L7.15 -2.6L7.1 -1.65M6,-2.2L5.95 -1.25L5.25 -0.9L5.3 -1.95L6 -2.2" />
<path style="fill:#B38366;fill-opacity:1" d="M3.5,0.9L0.35 -3.3L0.4 -5.35L3.6 -1.6L3.65 -1.6L3.5 0.9M0.7,-3.3L1.1 -2.75L1.25 -3.75L0.8 -4.25L0.7 -3.3M1.95,-1.85L2.05 -2.85L1.6 -3.35L1.55 -2.4L1.95 -1.85M2.6,-1.85L2.45 -0.55L3.05 0.25L3.2 -1.15L2.6 -1.85" />
<path style="fill:#916648;fill-opacity:1" d="M-5.7,5.5L3.7 1.15L3.7 1.25L3.65 1.3L3.25 1.45L3.25 1.5L2.8 1.7L-5.05 5.3L-5.55 5.55L-5.75 5.65L-8.35 1.5L-8.7 0.9L-8.7 0.85L-9.45 -0.35L-9.45 -0.6L-5.7 5.5M2.55,1L2.4 1.05L0.1 -2.05L-0.35 -2.7L-0.45 -2.8L-7.45 -0.55L-7.4 -0.6L-7.4 -0.65L-0.4 -2.95L-0.35 -2.85L2.55 1" />
<path style="fill:#D2B8A6;fill-opacity:1" d="M-0.35,-2.85L-0.4 -2.95L-7.4 -0.65L-7.4 -0.75L-7.75 -1.15L0.05 -3.65L0.35 -3.3L3.5 0.9L3.65 1.05L3.65 1.1L3.7 1.15L-5.7 5.5L-9.45 -0.6L-8.75 -0.75L-9.15 -0.5L-9.2 -0.3L-8.75 0.25L-8 -0.2L-5.05 4.45L2.55 1L-0.35 -2.85" />
<path style="fill:#003300;fill-opacity:1" d="M3.2,-1.15L3.05 0.25L2.45 -0.55L2.6 -1.85L3.2 -1.15" />
<path style="fill:#805740;fill-opacity:1" d="M3.65,-1.6L8.85 -3.5L8.9 -3.5L8.75 -1.25L7.8 -0.85L7.3 -0.6L4.15 0.8L3.65 1.05L3.5 0.9L3.65 -1.6M4.75,-0.7L4.8 -1.7L4.1 -1.45L4 -0.4L4.75 -0.7M7.15,-2.6L6.45 -2.35L6.35 -1.3L7.1 -1.65L7.15 -2.6M5.3,-1.95L5.25 -0.9L5.95 -1.25L6 -2.2L5.3 -1.95" />
<path style="fill:#6D4A36;fill-opacity:1" d="M-7.4,-0.65L-7.4 -0.6L-7.45 -0.55L-7.45 -0.5L-8 -0.2L-8.75 0.25L-9.2 -0.3L-9.15 -0.5L-9.1 -0.45L-8.75 0.05L-7.5 -0.7L-7.4 -0.75L-7.4 -0.65" />
<path style="fill:#E0CDC2;fill-opacity:1" d="M-8.75,0.05L-9.1 -0.45L-7.85 -1.05L-7.5 -0.7L-8.75 0.05" />
<linearGradient
id="LinearGradID_520" gradientUnits="userSpaceOnUse" gradientTransform="matrix(0.000289917, 0, 0, 0.000915527, -0.15, -2.4)" spreadMethod ="pad" x1="-819.2" y1="0" x2="819.2" y2="0" >
<stop  offset="0.243137" style="stop-color:#916648;stop-opacity:1" />
<stop  offset="1" style="stop-color:#DCC7B8;stop-opacity:1" />
</linearGradient>
<path style="fill:url(#LinearGradID_520) " d="M0.1,-2.05L0.1 -1.6L0 -1.5L-0.35 -1.6L-0.35 -2.7L0.1 -2.05" />
<linearGradient
id="LinearGradID_521" gradientUnits="userSpaceOnUse" gradientTransform="matrix(0.000289917, 1.52588e-005, -4.57764e-005, 0.000915527, 7.55, -0.8)" spreadMethod ="pad" x1="-819.2" y1="0" x2="819.2" y2="0" >
<stop  offset="0.243137" style="stop-color:#916648;stop-opacity:1" />
<stop  offset="1" style="stop-color:#DCC7B8;stop-opacity:1" />
</linearGradient>
<path style="fill:url(#LinearGradID_521) " d="M7.8,-0.85L7.75 0L7.5 0.1L7.25 -0.05L7.3 -0.6L7.8 -0.85" />
<linearGradient
id="LinearGradID_522" gradientUnits="userSpaceOnUse" gradientTransform="matrix(0.000289917, 1.52588e-005, -4.57764e-005, 0.000915527, 3.9, 0.65)" spreadMethod ="pad" x1="-819.2" y1="0" x2="819.2" y2="0" >
<stop  offset="0.243137" style="stop-color:#916648;stop-opacity:1" />
<stop  offset="1" style="stop-color:#DCC7B8;stop-opacity:1" />
</linearGradient>
<path style="fill:url(#LinearGradID_522) " d="M4.15,0.8L4.1 1.45L3.85 1.55L3.65 1.4L3.65 1.3L3.7 1.25L3.7 1.15L3.65 1.1L3.65 1.05L4.15 0.8" />
<linearGradient
id="LinearGradID_523" gradientUnits="userSpaceOnUse" gradientTransform="matrix(0.000289917, 0, 0, 0.000915527, 3, 1.7)" spreadMethod ="pad" x1="-819.2" y1="0" x2="819.2" y2="0" >
<stop  offset="0.243137" style="stop-color:#916648;stop-opacity:1" />
<stop  offset="1" style="stop-color:#DCC7B8;stop-opacity:1" />
</linearGradient>
<path style="fill:url(#LinearGradID_523) " d="M3.25,1.5L3.25 2.45L3.1 2.6L3 2.6L2.8 2.45L2.8 1.7L3.25 1.5" />
<linearGradient
id="LinearGradID_524" gradientUnits="userSpaceOnUse" gradientTransform="matrix(0.000289917, 0, 0, 0.000915527, -5.35, 5.5)" spreadMethod ="pad" x1="-819.2" y1="0" x2="819.2" y2="0" >
<stop  offset="0.243137" style="stop-color:#916648;stop-opacity:1" />
<stop  offset="1" style="stop-color:#DCC7B8;stop-opacity:1" />
</linearGradient>
<path style="fill:url(#LinearGradID_524) " d="M-5.05,5.3L-5.05 6.3L-5.3 6.4L-5.55 6.3L-5.55 5.55L-5.05 5.3" />
<linearGradient
id="LinearGradID_525" gradientUnits="userSpaceOnUse" gradientTransform="matrix(0.000289917, 0, 0, 0.000915527, -8.5, 0.6)" spreadMethod ="pad" x1="-819.2" y1="0" x2="819.2" y2="0" >
<stop  offset="0.243137" style="stop-color:#916648;stop-opacity:1" />
<stop  offset="1" style="stop-color:#DCC7B8;stop-opacity:1" />
</linearGradient>
<path style="fill:url(#LinearGradID_525) " d="M-8.35,1.5L-8.7 1.4L-8.7 0.9L-8.35 1.5" />
</g>
</svg>
