<?xml version="1.0" encoding="utf-8"?>
<svg version="1.1" id="Layer_1"
xmlns="http://www.w3.org/2000/svg"
xmlns:xlink="http://www.w3.org/1999/xlink"
xmlns:author="http://www.sothink.com"
width="87px" height="32px"
xml:space="preserve">
<g id="212" transform="matrix(1, 0, 0, 1, 43.05, 15.55)">
<path style="fill:#9DD6DD;fill-opacity:1" d="M-12.3,-2.1L-14.75 -2.1L-14.75 0.4L-17.3 0.4L-19.7 0.4L-19.7 -0.35L-19.7 -0.4L-19.7 -2.1L-19.7 -4.6L-17.3 -4.6L-17.3 -7.15L-14.75 -7.15L-14.75 -9.6L-17.3 -9.6L-19.7 -9.6L-19.75 -9.6L-19.75 -7.15L-19.75 -7.1L-19.75 -4.6L-22.25 -4.6L-24.7 -4.6L-24.7 -7.1L-22.25 -7.1L-22.25 -9.6L-24.7 -9.6L-27.25 -9.6L-27.25 -7.1L-27.25 -4.6L-27.25 10.5L-19.75 10.5L-19.75 9.7L-19.7 9.7L-19.7 10.5L-17.3 10.5L-14.75 10.5L-14.75 7.95L-17.3 7.95L-17.3 5.45L-19.7 5.45L-19.7 2.95L-17.3 2.95L-14.75 2.95L-14.75 5.45L-12.3 5.45L-12.3 2.95L-12.3 0.45L-9.8 0.45L-9.8 2.95L-9.8 5.45L-12.3 5.45L-12.3 7.95L-9.8 7.95L-7.3 7.95L-7.3 10.5L-4.8 10.5L-2.3 10.5L0.2 10.5L0.2 7.95L2.65 7.95L5.15 7.95L7.65 7.95L10.15 7.95L12.65 7.95L12.65 5.45L10.15 5.45L10.15 2.95L7.65 2.95L5.15 2.95L5.15 0.45L7.65 0.45L10.15 0.45L12.65 0.45L12.65 2.95L12.65 5.45L15.1 5.45L15.1 2.95L17.65 2.95L17.65 0.45L20.1 0.45L20.1 2.95L20.1 5.45L20.1 7.95L17.65 7.95L15.1 7.95L15.1 10.5L17.65 10.5L20.1 10.5L27.75 10.5L27.8 0.4L27.75 0.4L27.75 0.35L27.75 -2.15L27.75 -4.65L25.25 -4.65L22.8 -4.65L22.8 -7.15L25.25 -7.15L25.25 -9.6L22.8 -9.6L20.1 -9.6L17.65 -9.6L15.1 -9.6L12.65 -9.6L10.15 -9.6L7.65 -9.6L7.65 -7.15L10.15 -7.15L10.15 -4.6L10.15 -2.1L12.65 -2.1L12.65 -4.6L15.1 -4.6L17.65 -4.6L17.65 -7.15L20.1 -7.15L20.1 -4.6L20.1 -2.1L20.1 0.4L17.65 0.4L17.65 -2.1L15.1 -2.1L15.1 0.4L12.65 0.4L10.15 0.4L7.65 0.4L5.15 0.4L5.15 -2.1L5.15 -4.6L2.65 -4.6L2.65 -7.15L0.2 -7.15L0.2 -9.6L-2.3 -9.6L-4.8 -9.6L-4.8 -7.15L-4.8 -4.6L-7.3 -4.6L-7.3 -2.1L-9.8 -2.1L-9.8 0.4L-12.3 0.4L-12.3 -2.1M-39.55,11.5L-39.55 -12.45L39.15 -12.45L39.15 -12.15L39.15 11.5L-39.55 11.5" />
<path style="fill:#046B81;fill-opacity:1" d="M15.1,10.5L15.1 7.95L17.65 7.95L20.1 7.95L20.1 5.45L20.1 2.95L20.1 0.45L20.1 0.4L20.1 -2.1L20.1 -4.6L20.1 -7.15L17.65 -7.15L17.65 -4.6L15.1 -4.6L12.65 -4.6L12.65 -2.1L10.15 -2.1L10.15 -4.6L10.15 -7.15L7.65 -7.15L7.65 -9.6L10.15 -9.6L12.65 -9.6L15.1 -9.6L17.65 -9.6L20.1 -9.6L22.8 -9.6L25.25 -9.6L25.25 -7.15L22.8 -7.15L22.8 -4.65L25.25 -4.65L27.75 -4.65L27.75 -2.15L27.75 0.35L27.75 0.4L27.8 0.4L27.75 10.5L20.1 10.5L17.65 10.5L15.1 10.5M-9.8,-2.1L-7.3 -2.1L-7.3 -4.6L-4.8 -4.6L-4.8 -7.15L-4.8 -9.6L-2.3 -9.6L0.2 -9.6L0.2 -7.15L2.65 -7.15L2.65 -4.6L5.15 -4.6L5.15 -2.1L5.15 0.4L2.65 0.4L0.2 0.4L-2.3 0.4L-4.8 0.4L-7.3 0.4L-9.8 0.4L-9.8 -2.1M15.1,0.4L15.1 -2.1L17.65 -2.1L17.65 0.4L15.1 0.4M5.15,2.95L7.65 2.95L10.15 2.95L10.15 5.45L12.65 5.45L12.65 2.95L12.65 0.45L15.1 0.45L17.65 0.45L17.65 2.95L15.1 2.95L15.1 5.45L12.65 5.45L12.65 7.95M12.65,7.95L10.15 7.95L7.65 7.95L5.15 7.95L2.65 7.95L0.2 7.95L0.2 10.5L-2.3 10.5L-4.8 10.5L-7.3 10.5L-7.3 7.95L-9.8 7.95L-12.3 7.95L-12.3 5.45L-9.8 5.45L-9.8 2.95L-9.8 0.45L-7.3 0.45L-4.8 0.45L-2.3 0.45L0.2 0.45L2.65 0.45L5.15 0.45L5.15 2.95M-19.7,5.5L-19.7 5.45L-17.3 5.45L-17.3 7.95L-14.75 7.95L-14.75 10.5L-17.3 10.5L-19.7 10.5L-19.7 9.7L-19.7 7.95L-19.7 5.5M-19.75,9.7L-19.75 10.5L-27.25 10.5L-27.25 -4.6L-27.25 -7.1L-27.25 -9.6L-24.7 -9.6L-22.25 -9.6L-22.25 -7.1L-24.7 -7.1L-24.7 -4.6L-22.25 -4.6L-19.75 -4.6L-19.75 -0.4L-19.75 -0.35L-19.75 9.7M-17.3,-4.6L-19.7 -4.6L-19.7 -7.1L-19.7 -7.15L-19.7 -9.6L-17.3 -9.6L-14.75 -9.6L-14.75 -7.15L-17.3 -7.15L-17.3 -4.6M-12.3,0.4L-14.75 0.4L-14.75 -2.1L-12.3 -2.1L-12.3 0.4M-14.75,0.45L-12.3 0.45L-12.3 2.95L-12.3 5.45L-14.75 5.45L-14.75 2.95L-17.3 2.95L-19.7 2.95L-19.7 0.45L-17.3 0.45L-14.75 0.45" />
<path style="fill:#42AEBD;fill-opacity:1" d="M39.15,-12.45L-39.55 -12.45L-39.55 11.5L-39.55 11.55L-39.45 11.55L-42.45 11.55L-42.45 -14.9L39.2 -14.9L39.2 11.55L39.2 -12.15L39.15 -12.15L39.15 -12.45" />
<path style="fill:#D1EAED;fill-opacity:1" d="M39.15,11.55L39.15 11.5L39.15 -12.15L39.2 -12.15L39.2 11.55L39.2 -14.9L-42.45 -14.9L-42.45 11.55L-39.45 11.55L39.15 11.55M42.45,14.95L42.45 15.05L-42.55 15.05L-42.55 -14.95L-42.45 -14.95L42.45 -14.95L42.45 14.95" />
<path style="fill:#0000CC;fill-opacity:1" d="M42.45,-14.95L-42.45 -14.95L-42.45 -15.05L42.55 -15.05L42.55 14.95L42.45 14.95L42.45 -14.95" />
<linearGradient
id="LinearGradID_702" gradientUnits="userSpaceOnUse" gradientTransform="matrix(0.0480347, 0, 0, 0.0146179, -0.2, -0.5)" spreadMethod ="pad" x1="-819.2" y1="0" x2="819.2" y2="0" >
<stop  offset="0" style="stop-color:#D5DAF1;stop-opacity:0.6" />
<stop  offset="1" style="stop-color:#8E9DCA;stop-opacity:0.6" />
</linearGradient>
<path style="fill:url(#LinearGradID_702) " d="M-19.75,-0.35L-19.75 -0.4L-19.7 -0.4L-19.7 -0.35L-19.75 -0.35" />
<path style="fill:none;stroke-width:0.5;stroke-linecap:round;stroke-linejoin:round;stroke-miterlimit:3;stroke:#FF9900;stroke-opacity:1" d="M5.15,0.45L7.65 0.45L7.65 0.4L7.65 -2.1L7.65 -4.6L7.65 -7.15L7.65 -9.6L5.15 -9.6L5.15 -7.15L7.65 -7.15L10.15 -7.15M25.25,-9.6L22.8 -9.6L20.1 -9.6L17.65 -9.6L15.1 -9.6L12.65 -9.6L10.15 -9.6L7.65 -9.6M0.2,-9.6L0.2 -7.15L2.65 -7.15L2.65 -9.6L0.2 -9.6L-2.3 -9.6M2.65,-4.6L2.65 -7.15L5.15 -7.15L5.15 -4.6L7.65 -4.6L10.15 -4.6L10.15 -7.15M2.65,-4.6L5.15 -4.6L5.15 -2.1L7.65 -2.1L10.15 -2.1L10.15 -4.6M5.15,-9.6L2.65 -9.6M5.15,-2.1L5.15 0.4L7.65 0.4L10.15 0.4L12.65 0.4L12.65 -2.1L15.1 -2.1L15.1 -4.6M20.1,-4.6L20.1 -7.15L17.65 -7.15L17.65 -4.6L20.1 -4.6L20.1 -2.1L20.1 0.4L20.1 0.45L20.1 2.95L20.1 5.45L20.1 7.95M-2.3,10.5L0.2 10.5L0.2 7.95L2.65 7.95L5.15 7.95L7.65 7.95L10.15 7.95L10.15 10.5L12.65 10.5L12.65 7.95L15.1 7.95L15.1 10.5L17.65 10.5L20.1 10.5L27.75 10.5L27.8 0.4L27.75 0.4L27.75 0.35L27.75 -2.15L27.75 -4.65L25.25 -4.65L22.8 -4.65L22.8 -7.15L25.25 -7.15L25.25 -9.6L27.8 -9.6L27.8 -7.2M10.15,0.4L10.15 -2.1L12.65 -2.1L12.65 -4.6L15.1 -4.6L17.65 -4.6L17.65 -2.1L20.1 -2.1M20.1,0.45L17.65 0.45L17.65 0.4L17.65 -2.1L15.1 -2.1L15.1 0.4L12.65 0.4L12.65 0.45L15.1 0.45L15.1 0.4M17.65,0.4L20.1 0.4M27.8,-7.15L27.8 -7.2L27.75 -7.2L27.75 -7.15L27.8 -7.15L27.8 -4.65L27.8 -2.15L27.8 0.35L27.8 0.4M27.75,-7.15L27.75 -4.65L27.8 -4.65M27.75,-2.15L27.8 -2.15M27.75,-7.15L25.25 -7.15L25.25 -4.65M27.8,0.35L27.75 0.35M17.65,0.45L17.65 2.95L20.1 2.95M15.1,2.95L17.65 2.95L17.65 5.45L20.1 5.45M10.15,0.4L10.15 0.45L12.65 0.45L12.65 2.95L12.65 5.45L15.1 5.45L15.1 7.95L17.65 7.95M15.1,2.95L15.1 5.45L17.65 5.45L17.65 7.95L20.1 7.95M7.65,0.45L10.15 0.45L10.15 2.95L12.65 2.95M10.15,7.95L12.65 7.95L12.65 5.45L10.15 5.45M7.65,0.45L7.65 2.95L10.15 2.95L10.15 5.45M15.1,10.5L12.65 10.5M5.15,0.4L5.15 0.45L5.15 2.95L7.65 2.95M7.65,7.95L7.65 10.5L10.15 10.5M5.15,7.95L5.15 10.5L7.65 10.5M2.65,7.95L2.65 10.5L5.15 10.5M-12.3,0.45L-12.3 0.4L-9.8 0.4L-9.8 0.45L-9.8 2.95L-9.8 5.45L-12.3 5.45L-12.3 7.95L-9.8 7.95M-2.3,10.5L-4.8 10.5L-7.3 10.5L-9.8 10.5L-12.3 10.5L-14.75 10.5L-17.3 10.5L-19.7 10.5L-19.75 10.5L-27.25 10.5L-27.25 -4.6L-27.25 -7.1L-27.25 -9.6L-24.7 -9.6L-22.25 -9.6L-19.75 -9.6L-19.7 -9.6L-17.3 -9.6L-14.75 -9.6L-12.3 -9.6L-9.8 -9.6L-7.3 -9.6L-4.8 -9.6L-2.3 -9.6M2.65,10.5L0.2 10.5M-24.7,-7.1L-22.25 -7.1L-22.25 -9.6M-24.7,-7.1L-24.7 -4.6L-22.25 -4.6L-22.25 -7.1L-19.75 -7.1L-19.75 -7.15L-19.75 -9.6M-19.7,-2.1L-19.7 -4.6L-17.3 -4.6L-17.3 -7.15L-14.75 -7.15L-14.75 -9.6M-12.3,-9.6L-12.3 -7.15L-9.8 -7.15L-9.8 -9.6M-14.75,-7.15L-14.75 -4.6L-12.3 -4.6L-12.3 -7.15L-14.75 -7.15M-19.75,-7.15L-19.7 -7.15L-19.7 -9.6M-19.7,-7.1L-19.75 -7.1L-19.75 -4.6L-19.7 -4.6L-19.7 -7.1L-19.7 -7.15M-19.7,-0.35L-19.7 -0.4M-19.7,-0.35L-19.7 0.4L-17.3 0.4L-17.3 -2.1L-19.7 -2.1L-19.7 -0.4M-17.3,-2.1L-14.75 -2.1L-14.75 -4.6L-17.3 -4.6L-17.3 -2.1M-14.75,0.4L-14.75 -2.1L-12.3 -2.1L-12.3 -4.6L-9.8 -4.6L-9.8 -7.15L-7.3 -7.15L-7.3 -9.6M-12.3,-2.1L-9.8 -2.1L-9.8 -4.6L-7.3 -4.6L-7.3 -7.15L-4.8 -7.15L-4.8 -9.6M-4.8,-7.15L-4.8 -4.6M-9.8,0.4L-9.8 -2.1L-7.3 -2.1L-7.3 -4.6L-4.8 -4.6M-19.75,-4.6L-22.25 -4.6M-7.3,10.5L-7.3 7.95L-9.8 7.95L-9.8 10.5M-12.3,0.45L-12.3 2.95L-9.8 2.95M-17.3,0.45L-17.3 0.4L-14.75 0.4L-14.75 0.45L-17.3 0.45M-12.3,0.45L-9.8 0.45M-12.3,2.95L-12.3 5.45L-14.75 5.45L-14.75 7.95L-12.3 7.95L-12.3 10.5M-14.75,5.45L-14.75 2.95L-17.3 2.95L-17.3 5.45L-14.75 5.45M-17.3,0.45L-19.7 0.45M-19.7,5.45L-19.7 2.95L-17.3 2.95M-19.7,0.4L-19.7 0.45M-19.7,5.45L-17.3 5.45L-17.3 7.95L-14.75 7.95L-14.75 10.5M-12.3,-2.1L-12.3 0.4" />
<path style="fill:none;stroke-width:0.5;stroke-linecap:round;stroke-linejoin:round;stroke-miterlimit:3;stroke:#046B81;stroke-opacity:1" d="M10.15,-7.15L10.15 -9.6M-2.3,-9.6L-2.3 -7.15L0.2 -7.15L0.2 -4.6L2.65 -4.6M-4.8,-4.6L-4.8 -2.1L-2.3 -2.1L-2.3 -4.6L0.2 -4.6L0.2 -2.1L2.65 -2.1L2.65 -4.6M10.15,-7.15L12.65 -7.15L12.65 -9.6M2.65,0.4L2.65 -2.1L5.15 -2.1M10.15,-4.6L12.65 -4.6L12.65 -7.15L15.1 -7.15L15.1 -9.6M15.1,-4.6L15.1 -7.15L17.65 -7.15L17.65 -9.6M20.1,7.95L20.1 10.5M22.8,-9.6L22.8 -7.15L20.1 -7.15L20.1 -9.6M15.1,0.4L17.65 0.4M17.65,0.45L15.1 0.45L15.1 2.95M12.65,2.95L15.1 2.95M17.65,7.95L17.65 10.5M10.15,5.45L10.15 7.95M10.15,5.45L7.65 5.45L7.65 7.95M7.65,2.95L7.65 5.45L5.15 5.45L5.15 7.95M5.15,2.95L5.15 5.45L2.65 5.45L2.65 7.95M-4.8,7.95L-4.8 5.45L-2.3 5.45L0.2 5.45L2.65 5.45L2.65 2.95L0.2 2.95L0.2 5.45L0.2 7.95L-2.3 7.95L-2.3 10.5M5.15,2.95L2.65 2.95L2.65 0.45L0.2 0.45L0.2 2.95L-2.3 2.95L-2.3 5.45L-2.3 7.95L-4.8 7.95L-4.8 10.5M5.15,0.4L2.65 0.4L0.2 0.4L-2.3 0.4L-4.8 0.4L-7.3 0.4L-9.8 0.4M-9.8,0.45L-7.3 0.45L-4.8 0.45L-2.3 0.45L0.2 0.45M2.65,0.45L5.15 0.45M0.2,0.4L0.2 -2.1L-2.3 -2.1L-2.3 0.4M-24.7,-9.6L-24.7 -7.1L-27.25 -7.1M-24.7,-4.6L-27.25 -4.6M-19.7,-7.15L-17.3 -7.15L-17.3 -9.6M-19.75,-4.6L-19.75 -0.4L-19.75 -0.35M-4.8,-4.6L-2.3 -4.6L-2.3 -7.15L-4.8 -7.15M-7.3,-2.1L-4.8 -2.1L-4.8 0.4M-7.3,0.45L-7.3 2.95L-4.8 2.95L-4.8 0.45M-9.8,2.95L-7.3 2.95L-7.3 5.45L-4.8 5.45L-4.8 2.95L-2.3 2.95L-2.3 0.45M-9.8,7.95L-9.8 5.45L-7.3 5.45L-7.3 7.95L-4.8 7.95M-12.3,0.4L-14.75 0.4M-14.75,0.45L-12.3 0.45M-14.75,0.45L-14.75 2.95L-12.3 2.95M-17.3,2.95L-17.3 0.45M-19.7,0.45L-19.7 2.95M-17.3,10.5L-17.3 7.95L-19.7 7.95L-19.7 9.7L-19.7 10.5M-19.75,9.7L-19.75 10.5M-19.75,9.7L-19.75 -0.35M-19.7,5.5L-19.7 7.95M-7.3,-2.1L-7.3 0.4" />
<path style="fill:none;stroke-width:1;stroke-linecap:round;stroke-linejoin:round;stroke-miterlimit:3;stroke:#FFFFFF;stroke-opacity:1" d="M-42.45,-14.95L-42.45 -15.05L42.55 -15.05L42.55 14.95L42.45 14.95L42.45 15.05L-42.55 15.05L-42.55 -14.95L-42.45 -14.95L42.45 -14.95L42.45 14.95" />
</g>
</svg>
