<?xml version="1.0" encoding="utf-8"?>
<svg version="1.1" id="Layer_1"
xmlns="http://www.w3.org/2000/svg"
xmlns:xlink="http://www.w3.org/1999/xlink"
xmlns:author="http://www.sothink.com"
width="87px" height="32px"
xml:space="preserve">
<g id="211" transform="matrix(1, 0, 0, 1, 43.05, 15.55)">
<path style="fill:#374777;fill-opacity:1" d="M26.95,-8L27 -8L27 -7.95L27 -5.45L26.95 -5.45L26.95 -7.95L26.95 -8M-20.5,-5.4L-20.55 -5.4L-20.55 -7.9L-20.55 -7.95L-20.55 -10.4L-20.5 -10.4L-20.5 -7.95L-20.5 -7.9L-20.5 -5.4M-20.55,-0.35L-20.5 -0.35L-20.5 2.15L-20.55 2.15L-20.55 -0.35" />
<path style="fill:#0000CC;fill-opacity:1" d="M42.45,-14.95L-42.45 -14.95L-42.45 -15.05L42.55 -15.05L42.55 14.95L42.45 14.95L42.45 -14.95" />
<linearGradient
id="LinearGradID_701" gradientUnits="userSpaceOnUse" gradientTransform="matrix(0.0480347, 0, 0, 0.0146179, -0.2, -0.5)" spreadMethod ="pad" x1="-819.2" y1="0" x2="819.2" y2="0" >
<stop  offset="0" style="stop-color:#D5DAF1;stop-opacity:0.6" />
<stop  offset="1" style="stop-color:#8E9DCA;stop-opacity:0.6" />
</linearGradient>
<path style="fill:url(#LinearGradID_701) " d="M27,-0.45L27 -0.4L26.95 -0.4L26.95 -0.45L27 -0.45M-10.6,-0.35L-13.1 -0.35L-15.55 -0.35L-18.1 -0.35L-20.5 -0.35L-20.55 -0.35L-20.55 -0.4L-20.5 -0.4L-18.1 -0.4L-15.55 -0.4L-13.1 -0.4L-10.6 -0.4L-8.1 -0.4L-5.6 -0.4L-3.1 -0.4L-0.6 -0.4L1.85 -0.4L4.35 -0.4L6.85 -0.4L9.35 -0.4L11.85 -0.4L14.3 -0.4L16.85 -0.4L19.3 -0.4L19.3 -0.35L16.85 -0.35L14.3 -0.35L11.85 -0.35L9.35 -0.35L6.85 -0.35L4.35 -0.35L1.85 -0.35L-0.6 -0.35L-3.1 -0.35L-5.6 -0.35L-8.1 -0.35L-10.6 -0.35" />
<path style="fill:#DBDFF0;fill-opacity:1" d="M26.95,-0.45L26.95 -2.95L26.95 -5.45L27 -5.45L27 -2.95L27 -0.45L26.95 -0.45M-20.55,7.2L-20.55 7.15L-20.55 2.15L-20.5 2.15L-20.5 4.65L-20.5 4.7L-20.5 7.15L-20.5 7.2L-20.5 9.7L-20.55 9.7L-20.55 7.2M-20.55,-5.4L-20.5 -5.4L-20.5 -2.9L-20.5 -0.4L-20.55 -0.4L-20.55 -5.4" />
<path style="fill:#42AEBD;fill-opacity:1" d="M39.15,11.55L39.15 11.5L39.15 -12.15L39.2 -12.15L39.2 11.55L39.2 -14.9L-42.45 -14.9L-42.45 11.55L-39.45 11.55L39.15 11.55M42.45,14.95L42.45 15.05L-42.55 15.05L-42.55 -14.95L-42.45 -14.95L42.45 -14.95L42.45 14.95" />
<path style="fill:#9DD6DD;fill-opacity:1" d="M-20.5,4.65L-20.5 2.15L-18.1 2.15L-15.55 2.15L-15.55 4.65L-13.1 4.65L-13.1 7.15L-10.6 7.15L-8.1 7.15L-8.1 9.7L-5.6 9.7L-3.1 9.7L-0.6 9.7L-0.6 7.15L1.85 7.15L4.35 7.15L6.85 7.15L9.35 7.15L11.85 7.15L11.85 4.65L9.35 4.65L9.35 2.15L6.85 2.15L4.35 2.15L4.35 -0.35L6.85 -0.35L9.35 -0.35L11.85 -0.35L11.85 2.15L11.85 4.65L14.3 4.65L14.3 2.15L16.85 2.15L16.85 -0.35L19.3 -0.35L19.3 2.15L19.3 4.65L19.3 7.15L16.85 7.15L14.3 7.15L14.3 9.7L16.85 9.7L19.3 9.7L26.95 9.7L27 -0.4L27 -0.45L27 -2.95L27 -5.45L27 -7.95L27 -8L26.95 -8L26.95 -7.95L26.95 -5.45L24.45 -5.45L22 -5.45L22 -7.95L24.45 -7.95L24.45 -10.4L22 -10.4L19.3 -10.4L16.85 -10.4L14.3 -10.4L11.85 -10.4L9.35 -10.4L6.85 -10.4L6.85 -7.95L9.35 -7.95L9.35 -5.4L9.35 -2.9L11.85 -2.9L11.85 -5.4L14.3 -5.4L16.85 -5.4L16.85 -7.95L19.3 -7.95L19.3 -5.4L19.3 -2.9L19.3 -0.4L16.85 -0.4L16.85 -2.9L14.3 -2.9L14.3 -0.4L11.85 -0.4L9.35 -0.4L6.85 -0.4L4.35 -0.4L4.35 -2.9L4.35 -5.4L1.85 -5.4L1.85 -7.95L-0.6 -7.95L-0.6 -10.4L-3.1 -10.4L-5.6 -10.4L-5.6 -7.95L-5.6 -5.4L-8.1 -5.4L-8.1 -2.9L-10.6 -2.9L-10.6 -0.4L-13.1 -0.4L-13.1 -2.9L-15.55 -2.9L-15.55 -0.4L-18.1 -0.4L-20.5 -0.4L-20.5 -2.9L-20.5 -5.4L-18.1 -5.4L-18.1 -7.95L-15.55 -7.95L-15.55 -10.4L-18.1 -10.4L-20.5 -10.4L-20.55 -10.4L-20.55 -7.95L-20.55 -7.9L-20.55 -5.4L-23.05 -5.4L-25.5 -5.4L-25.5 -7.9L-23.05 -7.9L-23.05 -10.4L-25.5 -10.4L-28.05 -10.4L-28.05 -7.9L-28.05 -5.4L-28.05 9.7L-20.55 9.7L-20.5 9.7L-18.1 9.7L-15.55 9.7L-15.55 7.15L-18.1 7.15L-18.1 4.65L-20.5 4.65M-39.55,11.5L-39.55 -12.45L39.15 -12.45L39.15 -12.15L39.15 11.5L-39.55 11.5M-10.6,2.15L-10.6 4.65L-13.1 4.65L-13.1 2.15L-13.1 -0.35L-10.6 -0.35L-10.6 2.15" />
<path style="fill:#046B81;fill-opacity:1" d="M19.3,7.15L19.3 4.65L19.3 2.15L19.3 -0.35L19.3 -0.4L19.3 -2.9L19.3 -5.4L19.3 -7.95L16.85 -7.95L16.85 -5.4L14.3 -5.4L11.85 -5.4L11.85 -2.9L9.35 -2.9L9.35 -5.4L9.35 -7.95L6.85 -7.95L6.85 -10.4L9.35 -10.4L11.85 -10.4L14.3 -10.4L16.85 -10.4L19.3 -10.4L22 -10.4L24.45 -10.4L24.45 -7.95L22 -7.95L22 -5.45L24.45 -5.45L26.95 -5.45L26.95 -2.95L26.95 -0.45L26.95 -0.4L27 -0.4L26.95 9.7L19.3 9.7L16.85 9.7L14.3 9.7L14.3 7.15L16.85 7.15L19.3 7.15M-10.6,-0.35L-8.1 -0.35L-5.6 -0.35L-3.1 -0.35L-0.6 -0.35L1.85 -0.35L4.35 -0.35L4.35 2.15L6.85 2.15L9.35 2.15L9.35 4.65L11.85 4.65L11.85 7.15L9.35 7.15L6.85 7.15L4.35 7.15L1.85 7.15L-0.6 7.15L-0.6 9.7L-3.1 9.7L-5.6 9.7L-8.1 9.7L-8.1 7.15L-10.6 7.15L-13.1 7.15L-13.1 4.65L-15.55 4.65L-15.55 2.15L-18.1 2.15L-20.5 2.15L-20.5 -0.35L-18.1 -0.35L-15.55 -0.35L-13.1 -0.35L-13.1 2.15L-13.1 4.65L-10.6 4.65L-10.6 2.15L-10.6 -0.35M-18.1,4.65L-18.1 7.15L-15.55 7.15L-15.55 9.7L-18.1 9.7L-20.5 9.7L-20.5 7.2L-20.5 7.15L-20.5 4.7L-20.5 4.65L-18.1 4.65M-20.55,2.15L-20.55 7.15L-20.55 7.2L-20.55 9.7L-28.05 9.7L-28.05 -5.4L-28.05 -7.9L-28.05 -10.4L-25.5 -10.4L-23.05 -10.4L-23.05 -7.9L-25.5 -7.9L-25.5 -5.4L-23.05 -5.4L-20.55 -5.4L-20.55 -0.4L-20.55 -0.35L-20.55 2.15M-15.55,-7.95L-18.1 -7.95L-18.1 -5.4L-20.5 -5.4L-20.5 -7.9L-20.5 -7.95L-20.5 -10.4L-18.1 -10.4L-15.55 -10.4L-15.55 -7.95M-10.6,-0.4L-10.6 -2.9L-8.1 -2.9L-8.1 -5.4L-5.6 -5.4L-5.6 -7.95L-5.6 -10.4L-3.1 -10.4L-0.6 -10.4L-0.6 -7.95L1.85 -7.95L1.85 -5.4L4.35 -5.4L4.35 -2.9L4.35 -0.4L1.85 -0.4L-0.6 -0.4L-3.1 -0.4L-5.6 -0.4L-8.1 -0.4L-10.6 -0.4M16.85,-2.9L16.85 -0.4L14.3 -0.4L14.3 -2.9L16.85 -2.9M16.85,2.15L14.3 2.15L14.3 4.65L11.85 4.65L11.85 2.15L11.85 -0.35L14.3 -0.35L16.85 -0.35L16.85 2.15M-15.55,-0.4L-15.55 -2.9L-13.1 -2.9L-13.1 -0.4L-15.55 -0.4" />
<path style="fill:#D1EAED;fill-opacity:1" d="M39.15,-12.45L-39.55 -12.45L-39.55 11.5L-39.55 11.55L-39.45 11.55L-42.45 11.55L-42.45 -14.9L39.2 -14.9L39.2 11.55L39.2 -12.15L39.15 -12.15L39.15 -12.45" />
<path style="fill:none;stroke-width:1;stroke-linecap:round;stroke-linejoin:round;stroke-miterlimit:3;stroke:#FFFFFF;stroke-opacity:1" d="M-42.45,-14.95L-42.45 -15.05L42.55 -15.05L42.55 14.95L42.45 14.95L42.45 15.05L-42.55 15.05L-42.55 -14.95L-42.45 -14.95L42.45 -14.95L42.45 14.95" />
<path style="fill:none;stroke-width:0.5;stroke-linecap:round;stroke-linejoin:round;stroke-miterlimit:3;stroke:#046B81;stroke-opacity:1" d="M9.35,-7.95L9.35 -10.4M-20.5,-7.95L-18.1 -7.95L-18.1 -10.4M-20.5,-0.35L-20.5 2.15M-18.1,2.15L-18.1 -0.35M-13.1,-0.4L-15.55 -0.4M-13.1,-0.35L-15.55 -0.35L-15.55 2.15L-13.1 2.15M-18.1,7.15L-18.1 9.7M-18.1,7.15L-20.5 7.15L-20.5 7.2L-20.5 9.7M-20.5,4.7L-20.5 7.15L-20.55 7.15M-20.55,7.2L-20.5 7.2" />
<path style="fill:none;stroke-width:0.5;stroke-linecap:round;stroke-linejoin:round;stroke-miterlimit:3;stroke:#046B81;stroke-opacity:1" d="M-25.5,-10.4L-25.5 -7.9M-28.05,-7.9L-25.5 -7.9M-25.5,-5.4L-28.05 -5.4M-20.55,2.15L-20.55 -0.35L-20.55 -0.4L-20.55 -5.4M-20.55,2.15L-20.55 7.15L-20.55 7.2L-20.55 9.7" />
<path style="fill:none;stroke-width:0.5;stroke-linecap:round;stroke-linejoin:round;stroke-miterlimit:3;stroke:#046B81;stroke-opacity:1" d="M-0.6,4.65L-3.1 4.65L-3.1 2.15L-0.6 2.15L1.85 2.15L1.85 -0.35L1.85 -0.4L1.85 -2.9L-0.6 -2.9L-0.6 -0.4L1.85 -0.4L4.35 -0.4M4.35,-2.9L1.85 -2.9L1.85 -5.4L-0.6 -5.4L-0.6 -2.9L-3.1 -2.9L-3.1 -0.4L-0.6 -0.4L-0.6 -0.35L1.85 -0.35L4.35 -0.35M9.35,-7.95L11.85 -7.95L11.85 -10.4M9.35,-5.4L11.85 -5.4L11.85 -7.95L14.3 -7.95L14.3 -10.4M14.3,-5.4L14.3 -7.95L16.85 -7.95L16.85 -10.4M19.3,-7.95L19.3 -10.4M19.3,-7.95L22 -7.95L22 -10.4M11.85,2.15L14.3 2.15L14.3 -0.35L16.85 -0.35M16.85,-0.4L14.3 -0.4M19.3,7.15L19.3 9.7M16.85,7.15L16.85 9.7M6.85,2.15L6.85 4.65L9.35 4.65L9.35 7.15M1.85,2.15L1.85 4.65L4.35 4.65L4.35 2.15L1.85 2.15M4.35,7.15L4.35 4.65L6.85 4.65L6.85 7.15M-10.6,-0.35L-8.1 -0.35L-8.1 2.15L-5.6 2.15L-5.6 4.65L-3.1 4.65L-3.1 7.15L-0.6 7.15L-0.6 4.65L1.85 4.65L1.85 7.15M-5.6,-7.95L-3.1 -7.95L-3.1 -10.4M-3.1,-7.95L-3.1 -5.4L-0.6 -5.4L-0.6 -7.95L-3.1 -7.95M-3.1,2.15L-5.6 2.15L-5.6 -0.35L-5.6 -0.4L-5.6 -2.9L-8.1 -2.9L-8.1 -0.4L-5.6 -0.4L-3.1 -0.4L-3.1 -0.35L-0.6 -0.35L-0.6 2.15L-0.6 4.65M-5.6,-0.35L-8.1 -0.35L-8.1 -0.4L-10.6 -0.4M-5.6,-2.9L-5.6 -5.4L-3.1 -5.4L-3.1 -2.9L-5.6 -2.9M-5.6,-0.35L-3.1 -0.35L-3.1 2.15M-10.6,4.65L-8.1 4.65L-8.1 7.15L-5.6 7.15L-5.6 4.65L-8.1 4.65L-8.1 2.15L-10.6 2.15M-3.1,9.7L-3.1 7.15L-5.6 7.15L-5.6 9.7M-10.6,4.65L-10.6 7.15" />
<path style="fill:none;stroke-width:0.5;stroke-linecap:round;stroke-linejoin:round;stroke-miterlimit:3;stroke:#FF9900;stroke-opacity:1" d="M9.35,-10.4L6.85 -10.4L6.85 -7.95L9.35 -7.95M9.35,-10.4L11.85 -10.4L14.3 -10.4L16.85 -10.4L19.3 -10.4L22 -10.4L24.45 -10.4L27 -10.4L27 -8L27 -7.95L27 -5.45L27 -2.95L27 -0.45L27 -0.4L26.95 9.7L19.3 9.7L16.85 9.7L14.3 9.7L11.85 9.7L9.35 9.7L6.85 9.7L4.35 9.7L1.85 9.7L-0.6 9.7L-3.1 9.7L-5.6 9.7L-8.1 9.7L-10.6 9.7L-13.1 9.7L-15.55 9.7L-18.1 9.7L-20.5 9.7L-20.55 9.7L-28.05 9.7L-28.05 -5.4L-28.05 -7.9L-28.05 -10.4L-25.5 -10.4L-23.05 -10.4L-20.55 -10.4L-20.5 -10.4L-18.1 -10.4L-15.55 -10.4L-13.1 -10.4L-10.6 -10.4L-8.1 -10.4L-5.6 -10.4L-3.1 -10.4L-0.6 -10.4L1.85 -10.4L4.35 -10.4L6.85 -10.4M-0.6,-10.4L-0.6 -7.95L1.85 -7.95L1.85 -5.4L4.35 -5.4L4.35 -7.95L1.85 -7.95L1.85 -10.4M4.35,-0.35L4.35 -0.4L4.35 -2.9L4.35 -5.4L6.85 -5.4L6.85 -7.95L4.35 -7.95L4.35 -10.4M4.35,-0.4L6.85 -0.4L6.85 -2.9L4.35 -2.9M4.35,-0.35L6.85 -0.35L6.85 -0.4L9.35 -0.4L9.35 -2.9L6.85 -2.9L6.85 -5.4L9.35 -5.4L9.35 -7.95M6.85,7.15L9.35 7.15L11.85 7.15L11.85 4.65L9.35 4.65L9.35 2.15L6.85 2.15L6.85 -0.35L9.35 -0.35L9.35 -0.4L11.85 -0.4L11.85 -2.9L9.35 -2.9L9.35 -5.4M9.35,-0.35L11.85 -0.35L11.85 -0.4L14.3 -0.4L14.3 -2.9L11.85 -2.9L11.85 -5.4L14.3 -5.4L16.85 -5.4L16.85 -7.95L19.3 -7.95M14.3,-0.4L14.3 -0.35L11.85 -0.35L11.85 2.15L11.85 4.65L14.3 4.65L14.3 2.15L16.85 2.15L16.85 -0.35L16.85 -0.4L16.85 -2.9L14.3 -2.9L14.3 -5.4M16.85,-0.35L19.3 -0.35L19.3 -0.4L19.3 -2.9L16.85 -2.9L16.85 -5.4L19.3 -5.4L19.3 -7.95M19.3,-0.4L16.85 -0.4M19.3,-2.9L19.3 -5.4M19.3,-0.35L19.3 2.15L19.3 4.65L19.3 7.15L16.85 7.15L14.3 7.15L11.85 7.15L11.85 9.7M27,-7.95L26.95 -7.95L26.95 -5.45L27 -5.45M27,-8L26.95 -8L26.95 -7.95L24.45 -7.95L24.45 -5.45L26.95 -5.45L26.95 -2.95L27 -2.95M22,-7.95L24.45 -7.95L24.45 -10.4M22,-7.95L22 -5.45L24.45 -5.45M26.95,-2.95L26.95 -0.45L26.95 -0.4L27 -0.4M26.95,-0.45L27 -0.45M19.3,2.15L16.85 2.15L16.85 4.65L19.3 4.65M16.85,7.15L16.85 4.65L14.3 4.65L14.3 7.15L14.3 9.7M9.35,7.15L9.35 9.7M4.35,9.7L4.35 7.15L1.85 7.15L1.85 9.7M6.85,9.7L6.85 7.15L4.35 7.15M4.35,-0.35L4.35 2.15L6.85 2.15M1.85,7.15L-0.6 7.15L-0.6 9.7M9.35,-0.35L9.35 2.15L11.85 2.15M-20.55,-7.95L-20.55 -7.9L-20.5 -7.9L-20.5 -7.95L-20.55 -7.95L-20.55 -10.4M-20.5,-10.4L-20.5 -7.95M-23.05,-5.4L-23.05 -7.9L-20.55 -7.9L-20.55 -5.4L-20.5 -5.4L-20.5 -7.9M-20.5,-0.4L-20.5 -0.35L-18.1 -0.35L-18.1 -0.4L-20.5 -0.4L-20.5 -2.9L-20.5 -5.4L-18.1 -5.4L-18.1 -7.95L-15.55 -7.95L-15.55 -10.4M-20.5,2.15L-18.1 2.15L-18.1 4.65L-15.55 4.65L-15.55 2.15L-18.1 2.15M-18.1,-0.35L-15.55 -0.35L-15.55 -0.4L-18.1 -0.4L-18.1 -2.9L-20.5 -2.9M-15.55,-7.95L-13.1 -7.95L-13.1 -5.4L-10.6 -5.4L-10.6 -7.95L-13.1 -7.95L-13.1 -10.4M-10.6,-10.4L-10.6 -7.95L-8.1 -7.95L-8.1 -10.4M-15.55,-0.4L-15.55 -2.9L-18.1 -2.9L-18.1 -5.4L-15.55 -5.4L-15.55 -7.95M-13.1,-0.4L-13.1 -0.35L-10.6 -0.35L-10.6 -0.4L-13.1 -0.4L-13.1 -2.9L-15.55 -2.9L-15.55 -5.4L-13.1 -5.4L-13.1 -2.9L-10.6 -2.9L-10.6 -5.4L-8.1 -5.4L-8.1 -7.95L-5.6 -7.95L-5.6 -10.4M-10.6,-0.4L-10.6 -2.9L-8.1 -2.9L-8.1 -5.4L-5.6 -5.4L-5.6 -7.95M-10.6,-0.35L-10.6 2.15L-13.1 2.15L-13.1 -0.35M-10.6,2.15L-10.6 4.65M-15.55,4.65L-13.1 4.65L-13.1 7.15L-10.6 7.15L-8.1 7.15L-8.1 9.7M-13.1,2.15L-13.1 4.65L-10.6 4.65M-10.6,7.15L-10.6 9.7M-15.55,9.7L-15.55 7.15L-18.1 7.15M-15.55,4.65L-15.55 7.15L-13.1 7.15L-13.1 9.7M-20.5,2.15L-20.5 4.65L-18.1 4.65L-18.1 7.15" />
<path style="fill:none;stroke-width:0.5;stroke-linecap:round;stroke-linejoin:round;stroke-miterlimit:3;stroke:#FF9900;stroke-opacity:1" d="M-25.5,-7.9L-23.05 -7.9L-23.05 -10.4M-25.5,-7.9L-25.5 -5.4L-23.05 -5.4M-20.55,-5.4L-23.05 -5.4" />
</g>
</svg>
