<?xml version="1.0" encoding="utf-8"?>
<svg version="1.1" id="Layer_1"
xmlns="http://www.w3.org/2000/svg"
xmlns:xlink="http://www.w3.org/1999/xlink"
xmlns:author="http://www.sothink.com"
width="37px" height="11px"
xml:space="preserve">
<g id="89" transform="matrix(1, 0, 0, 1, 21.7, 7.7)">
<path style="fill:none;stroke-width:0.25;stroke-linecap:round;stroke-linejoin:round;stroke-miterlimit:3;stroke:#FFFFFF;stroke-opacity:1" d="M-14.65,-7.1L-13.2 -7.2L-9.25 -6.6Q-8.05 -6.25 -7.25 -5.75Q-4.8 -4.3 -4.8 -2.2Q-4.8 -0.1 -7.25 1.3Q-9.75 2.75 -13.2 2.75Q-16.6 2.75 -19.1 1.3Q-21.6 -0.1 -21.6 -2.2Q-21.6 -4.3 -19.1 -5.75Q-18.2 -6.3 -17.1 -6.6" />
<path style="fill:none;stroke-width:0.25;stroke-linecap:round;stroke-linejoin:round;stroke-miterlimit:3;stroke:#FFFFFF;stroke-opacity:1" d="M11.9,-7.1L13 -6.6Q14.7 -5.55 14.7 -4.1Q14.7 -2.65 13 -1.65Q11.2 -0.6 8.8 -0.6Q6.4 -0.6 4.65 -1.65Q2.9 -2.65 2.9 -4.1Q2.9 -5.55 4.65 -6.6Q6.4 -7.65 8.8 -7.6L9.6 -7.55" />
</g>
</svg>
