<?xml version="1.0" encoding="utf-8"?>
<svg version="1.1" id="Layer_1"
xmlns="http://www.w3.org/2000/svg"
xmlns:xlink="http://www.w3.org/1999/xlink"
xmlns:author="http://www.sothink.com"
width="502px" height="17px"
xml:space="preserve">
<g id="129" transform="matrix(1, 0, 0, 1, 251.1, -166.55)">
<path style="fill:#000066;fill-opacity:1" d="M184.2,166.75L185.8 166.75L185.8 168.6L184.2 168.6L184.2 166.75M190.6,170.3L190.6 171.65Q191.65 170.1 193.6 170.1L195.15 170.4L196.2 171.2L196.7 172.35L196.75 173.9L196.75 179.65L195.2 179.65L195.2 173.95L195 172.55L194.35 171.75L193.25 171.5Q192.25 171.5 191.5 172.1Q190.75 172.75 190.75 174.55L190.75 179.65L189.2 179.65L189.2 170.3L190.6 170.3M185.8,170.3L185.8 179.65L184.2 179.65L184.2 170.3L185.8 170.3M199.9,173Q200.15 172 200.6 171.4Q201.1 170.75 202 170.45L204.15 170.1L206.1 170.4Q206.8 170.65 207.15 171.1L207.65 172.15L207.75 173.65L207.75 175.75L207.85 178.55L208.25 179.65L206.6 179.65L206.3 178.5Q205.4 179.25 204.6 179.55L202.85 179.85Q201.3 179.85 200.5 179.1Q199.65 178.35 199.65 177.2Q199.65 176.5 199.95 175.95L200.8 175.05Q201.3 174.7 201.9 174.5L203.3 174.25L206.15 173.75L206.15 173.3Q206.15 172.35 205.7 171.95Q205.1 171.4 203.9 171.4Q202.8 171.4 202.25 171.8Q201.7 172.2 201.45 173.2L199.9 173M163.4,171.3L163.95 172.7L162.4 172.95Q162.3 172.2 161.8 171.8Q161.3 171.4 160.35 171.4Q159.3 171.4 158.8 171.75Q158.35 172.15 158.35 172.6L158.55 173.15L159.15 173.6L160.55 174L162.9 174.75Q163.55 175 163.95 175.55Q164.3 176.1 164.3 176.9L163.85 178.4L162.5 179.5L160.55 179.85Q158.7 179.85 157.8 179.1Q156.8 178.35 156.55 176.85L158.1 176.6Q158.25 177.55 158.85 178.05Q159.45 178.55 160.55 178.55Q161.65 178.55 162.15 178.1Q162.7 177.65 162.7 177.05Q162.7 176.55 162.2 176.25Q161.9 176 160.6 175.7L158.2 174.95L157.15 174.05Q156.8 173.5 156.8 172.8Q156.8 172.15 157.1 171.65L157.9 170.75Q158.25 170.5 158.9 170.3L160.25 170.1L162.2 170.4L163.4 171.3M166.3,170.3L167.5 170.3L167.5 168L169.05 167.05L169.05 170.3L170.65 170.3L170.65 171.55L169.05 171.55L169.05 177L169.15 177.85L169.4 178.2L169.95 178.3L170.65 178.25L170.85 179.65L169.65 179.75L168.35 179.5Q167.85 179.25 167.65 178.8Q167.5 178.35 167.5 176.9L167.5 171.55L166.3 171.55L166.3 170.3M175,170.45L177.15 170.1L179.1 170.4Q179.8 170.65 180.15 171.1L180.65 172.15L180.75 173.65L180.75 175.75L180.85 178.55L181.25 179.65L179.6 179.65L179.3 178.5L177.6 179.55L175.85 179.85Q174.3 179.85 173.5 179.1Q172.65 178.35 172.65 177.2Q172.65 176.5 172.95 175.95L173.8 175.05Q174.3 174.7 174.9 174.5L176.3 174.25L179.15 173.75L179.15 173.3Q179.15 172.35 178.7 171.95Q178.1 171.4 176.9 171.4Q175.8 171.4 175.25 171.8Q174.7 172.2 174.45 173.2L172.9 173L173.6 171.4Q174.1 170.75 175 170.45M179.15,174.95L176.55 175.55L175.2 175.9L174.55 176.4L174.35 177.15Q174.35 177.8 174.8 178.2Q175.3 178.6 176.2 178.6L177.85 178.25L178.9 177.15L179.15 175.55L179.15 174.95M201.55,176.4L201.35 177.15Q201.35 177.8 201.8 178.2Q202.3 178.6 203.2 178.6L204.85 178.25L205.9 177.15L206.15 175.55L206.15 174.95L203.55 175.55L202.2 175.9L201.55 176.4M232.2,166.75L233.8 166.75L233.8 168.6L232.2 168.6L232.2 166.75M223.8,168.6L222.2 168.6L222.2 166.75L223.8 166.75L223.8 168.6M228.75,166.75L228.75 179.65L227.15 179.65L227.15 166.75L228.75 166.75M237.5,168L239.05 167.05L239.05 170.3L240.65 170.3L240.65 171.55L239.05 171.55L239.05 177L239.15 177.85L239.4 178.2L239.95 178.3L240.65 178.25L240.85 179.65L239.65 179.75L238.35 179.5Q237.85 179.25 237.65 178.8Q237.5 178.35 237.5 176.9L237.5 171.55L236.3 171.55L236.3 170.3L237.5 170.3L237.5 168M233.8,170.3L233.8 179.65L232.2 179.65L232.2 170.3L233.8 170.3M219,172.95L219.25 174.85Q219.25 177.25 218.1 178.55Q216.9 179.85 215.25 179.85Q213.6 179.85 212.65 178.5L212.65 179.65L211.2 179.65L211.2 166.75L212.75 166.75L212.75 171.35Q213.75 170.1 215.3 170.1Q216.2 170.1 216.95 170.45L218.2 171.45Q218.7 172.05 219 172.95M215.2,171.4Q214.15 171.4 213.4 172.3Q212.65 173.2 212.65 174.9Q212.65 176.6 213.1 177.35Q213.85 178.55 215.1 178.55Q216.15 178.55 216.9 177.65Q217.65 176.75 217.65 174.95Q217.65 173.15 216.95 172.3Q216.2 171.4 215.2 171.4M223.8,170.3L223.8 179.65L222.2 179.65L222.2 170.3L223.8 170.3M250.85,170.3L247.3 179.8L246.4 181.95Q246 182.7 245.45 183.1L244.15 183.45L243.1 183.25L242.95 181.75L243.85 181.9L244.7 181.7L245.2 181.25L245.7 180.05L245.85 179.65L242.3 170.3L244 170.3L245.95 175.7L246.6 177.9L247.25 175.75L249.25 170.3L250.85 170.3M22.2,170.4Q23 170.75 23.4 171.3L23.95 172.7L22.4 172.95Q22.3 172.2 21.8 171.8Q21.3 171.4 20.35 171.4Q19.3 171.4 18.8 171.75Q18.35 172.15 18.35 172.6L18.55 173.15L19.15 173.6L20.55 174L22.9 174.75Q23.55 175 23.95 175.55Q24.3 176.1 24.3 176.9L23.85 178.4Q23.4 179.1 22.5 179.5L20.55 179.85Q18.7 179.85 17.8 179.1Q16.8 178.35 16.55 176.85L18.1 176.6Q18.25 177.55 18.85 178.05Q19.45 178.55 20.55 178.55L22.15 178.1Q22.7 177.65 22.7 177.05Q22.7 176.55 22.2 176.25L20.6 175.7L18.2 174.95Q17.5 174.6 17.15 174.05Q16.8 173.5 16.8 172.8Q16.8 172.15 17.1 171.65L17.9 170.75L18.9 170.3L20.25 170.1L22.2 170.4M33.5,168L35.05 167.05L35.05 170.3L36.65 170.3L36.65 171.55L35.05 171.55L35.05 177L35.15 177.85L35.4 178.2L35.95 178.3L36.65 178.25L36.85 179.65L35.65 179.75L34.35 179.5Q33.85 179.25 33.65 178.8Q33.5 178.35 33.5 176.9L33.5 171.55L32.3 171.55L32.3 170.3L33.5 170.3L33.5 168M10,170.1Q11.9 170.1 13.1 171.4Q14.25 172.65 14.25 174.95L14.25 175.4L7.3 175.4Q7.4 176.95 8.15 177.75Q8.95 178.55 10.1 178.55L11.6 178.1Q12.2 177.65 12.6 176.65L14.2 176.85Q13.8 178.3 12.8 179.05Q11.75 179.85 10.1 179.85Q8.05 179.85 6.85 178.6Q5.65 177.35 5.65 175.05Q5.65 172.7 6.85 171.4Q8.1 170.1 10 170.1M8.2,172.15Q7.45 172.85 7.4 174.1L12.6 174.1Q12.5 172.9 12 172.3Q11.25 171.4 10.05 171.4Q8.95 171.4 8.2 172.15M3.7,173.05L2.15 173.3Q1.95 172.35 1.35 171.9Q0.8 171.4 0 171.4Q-1.2 171.4 -1.9 172.25Q-2.65 173.1 -2.65 174.95Q-2.65 176.85 -1.95 177.7Q-1.25 178.55 -0.05 178.55Q0.85 178.55 1.5 178Q2.1 177.4 2.3 176.25L3.85 176.45Q3.6 178.05 2.55 178.95Q1.5 179.85 -0.05 179.85Q-1.95 179.85 -3.15 178.6Q-4.3 177.35 -4.3 175Q-4.3 173.5 -3.8 172.35Q-3.3 171.25 -2.25 170.7Q-1.25 170.1 -0.05 170.1Q1.5 170.1 2.45 170.9Q3.4 171.65 3.7 173.05M38.6,175Q38.6 172.4 40.05 171.15Q41.25 170.1 42.95 170.1Q44.9 170.1 46.1 171.35Q47.35 172.65 47.35 174.85Q47.35 176.65 46.8 177.7Q46.25 178.7 45.25 179.3Q44.2 179.85 42.95 179.85Q41 179.85 39.8 178.6Q38.6 177.35 38.6 175M70.75,170.7Q71.75 170.1 72.95 170.1Q74.5 170.1 75.45 170.9Q76.4 171.65 76.7 173.05L75.15 173.3Q74.95 172.35 74.35 171.9Q73.8 171.4 73 171.4Q71.8 171.4 71.1 172.25Q70.35 173.1 70.35 174.95Q70.35 176.85 71.05 177.7Q71.75 178.55 72.95 178.55Q73.85 178.55 74.5 178Q75.1 177.4 75.3 176.25L76.85 176.45Q76.6 178.05 75.55 178.95Q74.5 179.85 72.95 179.85Q71.05 179.85 69.85 178.6Q68.7 177.35 68.7 175Q68.7 173.5 69.2 172.35Q69.7 171.25 70.75 170.7M80.75,166.75L80.75 171.4Q81.9 170.1 83.55 170.1Q84.6 170.1 85.35 170.5Q86.15 170.9 86.45 171.65Q86.8 172.35 86.8 173.75L86.8 179.65L85.2 179.65L85.2 173.75Q85.2 172.55 84.7 172Q84.2 171.45 83.25 171.45L81.9 171.85Q81.3 172.2 81.05 172.8Q80.75 173.45 80.75 174.55L80.75 179.65L79.2 179.65L79.2 166.75L80.75 166.75M41,172.3Q40.2 173.2 40.2 175Q40.2 176.8 41 177.65Q41.8 178.55 42.95 178.55Q44.15 178.55 44.95 177.65Q45.7 176.75 45.7 174.95Q45.7 173.2 44.95 172.3Q44.15 171.4 42.95 171.4Q41.8 171.4 41 172.3M113.8,170.3L110.25 179.65L108.8 179.65L105.25 170.3L106.9 170.3L108.9 175.9L109.5 177.8L110.1 176L112.15 170.3L113.8 170.3M118.2,172.15Q117.45 172.85 117.4 174.1L122.6 174.1Q122.5 172.9 122 172.3Q121.25 171.4 120.05 171.4Q118.95 171.4 118.2 172.15M120,170.1Q121.9 170.1 123.1 171.4Q124.25 172.65 124.25 174.95L124.25 175.4L117.3 175.4Q117.4 176.95 118.15 177.75Q118.95 178.55 120.1 178.55L121.6 178.1Q122.2 177.65 122.6 176.65L124.2 176.85Q123.8 178.3 122.8 179.05Q121.75 179.85 120.1 179.85Q118.05 179.85 116.85 178.6Q115.65 177.35 115.65 175.05Q115.65 172.7 116.85 171.4Q118.1 170.1 120 170.1M90.2,166.75L91.8 166.75L91.8 168.6L90.2 168.6L90.2 166.75M99.05,171.4Q97.95 171.4 97.2 172.15Q96.45 172.85 96.4 174.1L101.6 174.1Q101.5 172.9 101 172.3Q100.25 171.4 99.05 171.4M99,170.1Q100.9 170.1 102.1 171.4Q103.25 172.65 103.25 174.95L103.25 175.4L96.3 175.4Q96.4 176.95 97.15 177.75Q97.95 178.55 99.1 178.55L100.6 178.1Q101.2 177.65 101.6 176.65L103.2 176.85Q102.8 178.3 101.8 179.05Q100.75 179.85 99.1 179.85Q97.05 179.85 95.85 178.6Q94.65 177.35 94.65 175.05Q94.65 172.7 95.85 171.4Q97.1 170.1 99 170.1M91.8,170.3L91.8 179.65L90.2 179.65L90.2 170.3L91.8 170.3M147.75,170.3L147.75 175.5L147.85 177.15Q148 177.8 148.45 178.15L149.65 178.5L151 178.15L151.9 177.15L152.15 175.3L152.15 170.3L153.7 170.3L153.7 179.65L152.3 179.65L152.3 178.3Q151.2 179.85 149.35 179.85L147.8 179.55L146.75 178.75L146.25 177.6L146.15 176.1L146.15 170.3L147.75 170.3M-139.1,173L-138.4 171.4Q-137.9 170.75 -137 170.45L-134.85 170.1L-132.9 170.4Q-132.2 170.65 -131.85 171.1Q-131.45 171.5 -131.35 172.15L-131.25 173.65L-131.25 175.75L-131.15 178.55L-130.75 179.65L-132.4 179.65L-132.7 178.5L-134.4 179.55L-136.15 179.85Q-137.7 179.85 -138.5 179.1Q-139.35 178.35 -139.35 177.2L-139.05 175.95L-138.2 175.05Q-137.7 174.7 -137.1 174.5L-135.7 174.25L-132.85 173.75L-132.85 173.3Q-132.85 172.35 -133.3 171.95Q-133.9 171.4 -135.1 171.4Q-136.2 171.4 -136.75 171.8Q-137.3 172.2 -137.55 173.2L-139.1 173M-126.55,170.7Q-125.6 170.1 -124.4 170.1Q-122.7 170.1 -121.65 171.45L-121.65 170.3L-120.2 170.3L-120.2 178.4Q-120.2 180.55 -120.65 181.5Q-121.1 182.4 -122.05 182.9Q-123 183.45 -124.4 183.45Q-126.1 183.45 -127.1 182.7Q-128.15 181.95 -128.1 180.4L-126.55 180.65Q-126.45 181.35 -126.05 181.7L-124.4 182.15Q-123.3 182.15 -122.7 181.7Q-122.15 181.25 -121.9 180.45L-121.8 178.45Q-122.85 179.65 -124.4 179.65Q-126.3 179.65 -127.35 178.25Q-128.4 176.85 -128.4 174.95Q-128.4 173.6 -127.95 172.45Q-127.45 171.35 -126.55 170.7M-126.05,172.3Q-126.8 173.15 -126.8 174.8Q-126.8 176.65 -126.05 177.5Q-125.35 178.35 -124.25 178.35Q-123.15 178.35 -122.4 177.5Q-121.65 176.65 -121.65 174.85Q-121.65 173.15 -122.45 172.3Q-123.2 171.4 -124.25 171.4Q-125.3 171.4 -126.05 172.3M-159.55,173.2L-161.1 173L-160.4 171.4Q-159.9 170.75 -159 170.45L-156.85 170.1L-154.9 170.4Q-154.2 170.65 -153.85 171.1Q-153.45 171.5 -153.35 172.15L-153.25 173.65L-153.25 175.75L-153.15 178.55L-152.75 179.65L-154.4 179.65L-154.7 178.5L-156.4 179.55L-158.15 179.85Q-159.7 179.85 -160.5 179.1Q-161.35 178.35 -161.35 177.2L-161.05 175.95Q-160.75 175.35 -160.2 175.05Q-159.7 174.7 -159.1 174.5L-157.7 174.25L-154.85 173.75L-154.85 173.3Q-154.85 172.35 -155.3 171.95Q-155.9 171.4 -157.1 171.4Q-158.2 171.4 -158.75 171.8Q-159.3 172.2 -159.55 173.2M-148.4,171.65Q-147.35 170.1 -145.4 170.1L-143.85 170.4L-142.8 171.2L-142.3 172.35L-142.25 173.9L-142.25 179.65L-143.8 179.65L-143.8 173.95L-144 172.55Q-144.2 172.05 -144.65 171.75L-145.75 171.5Q-146.75 171.5 -147.5 172.1Q-148.25 172.75 -148.25 174.55L-148.25 179.65L-149.8 179.65L-149.8 170.3L-148.4 170.3L-148.4 171.65M-154.85,174.95L-157.45 175.55L-158.8 175.9L-159.45 176.4L-159.65 177.15Q-159.65 177.8 -159.2 178.2Q-158.7 178.6 -157.8 178.6L-156.15 178.25Q-155.45 177.8 -155.1 177.15Q-154.85 176.6 -154.85 175.55L-154.85 174.95M-132.85,174.95L-135.45 175.55L-136.8 175.9L-137.45 176.4L-137.65 177.15L-137.2 178.2Q-136.7 178.6 -135.8 178.6L-134.15 178.25Q-133.45 177.8 -133.1 177.15Q-132.85 176.6 -132.85 175.55L-132.85 174.95M-96.4,171.5Q-97.4 171.5 -98.05 172.15Q-98.7 172.8 -98.7 174.25L-98.7 179.65L-100.25 179.65L-100.25 173.6Q-100.25 172.55 -100.65 172Q-101.05 171.5 -101.9 171.5Q-102.6 171.5 -103.15 171.85L-104 172.85L-104.25 174.8L-104.25 179.65L-105.8 179.65L-105.8 170.3L-104.4 170.3L-104.4 171.65Q-103.95 170.95 -103.25 170.55Q-102.5 170.1 -101.55 170.1Q-100.55 170.1 -99.85 170.55Q-99.2 170.95 -98.95 171.75Q-97.8 170.1 -96.05 170.1Q-94.65 170.1 -93.9 170.9Q-93.15 171.65 -93.15 173.25L-93.15 179.65L-94.75 179.65L-94.75 173.75Q-94.75 172.8 -94.9 172.4L-95.45 171.75L-96.4 171.5M-86,170.1Q-84.1 170.1 -82.9 171.4Q-81.75 172.65 -81.75 174.95L-81.75 175.4L-88.7 175.4Q-88.6 176.95 -87.85 177.75Q-87.05 178.55 -85.9 178.55L-84.4 178.1Q-83.8 177.65 -83.4 176.65L-81.8 176.85Q-82.2 178.3 -83.2 179.05Q-84.25 179.85 -85.9 179.85Q-87.95 179.85 -89.15 178.6Q-90.35 177.35 -90.35 175.05Q-90.35 172.7 -89.15 171.4Q-87.9 170.1 -86 170.1M-87.8,172.15Q-88.55 172.85 -88.6 174.1L-83.4 174.1Q-83.5 172.9 -84 172.3Q-84.75 171.4 -85.95 171.4Q-87.05 171.4 -87.8 172.15M-113,170.1Q-111.1 170.1 -109.9 171.4Q-108.75 172.65 -108.75 174.95L-108.75 175.4L-115.7 175.4Q-115.6 176.95 -114.85 177.75Q-114.05 178.55 -112.9 178.55L-111.4 178.1Q-110.8 177.65 -110.4 176.65L-108.8 176.85Q-109.2 178.3 -110.2 179.05Q-111.25 179.85 -112.9 179.85Q-114.95 179.85 -116.15 178.6Q-117.35 177.35 -117.35 175.05Q-117.35 172.7 -116.15 171.4Q-114.9 170.1 -113 170.1M-114.8,172.15Q-115.55 172.85 -115.6 174.1L-110.4 174.1Q-110.5 172.9 -111 172.3Q-111.75 171.4 -112.95 171.4Q-114.05 171.4 -114.8 172.15M-41.4,171.75L-40.4 170.4Q-39.95 170.1 -39.4 170.1Q-38.6 170.1 -37.75 170.6L-38.3 172.1Q-38.9 171.75 -39.45 171.75Q-40 171.75 -40.4 172.05L-41 172.9L-41.25 174.75L-41.25 179.65L-42.85 179.65L-42.85 170.3L-41.4 170.3L-41.4 171.75M-77.4,171.65Q-76.35 170.1 -74.4 170.1L-72.85 170.4Q-72.15 170.7 -71.8 171.2Q-71.45 171.7 -71.3 172.35L-71.25 173.9L-71.25 179.65L-72.8 179.65L-72.8 173.95L-73 172.55L-73.65 171.75L-74.75 171.5Q-75.75 171.5 -76.5 172.1Q-77.25 172.75 -77.25 174.55L-77.25 179.65L-78.8 179.65L-78.8 170.3L-77.4 170.3L-77.4 171.65M-68.7,170.3L-67.5 170.3L-67.5 168L-65.95 167.05L-65.95 170.3L-64.35 170.3L-64.35 171.55L-65.95 171.55L-65.95 177L-65.85 177.85L-65.6 178.2L-65.05 178.3L-64.35 178.25L-64.15 179.65L-65.35 179.75L-66.65 179.5L-67.35 178.8L-67.5 176.9L-67.5 171.55L-68.7 171.55L-68.7 170.3M-15.7,170.3L-14.5 170.3L-14.5 168L-12.95 167.05L-12.95 170.3L-11.35 170.3L-11.35 171.55L-12.95 171.55L-12.95 177L-12.85 177.85L-12.6 178.2L-12.05 178.3L-11.35 178.25L-11.15 179.65L-12.35 179.75L-13.65 179.5L-14.35 178.8L-14.5 176.9L-14.5 171.55L-15.7 171.55L-15.7 170.3M-17.3,173.05L-18.85 173.3Q-19.05 172.35 -19.65 171.9Q-20.2 171.4 -21 171.4Q-22.2 171.4 -22.9 172.25Q-23.65 173.1 -23.65 174.95Q-23.65 176.85 -22.95 177.7Q-22.25 178.55 -21.05 178.55Q-20.15 178.55 -19.5 178Q-18.9 177.4 -18.7 176.25L-17.15 176.45Q-17.4 178.05 -18.45 178.95Q-19.5 179.85 -21.05 179.85Q-22.95 179.85 -24.15 178.6Q-25.3 177.35 -25.3 175Q-25.3 173.5 -24.8 172.35Q-24.3 171.25 -23.25 170.7Q-22.25 170.1 -21.05 170.1Q-19.5 170.1 -18.55 170.9Q-17.6 171.65 -17.3 173.05M-7.2,170.3L-7.2 179.65L-8.8 179.65L-8.8 170.3L-7.2 170.3M-7.2,166.75L-7.2 168.6L-8.8 168.6L-8.8 166.75L-7.2 166.75M-34.55,173.2L-36.1 173Q-35.85 172 -35.4 171.4Q-34.9 170.75 -34 170.45L-31.85 170.1L-29.9 170.4Q-29.2 170.65 -28.85 171.1Q-28.45 171.5 -28.35 172.15L-28.25 173.65L-28.25 175.75L-28.15 178.55L-27.75 179.65L-29.4 179.65L-29.7 178.5Q-30.6 179.25 -31.4 179.55L-33.15 179.85Q-34.7 179.85 -35.5 179.1Q-36.35 178.35 -36.35 177.2L-36.05 175.95Q-35.75 175.35 -35.2 175.05Q-34.7 174.7 -34.1 174.5L-32.7 174.25L-29.85 173.75L-29.85 173.3Q-29.85 172.35 -30.3 171.95Q-30.9 171.4 -32.1 171.4L-33.75 171.8Q-34.3 172.2 -34.55 173.2M-29.85,174.95L-32.45 175.55L-33.8 175.9L-34.45 176.4L-34.65 177.15L-34.2 178.2Q-33.7 178.6 -32.8 178.6L-31.15 178.25Q-30.45 177.8 -30.1 177.15Q-29.85 176.6 -29.85 175.55L-29.85 174.95M-218.35,172.15L-218.25 173.65L-218.25 175.75L-218.15 178.55L-217.75 179.65L-219.4 179.65L-219.7 178.5L-221.4 179.55L-223.15 179.85Q-224.7 179.85 -225.5 179.1Q-226.35 178.35 -226.35 177.2L-226.05 175.95L-225.2 175.05Q-224.7 174.7 -224.1 174.5L-222.7 174.25L-219.85 173.75L-219.85 173.3Q-219.85 172.35 -220.3 171.95Q-220.9 171.4 -222.1 171.4L-223.75 171.8Q-224.3 172.2 -224.55 173.2L-226.1 173L-225.4 171.4Q-224.9 170.75 -224 170.45L-221.85 170.1L-219.9 170.4Q-219.2 170.65 -218.85 171.1Q-218.45 171.5 -218.35 172.15M-213.65,172.6L-213.45 173.15L-212.85 173.6L-211.45 174L-209.1 174.75L-208.05 175.55Q-207.7 176.1 -207.7 176.9Q-207.7 177.7 -208.15 178.4Q-208.6 179.1 -209.5 179.5L-211.45 179.85Q-213.3 179.85 -214.2 179.1Q-215.2 178.35 -215.45 176.85L-213.9 176.6Q-213.75 177.55 -213.15 178.05Q-212.55 178.55 -211.45 178.55Q-210.35 178.55 -209.85 178.1Q-209.3 177.65 -209.3 177.05Q-209.3 176.55 -209.8 176.25Q-210.1 176 -211.4 175.7L-213.8 174.95L-214.85 174.05Q-215.2 173.5 -215.2 172.8L-214.9 171.65L-214.1 170.75L-213.1 170.3L-211.75 170.1L-209.8 170.4L-208.6 171.3Q-208.2 171.8 -208.05 172.7L-209.6 172.95Q-209.7 172.2 -210.2 171.8Q-210.7 171.4 -211.65 171.4Q-212.7 171.4 -213.2 171.75L-213.65 172.6M-205.7,171.55L-205.7 170.3L-204.5 170.3L-204.5 168L-202.95 167.05L-202.95 170.3L-201.35 170.3L-201.35 171.55L-202.95 171.55L-202.95 177L-202.85 177.85L-202.6 178.2L-202.05 178.3L-201.35 178.25L-201.15 179.65L-202.35 179.75L-203.65 179.5L-204.35 178.8L-204.5 176.9L-204.5 171.55L-205.7 171.55M-224.2,178.2Q-223.7 178.6 -222.8 178.6L-221.15 178.25Q-220.45 177.8 -220.1 177.15Q-219.85 176.6 -219.85 175.55L-219.85 174.95L-222.45 175.55L-223.8 175.9L-224.45 176.4L-224.65 177.15L-224.2 178.2M-199.1,173L-198.4 171.4Q-197.9 170.75 -197 170.45L-194.85 170.1L-192.9 170.4Q-192.2 170.65 -191.85 171.1Q-191.45 171.5 -191.35 172.15L-191.25 173.65L-191.25 175.75L-191.15 178.55L-190.75 179.65L-192.4 179.65L-192.7 178.5L-194.4 179.55L-196.15 179.85Q-197.7 179.85 -198.5 179.1Q-199.35 178.35 -199.35 177.2L-199.05 175.95L-198.2 175.05Q-197.7 174.7 -197.1 174.5L-195.7 174.25L-192.85 173.75L-192.85 173.3Q-192.85 172.35 -193.3 171.95Q-193.9 171.4 -195.1 171.4Q-196.2 171.4 -196.75 171.8Q-197.3 172.2 -197.55 173.2L-199.1 173M-186.25,166.75L-186.25 179.65L-187.85 179.65L-187.85 166.75L-186.25 166.75M-192.85,174.95L-195.45 175.55L-196.8 175.9L-197.45 176.4L-197.65 177.15L-197.2 178.2Q-196.7 178.6 -195.8 178.6L-194.15 178.25Q-193.45 177.8 -193.1 177.15Q-192.85 176.6 -192.85 175.55L-192.85 174.95" />
<path style="fill:#FF0000;fill-opacity:1" d="M60.8,168.1L60.1 170.6L58.7 174.35L63.05 174.35L61.7 170.8L60.8 168.1M54.95,179.65L59.9 166.75L61.75 166.75L67.05 179.65L65.1 179.65L63.6 175.75L58.2 175.75L56.8 179.65L54.95 179.65M142.7,170.4L141.05 170.5Q140.9 169.3 140.15 168.65Q139.4 168.05 137.9 168.05Q136.35 168.05 135.65 168.6Q134.95 169.2 134.95 170Q134.95 170.7 135.45 171.1Q135.95 171.55 138 172.05L140.85 172.85Q142 173.4 142.55 174.2Q143.05 174.95 143.05 176Q143.05 177.05 142.5 177.95Q141.9 178.85 140.8 179.35L138.3 179.85L135.4 179.35Q134.2 178.85 133.5 177.85Q132.85 176.8 132.8 175.5L134.4 175.35Q134.55 176.35 134.95 176.95Q135.35 177.6 136.25 177.95L138.2 178.35L139.95 178.05L141.05 177.25L141.4 176.15Q141.4 175.55 141.05 175.1L139.9 174.35L137.6 173.7Q135.85 173.3 135.15 172.9Q134.2 172.4 133.75 171.7Q133.3 171 133.3 170.1Q133.3 169.1 133.85 168.3Q134.4 167.4 135.45 167Q136.55 166.55 137.85 166.55Q139.25 166.55 140.35 167Q141.45 167.45 142.05 168.35Q142.65 169.25 142.7 170.4M-53.9,172.9L-50.6 172.9Q-48.9 172.9 -48.25 172.3Q-47.55 171.65 -47.55 170.55Q-47.55 169.75 -47.95 169.15Q-48.35 168.6 -49 168.4L-50.6 168.3L-53.9 168.3L-53.9 172.9M-50.75,166.75L-48.8 166.9Q-47.85 167.05 -47.2 167.5Q-46.55 167.95 -46.15 168.75Q-45.8 169.55 -45.8 170.5Q-45.8 172.15 -46.8 173.3Q-47.85 174.4 -50.6 174.4L-53.9 174.4L-53.9 179.65L-55.6 179.65L-55.6 166.75L-50.75 166.75M-248.95,170.65Q-249.35 171.85 -249.35 173.1Q-249.35 174.75 -248.85 176Q-248.4 177.2 -247.4 177.8Q-246.35 178.4 -245.2 178.4Q-243.75 178.4 -242.75 177.6Q-241.75 176.75 -241.4 175.15L-239.7 175.55Q-240.25 177.65 -241.65 178.75Q-243.05 179.85 -245.05 179.85Q-247.15 179.85 -248.45 179.05Q-249.75 178.15 -250.4 176.55Q-251.1 174.95 -251.1 173.1Q-251.1 171.1 -250.35 169.6Q-249.55 168.1 -248.15 167.35Q-246.75 166.55 -245 166.55Q-243.1 166.55 -241.75 167.55Q-240.45 168.5 -239.95 170.3L-241.6 170.7Q-242.05 169.3 -242.9 168.65Q-243.75 168 -245.05 168Q-246.55 168 -247.55 168.7Q-248.55 169.45 -248.95 170.65M-235,172.3Q-235.8 173.2 -235.8 175Q-235.8 176.8 -235 177.65Q-234.2 178.55 -233.05 178.55Q-231.85 178.55 -231.05 177.65Q-230.3 176.75 -230.3 174.95Q-230.3 173.2 -231.05 172.3Q-231.85 171.4 -233.05 171.4Q-234.2 171.4 -235 172.3M-233.05,170.1Q-231.1 170.1 -229.9 171.35Q-228.65 172.65 -228.65 174.85Q-228.65 176.65 -229.2 177.7Q-229.75 178.7 -230.75 179.3Q-231.8 179.85 -233.05 179.85Q-235 179.85 -236.2 178.6Q-237.4 177.35 -237.4 175Q-237.4 172.4 -235.95 171.15Q-234.75 170.1 -233.05 170.1M-164.35,166.75L-164.35 179.65L-166 179.65L-166 168.85L-169.75 179.65L-171.3 179.65L-175 168.7L-175 179.65L-176.65 179.65L-176.65 166.75L-174.1 166.75L-171.05 175.9L-170.45 177.8L-169.75 175.75L-166.65 166.75L-164.35 166.75" />
</g>
</svg>
