<?xml version="1.0" encoding="utf-8"?>
<svg version="1.1" id="Layer_1"
xmlns="http://www.w3.org/2000/svg"
xmlns:xlink="http://www.w3.org/1999/xlink"
xmlns:author="http://www.sothink.com"
width="100px" height="100px"
xml:space="preserve">
<g id="22" transform="matrix(1, 0, 0, 1, 1.9, 1.7)">
<path style="fill:#D4D0D8;fill-opacity:1" d="M83,-0.7L83 13L83.05 13L83.05 13.3L97 13.3L97 -0.7L83 -0.7M98,-1.7L98 65.9L96.95 65.9L96.95 60.9L97 60.9L97 14.3L83.05 14.3L83.05 65.9L82 65.9L82 60.9L82.05 60.9L82.05 14.3L82 14.3L82 -1.7L98 -1.7M93.2,8L92.95 8.25L87.05 8.25L86.8 8L86.85 7.85L86.85 7.8L89.85 4.4L90 4.35L90.2 4.4L93.15 7.8L93.2 8M86.8,72.25Q86.8 72 87.05 72L92.95 72L93.2 72.25L93.15 72.4L93.15 72.45L90.15 75.85L90 75.9L89.8 75.85L86.85 72.45L86.8 72.25M98,65.95L98 81.95L83.2 81.95L83.2 97.75L67.2 97.75L67.2 81.75L82 81.75L82 65.95L98 65.95M83,66.95L83 80.95L97 80.95L97 66.95L83 66.95M82.2,82.75L68.2 82.75L68.2 96.75L82.2 96.75L82.2 82.75M14.25,81.75L67.15 81.75L67.15 82.8L62.15 82.8L62.15 82.75L14.25 82.75L14.25 81.75M7.8,86.55L8.05 86.8L8.05 92.7L7.8 92.95L7.65 92.9L7.6 92.9L4.2 89.9L4.15 89.75L4.2 89.55L7.6 86.6L7.8 86.55M14.1,97.75L-1.9 97.75L-1.9 81.75L14.1 81.75L14.1 96.7L66.9 96.7L66.9 97.75L61.9 97.75L61.9 97.7L14.1 97.7L14.1 97.75M13.1,82.75L-0.9 82.75L-0.9 96.75L13.1 96.75L13.1 82.75M73.65,86.6L73.7 86.6L77.1 89.6L77.15 89.75L77.1 89.95L73.7 92.9L73.5 92.95L73.25 92.7L73.25 86.8Q73.25 86.55 73.5 86.55L73.65 86.6" />
</g>
</svg>
