<?xml version="1.0" encoding="utf-8"?>
<svg version="1.1" id="Layer_1"
xmlns="http://www.w3.org/2000/svg"
xmlns:xlink="http://www.w3.org/1999/xlink"
xmlns:author="http://www.sothink.com"
width="34px" height="24px"
xml:space="preserve">
<g id="91" transform="matrix(1, 0, 0, 1, 16.2, 9.4)">
<path style="fill:none;stroke-width:0.25;stroke-linecap:round;stroke-linejoin:round;stroke-miterlimit:3;stroke:#FFFFFF;stroke-opacity:1" d="M13.2,-8.5L15 -7.7Q17.7 -6.1 17.7 -3.85Q17.7 -1.55 15 0Q12.25 1.6 8.5 1.6Q4.75 1.6 2 0Q-0.7 -1.55 -0.7 -3.85Q-0.7 -6.1 2 -7.7Q4.75 -9.3 8.5 -9.3L10.55 -9.15" />
<path style="fill:none;stroke-width:0.25;stroke-linecap:round;stroke-linejoin:round;stroke-miterlimit:3;stroke:#FFFFFF;stroke-opacity:1" d="M-10.9,7.15L-10.45 7.15L-7.75 7.6Q-6.95 7.8 -6.4 8.15Q-4.75 9.15 -4.75 10.55Q-4.75 11.95 -6.4 12.9Q-8.15 13.9 -10.45 13.9Q-12.75 13.9 -14.45 12.9Q-16.15 11.95 -16.1 10.55Q-16.15 9.15 -14.45 8.15Q-13.9 7.8 -13.25 7.6" />
</g>
</svg>
