<?xml version="1.0" encoding="utf-8"?>
<svg version="1.1" id="Layer_1"
xmlns="http://www.w3.org/2000/svg"
xmlns:xlink="http://www.w3.org/1999/xlink"
xmlns:author="http://www.sothink.com"
width="170px" height="30px"
xml:space="preserve">
<g id="145" transform="matrix(1, 0, 0, 1, 85, 15)">
<path style="fill:#D1EAED;fill-opacity:1" d="M-81.95,12L-84.9 12L-84.9 -15L82.1 -15L82.1 12L82.1 -12.3L82 -12.3L-81.95 -12.3L-81.95 12" />
<path style="fill:#9DD6DD;fill-opacity:0.6" d="M7.05,4.45L7.05 7.15L14.4 4.2L14.05 4.05L7.05 1.25L7.05 4.45M-8.8,-2L-8.8 -5.05L-8.8 -7.85L-16.2 -4.9L-15.85 -4.75L-8.8 -2M-81.95,-12.3L82 -12.3L82 12L-81.95 12L-81.95 -12.3" />
<path style="fill:#42AEBD;fill-opacity:1" d="M85,-15L85 15L-85 15L-85 -15L-85 12L-84.9 12L-81.95 12L82 12L82 -12.3L82.1 -12.3L82.1 12L82.1 -15L85 -15" />
<path style="fill:#046B81;fill-opacity:1" d="M7.05,1.25L14.05 4.05L14.4 4.2L7.05 7.15L7.05 4.45L7.05 1.25M-15.85,-4.75L-16.2 -4.9L-8.8 -7.85L-8.8 -5.05L-8.8 -2L-15.85 -4.75" />
<path style="fill:none;stroke-width:1;stroke-linecap:round;stroke-linejoin:round;stroke-miterlimit:3;stroke:#046B81;stroke-opacity:1" d="M-8.8,-5.05L-0.3 -5.2L22.65 -3.75Q32.2 -2.35 32.2 -0.3Q32.2 1.7 22.65 3.15L14.05 4.05M7.05,4.45L-0.3 4.55Q-13.75 4.55 -23.3 3.15Q-32.8 1.7 -32.8 -0.3Q-32.8 -2.35 -23.3 -3.75L-15.85 -4.75M51.65,9.05L-52.25 9.05L-52.25 -9.25L51.65 -9.25L51.65 9.05" />
</g>
</svg>
