<?xml version="1.0" encoding="utf-8"?>
<svg version="1.1" id="Layer_1"
xmlns="http://www.w3.org/2000/svg"
xmlns:xlink="http://www.w3.org/1999/xlink"
xmlns:author="http://www.sothink.com"
width="35px" height="25px"
xml:space="preserve">
<g id="162" transform="matrix(1, 0, 0, 1, 17.25, 12.5)">
<path style="fill:#4E6C33;fill-opacity:1" d="M-16.9,-12.5L14.75 -12.5L14.75 -12.45L-16.9 -12.45L-16.9 -12.5M16.75,-12.45L16.75 -12.5L17.2 -12.5L17.2 -12.45L16.75 -12.45" />
<path style="fill:#563529;fill-opacity:1" d="M16.75,-12.45L16.75 12.5L-17.25 12.5L-17.25 -12.45L-16.9 -12.45L14.75 -12.45L14.75 -12.5L16.75 -12.5L16.75 -12.45M14.75,-10.6L-15.4 -10.6L-15.4 10.5L14.75 10.5L14.75 -10.6" />
<path style="fill:#DBE6BE;fill-opacity:1" d="M14.75,10.5L-15.4 10.5L-15.4 -10.6L14.75 -10.6L14.75 10.5" />
<path style="fill:#ECECEC;fill-opacity:1" d="M-2.25,-4.2L-2.25 -4.4L-2.3 -4.45L-6.45 -3.3L-6.7 -3.5L1.85 -6.35L1.85 -6.4L3.9 -7.05L3.85 -6.25L2.3 -5.7L2.3 -5.65L-0.15 -4.8L-0.65 -4.7L-0.65 -4.65L-0.6 -4.65L-0.65 -4.65L-0.65 -4.6L-2.25 -4.1L-2.25 -4.2M-6.25,-3.1L-3.45 -3.85L-3.35 -3.75L-3.55 -3.75L-3.5 -3.65L-3.55 -3.65L-6 -2.9L-6.25 -3.1M-9.9,-2.6L-8.95 -2.9L-8.95 -2.95L-8.95 -1.8L-9.35 -1.65L-9.9 -2.6M9.05,-0.15L9.1 -0.2L9.1 0.8L-5.25 6.6L-5.25 5.45L8.55 0.05L9.05 -0.15M-2.5,-4.15L-2.5 -4L-3.05 -3.85L-3.2 -3.9L-2.5 -4.15" />
<path style="fill:#715944;fill-opacity:1" d="M8.55,0.05L-5.25 5.45L-5.25 6.6L-6.35 4.7L-6.4 3.65L-9.35 -1.65L-8.95 -1.8L-8.95 -1.45L-8.05 0L-5.55 -0.75L-5.5 -2.4L-5.55 -2.45L-6 -2.9L-3.55 -3.65L-3.5 -3.65L-3.55 -3.75L-3.35 -3.75L-2.7 -3.3L-3.9 -2.9L-2.9 -1.55L-1.55 0.2L1.3 -0.75L1.95 -1L1.55 -1.5L2.55 -1.7L2.95 -1.2L4.35 -1.7L4.35 -1.3L3.35 -0.9L3.75 -0.35L5.05 1.4L7.2 0.55L8.1 0.2L6.35 -2.1L4.6 -1.4L4.6 -1.85L5.45 -2.15L6.15 -2.4L3.65 -5.5L0.45 -4.35L0.6 -4.15L1.3 -3.35L0.3 -3L-0.5 -4L-2.25 -3.45L-2.25 -4.1L-0.65 -4.6L-0.65 -4.65L-0.6 -4.65L-0.65 -4.65L-0.65 -4.7L-0.15 -4.8L2.3 -5.65L2.3 -5.7L3.85 -6.25L8.55 0.05M0.7,-2.5L1.65 -2.9L2.45 -1.9L1.4 -1.7L0.7 -2.5M2.7,-0.2L2.7 -0.35L2.7 -0.5L2.65 -0.5L2.65 -0.6L2.15 -0.45L2.15 -0.4L1.9 -0.35L-0.35 0.25L-0.6 0.3L-1.65 0.6L-2.65 0.9L-3.95 1.25L-3.8 1.2L-4 1L-6.25 1.55L-6.3 1.55L-6.25 3.05L-5.4 4.5L-2.85 3.75L-2.85 2.1L-2.85 2.05L-2.85 2.1L-3.55 1.4L-2.65 1.15L-0.4 0.55L-0.1 0.45L0 0.4L-0.1 0.45L-0.95 0.8L-0.55 1.3L0.8 3.1L0.85 3.05L3.65 1.95L4.2 1.75L2.7 -0.2" />
<path style="fill:#DDC5BB;fill-opacity:1" d="M3.1,-3.55L3.1 -3.6L3.1 -3.5L3.15 -3.45L3.1 -3.4L3.1 -2.2L3 -2.2L3 -3.35L2.95 -3.3L2.95 -3.35L2.8 -3.25L2.75 -3.25L2.6 -3.2L1.65 -2.9L0.7 -2.5L0.1 -2.25L-0.65 -1.95L-0.8 -2.1L3.1 -3.55M-0.85,-1.9L-0.9 -1.9L-0.9 -0.7L-1.05 -0.7L-1.05 -0.75L-1.05 -2L-1 -2L-0.85 -1.9" />
<path style="fill:#8E9DCA;fill-opacity:1" d="M4.85,-2.95L5.45 -2.15L4.6 -1.85L4.6 -2.05L4.6 -2.2L4.55 -2.2L4.55 -2.25L2.45 -1.9L1.65 -2.9L2.6 -3.2L2.6 -2.75L2.95 -2.25L2.95 -3.3L3 -3.35L3 -2.2L3.1 -2.2L3.1 -3.4L3.15 -3.45L3.1 -3.5L3.1 -3.6L3.1 -3.55L2.75 -3.85L1.3 -3.35L1.05 -3.65L3.55 -4.6L4.65 -3.2L4.6 -3.2L4.6 -2.1L4.85 -2.1L4.85 -2.95M4.55,-0.15L4.65 -0.15L4.65 -0.2L4.75 -0.3L4.85 -0.45L4.85 -0.55L4.75 -0.75L6.25 -1.35L7.55 0.35L7.2 0.55L5.05 1.4L3.75 -0.35L4.3 -0.55L4.25 -0.55L4.25 -0.45L4.3 -0.45L4.3 -0.35L4.3 0.35L4.55 0.35L4.55 -0.15M4.35,-2L4.35 -1.7L2.95 -1.2L2.55 -1.7L4.35 -2M-3.4,-2.25L-2.5 -2.6L-2.5 -1.3L-2.25 -1.3L-2.25 -2.65L-1.95 -2.75L-1.4 -2.3L-1.45 -1.4L-1.05 -0.75L-1.05 -0.7L-0.9 -0.7L-0.9 -1.9L-0.85 -1.9L-0.2 -1.4L-0.25 -1.4L-0.2 -1.3L-0.1 -1.3L0.05 -1.2L0.05 -1.25L0.8 -1.35L1.3 -0.75L-1.55 0.2L-2.9 -1.55L-3.4 -2.25M-1.3,-2.45L-1.75 -2.8L-0.65 -3.2L-0.35 -2.8L-1.3 -2.45M0.65,-1.55L0.05 -1.45L-0.65 -1.95L0.1 -2.25L0.65 -1.55M2.7,0.95L2.7 0.7L3.65 1.95L0.85 3.05L0.8 3.1L-0.55 1.3L2.35 0.25L2.45 0.4L2.45 0.95L2.45 1.7L2.7 1.7L2.7 0.95M-4.9,3.8L-4.85 3.2L-4.2 3.05L-4.25 3.65L-4.9 3.8M-7.6,-0.7L-7.55 -1.3L-6.9 -1.45L-6.9 -0.85L-7.6 -0.7M4.65,-0.55L4.65 -0.7L4.7 -0.7L4.7 -0.55L4.65 -0.55M4.75,-0.55L4.75 -0.65L4.8 -0.55L4.75 -0.55M4.75,-0.45L4.8 -0.45L4.75 -0.35L4.75 -0.45M4.65,-0.3L4.65 -0.45L4.7 -0.45L4.7 -0.35L4.65 -0.3" />
<path style="fill:#EFE3DE;fill-opacity:1" d="M-1.3,-2.45L-0.35 -2.8L0.3 -3L1.3 -3.35L2.75 -3.85L3.1 -3.55L-0.8 -2.1L-1.3 -2.45M-1.45,-1.4L-1.4 -2.3L-1 -2L-1.05 -2L-1.05 -0.75L-1.45 -1.4" />
<path style="fill:#BA8874;fill-opacity:1" d="M2.95,-3.3L2.95 -2.25L2.6 -2.75L2.6 -3.2L2.75 -3.25L2.8 -3.25L2.95 -3.35L2.95 -3.3" />
<path style="fill:#977859;fill-opacity:1" d="M-2.25,-3.2L-2.25 -3.45L-0.5 -4L0.3 -3L-0.35 -2.8L-0.65 -3.2L-1.75 -2.8L-2.25 -3.2M4.85,-2.95L4.85 -3.05L5.3 -3.25L5.2 -3.5L4.65 -3.2L3.55 -4.6L1.05 -3.65L0.6 -4.15L0.45 -4.35L3.65 -5.5L6.15 -2.4L5.45 -2.15L4.85 -2.95M7.55,0.35L6.25 -1.35L4.75 -0.75L4.6 -0.85L4.55 -0.85L4.6 -1.4L6.35 -2.1L8.1 0.2L7.2 0.55L7.55 0.35M4.3,-0.7L4.3 -0.55L3.75 -0.35L3.35 -0.9L4.35 -1.3L4.3 -0.7M1.55,-1.5L1.95 -1L1.3 -0.75L0.8 -1.35L1.55 -1.5M-3.9,-2.9L-2.7 -3.3L-2.5 -3.1L-2.5 -2.6L-3.4 -2.25L-3.9 -2.9M1.4,-1.7L0.65 -1.55L0.1 -2.25L0.7 -2.5L1.4 -1.7M2.25,-0.2L2.45 -0.25L2.45 0.2L2.45 0.4L2.35 0.25L-0.55 1.3L-0.95 0.8L-0.1 0.45L0 0.4L1.9 -0.1L2.25 -0.2M4.2,1.75L3.65 1.95L2.7 0.7L2.7 0.2L2.7 -0.2L4.2 1.75M-1.95,-2.75L-2.25 -2.65L-2.25 -2.9L-1.95 -2.75" />
<linearGradient
id="LinearGradID_544" gradientUnits="userSpaceOnUse" gradientTransform="matrix(6.10352e-005, -0.000106812, 0.00234985, 0.00177002, -1.85, -2.75)" spreadMethod ="pad" x1="-819.2" y1="0" x2="819.2" y2="0" >
<stop  offset="0" style="stop-color:#A7907A;stop-opacity:1" />
<stop  offset="1" style="stop-color:#D9CFC6;stop-opacity:1" />
</linearGradient>
<path style="fill:url(#LinearGradID_544) " d="M-1.95,-2.75L-2.25 -2.9L-2.5 -3.1L-2.7 -3.3L-3.35 -3.75L-3.45 -3.85L-3.45 -4.1L-3.2 -3.9L-3.05 -3.85L-2.5 -3.35L-2.25 -3.2L-1.75 -2.8L-1.3 -2.45L-0.8 -2.1L-0.65 -1.95L0.05 -1.45L0.15 -1.4L0.05 -1.25L0.05 -1.2L-0.1 -1.3L-0.2 -1.4L-0.85 -1.9L-1 -2L-1.4 -2.3L-1.95 -2.75" />
<linearGradient
id="LinearGradID_545" gradientUnits="userSpaceOnUse" gradientTransform="matrix(-4.57764e-005, -0.00012207, 0.00289917, -0.000518799, 2.2, -1.75)" spreadMethod ="pad" x1="-819.2" y1="0" x2="819.2" y2="0" >
<stop  offset="0" style="stop-color:#A7907A;stop-opacity:1" />
<stop  offset="1" style="stop-color:#D9CFC6;stop-opacity:1" />
</linearGradient>
<path style="fill:url(#LinearGradID_545) " d="M2.55,-1.7L1.55 -1.5L0.8 -1.35L0.05 -1.25L0.15 -1.4L0.05 -1.45L0.65 -1.55L1.4 -1.7L2.45 -1.9L4.55 -2.25L4.55 -2.2L4.6 -2.05L4.35 -2L2.55 -1.7M-0.1,-1.3L-0.2 -1.3L-0.25 -1.4L-0.2 -1.4L-0.1 -1.3" />
<linearGradient
id="LinearGradID_546" gradientUnits="userSpaceOnUse" gradientTransform="matrix(-4.57764e-005, -0.000137329, 0.00288391, -0.000778198, -1.95, 0.8)" spreadMethod ="pad" x1="-819.2" y1="0" x2="819.2" y2="0" >
<stop  offset="0" style="stop-color:#A7907A;stop-opacity:1" />
<stop  offset="1" style="stop-color:#D9CFC6;stop-opacity:1" />
</linearGradient>
<path style="fill:url(#LinearGradID_546) " d="M-0.1,0.45L-0.4 0.55L-0.35 0.5L-0.1 0.45M-1.65,0.6L-0.6 0.3L-0.6 0.35L-1.65 0.6M-4.1,1.55L-4.1 1.4L-4.3 1.4L-4.35 1.35L-3.95 1.25L-2.65 0.9L-2.65 1.15L-3.55 1.4L-4.1 1.55" />
<linearGradient
id="LinearGradID_547" gradientUnits="userSpaceOnUse" gradientTransform="matrix(-4.57764e-005, -0.000137329, 0.00288391, -0.000778198, 0.8, 0.1)" spreadMethod ="pad" x1="-819.2" y1="0" x2="819.2" y2="0" >
<stop  offset="0" style="stop-color:#A7907A;stop-opacity:1" />
<stop  offset="1" style="stop-color:#D9CFC6;stop-opacity:1" />
</linearGradient>
<path style="fill:url(#LinearGradID_547) " d="M1.9,-0.35L1.9 -0.1L0 0.4L-0.1 0.45L-0.35 0.5L-0.35 0.25L1.9 -0.35" />
<linearGradient
id="LinearGradID_548" gradientUnits="userSpaceOnUse" gradientTransform="matrix(-4.57764e-005, -0.000137329, 0.00288391, -0.000778198, 0.4, 0.15)" spreadMethod ="pad" x1="-819.2" y1="0" x2="819.2" y2="0" >
<stop  offset="0" style="stop-color:#A7907A;stop-opacity:1" />
<stop  offset="1" style="stop-color:#D9CFC6;stop-opacity:1" />
</linearGradient>
<path style="fill:url(#LinearGradID_548) " d="M-0.6,0.6L-0.6 0.35L-0.6 0.3L-0.35 0.25L-0.35 0.5L-0.4 0.55L-0.6 0.6M2.15,-0.2L2.25 -0.2L1.9 -0.1L1.9 -0.35L2.15 -0.4L2.15 -0.2" />
<linearGradient
id="LinearGradID_549" gradientUnits="userSpaceOnUse" gradientTransform="matrix(-4.57764e-005, -0.000137329, 0.00288391, -0.000778198, -1.5, 0.7)" spreadMethod ="pad" x1="-819.2" y1="0" x2="819.2" y2="0" >
<stop  offset="0" style="stop-color:#A7907A;stop-opacity:1" />
<stop  offset="1" style="stop-color:#D9CFC6;stop-opacity:1" />
</linearGradient>
<path style="fill:url(#LinearGradID_549) " d="M-0.6,0.35L-0.6 0.6L-0.4 0.55L-2.65 1.15L-2.65 0.9L-1.65 0.6L-0.6 0.35" />
<linearGradient
id="LinearGradID_550" gradientUnits="userSpaceOnUse" gradientTransform="matrix(0.000152588, 0, 0, 0.00189209, 2.55, 1)" spreadMethod ="pad" x1="-819.2" y1="0" x2="819.2" y2="0" >
<stop  offset="0" style="stop-color:#A7907A;stop-opacity:1" />
<stop  offset="1" style="stop-color:#D9CFC6;stop-opacity:1" />
</linearGradient>
<path style="fill:url(#LinearGradID_550) " d="M2.7,0.2L2.45 0.2L2.45 -0.25L2.7 -0.35L2.7 -0.2L2.7 0.2M2.65,-0.5L2.7 -0.5L2.7 -0.35L2.65 -0.5M2.7,1.7L2.45 1.7L2.45 0.95L2.7 0.95L2.7 1.7" />
<linearGradient
id="LinearGradID_551" gradientUnits="userSpaceOnUse" gradientTransform="matrix(-4.57764e-005, -0.000137329, 0.00288391, -0.000778198, 0.3, 0.15)" spreadMethod ="pad" x1="-819.2" y1="0" x2="819.2" y2="0" >
<stop  offset="0" style="stop-color:#A7907A;stop-opacity:1" />
<stop  offset="1" style="stop-color:#D9CFC6;stop-opacity:1" />
</linearGradient>
<path style="fill:url(#LinearGradID_551) " d="M2.15,-0.4L2.15 -0.45L2.65 -0.6L2.65 -0.5L2.7 -0.35L2.45 -0.25L2.25 -0.2L2.15 -0.2L2.15 -0.4" />
<linearGradient
id="LinearGradID_552" gradientUnits="userSpaceOnUse" gradientTransform="matrix(0.000152588, 0, 0, 0.00189209, 2.55, -0.15)" spreadMethod ="pad" x1="-819.2" y1="0" x2="819.2" y2="0" >
<stop  offset="0" style="stop-color:#A7907A;stop-opacity:1" />
<stop  offset="1" style="stop-color:#D9CFC6;stop-opacity:1" />
</linearGradient>
<path style="fill:url(#LinearGradID_552) " d="M2.7,0.2L2.7 0.7L2.7 0.95L2.45 0.95L2.45 0.4L2.45 0.2L2.7 0.2" />
<linearGradient
id="LinearGradID_553" gradientUnits="userSpaceOnUse" gradientTransform="matrix(-4.57764e-005, -0.000137329, 0.00288391, -0.000778198, -4.65, -3.7)" spreadMethod ="pad" x1="-819.2" y1="0" x2="819.2" y2="0" >
<stop  offset="0" style="stop-color:#A7907A;stop-opacity:1" />
<stop  offset="1" style="stop-color:#D9CFC6;stop-opacity:1" />
</linearGradient>
<path style="fill:url(#LinearGradID_553) " d="M-6.75,-2.95L-6.75 -3.1L-7 -3.1L-7 -3.15L-6.45 -3.3L-2.3 -4.45L-2.25 -4.4L-2.25 -4.2L-2.5 -4.15L-3.2 -3.9L-3.45 -4.1L-3.45 -3.85L-6.25 -3.1L-6.75 -2.95" />
<linearGradient
id="LinearGradID_554" gradientUnits="userSpaceOnUse" gradientTransform="matrix(0.000152588, 0, 0, 0.00189209, -2.35, -2.85)" spreadMethod ="pad" x1="-819.2" y1="0" x2="819.2" y2="0" >
<stop  offset="0" style="stop-color:#A7907A;stop-opacity:1" />
<stop  offset="1" style="stop-color:#D9CFC6;stop-opacity:1" />
</linearGradient>
<path style="fill:url(#LinearGradID_554) " d="M-2.25,-3.2L-2.5 -3.35L-2.5 -4L-2.5 -4.15L-2.25 -4.2L-2.25 -4.4L-2.25 -4.2L-2.25 -4.1L-2.25 -3.45L-2.25 -3.2M-2.25,-2.9L-2.25 -2.65L-2.25 -1.3L-2.5 -1.3L-2.5 -2.6L-2.5 -3.1L-2.25 -2.9" />
<path style="fill:#BF9E7F;fill-opacity:1" d="M-3.05,-3.85L-2.5 -4L-2.5 -3.35L-3.05 -3.85" />
<path style="fill:#DBE6BE;fill-opacity:1" d="M-6.25,-3.1L-6 -2.9L-5.55 -2.45L-5.55 -2.35L-8 -1.65L-8.95 -3L-6.7 -3.5L-6.45 -3.3L-7 -3.15L-7 -3.1L-7 -2.6L-6.75 -2.6L-6.75 -2.95L-6.25 -3.1M-3.55,1.4L-2.85 2.1L-2.85 2.15L-5.35 2.85L-6.25 1.55L-4 1L-3.8 1.2L-3.95 1.25L-4.35 1.35L-4.3 1.4L-4.3 1.9L-4.1 1.9L-4.1 1.55L-3.55 1.4" />
<path style="fill:#DCD5A3;fill-opacity:1" d="M-8,-1.65L-5.55 -2.35L-5.55 -2.45L-5.5 -2.4L-5.55 -0.75L-8.05 0L-8 -1.65M-2.85,2.15L-2.85 2.1L-2.85 2.05L-2.85 2.1L-2.85 3.75L-5.4 4.5L-5.35 2.85M-5.35,2.85L-2.85 2.15M-4.25,3.65L-4.2 3.05L-4.85 3.2L-4.9 3.8L-4.25 3.65M-6.9,-0.85L-6.9 -1.45L-7.55 -1.3L-7.6 -0.7L-6.9 -0.85" />
<linearGradient
id="LinearGradID_555" gradientUnits="userSpaceOnUse" gradientTransform="matrix(0.000152588, 0, 0, 0.000289917, -4.2, 1.65)" spreadMethod ="pad" x1="-819.2" y1="0" x2="819.2" y2="0" >
<stop  offset="0" style="stop-color:#A7907A;stop-opacity:1" />
<stop  offset="1" style="stop-color:#D9CFC6;stop-opacity:1" />
</linearGradient>
<path style="fill:url(#LinearGradID_555) " d="M-4.1,1.4L-4.1 1.55L-4.1 1.9L-4.3 1.9L-4.3 1.4L-4.1 1.4" />
<path style="fill:#C9BD6B;fill-opacity:1" d="M-8,-1.65L-8.05 0L-8.95 -1.45L-8.95 -1.8L-8.95 -2.95L-8.95 -3L-8 -1.65M-5.4,4.5L-6.25 3.05L-6.3 1.55L-6.25 1.55L-5.35 2.85L-5.4 4.5" />
<linearGradient
id="LinearGradID_556" gradientUnits="userSpaceOnUse" gradientTransform="matrix(0.000152588, 0, 0, 0.000289917, -6.9, -2.85)" spreadMethod ="pad" x1="-819.2" y1="0" x2="819.2" y2="0" >
<stop  offset="0" style="stop-color:#A7907A;stop-opacity:1" />
<stop  offset="1" style="stop-color:#D9CFC6;stop-opacity:1" />
</linearGradient>
<path style="fill:url(#LinearGradID_556) " d="M-6.75,-3.1L-6.75 -2.95L-6.75 -2.6L-7 -2.6L-7 -3.1L-6.75 -3.1" />
<path style="fill:#D9DBDB;fill-opacity:1" d="M9.05,-0.15L8.55 0.05L3.85 -6.25L3.9 -7.05L9.05 -0.15M-9.85,-1.4L-9.9 -2.6L-9.35 -1.65L-6.4 3.65L-6.35 4.7L-9.85 -1.4" />
<linearGradient
id="LinearGradID_557" gradientUnits="userSpaceOnUse" gradientTransform="matrix(0.000152588, 0, 0, 0.000671387, 4.7, -2.65)" spreadMethod ="pad" x1="-819.2" y1="0" x2="819.2" y2="0" >
<stop  offset="0" style="stop-color:#A7907A;stop-opacity:1" />
<stop  offset="1" style="stop-color:#D9CFC6;stop-opacity:1" />
</linearGradient>
<path style="fill:url(#LinearGradID_557) " d="M4.85,-2.1L4.6 -2.1L4.6 -3.2L4.65 -3.2L4.75 -3L4.85 -3.05L4.85 -2.95L4.85 -2.1" />
<linearGradient
id="LinearGradID_558" gradientUnits="userSpaceOnUse" gradientTransform="matrix(7.62939e-005, 0.00012207, -0.000335693, 0.000167847, 4.9, -3.25)" spreadMethod ="pad" x1="-819.2" y1="0" x2="819.2" y2="0" >
<stop  offset="0" style="stop-color:#A7907A;stop-opacity:1" />
<stop  offset="1" style="stop-color:#D9CFC6;stop-opacity:1" />
</linearGradient>
<path style="fill:url(#LinearGradID_558) " d="M4.65,-3.2L5.2 -3.5L5.3 -3.25L4.85 -3.05L4.75 -3L4.65 -3.2" />
<linearGradient
id="LinearGradID_559" gradientUnits="userSpaceOnUse" gradientTransform="matrix(0.000152588, 0, -3.05176e-005, 0.00157166, 4.4, -0.95)" spreadMethod ="pad" x1="-819.2" y1="0" x2="819.2" y2="0" >
<stop  offset="0" style="stop-color:#A7907A;stop-opacity:1" />
<stop  offset="1" style="stop-color:#D9CFC6;stop-opacity:1" />
</linearGradient>
<path style="fill:url(#LinearGradID_559) " d="M4.35,-1.3L4.35 -1.7L4.35 -2L4.6 -2.05L4.55 -2.2L4.6 -2.2L4.6 -2.05L4.6 -1.85L4.6 -1.4L4.55 -0.85L4.35 -0.75L4.3 -0.7L4.35 -1.3M4.5,-0.55L4.4 -0.55L4.45 -0.7L4.5 -0.7L4.5 -0.55M4.55,0.35L4.3 0.35L4.3 -0.35L4.35 -0.3L4.5 -0.2L4.5 -0.15L4.55 -0.15L4.55 0.35M4.45,-0.35L4.4 -0.45L4.5 -0.45L4.5 -0.3L4.45 -0.35" />
<path style="fill:#CC6666;fill-opacity:1" d="M4.55,-0.55L4.55 -0.75L4.5 -0.7L4.45 -0.7L4.4 -0.55L4.5 -0.55L4.55 -0.55M4.85,-0.55L4.85 -0.45L4.75 -0.3L4.65 -0.2L4.65 -0.15L4.55 -0.15L4.55 -0.2L4.4 -0.3L4.35 -0.45L4.3 -0.45L4.3 -0.55L4.35 -0.55L4.4 -0.75L4.55 -0.85L4.6 -0.85L4.75 -0.75L4.85 -0.55M4.5,-0.45L4.4 -0.45L4.45 -0.35L4.5 -0.3L4.55 -0.25L4.55 -0.45L4.5 -0.45M4.7,-0.55L4.75 -0.55L4.8 -0.55L4.75 -0.65L4.7 -0.7L4.7 -0.75L4.65 -0.75L4.65 -0.7L4.65 -0.55L4.7 -0.55M4.65,-0.45L4.65 -0.3L4.65 -0.25L4.7 -0.35L4.75 -0.35L4.8 -0.45L4.75 -0.45L4.7 -0.45L4.65 -0.45" />
<path style="fill:#8B2E2E;fill-opacity:1" d="M4.3,-0.7L4.35 -0.75L4.55 -0.85L4.4 -0.75L4.35 -0.55L4.3 -0.55L4.3 -0.7M4.5,-0.55L4.5 -0.7L4.55 -0.75L4.55 -0.55L4.5 -0.55M4.3,-0.45L4.35 -0.45L4.4 -0.3L4.55 -0.2L4.55 -0.15L4.5 -0.15L4.5 -0.2L4.35 -0.3L4.3 -0.35L4.3 -0.45L4.25 -0.45L4.25 -0.55L4.3 -0.55L4.3 -0.45M4.55,-0.45L4.55 -0.25L4.5 -0.3L4.5 -0.45L4.55 -0.45M4.75,-0.55L4.7 -0.55L4.7 -0.7L4.65 -0.7L4.65 -0.75L4.7 -0.75L4.7 -0.7L4.75 -0.65L4.75 -0.55M4.75,-0.35L4.7 -0.35L4.65 -0.25L4.65 -0.3L4.7 -0.35L4.7 -0.45L4.75 -0.45L4.75 -0.35" />
</g>
</svg>
