<?xml version="1.0" encoding="utf-8"?>
<svg version="1.1" id="Layer_1"
xmlns="http://www.w3.org/2000/svg"
xmlns:xlink="http://www.w3.org/1999/xlink"
xmlns:author="http://www.sothink.com"
width="50px" height="31px"
xml:space="preserve">
<g id="250" transform="matrix(1, 0, 0, 1, 25, 15)">
<path style="fill:#977859;fill-opacity:1" d="M22.05,12.05L22 12.05L22 -15L-24.95 -15L22.05 -15L22.05 12.05" />
<path style="fill:#9DD6DD;fill-opacity:0.6" d="M-22.2,12.05L-22.2 -12.25L22 -12.25L22 12.05L-22.2 12.05" />
<path style="fill:#D1EAED;fill-opacity:1" d="M-22.2,12.05L22 12.05L22.05 12.05L22.05 -15L25 -15L25 15.05L-25 15.05L-25 12.05L-22.2 12.05" />
<path style="fill:#42AEBD;fill-opacity:1" d="M-25,12.05L-25 -15L-24.95 -15L22 -15L22 12.05L22 -12.25L-22.2 -12.25L-22.2 12.05L-25 12.05" />
<path style="fill:none;stroke-width:1;stroke-linecap:round;stroke-linejoin:round;stroke-miterlimit:3;stroke:#FF9900;stroke-opacity:1" d="M7.05,-3L2 2.05L7 7.05M9.95,10.1L-6.05 10.1L-6.05 -5.95L9.95 -5.95L9.95 10.1M-2.95,7.05L2 2.05L-2.9 -2.85" />
</g>
</svg>
