<?xml version="1.0" encoding="utf-8"?>
<svg version="1.1" id="Layer_1"
xmlns="http://www.w3.org/2000/svg"
xmlns:xlink="http://www.w3.org/1999/xlink"
xmlns:author="http://www.sothink.com"
width="27px" height="25px"
xml:space="preserve">
<g id="37" transform="matrix(1, 0, 0, 1, 13.85, 12.35)">
<path style="fill:#D1EAED;fill-opacity:1" d="M3.9,11.05Q1.55 6.9 0.55 3.5L0.45 3.5L0.05 1.6L-0.1 0.05Q-5.2 0.15 -11.1 -3.95L-3.9 -11.15Q0.45 -4.1 0.1 -0.15L1.3 -0.05L1.9 0.05L1.35 0L2.35 0.2L2.4 0.25L2.85 0.3L3.65 0.4Q5.15 0.8 6.7 1.45L7.5 1.85Q9.3 2.65 11.1 3.85L3.9 11.05M5,1.55L4.8 1.45L4.5 1.35L3.1 0.85Q1.85 0.5 2.5 0.75Q3.05 0.9 4 1.45L4.15 1.5L4.45 1.6L4.65 1.7L4.8 1.75L4.9 1.85L5.05 1.9L5.3 1.95L5.4 2.05L5.75 2.2L5.8 2.25L5.9 2.35L6.4 2.55L6.5 2.65L7.05 3L7.3 3.05L8.25 3.6L9.25 4L9.9 4.15L10.3 4.15L10.35 4.1L10.3 4.05L10.25 4L8.95 3.2L5.9 1.85L5.85 1.8L5.35 1.7L5.2 1.65L5 1.55M-10.75,-4L-9.4 -3.35L-9.1 -3.25L-8.65 -3L-5.55 -1.6L-5.5 -1.65L-2.7 -0.65Q-1.5 -0.25 -2.15 -0.5L-4.3 -1.45L-4.6 -1.65L-4.7 -1.65L-4.8 -1.75Q-5.9 -2.25 -6.65 -2.7L-3.9 -2.85L-3.45 -3.3L-3.25 -3.5L-2.95 -3.8Q-2.6 -5.25 -2.95 -7L-3.1 -7.75Q-3.4 -9.15 -4.15 -10.6L-10.75 -4M-2.5,-6.55L-1.9 -5.15L-1.15 -3.5L-0.55 -2.1Q-0.4 -1.65 -0.6 -2.45L-1.25 -4.4L-2.05 -6.4L-2.6 -7.35L-2.5 -6.55M2.4,5.85L1.8 4.65L1.6 4.15L1.5 3.95L1.05 2.8Q0.85 2.3 1.05 3.1L1.7 5.05L2.55 7.1L2.7 7.45L3.05 8L3.1 7.95L3 7.25L2.4 5.85M0.1,0.25L0.1 0.35L0.15 0.3L0.15 0.2L0.1 0.25" />
<path style="fill:#0099CC;fill-opacity:1" d="M5.2,1.65L5.35 1.7L5.85 1.8L5.9 1.85L8.95 3.2L10.25 4L10.3 4.05L10.35 4.1L10.3 4.15L9.9 4.15L9.25 4L8.25 3.6L7.3 3.05L7.05 3L6.5 2.65L6.4 2.55L5.9 2.35L5.8 2.25L5.75 2.2L5.4 2.05L5.3 1.95L5.05 1.9L4.9 1.85L4.8 1.75L4.65 1.7L4.45 1.6L4.15 1.5L4 1.45Q3.05 0.9 2.5 0.75Q1.85 0.5 3.1 0.85L4.5 1.35L4.8 1.45L5 1.55L5.2 1.65M-9.95,-3.8L-9.9 -3.85L-9.55 -3.9L-8.85 -3.7L-6.9 -2.85L-6.7 -2.75L-6.65 -2.7Q-5.9 -2.25 -4.8 -1.75L-4.7 -1.65L-4.6 -1.65L-4.3 -1.45L-2.15 -0.5Q-1.5 -0.25 -2.7 -0.65L-5.5 -1.65L-5.55 -1.6L-8.65 -3L-9.1 -3.25Q-9.9 -3.65 -9.95 -3.8" />
<path style="fill:#000066;fill-opacity:1" d="M3.9,11.05L11.1 3.85L11.3 3.65L11.55 3.6L12.05 3.9L12.3 4.35L12.25 4.6L4.65 12.2L4.35 12.3L3.95 12L3.7 11.75L3.6 11.55L3.7 11.25L3.9 11.05M-5.25,-11.7L-4.65 -12.3L-4.35 -12.3L-3.9 -12.05L-3.65 -11.6L-3.7 -11.35L-3.9 -11.15L-11.1 -3.95L-11.3 -3.75L-11.6 -3.65L-12 -3.95L-12.3 -4.35L-12.25 -4.7L-5.25 -11.7" />
<path style="fill:#999999;fill-opacity:1" d="M0.6,3.85L0.55 3.5Q1.55 6.9 3.9 11.05L3.7 11.25L3.6 11.55L3.7 11.75L3.1 12.35L2.85 12.3L2.35 12.1L2.15 11.6L2.1 11.35L2.35 11.1Q-1.35 4.8 -1.6 0.15Q-6.75 0.2 -12.6 -3.85L-12.85 -3.6L-13.05 -3.6L-13.6 -3.85L-13.8 -4.35L-13.85 -4.6L-6.2 -12.25L-5.85 -12.3L-5.5 -11.95L-5.25 -11.7L-12.25 -4.7L-12.3 -4.35L-12 -3.95L-11.6 -3.65L-11.3 -3.75L-11.1 -3.95Q-5.2 0.15 -0.1 0.05L0.05 1.6L0.45 3.5L0.6 3.85" />
<path style="fill:#FFFFFF;fill-opacity:1" d="M-2.6,-7.35L-2.05 -6.4L-1.25 -4.4L-0.6 -2.45Q-0.4 -1.65 -0.55 -2.1L-1.15 -3.5L-1.9 -5.15L-2.5 -6.55L-2.6 -7.35M3,7.25L3.1 7.95L3.05 8L2.7 7.45L2.55 7.1L1.7 5.05L1.05 3.1Q0.85 2.3 1.05 2.8L1.5 3.95L1.6 4.15L1.8 4.65L2.4 5.85L3 7.25" />
<path style="fill:#FF9900;fill-opacity:1" d="M-9.1,-3.25L-9.4 -3.35L-10.75 -4L-4.15 -10.6Q-3.4 -9.15 -3.1 -7.75L-2.95 -7Q-2.6 -5.25 -2.95 -3.8L-3.25 -3.5L-3.45 -3.3L-3.9 -2.85L-6.65 -2.7L-6.7 -2.75L-6.9 -2.85L-8.85 -3.7L-9.55 -3.9L-9.9 -3.85L-9.95 -3.8Q-9.9 -3.65 -9.1 -3.25" />
</g>
</svg>
