<?xml version="1.0" encoding="utf-8"?>
<svg version="1.1" id="Layer_1"
xmlns="http://www.w3.org/2000/svg"
xmlns:xlink="http://www.w3.org/1999/xlink"
xmlns:author="http://www.sothink.com"
width="64px" height="45px"
xml:space="preserve">
<g id="44" transform="matrix(1, 0, 0, 1, 31.8, 22.45)">
<path style="fill:#DCC5B8;fill-opacity:1" d="M2.3,-21.1L2.35 -21.1L2.25 -21.05L2.25 -21.2L2.3 -21.1" />
<path style="fill:#98CF5F;fill-opacity:1" d="M13.6,-5.4L13.5 -5.35L2.45 -18.35L1.55 -19.4L2.55 -19.8L19.3 -22.45L31.7 -11.95L13.6 -5.4" />
<path style="fill:#FFFF00;fill-opacity:1" d="M5.25,-12.85L4.85 -9.4L3.45 -11.35L3.7 -14.55L5.25 -12.85M7.7,-6.25L6.3 -8.15L6.55 -11.4L8.05 -9.7L7.7 -6.25M23.05,-4.4L23.3 -8L25.85 -8.95L25.6 -5.5L23.05 -4.4" />
<path style="fill:#B38366;fill-opacity:1" d="M3.7,-14.55L3.45 -11.35L4.85 -9.4L5.25 -12.85L3.7 -14.55M13.15,3.2L2.15 -11.2L2.45 -18.35L13.5 -5.35L13.6 -5.4L13.15 3.2M8.05,-9.7L6.55 -11.4L6.3 -8.15L7.7 -6.25L8.05 -9.7M9.55,-1.7L11.5 0.95L12 -3.8L9.9 -6.2L9.55 -1.7" />
<linearGradient
id="LinearGradID_33" gradientUnits="userSpaceOnUse" gradientTransform="matrix(0.00102234, 0, 0, 0.00318909, 0.55, -8.1)" spreadMethod ="pad" x1="-819.2" y1="0" x2="819.2" y2="0" >
<stop  offset="0.243137" style="stop-color:#916648;stop-opacity:1" />
<stop  offset="1" style="stop-color:#DCC7B8;stop-opacity:1" />
</linearGradient>
<path style="fill:url(#LinearGradID_33) " d="M0.6,-8.1L1.4 -6.95L1.4 -5.45L0.95 -5Q0.35 -4.9 -0.25 -5.45L-0.25 -9.2L0.6 -8.1" />
<path style="fill:#AA7555;fill-opacity:1" d="M3.05,-3.05L3 -3L3 -3.1L3.05 -3.05" />
<path style="fill:#003300;fill-opacity:1" d="M9.9,-6.2L12 -3.8L11.5 0.95L9.55 -1.7L9.9 -6.2" />
<path style="fill:#805740;fill-opacity:1" d="M13.6,-5.4L31.7 -11.95L31.8 -12L31.2 -4.25L28 -2.8L26.3 -2L15.35 3L13.65 3.75L13.55 3.8L13.15 3.2L13.6 -5.4M19.1,-3L21.6 -4.15L21.85 -7.55L19.3 -6.65L19.1 -3M17.65,-5.8L15.1 -4.9L14.9 -1.25L17.4 -2.35L17.65 -5.8M25.6,-5.5L25.85 -8.95L23.3 -8L23.05 -4.4L25.6 -5.5" />
<path style="fill:#D2B8A6;fill-opacity:1" d="M-21.1,15.45L-31.8 -1.85L-29.3 -2.5L-30.75 -1.65L-30.85 -0.85L-29.3 1L-26.7 -0.5L-17.45 14.3L-19.6 13.2L-19.85 13.2L-21.1 14.6L-21.1 15.25L-21.1 15.35L-21.1 15.45M-24.7,-2.55L-25.85 -3.8L1.15 -12.55L2.15 -11.2L13.15 3.2L13.55 3.8L13.65 3.9L13.85 4.2L-16.45 18.05L-15 16.3L-15.05 15.5L-15.65 15.2L3.15 6.6L3.15 6.65L3.4 6.55L-7 -7.9L-24.7 -2.1L-24.7 -2.55M-0.2,-9.7L-0.25 -9.8L-0.4 -10L-5.15 -8.5L-4.95 -8.15L5.15 5.7L9.9 3.55L-0.2 -9.7M-16.6,18.1L-18.8 19.1L-21.05 15.5L-16.6 18.1" />
<linearGradient
id="LinearGradID_34" gradientUnits="userSpaceOnUse" gradientTransform="matrix(0.00102234, 6.10352e-005, -0.000183105, 0.00318909, 27.15, -2.55)" spreadMethod ="pad" x1="-819.2" y1="0" x2="819.2" y2="0" >
<stop  offset="0.243137" style="stop-color:#916648;stop-opacity:1" />
<stop  offset="1" style="stop-color:#DCC7B8;stop-opacity:1" />
</linearGradient>
<path style="fill:url(#LinearGradID_34) " d="M28,-2.8L27.85 0.1Q27.4 0.6 26.95 0.55Q26.55 0.45 26.15 0L26.3 -2L28 -2.8" />
<linearGradient
id="LinearGradID_35" gradientUnits="userSpaceOnUse" gradientTransform="matrix(0.00102234, 6.10352e-005, -0.000183105, 0.00318909, 14.5, 2.5)" spreadMethod ="pad" x1="-819.2" y1="0" x2="819.2" y2="0" >
<stop  offset="0.243137" style="stop-color:#916648;stop-opacity:1" />
<stop  offset="1" style="stop-color:#DCC7B8;stop-opacity:1" />
</linearGradient>
<path style="fill:url(#LinearGradID_35) " d="M15.35,3L15.25 5.15Q14.8 5.6 14.35 5.55Q13.95 5.5 13.55 5.05L13.6 4.65L13.85 4.55L13.85 4.2L13.65 3.9L13.65 3.75L15.35 3" />
<linearGradient
id="LinearGradID_36" gradientUnits="userSpaceOnUse" gradientTransform="matrix(0.00102234, 0, 0, 0.00318909, 11.45, 6.05)" spreadMethod ="pad" x1="-819.2" y1="0" x2="819.2" y2="0" >
<stop  offset="0.243137" style="stop-color:#916648;stop-opacity:1" />
<stop  offset="1" style="stop-color:#DCC7B8;stop-opacity:1" />
</linearGradient>
<path style="fill:url(#LinearGradID_36) " d="M12.3,5.3L12.3 8.65L11.65 9.15L11.45 9.15L10.65 8.65L10.65 6.05L12.3 5.3" />
<path style="fill:#916648;fill-opacity:1" d="M-29.15,3.3L-29.15 3.15L-31.8 -1.15L-31.8 -1.85L-21.1 15.45L-21.1 15.5L-21.05 15.5L-18.8 19.1L-16.6 18.1L-16.55 18.15L-16.45 18.05L13.85 4.2L13.85 4.55L13.6 4.65L12.3 5.25L12.3 5.3L10.65 6.05L6.05 8.15L4.4 8.9L4.4 8.95L-16.6 18.55L-18.25 19.35L-19 19.7L-27.95 5.3L-29.15 3.3M9.9,3.55L9.4 3.75L0.6 -8.1L-0.25 -9.2L-0.55 -9.55L-4.95 -8.15L-5.15 -8.5L-0.4 -10L-0.25 -9.8L-0.25 -9.7L-0.2 -9.7L9.9 3.55M-5.55,-5.3L-5.55 -5.35L-7.2 -7.6L-7.2 -7.4L-24.75 -1.75L-24.75 -1.8L-24.7 -1.9L-24.7 -2.1L-7 -7.9L3.4 6.55L3.15 6.65L3.15 6.6L-5.55 -5.3" />
<linearGradient
id="LinearGradID_37" gradientUnits="userSpaceOnUse" gradientTransform="matrix(0.00102234, 0, 0, 0.00318909, 5.2, 8.9)" spreadMethod ="pad" x1="-819.2" y1="0" x2="819.2" y2="0" >
<stop  offset="0.243137" style="stop-color:#916648;stop-opacity:1" />
<stop  offset="1" style="stop-color:#DCC7B8;stop-opacity:1" />
</linearGradient>
<path style="fill:url(#LinearGradID_37) " d="M6.05,8.15L6.05 11.5L5.4 12L5.2 12L4.4 11.5L4.4 8.95L4.4 8.9L6.05 8.15" />
<path style="fill:#6D4A36;fill-opacity:1" d="M-25,-2.25L-24.7 -2.55L-24.7 -2.1L-24.7 -1.9L-24.75 -1.8L-24.75 -1.75L-24.75 -1.65L-26.7 -0.5L-29.3 1L-30.85 -0.85L-30.75 -1.65L-30.55 -1.4L-29.3 0.25L-25 -2.25M-21.05,15.5L-21.1 15.5L-21.1 15.45L-21.1 15.35L-21.1 15.25L-21.1 14.6L-20.8 14.9L-16.55 17.4L-15.3 15.75L-15.05 15.5L-15 16.3L-16.45 18.05L-16.55 18.15L-16.6 18.1L-21.05 15.5" />
<path style="fill:#BA8D74;fill-opacity:1" d="M-24.7,-2.55L-25 -2.25L-26.25 -3.5L-30.55 -1.4L-30.75 -1.65L-26.25 -3.95L-26 -3.95L-25.85 -3.8L-24.7 -2.55M-15.65,15.2L-15.05 15.5L-15.3 15.75L-19.55 13.65L-20.8 14.9L-21.1 14.6L-19.85 13.2L-19.6 13.2L-17.45 14.3L-15.65 15.2" />
<linearGradient
id="LinearGradID_38" gradientUnits="userSpaceOnUse" gradientTransform="matrix(0.00102234, 0, 0, 0.00318909, -6.4, -6.5)" spreadMethod ="pad" x1="-819.2" y1="0" x2="819.2" y2="0" >
<stop  offset="0.243137" style="stop-color:#916648;stop-opacity:1" />
<stop  offset="1" style="stop-color:#DCC7B8;stop-opacity:1" />
</linearGradient>
<path style="fill:url(#LinearGradID_38) " d="M-7.2,-7.4L-7.2 -7.6L-5.55 -5.35L-5.55 -5.3L-5.55 -3.85L-6 -3.4Q-6.6 -3.3 -7.2 -3.85L-7.2 -7.4" />
<linearGradient
id="LinearGradID_39" gradientUnits="userSpaceOnUse" gradientTransform="matrix(0.00102234, 0, 0, 0.00318909, -17.45, 19.25)" spreadMethod ="pad" x1="-819.2" y1="0" x2="819.2" y2="0" >
<stop  offset="0.243137" style="stop-color:#916648;stop-opacity:1" />
<stop  offset="1" style="stop-color:#DCC7B8;stop-opacity:1" />
</linearGradient>
<path style="fill:url(#LinearGradID_39) " d="M-16.6,18.55L-16.6 21.9L-17.35 22.4Q-17.8 22.35 -18.25 21.9L-18.25 19.35L-16.6 18.55" />
<linearGradient
id="LinearGradID_40" gradientUnits="userSpaceOnUse" gradientTransform="matrix(0.00102234, 0, 0, 0.00318909, -28.4, 2.3)" spreadMethod ="pad" x1="-819.2" y1="0" x2="819.2" y2="0" >
<stop  offset="0.243137" style="stop-color:#916648;stop-opacity:1" />
<stop  offset="1" style="stop-color:#DCC7B8;stop-opacity:1" />
</linearGradient>
<path style="fill:url(#LinearGradID_40) " d="M-27.95,5.3Q-28.5 5.55 -29.15 4.9L-29.15 3.3L-27.95 5.3" />
<path style="fill:#000000;fill-opacity:1" d="M19.3,-6.65L21.85 -7.55L21.6 -4.15L19.1 -3L19.3 -6.65M17.4,-2.35L14.9 -1.25L15.1 -4.9L17.65 -5.8L17.4 -2.35" />
<path style="fill:#046B81;fill-opacity:1" d="M-29.3,0.25L-30.55 -1.4L-26.25 -3.5L-25 -2.25L-29.3 0.25M-20.8,14.9L-19.55 13.65L-15.3 15.75L-16.55 17.4L-20.8 14.9" />
</g>
</svg>
