<?xml version="1.0" encoding="utf-8"?>
<svg version="1.1" id="Layer_1"
xmlns="http://www.w3.org/2000/svg"
xmlns:xlink="http://www.w3.org/1999/xlink"
xmlns:author="http://www.sothink.com"
width="30px" height="25px"
xml:space="preserve">
<g id="97" transform="matrix(1, 0, 0, 1, 14.9, 12.05)">
<path style="fill:#021F3A;fill-opacity:1" d="M11.95,-6.55L11.4 -6.2L11.5 -7.1L11.85 -7.7L12.15 -7.5L11.95 -6.55M10.6,-9.4L9.25 -9.5L10.55 -11.9L10.6 -9.4M9.3,-7.35L9.35 -7.35L9.3 -7.3L9.3 -7.35M11.9,5L14.7 5.35L12.3 6.3L11.9 5M-8.05,-4.75L-7.5 -3.3Q-8.9 -1.65 -9.25 -4.15L-9.3 -5.05L-7.95 -5.45L-8.05 -4.75M-8.3,5.55L-7.45 5.6L-5.55 5.9L-5.4 6.25Q-5.25 6.55 -5.7 6.5L-6.25 6.7L-7.9 6.85L-8.3 5.55" />
<path style="fill:#030B1D;fill-opacity:1" d="M6.2,-5.05L5.65 -4.55L5.5 -4.45L6.25 -7.2L2.7 -9.55L7.6 -8.4L9.05 -9.1L8.7 -8.3L8.85 -7.35L8 -7.15L7.4 -6.95L7.15 -6.45L6.2 -5.05M9.7,5.85L9.3 5.7L9.3 5.4Q9.5 4.6 10.15 5.4L10.45 6.15L9.7 5.85M5.75,3.55L5.3 2.85Q5.15 1.8 6.2 2.25L6.4 2.35L6.65 2.35L11.45 5L10.55 5L6.65 4L5.75 3.55M-8.8,5.05L-8.75 5.55L-9.65 5.55L-14.9 3.35L-9.55 4.65L-8.8 5.05M12.1,6.7L12.3 6.7L12.15 7.05L11.75 7.15L12.1 6.7M11.65,7.2L11.6 7.3L11.45 7.2L11.65 7.2M8.4,6.7L7.95 6.7L7.95 7.15L7.85 7.15Q6.8 5.95 8.75 6.15L8.4 6.7M-7.3,-6L-7.95 -5.9L-7.95 -6.8L-7.95 -6.95L-7.95 -7.15L-7.9 -7.8L-7.25 -9.15L-7.15 -10L-5.75 -12.05L-5.75 -10L-6.25 -9L-6.7 -7.85L-6.9 -7.35L-7.15 -6.5L-7.3 -6" />
<path style="fill:#021A34;fill-opacity:1" d="M7.95,-6.15Q8.3 -5.9 9.5 -5.55L9.25 -5.35Q8.4 -5 9.3 -4.75L8.4 -2.95L8.5 -3.3Q9.35 -4.4 7.95 -4.3L7.15 -6.45L7.95 -6.15M9.3,-7.35L9.3 -7.3L9.35 -7.35Q10.5 -8.4 9.1 -8.2L8.7 -8.3L9.05 -9.1L9.25 -9.5L10.6 -9.4L11.65 -8.5L12.05 -8.35Q13.15 -7.95 12.9 -7L12.15 -7.5L11.85 -7.7L11.5 -7.1L8.15 -6.75L8 -7.15L8.85 -7.35L9.3 -7.35M10.45,6.15Q11.2 6.35 10.65 5.4L10.55 5L11.45 5L11.7 5L11.75 5L11.9 5L12.3 6.3L12.1 6.3L12.1 6.7L11.75 7.15L11.65 7.2L11.45 7.2L11.5 7.4L11.9 7.6L11 9.4L11.1 9.05Q11.95 7.95 10.55 8.05L9.7 5.85L10.45 6.15M-7.9,6.85L-8.3 8.15L-9.2 9.95L-8.95 9.4Q-8.4 8.5 -9.65 8.6L-10.5 6.4Q-9.6 6.85 -9.35 6.7L-9.35 6.35L-9.65 5.55L-8.75 5.55L-8.6 5.55L-8.3 5.55L-7.9 6.85M-9,-7.35L-9.15 -6.95L-7.95 -6.8L-7.95 -5.9L-7.95 -5.45L-9.3 -5.05L-10.6 -5.45L-12.35 -6.35L-12 -6.25Q-10.95 -5.4 -11.05 -6.8L-8.85 -7.65L-9 -7.35" />
<path style="fill:#020813;fill-opacity:1" d="M7.05,-3.4L7.1 -2.95L6.2 -5.05L7.15 -6.45L7.95 -4.3Q6.7 -4.55 7.05 -3.4M11.4,-6.2L12.4 -5.75L9.85 -5.4L9.5 -5.55Q8.3 -5.9 7.95 -6.15L7.8 -6.3L8.15 -6.75L11.5 -7.1L11.4 -6.2M5.45,9.85Q5.45 9 6.45 9.1Q7.35 8.9 7.35 9.65Q7.3 10.75 6.15 10.6Q5.45 10.55 5.45 9.85M-11.85,7.75Q-11.85 7.2 -11.45 6.8Q-11.05 6.4 -10.5 6.4L-9.65 8.6L-10.1 8.6Q-10.9 8.7 -10.5 9.95L-10.75 9.95Q-10.45 7.85 -11.85 7.75M10.55,8.05L10.1 8.05Q9.65 8 9.65 8.7L8.35 7.2L8.4 6.7L8.75 6.15L9.3 5.7L9.7 5.85L10.55 8.05M7.5,0.1L9.3 0.15L9.3 1.45L8.85 1.5Q7.35 1.85 7.5 0.55L7.5 0.1M-9.1,-8.7Q-8.65 -8.45 -8.65 -8.1L-8.6 -7.65L-8.85 -7.65L-11.05 -6.8L-11.1 -7.25Q-11.2 -8 -12.35 -7.65L-12.35 -7.9Q-10.3 -7.6 -10.15 -9L-9.1 -8.7" />
<path style="fill:#031221;fill-opacity:1" d="M-0.95,2.45L-1.8 0.1L-1.75 -0.35L-1.4 -0.75L-0.6 0.1L-0.6 2.5L-0.95 2.45" />
<path style="fill:#021226;fill-opacity:1" d="M3.05,-4.5L1.35 -3.4L0.4 -4.1L0.05 -5.15L3.05 -4.5" />
<path style="fill:#012043;fill-opacity:1" d="M5.5,-4.45L5.65 -4.55Q5.3 -2.5 7.05 -2.75L7.1 -2.95L8.4 -2.95L7.5 -1.65L7.1 -1.65L4.9 -1.2L5 -1.5Q5.9 -2.05 4.45 -2.1L5.5 -4.45" />
<path style="fill:#033B69;fill-opacity:1" d="M-0.4,-4.3L0.4 -4.1L1.35 -3.4L1.35 -2.9Q1.65 -1.5 3.55 -2.1L2.25 -1.65L0.5 -2.1L0.5 -2.55L0.35 -2.85L0.05 -2.95L-0.4 -4.3" />
<path style="fill:#010811;fill-opacity:1" d="M-0.4,-4.3L-2.15 -5.15L0.05 -5.15L0.4 -4.1L-0.4 -4.3" />
<path style="fill:#040514;fill-opacity:1" d="M0.05,-0.35L0.5 -2.1L2.25 -1.65L2.25 -0.75L0.05 -0.35" />
<path style="fill:#083463;fill-opacity:1" d="M-1.7,-1.2L-1.3 -2.95L0.05 -2.95L0.35 -2.85L0.5 -2.55L-1.7 -1.2" />
<path style="fill:#00111F;fill-opacity:1" d="M0.5,-2.55L0.5 -2.1L0.05 -0.35L-0.6 0.1L-1.4 -0.75L-1.7 -1.2L0.5 -2.55M-1.8,0.1L-2.15 0.1L-2.15 -0.35L-1.75 -0.35L-1.8 0.1" />
<path style="fill:#02132E;fill-opacity:1" d="M4.45,-2.1Q5.9 -2.05 5 -1.5L4.9 -1.2L2.25 -0.75L2.25 -1.65L3.55 -2.1L4.45 -2.1" />
<path style="fill:#030914;fill-opacity:1" d="M10.15,-4.75L10.6 -2.55L9.3 -1.2L7.5 -1.65L8.4 -2.95L9.3 -4.75L10.15 -4.75M12,-9.3Q13.05 -10.25 13.85 -9.05L14.15 -8.85Q14.45 -7.75 14.15 -6.85Q13.45 -4.85 12.9 -7Q13.15 -7.95 12.05 -8.35L11.65 -8.5L12 -9.3M-7,10.35L-7.55 10.85L-8.75 11.75Q-10.9 11.25 -9.2 9.95L-8.3 8.15L-7.45 8.15L-7 10.35M11.9,7.6L12.75 7.6L13.2 9.8Q12.3 10.5 11.4 10.6Q9.25 10.75 11 9.4L11.9 7.6M-10.6,-4.6Q-11.25 -3.3 -12.4 -4.05L-12.8 -4.15Q-13.5 -5.05 -13.55 -5.9Q-13.6 -8.1 -12.35 -6.35L-10.6 -5.45L-10.6 -4.6" />
<path style="fill:#030104;fill-opacity:1" d="M7.1,-2.95L7.05 -2.75Q5.3 -2.5 5.65 -4.55L6.2 -5.05L7.1 -2.95M9.85,-5.4L12.4 -5.75L12.6 -5.65Q12.2 -4.45 11.2 -4.65L10.95 -4.75L9.85 -5.4M-10.75,9.95L-10.5 9.95L-10.55 10.15Q-12.55 10.4 -11.85 7.75Q-10.45 7.85 -10.75 9.95M9.65,8.7L9.7 9.4L9.65 9.6Q7.65 9.85 8.35 7.2L9.65 8.7M-12.6,-7.7Q-12.85 -9.7 -10.15 -9Q-10.3 -7.6 -12.35 -7.9L-12.35 -7.65L-12.6 -7.7" />
<path style="fill:#023668;fill-opacity:1" d="M9.3,0.15L7.5 0.1L7.5 -0.1Q9.3 -0.2 7.1 -1.65L7.5 -1.65L9.3 -1.2L9.3 0.15" />
<path style="fill:#021D3D;fill-opacity:1" d="M10.95,-4.75L11.2 -4.65L12.15 -4.1L12.3 -3.3L11.65 -2.7L10.6 -2.55L10.15 -4.75L10.95 -4.75M13.85,-9.05Q13.05 -10.25 12 -9.3Q12.1 -10.05 12.35 -10.45L13 -10.9L13.65 -10.7L14.1 -9.85L14.15 -8.85L13.85 -9.05M12.75,7.6L14.05 7.8Q14.7 8.05 14.85 8.5Q15 8.9 14.6 9.3Q14.15 9.65 13.2 9.8L12.75 7.6M-11.9,-2.85L-12.8 -4.15L-12.4 -4.05Q-11.25 -3.3 -10.6 -4.6Q-10.4 -2.8 -11.9 -2.85M-7.45,8.15L-6.85 8.15L-6.55 8.15L-5.75 9.35Q-4.45 9.9 -6.15 10.15L-6.55 10.1L-6.85 10.25L-7 10.35L-7.45 8.15" />
<path style="fill:#03172E;fill-opacity:1" d="M10.45,6.15L10.15 5.4L10.65 5.4Q11.2 6.35 10.45 6.15M11.75,4.95L11.75 5L11.7 5L11.75 4.95M12.1,6.7L12.3 6.7L12.1 6.7" />
<path style="fill:#023055;fill-opacity:1" d="M11.45,7.2L11.6 7.3L11.5 7.4L11.45 7.2M8.35,7.2L7.95 7.15L7.95 6.7L8.4 6.7L8.35 7.2" />
<path style="fill:#023558;fill-opacity:1" d="M6.65,2.3L6.75 2.05Q7.35 1.7 6.65 1L7.5 0.55Q7.35 1.85 8.85 1.5L9.3 1.45L6.65 2.3" />
<path style="fill:#01132A;fill-opacity:1" d="M4.45,3.2L4.45 1.85Q6.3 0.45 4.15 0.9Q3.4 0.95 4 1.85L2.7 0.1L5.3 0.1L6.65 1Q7.35 1.7 6.75 2.05L6.65 2.3L6.4 2.35L6.2 2.25Q5.15 1.8 5.3 2.85Q4.85 2.95 4.45 3.2" />
<path style="fill:#023160;fill-opacity:1" d="M5.75,3.55L6.65 4Q7.9 5.45 6.4 5.8L6.15 5.4Q4.6 4 4.45 5.85L4 4.5Q5.6 4.75 5.75 3.55M6.4,2.35L6.65 2.3L6.65 2.35L6.4 2.35" />
<path style="fill:#02050F;fill-opacity:1" d="M4.45,3.2Q4.85 2.95 5.3 2.85L5.75 3.55Q5.6 4.75 4 4.5L3.55 4.05L3.1 4.05L1.8 3.2L4.45 3.2" />
<path style="fill:#040305;fill-opacity:1" d="M4,1.85Q3.4 0.95 4.15 0.9Q6.3 0.45 4.45 1.85L4 1.85" />
<path style="fill:#040A17;fill-opacity:1" d="M-6.1,1.85L-0.95 2.45L-0.6 2.5L0.5 3.2L-2.15 4.05L-2.6 5.4L-4.8 4.95Q-5.45 4.4 -4.1 4.4Q-3.85 4.25 -4 4.15Q-4.9 3.3 -6.1 2.75L-6.1 2.3L-6.1 1.85" />
<path style="fill:#041F37;fill-opacity:1" d="M0.05,4.05L-2.15 4.05L0.5 3.2L1.8 3.2L3.1 4.05L2.7 4.05Q1.05 3.45 1.35 4.95L0.5 4.95L0.05 4.05" />
<path style="fill:#012D5A;fill-opacity:1" d="M-2.6,5.85L-2.6 5.4L-2.15 4.05Q-1.55 5.8 -0.05 4.4L0.05 4.05L0.5 4.95L0.05 5.85L-2.6 5.85" />
<path style="fill:#040206;fill-opacity:1" d="M1.35,5.85L0.5 7.6L0.05 5.85L0.5 4.95L1.35 4.95L1.35 5.85" />
<path style="fill:#011327;fill-opacity:1" d="M3.55,6.7L1.35 5.85L1.35 4.95L3.55 4.05L4 4.5L4.45 5.85Q4.4 6.55 5.3 6.5L5.3 6.7L3.55 6.7" />
<path style="fill:#021326;fill-opacity:1" d="M0.05,7.6L0.5 7.6L1.35 5.85Q1.25 7.45 3.1 7.15L3.55 7.15L3.1 8.05L1.8 8.45L0.05 8.05L0.05 7.6" />
<path style="fill:#011420;fill-opacity:1" d="M5.3,6.7L7.1 8.05L3.1 8.05L3.55 7.15L3.55 6.7L5.3 6.7" />
<path style="fill:#021831;fill-opacity:1" d="M2.7,11.1L1.8 8.45L3.1 8.05L3.55 9.8L2.7 11.1" />
<path style="fill:#03061D;fill-opacity:1" d="M-2.6,5.85L0.05 5.85L0.5 7.6L0.05 7.6L-2.6 5.85" />
<path style="fill:#020208;fill-opacity:1" d="M0.05,7.6L0.05 8.05L-0.4 8.45L-1.3 8.05L-4.35 7.6L-4.25 7.3Q-2.7 5.9 -4.8 4.95L-2.6 5.4L-2.6 5.85L0.05 7.6" />
<path style="fill:#033A64;fill-opacity:1" d="M6.15,10.6L2.7 11.1L3.55 9.8L5.45 9.85Q5.45 10.55 6.15 10.6" />
<path style="fill:#043258;fill-opacity:1" d="M-4.15,-8.75Q-3.5 -8.25 -2.6 -8.25L-3.5 -6.5L-5.25 -6.95L-5.25 -7.35L-4.7 -8.4L-4.8 -9.8L-4.15 -8.75" />
<path style="fill:#011833;fill-opacity:1" d="M-6.1,-6.95L-6.9 -7.35L-6.7 -7.85L-6.6 -7.9Q-5.15 -8.75 -6.25 -9L-5.75 -10L-4.8 -9.8L-4.7 -8.4L-5.25 -7.35L-6.1 -6.95M-7.25,-9.15Q-8.4 -8.8 -7.85 -9.75L-7.15 -10L-7.25 -9.15" />
<path style="fill:#000D1B;fill-opacity:1" d="M-3.5,-6.5L-2.6 -8.25Q-0.7 -7.7 -3.05 -6.65L-3.5 -6.5" />
<path style="fill:#07050E;fill-opacity:1" d="M-7.95,-7.15L-9 -7.35L-8.85 -7.65L-8.6 -7.65L-8.65 -8.1L-7.9 -7.8L-7.95 -7.15M-7.15,-6.5L-6.9 -7.35L-6.1 -6.95L-7.15 -6.5" />
<path style="fill:#02132C;fill-opacity:1" d="M-7.95,-7.15L-7.95 -6.95L-9.15 -6.95L-9 -7.35L-7.95 -7.15" />
<path style="fill:#021D3F;fill-opacity:1" d="M-4.8,-5.15L-7.3 -6L-7.15 -6.5L-6.1 -6.95L-5.25 -7.35L-5.25 -6.95L-4.8 -5.15" />
<path style="fill:#040513;fill-opacity:1" d="M-8.05,-4.75Q-5.65 -4.95 -7.15 -3.45L-7.5 -3.3L-8.05 -4.75" />
<path style="fill:#03040E;fill-opacity:1" d="M-5.7,-0.35Q-5.95 0.9 -6.75 0.1Q-7.5 -0.5 -8.6 -0.45L-8.6 -1.65L-6.55 -1.65L-5.7 -0.35" />
<path style="fill:#020303;fill-opacity:1" d="M-4.3,-0.55L-4.35 -0.35L-5.7 -0.35L-6.55 -1.65L-4.8 -1.65Q-0.45 -1.9 -4.3 -0.55" />
<path style="fill:#020713;fill-opacity:1" d="M-1.3,-3.4L-1.3 -2.95L-1.7 -1.2L-1.4 -0.75L-1.75 -0.35L-2.15 -0.35L-4.35 -0.35L-4.3 -0.55Q-0.45 -1.9 -4.8 -1.65L-4.8 -2.1L-1.3 -3.4" />
<path style="fill:#012D50;fill-opacity:1" d="M-4.8,-2.1Q-5.4 -3.6 -4 -4L-1.3 -3.4L-4.8 -2.1" />
<path style="fill:#011E3F;fill-opacity:1" d="M-6.1,7.6L-6.1 6.7L-5.7 6.5Q-5.25 6.55 -5.4 6.25L-5.55 5.9Q-4.75 6.05 -4.8 5.4L-4.8 4.95Q-2.7 5.9 -4.25 7.3L-4.35 7.6L-6.1 7.6" />
<path style="fill:#02030C;fill-opacity:1" d="M-9.55,4.5L-8.7 1.65Q-7.4 2.05 -7.9 3.15L-7.6 2.65Q-7.3 2 -6.1 2.3L-6.1 2.75Q-6.85 2.75 -7.35 3.4Q-7.9 4.05 -7.9 4.95L-9.55 4.5" />
<path style="fill:#012446;fill-opacity:1" d="M-6.1,2.3Q-7.3 2 -7.6 2.65L-7.9 3.15Q-7.4 2.05 -8.7 1.65L-6.1 1.85L-6.1 2.3" />
<path style="fill:#032044;fill-opacity:1" d="M-8.3,5.55L-8.6 5.55L-8.8 5.05L-9.55 4.65L-9.55 4.5L-7.9 4.95L-7.45 5.6L-8.3 5.55M-5.7,6.5L-6.1 6.7L-6.25 6.7L-5.7 6.5" />
<path style="fill:#02020C;fill-opacity:1" d="M-6.1,7.6L-6.55 7.6L-6.85 8.15L-7.45 8.15L-8.3 8.15L-7.9 6.85L-6.25 6.7L-6.1 6.7L-6.1 7.6" />
<path style="fill:#011532;fill-opacity:1" d="M-6.55,8.15L-6.85 8.15L-6.55 7.6L-6.55 8.15M-6.55,10.1L-6.55 10.25L-6.85 10.25L-6.55 10.1" />
<path style="fill:#030205;fill-opacity:1" d="M-8.95,9.4Q-9.3 9.35 -9.45 9.15L-9.65 8.6Q-8.4 8.5 -8.95 9.4M-9.35,6.7L-9.6 6.4L-9.35 6.35L-9.35 6.7" />
<path style="fill:#000203;fill-opacity:1" d="M-3.5,9.35L-4.8 10.25L-6.55 10.25L-6.55 10.1L-6.15 10.15Q-4.45 9.9 -5.75 9.35L-3.5 9.35" />
<path style="fill:#021D3B;fill-opacity:1" d="M-6.55,10.25L-4.8 10.25L-5.25 12L-7.55 10.85L-7 10.35L-6.85 10.25L-6.55 10.25" />
<path style="fill:#02304E;fill-opacity:1" d="M-2.85,8.1Q-4.35 8.35 -4.35 7.6L-1.3 8.05L-1.3 8.45Q-1.15 11.75 -2.6 9.8Q-1.05 8.55 -2.85 8.1" />
<path style="fill:#040918;fill-opacity:1" d="M-0.4,8.45L-0.75 11.65L-4.8 10.25L-3.5 9.35L-2.6 9.8Q-1.15 11.75 -1.3 8.45L-1.3 8.05L-0.4 8.45" />
</g>
</svg>
