<?xml version="1.0" encoding="utf-8"?>
<svg version="1.1" id="Layer_1"
xmlns="http://www.w3.org/2000/svg"
xmlns:xlink="http://www.w3.org/1999/xlink"
xmlns:author="http://www.sothink.com"
width="21px" height="14px"
xml:space="preserve">
<g id="102" transform="matrix(1, 0, 0, 1, 10.25, 6.95)">
<path style="fill:#BF9E7F;fill-opacity:1" d="M-0.35,4.25L0.15 3.9L-2.1 5.2L-2.1 5.25L-4.1 5.7L-6.5 5.75L-8.1 5.55L-8.7 5.3Q-9.05 3.6 -8.3 2.15L-7.6 1.35L-0.35 4.25M0.9,3.3L-6.4 0.4Q-4.4 -0.95 -0.55 -2.75L4.85 -0.2L5.25 -0.5L5.3 -0.55L5.4 -0.65L5.85 -1.05L5.8 -1.05L0.85 -3.4L5.75 -5.5L9.1 -3.95L7.2 -2.2L2.8 1.75L1.55 2.8L1.2 3.05L0.9 3.3" />
<path style="fill:#74523A;fill-opacity:1" d="M9.55,-4.15L7.2 -2.2L9.1 -3.95L5.75 -5.5L0.85 -3.4L-0.2 -3.9L-1.15 -3.05L-0.55 -2.75Q-4.4 -0.95 -6.4 0.4L-6.95 0.15L-8.2 1.1L-7.6 1.35L-8.3 2.15Q-9.05 3.6 -8.7 5.3L-8.1 5.55L-9.75 5.5L-10.05 5.35Q-10.6 2.55 -9.55 1.3Q-7 -1.7 5.9 -6.95L10.2 -4.85L9.55 -4.15" />
<path style="fill:#553D2B;fill-opacity:1" d="M0.15,3.9L0.15 3.85L0.2 3.8L0.35 3.7L0.95 3.3L0.9 3.3L1.2 3.05L1.55 2.8L2.8 1.75L7.2 -2.2L9.55 -4.15L10.2 -4.85L10.25 -4.9L10.25 -4.8L9.95 -3.6Q4.8 2.15 2 4.35Q-2.95 8.2 -7.95 6.45L-10.05 5.45L-9.75 5.5L-8.1 5.55L-6.5 5.75L-4.1 5.7L-2.1 5.25L-2.1 5.2L0.15 3.9" />
<path style="fill:#B38366;fill-opacity:1" d="M-7.6,1.35L-8.2 1.1L-6.95 0.15L-6.4 0.4L0.9 3.3L0.95 3.3L0.35 3.7L0.2 3.8L0.15 3.85L0.15 3.9L-0.35 4.25L-7.6 1.35M5.8,-1.05L5.85 -1.05L5.4 -0.65L5.3 -0.55L5.25 -0.5L4.85 -0.2L-0.55 -2.75L-1.15 -3.05L-0.2 -3.9L0.85 -3.4L5.8 -1.05" />
</g>
</svg>
