<?xml version="1.0" encoding="utf-8"?>
<svg version="1.1" id="Layer_1"
xmlns="http://www.w3.org/2000/svg"
xmlns:xlink="http://www.w3.org/1999/xlink"
xmlns:author="http://www.sothink.com"
width="114px" height="61px"
xml:space="preserve">
<g id="223" transform="matrix(1, 0, 0, 1, 57.05, 30.45)">
<linearGradient
id="LinearGradID_708" gradientUnits="userSpaceOnUse" gradientTransform="matrix(0.0613708, 0, 0, 0.0289917, -0.35, -0.8)" spreadMethod ="pad" x1="-819.2" y1="0" x2="819.2" y2="0" >
<stop  offset="0" style="stop-color:#D5DAF1;stop-opacity:0.6" />
<stop  offset="1" style="stop-color:#8E9DCA;stop-opacity:0.6" />
</linearGradient>
<path style="fill:url(#LinearGradID_708) " d="M17,16.2L17 15.25L17.05 15.25L17.05 16.2L17 16.2L17 16.25L-17.25 16.25L-17.25 16.2L17 16.2M-16.25,-18.05L-17.25 -18.05L-17.25 -18.1L-16.25 -18.1L-16.25 -18.05" />
<path style="fill:#374777;fill-opacity:1" d="M56.35,7.55L56.6 30.05L56.2 30.05L56.35 7.55" />
<path style="fill:#8E9DCA;fill-opacity:1" d="M-56.5,-29.95L-56.5 -30.05L50.05 -30.05L50.05 -29.95L-56.5 -29.95" />
<linearGradient
id="LinearGradID_709" gradientUnits="userSpaceOnUse" gradientTransform="matrix(0.0613708, 0, 0, 0.0289917, -0.35, -0.8)" spreadMethod ="pad" x1="-819.2" y1="0" x2="819.2" y2="0" >
<stop  offset="0" style="stop-color:#D5DAF1;stop-opacity:1" />
<stop  offset="1" style="stop-color:#8E9DCA;stop-opacity:1" />
</linearGradient>
<path style="fill:url(#LinearGradID_709) " d="M17,15.25L17 15.2L17.05 15.2L17.05 15.25L17 15.25" />
<path style="fill:#9DD6DD;fill-opacity:0.6" d="M-8.65,-18.05L-0.1 -18.05L8.45 -18.05L17 -18.05L17 -9.5L17 -0.95L17 7.6L17 15.2L17 15.25L17 16.2L-17.25 16.2L-17.25 16.25L17 16.25L17 16.2L17.05 16.2L17.05 15.25L17.05 15.2L17.05 7.6L17.05 -0.95L17.05 -9.5L17.05 -18.1L8.45 -18.1L-0.1 -18.1L-8.65 -18.1L-16.25 -18.1L-17.25 -18.1L-17.25 -18.05L-16.25 -18.05L-8.65 -18.05M-50.55,-24.5L50 -24.5L50 22.9L50 22.95L-50.55 22.95L-50.55 22.9L-50.55 -24.5M-3.6,-4.05L-11.45 -4.05L-11.45 0.55L-3.6 0.55L-3.6 6.65L4.9 -1.85L-3.6 -10.3L-3.6 -4.05" />
<path style="fill:#D1EAED;fill-opacity:1" d="M-50.55,22.9L-56.5 22.9L-56.5 -29.95L50.05 -29.95L50.05 22.9L50 22.9L50 -24.5L-50.55 -24.5L-50.55 22.9" />
<path style="fill:#42AEBD;fill-opacity:1" d="M56.2,30.05L-56.55 30.05L-56.55 -29.95L-56.5 -29.95L-56.5 22.9L-50.55 22.9L-50.55 22.95L50 22.95L50 22.9L50.05 22.9L50.05 -29.95L56.15 -29.95L56.35 7.55L56.2 30.05" />
<path style="fill:#FF9900;fill-opacity:1" d="M-3.6,-10.3L4.9 -1.85L-3.6 6.65L-3.6 0.55L-11.45 0.55L-11.45 -4.05L-3.6 -4.05L-3.6 -10.3" />
<path style="fill:none;stroke-width:1;stroke-linecap:round;stroke-linejoin:round;stroke-miterlimit:3;stroke:#FFFFFF;stroke-opacity:1" d="M56.2,30.05L-56.55 30.05L-56.55 -29.95L-56.5 -29.95L50.05 -29.95L56.15 -29.95L56.35 7.55L56.2 30.05z" />
<path style="fill:none;stroke-width:0.5;stroke-linecap:round;stroke-linejoin:round;stroke-miterlimit:3;stroke:#FF9900;stroke-opacity:1" d="M8.45,-18.1L8.45 -18.05L17 -18.05L17 -9.5L17.05 -9.5L17.05 -18.1L8.45 -18.1L-0.1 -18.1L-0.1 -18.05L8.45 -18.05M17.05,-9.5L17.05 -0.95L17.05 7.6L17.05 15.2L17.05 15.25L17.05 16.2L17 16.2L17 16.25L-17.25 16.25L-17.25 16.2L-17.25 -18.05L-17.25 -18.1L-16.25 -18.1L-8.65 -18.1L-0.1 -18.1M17.05,-0.95L17 -0.95L17 7.6L17.05 7.6M17,-0.95L17 -9.5M17,15.2L17 15.25L17 16.2L-17.25 16.2M17,15.2L17 7.6M-5.75,-7.25L-5.75 -14.25L10.75 -14.25L10.75 12.25L-5.75 12.25L-5.75 3.5M-17.25,-18.05L-16.25 -18.05L-8.65 -18.05L-0.1 -18.05M-8.65,-18.05L-8.65 -18.1M-3.6,-4.05L-11.45 -4.05L-11.45 0.55L-3.6 0.55L-3.6 6.65L4.9 -1.85L-3.6 -10.3L-3.6 -4.05" />
</g>
</svg>
