<?xml version="1.0" encoding="utf-8"?>
<svg version="1.1" id="Layer_1"
xmlns="http://www.w3.org/2000/svg"
xmlns:xlink="http://www.w3.org/1999/xlink"
xmlns:author="http://www.sothink.com"
width="30px" height="31px"
xml:space="preserve">
<g id="191" transform="matrix(1, 0, 0, 1, 15, 15.05)">
<path style="fill:#42AEBD;fill-opacity:1" d="M-12.3,12L-12.3 11.95L12 11.95L12 -12.3L12 -15L15 -15L15 15L-15 15L-15 12L-12.3 12" />
<path style="fill:#D1EAED;fill-opacity:1" d="M-12.3,-12.3L-12.3 11.95L-12.3 12L-15 12L-15 -15L12 -15L12 -12.3L-12.3 -12.3" />
<path style="fill:#9DD6DD;fill-opacity:1" d="M-15,-15L-15 -15.05L12 -15.05L12 -15L-15 -15" />
<path style="fill:#046B81;fill-opacity:1" d="M2.45,1.75L2.45 7.5L-2.8 7.5L-2.8 1.75L-8.1 1.7L-0.1 -8.55L7.9 1.8L2.45 1.75" />
<path style="fill:#9DD6DD;fill-opacity:0.6" d="M12,-12.3L12 11.95L-12.3 11.95L-12.3 -12.3L12 -12.3M7.9,1.8L-0.1 -8.55L-8.1 1.7L-2.8 1.75L-2.8 7.5L2.45 7.5L2.45 1.75L7.9 1.8" />
<path style="fill:none;stroke-width:1;stroke-linecap:round;stroke-linejoin:round;stroke-miterlimit:3;stroke:#046B81;stroke-opacity:1" d="M9.9,9.75L-10.1 9.75L-10.1 -10.25L9.9 -10.25L9.9 9.75z" />
</g>
</svg>
