<?xml version="1.0" encoding="utf-8"?>
<svg version="1.1" id="Layer_1"
xmlns="http://www.w3.org/2000/svg"
xmlns:xlink="http://www.w3.org/1999/xlink"
xmlns:author="http://www.sothink.com"
width="13px" height="25px"
xml:space="preserve">
<g id="33" transform="matrix(1, 0, 0, 1, 5.7, 12)">
<path style="fill:#000066;fill-opacity:1" d="M5.65,-10.8L5.4 -10.6L5.1 -10.6L-5.1 -10.6L-5.4 -10.6L-5.6 -10.8L-5.7 -11.3L-5.6 -11.8L-5.4 -12L5.4 -12L5.65 -11.8L5.75 -11.3L5.7 -11L5.65 -10.8M5.1,10.6L5.4 10.6L5.65 10.8L5.75 11.3L5.65 11.75L5.4 12L-4.55 12L-5.4 12L-5.6 11.75L-5.7 11.3L-5.6 10.8L-5.4 10.6L-5.1 10.6L5.1 10.6" />
<path style="fill:#0099CC;fill-opacity:1" d="M-1.85,-3.85L-2.05 -3.85L-2.35 -4.5L-2.5 -4.85L-2.8 -5.5L-4.05 -8.65L-4.4 -10.15L-4.3 -10.2L-4.05 -9.95L-3.7 -9.35L-2.95 -7.35L-2.85 -7.15L-2.7 -6.35L-2.5 -5.85L-2.45 -5.75L-2.45 -5.6L-2.35 -5.35L-2.05 -4.5L-1.85 -4L-1.8 -3.85L-1.85 -3.85M4.35,9.7L4.3 9.75L4.05 9.5L3.7 8.9L3.1 7.45L3.05 7.4L2.95 7.1L2.9 6.9L2.85 6.65L2.05 4.05L1.2 1.85Q0.9 1.2 1.5 2.35L2.75 5L2.8 5.05L4 8.15L4.35 9.25L4.35 9.7" />
<path style="fill:#D1EAED;fill-opacity:1" d="M-1.8,-3.8L-1.8 -3.7L-1.7 -3.55L-1.5 -3L-1.35 -2.7L-0.9 -1.75L-0.95 -1.75L-0.9 -1.6Q-0.7 -1.2 -1.1 -1.9L-1.65 -2.9L-1.55 -2.6L-1.45 -2.35L-1 -1.45L-0.95 -1.4L-0.2 -0.45L-0.05 -0.25L0.1 -0.25L0.15 -0.25L0.2 -0.35L0.25 -0.45L0.8 -1.2L1.35 -2.15L1.6 -2.75L1.75 -3.15L1.6 -2.9L1.1 -2.05L1 -2L1.4 -2.75L1.8 -3.85L1.95 -3.85L2.35 -4.75L2.4 -4.8L3.25 -6.85L3.5 -7.85L3.05 -7.3L2.45 -5.85L1.85 -4.15L1.75 -3.85L-1.8 -3.85L-1.85 -4L-2.05 -4.5L-2.35 -5.35L-2.45 -5.6L-2.45 -5.75L-2.5 -5.85L-2.7 -6.35L-2.85 -7.15L-2.95 -7.35L-3.7 -9.35L-4.05 -9.95L-4.3 -10.2L-4.4 -10.15L-4.05 -8.65L-2.8 -5.5L-2.5 -4.85L-2.35 -4.5L-2.05 -3.85L-1.85 -3.85L-1.8 -3.8M-5.1,10.6Q-3.15 2.5 -0.15 0L-1.3 -1.4L-0.9 -1L-1.5 -1.8L-1.5 -1.9L-1.8 -2.25L-2.25 -2.9Q-3.05 -4.25 -3.65 -5.85L-3.95 -6.65L-5.1 -10.6L5.1 -10.6Q3.85 -6 2.15 -2.9L2.2 -2.85L1.1 -1.2L0.15 0Q3.8 3.5 5.1 10.6L-5.1 10.6M-4.55,10.4L4.8 10.4L4.8 10.35L4.35 9.25L4 8.15L2.8 5.05L2.75 5L1.5 2.35Q0.9 1.2 1.2 1.85L2.05 4.05L2.85 6.65L2.9 6.9L2.95 7.1L3.05 7.4L0.8 5.6L0.15 5.6L0.15 5.45L0.15 4.65L0.15 1.9L0.1 1.35L0 0L-0.1 1.35L-0.15 2.15L-0.15 4.65L-0.15 5.6L-0.6 5.6Q-1.85 6.25 -2.85 7.5L-3.25 8.05L-4.55 10.35L-4.5 10.35L-4.55 10.4M-1.25,2.1L-2.2 3.95L-3.05 5.95L-3.3 7L-2.85 6.4L-2.25 4.95L-1.65 3.25L-1.05 1.85Q-0.85 1.4 -1.25 2.1" />
<path style="fill:#FF9900;fill-opacity:1" d="M0.1,-0.25L-0.05 -0.25L-0.2 -0.45L-0.95 -1.4L-1 -1.45L-1.45 -2.35L-1.55 -2.6L-1.65 -2.9L-1.1 -1.9Q-0.7 -1.2 -0.9 -1.6L-0.95 -1.75L-0.9 -1.75L-1.35 -2.7L-1.5 -3L-1.7 -3.55L-1.8 -3.7L-1.8 -3.8L-1.85 -3.85L-1.8 -3.85L1.75 -3.85L1.8 -3.85L1.4 -2.75L1 -2L0.95 -1.85L1.1 -2.05L1.6 -2.9L1.75 -3.15L1.6 -2.75L1.35 -2.15L0.8 -1.2L0.25 -0.45L0.2 -0.35L0.15 -0.35L0.1 -0.25M4.35,9.25L4.8 10.35L-4.5 10.35L-4.55 10.35L-3.25 8.05L-2.85 7.5Q-1.85 6.25 -0.6 5.6L-0.15 5.6L-0.15 4.65L-0.15 2.15L-0.1 1.35L0 0L0.1 1.35L0.15 1.9L0.15 4.65L0.15 5.45L0.15 5.6L0.8 5.6L3.05 7.4L3.1 7.45L3.7 8.9L4.05 9.5L4.3 9.75L4.35 9.7L4.35 9.25" />
<path style="fill:#999999;fill-opacity:1" d="M5.1,-10.6L5.4 -10.6L5.65 -10.8L5.7 -11L6.55 -11L6.75 -10.75L6.9 -10.3L6.75 -9.75L6.55 -9.6L6.25 -9.6Q4.4 -2.5 1.3 1Q4.95 4.55 6.25 11.6L6.55 11.6L6.75 11.8L6.9 12.3L6.75 12.8L6.55 13L-4.25 13L-4.5 12.8L-4.55 12.3L-4.55 12L5.4 12L5.65 11.75L5.75 11.3L5.65 10.8L5.4 10.6L5.1 10.6Q3.8 3.5 0.15 0L1.1 -1.2L2.2 -2.85L2.35 -3.15L2.15 -2.9Q3.85 -6 5.1 -10.6" />
<path style="fill:#FFFFFF;fill-opacity:1" d="M1.75,-3.85L1.85 -4.15L2.45 -5.85L3.05 -7.3L3.5 -7.85L3.25 -6.85L2.4 -4.8L2.35 -4.75L1.95 -3.85L1.8 -3.85L1.75 -3.85M-1.05,1.85L-1.65 3.25L-2.25 4.95L-2.85 6.4L-3.3 7L-3.05 5.95L-2.2 3.95L-1.25 2.1Q-0.85 1.4 -1.05 1.85" />
</g>
</svg>
