<?xml version="1.0" encoding="utf-8"?>
<svg version="1.1" id="Layer_1"
xmlns="http://www.w3.org/2000/svg"
xmlns:xlink="http://www.w3.org/1999/xlink"
xmlns:author="http://www.sothink.com"
width="51px" height="30px"
xml:space="preserve">
<g id="132" transform="matrix(1, 0, 0, 1, 25, 15)">
<path style="fill:#977859;fill-opacity:1" d="M-25,-14.95L-25 -15L-24.95 -15L22 -15L22 -14.95L-25 -14.95" />
<path style="fill:#9DD6DD;fill-opacity:0.6" d="M-22.15,12L-22.15 -12.3L22 -12.3L22 12L-22.15 12M2.25,-0.65L-4.45 -0.65L-4.45 4.6L2.2 4.6L2.2 8.35L8.6 2L2.25 -4.4L2.25 -0.65" />
<path style="fill:#D1EAED;fill-opacity:1" d="M25.05,-15L25.05 15L-24.95 15L-24.95 12.05L22 12.05L22 12L22 -12.3L22 -14.95L22 -15L-24.95 -15L25.05 -15" />
<path style="fill:#42AEBD;fill-opacity:1" d="M22,12L22 12.05L-24.95 12.05L-25 12.05L-25 -14.95L22 -14.95L22 -12.3L-22.15 -12.3L-22.15 12L22 12" />
<path style="fill:#FF9900;fill-opacity:1" d="M2.25,-4.4L8.6 2L2.2 8.35L2.2 4.6L-4.45 4.6L-4.45 -0.65L2.25 -0.65L2.25 -4.4" />
<path style="fill:none;stroke-width:1;stroke-linecap:round;stroke-linejoin:round;stroke-miterlimit:3;stroke:#FF9900;stroke-opacity:1" d="M8,-6.05L10 -6.05L12 -6.05L12 9.95L-8 9.95L-8 -6.05L-4.8 -6.05L-3.35 -6.05L6.9 -6.05L8 -6.05z" />
</g>
</svg>
