<?xml version="1.0" encoding="utf-8"?>
<svg version="1.1" id="Layer_1"
xmlns="http://www.w3.org/2000/svg"
xmlns:xlink="http://www.w3.org/1999/xlink"
xmlns:author="http://www.sothink.com"
width="36px" height="26px"
xml:space="preserve">
<g id="180" transform="matrix(1, 0, 0, 1, 18, 13)">
<path style="fill:#DBE6BE;fill-opacity:1" d="M17.5,12.5L-17.5 12.5L-17.5 -12.5L17.5 -12.5L17.5 12.5M3.65,-10L3.55 -9.85L3.5 -9.75L3.4 -9.35L3.55 -9.45L4.05 -9.55L4.6 -9.55L5.2 -9.45L5.45 -9.3L5.5 -9.3L5.5 -9.55L5.35 -9.95L5 -10.15L4.85 -10.2L4.25 -10.25L3.75 -10.1L3.65 -10M3.5,-9.3L3.6 -9.25L4.2 -9.15L4.35 -9.15L5.3 -9.3L5.2 -9.35L4.8 -9.45L4.2 -9.5L3.55 -9.35L3.5 -9.3M3.4,-9.2L3.4 -9L3.55 -8.55L3.6 -8.5L3.7 -8.3L4 -8L4.3 -7.85L4.5 -7.85L4.9 -7.95L5 -8L5 -8.05L5.05 -8.05L5.3 -8.35L5.35 -8.45L5.5 -8.55L5.6 -8.8L5.6 -9.1L5.25 -9.15L4.55 -9.05L4.2 -9.05L3.5 -9.2L3.4 -9.2M2.9,-7.45L2.85 -7.1L2.9 -5.95L2.95 -5.85L3.15 -5.7L3.2 -5.7L3.3 -5.75L3.4 -5.8L3.45 -5.9L3.45 -5.95L3.5 -6L3.5 -7.7L3.45 -7.7L3.35 -7.65L2.95 -7.5L2.9 -7.45M-1.45,-1.2L-1.45 -1.35L-1.3 -1.2L-1.05 -1.05L-0.9 -1L-0.75 -1.1L0.15 -2L0.25 -2.1L0.35 -2.2L0.75 -2.5L0.75 -2.55L1.05 -2.75L1.2 -3L1.25 -3.3L1.2 -3.65L1.15 -3.8L2.25 -2.8L2.35 -2.7L2.55 -2.8L2.8 -3L2.8 -2.9L2.75 -2.8L2.55 -2.7L2.6 -2.55L2.65 -2.5L2.65 -2.45L2.75 -2.5L2.45 1.05L3.1 5L3.55 5.1L3.9 5.1L4.4 5.05L4.3 0L4.5 5.15L4.7 5.45L4.95 5.55L5.6 5.55L6.05 5.4L6.25 5.15L6.4 4.85L6.4 4.7L6.05 1.5L6.3 -2.3L6.15 -2.3L6 -2.3L5.9 -2.3L5.25 -2.7L5.15 -2.7L4.85 -2.65L4.75 -2.7L4.7 -2.75L4.7 -2.85L4.75 -2.85L4.8 -2.95L4.9 -3L5 -3.05L5 -3.1L5.65 -3.3L5.8 -3.4L5.9 -3.45L6.1 -3.7L6.15 -4.95L6.05 -5.15L6 -5.55L5.95 -5.7L5.9 -5.65L5.9 -5.6L5.55 -5.55L5.45 -5.6L5.4 -5.6L5.3 -5.8L5.2 -6.05L5.05 -6.05L5 -6.05L4.8 -6L3.75 -6.05L3.6 -6.1L3.55 -5.9L3.5 -5.75L3.4 -5.7L3.2 -5.65L3.05 -5.65L2.85 -5.8L2.75 -5.05L2.75 -3.65L2.55 -3.85L2.5 -3.9L2.45 -3.9L2.45 -3.95L2.25 -4.2L2.2 -4.2L2.15 -4.3L2.1 -4.35L2.05 -4.45L1.85 -4.7L1.85 -4.8L2 -4.9L2.05 -4.95L2.1 -5L2.4 -5.45L2.55 -5.6L2.6 -5.6L2.75 -5.3L2.85 -6L2.7 -7.45L2.6 -7.35L2.45 -7.3L1.5 -6.3L1.15 -5.75L0.7 -4.8L0.7 -4.75L0.65 -4.9L0.15 -5.55L-1.05 -6.85L-1.35 -7L-1.55 -5.2L-1.4 -4.3L-1.35 -4.3L-1.35 -4.5L-1.25 -4.7L-1.15 -4.7L-0.95 -4.5L-0.6 -3.95L-0.3 -3.65L-0.25 -3.55L-0.6 -3.1L-0.65 -3.05L-1 -2.6L-1.05 -2.6L-1.05 -2.55L-1.1 -2.55L-1.15 -2.45L-1.35 -2.2L-1.35 -4L-1.4 -4.3L-1.55 -4.9L-1.65 -4.8L-1.8 -4.75L-1.95 -4.75L-2.2 -4.8L-2.25 -4.9L-2.3 -4.9L-2.4 -5.05L-2.4 -5.3L-4 -5.2L-4.3 -5.3L-4.4 -5.3L-4.45 -5.3L-4.5 -5.3L-4.6 -4.9L-4.7 -4.7L-4.95 -4.65L-5.3 -4.7L-5.3 -4.75L-5.4 -4.75L-5.4 -4.8L-5.5 -4.65L-5.55 -4.1L-5.7 -3.9L-5.6 -2.25L-5.5 -2.15L-5.4 -2.1L-5.4 -2L-5.15 -1.8L-5.05 -1.7L-4.3 -1.5L-4.25 -1.5L-4.15 -1.4L-4 -1.3L-3.95 -1.3L-3.9 -1.2L-3.8 -1.2L-3.8 -1.05L-3.85 -0.95L-4.05 -0.9L-4.3 -0.95L-4.4 -0.95L-4.5 -0.95L-5.35 -0.5L-5.7 -0.45L-5.9 -0.5L-5.55 4.35L-6 8.4L-6 8.6L-5.85 9L-5.6 9.3L-5 9.5L-4.35 9.55L-4 9.45L-3.7 9.25L-3.55 9L-3.3 3.4L-3.2 4.9L-3.45 8.85L-2.85 8.95L-2.4 8.95L-2.2 8.95L-1.8 8.8L-0.95 3.8L-1.4 -0.7L-1.3 -0.65L-1.2 -0.8L-1.15 -0.95L-1.45 -1.2M4.9,-7.35L5.15 -7.55L5.3 -7.75L5.25 -7.85L5.2 -8.15L4.9 -7.85L4.7 -7.8L4.2 -7.8L4 -7.85L3.7 -8.15L3.75 -7.75L3.8 -7.65L3.9 -7.5L4.05 -7.4L4.2 -7.35L4.6 -7.3L4.9 -7.35M4.7,-7.25L4.5 -7.25L4.3 -7.25L4.15 -7.25L3.95 -7.35L3.6 -7.7L3.6 -7.65L3.55 -7.65L3.5 -6.55L3.6 -6.25L3.7 -6.15L4.2 -6.1L4.9 -6.1L5.05 -6.15L5.1 -6.15L5.2 -6.15L5.4 -7.55L5.4 -7.65L5.35 -7.65L5.3 -7.7L5.3 -7.65L5.15 -7.5L4.95 -7.35L4.7 -7.25M5.55,-7.55L5.3 -6.25L5.3 -5.9L5.35 -5.75L5.4 -5.7L5.55 -5.65L5.7 -5.7L5.9 -5.8L6 -6.25L6.1 -7.4L6.05 -7.45L5.9 -7.45L5.85 -7.55L5.6 -7.55L5.55 -7.55M6.4,-7.2L6.2 -7.35L6 -5.9L6.1 -5.2L6.25 -5.5L6.3 -5.5L6.45 -5.35L6.75 -4.9L6.8 -4.85L6.85 -4.8L7 -4.7L7 -4.6L6.8 -4.35L6.75 -4.25L6.7 -4.2L6.65 -4.15L6.35 -3.85L6.35 -3.8L6.3 -3.8L6.3 -3.75L6.2 -3.6L5.8 -3.3L5.95 -3L6.25 -2.7L6.35 -2.6L6.45 -2.6L6.6 -2.7L7.3 -3.4L7.4 -3.45L7.45 -3.5L8.05 -3.95L8.15 -4.15L8.2 -4.4L8.2 -4.5L8.15 -4.65L7.7 -5.6L7.35 -6.15L6.4 -7.2M-4.7,-10.2L-4.9 -9.75L-4.9 -9.4L-4.85 -9.4L-4.55 -9.55L-4.2 -9.65L-3.7 -9.75L-3.05 -9.7L-2.25 -9.5L-2.35 -9.95L-2.45 -10.15L-2.55 -10.25L-2.7 -10.4L-2.9 -10.5L-3.3 -10.6L-4.05 -10.55L-4.5 -10.35L-4.7 -10.2M-4.7,-9.35L-3.4 -9.15L-3.25 -9.15L-2.4 -9.4L-2.4 -9.45L-2.5 -9.45L-3.25 -9.65L-4 -9.6L-4.5 -9.45L-4.7 -9.35M-4.8,-9.2L-5 -9.15L-5 -8.8L-4.85 -8.45L-4.7 -8.35L-4.6 -8.15L-4.3 -7.85L-4.2 -7.85L-4.15 -7.7L-3.6 -7.6L-3.35 -7.6L-3.1 -7.65L-2.9 -7.75L-2.6 -8.15L-2.5 -8.4L-2.4 -8.45L-2.3 -8.55L-2.2 -9.05L-2.2 -9.15L-2.25 -9.3L-2.35 -9.3L-3.2 -9.1L-3.65 -9.1L-4.55 -9.25L-4.8 -9.2M-4.7,-7.35L-4.8 -7.25L-4.8 -7.15L-4.5 -5.4L-4.4 -5.4L-4.15 -5.3L-3.25 -5.3L-2.65 -5.4L-2.45 -5.45L-2.35 -6.35L-2.45 -7.35L-2.5 -7.35L-2.95 -6.95L-3.2 -6.8L-3.7 -6.75L-3.9 -6.8L-4.5 -7.1L-4.65 -7.35L-4.7 -7.35M-4.55,-7.55L-4.6 -7.45L-4.4 -7.25L-4.1 -6.95L-3.9 -6.9L-3.7 -6.85L-3.25 -6.9L-3 -7L-2.7 -7.3L-2.65 -7.4L-2.6 -7.95L-3 -7.6L-3.25 -7.5L-3.8 -7.5L-4.1 -7.55L-4.5 -7.9L-4.55 -7.55M-6.05,-6.75L-7.25 -5.4L-7.75 -4.7L-8.3 -3.5L-8.35 -3.3L-8.35 -3.15L-8.25 -2.85L-8.1 -2.6L-7.85 -2.4L-7.85 -2.35L-7.4 -2L-7.35 -2L-6.3 -0.95L-6.1 -0.85L-5.85 -0.95L-5.7 -1.1L-5.5 -1.35L-5.3 -1.75L-5.9 -2.3L-5.95 -2.4L-6 -2.4L-6.3 -2.8L-6.35 -2.8L-6.4 -2.9L-6.5 -3L-6.85 -3.4L-6.8 -3.5L-6.5 -3.8L-5.95 -4.55L-5.85 -4.6L-5.8 -4.5L-5.7 -4.2L-5.55 -5.05L-5.8 -6.85L-6.05 -6.75M-5.3,-7.15L-5.4 -7.05L-5.65 -6.95L-5.55 -5.5L-5.4 -4.95L-5.2 -4.8L-4.95 -4.75L-4.8 -4.8L-4.7 -4.9L-4.65 -5.05L-4.65 -5.5L-4.85 -6.95L-5 -7.2L-5.1 -7.15L-5.3 -7.15M-2.3,-7.35L-2.35 -5.25L-2.3 -5.2L-2.3 -5.1L-2.3 -5.05L-2.2 -4.9L-2 -4.85L-1.9 -4.85L-1.8 -4.9L-1.65 -5L-1.55 -5.1L-1.5 -6.6L-1.6 -7.05L-1.7 -7.1L-1.8 -7.15L-2.2 -7.25L-2.3 -7.35M-3.25,1.45L-3.2 0.6L-3.15 0.65L-3.25 1.45M-4.35,-1.4L-4.4 -1.4L-4.5 -1.45L-4.75 -1.5L-4.85 -1.5L-5.2 -1.65L-5.4 -1.3L-5.9 -0.8L-5.85 -0.65L-5.8 -0.65L-5.8 -0.55L-5.4 -0.65L-5.1 -0.75L-4.55 -1.1L-4.4 -1.1L-4.15 -1.05L-4.05 -1.05L-3.95 -1.1L-4.35 -1.4M5.75,-3.2L5.45 -3.1L5.4 -3.1L5.35 -3.1L5 -3L4.8 -2.8L4.8 -2.75L4.85 -2.7L4.9 -2.7L5.1 -2.75L5.2 -2.75L5.65 -2.5L6.2 -2.35L6.2 -2.4L6.25 -2.45L6.3 -2.55L5.9 -2.9L5.75 -3.2M4.2,-1.45L4.3 -0.15L4.15 -1.4L4.15 -1.45L4.2 -1.45M2.55,5.65L2.35 5.7L2.25 5.8L2.25 5.85L2.25 6.1L2.35 6.2L2.4 6.2L2.65 6.25L3.15 6.25L3.7 6.05L3.8 6.05L3.85 6.1L4 6.2L4.45 6.1L4.45 5.95L4.5 5.85L4.55 5.8L4.65 5.7L4.65 5.6L4.45 5.4L4.4 5.15L4.35 5.15L4.1 5.2L3.55 5.2L3.3 5.2L3.1 5.5L2.9 5.6L2.7 5.7L2.55 5.65M4.6,5.85L4.55 6L4.55 6.15L4.6 6.45L5.05 6.5L5.3 6.5L5.4 6.45L5.55 6.3L5.6 6.3L5.65 6.25L5.8 6.25L5.85 6.2L5.9 6.2L5.95 6.2L6 6.1L6.05 5.9L6 5.75L6 5.5L5.7 5.6L5.05 5.7L4.75 5.6L4.75 5.7L4.7 5.8L4.6 5.85M-1.35,9.65L-1.5 9.65L-1.6 9.6L-1.75 9.55L-1.85 9.45L-2.1 9.05L-3.15 9.05L-3.45 9L-3.5 9L-3.5 9.15L-3.7 9.45L-3.85 9.55L-3.85 9.75L-3.7 9.8L-3.6 9.9L-3.55 10.15L-3.2 10.3L-3 10.35L-2.9 10.3L-2.75 10.15L-2.5 10.15L-2.1 10.3L-1.8 10.45L-0.95 10.35L-0.75 10.25L-0.75 10L-0.8 9.8L-0.95 9.65L-1.2 9.65L-1.35 9.65M-4.35,9.65L-4.95 9.65L-5.55 9.45L-5.6 9.95L-5.55 10.15L-5.5 10.3L-5.35 10.35L-5.25 10.4L-5.1 10.4L-5.05 10.45L-5 10.5L-4.8 10.65L-4.65 10.75L-4 10.7L-3.8 10.65L-3.7 10.1L-3.75 9.9L-3.85 9.85L-3.9 9.8L-3.95 9.75L-3.95 9.55L-4.15 9.65L-4.35 9.65" />
<linearGradient
id="LinearGradID_609" gradientUnits="userSpaceOnUse" gradientTransform="matrix(0.00126648, 0, 0, 0.000610352, 4.45, -9.8)" spreadMethod ="pad" x1="-819.2" y1="0" x2="819.2" y2="0" >
<stop  offset="0" style="stop-color:#143141;stop-opacity:1" />
<stop  offset="1" style="stop-color:#98EBF5;stop-opacity:1" />
<stop  offset="1" style="stop-color:#5EB802;stop-opacity:1" />
<stop  offset="1" style="stop-color:#5EB802;stop-opacity:1" />
</linearGradient>
<path style="fill:url(#LinearGradID_609) " d="M3.75,-10.1L4.25 -10.25L4.85 -10.2L5 -10.15L5.35 -9.95L5.5 -9.55L5.5 -9.3L5.45 -9.3L5.2 -9.45L4.6 -9.55L4.05 -9.55L3.55 -9.45L3.4 -9.35L3.5 -9.75L3.55 -9.85L3.65 -10L3.75 -10.1" />
<linearGradient
id="LinearGradID_610" gradientUnits="userSpaceOnUse" gradientTransform="matrix(0.00109863, 0, 0, 0.000198364, 4.35, -9.35)" spreadMethod ="pad" x1="-819.2" y1="0" x2="819.2" y2="0" >
<stop  offset="0" style="stop-color:#143141;stop-opacity:1" />
<stop  offset="1" style="stop-color:#98EBF5;stop-opacity:1" />
<stop  offset="1" style="stop-color:#5EB802;stop-opacity:1" />
<stop  offset="1" style="stop-color:#5EB802;stop-opacity:1" />
</linearGradient>
<path style="fill:url(#LinearGradID_610) " d="M3.55,-9.35L4.2 -9.5L4.8 -9.45L5.2 -9.35L5.3 -9.3L4.35 -9.15L4.2 -9.15L3.6 -9.25L3.5 -9.3L3.55 -9.35" />
<path style="fill:#EFE3DE;fill-opacity:1" d="M3.5,-9.2L4.2 -9.05L4.55 -9.05L5.25 -9.15L5.6 -9.1L5.6 -8.8L5.5 -8.55L5.35 -8.45L5.3 -8.35L5.05 -8.05L5 -8.05L5 -8L4.9 -7.95L4.5 -7.85L4.3 -7.85L4 -8L3.7 -8.3L3.6 -8.5L3.55 -8.55L3.4 -9L3.4 -9.2L3.5 -9.2M2.75,-2.5L2.65 -2.45L2.65 -2.5L2.6 -2.55L2.55 -2.7L2.75 -2.8L2.8 -2.9L2.95 -3L3.1 -3.3L3.4 -3.2L3.5 -3.2L3.55 -3.2L3.8 -3.1L3.85 -3.05L4.1 -2.9L4.1 -2.85L4 -2.8L3.8 -2.8L3.7 -2.85L3.65 -2.85L2.95 -2.5L2.75 -2.5M4.6,-7.3L4.2 -7.35L4.05 -7.4L3.9 -7.5L3.8 -7.65L3.75 -7.75L3.7 -8.15L4 -7.85L4.2 -7.8L4.7 -7.8L4.9 -7.85L5.2 -8.15L5.25 -7.85L5.3 -7.75L5.15 -7.55L4.9 -7.35L4.6 -7.3M-1.15,-0.95L-1.2 -0.8L-1.3 -0.65L-1.4 -0.7L-1.65 -0.75L-2.55 -1.2L-2.65 -1.2L-2.7 -1.2L-2.9 -1.15L-3 -1.15L-3.1 -1.2L-3.1 -1.25L-2.7 -1.5L-2.6 -1.6L-2.4 -1.6L-2.3 -1.65L-2.2 -1.65L-1.9 -1.8L-1.85 -1.8L-1.65 -1.4L-1.45 -1.2L-1.15 -0.95M-3.95,-1.1L-4.05 -1.05L-4.15 -1.05L-4.4 -1.1L-4.55 -1.1L-5.1 -0.75L-5.4 -0.65L-5.8 -0.55L-5.8 -0.65L-5.85 -0.65L-5.9 -0.8L-5.4 -1.3L-5.2 -1.65L-4.85 -1.5L-4.75 -1.5L-4.5 -1.45L-4.4 -1.4L-4.35 -1.4L-3.95 -1.1M5.9,-2.9L6.3 -2.55L6.25 -2.45L6.2 -2.4L6.2 -2.35L5.65 -2.5L5.2 -2.75L5.1 -2.75L4.9 -2.7L4.85 -2.7L4.8 -2.75L4.8 -2.8L5 -3L5.35 -3.1L5.4 -3.1L5.45 -3.1L5.75 -3.2L5.9 -2.9" />
<linearGradient
id="LinearGradID_611" gradientUnits="userSpaceOnUse" gradientTransform="matrix(0.000411987, 0, 0, 0.00119019, 3.15, -6.75)" spreadMethod ="pad" x1="-819.2" y1="0" x2="819.2" y2="0" >
<stop  offset="0" style="stop-color:#143141;stop-opacity:1" />
<stop  offset="1" style="stop-color:#98EBF5;stop-opacity:1" />
<stop  offset="1" style="stop-color:#5EB802;stop-opacity:1" />
<stop  offset="1" style="stop-color:#5EB802;stop-opacity:1" />
</linearGradient>
<path style="fill:url(#LinearGradID_611) " d="M2.95,-7.5L3.35 -7.65L3.45 -7.7L3.5 -7.7L3.5 -6L3.45 -5.95L3.45 -5.9L3.4 -5.8L3.3 -5.75L3.2 -5.7L3.15 -5.7L2.95 -5.85L2.9 -5.95L2.85 -7.1L2.9 -7.45L2.95 -7.5" />
<path style="fill:#563529;fill-opacity:1" d="M3,-3.4L3 -3.3L2.8 -3L2.55 -2.8L2.35 -2.7L2.25 -2.8L1.15 -3.8L1.2 -3.65L1.25 -3.3L1.2 -3L1.05 -2.75L0.75 -2.55L0.75 -2.5L0.35 -2.2L0.25 -2.1L0.15 -2L-0.75 -1.1L-0.9 -1L-1.05 -1.05L-1.3 -1.2L-1.45 -1.35L-1.7 -1.8L-1.75 -1.9L-1.35 -2.2L-1.15 -2.45L-1.1 -2.55L-1.05 -2.55L-1.05 -2.6L-1 -2.6L-0.65 -3.05L-0.6 -3.1L-0.25 -3.55L-0.3 -3.65L-0.6 -3.95L-0.95 -4.5L-1.15 -4.7L-1.25 -4.7L-1.35 -4.5L-1.35 -4.3L-1.4 -4.3L-1.55 -5.2L-1.35 -7L-1.05 -6.85L0.15 -5.55L0.65 -4.9L0.7 -4.75L0.7 -4.8L1.15 -5.75L1.5 -6.3L2.45 -7.3L2.6 -7.35L2.7 -7.45L2.85 -6L2.75 -5.3L2.6 -5.6L2.55 -5.6L2.4 -5.45L2.1 -5L2.05 -4.95L2 -4.9L1.85 -4.8L1.85 -4.7L2.05 -4.45L2.1 -4.35L2.15 -4.3L2.2 -4.2L2.25 -4.2L2.45 -3.95L2.45 -3.9L2.5 -3.9L2.55 -3.85L2.75 -3.65L3 -3.4M4.95,-7.35L5.15 -7.5L5.3 -7.65L5.3 -7.7L5.35 -7.65L5.4 -7.65L5.4 -7.55L5.2 -6.15L5.1 -6.15L5.05 -6.15L4.9 -6.1L4.2 -6.1L3.7 -6.15L3.6 -6.25L3.5 -6.55L3.55 -7.65L3.6 -7.65L3.6 -7.7L3.95 -7.35L4.15 -7.25L4.3 -7.25L4.5 -7.25L4.7 -7.25L4.95 -7.35M7.35,-6.15L7.7 -5.6L8.15 -4.65L8.2 -4.5L8.2 -4.4L8.15 -4.15L8.05 -3.95L7.45 -3.5L7.4 -3.45L7.3 -3.4L6.6 -2.7L6.45 -2.6L6.35 -2.6L6.25 -2.7L5.95 -3L5.8 -3.3L6.2 -3.6L6.3 -3.75L6.3 -3.8L6.35 -3.8L6.35 -3.85L6.65 -4.15L6.7 -4.2L6.75 -4.25L6.8 -4.35L7 -4.6L7 -4.7L6.85 -4.8L6.8 -4.85L6.75 -4.9L6.45 -5.35L6.3 -5.5L6.25 -5.5L6.1 -5.2L6 -5.9L6.2 -7.35L6.4 -7.2L7.35 -6.15M-4.65,-7.35L-4.5 -7.1L-3.9 -6.8L-3.7 -6.75L-3.2 -6.8L-2.95 -6.95L-2.5 -7.35L-2.45 -7.35L-2.35 -6.35L-2.45 -5.45L-2.65 -5.4L-3.25 -5.3L-4.15 -5.3L-4.4 -5.4L-4.5 -5.4L-4.8 -7.15L-4.8 -7.25L-4.7 -7.35L-4.65 -7.35M-5.8,-6.85L-5.55 -5.05L-5.7 -4.2L-5.8 -4.5L-5.85 -4.6L-5.95 -4.55L-6.5 -3.8L-6.8 -3.5L-6.85 -3.4L-6.5 -3L-6.4 -2.9L-6.35 -2.8L-6.3 -2.8L-6 -2.4L-5.95 -2.4L-5.9 -2.3L-5.3 -1.75L-5.5 -1.35L-5.7 -1.1L-5.85 -0.95L-6.1 -0.85L-6.3 -0.95L-7.35 -2L-7.4 -2L-7.85 -2.35L-7.85 -2.4L-8.1 -2.6L-8.25 -2.85L-8.35 -3.15L-8.35 -3.3L-8.3 -3.5L-7.75 -4.7L-7.25 -5.4L-6.05 -6.75L-5.8 -6.85M2.7,5.7L2.9 5.6L3.1 5.5L3.3 5.2L3.55 5.2L4.1 5.2L4.35 5.15L4.4 5.15L4.45 5.4L4.65 5.6L4.65 5.7L4.55 5.8L4.5 5.85L4.45 5.95L4.45 6.1L4 6.2L3.85 6.1L3.8 6.05L3.7 6.05L3.15 6.25L2.65 6.25L2.4 6.2L2.35 6.2L2.25 6.1L2.25 5.85L2.25 5.8L2.35 5.7L2.55 5.65L2.7 5.7M4.7,5.8L4.75 5.7L4.75 5.6L5.05 5.7L5.7 5.6L6 5.5L6 5.75L6.05 5.9L6 6.1L5.95 6.2L5.9 6.2L5.85 6.2L5.8 6.25L5.65 6.25L5.6 6.3L5.55 6.3L5.4 6.45L5.3 6.5L5.05 6.5L4.6 6.45L4.55 6.15L4.55 6L4.6 5.85L4.7 5.8M-1.2,9.65L-0.95 9.65L-0.8 9.8L-0.75 10L-0.75 10.25L-0.95 10.35L-1.8 10.45L-2.1 10.3L-2.5 10.15L-2.75 10.15L-2.9 10.3L-3 10.35L-3.2 10.3L-3.55 10.15L-3.6 9.9L-3.7 9.8L-3.85 9.75L-3.85 9.55L-3.7 9.45L-3.5 9.15L-3.5 9L-3.45 9L-3.15 9.05L-2.1 9.05L-1.85 9.45L-1.75 9.55L-1.6 9.6L-1.5 9.65L-1.35 9.65L-1.2 9.65M-4.15,9.65L-3.95 9.55L-3.95 9.75L-3.9 9.8L-3.85 9.85L-3.75 9.9L-3.7 10.1L-3.8 10.65L-4 10.7L-4.65 10.75L-4.8 10.65L-5 10.5L-5.05 10.45L-5.1 10.4L-5.25 10.4L-5.35 10.35L-5.5 10.3L-5.55 10.15L-5.6 9.95L-5.55 9.45L-4.95 9.65L-4.35 9.65L-4.15 9.65" />
<linearGradient
id="LinearGradID_612" gradientUnits="userSpaceOnUse" gradientTransform="matrix(0.000488281, 0, 0, 0.00114441, 5.7, -6.6)" spreadMethod ="pad" x1="-819.2" y1="0" x2="819.2" y2="0" >
<stop  offset="0" style="stop-color:#143141;stop-opacity:1" />
<stop  offset="1" style="stop-color:#98EBF5;stop-opacity:1" />
<stop  offset="1" style="stop-color:#5EB802;stop-opacity:1" />
<stop  offset="1" style="stop-color:#5EB802;stop-opacity:1" />
</linearGradient>
<path style="fill:url(#LinearGradID_612) " d="M5.6,-7.55L5.85 -7.55L5.9 -7.45L6.05 -7.45L6.1 -7.4L6 -6.25L5.9 -5.8L5.7 -5.7L5.55 -5.65L5.4 -5.7L5.35 -5.75L5.3 -5.9L5.3 -6.25L5.55 -7.55L5.6 -7.55" />
<linearGradient
id="LinearGradID_613" gradientUnits="userSpaceOnUse" gradientTransform="matrix(0.00236511, 0, 0, 0.0071106, 4.35, -0.3)" spreadMethod ="pad" x1="-819.2" y1="0" x2="819.2" y2="0" >
<stop  offset="0.00392157" style="stop-color:#143141;stop-opacity:1" />
<stop  offset="1" style="stop-color:#98EBF5;stop-opacity:1" />
<stop  offset="1" style="stop-color:#5EB802;stop-opacity:1" />
<stop  offset="1" style="stop-color:#5EB802;stop-opacity:1" />
</linearGradient>
<path style="fill:url(#LinearGradID_613) " d="M2.95,-2.5L3.65 -2.85L3.7 -2.85L3.8 -2.8L4 -2.8L4.1 -2.85L4.1 -2.9L3.85 -3.05L3.8 -3.1L3.55 -3.2L3.5 -3.2L3.4 -3.2L3.1 -3.3L2.95 -3L2.8 -2.9L2.8 -3L3 -3.3L3 -3.4L2.75 -3.65L2.75 -5.05L2.85 -5.8L3.05 -5.65L3.2 -5.65L3.4 -5.7L3.5 -5.75L3.55 -5.9L3.6 -6.1L3.75 -6.05L4.8 -6L5 -6.05L5.05 -6.05L5.2 -6.05L5.3 -5.8L5.4 -5.6L5.45 -5.6L5.55 -5.55L5.9 -5.6L5.9 -5.65L5.95 -5.7L6 -5.55L6.05 -5.15L6.15 -4.95L6.1 -3.7L5.9 -3.45L5.8 -3.4L5.65 -3.3L5 -3.1L5 -3.05L4.9 -3L4.8 -2.95L4.75 -2.85L4.7 -2.85L4.7 -2.75L4.75 -2.7L4.85 -2.65L5.15 -2.7L5.25 -2.7L5.9 -2.3L6 -2.3L6.15 -2.3L6.3 -2.3L6.05 1.5L6.4 4.7L6.4 4.85L6.25 5.15L6.05 5.4L5.6 5.55L4.95 5.55L4.7 5.45L4.5 5.15L4.3 0L4.4 5.05L3.9 5.1L3.55 5.1L3.1 5L2.45 1.05L2.75 -2.5L2.95 -2.5M4.95,-2.5L4.85 -2.3L4.8 -2.2L4.8 -2.1L4.85 -2.1L4.9 -2.2L5 -2.4L5.05 -2.55L5 -2.55L4.95 -2.5M4.15,-1.45L4.15 -1.4L4.3 -0.15L4.2 -1.45L4.15 -1.45" />
<linearGradient
id="LinearGradID_614" gradientUnits="userSpaceOnUse" gradientTransform="matrix(0.00163269, 0, 0, 0.000732422, -3.6, -10)" spreadMethod ="pad" x1="-819.2" y1="0" x2="819.2" y2="0" >
<stop  offset="0" style="stop-color:#143141;stop-opacity:1" />
<stop  offset="1" style="stop-color:#98EBF5;stop-opacity:1" />
<stop  offset="1" style="stop-color:#5EB802;stop-opacity:1" />
<stop  offset="1" style="stop-color:#5EB802;stop-opacity:1" />
</linearGradient>
<path style="fill:url(#LinearGradID_614) " d="M-4.5,-10.35L-4.05 -10.55L-3.3 -10.6L-2.9 -10.5L-2.7 -10.4L-2.55 -10.25L-2.45 -10.15L-2.35 -9.95L-2.25 -9.5L-3.05 -9.7L-3.7 -9.75L-4.2 -9.65L-4.55 -9.55L-4.85 -9.4L-4.9 -9.4L-4.9 -9.75L-4.7 -10.2L-4.5 -10.35" />
<linearGradient
id="LinearGradID_615" gradientUnits="userSpaceOnUse" gradientTransform="matrix(0.00138855, 0, 0, 0.000289917, -3.55, -9.4)" spreadMethod ="pad" x1="-819.2" y1="0" x2="819.2" y2="0" >
<stop  offset="0" style="stop-color:#143141;stop-opacity:1" />
<stop  offset="1" style="stop-color:#98EBF5;stop-opacity:1" />
<stop  offset="1" style="stop-color:#5EB802;stop-opacity:1" />
<stop  offset="1" style="stop-color:#5EB802;stop-opacity:1" />
</linearGradient>
<path style="fill:url(#LinearGradID_615) " d="M-4.5,-9.45L-4 -9.6L-3.25 -9.65L-2.5 -9.45L-2.4 -9.45L-2.4 -9.4L-3.25 -9.15L-3.4 -9.15L-4.7 -9.35L-4.5 -9.45" />
<linearGradient
id="LinearGradID_616" gradientUnits="userSpaceOnUse" gradientTransform="matrix(0.00170898, 0, 0, 0.0010376, -3.6, -8.5)" spreadMethod ="pad" x1="-819.2" y1="0" x2="819.2" y2="0" >
<stop  offset="0" style="stop-color:#DDC9BB;stop-opacity:1" />
<stop  offset="1" style="stop-color:#EFE3DE;stop-opacity:1" />
<stop  offset="1" style="stop-color:#563529;stop-opacity:1" />
</linearGradient>
<path style="fill:url(#LinearGradID_616) " d="M-4.55,-9.25L-3.65 -9.1L-3.2 -9.1L-2.35 -9.3L-2.25 -9.3L-2.2 -9.15L-2.2 -9.05L-2.3 -8.55L-2.4 -8.45L-2.5 -8.4L-2.6 -8.15L-2.9 -7.75L-3.1 -7.65L-3.35 -7.6L-3.6 -7.6L-4.15 -7.7L-4.2 -7.85L-4.3 -7.85L-4.6 -8.15L-4.7 -8.35L-4.85 -8.45L-5 -8.8L-5 -9.15L-4.8 -9.2L-4.55 -9.25" />
<linearGradient
id="LinearGradID_617" gradientUnits="userSpaceOnUse" gradientTransform="matrix(0.00120544, 0, 0, 0.000686646, -3.6, -7.4)" spreadMethod ="pad" x1="-819.2" y1="0" x2="819.2" y2="0" >
<stop  offset="0" style="stop-color:#DDC9BB;stop-opacity:1" />
<stop  offset="1" style="stop-color:#EFE3DE;stop-opacity:1" />
<stop  offset="1" style="stop-color:#563529;stop-opacity:1" />
</linearGradient>
<path style="fill:url(#LinearGradID_617) " d="M-4.5,-7.9L-4.1 -7.55L-3.8 -7.5L-3.25 -7.5L-3 -7.6L-2.6 -7.95L-2.65 -7.4L-2.7 -7.3L-3 -7L-3.25 -6.9L-3.7 -6.85L-3.9 -6.9L-4.1 -6.95L-4.4 -7.25L-4.6 -7.45L-4.55 -7.55L-4.5 -7.9" />
<linearGradient
id="LinearGradID_618" gradientUnits="userSpaceOnUse" gradientTransform="matrix(0.000610352, 0, 0, 0.00151062, -5.2, -6)" spreadMethod ="pad" x1="-819.2" y1="0" x2="819.2" y2="0" >
<stop  offset="0" style="stop-color:#143141;stop-opacity:1" />
<stop  offset="1" style="stop-color:#98EBF5;stop-opacity:1" />
<stop  offset="1" style="stop-color:#5EB802;stop-opacity:1" />
<stop  offset="1" style="stop-color:#5EB802;stop-opacity:1" />
</linearGradient>
<path style="fill:url(#LinearGradID_618) " d="M-5.1,-7.15L-5 -7.2L-4.85 -6.95L-4.65 -5.5L-4.65 -5.05L-4.7 -4.9L-4.8 -4.8L-4.95 -4.75L-5.2 -4.8L-5.4 -4.95L-5.55 -5.5L-5.65 -6.95L-5.4 -7.05L-5.3 -7.15L-5.1 -7.15" />
<linearGradient
id="LinearGradID_619" gradientUnits="userSpaceOnUse" gradientTransform="matrix(0.000488281, 0, 0, 0.00151062, -1.9, -6.15)" spreadMethod ="pad" x1="-819.2" y1="0" x2="819.2" y2="0" >
<stop  offset="0" style="stop-color:#143141;stop-opacity:1" />
<stop  offset="1" style="stop-color:#98EBF5;stop-opacity:1" />
<stop  offset="1" style="stop-color:#5EB802;stop-opacity:1" />
<stop  offset="1" style="stop-color:#5EB802;stop-opacity:1" />
</linearGradient>
<path style="fill:url(#LinearGradID_619) " d="M-2.2,-7.25L-1.8 -7.15L-1.7 -7.1L-1.6 -7.05L-1.5 -6.6L-1.55 -5.1L-1.65 -5L-1.8 -4.9L-1.9 -4.85L-2 -4.85L-2.2 -4.9L-2.3 -5.05L-2.3 -5.1L-2.3 -5.2L-2.35 -5.25L-2.3 -7.35L-2.2 -7.25" />
<linearGradient
id="LinearGradID_620" gradientUnits="userSpaceOnUse" gradientTransform="matrix(0.00306702, 0, 0, 0.00907898, -3.55, 2.1)" spreadMethod ="pad" x1="-819.2" y1="0" x2="819.2" y2="0" >
<stop  offset="0" style="stop-color:#143141;stop-opacity:1" />
<stop  offset="1" style="stop-color:#98EBF5;stop-opacity:1" />
<stop  offset="1" style="stop-color:#5EB802;stop-opacity:1" />
<stop  offset="1" style="stop-color:#5EB802;stop-opacity:1" />
</linearGradient>
<path style="fill:url(#LinearGradID_620) " d="M-1.45,-1.2L-1.65 -1.4L-1.85 -1.8L-1.9 -1.8L-2.2 -1.65L-2.3 -1.65L-2.4 -1.6L-2.6 -1.6L-2.7 -1.5L-3.1 -1.25L-3.1 -1.2L-3 -1.15L-2.9 -1.15L-2.7 -1.2L-2.65 -1.2L-2.55 -1.2L-1.65 -0.75L-1.4 -0.7L-0.95 3.8L-1.8 8.8L-2.2 8.95L-2.4 8.95L-2.85 8.95L-3.45 8.85L-3.2 4.9L-3.3 3.4L-3.25 1.45L-3.15 0.65L-3.2 0.6L-3.25 1.45L-3.35 2.45L-3.3 3.4L-3.55 9L-3.7 9.25L-4 9.45L-4.35 9.55L-5 9.5L-5.6 9.3L-5.85 9L-6 8.6L-6 8.4L-5.55 4.35L-5.9 -0.5L-5.7 -0.45L-5.35 -0.5L-4.5 -0.95L-4.4 -0.95L-4.3 -0.95L-4.05 -0.9L-3.85 -0.95L-3.8 -1.05L-3.8 -1.2L-3.9 -1.2L-3.95 -1.3L-4 -1.3L-4.15 -1.4L-4.25 -1.5L-4.3 -1.5L-5.05 -1.7L-5.15 -1.8L-5.4 -2L-5.4 -2.1L-5.5 -2.15L-5.6 -2.25L-5.7 -3.9L-5.55 -4.1L-5.5 -4.65L-5.4 -4.8L-5.4 -4.75L-5.3 -4.75L-5.3 -4.7L-4.95 -4.65L-4.7 -4.7L-4.6 -4.9L-4.5 -5.3L-4.45 -5.3L-4.4 -5.3L-4.3 -5.3L-4 -5.2L-2.4 -5.3L-2.4 -5.05L-2.3 -4.9L-2.25 -4.9L-2.2 -4.8L-1.95 -4.75L-1.8 -4.75L-1.65 -4.8L-1.55 -4.9L-1.4 -4.3L-1.35 -4L-1.35 -2.2L-1.75 -1.9L-1.7 -1.8L-1.45 -1.35L-1.45 -1.2M-4.3,-0.8L-4.25 -0.65L-4.1 -0.3L-4 -0.2L-4 -0.3L-4 -0.5L-4.15 -0.65L-4.2 -0.8L-4.3 -0.8" />
<path style="fill:#B2B7C9;fill-opacity:1" d="M-4.2,-0.8L-4.15 -0.65L-4 -0.5L-4 -0.3L-4 -0.2L-4.1 -0.3L-4.25 -0.65L-4.3 -0.8L-4.2 -0.8M5,-2.55L5.05 -2.55L5 -2.4L4.9 -2.2L4.85 -2.1L4.8 -2.1L4.8 -2.2L4.85 -2.3L4.95 -2.5L5 -2.55" />
<path style="fill:#BF9E7F;fill-opacity:1" d="M-3.3,3.4L-3.35 2.45L-3.25 1.45L-3.3 3.4" />
<path style="fill:none;stroke-width:1;stroke-linecap:round;stroke-linejoin:round;stroke-miterlimit:3;stroke:#563529;stroke-opacity:1" d="M17.5,12.5L-17.5 12.5L-17.5 -12.5L17.5 -12.5L17.5 12.5z" />
</g>
</svg>
