<?xml version="1.0" encoding="utf-8"?>
<svg version="1.1" id="Layer_1"
xmlns="http://www.w3.org/2000/svg"
xmlns:xlink="http://www.w3.org/1999/xlink"
xmlns:author="http://www.sothink.com"
width="115px" height="61px"
xml:space="preserve">
<g id="226" transform="matrix(1, 0, 0, 1, 57.1, 30.5)">
<linearGradient
id="LinearGradID_713" gradientUnits="userSpaceOnUse" gradientTransform="matrix(0.0613708, 0, 0, 0.0289917, -0.25, -0.7)" spreadMethod ="pad" x1="-819.2" y1="0" x2="819.2" y2="0" >
<stop  offset="0" style="stop-color:#D5DAF1;stop-opacity:0.6" />
<stop  offset="1" style="stop-color:#8E9DCA;stop-opacity:0.6" />
</linearGradient>
<path style="fill:url(#LinearGradID_713) " d="M0,16.3L8.55 16.3L17.1 16.3L17.1 15.35L17.15 15.35L17.15 16.3L17.1 16.3L17.1 16.35L-17.15 16.35L-17.15 16.3L0 16.3M-16.15,-17.95L-17.15 -17.95L-17.15 -18L-16.15 -18L-16.15 -17.95" />
<path style="fill:#374777;fill-opacity:1" d="M56.15,-30L56.55 -30L56.55 30L56.15 30L56.15 -30" />
<linearGradient
id="LinearGradID_714" gradientUnits="userSpaceOnUse" gradientTransform="matrix(0.0613708, 0, 0, 0.0289917, -0.25, -0.7)" spreadMethod ="pad" x1="-819.2" y1="0" x2="819.2" y2="0" >
<stop  offset="0" style="stop-color:#D5DAF1;stop-opacity:1" />
<stop  offset="1" style="stop-color:#8E9DCA;stop-opacity:1" />
</linearGradient>
<path style="fill:url(#LinearGradID_714) " d="M17.1,15.3L17.15 15.3L17.7 15.3L17.7 15.35L17.15 15.35L17.1 15.35L17.1 15.3" />
<path style="fill:#9DD6DD;fill-opacity:0.6" d="M-8.55,-17.95L0 -17.95L8.55 -17.95L17.1 -17.95L17.1 -9.4L17.1 -0.85L17.1 7.7L17.1 15.3L17.1 15.35L17.1 16.3L8.55 16.3L0 16.3L-17.15 16.3L-17.15 16.35L17.1 16.35L17.1 16.3L17.15 16.3L17.15 15.35L17.7 15.35L17.7 15.3L17.15 15.3L17.15 7.7L17.15 -0.85L17.15 -9.4L17.15 -18L8.55 -18L0 -18L-8.55 -18L-16.15 -18L-17.15 -18L-17.15 -17.95L-16.15 -17.95L-8.55 -17.95M-50.5,-24.4L50.05 -24.4L50.05 23L50.05 23.05L-50.5 23.05L-50.5 23L-50.5 -24.4M-5.5,4.8Q-5.5 3.9 -6.1 3.15Q-6.9 2.15 -8.6 2.15Q-10 2.15 -10.8 2.85Q-11.65 3.6 -11.65 4.55L-11.35 5.5L-10.7 5.85L-10.25 5.65L-10.05 5.15L-10.3 4.45L-10.55 3.7Q-10.55 3.3 -10.15 2.95Q-9.7 2.6 -9 2.6Q-8.15 2.6 -7.6 3.25Q-7.05 3.85 -7.05 4.95L-7.2 5.95L-7.85 7.4L-8.7 9.35L-8.95 11.05L-8.6 11.05L-8.25 9.5L-6.8 7.55L-5.75 6.05L-5.5 4.8M-7.8,13.05Q-7.8 12.65 -8.05 12.4Q-8.35 12.1 -8.7 12.1Q-9.1 12.1 -9.35 12.4Q-9.65 12.65 -9.65 13.05L-9.35 13.7Q-9.1 14 -8.7 14L-8.05 13.7L-7.8 13.05" />
<path style="fill:#D1EAED;fill-opacity:1" d="M-50.5,23L-56.45 23L-56.45 -29.95L50.1 -29.95L50.1 23L50.05 23L50.05 -24.4L-50.5 -24.4L-50.5 23" />
<path style="fill:#42AEBD;fill-opacity:1" d="M56.15,30L-56.6 30L-56.6 -30L56.15 -30L56.15 30M50.1,23L50.1 -29.95L-56.45 -29.95L-56.45 23L-50.5 23L-50.5 23.05L50.05 23.05L50.05 23L50.1 23" />
<path style="fill:#FF9900;fill-opacity:1" d="M-5.75,6.05L-6.8 7.55L-8.25 9.5L-8.6 11.05L-8.95 11.05L-8.7 9.35L-7.85 7.4L-7.2 5.95L-7.05 4.95Q-7.05 3.85 -7.6 3.25Q-8.15 2.6 -9 2.6Q-9.7 2.6 -10.15 2.95Q-10.55 3.3 -10.55 3.7L-10.3 4.45L-10.05 5.15L-10.25 5.65L-10.7 5.85L-11.35 5.5L-11.65 4.55Q-11.65 3.6 -10.8 2.85Q-10 2.15 -8.6 2.15Q-6.9 2.15 -6.1 3.15Q-5.5 3.9 -5.5 4.8L-5.75 6.05M-8.05,13.7L-8.7 14Q-9.1 14 -9.35 13.7L-9.65 13.05Q-9.65 12.65 -9.35 12.4Q-9.1 12.1 -8.7 12.1Q-8.35 12.1 -8.05 12.4Q-7.8 12.65 -7.8 13.05L-8.05 13.7" />
<path style="fill:none;stroke-width:1;stroke-linecap:round;stroke-linejoin:round;stroke-miterlimit:3;stroke:#FFFFFF;stroke-opacity:1" d="M56.55,30L56.15 30L-56.6 30L-56.6 -30L56.15 -30L56.15 30" />
<path style="fill:none;stroke-width:0.5;stroke-linecap:round;stroke-linejoin:round;stroke-miterlimit:3;stroke:#FF9900;stroke-opacity:1" d="M8.55,-17.95L8.55 -18L0 -18L0 -17.95L8.55 -17.95L17.1 -17.95L17.1 -9.4L17.15 -9.4L17.15 -18L8.55 -18M17.1,-9.4L8.55 -9.4L8.55 -0.85L17.1 -0.85L17.1 -9.4M17.15,-9.4L17.15 -0.85L17.15 7.7L17.15 15.3M17.15,15.35L17.15 16.3L17.1 16.3L17.1 16.35L-17.15 16.35L-17.15 16.3L-17.15 -0.85L-17.15 -9.4L-17.15 -17.95L-17.15 -18L-16.15 -18L-8.55 -18L0 -18M8.55,-17.95L8.55 -9.4L0 -9.4L0 -0.85L8.55 -0.85L8.55 7.7L17.1 7.7L17.1 -0.85L17.15 -0.85M17.1,15.3L17.1 7.7L17.15 7.7M17.15,15.35L17.15 15.3M17.1,15.3L17.1 15.35L17.1 16.3L8.55 16.3L0 16.3L-17.15 16.3M8.55,16.3L8.55 7.7L0 7.7L0 16.3M-8.55,-17.95L-8.55 -9.4L0 -9.4L0 -17.95L-8.55 -17.95L-8.55 -18M-17.15,-17.95L-16.15 -17.95M-17.15,-9.4L-8.55 -9.4L-8.55 -0.85L0 -0.85L0 7.7M-17.15,-0.85L-8.55 -0.85M-8.55,-17.95L-16.15 -17.95" />
</g>
</svg>
