<?xml version="1.0" encoding="utf-8"?>
<svg version="1.1" id="Layer_1"
xmlns="http://www.w3.org/2000/svg"
xmlns:xlink="http://www.w3.org/1999/xlink"
xmlns:author="http://www.sothink.com"
width="25px" height="27px"
xml:space="preserve">
<g id="35" transform="matrix(1, 0, 0, 1, 12.3, 12.25)">
<path style="fill:#D1EAED;fill-opacity:1" d="M11.1,-3.85Q6.95 -1.5 3.55 -0.5L3.55 -0.4L1.65 0L0.1 0.15Q0.2 5.25 -3.9 11.15L-11.1 3.95Q-4.05 -0.4 -0.1 -0.05L0 -1.25L0.1 -1.85L0.05 -1.3L0.25 -2.3L0.3 -2.35L0.35 -2.8L0.45 -3.6L1.5 -6.65L1.9 -7.45L3.9 -11.05L11.1 -3.85M1.5,-4.75L1.4 -4.45L0.9 -3.05Q0.55 -1.8 0.8 -2.45L1.5 -3.95L1.55 -4.1L1.65 -4.4L1.75 -4.6L1.8 -4.75L1.9 -4.85L1.95 -5L2 -5.25L2.1 -5.35L2.25 -5.7L2.3 -5.75L2.4 -5.85L2.6 -6.35L2.7 -6.45L3.05 -7L3.1 -7.25L3.65 -8.2L4.05 -9.2L4.2 -9.85L4.2 -10.25L4.15 -10.3L4.1 -10.25L4.05 -10.2L3.25 -8.9L1.9 -5.85L1.85 -5.8L1.75 -5.3L1.7 -5.15L1.6 -4.95L1.5 -4.75M-3.95,10.8L-3.3 9.45L-3.2 9.15L-2.95 8.7L-1.55 5.6L-1.6 5.55L-0.6 2.75Q-0.2 1.55 -0.45 2.2L-1.4 4.35L-1.6 4.65L-1.6 4.75L-1.7 4.85L-2.65 6.7Q-2.55 5.4 -2.8 3.95L-3.25 3.5L-3.45 3.3L-3.75 3Q-5.2 2.65 -6.95 3L-7.7 3.15Q-9.1 3.45 -10.55 4.2L-3.95 10.8M-7.3,2.65L-6.5 2.55L-5.1 1.95Q-4.45 1.6 -3.45 1.2L-2.05 0.6Q-1.6 0.45 -2.4 0.65L-4.35 1.3L-6.35 2.1L-7.3 2.65M7.5,-2.65L8.05 -3L8 -3.05L7.3 -2.95Q6.5 -2.75 5.9 -2.35L4.7 -1.75L4.2 -1.55L4 -1.45L2.85 -1Q2.35 -0.8 3.15 -1L5.1 -1.65L7.15 -2.5L7.5 -2.65M0.3,-0.05L0.4 -0.05L0.35 -0.1L0.25 -0.1L0.3 -0.05" />
<path style="fill:#0099CC;fill-opacity:1" d="M1.6,-4.95L1.7 -5.15L1.75 -5.3L1.85 -5.8L1.9 -5.85L3.25 -8.9L4.05 -10.2L4.1 -10.25L4.15 -10.3L4.2 -10.25L4.2 -9.85L4.05 -9.2L3.65 -8.2L3.1 -7.25L3.05 -7L2.7 -6.45L2.6 -6.35L2.4 -5.85L2.3 -5.75L2.25 -5.7L2.1 -5.35L2 -5.25L1.95 -5L1.9 -4.85L1.8 -4.75L1.75 -4.6L1.65 -4.4L1.55 -4.1L1.5 -3.95L0.8 -2.45Q0.55 -1.8 0.9 -3.05L1.4 -4.45L1.5 -4.75L1.6 -4.95M-3.75,10L-3.8 9.95L-3.85 9.6L-3.65 8.9L-2.8 6.95L-2.7 6.75L-2.65 6.7L-1.7 4.85L-1.6 4.75L-1.6 4.65L-1.4 4.35L-0.45 2.2Q-0.2 1.55 -0.6 2.75L-1.6 5.55L-1.55 5.6L-2.95 8.7L-3.2 9.15L-3.75 10" />
<path style="fill:#000066;fill-opacity:1" d="M11.1,-3.85L3.9 -11.05L3.7 -11.25L3.65 -11.5L3.95 -12L4.4 -12.25L4.65 -12.2L12.25 -4.6L12.35 -4.3L12.05 -3.9L11.8 -3.65L11.6 -3.55L11.3 -3.65L11.1 -3.85M-11.65,5.3L-12.25 4.7L-12.25 4.4L-12 3.95L-11.55 3.7L-11.3 3.75L-11.1 3.95L-3.9 11.15L-3.7 11.35L-3.6 11.65L-3.9 12.05Q-4.15 12.3 -4.3 12.35L-4.65 12.3L-11.65 5.3" />
<path style="fill:#999999;fill-opacity:1" d="M3.9,-0.55L3.55 -0.5Q6.95 -1.5 11.1 -3.85L11.3 -3.65L11.6 -3.55L11.8 -3.65L12.4 -3.05L12.35 -2.8L12.15 -2.3L11.65 -2.1L11.4 -2.05L11.15 -2.3Q4.85 1.4 0.2 1.65Q0.25 6.8 -3.8 12.65L-3.55 12.9L-3.55 13.1L-3.8 13.65L-4.3 13.85L-4.55 13.9L-12.2 6.25L-12.25 5.9L-11.9 5.55L-11.65 5.3L-4.65 12.3L-4.3 12.35Q-4.15 12.3 -3.9 12.05L-3.6 11.65L-3.7 11.35L-3.9 11.15Q0.2 5.25 0.1 0.15L1.65 0L3.55 -0.4L3.9 -0.55" />
<path style="fill:#FFFFFF;fill-opacity:1" d="M-6.35,2.1L-4.35 1.3L-2.4 0.65Q-1.6 0.45 -2.05 0.6L-3.45 1.2Q-4.45 1.6 -5.1 1.95L-6.5 2.55L-7.3 2.65L-6.35 2.1M7.15,-2.5L5.1 -1.65L3.15 -1Q2.35 -0.8 2.85 -1L4 -1.45L4.2 -1.55L4.7 -1.75L5.9 -2.35Q6.5 -2.75 7.3 -2.95L8 -3.05L8.05 -3L7.5 -2.65L7.15 -2.5" />
<path style="fill:#FF9900;fill-opacity:1" d="M-3.2,9.15L-3.3 9.45L-3.95 10.8L-10.55 4.2Q-9.1 3.45 -7.7 3.15L-6.95 3Q-5.2 2.65 -3.75 3L-3.45 3.3L-3.25 3.5L-2.8 3.95Q-2.55 5.4 -2.65 6.7L-2.7 6.75L-2.8 6.95L-3.65 8.9L-3.85 9.6L-3.8 9.95L-3.75 10L-3.2 9.15" />
</g>
</svg>
