<?xml version="1.0" encoding="utf-8"?>
<svg version="1.1" id="Layer_1"
xmlns="http://www.w3.org/2000/svg"
xmlns:xlink="http://www.w3.org/1999/xlink"
xmlns:author="http://www.sothink.com"
width="67px" height="47px"
xml:space="preserve">
<g id="77" transform="matrix(1, 0, 0, 1, 33.05, 23.35)">
<path style="fill:#E0D6CD;fill-opacity:1" d="M29,-5.95L24.05 -3.05L24.35 -16.55L24.4 -16.55L24.3 -16.6L29.25 -19.5L29.1 -9.7L29.05 -7.5L29 -5.95M17.3,-19.25L17.45 -19.35L17.45 -19.1L17.3 -19.25M12.25,-15.95L12.5 -15.75L17.45 -18.45L17.5 -16.5L17.5 -14.5L17.35 -14.4L17.3 -14.4L12.25 -11.55L12.25 -15.95" />
<path style="fill:#A58769;fill-opacity:1" d="M7.35,-20.35L6.4 -21.15L11.95 -23.3L12 -23.35L17.3 -19.25L17.45 -19.1L18 -18.7L17.45 -18.45L12.5 -15.75L12.25 -15.95L7.35 -20.35M24.3,-16.6L19.35 -21L19.4 -21L24.35 -22.95L29.25 -19.5L24.3 -16.6" />
<path style="fill:#C4AF9B;fill-opacity:1" d="M24.4,-16.55L24.35 -16.55L24.05 -3.05L19.35 -7.55L19.35 -15.05L19.35 -17.25L19.35 -21L19.35 -21.05L19.4 -21L19.35 -21L24.3 -16.6L24.4 -16.55M12.25,-15.95L12.25 -11.55L7.1 -16.55L7.15 -16.55L7.15 -18.05L7.15 -20.45L7.35 -20.35L12.25 -15.95" />
<path style="fill:#C5C5C5;fill-opacity:1" d="M19.35,-15.05L17.5 -16.5L17.45 -18.45L17.7 -18.55L19.35 -17.25L19.35 -15.05M31.5,-5.6L29.05 -7.5L29.1 -9.7L33.1 -6.55L31.5 -5.6M-32.6,-3.15L-32.8 -3.4L-33.05 -6.55L-32.5 -5.85L-30.6 -3.55L-20.55 8.85L-20.3 11.9L-20.3 12L-32.4 -2.9L-32.6 -3.15" />
<path style="fill:#715944;fill-opacity:1" d="M-13,20.8L-20.3 11.9L-20.55 8.85L-30.6 -3.55L-18.2 -8.35L-18.45 -8.15L-18.35 -8.05L-18.45 -8Q-19.65 -7.6 -20.65 -6.95Q-23.65 -5.15 -23.65 -2.5L-23.65 -2.1L-23.6 -1.85L-23.45 -1.15L-23.6 -1.75L-23.65 -1.95L-23.65 -1.75Q-23.65 1.2 -20.65 3.3Q-17.65 5.4 -13.35 5.4Q-9.1 5.4 -6.1 3.3Q-3.1 1.2 -3.1 -1.7L-3.25 -0.95L-3.1 -1.85L-3.1 -2.5Q-3.1 -5.15 -6.1 -6.95Q-7.75 -8 -9.75 -8.45L-13.35 -8.85L-16.2 -8.6L-16.3 -8.75L-16.35 -8.8L-17.45 -8.6L7.15 -18.05L7.15 -16.55L7.1 -16.55L12.25 -11.55L17.3 -14.4L17.35 -14.4L17.5 -14.5L17.5 -16.5L19.35 -15.05L19.35 -7.55L24.05 -3.05L29 -5.95L29.05 -7.5L31.5 -5.6L-13.05 18.05L-13 20.8M-4.35,-12.75L-4.35 -12.7L-6 -12.1L-6.25 -12.3L-6.3 -12.3L-9.05 -11.25L-9 -10.25L-4 -5.45L0.75 -8.3L0.6 -9.1L0.6 -9.05L0.55 -9.05L-4.35 -12.75M-4.2,-13.15L0.6 -9.05L-4.1 -13.25L-4.1 -13.2L-4.2 -13.15" />
<path style="fill:#ECECEC;fill-opacity:1" d="M-13.05,18.05L31.5 -5.6L33.1 -6.55L33 -4.15L-12.85 21L-13 21.05L-13 20.8L-13.05 18.05M-32.4,-2.9L-32.6 -2.85L-32.6 -3.15L-32.4 -2.9M-18.2,-8.35L-30.6 -3.55L-32.5 -5.85L7.15 -20.45L7.15 -18.05L-17.45 -8.6L-18.2 -8.5L-18.1 -8.4L-18.2 -8.35" />
<path style="fill:#7B573E;fill-opacity:1" d="M-3.85,-6.5L0.55 -9.05L0.6 -9.05L0.6 -9.1L0.75 -8.3L-4 -5.45L-9 -10.25L-9.05 -11.25L-3.85 -6.5" />
<path style="fill:#EFE3DE;fill-opacity:1" d="M31.3,-1.9L31.2 -1.8L31.2 -2L31.3 -1.9M-14.85,23.3L-13.5 22.55L-14.85 23.3" />
<path style="fill:#26386F;fill-opacity:1" d="M-15.95,-8.2L-15.85 -8.05L-14.15 -5.85L-11.7 -2.65L-13.6 -2.25L-13.65 -2.05L-18.1 -8.4L-18.2 -8.5L-17.45 -8.6L-16.35 -8.8L-16.3 -8.75L-16.2 -8.6L-15.95 -8.2M-23.35,-0.75L-22.75 0.25L-20.65 2L-19.05 2.75L-17.35 3.3L-13.5 3.75L-13.2 3.75L-9.35 3.3L-7.65 2.75L-6.1 2L-3.95 0.25L-3.35 -0.75L-3.25 -0.95L-3.1 -1.7Q-3.1 1.2 -6.1 3.3Q-9.1 5.4 -13.35 5.4Q-17.65 5.4 -20.65 3.3Q-23.65 1.2 -23.65 -1.75L-23.65 -1.95L-23.6 -1.75L-23.45 -1.15L-23.35 -0.75" />
<path style="fill:#6B85CD;fill-opacity:1" d="M-3.1,-2.5L-3.1 -1.85L-3.25 -0.95L-3.35 -0.75L-3.95 0.25L-6.1 2L-7.65 2.75L-9.35 3.3L-13.2 3.75L-13.5 3.75L-17.35 3.3L-19.05 2.75L-20.65 2L-22.75 0.25L-23.35 -0.75L-23.45 -1.15L-23.6 -1.85L-23.65 -2.1L-23.65 -2.5Q-23.5 -4.8 -20.65 -6.45Q-19.4 -7.2 -18.15 -7.55L-16.55 -5.3L-17.05 -5.05Q-18.45 -4.35 -18.5 -3.35L-18.5 -3.15L-18.45 -3.05L-18.45 -2.9L-18.45 -2.7L-18.4 -2.55L-18.35 -2.2L-18.3 -2L-18 -1.5L-17 -0.6L-16.25 -0.2L-15.45 0.05L-13.6 0.3L-13.45 0.3L-11.65 0.05L-10.85 -0.2L-10.1 -0.6L-9.05 -1.5L-8.8 -2L-8.75 -2.1L-8.65 -2.55L-8.65 -2.9L-8.7 -3.2L-8.7 -3.35Q-8.8 -4.35 -10.15 -5.05Q-11 -5.55 -11.9 -5.65L-12.2 -5.75L-12.5 -5.8L-13.55 -5.85L-13.6 -5.85L-14.15 -5.85L-15.85 -8.05L-13.35 -8.3L-9.75 -7.85Q-7.9 -7.5 -6.1 -6.45Q-3.3 -4.8 -3.1 -2.5" />
<path style="fill:#C8D1EC;fill-opacity:1" d="M-6.1,-6.45Q-7.9 -7.5 -9.75 -7.85L-13.35 -8.3L-15.85 -8.05L-15.95 -8.2L-16.2 -8.6L-13.35 -8.85L-9.75 -8.45Q-7.75 -8 -6.1 -6.95Q-3.1 -5.15 -3.1 -2.5Q-3.3 -4.8 -6.1 -6.45M-18.15,-7.55Q-19.4 -7.2 -20.65 -6.45Q-23.5 -4.8 -23.65 -2.5Q-23.65 -5.15 -20.65 -6.95Q-19.65 -7.6 -18.45 -8L-18.15 -7.55" />
<path style="fill:#E0CEC2;fill-opacity:1" d="M0.55,-9.05L-3.85 -6.5L-9.05 -11.25L-6.3 -12.3L-6.25 -12.3L-6 -12.1L-4.35 -12.7L-4.35 -12.75L0.55 -9.05M-6.7,-12.05L-8.8 -11.25L-8.5 -10.95L-6.8 -11.6L-6.75 -11.65L-2.35 -8.3L-6.6 -12.05L-6.65 -12.1L-6.7 -12.05" />
<path style="fill:#BF9E7F;fill-opacity:1" d="M-4.1,-13.2L-4.1 -13.25L0.6 -9.05L-4.2 -13.15L-4.1 -13.2" />
<path style="fill:#D0D8EE;fill-opacity:1" d="M-18.35,-8.05L-18.45 -8.15L-18.2 -8.35L-18.1 -8.4L-13.65 -2.05L-13.6 -2.25L-11.7 -2.65L-11.6 -2.15L-13.8 -1.55L-16.45 -5.35L-18.35 -8.05" />
<path style="fill:#498576;fill-opacity:1" d="M-13.8,-1.55L-11.6 -2.15L-11.7 -2.65L-14.15 -5.85L-13.6 -5.85L-13.55 -5.85L-12.5 -5.8L-12.2 -5.75L-11.9 -5.65Q-11 -5.55 -10.15 -5.05Q-8.8 -4.35 -8.7 -3.35L-8.7 -3.2L-8.7 -3.05L-8.8 -2.65L-8.85 -2.55L-9.1 -2.15L-10.15 -1.35L-10.9 -1.05L-11.7 -0.8L-13.5 -0.6L-13.65 -0.6L-15.5 -0.8L-16.3 -1.05L-17.05 -1.35L-18.05 -2.15L-18.35 -2.55L-18.4 -2.75L-18.45 -2.9L-18.45 -3.05L-18.5 -3.15L-18.5 -3.35Q-18.45 -4.35 -17.05 -5.05L-16.55 -5.3L-16.45 -5.35L-13.8 -1.55" />
<path style="fill:#1B302B;fill-opacity:1" d="M-8.65,-2.9L-8.65 -2.55L-8.75 -2.1L-8.8 -2L-9.05 -1.5L-10.1 -0.6L-10.85 -0.2L-11.65 0.05L-13.45 0.3L-13.6 0.3L-15.45 0.05L-16.25 -0.2L-17 -0.6L-18 -1.5L-18.3 -2L-18.35 -2.2L-18.4 -2.55L-18.45 -2.7L-18.45 -2.9L-18.4 -2.75L-18.35 -2.55L-18.05 -2.15L-17.05 -1.35L-16.3 -1.05L-15.5 -0.8L-13.65 -0.6L-13.5 -0.6L-11.7 -0.8L-10.9 -1.05L-10.15 -1.35L-9.1 -2.15L-8.85 -2.55L-8.8 -2.65L-8.7 -3.05L-8.7 -3.2L-8.65 -2.9" />
<path style="fill:#563529;fill-opacity:1" d="M-6.65,-12.1L-6.6 -12.05L-2.35 -8.3L-6.75 -11.65L-6.8 -11.6L-8.5 -10.95L-8.8 -11.25L-6.7 -12.05L-6.65 -12.1" />
</g>
</svg>
