<?xml version="1.0" encoding="utf-8"?>
<svg version="1.1" id="Layer_1"
xmlns="http://www.w3.org/2000/svg"
xmlns:xlink="http://www.w3.org/1999/xlink"
xmlns:author="http://www.sothink.com"
width="58px" height="31px"
xml:space="preserve">
<g id="203" transform="matrix(1, 0, 0, 1, 28.8, 15.5)">
<path style="fill:#374777;fill-opacity:1" d="M13.25,-9.6L-13.25 -9.6L13.25 -9.6" />
<linearGradient
id="LinearGradID_691" gradientUnits="userSpaceOnUse" gradientTransform="matrix(0.0307007, 0, 0, 0.0144958, -0.1, -0.35)" spreadMethod ="pad" x1="-819.2" y1="0" x2="819.2" y2="0" >
<stop  offset="0" style="stop-color:#D5DAF1;stop-opacity:0.6" />
<stop  offset="1" style="stop-color:#8E9DCA;stop-opacity:0.6" />
</linearGradient>
<path style="fill:url(#LinearGradID_691) " d="M13.15,-9.1L-13.35 -9.1L13.15 -9.1" />
<path style="fill:#9DD6DD;fill-opacity:1" d="M13.95,3.3L13.95 9.1L-12.55 9.1L-12.55 3.3L-12.55 -2.5L-12.55 -8.3L13.15 -8.3L13.95 -8.3L13.95 -2.5L13.95 3.3" />
<path style="fill:#42AEBD;fill-opacity:1" d="M-25.25,11.5L-28.2 11.5L-28.2 -14.95L25.1 -14.95L25.1 11.5L25.05 11.5L25.05 -12.2L-25.25 -12.2L-25.25 11.5" />
<path style="fill:#9DD6DD;fill-opacity:0.6" d="M-13.25,-9.6L13.25 -9.6L-13.25 -9.6M-13.35,-9.1L13.15 -9.1L-13.35 -9.1M13.95,-2.5L13.95 -8.3L13.15 -8.3L-12.55 -8.3L-12.55 -2.5L-12.55 3.3L-12.55 9.1L13.95 9.1L13.95 3.3L13.95 -2.5M-25.25,-12.2L25.05 -12.2L25.05 11.5L25.05 11.55L-25.25 11.55L-25.25 11.5L-25.25 -12.2" />
<path style="fill:#D3ECEF;fill-opacity:0.6" d="M25.1,11.5L25.1 -14.95L-28.2 -14.95L-28.2 11.5L-25.25 11.5L-25.25 11.55L25.05 11.55L25.05 11.5L25.1 11.5M28.3,-15L28.3 15L-28.3 15L-28.3 -15L28.3 -15" />
<path style="fill:none;stroke-width:1;stroke-linecap:round;stroke-linejoin:round;stroke-miterlimit:3;stroke:#FFFFFF;stroke-opacity:1" d="M28.3,-15L28.3 15L-28.3 15L-28.3 -15L28.3 -15z" />
<path style="fill:none;stroke-width:0.5;stroke-linecap:round;stroke-linejoin:round;stroke-miterlimit:3;stroke:#FF9900;stroke-opacity:1" d="M13.15,-8.3L13.95 -8.3L13.15 -8.3L-12.55 -8.3L-12.55 -2.5L13.95 -2.5L13.95 -8.3M13.15,-8.3L-12.55 -8.3M-12.55,3.3L-12.55 9.1L13.95 9.1L13.95 3.3L-12.55 3.3L-12.55 -2.5M13.95,3.3L13.95 -2.5" />
</g>
</svg>
