<?xml version="1.0" encoding="utf-8"?>
<svg version="1.1" id="Layer_1"
xmlns="http://www.w3.org/2000/svg"
xmlns:xlink="http://www.w3.org/1999/xlink"
xmlns:author="http://www.sothink.com"
width="36px" height="26px"
xml:space="preserve">
<g id="181" transform="matrix(1, 0, 0, 1, 18, 13)">
<path style="fill:#DBE6BE;fill-opacity:1" d="M-12.95,-7.7L-12.95 -7.5L-12.9 -7.45L-12.9 -7.4L-12.75 -6.85L-12.5 -6.7L-12.45 -6.65L-10.5 -5.95L-10.55 -5.9L-10.75 -5.85Q-12.55 -5.45 -12.55 -4.9L-12.55 -4.85L-12.5 -4.8L-12.5 -4.7L-12.4 -4.1L-12.1 -3.95L-12 -3.9L-11.65 -3.7L-11.55 -3.35L-11.3 -3.2L-11.25 -3.15Q-9.65 -2.3 -6.5 -2.2L-5.5 -2.15L-5.3 -2.15L-3.7 -2.25Q-1.45 -2.5 -0.3 -3.2L0 -3.4L0.1 -3.55L0.2 -3.6L0.3 -4.1L0.3 -4.15L0.1 -4.5L0.85 -4.85L1.15 -5.15L1.3 -5.25L1.4 -5.35L1.45 -5.65L1.7 -5.8L2 -6.05L2.15 -6.15L2.25 -6.25L2.35 -6.7L2.35 -6.75L2.35 -6.8Q2.3 -7.3 0.9 -7.6L0.9 -7.65L0.9 -7.7L1 -7.75L1.1 -8.2L1.1 -8.25L1.1 -8.3Q1.05 -8.85 -0.7 -9.2L-0.95 -9.3Q-1 -9.85 -2.75 -10.2L-6.95 -10.6L-11.2 -10.2Q-13 -9.85 -13 -9.3L-13 -9.25L-12.95 -9.2L-12.95 -9.15L-12.95 -9.05L-12.8 -8.45L-12.55 -8.25L-12.5 -8.25L-12.45 -8.2L-12.95 -7.7M-17.5,12.25L-17.5 -12.5L17.3 -12.5L17.5 -12.5L17.5 12.5L-17.5 12.5L-17.5 12.25M9.6,-4.55L9.05 -4.5L8.7 -4.4L8.6 -4.3L8.4 -3.95L8.4 -3.7L8.45 -3.7L8.7 -3.85L9.3 -3.95L9.8 -3.9L10.4 -3.8L10.4 -3.95L10.35 -4.1L10.25 -4.25L10.2 -4.35L10.1 -4.4L9.95 -4.5L9.6 -4.55M8.7,-3.75L8.6 -3.7L9.55 -3.55L9.65 -3.55L10.3 -3.7L10.3 -3.75L10.25 -3.75L9.65 -3.9L9.1 -3.85L8.7 -3.75M8.35,-3.5L8.35 -3.3L8.45 -3.05L8.5 -3L8.55 -2.95L8.65 -2.85L8.9 -2.6L8.95 -2.6L9 -2.5L9.4 -2.45L9.6 -2.45L9.75 -2.45L9.9 -2.55L10.15 -2.8L10.25 -3L10.3 -3.05L10.35 -3.1L10.45 -3.45L10.45 -3.5L10.4 -3.65L10.35 -3.65L9.7 -3.5L9.35 -3.5L8.7 -3.6L8.5 -3.55L8.35 -3.5M8.7,-2.4L8.65 -2.3L8.8 -2.15L9.05 -2L9.2 -1.95L9.35 -1.9L9.65 -1.95L9.85 -2L10.1 -2.2L10.1 -2.3L10.15 -2.7L9.85 -2.45L9.65 -2.35L9.25 -2.35L9.05 -2.4L8.7 -2.65L8.7 -2.4M7.85,-2L7.95 -0.95L8.05 -0.55L8.2 -0.45L8.4 -0.4L8.5 -0.45L8.6 -0.5L8.6 -0.6L8.6 -0.95L8.45 -1.95L8.35 -2.15L8.3 -2.1L8.1 -2.1L8.05 -2.05L7.85 -2M7.55,-1.8L6.65 -0.85L6.3 -0.4L5.9 0.5L5.85 0.6L5.85 0.75L5.9 0.95L6.05 1.1L6.25 1.3L6.55 1.55L6.6 1.55L7.4 2.3L7.5 2.35L7.6 2.35L7.7 2.3L7.8 2.2L8 2L8.1 1.8L8.1 1.75L7.65 1.35L7.65 1.25L7.6 1.25L7.35 1L7.35 0.95L7.25 0.85L7.2 0.8L7 0.55L7 0.45L7.15 0.4L7.15 0.35L7.25 0.25L7.65 -0.25L7.7 -0.3L7.75 -0.2L7.8 -0.15L7.8 0L7.85 0L7.95 -0.6L7.75 -1.9L7.55 -1.8M8.75,-2.05L8.6 -2.25L8.55 -2.25L8.5 -2.15L8.5 -2.1L8.7 -0.85L8.8 -0.85L8.85 -0.85L9 -0.8L9.65 -0.8L10.1 -0.85L10.25 -0.9L10.35 -1.55L10.25 -2.25L10.2 -2.25L10.05 -2.1L9.7 -1.85L9.55 -1.85L9.35 -1.85L9.15 -1.85L8.75 -2.05M11,2.1L11 2L11.1 2.1L11.2 2.2L11.3 2.25L11.4 2.25L11.5 2.2L12.2 1.55L12.3 1.45L12.35 1.4L12.65 1.2L12.65 1.15L12.85 1L13 0.85L13 0.7L12.9 0.55L12.9 -0.25L12.65 -0.55L12.6 -0.45L12.6 -0.4L12.55 -0.5L12.2 -1L11.3 -1.9L11.1 -2L10.95 -0.7L11.05 -0.1L11.1 -0.25L11.15 -0.4L11.25 -0.35L11.65 0.15L11.85 0.4L11.9 0.45L11.7 0.7L11.65 0.75L11.6 0.8L11.55 0.9L11.35 1.1L11.3 1.15L11.25 1.15L11.25 1.25L11.05 1.4L11.1 0.15L11.05 -0.1L10.95 -0.55L10.85 -0.45L10.75 -0.4L10.65 -0.4L10.45 -0.45L10.4 -0.5L10.35 -0.55L10.3 -0.6L10.3 -0.8L9.1 -0.75L8.95 -0.75L8.9 -0.8L8.8 -0.8L8.75 -0.8L8.65 -0.55L8.55 -0.4L8.4 -0.35L8.1 -0.4L8.05 -0.4L8.05 -0.45L8 -0.35L7.95 0.05L7.85 0.2L7.9 1.4L8.05 1.5L8.05 1.55L8.25 1.7L8.3 1.75L8.85 1.9L8.9 1.9L9 1.95L9.1 2.05L9.15 2.05L9.2 2.1L9.25 2.15L9.25 2.25L9.2 2.3L9.05 2.35L8.9 2.3L8.8 2.3L8.7 2.3L8.1 2.6L7.8 2.65L7.7 2.6L7.95 6.05L7.6 8.95L7.6 9.1L7.7 9.35L7.9 9.55L8.35 9.7L8.85 9.75L9 9.7L9.1 9.65L9.35 9.55L9.45 9.35L9.65 5.4L9.7 6.45L9.5 9.25L9.95 9.35L10.3 9.35L10.45 9.3L10.75 9.2L11.35 5.7L11.05 2.45L11.1 2.5L11.15 2.45L11.2 2.4L11.2 2.3L11 2.1M9.65,4L9.7 3.4L9.75 3.45L9.65 4M10.35,-2.25L10.35 -0.75L10.35 -0.7L10.35 -0.65L10.4 -0.65L10.4 -0.6L10.45 -0.55L10.6 -0.5L10.65 -0.5L10.85 -0.55L10.9 -0.65L10.95 -1.7L10.9 -2.05L10.8 -2.05L10.75 -2.1L10.45 -2.2L10.4 -2.25L10.35 -2.25M8.05,2.05L7.7 2.4L7.7 2.5L7.75 2.5L7.75 2.55L8.05 2.5L8.25 2.45L8.7 2.2L8.8 2.2L9 2.25L9.05 2.25L9.15 2.2L8.9 2L8.85 2L8.8 2L8.75 1.95L8.6 1.9L8.55 1.9L8.45 1.9L8.2 1.8L8.05 2.05M8.85,9.85L8.4 9.85L7.95 9.65L7.9 9.85L7.9 10L7.95 10.2L8 10.3L8.1 10.35L8.15 10.35L8.25 10.35L8.3 10.4L8.35 10.45L8.5 10.55L8.6 10.6L9.1 10.55L9.25 10.5L9.35 10.15L9.3 10L9.2 10L9.15 9.95L9.15 9.9L9.15 9.75L9 9.8L8.85 9.85M9.2,9.9L9.35 9.95L9.4 10L9.4 10.05L9.45 10.2L9.7 10.3L9.85 10.3L9.95 10.3L10.05 10.2L10.2 10.2L10.5 10.3L10.65 10.35L10.75 10.4L11.15 10.35L11.35 10.3L11.45 10.3L11.5 10.25L11.55 10.05L11.5 9.95L11.4 9.85L11.2 9.8L11.05 9.85L10.95 9.85L10.9 9.8L10.8 9.75L10.7 9.65L10.5 9.4L10.3 9.4L9.75 9.4L9.5 9.35L9.45 9.5L9.35 9.65L9.2 9.75L9.2 9.9" />
<path style="fill:#563529;fill-opacity:1" d="M7.75,-1.9L7.95 -0.6L7.85 0L7.8 0L7.8 -0.15L7.75 -0.2L7.7 -0.3L7.65 -0.25L7.25 0.25L7.15 0.35L7.15 0.4L7 0.45L7 0.55L7.2 0.8L7.25 0.85L7.35 0.95L7.35 1L7.6 1.25L7.65 1.25L7.65 1.35L8.1 1.75L8.1 1.8L8 2L7.8 2.2L7.7 2.3L7.6 2.35L7.5 2.35L7.4 2.3L6.6 1.55L6.55 1.55L6.25 1.3L6.05 1.1L5.9 0.95L5.85 0.75L5.85 0.6L5.9 0.5L6.3 -0.4L6.65 -0.85L7.55 -1.8L7.75 -1.9M9.15,-1.85L9.35 -1.85L9.55 -1.85L9.7 -1.85L10.05 -2.1L10.2 -2.25L10.25 -2.25L10.35 -1.55L10.25 -0.9L10.1 -0.85L9.65 -0.8L9 -0.8L8.85 -0.85L8.8 -0.85L8.7 -0.85L8.5 -2.1L8.5 -2.15L8.55 -2.25L8.6 -2.25L8.75 -2.05L9.15 -1.85M11,2L10.8 1.7L10.8 1.65L11.05 1.4L11.25 1.25L11.25 1.15L11.3 1.15L11.35 1.1L11.55 0.9L11.6 0.8L11.65 0.75L11.7 0.7L11.9 0.45L11.85 0.4L11.65 0.15L11.25 -0.35L11.15 -0.4L11.1 -0.25L11.05 -0.1L10.95 -0.7L11.1 -2L11.3 -1.9L12.2 -1L12.55 -0.5L12.6 -0.4L12.6 -0.45L12.65 -0.55L12.9 -0.25L12.9 0.55L13 0.7L13 0.85L12.85 1L12.65 1.15L12.65 1.2L12.35 1.4L12.3 1.45L12.2 1.55L11.5 2.2L11.4 2.25L11.3 2.25L11.2 2.2L11.1 2.1L11 2M9,9.8L9.15 9.75L9.15 9.9L9.15 9.95L9.2 10L9.3 10L9.35 10.15L9.25 10.5L9.1 10.55L8.6 10.6L8.5 10.55L8.35 10.45L8.3 10.4L8.25 10.35L8.15 10.35L8.1 10.35L8 10.3L7.95 10.2L7.9 10L7.9 9.85L7.95 9.65L8.4 9.85L8.85 9.85L9 9.8M9.2,9.75L9.35 9.65L9.45 9.5L9.5 9.35L9.75 9.4L10.3 9.4L10.5 9.4L10.7 9.65L10.8 9.75L10.9 9.8L10.95 9.85L11.05 9.85L11.2 9.8L11.4 9.85L11.5 9.95L11.55 10.05L11.5 10.25L11.45 10.3L11.35 10.3L11.15 10.35L10.75 10.4L10.65 10.35L10.5 10.3L10.2 10.2L10.05 10.2L9.95 10.3L9.85 10.3L9.7 10.3L9.45 10.2L9.4 10.05L9.4 10L9.35 9.95L9.2 9.9L9.2 9.75" />
<path style="fill:#EFE3DE;fill-opacity:1" d="M11.2,2.3L11.2 2.4L11.15 2.45L11.1 2.5L11.05 2.45L10.85 2.45L10.2 2.1L10.1 2.1L10.1 2.15L9.9 2.15L9.85 2.15L9.75 2.1L10 1.95L10.05 1.9L10.15 1.85L10.3 1.85L10.35 1.8L10.45 1.8L10.7 1.7L10.85 1.95L11 2.1L11.2 2.3M8.2,1.8L8.45 1.9L8.55 1.9L8.6 1.9L8.75 1.95L8.8 2L8.85 2L8.9 2L9.15 2.2L9.05 2.25L9 2.25L8.8 2.2L8.7 2.2L8.25 2.45L8.05 2.5L7.75 2.55L7.75 2.5L7.7 2.5L7.7 2.4L8.05 2.05L8.2 1.8" />
<path style="fill:#B2B7C9;fill-opacity:1" d="M9,2.5L9.1 2.6L9.1 2.75L9.1 2.8L9 2.75L8.9 2.5L8.9 2.4L8.95 2.4L9 2.5" />
<path style="fill:#BF9E7F;fill-opacity:1" d="M9.65,5.4L9.6 4.75L9.65 4L9.65 5.4" />
<path style="fill:#D9D900;fill-opacity:1" d="M-1,-9.05L-1.05 -9.05L-1.05 -9.1L-1.05 -9.05L-1.2 -8.95L-1.4 -8.75L-1.65 -8.65Q-2.75 -8 -5 -7.7L-9.5 -7.8L-10.1 -7.9L-10.9 -8.1L-10.95 -8.1L-11.15 -8.15L-11.2 -8.15L-11.4 -8.2L-11.55 -8.25L-11.8 -8.35L-11.9 -8.35L-12.45 -8.6L-12.85 -8.9L-12.95 -9.15L-12.95 -9.2L-13 -9.25L-13 -9.3Q-13 -9.85 -11.2 -10.2L-6.95 -10.6L-2.75 -10.2Q-1 -9.85 -0.95 -9.3L-0.7 -9.2Q1.05 -8.85 1.1 -8.3L1.1 -8.25L1.1 -8.2L1 -8.1M-5.7,-6.3L-4.75 -6.3L-4.5 -6.3L-4.3 -6.3L-3.6 -6.3L-4.95 -6.1L-7.45 -6L-8 -6.05L-9.3 -6.15L-9.6 -6.2L-10.05 -6.3L-11.1 -6.55L-11.35 -6.65L-11.8 -6.75L-12.4 -7L-12.8 -7.3L-12.9 -7.4L-12.9 -7.45L-12.95 -7.5L-12.95 -7.7L-12.45 -8.2L-12.3 -8.15L-12.15 -8.1L-12 -8.05L-12.3 -7.7L-12.3 -7.65L-12 -7.25L-11.7 -7.1L-11.35 -6.95L-10.75 -6.8L-9.7 -6.65L-9 -6.5L-8.55 -6.5L-7.9 -6.5L-5.7 -6.3M1,-8.1L0.85 -7.95L0.6 -7.75L0.4 -7.65L0.35 -7.6L0.25 -7.55L0.05 -7.45Q-0.45 -7.2 -1.1 -7.05L-1.85 -6.85L-2.95 -6.7L-4.35 -6.6L-4.8 -6.6L-9.15 -7.15L-9.35 -7.25L-9.85 -7.35L-10.15 -7.5L-9.55 -7.4L-8.1 -7.25L-5 -7.05L-2.25 -7.25L-1.85 -7.3L-1.25 -7.4L-1 -7.45L-0.6 -7.55L-0.35 -7.65L-0.2 -7.75L0.05 -7.85L0.25 -8L0.25 -8.1L0.3 -8.15L0.35 -8.25Q0.3 -8.7 -1 -9.05M-1.75,-9.1L-1.75 -9.15L-1.7 -9.2L-1.7 -9.3L-2.8 -9.95L-3.25 -10.1L-7 -10.4L-9.75 -10.25L-9.95 -10.2L-10.8 -10.1Q-12.3 -9.75 -12.35 -9.3L-12.35 -9.25L-12.05 -8.85L-11.75 -8.7L-11.4 -8.6L-11.1 -8.5L-10.9 -8.45L-10.85 -8.45L-10.8 -8.4L-10.3 -8.3L-9.9 -8.25L-7 -8.05L-3.25 -8.4Q-2.35 -8.65 -1.95 -8.85L-1.8 -9L-1.75 -9.05L-1.75 -9.1M-0.75,-9.1L-0.55 -9.05L-0.95 -9.2L-1 -9.2L-0.95 -9.15L-0.75 -9.1M2.25,-6.6L2.1 -6.5L2.1 -6.45L1.85 -6.25L1.65 -6.15L1.3 -5.95L0.65 -5.7L0.3 -5.6L-1.7 -5.2L-7.9 -5.65L-8 -5.7L-7.7 -5.7L-6.7 -5.65L-6.5 -5.65L-6.05 -5.7L-3.75 -5.55L0 -5.9L0.35 -6L0.6 -6.1L1.05 -6.2L1.3 -6.35L1.45 -6.5L1.5 -6.5L1.55 -6.65L1.55 -6.75L0.65 -7.4L0.75 -7.5L0.95 -7.45L0.75 -7.55L0.8 -7.55L0.9 -7.6Q2.3 -7.3 2.35 -6.8L2.35 -6.75L2.35 -6.7L2.25 -6.6M0.2,-4L0.15 -3.9L0.05 -3.85L-0.15 -3.65L-0.4 -3.55Q-1.5 -2.9 -3.75 -2.6Q-6.9 -2.25 -9.9 -3.05L-10.15 -3.1L-10.65 -3.3L-11.2 -3.5L-11.35 -3.6L-10.8 -3.4L-10.7 -3.4L-10.65 -3.35L-7.3 -2.95L-6.3 -2.95L-6.1 -2.95L-4.95 -2.95L-2 -3.3Q-1.15 -3.55 -0.75 -3.8L-0.55 -3.9L-0.5 -4.05L-0.45 -4.15L-0.5 -4.3L-0.4 -4.35L-0.05 -4.45L0.1 -4.5L0.3 -4.15L0.3 -4.1L0.2 -4M-2.5,-3.95L-1.8 -4.05L-1.55 -4.05L-4.55 -3.35L-10.35 -3.7L-10.7 -3.85L-10.95 -3.9L-11 -3.9L-11.45 -4L-11.75 -4.15L-12 -4.25L-12.45 -4.55L-12.5 -4.8L-12.5 -4.85L-12.55 -4.85L-12.55 -4.9Q-12.55 -5.45 -10.75 -5.85L-10.55 -5.9L-10.5 -5.95L-10.05 -5.9L-9.9 -5.85L-9.9 -5.8L-10.35 -5.75L-10.55 -5.7Q-11.9 -5.35 -11.9 -4.9L-11.9 -4.85L-11.65 -4.5L-11.5 -4.45L-11.3 -4.4L-11.1 -4.3L-10.95 -4.25L-10.7 -4.15L-10.35 -4.05L-6.55 -3.7L-4 -3.85L-2.5 -3.95M-2.45,-10L-3.2 -10.2L-7 -10.55L-10.8 -10.2L-11.55 -10L-11.2 -10.1L-7 -10.5L-2.8 -10.1L-2.45 -10M-9.65,-5.45L-9.3 -5.35L-9 -5.2L-8.35 -5L-4.6 -4.65L-1.7 -4.85Q0.05 -5.05 1.15 -5.5L1.25 -5.5L1.05 -5.35L0.8 -5.25L-0.5 -4.7L-0.6 -4.65L-0.7 -4.65L-1.7 -4.4L-2.15 -4.35L-2.55 -4.3L-8.75 -4.75L-8.95 -4.85L-9.45 -4.95L-10 -5.2L-10.45 -5.5L-10.45 -5.55L-10.4 -5.55L-10 -5.65L-9.85 -5.7L-9.65 -5.45" />
<linearGradient
id="LinearGradID_621" gradientUnits="userSpaceOnUse" gradientTransform="matrix(0.0010376, 0, 0, 0.000198364, 9.45, -3.7)" spreadMethod ="pad" x1="-819.2" y1="0" x2="819.2" y2="0" >
<stop  offset="0" style="stop-color:#143141;stop-opacity:1" />
<stop  offset="1" style="stop-color:#98EBF5;stop-opacity:1" />
<stop  offset="1" style="stop-color:#5EB802;stop-opacity:1" />
<stop  offset="1" style="stop-color:#5EB802;stop-opacity:1" />
</linearGradient>
<path style="fill:url(#LinearGradID_621) " d="M9.1,-3.85L9.65 -3.9L10.25 -3.75L10.3 -3.75L10.3 -3.7L9.65 -3.55L9.55 -3.55L8.6 -3.7L8.7 -3.75L9.1 -3.85" />
<linearGradient
id="LinearGradID_622" gradientUnits="userSpaceOnUse" gradientTransform="matrix(0.0012207, 0, 0, 0.000518799, 9.4, -4.15)" spreadMethod ="pad" x1="-819.2" y1="0" x2="819.2" y2="0" >
<stop  offset="0" style="stop-color:#143141;stop-opacity:1" />
<stop  offset="1" style="stop-color:#98EBF5;stop-opacity:1" />
<stop  offset="1" style="stop-color:#5EB802;stop-opacity:1" />
<stop  offset="1" style="stop-color:#5EB802;stop-opacity:1" />
</linearGradient>
<path style="fill:url(#LinearGradID_622) " d="M9.95,-4.5L10.1 -4.4L10.2 -4.35L10.25 -4.25L10.35 -4.1L10.4 -3.95L10.4 -3.8L9.8 -3.9L9.3 -3.95L8.7 -3.85L8.45 -3.7L8.4 -3.7L8.4 -3.95L8.6 -4.3L8.7 -4.4L9.05 -4.5L9.6 -4.55L9.95 -4.5" />
<linearGradient
id="LinearGradID_623" gradientUnits="userSpaceOnUse" gradientTransform="matrix(0.00128174, 0, 0, 0.000732422, 9.4, -3.05)" spreadMethod ="pad" x1="-819.2" y1="0" x2="819.2" y2="0" >
<stop  offset="0" style="stop-color:#DDC9BB;stop-opacity:1" />
<stop  offset="1" style="stop-color:#EFE3DE;stop-opacity:1" />
<stop  offset="1" style="stop-color:#563529;stop-opacity:1" />
</linearGradient>
<path style="fill:url(#LinearGradID_623) " d="M8.5,-3.55L8.7 -3.6L9.35 -3.5L9.7 -3.5L10.35 -3.65L10.4 -3.65L10.45 -3.5L10.45 -3.45L10.35 -3.1L10.3 -3.05L10.25 -3L10.15 -2.8L9.9 -2.55L9.75 -2.45L9.6 -2.45L9.4 -2.45L9 -2.5L8.95 -2.6L8.9 -2.6L8.65 -2.85L8.55 -2.95L8.5 -3L8.45 -3.05L8.35 -3.3L8.35 -3.5L8.5 -3.55" />
<linearGradient
id="LinearGradID_624" gradientUnits="userSpaceOnUse" gradientTransform="matrix(0.000900269, 0, 0, 0.000488281, 9.4, -2.3)" spreadMethod ="pad" x1="-819.2" y1="0" x2="819.2" y2="0" >
<stop  offset="0" style="stop-color:#DDC9BB;stop-opacity:1" />
<stop  offset="1" style="stop-color:#EFE3DE;stop-opacity:1" />
<stop  offset="1" style="stop-color:#563529;stop-opacity:1" />
</linearGradient>
<path style="fill:url(#LinearGradID_624) " d="M8.7,-2.65L9.05 -2.4L9.25 -2.35L9.65 -2.35L9.85 -2.45L10.15 -2.7L10.1 -2.3L10.1 -2.2L9.85 -2L9.65 -1.95L9.35 -1.9L9.2 -1.95L9.05 -2L8.8 -2.15L8.65 -2.3L8.7 -2.4L8.7 -2.65" />
<linearGradient
id="LinearGradID_625" gradientUnits="userSpaceOnUse" gradientTransform="matrix(0.000366211, 0, 0, 0.00106812, 10.65, -1.4)" spreadMethod ="pad" x1="-819.2" y1="0" x2="819.2" y2="0" >
<stop  offset="0" style="stop-color:#143141;stop-opacity:1" />
<stop  offset="1" style="stop-color:#98EBF5;stop-opacity:1" />
<stop  offset="1" style="stop-color:#5EB802;stop-opacity:1" />
<stop  offset="1" style="stop-color:#5EB802;stop-opacity:1" />
</linearGradient>
<path style="fill:url(#LinearGradID_625) " d="M10.4,-2.25L10.45 -2.2L10.75 -2.1L10.8 -2.05L10.9 -2.05L10.95 -1.7L10.9 -0.65L10.85 -0.55L10.65 -0.5L10.6 -0.5L10.45 -0.55L10.4 -0.6L10.4 -0.65L10.35 -0.65L10.35 -0.7L10.35 -0.75L10.35 -2.25L10.4 -2.25" />
<linearGradient
id="LinearGradID_626" gradientUnits="userSpaceOnUse" gradientTransform="matrix(0.00228882, 0, 0, 0.00645447, 9.45, 4.45)" spreadMethod ="pad" x1="-819.2" y1="0" x2="819.2" y2="0" >
<stop  offset="0" style="stop-color:#143141;stop-opacity:1" />
<stop  offset="1" style="stop-color:#98EBF5;stop-opacity:1" />
<stop  offset="1" style="stop-color:#5EB802;stop-opacity:1" />
<stop  offset="1" style="stop-color:#5EB802;stop-opacity:1" />
</linearGradient>
<path style="fill:url(#LinearGradID_626) " d="M10.8,1.65L10.8 1.7L11 2L11 2.1L10.85 1.95L10.7 1.7L10.45 1.8L10.35 1.8L10.3 1.85L10.15 1.85L10.05 1.9L10 1.95L9.75 2.1L9.85 2.15L9.9 2.15L10.1 2.15L10.1 2.1L10.2 2.1L10.85 2.45L11.05 2.45L11.35 5.7L10.75 9.2L10.45 9.3L10.3 9.35L9.95 9.35L9.5 9.25L9.7 6.45L9.65 5.4L9.65 4L9.75 3.45L9.7 3.4L9.65 4L9.6 4.75L9.65 5.4L9.45 9.35L9.35 9.55L9.1 9.65L9 9.7L8.85 9.75L8.35 9.7L7.9 9.55L7.7 9.35L7.6 9.1L7.6 8.95L7.95 6.05L7.7 2.6L7.8 2.65L8.1 2.6L8.7 2.3L8.8 2.3L8.9 2.3L9.05 2.35L9.2 2.3L9.25 2.25L9.25 2.15L9.2 2.1L9.15 2.05L9.1 2.05L9 1.95L8.9 1.9L8.85 1.9L8.3 1.75L8.25 1.7L8.05 1.55L8.05 1.5L7.9 1.4L7.85 0.2L7.95 0.05L8 -0.35L8.05 -0.45L8.05 -0.4L8.1 -0.4L8.4 -0.35L8.55 -0.4L8.65 -0.55L8.75 -0.8L8.8 -0.8L8.9 -0.8L8.95 -0.75L9.1 -0.75L10.3 -0.8L10.3 -0.6L10.35 -0.55L10.4 -0.5L10.45 -0.45L10.65 -0.4L10.75 -0.4L10.85 -0.45L10.95 -0.55L11.05 -0.1L11.1 0.15L11.05 1.4L10.8 1.65M8.95,2.4L8.9 2.4L8.9 2.5L9 2.75L9.1 2.8L9.1 2.75L9.1 2.6L9 2.5L8.95 2.4" />
<linearGradient
id="LinearGradID_627" gradientUnits="userSpaceOnUse" gradientTransform="matrix(0.000457764, 0, 0, 0.00106812, 8.2, -1.3)" spreadMethod ="pad" x1="-819.2" y1="0" x2="819.2" y2="0" >
<stop  offset="0" style="stop-color:#143141;stop-opacity:1" />
<stop  offset="1" style="stop-color:#98EBF5;stop-opacity:1" />
<stop  offset="1" style="stop-color:#5EB802;stop-opacity:1" />
<stop  offset="1" style="stop-color:#5EB802;stop-opacity:1" />
</linearGradient>
<path style="fill:url(#LinearGradID_627) " d="M8.05,-2.05L8.1 -2.1L8.3 -2.1L8.35 -2.15L8.45 -1.95L8.6 -0.95L8.6 -0.6L8.6 -0.5L8.5 -0.45L8.4 -0.4L8.2 -0.45L8.05 -0.55L7.95 -0.95L7.85 -2L8.05 -2.05" />
<linearGradient
id="LinearGradID_628" gradientUnits="userSpaceOnUse" gradientTransform="matrix(0.00653076, 0, 0, 0.00144958, -7, -9.4)" spreadMethod ="pad" x1="-819.2" y1="0" x2="819.2" y2="0" >
<stop  offset="0" style="stop-color:#FEFE30;stop-opacity:1" />
<stop  offset="1" style="stop-color:#805740;stop-opacity:1" />
<stop  offset="1" style="stop-color:#805740;stop-opacity:1" />
</linearGradient>
<path style="fill:url(#LinearGradID_628) " d="M-2.8,-10.1L-7 -10.5L-11.2 -10.1L-11.55 -10L-10.8 -10.2L-7 -10.55L-3.2 -10.2L-2.45 -10L-2.8 -10.1" />
<linearGradient
id="LinearGradID_629" gradientUnits="userSpaceOnUse" gradientTransform="matrix(0.00648499, 0, 0, 0.00143433, -7.05, -9.25)" spreadMethod ="pad" x1="-819.2" y1="0" x2="819.2" y2="0" >
<stop  offset="0" style="stop-color:#FEFE30;stop-opacity:1" />
<stop  offset="1" style="stop-color:#805740;stop-opacity:1" />
<stop  offset="1" style="stop-color:#805740;stop-opacity:1" />
</linearGradient>
<path style="fill:url(#LinearGradID_629) " d="M-10.8,-10.1L-9.95 -10.2L-9.75 -10.25L-7 -10.4L-3.25 -10.1L-2.8 -9.95L-1.7 -9.3L-1.7 -9.2L-1.75 -9.15L-1.75 -9.1L-1.9 -9L-2.65 -8.7L-2.2 -8.95L-2.05 -9.05L-2 -9.15L-2 -9.25L-2 -9.35Q-2.2 -9.7 -3.45 -10L-6.95 -10.3L-10.45 -10Q-11.85 -9.7 -11.95 -9.3L-11.95 -9.2L-11.8 -9L-11.6 -8.8L-11.3 -8.7L-11.1 -8.65L-11.4 -8.7L-11.75 -8.85L-12.1 -9L-12.35 -9.3Q-12.3 -9.75 -10.8 -10.1" />
<linearGradient
id="LinearGradID_630" gradientUnits="userSpaceOnUse" gradientTransform="matrix(0.00735474, 0, 0, 0.000289917, -6.95, -8.5)" spreadMethod ="pad" x1="-819.2" y1="0" x2="819.2" y2="0" >
<stop  offset="0.388235" style="stop-color:#805740;stop-opacity:1" />
<stop  offset="0.741176" style="stop-color:#FEFE30;stop-opacity:1" />
<stop  offset="1" style="stop-color:#805740;stop-opacity:1" />
</linearGradient>
<path style="fill:url(#LinearGradID_630) " d="M-7.75,-7.25L-8.1 -7.25L-9.55 -7.4L-10.15 -7.5L-10.8 -7.65L-11.7 -7.9L-11.8 -7.95L-12 -8.05L-12.15 -8.1L-12.3 -8.15L-12.45 -8.2L-12.5 -8.25L-12.55 -8.25L-12.8 -8.45L-12.95 -9.05L-12.95 -9.15L-12.85 -8.9L-12.45 -8.6L-11.9 -8.35L-11.8 -8.35L-11.55 -8.25L-11.4 -8.2L-11.2 -8.15L-11.15 -8.15L-10.95 -8.1L-10.9 -8.1L-10.1 -7.9L-9.5 -7.8L-5 -7.7Q-2.75 -8 -1.65 -8.65L-1.4 -8.75L-1.2 -8.95L-1.05 -9.05L-1.05 -9.1L-1.05 -9.05L-1.05 -8.9L-1.1 -8.7L-1.15 -8.65L-1.25 -8.55L-1.55 -8.25Q-2.7 -7.55 -4.95 -7.35L-6.4 -7.25L-6.55 -7.25L-6.75 -7.25L-7.5 -7.25L-7.75 -7.25" />
<linearGradient
id="LinearGradID_631" gradientUnits="userSpaceOnUse" gradientTransform="matrix(0.00460815, 0, 0, 0.00109863, -3.75, -8.05)" spreadMethod ="pad" x1="-819.2" y1="0" x2="819.2" y2="0" >
<stop  offset="0" style="stop-color:#805740;stop-opacity:1" />
<stop  offset="0.270588" style="stop-color:#DDD335;stop-opacity:1" />
<stop  offset="0.490196" style="stop-color:#FEFE30;stop-opacity:1" />
<stop  offset="0.639216" style="stop-color:#DACE34;stop-opacity:1" />
<stop  offset="1" style="stop-color:#805740;stop-opacity:1" />
</linearGradient>
<path style="fill:url(#LinearGradID_631) " d="M-1,-8.9Q0 -8.6 0.05 -8.2L0 -8.15L0 -8.1L-0.15 -7.95L-0.45 -7.75L-0.6 -7.7L-0.85 -7.6L-0.9 -7.6L-1.45 -7.45L-1.75 -7.35L-2.15 -7.3L-4.95 -7.1L-7.5 -7.25L-6.75 -7.25L-6.55 -7.25L-6.4 -7.25L-4.95 -7.35Q-2.7 -7.55 -1.55 -8.25L-1.25 -8.55L-1.15 -8.65L-1.1 -8.7L-1.05 -8.9L-1 -8.9" />
<linearGradient
id="LinearGradID_632" gradientUnits="userSpaceOnUse" gradientTransform="matrix(0.00648499, 0, 0, 0.00143433, -5, -8.3)" spreadMethod ="pad" x1="-819.2" y1="0" x2="819.2" y2="0" >
<stop  offset="0" style="stop-color:#FEFE30;stop-opacity:1" />
<stop  offset="1" style="stop-color:#805740;stop-opacity:1" />
<stop  offset="1" style="stop-color:#805740;stop-opacity:1" />
</linearGradient>
<path style="fill:url(#LinearGradID_632) " d="M-1,-9.05Q0.3 -8.7 0.35 -8.25L0.3 -8.15L0.25 -8.1L0.25 -8L0.05 -7.85L-0.2 -7.75L-0.35 -7.65L-0.6 -7.55L-1 -7.45L-1.25 -7.4L-1.85 -7.3L-2.25 -7.25L-5 -7.05L-8.1 -7.25L-7.75 -7.25L-7.5 -7.25L-4.95 -7.1L-2.15 -7.3L-1.75 -7.35L-1.45 -7.45L-0.9 -7.6L-0.85 -7.6L-0.6 -7.7L-0.45 -7.75L-0.15 -7.95L0 -8.1L0 -8.15L0.05 -8.2Q0 -8.6 -1 -8.9L-1.05 -8.9L-1.05 -9.05L-1 -9.05" />
<linearGradient
id="LinearGradID_633" gradientUnits="userSpaceOnUse" gradientTransform="matrix(0.00605774, 0, 0, 0.00132751, -7, -9.25)" spreadMethod ="pad" x1="-819.2" y1="0" x2="819.2" y2="0" >
<stop  offset="0" style="stop-color:#805740;stop-opacity:1" />
<stop  offset="0.258824" style="stop-color:#DDD335;stop-opacity:1" />
<stop  offset="0.529412" style="stop-color:#FEFE30;stop-opacity:1" />
<stop  offset="0.823529" style="stop-color:#DACE34;stop-opacity:1" />
<stop  offset="1" style="stop-color:#805740;stop-opacity:1" />
</linearGradient>
<path style="fill:url(#LinearGradID_633) " d="M-1.75,-9.05L-1.8 -9L-1.95 -8.85Q-2.35 -8.65 -3.25 -8.4L-7 -8.05L-9.9 -8.25L-10.3 -8.3L-10.8 -8.4L-10.85 -8.45L-10.9 -8.45L-11.1 -8.5L-11.4 -8.6L-11.75 -8.7L-12.05 -8.85L-12.35 -9.25L-12.35 -9.3L-12.1 -9L-11.75 -8.85L-11.4 -8.7L-11.1 -8.65L-11.3 -8.7L-11.6 -8.8L-11.8 -9L-11.95 -9.2L-11.95 -9.3Q-11.85 -9.7 -10.45 -10L-6.95 -10.3L-3.45 -10Q-2.2 -9.7 -2 -9.35L-2 -9.25L-2 -9.15L-2.05 -9.05L-2.2 -8.95L-2.65 -8.7L-1.9 -9L-1.75 -9.1L-1.75 -9.05" />
<linearGradient
id="LinearGradID_634" gradientUnits="userSpaceOnUse" gradientTransform="matrix(0.00741577, 0, 0, 0.000289917, -6.95, -8.65)" spreadMethod ="pad" x1="-819.2" y1="0" x2="819.2" y2="0" >
<stop  offset="0" style="stop-color:#805740;stop-opacity:1" />
<stop  offset="0.741176" style="stop-color:#FEFE30;stop-opacity:1" />
<stop  offset="1" style="stop-color:#805740;stop-opacity:1" />
</linearGradient>
<path style="fill:url(#LinearGradID_634) " d="M-0.95,-9.15L-1 -9.2L-0.95 -9.2L-0.95 -9.15" />
<linearGradient
id="LinearGradID_635" gradientUnits="userSpaceOnUse" gradientTransform="matrix(0.00653076, 0, 0, 0.00144958, -4.95, -8.4)" spreadMethod ="pad" x1="-819.2" y1="0" x2="819.2" y2="0" >
<stop  offset="0" style="stop-color:#FEFE30;stop-opacity:1" />
<stop  offset="1" style="stop-color:#805740;stop-opacity:1" />
<stop  offset="1" style="stop-color:#805740;stop-opacity:1" />
</linearGradient>
<path style="fill:url(#LinearGradID_635) " d="M-0.95,-9.15L-0.95 -9.2L-0.55 -9.05L-0.75 -9.1L-0.95 -9.15" />
<linearGradient
id="LinearGradID_636" gradientUnits="userSpaceOnUse" gradientTransform="matrix(0.00735474, 0, 0, 0.000289917, -4.95, -7.55)" spreadMethod ="pad" x1="-819.2" y1="0" x2="819.2" y2="0" >
<stop  offset="0.372549" style="stop-color:#805740;stop-opacity:1" />
<stop  offset="0.670588" style="stop-color:#FEFE30;stop-opacity:1" />
<stop  offset="0.960784" style="stop-color:#DDD335;stop-opacity:1" />
<stop  offset="1" style="stop-color:#805740;stop-opacity:1" />
</linearGradient>
<path style="fill:url(#LinearGradID_636) " d="M-3.6,-6.3L-4.3 -6.3L-4.5 -6.3L-4.75 -6.3L-5.7 -6.3L-7.9 -6.5L-8.25 -6.5L-8.7 -6.6L-9.05 -6.7L-10.45 -7.25L-10.5 -7.25L-10.8 -7.45L-10.8 -7.65L-10.15 -7.5L-9.85 -7.35L-9.35 -7.25L-9.15 -7.15L-4.8 -6.6L-4.35 -6.6L-2.95 -6.7L-1.85 -6.85L-1.1 -7.05Q-0.45 -7.2 0.05 -7.45L0.25 -7.55L0.35 -7.6L0.4 -7.65L0.6 -7.75L0.85 -7.95L1 -8.1L0.9 -7.7L0.9 -7.65L0.9 -7.6L0.8 -7.55L0.75 -7.55L0.75 -7.5L0.65 -7.4L0.5 -7.3L0.5 -7.25Q-0.35 -6.8 -1.75 -6.5L-2 -6.5L-2.9 -6.35L-3.6 -6.3" />
<linearGradient
id="LinearGradID_637" gradientUnits="userSpaceOnUse" gradientTransform="matrix(0.00741577, 0, 0, 0.000289917, -4.9, -7.65)" spreadMethod ="pad" x1="-819.2" y1="0" x2="819.2" y2="0" >
<stop  offset="0" style="stop-color:#805740;stop-opacity:1" />
<stop  offset="0.741176" style="stop-color:#FEFE30;stop-opacity:1" />
<stop  offset="1" style="stop-color:#805740;stop-opacity:1" />
</linearGradient>
<path style="fill:url(#LinearGradID_637) " d="M1.1,-8.2L1 -7.75L0.9 -7.7L1 -8.1L1.1 -8.2" />
<linearGradient
id="LinearGradID_638" gradientUnits="userSpaceOnUse" gradientTransform="matrix(0.00648499, 0, 0, 0.00143433, -3.75, -6.75)" spreadMethod ="pad" x1="-819.2" y1="0" x2="819.2" y2="0" >
<stop  offset="0" style="stop-color:#FEFE30;stop-opacity:1" />
<stop  offset="1" style="stop-color:#805740;stop-opacity:1" />
<stop  offset="1" style="stop-color:#805740;stop-opacity:1" />
</linearGradient>
<path style="fill:url(#LinearGradID_638) " d="M-5.65,-5.7L-3.7 -5.6L-0.2 -5.95L0.3 -6.05L0.45 -6.1L0.55 -6.15L0.9 -6.3L1.1 -6.45L1.25 -6.55L1.25 -6.6L1.3 -6.7L0.5 -7.3L0.65 -7.4L1.55 -6.75L1.55 -6.65L1.5 -6.5L1.45 -6.5L1.3 -6.35L1.05 -6.2L0.6 -6.1L0.35 -6L0 -5.9L-3.75 -5.55L-6.05 -5.7L-5.65 -5.7" />
<linearGradient
id="LinearGradID_639" gradientUnits="userSpaceOnUse" gradientTransform="matrix(0.00653076, 0, 0, 0.00144958, -3.7, -6.85)" spreadMethod ="pad" x1="-819.2" y1="0" x2="819.2" y2="0" >
<stop  offset="0" style="stop-color:#FEFE30;stop-opacity:1" />
<stop  offset="1" style="stop-color:#805740;stop-opacity:1" />
<stop  offset="1" style="stop-color:#805740;stop-opacity:1" />
</linearGradient>
<path style="fill:url(#LinearGradID_639) " d="M0.75,-7.55L0.95 -7.45L0.75 -7.5L0.75 -7.55" />
<linearGradient
id="LinearGradID_640" gradientUnits="userSpaceOnUse" gradientTransform="matrix(0.00424194, 0, 0, 0.0010376, -2.2, -6.5)" spreadMethod ="pad" x1="-819.2" y1="0" x2="819.2" y2="0" >
<stop  offset="0" style="stop-color:#805740;stop-opacity:1" />
<stop  offset="0.270588" style="stop-color:#DDD335;stop-opacity:1" />
<stop  offset="0.490196" style="stop-color:#FEFE30;stop-opacity:1" />
<stop  offset="0.678431" style="stop-color:#DACE34;stop-opacity:1" />
<stop  offset="1" style="stop-color:#805740;stop-opacity:1" />
</linearGradient>
<path style="fill:url(#LinearGradID_640) " d="M-1.75,-6.5Q-0.35 -6.8 0.5 -7.25L0.5 -7.3L1.3 -6.7L1.25 -6.6L1.25 -6.55L1.1 -6.45L0.9 -6.3L0.55 -6.15L0.45 -6.1L0.3 -6.05L-0.2 -5.95L-3.7 -5.6L-5.65 -5.7L-5.4 -5.7L-4.95 -5.75L-4.9 -5.75Q-2.9 -5.95 -1.75 -6.5" />
<linearGradient
id="LinearGradID_641" gradientUnits="userSpaceOnUse" gradientTransform="matrix(0.00735474, 0, 0, 0.000289917, -6.95, -6.95)" spreadMethod ="pad" x1="-819.2" y1="0" x2="819.2" y2="0" >
<stop  offset="0.372549" style="stop-color:#805740;stop-opacity:1" />
<stop  offset="0.670588" style="stop-color:#FEFE30;stop-opacity:1" />
<stop  offset="1" style="stop-color:#805740;stop-opacity:1" />
</linearGradient>
<path style="fill:url(#LinearGradID_641) " d="M-4.9,-5.75L-4.95 -5.75L-5.4 -5.7L-5.65 -5.7L-6.05 -5.7L-6.5 -5.65L-6.7 -5.65L-7.7 -5.7L-8 -5.7L-9 -5.75L-9.25 -5.8L-9.45 -5.8L-9.5 -5.8L-9.9 -5.85L-10.05 -5.9L-10.5 -5.95L-12.45 -6.65L-12.5 -6.7L-12.75 -6.85L-12.9 -7.4L-12.8 -7.3L-12.4 -7L-11.8 -6.75L-11.35 -6.65L-11.1 -6.55L-10.05 -6.3L-9.6 -6.2L-9.3 -6.15L-8 -6.05L-7.45 -6L-4.95 -6.1L-3.6 -6.3L-2.9 -6.35L-2 -6.5L-1.75 -6.5Q-2.9 -5.95 -4.9 -5.75" />
<linearGradient
id="LinearGradID_642" gradientUnits="userSpaceOnUse" gradientTransform="matrix(0.00648499, 0, 0, 0.00143433, -6.95, -7.65)" spreadMethod ="pad" x1="-819.2" y1="0" x2="819.2" y2="0" >
<stop  offset="0" style="stop-color:#FEFE30;stop-opacity:1" />
<stop  offset="1" style="stop-color:#805740;stop-opacity:1" />
<stop  offset="1" style="stop-color:#805740;stop-opacity:1" />
</linearGradient>
<path style="fill:url(#LinearGradID_642) " d="M-11.9,-7.65L-11.9 -7.6L-11.75 -7.35L-11.55 -7.2L-11.25 -7.1L-10.9 -6.95L-10.4 -6.8L-9.7 -6.7L-9.05 -6.6L-8.6 -6.55L-8.25 -6.5L-7.9 -6.5L-8.55 -6.5L-9 -6.5L-9.7 -6.65L-10.75 -6.8L-11.35 -6.95L-11.7 -7.1L-12 -7.25L-12.3 -7.65L-12.3 -7.7L-12 -8.05L-11.8 -7.95L-11.7 -7.9L-11.9 -7.65" />
<linearGradient
id="LinearGradID_643" gradientUnits="userSpaceOnUse" gradientTransform="matrix(0.00219727, 0, 0, 0.000839233, -10.1, -7.25)" spreadMethod ="pad" x1="-819.2" y1="0" x2="819.2" y2="0" >
<stop  offset="0" style="stop-color:#805740;stop-opacity:1" />
<stop  offset="0.356863" style="stop-color:#DDD335;stop-opacity:1" />
<stop  offset="0.490196" style="stop-color:#FEFE30;stop-opacity:1" />
<stop  offset="0.678431" style="stop-color:#DACE34;stop-opacity:1" />
<stop  offset="1" style="stop-color:#805740;stop-opacity:1" />
</linearGradient>
<path style="fill:url(#LinearGradID_643) " d="M-10.8,-7.45L-10.5 -7.25L-10.45 -7.25L-9.05 -6.7L-8.7 -6.6L-8.25 -6.5L-8.6 -6.55L-9.05 -6.6L-9.7 -6.7L-10.4 -6.8L-10.9 -6.95L-11.25 -7.1L-11.55 -7.2L-11.75 -7.35L-11.9 -7.6L-11.9 -7.65L-11.7 -7.9L-10.8 -7.65L-10.8 -7.45" />
<linearGradient
id="LinearGradID_644" gradientUnits="userSpaceOnUse" gradientTransform="matrix(0.00648499, 0, 0, 0.00143433, -4.6, -5.85)" spreadMethod ="pad" x1="-819.2" y1="0" x2="819.2" y2="0" >
<stop  offset="0" style="stop-color:#FEFE30;stop-opacity:1" />
<stop  offset="1" style="stop-color:#805740;stop-opacity:1" />
<stop  offset="1" style="stop-color:#805740;stop-opacity:1" />
</linearGradient>
<path style="fill:url(#LinearGradID_644) " d="M-1.7,-4.85L-4.6 -4.65L-8.35 -5L-9 -5.2L-9.3 -5.35L-9.65 -5.45L-9.85 -5.7L-9.9 -5.8L-9.9 -5.85L-9.5 -5.8L-9.45 -5.75L-9.4 -5.6L-9.2 -5.4L-8.85 -5.3L-8.2 -5.1L-8.05 -5.05L-4.55 -4.7L-2.65 -4.8L-1.7 -4.85" />
<linearGradient
id="LinearGradID_645" gradientUnits="userSpaceOnUse" gradientTransform="matrix(0.00735474, 0, 0, 0.000289917, -3.7, -6.05)" spreadMethod ="pad" x1="-819.2" y1="0" x2="819.2" y2="0" >
<stop  offset="0.372549" style="stop-color:#805740;stop-opacity:1" />
<stop  offset="0.670588" style="stop-color:#FEFE30;stop-opacity:1" />
<stop  offset="1" style="stop-color:#805740;stop-opacity:1" />
</linearGradient>
<path style="fill:url(#LinearGradID_645) " d="M2.15,-6.15L2 -6.05L1.7 -5.8L1.45 -5.65L1.35 -5.6L1.25 -5.5L1.15 -5.5Q0.05 -5.05 -1.7 -4.85L-2.65 -4.8L-3.25 -4.75L-3.5 -4.75L-4.5 -4.8L-5.25 -4.8Q-7.8 -5 -9.2 -5.75L-9.25 -5.8L-9 -5.75L-8 -5.7L-7.9 -5.65L-1.7 -5.2L0.3 -5.6L0.65 -5.7L1.3 -5.95L1.65 -6.15L1.85 -6.25L2.1 -6.45L2.1 -6.5L2.25 -6.6L2.15 -6.15" />
<linearGradient
id="LinearGradID_646" gradientUnits="userSpaceOnUse" gradientTransform="matrix(0.00418091, 0, 0, 0.000671387, -6.1, -5.3)" spreadMethod ="pad" x1="-819.2" y1="0" x2="819.2" y2="0" >
<stop  offset="0" style="stop-color:#805740;stop-opacity:1" />
<stop  offset="0.423529" style="stop-color:#DDD335;stop-opacity:1" />
<stop  offset="0.490196" style="stop-color:#FEFE30;stop-opacity:1" />
<stop  offset="0.560784" style="stop-color:#DACE34;stop-opacity:1" />
<stop  offset="1" style="stop-color:#805740;stop-opacity:1" />
</linearGradient>
<path style="fill:url(#LinearGradID_646) " d="M-9.2,-5.75Q-7.8 -5 -5.25 -4.8L-4.5 -4.8L-3.5 -4.75L-3.25 -4.75L-2.65 -4.8L-4.55 -4.7L-8.05 -5.05L-8.2 -5.1L-8.85 -5.3L-9.2 -5.4L-9.4 -5.6L-9.45 -5.75L-9.5 -5.8L-9.45 -5.8L-9.25 -5.8L-9.2 -5.75" />
<linearGradient
id="LinearGradID_647" gradientUnits="userSpaceOnUse" gradientTransform="matrix(0.00648499, 0, 0, 0.00143433, -6.6, -4.9)" spreadMethod ="pad" x1="-819.2" y1="0" x2="819.2" y2="0" >
<stop  offset="0" style="stop-color:#FEFE30;stop-opacity:1" />
<stop  offset="1" style="stop-color:#805740;stop-opacity:1" />
<stop  offset="1" style="stop-color:#805740;stop-opacity:1" />
</linearGradient>
<path style="fill:url(#LinearGradID_647) " d="M-10.5,-5.55Q-11.4 -5.25 -11.5 -4.9L-11.5 -4.85L-11.35 -4.65L-11.3 -4.55L-11.15 -4.45L-11 -4.4L-10.85 -4.35L-10.65 -4.3L-10 -4.1L-6.5 -3.8L-4.45 -3.85L-4.35 -3.85L-4.1 -3.85L-4 -3.85L-6.55 -3.7L-10.35 -4.05L-10.7 -4.15L-10.95 -4.25L-11.1 -4.3L-11.3 -4.4L-11.5 -4.45L-11.65 -4.5L-11.9 -4.85L-11.9 -4.9Q-11.9 -5.35 -10.55 -5.7L-10.35 -5.75L-9.9 -5.8L-9.85 -5.7L-10 -5.65L-10.4 -5.55L-10.45 -5.55L-10.5 -5.55" />
<linearGradient
id="LinearGradID_648" gradientUnits="userSpaceOnUse" gradientTransform="matrix(0.00735474, 0, 0, 0.000289917, -4.55, -5.15)" spreadMethod ="pad" x1="-819.2" y1="0" x2="819.2" y2="0" >
<stop  offset="0.4" style="stop-color:#805740;stop-opacity:1" />
<stop  offset="0.670588" style="stop-color:#FEFE30;stop-opacity:1" />
<stop  offset="1" style="stop-color:#805740;stop-opacity:1" />
</linearGradient>
<path style="fill:url(#LinearGradID_648) " d="M1.3,-5.25L1.15 -5.15L0.85 -4.85L0.1 -4.5L-0.05 -4.45L-0.4 -4.35L-0.5 -4.3L-0.7 -4.25L-0.75 -4.25L-1.55 -4.05L-1.8 -4.05L-2.5 -3.95L-4 -3.85L-4.1 -3.85L-4.35 -3.85L-4.45 -3.85L-5.35 -3.9Q-8.45 -4 -10.05 -4.85L-10.1 -4.85L-10.4 -5.05L-10.5 -5.55L-10.45 -5.55L-10.45 -5.5L-10 -5.2L-9.45 -4.95L-8.95 -4.85L-8.75 -4.75L-2.55 -4.3L-2.15 -4.35L-1.7 -4.4L-0.7 -4.65L-0.6 -4.65L-0.5 -4.7L0.8 -5.25L1.05 -5.35L1.25 -5.5L1.35 -5.6L1.3 -5.25" />
<linearGradient
id="LinearGradID_649" gradientUnits="userSpaceOnUse" gradientTransform="matrix(0.00428772, 0, 0, 0.00108337, -7.95, -4.65)" spreadMethod ="pad" x1="-819.2" y1="0" x2="819.2" y2="0" >
<stop  offset="0" style="stop-color:#805740;stop-opacity:1" />
<stop  offset="0.407843" style="stop-color:#EAE433;stop-opacity:1" />
<stop  offset="0.490196" style="stop-color:#FEFE30;stop-opacity:1" />
<stop  offset="0.560784" style="stop-color:#DACE34;stop-opacity:1" />
<stop  offset="1" style="stop-color:#805740;stop-opacity:1" />
<stop  offset="1" style="stop-color:#DDD335;stop-opacity:1" />
</linearGradient>
<path style="fill:url(#LinearGradID_649) " d="M-10.4,-5.05L-10.1 -4.85L-10.05 -4.85Q-8.45 -4 -5.35 -3.9L-4.45 -3.85L-6.5 -3.8L-10 -4.1L-10.65 -4.3L-10.85 -4.35L-11 -4.4L-11.15 -4.45L-11.3 -4.55L-11.35 -4.65L-11.5 -4.85L-11.5 -4.9Q-11.4 -5.25 -10.5 -5.55L-10.4 -5.05" />
<linearGradient
id="LinearGradID_650" gradientUnits="userSpaceOnUse" gradientTransform="matrix(0.00735474, 0, 0, 0.000289917, -6.55, -4.2)" spreadMethod ="pad" x1="-819.2" y1="0" x2="819.2" y2="0" >
<stop  offset="0.34902" style="stop-color:#805740;stop-opacity:1" />
<stop  offset="0.670588" style="stop-color:#FEFE30;stop-opacity:1" />
<stop  offset="1" style="stop-color:#805740;stop-opacity:1" />
</linearGradient>
<path style="fill:url(#LinearGradID_650) " d="M-0.75,-4.25L-0.8 -4.2L-1.1 -3.95L-2.5 -3.35L-3.25 -3.15L-3.85 -3.05L-4.5 -3L-4.95 -2.95L-6.1 -2.95L-6.3 -2.95L-7.3 -2.95L-10.65 -3.35L-10.7 -3.4L-10.8 -3.4L-11.35 -3.6L-11.65 -3.7L-12 -3.9L-12.1 -3.95L-12.4 -4.1L-12.5 -4.7L-12.5 -4.8L-12.45 -4.55L-12 -4.25L-11.75 -4.15L-11.45 -4L-11 -3.9L-10.95 -3.9L-10.7 -3.85L-10.35 -3.7L-4.55 -3.35L-1.55 -4.05L-0.75 -4.25" />
<linearGradient
id="LinearGradID_651" gradientUnits="userSpaceOnUse" gradientTransform="matrix(0.00735474, 0, 0, 0.000289917, -5.75, -3.45)" spreadMethod ="pad" x1="-819.2" y1="0" x2="819.2" y2="0" >
<stop  offset="0.333333" style="stop-color:#805740;stop-opacity:1" />
<stop  offset="0.670588" style="stop-color:#FEFE30;stop-opacity:1" />
<stop  offset="1" style="stop-color:#805740;stop-opacity:1" />
</linearGradient>
<path style="fill:url(#LinearGradID_651) " d="M0.1,-3.55L0 -3.4L-0.3 -3.2Q-1.45 -2.5 -3.7 -2.25L-5.3 -2.15L-5.5 -2.15L-6.5 -2.2Q-9.65 -2.3 -11.25 -3.15L-11.3 -3.2L-11.55 -3.35L-11.65 -3.7L-11.35 -3.6L-11.2 -3.5L-10.65 -3.3L-10.15 -3.1L-9.9 -3.05Q-6.9 -2.25 -3.75 -2.6Q-1.5 -2.9 -0.4 -3.55L-0.15 -3.65L0.05 -3.85L0.15 -3.9L0.2 -4L0.1 -3.55" />
<linearGradient
id="LinearGradID_652" gradientUnits="userSpaceOnUse" gradientTransform="matrix(0.00741577, 0, 0, 0.000289917, -6.5, -4.3)" spreadMethod ="pad" x1="-819.2" y1="0" x2="819.2" y2="0" >
<stop  offset="0" style="stop-color:#805740;stop-opacity:1" />
<stop  offset="0.741176" style="stop-color:#FEFE30;stop-opacity:1" />
<stop  offset="1" style="stop-color:#805740;stop-opacity:1" />
</linearGradient>
<path style="fill:url(#LinearGradID_652) " d="M-12.5,-4.8L-12.55 -4.85L-12.5 -4.85L-12.5 -4.8" />
<linearGradient
id="LinearGradID_653" gradientUnits="userSpaceOnUse" gradientTransform="matrix(0.00741577, 0, 0, 0.000289917, -3.65, -6.15)" spreadMethod ="pad" x1="-819.2" y1="0" x2="819.2" y2="0" >
<stop  offset="0" style="stop-color:#805740;stop-opacity:1" />
<stop  offset="0.741176" style="stop-color:#FEFE30;stop-opacity:1" />
<stop  offset="1" style="stop-color:#805740;stop-opacity:1" />
</linearGradient>
<path style="fill:url(#LinearGradID_653) " d="M2.25,-6.6L2.35 -6.7L2.25 -6.25L2.15 -6.15L2.25 -6.6" />
<linearGradient
id="LinearGradID_654" gradientUnits="userSpaceOnUse" gradientTransform="matrix(0.00741577, 0, 0, 0.000289917, -4.5, -5.25)" spreadMethod ="pad" x1="-819.2" y1="0" x2="819.2" y2="0" >
<stop  offset="0" style="stop-color:#805740;stop-opacity:1" />
<stop  offset="0.741176" style="stop-color:#FEFE30;stop-opacity:1" />
<stop  offset="1" style="stop-color:#805740;stop-opacity:1" />
</linearGradient>
<path style="fill:url(#LinearGradID_654) " d="M1.35,-5.6L1.45 -5.65L1.4 -5.35L1.3 -5.25L1.35 -5.6" />
<linearGradient
id="LinearGradID_655" gradientUnits="userSpaceOnUse" gradientTransform="matrix(0.00648499, 0, 0, 0.00143433, -5.8, -4.15)" spreadMethod ="pad" x1="-819.2" y1="0" x2="819.2" y2="0" >
<stop  offset="0" style="stop-color:#FEFE30;stop-opacity:1" />
<stop  offset="1" style="stop-color:#805740;stop-opacity:1" />
<stop  offset="1" style="stop-color:#805740;stop-opacity:1" />
</linearGradient>
<path style="fill:url(#LinearGradID_655) " d="M-0.45,-4.15L-0.5 -4.05L-0.55 -3.9L-0.75 -3.8Q-1.15 -3.55 -2 -3.3L-4.95 -2.95L-4.5 -3L-3.85 -3.05L-2.4 -3.3L-2.2 -3.35Q-1.25 -3.6 -0.95 -3.85L-0.8 -3.95L-0.75 -4.1L-0.8 -4.2L-0.75 -4.25L-0.7 -4.25L-0.5 -4.3L-0.45 -4.15" />
<linearGradient
id="LinearGradID_656" gradientUnits="userSpaceOnUse" gradientTransform="matrix(0.00187683, 0, 0, 0.000686646, -2.35, -3.65)" spreadMethod ="pad" x1="-819.2" y1="0" x2="819.2" y2="0" >
<stop  offset="0" style="stop-color:#805740;stop-opacity:1" />
<stop  offset="0.407843" style="stop-color:#EAE433;stop-opacity:1" />
<stop  offset="0.490196" style="stop-color:#FEFE30;stop-opacity:1" />
<stop  offset="0.560784" style="stop-color:#DACE34;stop-opacity:1" />
<stop  offset="1" style="stop-color:#DDD335;stop-opacity:1" />
<stop  offset="1" style="stop-color:#805740;stop-opacity:1" />
</linearGradient>
<path style="fill:url(#LinearGradID_656) " d="M-0.75,-4.1L-0.8 -3.95L-0.95 -3.85Q-1.25 -3.6 -2.2 -3.35L-2.4 -3.3L-3.85 -3.05L-3.25 -3.15L-2.5 -3.35L-1.1 -3.95L-0.8 -4.2L-0.75 -4.1" />
<linearGradient
id="LinearGradID_657" gradientUnits="userSpaceOnUse" gradientTransform="matrix(0.00741577, 0, 0, 0.000289917, -5.7, -3.55)" spreadMethod ="pad" x1="-819.2" y1="0" x2="819.2" y2="0" >
<stop  offset="0" style="stop-color:#805740;stop-opacity:1" />
<stop  offset="0.741176" style="stop-color:#FEFE30;stop-opacity:1" />
<stop  offset="1" style="stop-color:#805740;stop-opacity:1" />
</linearGradient>
<path style="fill:url(#LinearGradID_657) " d="M0.2,-4L0.3 -4.1L0.2 -3.6L0.1 -3.55L0.2 -4" />
<path style="fill:none;stroke-width:1;stroke-linecap:round;stroke-linejoin:round;stroke-miterlimit:3;stroke:#563529;stroke-opacity:1" d="M-17.5,12.25L17.3 -12.5" />
<path style="fill:none;stroke-width:1;stroke-linecap:round;stroke-linejoin:round;stroke-miterlimit:3;stroke:#563529;stroke-opacity:1" d="M-17.5,-12.5L17.5 -12.5L17.5 12.5L-17.5 12.5L-17.5 -12.5z" />
</g>
</svg>
