<?xml version="1.0" encoding="utf-8"?>
<svg version="1.1" id="Layer_1"
xmlns="http://www.w3.org/2000/svg"
xmlns:xlink="http://www.w3.org/1999/xlink"
xmlns:author="http://www.sothink.com"
width="7px" height="7px"
xml:space="preserve">
<g id="242" transform="matrix(1, 0, 0, 1, 64.65, -100.2)">
<path style="fill:#000066;fill-opacity:1" d="M-61.4,100.6Q-62.6 100.6 -63.45 101.4Q-64.3 102.25 -64.3 103.5Q-64.3 104.65 -63.45 105.5Q-62.6 106.35 -61.4 106.35Q-60.2 106.35 -59.3 105.5Q-58.5 104.65 -58.5 103.5Q-58.5 102.25 -59.3 101.4Q-60.2 100.6 -61.4 100.6M-59.1,101.2Q-58.15 102.1 -58.15 103.5Q-58.15 104.85 -59.1 105.75Q-60.05 106.7 -61.4 106.7Q-62.75 106.7 -63.7 105.75Q-64.65 104.85 -64.65 103.5Q-64.65 102.1 -63.7 101.2Q-62.75 100.2 -61.4 100.2Q-60.05 100.2 -59.1 101.2M-61.35,102.05Q-61.8 102.05 -62.15 102.45Q-62.5 102.85 -62.5 103.55Q-62.5 104.25 -62.15 104.55L-61.4 104.95L-60.7 104.7L-60.3 104.05L-59.9 104.2Q-60.05 104.75 -60.45 105L-61.4 105.35L-62.55 104.9Q-63 104.4 -63 103.55Q-63 102.65 -62.55 102.15Q-62.05 101.65 -61.3 101.65Q-60.75 101.65 -60.4 101.95Q-60.05 102.15 -59.9 102.7L-60.35 102.8L-60.75 102.2L-61.35 102.05" />
</g>
</svg>
