<?xml version="1.0" encoding="utf-8"?>
<svg version="1.1" id="Layer_1"
xmlns="http://www.w3.org/2000/svg"
xmlns:xlink="http://www.w3.org/1999/xlink"
xmlns:author="http://www.sothink.com"
width="34px" height="25px"
xml:space="preserve">
<g id="156" transform="matrix(1, 0, 0, 1, 16.55, 12.5)">
<path style="fill:#BF9E7F;fill-opacity:1" d="M14.45,-12.5L16.5 -12.5L16.5 12.5L-16.55 12.5L-16.55 10.5L-16.45 10.5L-16.45 10.55L-14.55 10.55L-14.55 10.5L14.45 10.5L14.45 -10.6L14.55 -10.6L14.55 -12.45L14.45 -12.45L14.45 -12.5" />
<path style="fill:#977859;fill-opacity:1" d="M-16.55,-12.5L14.45 -12.5L14.45 -12.45L-16.45 -12.45L-16.45 10.5L-16.55 10.5L-16.55 -12.5" />
<path style="fill:#563529;fill-opacity:1" d="M-14.55,10.5L-14.55 10.55L-16.45 10.55L-16.45 10.5L-16.45 -12.45L14.45 -12.45L14.55 -12.45L14.55 -10.6L14.45 -10.6L-14.55 -10.6L-14.55 10.5" />
<path style="fill:#DBE6BE;fill-opacity:1" d="M-14.55,-10.6L14.45 -10.6L14.45 10.5L-14.55 10.5L-14.55 -10.6M3.05,-5.45L-4.1 5.2L-3.25 5.2L3.95 -5.45L3.05 -5.45M2.95,0.75L3.45 0.35L3.95 0.65Q4.25 1.15 4.25 2.45Q4.25 3.7 3.95 4.15Q3.7 4.5 3.45 4.5L2.95 4.15Q2.7 3.75 2.7 2.5Q2.7 1.1 2.95 0.75M1.55,1Q1.25 1.65 1.25 2.45Q1.25 3.7 1.9 4.45Q2.6 5.2 3.45 5.2Q4.4 5.2 5.05 4.5Q5.7 3.75 5.7 2.45L5.4 1L4.55 0L3.5 -0.35L2.35 0Q1.85 0.35 1.55 1M-3.2,-4.7Q-2.85 -3.95 -2.85 -2.6L-2.95 -0.9Q-3.4 -0.55 -3.65 -0.55L-3.95 -0.65L-4.25 -1.2L-4.4 -2.65L-4.15 -4.35Q-3.9 -4.75 -3.6 -4.75L-3.2 -4.7M-3.6,-5.45L-4.7 -5.1L-5.55 -4.1L-5.85 -2.65Q-5.85 -1.5 -5.25 -0.7Q-4.65 0.1 -3.6 0.1Q-2.7 0.1 -2.05 -0.65Q-1.4 -1.35 -1.4 -2.65Q-1.4 -3.7 -1.95 -4.6Q-2.55 -5.45 -3.6 -5.45" />
<path style="fill:#715944;fill-opacity:1" d="M3.95,-5.45L-3.25 5.2L-4.1 5.2L3.05 -5.45L3.95 -5.45M2.7,2.5Q2.7 3.75 2.95 4.15L3.45 4.5Q3.7 4.5 3.95 4.15Q4.25 3.7 4.25 2.45Q4.25 1.15 3.95 0.65L3.45 0.35L2.95 0.75Q2.7 1.1 2.7 2.5M2.35,0L3.5 -0.35L4.55 0L5.4 1L5.7 2.45Q5.7 3.75 5.05 4.5Q4.4 5.2 3.45 5.2Q2.6 5.2 1.9 4.45Q1.25 3.7 1.25 2.45Q1.25 1.65 1.55 1Q1.85 0.35 2.35 0M-3.6,-4.75Q-3.9 -4.75 -4.15 -4.35L-4.4 -2.65L-4.25 -1.2L-3.95 -0.65L-3.65 -0.55Q-3.4 -0.55 -2.95 -0.9L-2.85 -2.6Q-2.85 -3.95 -3.2 -4.7L-3.6 -4.75M-1.95,-4.6Q-1.4 -3.7 -1.4 -2.65Q-1.4 -1.35 -2.05 -0.65Q-2.7 0.1 -3.6 0.1Q-4.65 0.1 -5.25 -0.7Q-5.85 -1.5 -5.85 -2.65L-5.55 -4.1L-4.7 -5.1L-3.6 -5.45Q-2.55 -5.45 -1.95 -4.6" />
</g>
</svg>
