<?xml version="1.0" encoding="utf-8"?>
<svg version="1.1" id="Layer_1"
xmlns="http://www.w3.org/2000/svg"
xmlns:xlink="http://www.w3.org/1999/xlink"
xmlns:author="http://www.sothink.com"
width="36px" height="26px"
xml:space="preserve">
<g id="237" transform="matrix(1, 0, 0, 1, 18, 13)">
<path style="fill:#DBE6BE;fill-opacity:1" d="M11.45,-2.35Q9.95 -2.35 8.9 -1.75Q7.75 -1.1 7.75 -0.15L7.75 -0.1L8.2 0.5L7.6 -0.15Q6.9 -0.65 6.1 -0.45L5.9 -0.4L5.9 -0.55L5.85 -1.25L6.25 -2.2Q6.2 -3.15 5.1 -3.8L4.1 -4.2L5 -4.2Q6.3 -4.05 6.15 -4.85Q6 -5.65 5.35 -6.15Q4.65 -6.6 3.85 -6.45L3.6 -6.35L3.6 -6.5L3.35 -8.15L3.05 -8.85Q2.45 -9.85 1.6 -9.85Q0.75 -9.85 0.2 -8.85Q-0.05 -8.5 0 -8.15Q0.05 -7.5 0.8 -6.85Q1.9 -5.85 2.2 -4.8L2.2 -4.45Q0.7 -4.4 -0.35 -3.8Q-1.5 -3.15 -1.5 -2.2L-1.5 -2.15L-1.7 -2.3Q-2.4 -2.8 -3.2 -2.65L-3.45 -2.55L-3.45 -2.7Q-3.45 -4.1 -4 -5.05Q-4.6 -6 -5.45 -6Q-6.3 -6 -6.85 -5.05Q-7.45 -4.1 -6.25 -3.05Q-5.15 -2.05 -4.85 -1L-4.85 -0.6Q-6.35 -0.6 -7.4 0Q-8.45 0.6 -8.55 1.4Q-9.2 1 -9.95 1.15L-10.2 1.2L-10.2 1.05Q-10.2 -0.3 -10.75 -1.3Q-11.35 -2.25 -12.2 -2.25Q-13.05 -2.25 -13.6 -1.3Q-14.2 -0.35 -13 0.7Q-11.9 1.75 -11.6 2.8L-11.6 3.15Q-13.1 3.15 -14.15 3.75Q-15.3 4.4 -15.3 5.35Q-15.3 6.3 -14.15 6.9Q-13.05 7.55 -11.45 7.55Q-9.85 7.55 -8.7 6.9Q-7.6 6.3 -7.6 5.35Q-7.6 4.4 -8.7 3.75L-9.7 3.35L-8.8 3.35Q-7.8 3.45 -7.65 3L-7.4 3.15Q-6.3 3.8 -4.7 3.8L-3 3.6Q-2.5 4.2 -2.3 4.85L-2.35 5.2Q-3.85 5.2 -4.9 5.8Q-6.05 6.45 -6.05 7.4Q-6.05 8.35 -4.9 8.95Q-3.75 9.6 -2.15 9.65Q-0.6 9.6 0.55 8.95Q1.7 8.35 1.7 7.4Q1.7 6.45 0.55 5.8L-0.45 5.4L0.45 5.45Q1.5 5.55 1.65 5.05L1.85 5.2Q2.95 5.85 4.6 5.85Q6.15 5.85 7.3 5.2Q8.45 4.6 8.45 3.65Q8.45 2.7 7.3 2.05L6.6 1.75L7.25 1.8Q8.55 1.9 8.45 1.15L8.45 1.1L8.9 1.4Q10.05 2.05 11.65 2.05Q13.2 2.05 14.35 1.4Q15.5 0.75 15.5 -0.15Q15.5 -1.1 14.35 -1.75L13.35 -2.15L14.25 -2.15Q15.55 -2 15.45 -2.8Q15.3 -3.6 14.6 -4.05Q13.95 -4.55 13.15 -4.4L12.9 -4.3L12.9 -4.45L12.65 -6.1L12.3 -6.8Q11.7 -7.8 10.9 -7.8Q10.05 -7.8 9.45 -6.8L9.3 -6.1Q9.3 -5.45 10.05 -4.8Q11.2 -3.8 11.5 -2.75L11.45 -2.35M17.5,12.5L-17.5 12.5L-17.5 -12.5L17.5 -12.5L17.5 12.5M-0.7,3.2L-0.9 3.25L-0.9 3.1L-1 2.25L-0.85 1.6Q-0.85 0.65 -1.95 0L-2.95 -0.4L-2.05 -0.4Q-0.75 -0.25 -0.9 -1L-0.35 -0.65Q0.75 0 2.35 0L3.75 -0.15L4.45 1.2L4.45 1.55L4.5 1.85L4.65 2.45L4.45 1.75L4.4 1.45Q2.9 1.45 1.85 2.05Q0.85 2.65 0.75 3.45Q0.05 3.05 -0.7 3.2M3.9,-3.85Q3.05 -3.85 2.45 -2.9L2.3 -2.15L2.4 -1.65Q2 -2.35 2.4 -3Q3 -3.95 3.85 -3.95Q4.65 -3.95 5.25 -3L5.3 -2.9Q4.7 -3.85 3.9 -3.85" />
<radialGradient
id="RadialGradID_742" gradientUnits="userSpaceOnUse" gradientTransform="matrix(0.00326538, 0, 0, 0.00326538, 1.4, -9.25)" spreadMethod ="pad" cx="0" cy="0" r="819.2" fx="0" fy="0" >
<stop  offset="0"  style="stop-color:#10EF9B;stop-opacity:1" />
<stop  offset="1"  style="stop-color:#07784E;stop-opacity:1" />
<stop  offset="1"  style="stop-color:#805740;stop-opacity:1" />
</radialGradient>
<path style="fill:url(#RadialGradID_742) " d="M2.2,-4.8Q1.9 -5.85 0.8 -6.85Q0.05 -7.5 0 -8.15Q-0.05 -8.5 0.2 -8.85Q0.75 -9.85 1.6 -9.85Q2.45 -9.85 3.05 -8.85L3.35 -8.15L3.6 -6.5L3.6 -6.35L2.55 -5.6L2.2 -4.8" />
<radialGradient
id="RadialGradID_743" gradientUnits="userSpaceOnUse" gradientTransform="matrix(0.00314331, 0, 0, 0.00314331, -5.8, -4.95)" spreadMethod ="pad" cx="0" cy="0" r="819.2" fx="0" fy="0" >
<stop  offset="0"  style="stop-color:#10EF9B;stop-opacity:1" />
<stop  offset="1"  style="stop-color:#07784E;stop-opacity:1" />
<stop  offset="1"  style="stop-color:#805740;stop-opacity:1" />
</radialGradient>
<path style="fill:url(#RadialGradID_743) " d="M-4.85,-1Q-5.15 -2.05 -6.25 -3.05Q-7.45 -4.1 -6.85 -5.05Q-6.3 -6 -5.45 -6Q-4.6 -6 -4 -5.05Q-3.45 -4.1 -3.45 -2.7L-3.45 -2.55L-4.5 -1.8L-4.85 -1" />
<radialGradient
id="RadialGradID_744" gradientUnits="userSpaceOnUse" gradientTransform="matrix(0.00296021, 0, 0, 0.00296021, -2.05, -1)" spreadMethod ="pad" cx="0" cy="0" r="819.2" fx="0" fy="0" >
<stop  offset="0"  style="stop-color:#10EF9B;stop-opacity:1" />
<stop  offset="1"  style="stop-color:#07784E;stop-opacity:1" />
<stop  offset="1"  style="stop-color:#805740;stop-opacity:1" />
</radialGradient>
<path style="fill:url(#RadialGradID_744) " d="M-4.85,-0.6L-4.85 -1L-4.5 -1.8L-3.45 -2.55L-3.2 -2.65Q-2.4 -2.8 -1.7 -2.3L-1.5 -2.15Q-1 -1.75 -0.9 -1.05L-0.9 -1Q-0.75 -0.25 -2.05 -0.4L-2.95 -0.4L-4 -0.15L-4.35 0.1L-4.6 0.3L-4.6 0.35L-4.8 -0.3L-4.85 -0.6" />
<radialGradient
id="RadialGradID_745" gradientUnits="userSpaceOnUse" gradientTransform="matrix(0.00471497, 0, 0, 0.00471497, 2.5, -3.35)" spreadMethod ="pad" cx="0" cy="0" r="819.2" fx="0" fy="0" >
<stop  offset="0"  style="stop-color:#FE0101;stop-opacity:1" />
<stop  offset="1"  style="stop-color:#660000;stop-opacity:1" />
<stop  offset="1"  style="stop-color:#805740;stop-opacity:1" />
</radialGradient>
<path style="fill:url(#RadialGradID_745) " d="M-0.9,-1L-0.9 -1.05Q-1 -1.75 -1.5 -2.15L-1.5 -2.2Q-1.5 -3.15 -0.35 -3.8Q0.7 -4.4 2.2 -4.45L2.25 -4.1L2.45 -3.45L2.45 -3.5L2.7 -3.7L3.05 -3.95L4.1 -4.2L5.1 -3.8Q6.2 -3.15 6.25 -2.2L5.85 -1.25L5.65 -2.15L5.4 -2.7L5.3 -2.9L5.25 -3Q4.65 -3.95 3.85 -3.95Q3 -3.95 2.4 -3Q2 -2.35 2.4 -1.65L3.05 -0.85L3.75 -0.15L2.35 0Q0.75 0 -0.35 -0.65L-0.9 -1" />
<radialGradient
id="RadialGradID_746" gradientUnits="userSpaceOnUse" gradientTransform="matrix(0.00308228, 0, 0, 0.00308228, 5.05, -4.95)" spreadMethod ="pad" cx="0" cy="0" r="819.2" fx="0" fy="0" >
<stop  offset="0.0117647"  style="stop-color:#10EF9B;stop-opacity:1" />
<stop  offset="1"  style="stop-color:#07784E;stop-opacity:1" />
<stop  offset="1"  style="stop-color:#805740;stop-opacity:1" />
</radialGradient>
<path style="fill:url(#RadialGradID_746) " d="M2.55,-5.6L3.6 -6.35L3.85 -6.45Q4.65 -6.6 5.35 -6.15Q6 -5.65 6.15 -4.85Q6.3 -4.05 5 -4.2L4.1 -4.2L3.05 -3.95L2.7 -3.7L2.45 -3.5L2.45 -3.45L2.25 -4.1L2.2 -4.45L2.2 -4.8L2.55 -5.6" />
<radialGradient
id="RadialGradID_747" gradientUnits="userSpaceOnUse" gradientTransform="matrix(0.0070343, 0, 0, 0.00326538, 2.75, -2.9)" spreadMethod ="pad" cx="0" cy="0" r="819.2" fx="0" fy="0" >
<stop  offset="0"  style="stop-color:#10EF9B;stop-opacity:1" />
<stop  offset="1"  style="stop-color:#07784E;stop-opacity:1" />
<stop  offset="1"  style="stop-color:#805740;stop-opacity:1" />
</radialGradient>
<path style="fill:url(#RadialGradID_747) " d="M5.85,-1.25L5.9 -0.55L5.9 -0.4L4.8 0.35L4.45 1.2L3.75 -0.15L3.05 -0.85L2.4 -1.65L2.3 -2.15L2.45 -2.9Q3.05 -3.85 3.9 -3.85Q4.7 -3.85 5.3 -2.9L5.4 -2.7L5.65 -2.15L5.85 -1.25" />
<radialGradient
id="RadialGradID_748" gradientUnits="userSpaceOnUse" gradientTransform="matrix(0.0070343, 0, 0, 0.00326538, 9.75, -6.8)" spreadMethod ="pad" cx="0" cy="0" r="819.2" fx="0" fy="0" >
<stop  offset="0"  style="stop-color:#10EF9B;stop-opacity:1" />
<stop  offset="1"  style="stop-color:#07784E;stop-opacity:1" />
<stop  offset="1"  style="stop-color:#805740;stop-opacity:1" />
</radialGradient>
<path style="fill:url(#RadialGradID_748) " d="M11.8,-3.55L11.5 -2.75Q11.2 -3.8 10.05 -4.8Q9.3 -5.45 9.3 -6.1L9.45 -6.8Q10.05 -7.8 10.9 -7.8Q11.7 -7.8 12.3 -6.8L12.65 -6.1L12.9 -4.45L12.9 -4.3Q12.2 -4.1 11.8 -3.55" />
<radialGradient
id="RadialGradID_749" gradientUnits="userSpaceOnUse" gradientTransform="matrix(0.00471497, 0, 0, 0.00471497, 11.75, -1.3)" spreadMethod ="pad" cx="0" cy="0" r="819.2" fx="0" fy="0" >
<stop  offset="0"  style="stop-color:#FE0101;stop-opacity:1" />
<stop  offset="1"  style="stop-color:#660000;stop-opacity:1" />
<stop  offset="1"  style="stop-color:#805740;stop-opacity:1" />
</radialGradient>
<path style="fill:url(#RadialGradID_749) " d="M8.2,0.5L7.75 -0.1L7.75 -0.15Q7.75 -1.1 8.9 -1.75Q9.95 -2.35 11.45 -2.35L11.5 -2.05Q11.65 -1.25 11.7 -1.4L11.75 -1.45L12 -1.65L12.35 -1.9L13.35 -2.15L14.35 -1.75Q15.5 -1.1 15.5 -0.15Q15.5 0.75 14.35 1.4Q13.2 2.05 11.65 2.05Q10.05 2.05 8.9 1.4L8.45 1.1L8.2 0.5" />
<radialGradient
id="RadialGradID_750" gradientUnits="userSpaceOnUse" gradientTransform="matrix(0.00308228, 0, 0, 0.00308228, 15.05, -2.55)" spreadMethod ="pad" cx="0" cy="0" r="819.2" fx="0" fy="0" >
<stop  offset="0.141176"  style="stop-color:#10EF9B;stop-opacity:1" />
<stop  offset="1"  style="stop-color:#07784E;stop-opacity:1" />
<stop  offset="1"  style="stop-color:#805740;stop-opacity:1" />
</radialGradient>
<path style="fill:url(#RadialGradID_750) " d="M11.45,-2.35L11.5 -2.75L11.8 -3.55Q12.2 -4.1 12.9 -4.3L13.15 -4.4Q13.95 -4.55 14.6 -4.05Q15.3 -3.6 15.45 -2.8Q15.55 -2 14.25 -2.15L13.35 -2.15L12.35 -1.9L12 -1.65L11.75 -1.45L11.7 -1.4Q11.65 -1.25 11.5 -2.05L11.45 -2.35" />
<radialGradient
id="RadialGradID_751" gradientUnits="userSpaceOnUse" gradientTransform="matrix(0.00308228, 0, 0, 0.00308228, 8.05, 1.4)" spreadMethod ="pad" cx="0" cy="0" r="819.2" fx="0" fy="0" >
<stop  offset="0.141176"  style="stop-color:#10EF9B;stop-opacity:1" />
<stop  offset="1"  style="stop-color:#07784E;stop-opacity:1" />
<stop  offset="1"  style="stop-color:#805740;stop-opacity:1" />
</radialGradient>
<path style="fill:url(#RadialGradID_751) " d="M4.45,1.2L4.8 0.35L5.9 -0.4L6.1 -0.45Q6.9 -0.65 7.6 -0.15L8.2 0.5L8.45 1.1L8.45 1.15Q8.55 1.9 7.25 1.8L6.6 1.75L6.35 1.75L5.3 2.05L5 2.25L4.75 2.45L4.7 2.5L4.65 2.45L4.5 1.85L4.45 1.55L4.45 1.2" />
<radialGradient
id="RadialGradID_752" gradientUnits="userSpaceOnUse" gradientTransform="matrix(0.00471497, 0, 0, 0.00471497, 4.7, 2.5)" spreadMethod ="pad" cx="0" cy="0" r="819.2" fx="0" fy="0" >
<stop  offset="0"  style="stop-color:#FE0101;stop-opacity:1" />
<stop  offset="1"  style="stop-color:#660000;stop-opacity:1" />
<stop  offset="1"  style="stop-color:#805740;stop-opacity:1" />
</radialGradient>
<path style="fill:url(#RadialGradID_752) " d="M1.65,4.8Q1.5 3.95 0.8 3.5L0.75 3.45Q0.85 2.65 1.85 2.05Q2.9 1.45 4.4 1.45L4.45 1.75L4.65 2.45L4.7 2.5L4.75 2.45L5 2.25L5.3 2.05L6.35 1.75L6.6 1.75L7.3 2.05Q8.45 2.7 8.45 3.65Q8.45 4.6 7.3 5.2Q6.15 5.85 4.6 5.85Q2.95 5.85 1.85 5.2L1.65 5.05L1.65 4.8" />
<radialGradient
id="RadialGradID_753" gradientUnits="userSpaceOnUse" gradientTransform="matrix(0.00308228, 0, 0, 0.00308228, 0.5, 4.55)" spreadMethod ="pad" cx="0" cy="0" r="819.2" fx="0" fy="0" >
<stop  offset="0.00392157"  style="stop-color:#10EF9B;stop-opacity:1" />
<stop  offset="1"  style="stop-color:#07784E;stop-opacity:1" />
<stop  offset="1"  style="stop-color:#805740;stop-opacity:1" />
</radialGradient>
<path style="fill:url(#RadialGradID_753) " d="M-2.35,5.2L-2.3 4.85L-2 4Q-1.6 3.45 -0.9 3.25L-0.7 3.2Q0.05 3.05 0.75 3.45L0.8 3.5Q1.5 3.95 1.65 4.8L1.65 5.05Q1.5 5.55 0.45 5.45L-0.45 5.4L-1.45 5.7L-1.8 5.9L-2.05 6.15L-2.1 6.2L-2.3 5.5L-2.35 5.2" />
<radialGradient
id="RadialGradID_754" gradientUnits="userSpaceOnUse" gradientTransform="matrix(0.00471497, 0, 0, 0.00471497, -4.55, 0.45)" spreadMethod ="pad" cx="0" cy="0" r="819.2" fx="0" fy="0" >
<stop  offset="0"  style="stop-color:#FE0101;stop-opacity:1" />
<stop  offset="1"  style="stop-color:#660000;stop-opacity:1" />
<stop  offset="1"  style="stop-color:#805740;stop-opacity:1" />
</radialGradient>
<path style="fill:url(#RadialGradID_754) " d="M-7.65,2.75Q-7.8 1.9 -8.45 1.45L-8.55 1.4Q-8.45 0.6 -7.4 0Q-6.35 -0.6 -4.85 -0.6L-4.8 -0.3L-4.6 0.35L-4.6 0.3L-4.35 0.1L-4 -0.15L-2.95 -0.4L-1.95 0Q-0.85 0.65 -0.85 1.6L-1 2.25L-1.5 0.75Q-2.1 -0.2 -2.9 -0.2Q-3.75 -0.2 -4.35 0.75Q-4.9 1.75 -3.75 2.8L-3 3.6L-4.7 3.8Q-6.3 3.8 -7.4 3.15L-7.65 3L-7.65 2.75" />
<radialGradient
id="RadialGradID_755" gradientUnits="userSpaceOnUse" gradientTransform="matrix(0.00314331, 0, 0, 0.00314331, -3.25, 0.6)" spreadMethod ="pad" cx="0" cy="0" r="819.2" fx="0" fy="0" >
<stop  offset="0"  style="stop-color:#10EF9B;stop-opacity:1" />
<stop  offset="1"  style="stop-color:#07784E;stop-opacity:1" />
<stop  offset="1"  style="stop-color:#805740;stop-opacity:1" />
</radialGradient>
<path style="fill:url(#RadialGradID_755) " d="M-2.3,4.85Q-2.5 4.2 -3 3.6L-3.75 2.8Q-4.9 1.75 -4.35 0.75Q-3.75 -0.2 -2.9 -0.2Q-2.1 -0.2 -1.5 0.75L-1 2.25L-0.9 3.1L-0.9 3.25Q-1.6 3.45 -2 4L-2.3 4.85" />
<radialGradient
id="RadialGradID_756" gradientUnits="userSpaceOnUse" gradientTransform="matrix(0.00471497, 0, 0, 0.00471497, -2.05, 6.25)" spreadMethod ="pad" cx="0" cy="0" r="819.2" fx="0" fy="0" >
<stop  offset="0"  style="stop-color:#FE0101;stop-opacity:1" />
<stop  offset="1"  style="stop-color:#660000;stop-opacity:1" />
<stop  offset="1"  style="stop-color:#805740;stop-opacity:1" />
</radialGradient>
<path style="fill:url(#RadialGradID_756) " d="M-2.3,5.5L-2.1 6.2L-2.05 6.15L-1.8 5.9L-1.45 5.7L-0.45 5.4L0.55 5.8Q1.7 6.45 1.7 7.4Q1.7 8.35 0.55 8.95Q-0.6 9.6 -2.15 9.65Q-3.75 9.6 -4.9 8.95Q-6.05 8.35 -6.05 7.4Q-6.05 6.45 -4.9 5.8Q-3.85 5.2 -2.35 5.2L-2.3 5.5" />
<radialGradient
id="RadialGradID_757" gradientUnits="userSpaceOnUse" gradientTransform="matrix(0.00314331, 0, 0, 0.00314331, -12.1, -1.4)" spreadMethod ="pad" cx="0" cy="0" r="819.2" fx="0" fy="0" >
<stop  offset="0"  style="stop-color:#10EF9B;stop-opacity:1" />
<stop  offset="1"  style="stop-color:#07784E;stop-opacity:1" />
<stop  offset="1"  style="stop-color:#805740;stop-opacity:1" />
</radialGradient>
<path style="fill:url(#RadialGradID_757) " d="M-11.25,1.95L-11.6 2.8Q-11.9 1.75 -13 0.7Q-14.2 -0.35 -13.6 -1.3Q-13.05 -2.25 -12.2 -2.25Q-11.35 -2.25 -10.75 -1.3Q-10.2 -0.3 -10.2 1.05L-10.2 1.2L-11.25 1.95" />
<radialGradient
id="RadialGradID_758" gradientUnits="userSpaceOnUse" gradientTransform="matrix(0.00308228, 0, 0, 0.00308228, -8.75, 2.6)" spreadMethod ="pad" cx="0" cy="0" r="819.2" fx="0" fy="0" >
<stop  offset="0"  style="stop-color:#10EF9B;stop-opacity:1" />
<stop  offset="1"  style="stop-color:#07784E;stop-opacity:1" />
<stop  offset="1"  style="stop-color:#805740;stop-opacity:1" />
</radialGradient>
<path style="fill:url(#RadialGradID_758) " d="M-11.6,3.15L-11.6 2.8L-11.25 1.95L-10.2 1.2L-9.95 1.15Q-9.2 1 -8.55 1.4L-8.45 1.45Q-7.8 1.9 -7.65 2.75L-7.65 3Q-7.8 3.45 -8.8 3.35L-9.7 3.35L-10.75 3.65L-11.1 3.85L-11.35 4.05L-11.35 4.1L-11.55 3.45L-11.6 3.15" />
<radialGradient
id="RadialGradID_759" gradientUnits="userSpaceOnUse" gradientTransform="matrix(0.00471497, 0, 0, 0.00471497, -11.3, 4.2)" spreadMethod ="pad" cx="0" cy="0" r="819.2" fx="0" fy="0" >
<stop  offset="0"  style="stop-color:#FE0101;stop-opacity:1" />
<stop  offset="1"  style="stop-color:#660000;stop-opacity:1" />
<stop  offset="1"  style="stop-color:#805740;stop-opacity:1" />
</radialGradient>
<path style="fill:url(#RadialGradID_759) " d="M-11.55,3.45L-11.35 4.1L-11.35 4.05L-11.1 3.85L-10.75 3.65L-9.7 3.35L-8.7 3.75Q-7.6 4.4 -7.6 5.35Q-7.6 6.3 -8.7 6.9Q-9.85 7.55 -11.45 7.55Q-13.05 7.55 -14.15 6.9Q-15.3 6.3 -15.3 5.35Q-15.3 4.4 -14.15 3.75Q-13.1 3.15 -11.6 3.15L-11.55 3.45" />
<path style="fill:none;stroke-width:1;stroke-linecap:round;stroke-linejoin:round;stroke-miterlimit:3;stroke:#563529;stroke-opacity:1" d="M17.5,12.5L-17.5 12.5L-17.5 -12.5L17.5 -12.5L17.5 12.5z" />
</g>
</svg>
