<?xml version="1.0" encoding="utf-8"?>
<svg version="1.1" id="Layer_1"
xmlns="http://www.w3.org/2000/svg"
xmlns:xlink="http://www.w3.org/1999/xlink"
xmlns:author="http://www.sothink.com"
width="13px" height="25px"
xml:space="preserve">
<g id="32" transform="matrix(1, 0, 0, 1, 5.65, 12)">
<path style="fill:#000066;fill-opacity:1" d="M5.7,-10.8L5.45 -10.6L5.15 -10.6L-5.05 -10.6L-5.35 -10.6L-5.55 -10.8L-5.65 -11.3L-5.55 -11.8L-5.35 -12L5.45 -12L5.7 -11.8L5.8 -11.3L5.75 -11L5.7 -10.8M5.15,10.6L5.45 10.6L5.7 10.8L5.8 11.3L5.7 11.75L5.45 12L-4.5 12L-5.35 12L-5.55 11.75L-5.65 11.3L-5.55 10.8L-5.35 10.6L-5.05 10.6L5.15 10.6" />
<path style="fill:#0099CC;fill-opacity:1" d="M-2.4,-5.75L-2.4 -5.6L-2.3 -5.35L-2 -4.5L-1.8 -4L-1.2 -2.6L-1.25 -2.55L-1.15 -2.35Q-0.9 -1.7 -1.45 -2.8L-2.3 -4.5L-2.45 -4.85L-2.75 -5.5L-4 -8.65L-4.35 -10.15L-4.25 -10.2L-4 -9.95L-3.65 -9.35L-2.9 -7.35L-2.8 -7.15L-2.65 -6.35L-2.45 -5.85L-2.4 -5.75M4.1,9.5L3.75 8.9Q3.2 7.9 2.95 6.9L2.9 6.65L2.1 4.05L1.25 1.85Q0.95 1.2 1.55 2.35L2.8 5L2.85 5.05L4.05 8.15L4.4 9.7L4.35 9.75L4.1 9.5" />
<path style="fill:#D1EAED;fill-opacity:1" d="M0.2,0Q3.85 3.5 5.15 10.6L-5.05 10.6Q-3.1 2.5 -0.1 0Q-3.55 -3.7 -5.05 -10.6L5.15 -10.6Q3.3 -3.55 0.2 0M-2.05,-3.85Q-1.35 -1.85 -0.25 -0.5L0 -0.25L0.15 -0.25L0.35 -0.5Q1.6 -2.05 2.4 -4.75L2.45 -4.8L3.3 -6.85L3.55 -7.85L3.1 -7.3L2.5 -5.85L-2.45 -5.85L-2.65 -6.35L-2.8 -7.15L-2.9 -7.35L-3.65 -9.35L-4 -9.95L-4.25 -10.2L-4.35 -10.15L-4 -8.65L-2.75 -5.5L-2.45 -4.85L-2.3 -4.5L-2.05 -3.85M4.4,9.7L4.05 8.15L2.85 5.05L2.8 5L1.55 2.35Q0.95 1.2 1.25 1.85L2.1 4.05L2.9 6.65L2.95 6.9Q3.2 7.9 3.75 8.9L4.1 9.5Q2.95 8.4 0.85 7.7L0.2 7.7L0.2 4.65L0.2 1.9L0.15 1.35L0.05 0L-0.05 1.35L-0.1 2.15L-0.1 4.65L-0.1 7.7L-0.55 7.7Q-1.8 8.05 -2.8 8.75L-3.2 9.1L-4.5 10.4L4.85 10.4L4.35 9.75L4.4 9.7M-1.2,2.1L-2.15 3.95L-3 5.95L-3.25 7L-2.8 6.4L-2.2 4.95L-1.6 3.25L-1 1.85Q-0.8 1.4 -1.2 2.1" />
<path style="fill:#FF9900;fill-opacity:1" d="M2.4,-4.75Q1.6 -2.05 0.35 -0.5L0.15 -0.25L0 -0.25L-0.25 -0.5Q-1.35 -1.85 -2.05 -3.85L-2.3 -4.5L-1.45 -2.8Q-0.9 -1.7 -1.15 -2.35L-1.25 -2.55L-1.2 -2.6L-1.8 -4L-2 -4.5L-2.3 -5.35L-2.4 -5.6L-2.4 -5.75L-2.45 -5.85L2.5 -5.85L1.9 -4.15L1.3 -2.7Q1.1 -2.3 1.5 -3L2.4 -4.75M4.35,9.75L4.85 10.4L-4.5 10.4L-3.2 9.1L-2.8 8.75Q-1.8 8.05 -0.55 7.7L-0.1 7.7L-0.1 4.65L-0.1 2.15L-0.05 1.35L0.05 0L0.15 1.35L0.2 1.9L0.2 4.65L0.2 7.7L0.85 7.7Q2.95 8.4 4.1 9.5L4.35 9.75" />
<path style="fill:#999999;fill-opacity:1" d="M5.15,-10.6L5.45 -10.6L5.7 -10.8L5.75 -11L6.6 -11L6.8 -10.75L6.95 -10.3L6.8 -9.75Q6.7 -9.6 6.6 -9.6L6.3 -9.6Q4.45 -2.5 1.35 1Q5 4.55 6.3 11.6L6.6 11.6L6.8 11.8L6.95 12.3L6.8 12.8L6.6 13L-4.2 13L-4.45 12.8L-4.5 12.3L-4.5 12L5.45 12L5.7 11.75L5.8 11.3L5.7 10.8L5.45 10.6L5.15 10.6Q3.85 3.5 0.2 0Q3.3 -3.55 5.15 -10.6" />
<path style="fill:#FFFFFF;fill-opacity:1" d="M1.5,-3Q1.1 -2.3 1.3 -2.7L1.9 -4.15L2.5 -5.85L3.1 -7.3L3.55 -7.85L3.3 -6.85L2.45 -4.8L2.4 -4.75L1.5 -3M-1,1.85L-1.6 3.25L-2.2 4.95L-2.8 6.4L-3.25 7L-3 5.95L-2.15 3.95L-1.2 2.1Q-0.8 1.4 -1 1.85" />
</g>
</svg>
