<?xml version="1.0" encoding="utf-8"?>
<svg version="1.1" id="Layer_1"
xmlns="http://www.w3.org/2000/svg"
xmlns:xlink="http://www.w3.org/1999/xlink"
xmlns:author="http://www.sothink.com"
width="13px" height="25px"
xml:space="preserve">
<g id="31" transform="matrix(1, 0, 0, 1, 5.7, 12)">
<path style="fill:#999999;fill-opacity:1" d="M5.4,12L5.65 11.75L5.75 11.3L5.65 10.8L5.4 10.6L5.1 10.6Q3.8 3.5 0.15 0Q3.25 -3.55 5.1 -10.6L5.4 -10.6L5.65 -10.8L5.7 -11L6.55 -11L6.75 -10.75L6.9 -10.3L6.75 -9.75L6.55 -9.6L6.25 -9.6Q4.4 -2.5 1.3 1Q4.95 4.55 6.25 11.6L6.55 11.6L6.75 11.8L6.9 12.3L6.75 12.8L6.55 13L-4.25 13L-4.5 12.8L-4.55 12.3L-4.55 12L5.4 12" />
<path style="fill:#000066;fill-opacity:1" d="M-5.1,-10.6L-5.4 -10.6L-5.6 -10.8L-5.7 -11.3L-5.6 -11.8L-5.4 -12L5.4 -12L5.65 -11.8L5.75 -11.3L5.7 -11L5.65 -10.8L5.4 -10.6L5.1 -10.6L-5.1 -10.6M5.1,10.6L5.4 10.6L5.65 10.8L5.75 11.3L5.65 11.75L5.4 12L-4.55 12L-5.4 12L-5.6 11.75L-5.7 11.3L-5.6 10.8L-5.4 10.6L-5.1 10.6L5.1 10.6" />
<path style="fill:#D1EAED;fill-opacity:1" d="M5.1,-10.6Q3.25 -3.55 0.15 0Q3.8 3.5 5.1 10.6L-5.1 10.6Q-3.15 2.5 -0.15 0Q-3.6 -3.7 -5.1 -10.6L5.1 -10.6M3.75,-9.55L-3.8 -9.55L-4.05 -9.95L-4.3 -10.2L-4.4 -10.15L-4.05 -8.65L-2.8 -5.5L-2.5 -4.85L-2.35 -4.5L-2.15 -4L-2.4 -4.45L-3.65 -7.25L-3.3 -6.25Q-2.2 -2.9 -0.5 -0.65L-0.15 -0.25L0.15 -0.25L0.45 -0.65Q2.35 -3.25 3.65 -7.75L3.35 -7.1L3.45 -7.45L3.5 -7.85L3.1 -7.45L3.75 -9.55M1.2,1.85L2.05 4.05L2.85 6.65L2.9 6.9Q3.15 7.9 3.7 8.9L4.05 9.5L4.3 9.75L4.35 9.7L4 8.15L2.8 5.05L2.75 5L1.5 2.35Q0.9 1.2 1.2 1.85M-2.2,3.95L-3.05 5.95L-3.3 7L-2.85 6.4L-2.25 4.95L-1.65 3.25L-1.05 1.85Q-0.85 1.4 -1.25 2.1L-2.2 3.95" />
<path style="fill:#FFFFFF;fill-opacity:1" d="M3.3,-6.95L3.25 -6.85L2.4 -4.8L2.35 -4.75L1.45 -3Q1.05 -2.3 1.25 -2.7L1.85 -4.15L2.15 -4.9L2.45 -5.85L3.05 -7.3L3.1 -7.4L3.1 -7.45L3.5 -7.85L3.45 -7.45L3.3 -6.95M-1.25,2.1Q-0.85 1.4 -1.05 1.85L-1.65 3.25L-2.25 4.95L-2.85 6.4L-3.3 7L-3.05 5.95L-2.2 3.95L-1.25 2.1" />
<path style="fill:#FF9900;fill-opacity:1" d="M1.85,-4.15L1.25 -2.7Q1.05 -2.3 1.45 -3L2.35 -4.75L2.4 -4.8L3.25 -6.85L3.3 -6.95L3.35 -7.1L3.65 -7.75Q2.35 -3.25 0.45 -0.65L0.15 -0.25L-0.15 -0.25L-0.5 -0.65Q-2.2 -2.9 -3.3 -6.25L-3.65 -7.25L-2.4 -4.45L-2.15 -4L-1.8 -3.3L-1.5 -2.8Q-0.95 -1.7 -1.2 -2.35L-1.3 -2.55L-1.25 -2.6L-1.85 -4L-2.05 -4.5L-2.35 -5.35L-2.45 -5.6L-2.45 -5.75L-2.5 -5.85L-2.7 -6.35L-2.85 -7.15L-2.95 -7.35L-3.7 -9.35L-3.8 -9.55L3.75 -9.55L3.1 -7.45L3.1 -7.4L3.05 -7.3L2.45 -5.85L2.15 -4.9L1.9 -4.35Q1.7 -3.95 1.85 -4.15" />
<path style="fill:#0099CC;fill-opacity:1" d="M-2.35,-4.5L-2.5 -4.85L-2.8 -5.5L-4.05 -8.65L-4.4 -10.15L-4.3 -10.2L-4.05 -9.95L-3.8 -9.55L-3.7 -9.35L-2.95 -7.35L-2.85 -7.15L-2.7 -6.35L-2.5 -5.85L-2.45 -5.75L-2.45 -5.6L-2.35 -5.35L-2.05 -4.5L-1.85 -4L-1.25 -2.6L-1.3 -2.55L-1.2 -2.35Q-0.95 -1.7 -1.5 -2.8L-1.8 -3.3L-2.35 -4.5M1.5,2.35L2.75 5L2.8 5.05L4 8.15L4.35 9.7L4.3 9.75L4.05 9.5L3.7 8.9Q3.15 7.9 2.9 6.9L2.85 6.65L2.05 4.05L1.2 1.85Q0.9 1.2 1.5 2.35" />
</g>
</svg>
