<?xml version="1.0" encoding="utf-8"?>
<svg version="1.1" id="Layer_1"
xmlns="http://www.w3.org/2000/svg"
xmlns:xlink="http://www.w3.org/1999/xlink"
xmlns:author="http://www.sothink.com"
width="24px" height="22px"
xml:space="preserve">
<g id="53" transform="matrix(1, 0, 0, 1, 11.05, 11.3)">
<path style="fill:#FFFFFF;fill-opacity:1" d="M9.85,-7.05Q10.6 -6.4 10.6 -5.55Q10.6 -4.7 9.9 -4.1L10.35 -2.9Q10.35 -2.05 9.6 -1.45L8.6 -0.9L8.45 -0.15L8.5 -0.15L9.8 -0.45L9.2 0.2Q8.5 0.85 7.55 0.85L7.7 0.7L7.95 0.5L7.85 0.55Q7.15 1.2 6.15 1.2L6 1.2L5.95 1.35L6 1.35L7.3 1.05L6.7 1.7L5.75 2.25L5.85 1.6L5.85 1.5L5.35 2.05Q4.65 2.7 3.65 2.7L3.5 2.7L3.5 2.95L3.35 3.7L3.4 3.7L4.7 3.4L4.1 4.05Q3.4 4.7 2.4 4.7L2.35 4.7L1.05 5.05Q0.2 5.05 -0.45 4.6L-1.15 4.7L-1.1 4.6Q-1.75 5.05 -2.6 5.05L-3.45 4.9L-3.4 5.45Q-3.4 6.3 -4.1 6.9Q-3.55 7.45 -3.55 8.2L-3.7 8.95L-3.65 8.95L-2.35 8.65L-2.95 9.3Q-3.65 9.95 -4.65 9.95L-4.7 9.95L-4.7 10L-6 10.3L-7.25 10L-7.75 9.65Q-8.45 9.05 -8.45 8.2Q-8.45 7.55 -8.05 7.05L-8.1 7.05Q-9.1 7.05 -9.85 6.4Q-10.55 5.8 -10.55 4.95Q-10.55 4.15 -9.95 3.55L-10.2 2.6Q-10.2 1.75 -9.5 1.1Q-8.75 0.5 -7.75 0.5L-7.65 0.45L-7.7 0.5L-7.4 0.55L-7.4 0.45L-7.3 -0.05Q-7.2 -0.6 -6.7 -1.05Q-6.05 -1.55 -5.2 -1.65L-5.3 -2.15Q-5.3 -3 -4.6 -3.65Q-4 -4.15 -3.25 -4.2L-3.4 -4.95Q-3.4 -5.8 -2.7 -6.45Q-1.95 -7.05 -0.95 -7.05L-0.85 -7.1L-0.9 -7.05L0.05 -6.85Q0.15 -7.6 0.75 -8.15L1.1 -8.35L2.5 -8.75L2.6 -8.8L2.55 -8.75L3.85 -8.4Q3.95 -9.15 4.55 -9.7L5.2 -10.05L6.3 -10.3L6.4 -10.35L6.35 -10.3Q7.3 -10.3 8 -9.7Q8.75 -9.05 8.75 -8.2L8.65 -7.6Q9.35 -7.5 9.85 -7.05M4.5,-2.45L4.45 -2.45L4.4 -2.4L4.5 -2.45M-0.55,-2.85L-0.5 -2.8L-0.45 -2.8L-0.45 -2.9L-0.55 -2.85" />
<path style="fill:#FFFFFF;fill-opacity:1" d="M-2.85,9L-3.45 9.65Q-4.15 10.3 -5.15 10.3L-5.2 10.3L-5.2 10.35L-6.5 10.65L-7.75 10.35L-8.25 10Q-8.95 9.4 -8.95 8.55Q-8.95 7.9 -8.55 7.4L-8.6 7.4Q-9.6 7.4 -10.35 6.75Q-11.05 6.15 -11.05 5.3Q-11.05 4.5 -10.45 3.9L-10.7 2.95Q-10.7 2.1 -10 1.45Q-9.25 0.85 -8.25 0.85L-8.15 0.8L-8.2 0.85L-7.9 0.9L-7.9 0.8L-7.8 0.3Q-7.7 -0.25 -7.2 -0.7Q-6.55 -1.2 -5.7 -1.3L-5.8 -1.8Q-5.8 -2.65 -5.1 -3.3Q-4.5 -3.8 -3.75 -3.85L-3.9 -4.6Q-3.9 -5.45 -3.2 -6.1Q-2.45 -6.7 -1.45 -6.7L-1.35 -6.75L-1.4 -6.7L-0.45 -6.5Q-0.35 -7.25 0.25 -7.8L0.6 -8L2 -8.4L2.1 -8.45L2.05 -8.4Q2.8 -8.4 3.35 -8.05Q3.45 -8.8 4.05 -9.35L4.7 -9.7L5.8 -9.95L5.9 -10L5.85 -9.95Q6.8 -9.95 7.5 -9.35Q8.25 -8.7 8.25 -7.85L8.15 -7.25Q8.85 -7.15 9.35 -6.7Q10.1 -6.05 10.1 -5.2Q10.1 -4.35 9.4 -3.75L9.85 -2.55Q9.85 -1.7 9.1 -1.1Q8.65 -0.7 8.1 -0.55L7.95 0.2L8 0.2L9.3 -0.1L8.7 0.55Q8 1.2 7.05 1.2L7.2 1.05L7.45 0.85L7.35 0.9Q6.65 1.55 5.65 1.55L5.5 1.55L5.45 1.7L5.5 1.7L6.8 1.4L6.2 2.05L5.25 2.6L5.35 1.95L5.35 1.85L4.85 2.4Q4.15 3.05 3.15 3.05L3 3.05L3 3.3L2.85 4.05L2.9 4.05L4.2 3.75L3.6 4.4Q2.9 5.05 1.9 5.05L1.85 5.05L0.55 5.4L-0.95 4.95L-1.65 5.05L-1.6 4.95Q-2.25 5.4 -3.1 5.4L-3.95 5.25L-3.9 5.8Q-3.9 6.65 -4.6 7.25Q-4.05 7.8 -4.05 8.55L-4.2 9.3L-4.15 9.3L-2.85 9M10.45,-1.9L11.05 -2.1L10.45 -1.45L10.4 -1.35L10.45 -1.9M3.95,-2.1L3.9 -2.05L4 -2.1L3.95 -2.1M-0.95,-2.55L-1.05 -2.5L-1 -2.45L-0.95 -2.45L-0.95 -2.55" />
<path style="fill:#D5DAF1;fill-opacity:1" d="M10.4,-1.35L9.7 -0.45L9.3 -0.1L8 0.2L7.95 0.2L8.1 -0.55Q8.65 -0.7 9.1 -1.1Q9.85 -1.7 9.85 -2.55L9.4 -3.75Q10.1 -4.35 10.1 -5.2Q10.1 -6.05 9.35 -6.7Q8.85 -7.15 8.15 -7.25L8.25 -7.85Q8.25 -8.7 7.5 -9.35Q6.8 -9.95 5.85 -9.95L5.9 -10L6.4 -10.7Q7.15 -11.3 8.15 -11.3Q9.15 -11.3 9.85 -10.7Q10.6 -10.05 10.6 -9.2L10.5 -8.6Q11.2 -8.5 11.7 -8.05Q12.45 -7.4 12.45 -6.55Q12.45 -5.7 11.75 -5.1L12.2 -3.9Q12.2 -3.05 11.45 -2.45L11.05 -2.1L10.45 -1.9L10.4 -1.35M2.9,4.05L2.85 4.05L3 3.3L3 3.05L3.15 3.05Q4.15 3.05 4.85 2.4L5.35 1.85L5.35 1.95L5.25 2.6L4.6 3.4L4.2 3.75L2.9 4.05M-4.15,9.3L-4.2 9.3L-4.05 8.55Q-4.05 7.8 -4.6 7.25Q-3.9 6.65 -3.9 5.8L-3.95 5.25L-3.1 5.4Q-2.25 5.4 -1.6 4.95L-1.65 5.05L-2.25 5.9Q-1.7 6.45 -1.7 7.2Q-1.7 8.05 -2.45 8.65L-2.85 9L-4.15 9.3M0.25,-7.8Q-0.35 -7.25 -0.45 -6.5L-1.4 -6.7L-1.35 -6.75L-0.85 -7.45Q-0.2 -7.95 0.6 -8L0.25 -7.8M2.1,-8.45L2.6 -9.15Q3.35 -9.75 4.35 -9.75L4.7 -9.7L4.05 -9.35Q3.45 -8.8 3.35 -8.05Q2.8 -8.4 2.05 -8.4L2.1 -8.45" />
</g>
</svg>
