<?xml version="1.0" encoding="utf-8"?>
<svg version="1.1" id="Layer_1"
xmlns="http://www.w3.org/2000/svg"
xmlns:xlink="http://www.w3.org/1999/xlink"
xmlns:author="http://www.sothink.com"
width="28px" height="32px"
xml:space="preserve">
<g id="104" transform="matrix(1, 0, 0, 1, 13.65, 15.7)">
<path style="fill:#FF9900;fill-opacity:1" d="M-1.3,-3.15L-1.4 -3.35L-1.35 -3.4L-1.4 -3.45L-1.35 -3.5L-1.4 -3.55L-1.4 -3.65L-1.3 -3.8L4.8 -15.7L13.65 -3.4L8.6 15.4L-1.3 -3.2L-1.3 -3.15" />
<path style="fill:#D87701;fill-opacity:1" d="M-1.3,-3.15L-1.3 -3.2L8.6 15.4L8.7 15.65L8.5 15.7L-1.4 11.9L-1.3 -3.15" />
<path style="fill:#000000;fill-opacity:1" d="M-1.4,11.9L-1.4 11.95Q-4 10.35 -5.1 10.1L-1.4 -3.35L-1.3 -3.15L-1.4 11.9M-13.6,6.95L-1.45 -3.75L-1.45 -3.65L-1.5 -3.65L-13.55 6.95L-13.6 6.95L-13.5 7L-13.55 7.05L-13.65 7L-13.6 6.95" />
<path style="fill:#F38601;fill-opacity:1" d="M-1.4,-3.75L-1.4 -3.65L-1.4 -3.55L-1.35 -3.5L-1.4 -3.45L-5.6 11.6L-13.5 7L-13.6 6.95L-13.55 6.95L-1.5 -3.65L-1.45 -3.65L-1.4 -3.75" />
<path style="fill:#FECB8F;fill-opacity:1" d="M-1.4,-3.9L-1.45 -3.75L-13.6 6.95L-13.65 7L-2.85 -9.7L4.8 -15.7L-1.3 -3.8L-1.4 -3.9" />
</g>
</svg>
