<?xml version="1.0" encoding="utf-8"?>
<svg version="1.1" id="Layer_1"
xmlns="http://www.w3.org/2000/svg"
xmlns:xlink="http://www.w3.org/1999/xlink"
xmlns:author="http://www.sothink.com"
width="58px" height="31px"
xml:space="preserve">
<g id="204" transform="matrix(1, 0, 0, 1, 29.05, 15.5)">
<linearGradient
id="LinearGradID_692" gradientUnits="userSpaceOnUse" gradientTransform="matrix(-7.62939e-005, 0.0183563, -0.0183105, -6.10352e-005, 0.25, 0)" spreadMethod ="pad" x1="-819.2" y1="0" x2="819.2" y2="0" >
<stop  offset="0" style="stop-color:#9DD6DD;stop-opacity:1" />
<stop  offset="1" style="stop-color:#DBE6BE;stop-opacity:1" />
</linearGradient>
<path style="fill:url(#LinearGradID_692) " d="M28.05,-15L28.3 -15L28.55 -15L28.55 15L28.3 15L28.05 15L28.05 -15" />
<path style="fill:#9DD6DD;fill-opacity:1" d="M2.15,-2.35L2.4 -3.5Q2.4 -4.3 1.85 -5Q1.1 -5.9 -0.5 -5.9Q-1.8 -5.9 -2.55 -5.25Q-3.35 -4.55 -3.35 -3.7L-3.05 -2.8Q-2.8 -2.5 -2.45 -2.5L-2.05 -2.65L-1.85 -3.15L-2.1 -3.75L-2.3 -4.45L-1.9 -5.15L-0.85 -5.45Q-0.1 -5.45 0.45 -4.9Q0.95 -4.3 0.95 -3.35L0.85 -2.4L0.2 -1.05L-0.55 0.7L-0.8 2.3L-0.5 2.3L-0.2 0.85Q0.05 0.3 1.2 -0.95L2.15 -2.35M-0.6,4.95L0 4.7L0.25 4.1L0 3.5Q-0.25 3.25 -0.6 3.25Q-0.95 3.25 -1.2 3.5L-1.5 4.1L-1.2 4.7L-0.6 4.95M-25.5,-12.2L24.8 -12.2L24.8 11.5L24.8 11.55L-25.5 11.55L-25.5 11.5L-25.5 -12.2" />
<path style="fill:#42AEBD;fill-opacity:1" d="M28.05,15L-28.55 15L-28.55 -15L28.05 -15L28.05 15M24.85,11.5L24.85 -14.95L-28.45 -14.95L-28.45 11.5L-25.5 11.5L-25.5 11.55L24.8 11.55L24.8 11.5L24.85 11.5" />
<path style="fill:#D3ECEF;fill-opacity:0.6" d="M24.8,11.5L24.8 -12.2L-25.5 -12.2L-25.5 11.5L-28.45 11.5L-28.45 -14.95L24.85 -14.95L24.85 11.5L24.8 11.5" />
<path style="fill:#046B81;fill-opacity:1" d="M1.2,-0.95Q0.05 0.3 -0.2 0.85L-0.5 2.3L-0.8 2.3L-0.55 0.7L0.2 -1.05L0.85 -2.4L0.95 -3.35Q0.95 -4.3 0.45 -4.9Q-0.1 -5.45 -0.85 -5.45L-1.9 -5.15L-2.3 -4.45L-2.1 -3.75L-1.85 -3.15L-2.05 -2.65L-2.45 -2.5Q-2.8 -2.5 -3.05 -2.8L-3.35 -3.7Q-3.35 -4.55 -2.55 -5.25Q-1.8 -5.9 -0.5 -5.9Q1.1 -5.9 1.85 -5Q2.4 -4.3 2.4 -3.5L2.15 -2.35L1.2 -0.95M-1.2,4.7L-1.5 4.1L-1.2 3.5Q-0.95 3.25 -0.6 3.25Q-0.25 3.25 0 3.5L0.25 4.1L0 4.7L-0.6 4.95L-1.2 4.7" />
<path style="fill:none;stroke-width:1;stroke-linecap:round;stroke-linejoin:round;stroke-miterlimit:3;stroke:#FFFFFF;stroke-opacity:1" d="M28.3,15L28.05 15L-28.55 15L-28.55 -15L28.05 -15L28.3 -15M28.05,-15L28.05 15" />
<path style="fill:none;stroke-width:0.5;stroke-linecap:round;stroke-linejoin:round;stroke-miterlimit:3;stroke:#046B81;stroke-opacity:1" d="M8.25,8.3L-9.15 8.3L-9.15 -9.1L8.25 -9.1L8.25 8.3z" />
</g>
</svg>
