<?xml version="1.0" encoding="utf-8"?>
<svg version="1.1" id="Layer_1"
xmlns="http://www.w3.org/2000/svg"
xmlns:xlink="http://www.w3.org/1999/xlink"
xmlns:author="http://www.sothink.com"
width="20px" height="20px"
xml:space="preserve">
<g id="143" transform="matrix(1, 0, 0, 1, 10, 10)">
<path style="fill:#DBE6BE;fill-opacity:1" d="M3.65,-7.7L3.2 -7.75L2.85 -7.6L2.75 -7.55L2.7 -7.45L2.65 -7.35L2.6 -7.05L2.7 -7.1L3.05 -7.2L3.45 -7.2L3.95 -7.1L4.1 -7L4.15 -7L4.15 -7.2L4.05 -7.5Q3.9 -7.55 3.8 -7.65L3.65 -7.7M2.7,-7L3.15 -6.9L3.3 -6.9L4 -7L3.9 -7.05L3.6 -7.15L3.15 -7.15L2.75 -7.05L2.7 -7.05L2.65 -7L2.7 -7M2.6,-6.95L2.6 -6.8L2.7 -6.45L2.75 -6.4L2.8 -6.25L3 -6.05L3.25 -5.95L3.4 -5.95L3.7 -6L3.75 -6.05L3.8 -6.1L4 -6.3L4.05 -6.4L4.15 -6.45L4.2 -6.65L4.2 -6.85L3.95 -6.9L3.45 -6.8L3.15 -6.8L2.65 -6.95L2.6 -6.95M4.65,-5.55L4.55 -4.45L4.6 -3.95L4.7 -4.2L4.75 -4.15L4.85 -4.05L5.1 -3.75L5.15 -3.7L5.15 -3.65L5.25 -3.55L5.3 -3.5L5.1 -3.3L5.1 -3.25L5.05 -3.2L5 -3.15L4.8 -2.95L4.8 -2.9L4.75 -2.9L4.75 -2.85L4.65 -2.75L4.4 -2.55L4.5 -2.3L4.7 -2.05L4.8 -2L4.85 -2L4.95 -2.05L5.5 -2.6L5.55 -2.65L5.6 -2.7L6.05 -3L6.15 -3.15L6.15 -3.35L6.15 -3.45L6.15 -3.55L5.8 -4.25L5.55 -4.65L4.85 -5.45L4.75 -5.5L4.65 -5.55M4.55,-5.6L4.45 -5.65L4.4 -5.7L4.25 -5.7L4.2 -5.7L4.15 -5.55L4 -4.7L4 -4.45L4.05 -4.35L4.1 -4.3L4.2 -4.3L4.3 -4.3L4.45 -4.4L4.55 -4.75L4.6 -5.6L4.55 -5.6M3.95,-6.15L3.7 -5.9L3.55 -5.9L3.2 -5.9L3.05 -5.95L2.8 -6.15L2.85 -5.85L2.85 -5.75L2.95 -5.65L3.05 -5.6L3.2 -5.55L3.45 -5.5L3.7 -5.55L3.9 -5.7L4 -5.85L3.95 -5.9L3.95 -6.15M4.1,-5.75L4.05 -5.8L4 -5.8L3.9 -5.65L3.75 -5.55L3.55 -5.5L3.4 -5.45L3.25 -5.45L3.15 -5.5L3 -5.55L2.75 -5.8L2.7 -5.8L2.65 -4.95L2.7 -4.7L2.8 -4.65L3.15 -4.6L3.7 -4.6L3.8 -4.65L3.85 -4.65L3.95 -4.65L4.1 -5.7L4.1 -5.75M2.6,-5.8L2.55 -5.75L2.25 -5.65L2.2 -5.65L2.15 -5.35L2.2 -4.5L2.25 -4.45L2.35 -4.35L2.4 -4.35L2.45 -4.35L2.5 -4.35L2.55 -4.4L2.6 -4.45L2.6 -4.5L2.65 -4.55L2.65 -5.8L2.6 -5.8M3.65,-4.55L2.85 -4.6L2.7 -4.6L2.7 -4.45L2.65 -4.35L2.6 -4.35L2.45 -4.3L2.35 -4.3L2.2 -4.4L2.1 -3.85L2.05 -3.3L2.1 -2.8L1.95 -2.95L1.9 -3L1.85 -3.05L1.7 -3.2L1.65 -3.3L1.6 -3.3L1.6 -3.4L1.4 -3.6L1.45 -3.65L1.55 -3.7L1.55 -3.75L1.6 -3.8L1.85 -4.15L1.95 -4.25L2 -4.25L2.1 -4.05L2.15 -4.55L2.05 -5.6L2 -5.55L1.9 -5.5L1.15 -4.75L0.9 -4.35L0.55 -3.65L0.55 -3.6L0.5 -3.7L0.15 -4.2L-0.75 -5.2L-0.95 -5.3L-1.1 -3.95L-1 -3.3L-1.1 -3.75L-1.2 -3.65L-1.3 -3.6L-1.4 -3.6L-1.6 -3.65L-1.65 -3.7L-1.7 -3.75L-1.75 -3.85L-1.75 -4.05L-2.95 -3.95L-3.1 -4L-3.15 -4L-3.25 -4L-3.3 -4.05L-3.4 -3.75L-3.5 -3.6L-3.65 -3.55L-3.95 -3.6L-4 -3.6L-4 -3.65L-4.05 -3.55L-4.1 -3.1L-4.2 -2.95L-4.15 -1.75L-4.1 -1.65L-4 -1.6L-4 -1.55L-3.8 -1.4L-3.75 -1.35L-3.2 -1.2L-3.15 -1.2L-3.05 -1.1L-2.95 -1.05L-2.9 -1L-2.85 -0.95L-2.8 -0.95L-2.8 -0.85L-2.85 -0.8L-3 -0.75L-3.15 -0.75L-3.25 -0.8L-3.35 -0.8L-3.95 -0.45L-4.25 -0.4L-4.35 -0.45L-4.1 3.2L-4.45 6.2L-4.45 6.4L-4.35 6.65L-4.15 6.9L-3.7 7.05L-3.2 7.05L-3.05 7.05L-2.95 7L-2.7 6.85L-2.6 6.65L-2.4 2.5L-2.35 3.6L-2.55 6.55L-2.1 6.65L-1.75 6.65L-1.6 6.6L-1.3 6.5L-0.7 2.8L-1 -0.6L-0.95 -0.55L-0.9 -0.6L-0.85 -0.65L-0.85 -0.8L-1.05 -0.95L-1.05 -1.05L-0.95 -0.95L-0.85 -0.9L-0.75 -0.85L-0.65 -0.8L-0.55 -0.9L0.15 -1.55L0.25 -1.65L0.3 -1.7L0.6 -1.95L0.8 -2.1L0.95 -2.3L1 -2.55L0.95 -2.8L0.9 -2.9L1.7 -2.15L1.8 -2.1L1.95 -2.15L2.15 -2.3L2.15 -2.2L2.1 -2.15L1.95 -2.05L2 -1.95L2.05 -1.9L2.1 -1.9L1.9 0.75L2.35 3.65L2.7 3.75L2.95 3.75L3.3 3.7L3.25 -0.05L3.4 3.8L3.55 4L3.75 4.1L4.25 4.1L4.55 3.95L4.65 3.85L4.7 3.8L4.8 3.55L4.8 3.45L4.55 1.05L4.75 -1.8L4.65 -1.75L4.55 -1.75L4.45 -1.8L3.95 -2.1L3.9 -2.1L3.8 -2.05L3.65 -2.05L3.6 -2.05L3.55 -2.1L3.55 -2.2L3.6 -2.2L3.65 -2.25L3.7 -2.3L3.75 -2.35L3.8 -2.35L3.85 -2.4L4.25 -2.5L4.35 -2.6L4.45 -2.65L4.6 -2.8L4.65 -3.75L4.55 -3.9L4.55 -4.2L4.5 -4.35L4.5 -4.3L4.45 -4.3L4.45 -4.25L4.2 -4.2L4.1 -4.25L4.05 -4.25L4 -4.4L3.95 -4.6L3.8 -4.6L3.8 -4.55L3.65 -4.55M4.05,-2.4L4.05 -2.35L3.9 -2.35L3.85 -2.3L3.8 -2.3L3.6 -2.15L3.6 -2.1L3.65 -2.1L3.7 -2.1L3.85 -2.1L3.95 -2.1L4.25 -1.95L4.65 -1.8L4.7 -1.85L4.7 -1.9L4.75 -1.95L4.45 -2.25L4.35 -2.45L4.1 -2.4L4.05 -2.4M1.75,4.25L1.7 4.3L1.7 4.5L1.8 4.55L1.85 4.6L2 4.6L2.4 4.6L2.8 4.45L2.85 4.45L2.9 4.5L3 4.55L3.35 4.5L3.35 4.4L3.4 4.3L3.45 4.25L3.5 4.2L3.5 4.1L3.35 3.95L3.3 3.8L3.1 3.85L2.7 3.85L2.5 3.8L2.35 4.05L2.2 4.15L2.05 4.2L1.95 4.15L1.8 4.2L1.75 4.25M4.2,4.15L3.8 4.2L3.6 4.15L3.6 4.2L3.55 4.25L3.55 4.3L3.45 4.3L3.45 4.4L3.45 4.55L3.5 4.75L3.8 4.8L4 4.8L4.05 4.75L4.2 4.65L4.25 4.65L4.25 4.6L4.35 4.6L4.4 4.6L4.45 4.6L4.5 4.55L4.5 4.5L4.55 4.35L4.55 4.25L4.55 4.05L4.5 4.05L4.3 4.15L4.2 4.15M9.5,9.5L-9.5 9.5L-9.5 -9.5L9.5 -9.5L9.5 9.5M-3.35,-7.8L-3.45 -7.7L-3.65 -7.35L-3.65 -7.1L-3.6 -7.1L-3.35 -7.2L-3.1 -7.3L-2.75 -7.35L-2.25 -7.3L-1.65 -7.15L-1.65 -7.35L-1.7 -7.5L-1.8 -7.65L-1.85 -7.75L-1.95 -7.85L-2.1 -7.9L-2.45 -8L-3 -7.95L-3.35 -7.8M-3.45,-7.05L-2.5 -6.9L-2.4 -6.9L-1.75 -7.1L-1.8 -7.15L-2.4 -7.25L-2.95 -7.25L-3.35 -7.15L-3.45 -7.05M-3.6,-6.4L-3.55 -6.35L-3.5 -6.3L-3.4 -6.15L-3.15 -5.95L-3.1 -5.9L-3.05 -5.8L-2.65 -5.75L-2.45 -5.75L-2.3 -5.8L-2.15 -5.85L-1.9 -6.15L-1.8 -6.35L-1.75 -6.4L-1.7 -6.45L-1.6 -6.8L-1.6 -6.9L-1.65 -7L-1.7 -7L-2.35 -6.85L-2.7 -6.85L-3.35 -6.95L-3.55 -6.95L-3.7 -6.9L-3.7 -6.65L-3.6 -6.4M-5.75,-3.6L-6.15 -2.65L-6.2 -2.55L-6.2 -2.4L-6.15 -2.2L-6 -2L-5.8 -1.85L-5.8 -1.8L-5.5 -1.55L-5.45 -1.55L-4.65 -0.8L-4.55 -0.7L-4.45 -0.75L-4.35 -0.8L-4.25 -0.85L-4.05 -1.05L-3.95 -1.3L-3.95 -1.35L-4.4 -1.8L-4.4 -1.85L-4.45 -1.85L-4.7 -2.15L-4.75 -2.25L-4.8 -2.3L-4.85 -2.35L-5.05 -2.6L-5.05 -2.7L-4.9 -2.8L-4.9 -2.85L-4.8 -2.9L-4.55 -3.3L-4.4 -3.45L-4.35 -3.5L-4.3 -3.4L-4.25 -3.35L-4.25 -3.2L-4.2 -3.2L-4.1 -3.85L-4.3 -5.2L-4.5 -5.1L-5.4 -4.1L-5.75 -3.6M-1.15,-5.35L-1.25 -5.35L-1.3 -5.4L-1.6 -5.5L-1.65 -5.55L-1.7 -5.55L-1.7 -4L-1.7 -3.95L-1.7 -3.9L-1.65 -3.85L-1.6 -3.75L-1.45 -3.7L-1.4 -3.7L-1.3 -3.7L-1.2 -3.8L-1.15 -3.85L-1.1 -5L-1.15 -5.35M-1.85,-5.55L-2 -5.4L-2.15 -5.25L-2.35 -5.15L-2.5 -5.1L-2.7 -5.1L-2.9 -5.15L-3.3 -5.35L-3.45 -5.55L-3.5 -5.55L-3.55 -5.45L-3.55 -5.4L-3.35 -4.1L-3.25 -4.1L-3.2 -4.05L-3.05 -4.05L-2.4 -4L-1.95 -4.1L-1.8 -4.15L-1.7 -4.8L-1.8 -5.55L-1.85 -5.55M-2.4,-5.65L-2.8 -5.65L-3 -5.7L-3.35 -5.95L-3.35 -5.7L-3.4 -5.6L-3.25 -5.45L-3 -5.25L-2.85 -5.2L-2.7 -5.2L-2.4 -5.2L-2.2 -5.3L-1.95 -5.5L-1.95 -5.6L-1.9 -6L-2.2 -5.75L-2.4 -5.65M-3.75,-5.4L-3.95 -5.4L-4 -5.35L-4.2 -5.25L-4.1 -4.15L-4 -3.75L-3.85 -3.65L-3.65 -3.6L-3.55 -3.65L-3.45 -3.7L-3.45 -3.85L-3.45 -4.15L-3.6 -5.25L-3.7 -5.45L-3.75 -5.4M-4,-1.05L-4.35 -0.65L-4.35 -0.55L-4.3 -0.55L-4.3 -0.5L-4 -0.55L-3.8 -0.6L-3.35 -0.85L-3.25 -0.85L-3.05 -0.85L-3 -0.85L-2.9 -0.85L-2.9 -0.9L-3.15 -1.05L-3.2 -1.1L-3.25 -1.1L-3.3 -1.15L-3.45 -1.15L-3.5 -1.2L-3.6 -1.2L-3.85 -1.3L-4 -1.05M-0.85,7.15L-1 7.15L-1.1 7.15L-1.15 7.1L-1.25 7.05L-1.35 7L-1.55 6.7L-1.75 6.7L-2.3 6.7L-2.55 6.65L-2.6 6.8L-2.65 6.9L-2.7 7L-2.85 7.05L-2.85 7.2L-2.7 7.25L-2.65 7.35L-2.65 7.4L-2.6 7.55L-2.35 7.65L-2.2 7.65L-2.1 7.65L-2 7.55L-1.85 7.55L-1.55 7.65L-1.4 7.7L-1.3 7.75L-0.9 7.7L-0.7 7.65L-0.6 7.65L-0.55 7.6L-0.5 7.4L-0.55 7.25L-0.65 7.15L-0.85 7.15M-3.65,7.15L-4.1 7L-4.15 7.15L-4.15 7.35L-4.1 7.55L-4.05 7.65L-3.95 7.7L-3.9 7.7L-3.8 7.7L-3.75 7.75L-3.7 7.8L-3.55 7.9L-3.45 7.95L-2.95 7.95L-2.8 7.9L-2.7 7.5L-2.75 7.35L-2.85 7.3L-2.9 7.25L-2.9 7.2L-2.9 7.1L-3.05 7.15L-3.2 7.15L-3.65 7.15" />
<path style="fill:none;stroke-width:1;stroke-linecap:round;stroke-linejoin:round;stroke-miterlimit:3;stroke:#563529;stroke-opacity:1" d="M9.5,9.5L-9.5 9.5L-9.5 -9.5L9.5 -9.5L9.5 9.5z" />
<linearGradient
id="LinearGradID_460" gradientUnits="userSpaceOnUse" gradientTransform="matrix(0.000946045, 0, 0, 0.000457764, 3.35, -7.4)" spreadMethod ="pad" x1="-819.2" y1="0" x2="819.2" y2="0" >
<stop  offset="0" style="stop-color:#143141;stop-opacity:1" />
<stop  offset="1" style="stop-color:#98EBF5;stop-opacity:1" />
<stop  offset="1" style="stop-color:#5EB802;stop-opacity:1" />
<stop  offset="1" style="stop-color:#5EB802;stop-opacity:1" />
</linearGradient>
<path style="fill:url(#LinearGradID_460) " d="M3.8,-7.65Q3.9 -7.55 4.05 -7.5L4.15 -7.2L4.15 -7L4.1 -7L3.95 -7.1L3.45 -7.2L3.05 -7.2L2.7 -7.1L2.6 -7.05L2.65 -7.35L2.7 -7.45L2.75 -7.55L2.85 -7.6L3.2 -7.75L3.65 -7.7L3.8 -7.65" />
<linearGradient
id="LinearGradID_461" gradientUnits="userSpaceOnUse" gradientTransform="matrix(0.000823975, 0, 0, 0.000152588, 3.3, -7.05)" spreadMethod ="pad" x1="-819.2" y1="0" x2="819.2" y2="0" >
<stop  offset="0" style="stop-color:#143141;stop-opacity:1" />
<stop  offset="1" style="stop-color:#98EBF5;stop-opacity:1" />
<stop  offset="1" style="stop-color:#5EB802;stop-opacity:1" />
<stop  offset="1" style="stop-color:#5EB802;stop-opacity:1" />
</linearGradient>
<path style="fill:url(#LinearGradID_461) " d="M2.65,-7L2.7 -7.05L2.75 -7.05L3.15 -7.15L3.6 -7.15L3.9 -7.05L4 -7L3.3 -6.9L3.15 -6.9L2.7 -7L2.65 -7" />
<path style="fill:#EFE3DE;fill-opacity:1" d="M2.6,-6.95L2.65 -6.95L3.15 -6.8L3.45 -6.8L3.95 -6.9L4.2 -6.85L4.2 -6.65L4.15 -6.45L4.05 -6.4L4 -6.3L3.8 -6.1L3.75 -6.05L3.7 -6L3.4 -5.95L3.25 -5.95L3 -6.05L2.8 -6.25L2.75 -6.4L2.7 -6.45L2.6 -6.8L2.6 -6.95M4,-5.85L3.9 -5.7L3.7 -5.55L3.45 -5.5L3.2 -5.55L3.05 -5.6L2.95 -5.65L2.85 -5.75L2.85 -5.85L2.8 -6.15L3.05 -5.95L3.2 -5.9L3.55 -5.9L3.7 -5.9L3.95 -6.15L3.95 -5.9L4 -5.85M2.15,-2.2L2.25 -2.3L2.35 -2.55L2.6 -2.45L2.65 -2.45L2.7 -2.45L2.85 -2.4L2.85 -2.35L2.9 -2.35L3.1 -2.2L3.05 -2.15L2.85 -2.15L2.8 -2.2L2.75 -2.2L2.25 -1.95L2.1 -1.9L2.05 -1.9L2 -1.95L1.95 -2.05L2.1 -2.15L2.15 -2.2M4.05,-2.4L4.1 -2.4L4.35 -2.45L4.45 -2.25L4.75 -1.95L4.7 -1.9L4.7 -1.85L4.65 -1.8L4.25 -1.95L3.95 -2.1L3.85 -2.1L3.7 -2.1L3.65 -2.1L3.6 -2.1L3.6 -2.15L3.8 -2.3L3.85 -2.3L3.9 -2.35L4.05 -2.35L4.05 -2.4M-3.85,-1.3L-3.6 -1.2L-3.5 -1.2L-3.45 -1.15L-3.3 -1.15L-3.25 -1.1L-3.2 -1.1L-3.15 -1.05L-2.9 -0.9L-2.9 -0.85L-3 -0.85L-3.05 -0.85L-3.25 -0.85L-3.35 -0.85L-3.8 -0.6L-4 -0.55L-4.3 -0.5L-4.3 -0.55L-4.35 -0.55L-4.35 -0.65L-4 -1.05L-3.85 -1.3M-0.85,-0.8L-0.85 -0.65L-0.9 -0.6L-0.95 -0.55L-1 -0.6L-1.2 -0.6L-1.85 -0.95L-1.95 -0.95L-2.15 -0.9L-2.2 -0.9L-2.3 -0.95L-2.3 -1L-2.05 -1.15L-2 -1.15L-1.9 -1.25L-1.75 -1.25L-1.7 -1.3L-1.6 -1.3L-1.35 -1.4L-1.2 -1.1L-1.05 -0.95L-0.85 -0.8" />
<path style="fill:#563529;fill-opacity:1" d="M4.75,-5.5L4.85 -5.45L5.55 -4.65L5.8 -4.25L6.15 -3.55L6.15 -3.45L6.15 -3.35L6.15 -3.15L6.05 -3L5.6 -2.7L5.55 -2.65L5.5 -2.6L4.95 -2.05L4.85 -2L4.8 -2L4.7 -2.05L4.5 -2.3L4.4 -2.55L4.65 -2.75L4.75 -2.85L4.75 -2.9L4.8 -2.9L4.8 -2.95L5 -3.15L5.05 -3.2L5.1 -3.25L5.1 -3.3L5.3 -3.5L5.25 -3.55L5.15 -3.65L5.15 -3.7L5.1 -3.75L4.85 -4.05L4.75 -4.15L4.7 -4.2L4.6 -3.95L4.55 -4.45L4.65 -5.55L4.75 -5.5M4.1,-5.75L4.1 -5.7L3.95 -4.65L3.85 -4.65L3.8 -4.65L3.7 -4.6L3.15 -4.6L2.8 -4.65L2.7 -4.7L2.65 -4.95L2.7 -5.8L2.75 -5.8L3 -5.55L3.15 -5.5L3.25 -5.45L3.4 -5.45L3.55 -5.5L3.75 -5.55L3.9 -5.65L4 -5.8L4.05 -5.8L4.1 -5.75M1.95,-2.15L1.8 -2.1L1.7 -2.15L0.9 -2.9L0.95 -2.8L1 -2.55L0.95 -2.3L0.8 -2.1L0.6 -1.95L0.3 -1.7L0.25 -1.65L0.15 -1.55L-0.55 -0.9L-0.65 -0.8L-0.75 -0.85L-0.85 -0.9L-0.95 -0.95L-1.05 -1.05L-1.1 -1.15L-1.25 -1.4L-1.25 -1.45L-1 -1.7L-0.8 -1.9L-0.8 -1.95L-0.75 -1.95L-0.75 -2L-0.7 -2L-0.5 -2.25L-0.45 -2.35L-0.4 -2.4L-0.35 -2.45L-0.15 -2.7L-0.2 -2.8L-0.4 -3L-0.7 -3.4L-0.8 -3.55L-0.9 -3.6L-0.95 -3.45L-1 -3.3L-1.1 -3.95L-0.95 -5.3L-0.75 -5.2L0.15 -4.2L0.5 -3.7L0.55 -3.6L0.55 -3.65L0.9 -4.35L1.15 -4.75L1.9 -5.5L2 -5.55L2.05 -5.6L2.15 -4.55L2.1 -4.05L2 -4.25L1.95 -4.25L1.85 -4.15L1.6 -3.8L1.55 -3.75L1.55 -3.7L1.45 -3.65L1.4 -3.6L1.6 -3.4L1.6 -3.3L1.65 -3.3L1.7 -3.2L1.85 -3.05L1.9 -3L1.95 -2.95L2.1 -2.8L2.3 -2.6L2.3 -2.55L2.2 -2.35L2.15 -2.3L1.95 -2.15M1.75,4.25L1.8 4.2L1.95 4.15L2.05 4.2L2.2 4.15L2.35 4.05L2.5 3.8L2.7 3.85L3.1 3.85L3.3 3.8L3.35 3.95L3.5 4.1L3.5 4.2L3.45 4.25L3.4 4.3L3.35 4.4L3.35 4.5L3 4.55L2.9 4.5L2.85 4.45L2.8 4.45L2.4 4.6L2 4.6L1.85 4.6L1.8 4.55L1.7 4.5L1.7 4.3L1.75 4.25M4.35,4.6L4.25 4.6L4.25 4.65L4.2 4.65L4.05 4.75L4 4.8L3.8 4.8L3.5 4.75L3.45 4.55L3.45 4.4L3.45 4.3L3.55 4.3L3.55 4.25L3.6 4.2L3.6 4.15L3.8 4.2L4.2 4.15L4.3 4.15L4.5 4.05L4.55 4.05L4.55 4.25L4.55 4.35L4.5 4.5L4.5 4.55L4.45 4.6L4.4 4.6L4.35 4.6M-5.4,-4.1L-4.5 -5.1L-4.3 -5.2L-4.1 -3.85L-4.2 -3.2L-4.25 -3.2L-4.25 -3.35L-4.3 -3.4L-4.35 -3.5L-4.4 -3.45L-4.55 -3.3L-4.8 -2.9L-4.9 -2.85L-4.9 -2.8L-5.05 -2.7L-5.05 -2.6L-4.85 -2.35L-4.8 -2.3L-4.75 -2.25L-4.7 -2.15L-4.45 -1.85L-4.4 -1.85L-4.4 -1.8L-3.95 -1.35L-3.95 -1.3L-4.05 -1.05L-4.25 -0.85L-4.35 -0.8L-4.45 -0.75L-4.55 -0.7L-4.65 -0.8L-5.45 -1.55L-5.5 -1.55L-5.8 -1.8L-5.8 -1.85L-6 -2L-6.15 -2.2L-6.2 -2.4L-6.2 -2.55L-6.15 -2.65L-5.75 -3.6L-5.4 -4.1M-1.8,-5.55L-1.7 -4.8L-1.8 -4.15L-1.95 -4.1L-2.4 -4L-3.05 -4.05L-3.2 -4.05L-3.25 -4.1L-3.35 -4.1L-3.55 -5.4L-3.55 -5.45L-3.5 -5.55L-3.45 -5.55L-3.3 -5.35L-2.9 -5.15L-2.7 -5.1L-2.5 -5.1L-2.35 -5.15L-2.15 -5.25L-2 -5.4L-1.85 -5.55L-1.8 -5.55M-0.9,7.7L-1.3 7.75L-1.4 7.7L-1.55 7.65L-1.85 7.55L-2 7.55L-2.1 7.65L-2.2 7.65L-2.35 7.65L-2.6 7.55L-2.65 7.4L-2.65 7.35L-2.7 7.25L-2.85 7.2L-2.85 7.05L-2.7 7L-2.65 6.9L-2.6 6.8L-2.55 6.65L-2.3 6.7L-1.75 6.7L-1.55 6.7L-1.35 7L-1.25 7.05L-1.15 7.1L-1.1 7.15L-1 7.15L-0.85 7.15L-0.65 7.15L-0.55 7.25L-0.5 7.4L-0.55 7.6L-0.6 7.65L-0.7 7.65L-0.9 7.7M-3.2,7.15L-3.05 7.15L-2.9 7.1L-2.9 7.2L-2.9 7.25L-2.85 7.3L-2.75 7.35L-2.7 7.5L-2.8 7.9L-2.95 7.95L-3.45 7.95L-3.55 7.9L-3.7 7.8L-3.75 7.75L-3.8 7.7L-3.9 7.7L-3.95 7.7L-4.05 7.65L-4.1 7.55L-4.15 7.35L-4.15 7.15L-4.1 7L-3.65 7.15L-3.2 7.15" />
<linearGradient
id="LinearGradID_462" gradientUnits="userSpaceOnUse" gradientTransform="matrix(0.000366211, 0, 0, 0.000854492, 4.3, -5)" spreadMethod ="pad" x1="-819.2" y1="0" x2="819.2" y2="0" >
<stop  offset="0" style="stop-color:#143141;stop-opacity:1" />
<stop  offset="1" style="stop-color:#98EBF5;stop-opacity:1" />
<stop  offset="1" style="stop-color:#5EB802;stop-opacity:1" />
<stop  offset="1" style="stop-color:#5EB802;stop-opacity:1" />
</linearGradient>
<path style="fill:url(#LinearGradID_462) " d="M4.6,-5.6L4.55 -4.75L4.45 -4.4L4.3 -4.3L4.2 -4.3L4.1 -4.3L4.05 -4.35L4 -4.45L4 -4.7L4.15 -5.55L4.2 -5.7L4.25 -5.7L4.4 -5.7L4.45 -5.65L4.55 -5.6L4.6 -5.6" />
<linearGradient
id="LinearGradID_463" gradientUnits="userSpaceOnUse" gradientTransform="matrix(0.000305176, 0, 0, 0.00088501, 2.4, -5.1)" spreadMethod ="pad" x1="-819.2" y1="0" x2="819.2" y2="0" >
<stop  offset="0" style="stop-color:#143141;stop-opacity:1" />
<stop  offset="1" style="stop-color:#98EBF5;stop-opacity:1" />
<stop  offset="1" style="stop-color:#5EB802;stop-opacity:1" />
<stop  offset="1" style="stop-color:#5EB802;stop-opacity:1" />
</linearGradient>
<path style="fill:url(#LinearGradID_463) " d="M2.65,-5.8L2.65 -4.55L2.6 -4.5L2.6 -4.45L2.55 -4.4L2.5 -4.35L2.45 -4.35L2.4 -4.35L2.35 -4.35L2.25 -4.45L2.2 -4.5L2.15 -5.35L2.2 -5.65L2.25 -5.65L2.55 -5.75L2.6 -5.8L2.65 -5.8" />
<linearGradient
id="LinearGradID_464" gradientUnits="userSpaceOnUse" gradientTransform="matrix(0.00177002, 0, 0, 0.00531006, 3.3, -0.3)" spreadMethod ="pad" x1="-819.2" y1="0" x2="819.2" y2="0" >
<stop  offset="0.00392157" style="stop-color:#143141;stop-opacity:1" />
<stop  offset="1" style="stop-color:#98EBF5;stop-opacity:1" />
<stop  offset="1" style="stop-color:#5EB802;stop-opacity:1" />
<stop  offset="1" style="stop-color:#5EB802;stop-opacity:1" />
</linearGradient>
<path style="fill:url(#LinearGradID_464) " d="M2.25,-1.95L2.75 -2.2L2.8 -2.2L2.85 -2.15L3.05 -2.15L3.1 -2.2L2.9 -2.35L2.85 -2.35L2.85 -2.4L2.7 -2.45L2.65 -2.45L2.6 -2.45L2.35 -2.55L2.25 -2.3L2.15 -2.2L2.15 -2.3L2.2 -2.35L2.3 -2.55L2.3 -2.6L2.1 -2.8L2.05 -3.3L2.1 -3.85L2.2 -4.4L2.35 -4.3L2.45 -4.3L2.6 -4.35L2.65 -4.35L2.7 -4.45L2.7 -4.6L2.85 -4.6L3.65 -4.55L3.8 -4.55L3.8 -4.6L3.95 -4.6L4 -4.4L4.05 -4.25L4.1 -4.25L4.2 -4.2L4.45 -4.25L4.45 -4.3L4.5 -4.3L4.5 -4.35L4.55 -4.2L4.55 -3.9L4.65 -3.75L4.6 -2.8L4.45 -2.65L4.35 -2.6L4.25 -2.5L3.85 -2.4L3.8 -2.35L3.75 -2.35L3.7 -2.3L3.65 -2.25L3.6 -2.2L3.55 -2.2L3.55 -2.1L3.6 -2.05L3.65 -2.05L3.8 -2.05L3.9 -2.1L3.95 -2.1L4.45 -1.8L4.55 -1.75L4.65 -1.75L4.75 -1.8L4.55 1.05L4.8 3.45L4.8 3.55L4.7 3.8L4.65 3.85L4.55 3.95L4.25 4.1L3.75 4.1L3.55 4L3.4 3.8L3.25 -0.05L3.3 3.7L2.95 3.75L2.7 3.75L2.35 3.65L1.9 0.75L2.1 -1.9L2.25 -1.95M3.65,-1.6L3.7 -1.7L3.8 -1.85L3.8 -1.95L3.75 -1.9L3.65 -1.8L3.65 -1.7L3.65 -1.6M3.2,-1.15L3.15 -1.15L3.15 -1.1L3.25 -0.2L3.2 -1.15" />
<path style="fill:#B2B7C9;fill-opacity:1" d="M3.65,-1.7L3.65 -1.8L3.75 -1.9L3.8 -1.95L3.8 -1.85L3.7 -1.7L3.65 -1.6L3.65 -1.7M-2.95,-0.45L-2.95 -0.3L-2.95 -0.2L-3.05 -0.3L-3.15 -0.55L-3.15 -0.65L-3.1 -0.65L-3.05 -0.55L-2.95 -0.45" />
<path style="fill:#DBE6BE;fill-opacity:1" d="M-0.95,-3.05L-1 -3.3L-0.95 -3.45L-0.9 -3.6L-0.8 -3.55L-0.7 -3.4L-0.4 -3L-0.2 -2.8L-0.15 -2.7L-0.35 -2.45L-0.4 -2.4L-0.45 -2.35L-0.5 -2.25L-0.7 -2L-0.75 -2L-0.75 -1.95L-0.8 -1.95L-0.8 -1.9L-1 -1.7L-0.95 -3.05M3.25,-0.2L3.15 -1.1L3.15 -1.15L3.2 -1.15L3.25 -0.2M-2.4,1.05L-2.35 0.4L-2.3 0.45L-2.4 1.05" />
<linearGradient
id="LinearGradID_465" gradientUnits="userSpaceOnUse" gradientTransform="matrix(0.0012207, 0, 0, 0.000549316, -2.65, -7.55)" spreadMethod ="pad" x1="-819.2" y1="0" x2="819.2" y2="0" >
<stop  offset="0" style="stop-color:#143141;stop-opacity:1" />
<stop  offset="1" style="stop-color:#98EBF5;stop-opacity:1" />
<stop  offset="1" style="stop-color:#5EB802;stop-opacity:1" />
<stop  offset="1" style="stop-color:#5EB802;stop-opacity:1" />
</linearGradient>
<path style="fill:url(#LinearGradID_465) " d="M-3,-7.95L-2.45 -8L-2.1 -7.9L-1.95 -7.85L-1.85 -7.75L-1.8 -7.65L-1.7 -7.5L-1.65 -7.35L-1.65 -7.15L-2.25 -7.3L-2.75 -7.35L-3.1 -7.3L-3.35 -7.2L-3.6 -7.1L-3.65 -7.1L-3.65 -7.35L-3.45 -7.7L-3.35 -7.8L-3 -7.95" />
<linearGradient
id="LinearGradID_466" gradientUnits="userSpaceOnUse" gradientTransform="matrix(0.0010376, 0, 0, 0.000213623, -2.6, -7.1)" spreadMethod ="pad" x1="-819.2" y1="0" x2="819.2" y2="0" >
<stop  offset="0" style="stop-color:#143141;stop-opacity:1" />
<stop  offset="1" style="stop-color:#98EBF5;stop-opacity:1" />
<stop  offset="1" style="stop-color:#5EB802;stop-opacity:1" />
<stop  offset="1" style="stop-color:#5EB802;stop-opacity:1" />
</linearGradient>
<path style="fill:url(#LinearGradID_466) " d="M-3.35,-7.15L-2.95 -7.25L-2.4 -7.25L-1.8 -7.15L-1.75 -7.1L-2.4 -6.9L-2.5 -6.9L-3.45 -7.05L-3.35 -7.15" />
<linearGradient
id="LinearGradID_467" gradientUnits="userSpaceOnUse" gradientTransform="matrix(0.00128174, 0, 0, 0.000778198, -2.65, -6.4)" spreadMethod ="pad" x1="-819.2" y1="0" x2="819.2" y2="0" >
<stop  offset="0" style="stop-color:#DDC9BB;stop-opacity:1" />
<stop  offset="1" style="stop-color:#EFE3DE;stop-opacity:1" />
<stop  offset="1" style="stop-color:#563529;stop-opacity:1" />
</linearGradient>
<path style="fill:url(#LinearGradID_467) " d="M-3.7,-6.9L-3.55 -6.95L-3.35 -6.95L-2.7 -6.85L-2.35 -6.85L-1.7 -7L-1.65 -7L-1.6 -6.9L-1.6 -6.8L-1.7 -6.45L-1.75 -6.4L-1.8 -6.35L-1.9 -6.15L-2.15 -5.85L-2.3 -5.8L-2.45 -5.75L-2.65 -5.75L-3.05 -5.8L-3.1 -5.9L-3.15 -5.95L-3.4 -6.15L-3.5 -6.3L-3.55 -6.35L-3.6 -6.4L-3.7 -6.65L-3.7 -6.9" />
<linearGradient
id="LinearGradID_468" gradientUnits="userSpaceOnUse" gradientTransform="matrix(0.000366211, 0, 0, 0.00112915, -1.4, -4.65)" spreadMethod ="pad" x1="-819.2" y1="0" x2="819.2" y2="0" >
<stop  offset="0" style="stop-color:#143141;stop-opacity:1" />
<stop  offset="1" style="stop-color:#98EBF5;stop-opacity:1" />
<stop  offset="1" style="stop-color:#5EB802;stop-opacity:1" />
<stop  offset="1" style="stop-color:#5EB802;stop-opacity:1" />
</linearGradient>
<path style="fill:url(#LinearGradID_468) " d="M-1.15,-5.35L-1.1 -5L-1.15 -3.85L-1.2 -3.8L-1.3 -3.7L-1.4 -3.7L-1.45 -3.7L-1.6 -3.75L-1.65 -3.85L-1.7 -3.9L-1.7 -3.95L-1.7 -4L-1.7 -5.55L-1.65 -5.55L-1.6 -5.5L-1.3 -5.4L-1.25 -5.35L-1.15 -5.35" />
<linearGradient
id="LinearGradID_469" gradientUnits="userSpaceOnUse" gradientTransform="matrix(0.000900269, 0, 0, 0.000518799, -2.65, -5.6)" spreadMethod ="pad" x1="-819.2" y1="0" x2="819.2" y2="0" >
<stop  offset="0" style="stop-color:#DDC9BB;stop-opacity:1" />
<stop  offset="1" style="stop-color:#EFE3DE;stop-opacity:1" />
<stop  offset="1" style="stop-color:#563529;stop-opacity:1" />
</linearGradient>
<path style="fill:url(#LinearGradID_469) " d="M-1.95,-5.6L-1.95 -5.5L-2.2 -5.3L-2.4 -5.2L-2.7 -5.2L-2.85 -5.2L-3 -5.25L-3.25 -5.45L-3.4 -5.6L-3.35 -5.7L-3.35 -5.95L-3 -5.7L-2.8 -5.65L-2.4 -5.65L-2.2 -5.75L-1.9 -6L-1.95 -5.6" />
<linearGradient
id="LinearGradID_470" gradientUnits="userSpaceOnUse" gradientTransform="matrix(0.00228882, 0, 0, 0.00679016, -2.6, 1.5)" spreadMethod ="pad" x1="-819.2" y1="0" x2="819.2" y2="0" >
<stop  offset="0" style="stop-color:#143141;stop-opacity:1" />
<stop  offset="1" style="stop-color:#98EBF5;stop-opacity:1" />
<stop  offset="1" style="stop-color:#5EB802;stop-opacity:1" />
<stop  offset="1" style="stop-color:#5EB802;stop-opacity:1" />
</linearGradient>
<path style="fill:url(#LinearGradID_470) " d="M-1.05,-0.95L-1.2 -1.1L-1.35 -1.4L-1.6 -1.3L-1.7 -1.3L-1.75 -1.25L-1.9 -1.25L-2 -1.15L-2.05 -1.15L-2.3 -1L-2.3 -0.95L-2.2 -0.9L-2.15 -0.9L-1.95 -0.95L-1.85 -0.95L-1.2 -0.6L-1 -0.6L-0.7 2.8L-1.3 6.5L-1.6 6.6L-1.75 6.65L-2.1 6.65L-2.55 6.55L-2.35 3.6L-2.4 2.5L-2.6 6.65L-2.7 6.85L-2.95 7L-3.05 7.05L-3.2 7.05L-3.7 7.05L-4.15 6.9L-4.35 6.65L-4.45 6.4L-4.45 6.2L-4.1 3.2L-4.35 -0.45L-4.25 -0.4L-3.95 -0.45L-3.35 -0.8L-3.25 -0.8L-3.15 -0.75L-3 -0.75L-2.85 -0.8L-2.8 -0.85L-2.8 -0.95L-2.85 -0.95L-2.9 -1L-2.95 -1.05L-3.05 -1.1L-3.15 -1.2L-3.2 -1.2L-3.75 -1.35L-3.8 -1.4L-4 -1.55L-4 -1.6L-4.1 -1.65L-4.15 -1.75L-4.2 -2.95L-4.1 -3.1L-4.05 -3.55L-4 -3.65L-4 -3.6L-3.95 -3.6L-3.65 -3.55L-3.5 -3.6L-3.4 -3.75L-3.3 -4.05L-3.25 -4L-3.15 -4L-3.1 -4L-2.95 -3.95L-1.75 -4.05L-1.75 -3.85L-1.7 -3.75L-1.65 -3.7L-1.6 -3.65L-1.4 -3.6L-1.3 -3.6L-1.2 -3.65L-1.1 -3.75L-1 -3.3L-0.95 -3.05L-1 -1.7L-1.25 -1.45L-1.25 -1.4L-1.1 -1.15L-1.05 -1.05L-1.05 -0.95M-3.05,-0.55L-3.1 -0.65L-3.15 -0.65L-3.15 -0.55L-3.05 -0.3L-2.95 -0.2L-2.95 -0.3L-2.95 -0.45L-3.05 -0.55M-2.4,1.05L-2.3 0.45L-2.35 0.4L-2.4 1.05L-2.45 1.8L-2.4 2.5L-2.4 1.05" />
<linearGradient
id="LinearGradID_471" gradientUnits="userSpaceOnUse" gradientTransform="matrix(0.000457764, 0, 0, 0.00112915, -3.85, -4.55)" spreadMethod ="pad" x1="-819.2" y1="0" x2="819.2" y2="0" >
<stop  offset="0" style="stop-color:#143141;stop-opacity:1" />
<stop  offset="1" style="stop-color:#98EBF5;stop-opacity:1" />
<stop  offset="1" style="stop-color:#5EB802;stop-opacity:1" />
<stop  offset="1" style="stop-color:#5EB802;stop-opacity:1" />
</linearGradient>
<path style="fill:url(#LinearGradID_471) " d="M-3.7,-5.45L-3.6 -5.25L-3.45 -4.15L-3.45 -3.85L-3.45 -3.7L-3.55 -3.65L-3.65 -3.6L-3.85 -3.65L-4 -3.75L-4.1 -4.15L-4.2 -5.25L-4 -5.35L-3.95 -5.4L-3.75 -5.4L-3.7 -5.45" />
<path style="fill:#BF9E7F;fill-opacity:1" d="M-2.4,2.5L-2.45 1.8L-2.4 1.05L-2.4 2.5" />
</g>
</svg>
