<?xml version="1.0" encoding="utf-8"?>
<svg version="1.1" id="Layer_1"
xmlns="http://www.w3.org/2000/svg"
xmlns:xlink="http://www.w3.org/1999/xlink"
xmlns:author="http://www.sothink.com"
width="35px" height="25px"
xml:space="preserve">
<g id="160" transform="matrix(1, 0, 0, 1, 17.3, 12.5)">
<path style="fill:#563529;fill-opacity:1" d="M16.7,-12.45L16.7 12.5L-17.3 12.5L-17.3 -12.45L-16.95 -12.45L14.7 -12.45L14.7 -12.5L16.7 -12.5L16.7 -12.45M14.7,-10.6L-15.45 -10.6L-15.45 10.5L14.7 10.5L14.7 -10.6" />
<path style="fill:#4E6C33;fill-opacity:1" d="M-16.95,-12.5L14.7 -12.5L14.7 -12.45L-16.95 -12.45L-16.95 -12.5M16.7,-12.45L16.7 -12.5L17.3 -12.5L17.3 -12.45L16.7 -12.45" />
<path style="fill:#DBE6BE;fill-opacity:1" d="M14.7,10.5L-15.45 10.5L-15.45 -10.6L14.7 -10.6L14.7 10.5" />
<radialGradient
id="RadialGradID_526" gradientUnits="userSpaceOnUse" gradientTransform="matrix(0.00198364, 0, 0, 0.00198364, -8.15, -1)" spreadMethod ="pad" cx="0" cy="0" r="819.2" fx="0" fy="0" >
<stop  offset="0"  style="stop-color:#10EF9B;stop-opacity:1" />
<stop  offset="1"  style="stop-color:#07784E;stop-opacity:1" />
<stop  offset="1"  style="stop-color:#805740;stop-opacity:1" />
</radialGradient>
<path style="fill:url(#RadialGradID_526) " d="M-7.6,1.1L-7.85 1.6Q-8.05 0.95 -8.7 0.3Q-9.45 -0.35 -9.1 -0.95Q-8.75 -1.55 -8.2 -1.55Q-7.65 -1.55 -7.3 -0.95Q-6.95 -0.35 -6.9 0.55L-6.9 0.65L-7.6 1.1" />
<radialGradient
id="RadialGradID_527" gradientUnits="userSpaceOnUse" gradientTransform="matrix(0.00198364, 0, 0, 0.00198364, -4.15, -3.25)" spreadMethod ="pad" cx="0" cy="0" r="819.2" fx="0" fy="0" >
<stop  offset="0"  style="stop-color:#10EF9B;stop-opacity:1" />
<stop  offset="1"  style="stop-color:#07784E;stop-opacity:1" />
<stop  offset="1"  style="stop-color:#805740;stop-opacity:1" />
</radialGradient>
<path style="fill:url(#RadialGradID_527) " d="M-3.55,-0.75Q-3.75 -1.4 -4.45 -2.05Q-5.2 -2.7 -4.85 -3.35Q-4.5 -3.95 -3.95 -3.95Q-3.4 -3.95 -3.05 -3.35Q-2.7 -2.7 -2.65 -1.85L-2.65 -1.75Q-3.1 -1.65 -3.35 -1.3L-3.55 -0.75" />
<radialGradient
id="RadialGradID_528" gradientUnits="userSpaceOnUse" gradientTransform="matrix(0.00186157, 0, 0, 0.00186157, -1.8, -0.75)" spreadMethod ="pad" cx="0" cy="0" r="819.2" fx="0" fy="0" >
<stop  offset="0"  style="stop-color:#10EF9B;stop-opacity:1" />
<stop  offset="1"  style="stop-color:#07784E;stop-opacity:1" />
<stop  offset="1"  style="stop-color:#805740;stop-opacity:1" />
</radialGradient>
<path style="fill:url(#RadialGradID_528) " d="M-1.05,-0.8L-1.05 -0.75Q-1 -0.3 -1.8 -0.35L-2.35 -0.4L-3 -0.2L-3.25 -0.1L-3.4 0.05L-3.4 0.1L-3.55 -0.35L-3.55 -0.55L-3.55 -0.75L-3.35 -1.3Q-3.1 -1.65 -2.65 -1.75L-2.55 -1.8Q-2 -1.9 -1.6 -1.6L-1.45 -1.5L-1.05 -0.8" />
<radialGradient
id="RadialGradID_529" gradientUnits="userSpaceOnUse" gradientTransform="matrix(0.00297546, 0, 0, 0.00297546, -3.4, 0.15)" spreadMethod ="pad" cx="0" cy="0" r="819.2" fx="0" fy="0" >
<stop  offset="0"  style="stop-color:#FE0101;stop-opacity:1" />
<stop  offset="1"  style="stop-color:#660000;stop-opacity:1" />
<stop  offset="1"  style="stop-color:#805740;stop-opacity:1" />
</radialGradient>
<path style="fill:url(#RadialGradID_529) " d="M-1.75,-0.15Q-1.05 0.3 -1.05 0.85L-1.15 1.3L-1.45 0.35Q-1.8 -0.25 -2.35 -0.25Q-2.9 -0.25 -3.25 0.35Q-3.6 0.95 -2.85 1.6L-2.4 2.15L-3.5 2.25Q-4.5 2.25 -5.2 1.85L-5.35 1.75L-5.35 1.6Q-5.45 1.05 -5.85 0.75L-5.9 0.75Q-5.8 0.2 -5.2 -0.15L-3.55 -0.55L-3.55 -0.35L-3.4 0.1L-3.4 0.05L-3.25 -0.1L-3 -0.2L-2.35 -0.4L-1.75 -0.15" />
<radialGradient
id="RadialGradID_530" gradientUnits="userSpaceOnUse" gradientTransform="matrix(0.00193787, 0, 0, 0.00193787, -6.05, 1.5)" spreadMethod ="pad" cx="0" cy="0" r="819.2" fx="0" fy="0" >
<stop  offset="0"  style="stop-color:#10EF9B;stop-opacity:1" />
<stop  offset="1"  style="stop-color:#07784E;stop-opacity:1" />
<stop  offset="1"  style="stop-color:#805740;stop-opacity:1" />
</radialGradient>
<path style="fill:url(#RadialGradID_530) " d="M-7.85,1.85L-7.85 1.6L-7.6 1.1L-6.9 0.65L-6.8 0.55L-5.9 0.75L-5.85 0.75Q-5.45 1.05 -5.35 1.6L-5.35 1.75Q-5.45 2.05 -6.1 2L-6.65 1.95L-7.3 2.15L-7.5 2.3L-7.65 2.4L-7.65 2.45L-7.8 2.05L-7.85 1.85" />
<radialGradient
id="RadialGradID_531" gradientUnits="userSpaceOnUse" gradientTransform="matrix(0.00297546, 0, 0, 0.00297546, -7.65, 2.5)" spreadMethod ="pad" cx="0" cy="0" r="819.2" fx="0" fy="0" >
<stop  offset="0"  style="stop-color:#FE0101;stop-opacity:1" />
<stop  offset="1"  style="stop-color:#660000;stop-opacity:1" />
<stop  offset="1"  style="stop-color:#805740;stop-opacity:1" />
</radialGradient>
<path style="fill:url(#RadialGradID_531) " d="M-7.8,2.05L-7.65 2.45L-7.65 2.4L-7.5 2.3L-7.3 2.15L-6.65 1.95L-6 2.25Q-5.3 2.65 -5.3 3.25Q-5.3 3.8 -6 4.2Q-6.75 4.65 -7.75 4.65L-9.45 4.2Q-10.15 3.8 -10.15 3.25Q-10.15 2.65 -9.45 2.25Q-8.75 1.85 -7.85 1.85L-7.8 2.05" />
<radialGradient
id="RadialGradID_532" gradientUnits="userSpaceOnUse" gradientTransform="matrix(0.00198364, 0, 0, 0.00198364, -2.55, 0.25)" spreadMethod ="pad" cx="0" cy="0" r="819.2" fx="0" fy="0" >
<stop  offset="0"  style="stop-color:#10EF9B;stop-opacity:1" />
<stop  offset="1"  style="stop-color:#07784E;stop-opacity:1" />
<stop  offset="1"  style="stop-color:#805740;stop-opacity:1" />
</radialGradient>
<path style="fill:url(#RadialGradID_532) " d="M-2,2.9L-2.4 2.15L-2.85 1.6Q-3.6 0.95 -3.25 0.35Q-2.9 -0.25 -2.35 -0.25Q-1.8 -0.25 -1.45 0.35L-1.15 1.3L-1.05 1.85L-1.05 1.95L-1.75 2.4L-2 2.9" />
<radialGradient
id="RadialGradID_533" gradientUnits="userSpaceOnUse" gradientTransform="matrix(0.00205994, 0, 0, 0.00205994, 0.4, -5.95)" spreadMethod ="pad" cx="0" cy="0" r="819.2" fx="0" fy="0" >
<stop  offset="0"  style="stop-color:#10EF9B;stop-opacity:1" />
<stop  offset="1"  style="stop-color:#07784E;stop-opacity:1" />
<stop  offset="1"  style="stop-color:#805740;stop-opacity:1" />
</radialGradient>
<path style="fill:url(#RadialGradID_533) " d="M0.9,-3.15L0 -4.45Q-0.5 -4.9 -0.5 -5.3L-0.4 -5.75Q-0.05 -6.35 0.5 -6.35Q1.05 -6.35 1.4 -5.75L1.65 -5.3L1.8 -4.25L1.8 -4.15L1.1 -3.7L0.9 -3.15" />
<radialGradient
id="RadialGradID_534" gradientUnits="userSpaceOnUse" gradientTransform="matrix(0.00193787, 0, 0, 0.00193787, 2.65, -3.25)" spreadMethod ="pad" cx="0" cy="0" r="819.2" fx="0" fy="0" >
<stop  offset="0.0117647"  style="stop-color:#10EF9B;stop-opacity:1" />
<stop  offset="1"  style="stop-color:#07784E;stop-opacity:1" />
<stop  offset="1"  style="stop-color:#805740;stop-opacity:1" />
</radialGradient>
<path style="fill:url(#RadialGradID_534) " d="M1.1,-3.7L1.8 -4.15L1.9 -4.2L2.85 -4L3.4 -3.2Q3.5 -2.7 2.65 -2.8L2.1 -2.8L1.45 -2.6L1.2 -2.5L1.05 -2.35L1.05 -2.3L0.9 -2.75L0.9 -2.95L0.9 -3.15L1.1 -3.7" />
<radialGradient
id="RadialGradID_535" gradientUnits="userSpaceOnUse" gradientTransform="matrix(0.00297546, 0, 0, 0.00297546, 1.05, -2.25)" spreadMethod ="pad" cx="0" cy="0" r="819.2" fx="0" fy="0" >
<stop  offset="0"  style="stop-color:#FE0101;stop-opacity:1" />
<stop  offset="1"  style="stop-color:#660000;stop-opacity:1" />
<stop  offset="1"  style="stop-color:#805740;stop-opacity:1" />
</radialGradient>
<path style="fill:url(#RadialGradID_535) " d="M1.45,-0.7L1.85 -0.25L1 -0.15Q-0.05 -0.15 -0.75 -0.55L-1.05 -0.75L-1.05 -0.8L-1.45 -1.5L-1.45 -1.55Q-1.45 -2.15 -0.75 -2.55L0.9 -2.95L0.9 -2.75L1.05 -2.3L1.05 -2.35L1.2 -2.5L1.45 -2.6L2.1 -2.8L2.7 -2.55Q3.4 -2.15 3.4 -1.55L3.2 -0.9L3.05 -1.5L2.9 -1.85L2.85 -1.95L2.8 -2.05Q2.45 -2.65 1.9 -2.65Q1.35 -2.65 1 -2.05Q0.8 -1.65 1 -1.2L1.45 -0.7" />
<radialGradient
id="RadialGradID_536" gradientUnits="userSpaceOnUse" gradientTransform="matrix(0.00444031, 0, 0, 0.00205994, 1.25, -1.95)" spreadMethod ="pad" cx="0" cy="0" r="819.2" fx="0" fy="0" >
<stop  offset="0"  style="stop-color:#10EF9B;stop-opacity:1" />
<stop  offset="1"  style="stop-color:#07784E;stop-opacity:1" />
<stop  offset="1"  style="stop-color:#805740;stop-opacity:1" />
</radialGradient>
<path style="fill:url(#RadialGradID_536) " d="M2.55,0.1L2.3 0.6L1.85 -0.25L1.45 -0.7L1 -1.2L0.95 -1.5L1.05 -1.95Q1.4 -2.6 1.95 -2.6L2.85 -1.95L2.9 -1.85L3.05 -1.5L3.2 -0.9L3.2 -0.45L3.2 -0.35L2.55 0.1" />
<radialGradient
id="RadialGradID_537" gradientUnits="userSpaceOnUse" gradientTransform="matrix(0.00193787, 0, 0, 0.00193787, -0.2, 2.75)" spreadMethod ="pad" cx="0" cy="0" r="819.2" fx="0" fy="0" >
<stop  offset="0.00392157"  style="stop-color:#10EF9B;stop-opacity:1" />
<stop  offset="1"  style="stop-color:#07784E;stop-opacity:1" />
<stop  offset="1"  style="stop-color:#805740;stop-opacity:1" />
</radialGradient>
<path style="fill:url(#RadialGradID_537) " d="M-2,3.15L-2 2.9L-1.75 2.4L-1.05 1.95L-0.95 1.85L-0.05 2.05L0 2.05L0.5 2.9L0.5 3.05Q0.4 3.35 -0.25 3.3L-0.8 3.25L-1.45 3.45L-1.65 3.6L-1.8 3.7L-1.8 3.75L-1.95 3.35L-2 3.15" />
<radialGradient
id="RadialGradID_538" gradientUnits="userSpaceOnUse" gradientTransform="matrix(0.00297546, 0, 0, 0.00297546, 2.45, 1.45)" spreadMethod ="pad" cx="0" cy="0" r="819.2" fx="0" fy="0" >
<stop  offset="0"  style="stop-color:#FE0101;stop-opacity:1" />
<stop  offset="1"  style="stop-color:#660000;stop-opacity:1" />
<stop  offset="1"  style="stop-color:#805740;stop-opacity:1" />
</radialGradient>
<path style="fill:url(#RadialGradID_538) " d="M3.65,0.95L4.1 1.15Q4.8 1.6 4.8 2.15Q4.8 2.75 4.1 3.15L2.35 3.55Q1.35 3.55 0.65 3.15L0.5 3.05L0.5 2.9L0 2.05L-0.05 2.05Q0.05 1.5 0.65 1.15L2.3 0.75L2.3 0.95L2.4 1.4L2.45 1.45L2.45 1.4L2.65 1.3L2.85 1.15L3.5 0.95L3.65 0.95" />
<radialGradient
id="RadialGradID_539" gradientUnits="userSpaceOnUse" gradientTransform="matrix(0.00193787, 0, 0, 0.00193787, 4.6, 0.75)" spreadMethod ="pad" cx="0" cy="0" r="819.2" fx="0" fy="0" >
<stop  offset="0.141176"  style="stop-color:#10EF9B;stop-opacity:1" />
<stop  offset="1"  style="stop-color:#07784E;stop-opacity:1" />
<stop  offset="1"  style="stop-color:#805740;stop-opacity:1" />
</radialGradient>
<path style="fill:url(#RadialGradID_539) " d="M4.8,0.55Q4.9 1.05 4.05 1L3.65 0.95L3.5 0.95L2.85 1.15L2.65 1.3L2.45 1.4L2.45 1.45L2.4 1.4L2.35 1.05L2.3 0.85L2.3 0.6L2.55 0.1L3.2 -0.35L3.35 -0.45L4.3 -0.25L4.7 0.2L4.8 0.55" />
<radialGradient
id="RadialGradID_540" gradientUnits="userSpaceOnUse" gradientTransform="matrix(0.00297546, 0, 0, 0.00297546, 6.9, -0.95)" spreadMethod ="pad" cx="0" cy="0" r="819.2" fx="0" fy="0" >
<stop  offset="0"  style="stop-color:#FE0101;stop-opacity:1" />
<stop  offset="1"  style="stop-color:#660000;stop-opacity:1" />
<stop  offset="1"  style="stop-color:#805740;stop-opacity:1" />
</radialGradient>
<path style="fill:url(#RadialGradID_540) " d="M4.7,0.2L4.4 -0.2L4.4 -0.25Q4.4 -0.85 5.1 -1.25L6.75 -1.65L6.75 -1.45L6.9 -1L6.9 -1.05L7.05 -1.2L7.3 -1.3Q7.5 -1.5 7.95 -1.5L8.55 -1.25Q9.25 -0.85 9.25 -0.25Q9.25 0.35 8.55 0.75L6.85 1.15Q5.8 1.15 5.1 0.75L4.8 0.55L4.7 0.2" />
<radialGradient
id="RadialGradID_541" gradientUnits="userSpaceOnUse" gradientTransform="matrix(0.00193787, 0, 0, 0.00193787, 9, -1.75)" spreadMethod ="pad" cx="0" cy="0" r="819.2" fx="0" fy="0" >
<stop  offset="0.141176"  style="stop-color:#10EF9B;stop-opacity:1" />
<stop  offset="1"  style="stop-color:#07784E;stop-opacity:1" />
<stop  offset="1"  style="stop-color:#805740;stop-opacity:1" />
</radialGradient>
<path style="fill:url(#RadialGradID_541) " d="M6.75,-1.65L6.75 -1.85L6.95 -2.4L7.65 -2.85L7.75 -2.9L8.7 -2.7Q9.15 -2.4 9.25 -1.9Q9.35 -1.4 8.5 -1.5L7.95 -1.5Q7.5 -1.5 7.3 -1.3L7.05 -1.2L6.9 -1.05L6.9 -1L6.75 -1.45L6.75 -1.65" />
<radialGradient
id="RadialGradID_542" gradientUnits="userSpaceOnUse" gradientTransform="matrix(0.00444031, 0, 0, 0.00205994, 5.65, -4.45)" spreadMethod ="pad" cx="0" cy="0" r="819.2" fx="0" fy="0" >
<stop  offset="0"  style="stop-color:#10EF9B;stop-opacity:1" />
<stop  offset="1"  style="stop-color:#07784E;stop-opacity:1" />
<stop  offset="1"  style="stop-color:#805740;stop-opacity:1" />
</radialGradient>
<path style="fill:url(#RadialGradID_542) " d="M6.75,-1.85L5.85 -3.15Q5.35 -3.6 5.35 -4L5.45 -4.45Q5.8 -5.05 6.35 -5.05Q6.9 -5.05 7.25 -4.45L7.5 -4L7.65 -2.95L7.65 -2.85L6.95 -2.4L6.75 -1.85" />
<radialGradient
id="RadialGradID_543" gradientUnits="userSpaceOnUse" gradientTransform="matrix(0.00297546, 0, 0, 0.00297546, -1.8, 3.8)" spreadMethod ="pad" cx="0" cy="0" r="819.2" fx="0" fy="0" >
<stop  offset="0"  style="stop-color:#FE0101;stop-opacity:1" />
<stop  offset="1"  style="stop-color:#660000;stop-opacity:1" />
<stop  offset="1"  style="stop-color:#805740;stop-opacity:1" />
</radialGradient>
<path style="fill:url(#RadialGradID_543) " d="M-1.95,3.35L-1.8 3.75L-1.8 3.7L-1.65 3.6L-1.45 3.45L-0.8 3.25Q-0.45 3.35 -0.15 3.55Q0.55 3.95 0.55 4.55Q0.55 5.1 -0.15 5.5Q-0.9 5.95 -1.9 5.95L-3.6 5.5Q-4.3 5.1 -4.3 4.55Q-4.3 3.95 -3.6 3.55Q-2.9 3.15 -2 3.15L-1.95 3.35" />
</g>
</svg>
