<?xml version="1.0" encoding="utf-8"?>
<svg version="1.1" id="Layer_1"
xmlns="http://www.w3.org/2000/svg"
xmlns:xlink="http://www.w3.org/1999/xlink"
xmlns:author="http://www.sothink.com"
width="31px" height="16px"
xml:space="preserve">
<g id="243" transform="matrix(1, 0, 0, 1, 74.9, -109.3)">
<path style="fill:#000066;fill-opacity:1" d="M-71.6,111.15Q-72.05 111.15 -72.4 111.55Q-72.75 111.95 -72.75 112.65Q-72.75 113.35 -72.4 113.65Q-72.1 114.05 -71.65 114.05L-70.95 113.8L-70.55 113.15L-70.15 113.3L-70.7 114.1Q-71.1 114.45 -71.65 114.45L-72.8 114Q-73.25 113.5 -73.25 112.65Q-73.25 111.75 -72.8 111.25Q-72.3 110.75 -71.55 110.75Q-71 110.75 -70.65 111.05Q-70.3 111.25 -70.15 111.8L-70.6 111.9L-71 111.3L-71.6 111.15M-69.35,110.3Q-68.4 111.2 -68.4 112.6Q-68.4 113.95 -69.35 114.85Q-70.3 115.8 -71.65 115.8Q-73 115.8 -73.95 114.85Q-74.9 113.95 -74.9 112.6Q-74.9 111.2 -73.95 110.3Q-73 109.3 -71.65 109.3Q-70.3 109.3 -69.35 110.3M-71.65,109.7Q-72.85 109.7 -73.7 110.5Q-74.55 111.35 -74.55 112.6Q-74.55 113.75 -73.7 114.6Q-72.85 115.45 -71.65 115.45Q-70.45 115.45 -69.55 114.6Q-68.75 113.75 -68.75 112.6Q-68.75 111.35 -69.55 110.5Q-70.45 109.7 -71.65 109.7" />
<path style="fill:#000066;fill-opacity:1" d="M-47.85,118.6Q-49.05 118.6 -49.9 119.4Q-50.75 120.25 -50.75 121.5Q-50.75 122.65 -49.9 123.5Q-49.05 124.35 -47.85 124.35Q-46.65 124.35 -45.75 123.5Q-44.95 122.65 -44.95 121.5Q-44.95 120.25 -45.75 119.4Q-46.65 118.6 -47.85 118.6M-45.55,119.2Q-44.6 120.1 -44.6 121.5Q-44.6 122.85 -45.55 123.75Q-46.5 124.7 -47.85 124.7Q-49.2 124.7 -50.15 123.75Q-51.1 122.85 -51.1 121.5Q-51.1 120.1 -50.15 119.2Q-49.2 118.2 -47.85 118.2Q-46.5 118.2 -45.55 119.2M-47.8,120.05Q-48.25 120.05 -48.6 120.45Q-48.95 120.85 -48.95 121.55Q-48.95 122.25 -48.6 122.55L-47.85 122.95L-47.15 122.7L-46.75 122.05L-46.35 122.2L-46.9 123Q-47.3 123.35 -47.85 123.35Q-48.55 123.35 -49 122.9Q-49.45 122.4 -49.45 121.55Q-49.45 120.65 -49 120.15Q-48.5 119.65 -47.75 119.65Q-47.2 119.65 -46.85 119.95Q-46.5 120.15 -46.35 120.7L-46.8 120.8L-47.2 120.2L-47.8 120.05" />
</g>
</svg>
