<?xml version="1.0" encoding="utf-8"?>
<svg version="1.1" id="Layer_1"
xmlns="http://www.w3.org/2000/svg"
xmlns:xlink="http://www.w3.org/1999/xlink"
xmlns:author="http://www.sothink.com"
width="67px" height="47px"
xml:space="preserve">
<g id="93" transform="matrix(1, 0, 0, 1, 31.7, 25.65)">
<path style="fill:#A58769;fill-opacity:1" d="M18.8,-21.4L19.35 -21L18.8 -20.75L13.85 -18.05L13.6 -18.25L8.7 -22.65L7.75 -23.45L13.3 -25.6L13.35 -25.65L18.65 -21.55L18.8 -21.4M25.65,-18.9L20.7 -23.3L20.75 -23.3L25.7 -25.25L30.6 -21.8L25.65 -18.9" />
<path style="fill:#C5C5C5;fill-opacity:1" d="M20.7,-17.35L18.85 -18.8L18.8 -20.75L19.05 -20.85L20.7 -19.55L20.7 -17.35M30.4,-9.8L30.45 -12L34.45 -8.85L32.8 -7.95L30.4 -9.8M-29.25,-5.85L-19.2 6.55L-18.95 9.6L-18.95 9.7L-30.15 -4.1Q-30.35 -5.15 -31.45 -6L-31.7 -8.85L-31.15 -8.15L-29.25 -5.85" />
<path style="fill:#E0D6CD;fill-opacity:1" d="M18.65,-21.55L18.8 -21.65L18.8 -21.4L18.65 -21.55M30.4,-9.8L30.35 -8.25L25.4 -5.35L25.7 -18.85L25.75 -18.85L25.65 -18.9L30.6 -21.8L30.45 -12L30.4 -9.8M18.85,-16.8L18.7 -16.7L18.65 -16.7L13.6 -13.85L13.6 -18.25L13.85 -18.05L18.8 -20.75L18.85 -18.8L18.85 -16.8" />
<path style="fill:#C4AF9B;fill-opacity:1" d="M20.7,-17.35L20.7 -19.55L20.7 -23.3L20.7 -23.35L20.75 -23.3L20.7 -23.3L25.65 -18.9L25.75 -18.85L25.7 -18.85L25.4 -5.35L20.7 -9.85L20.7 -17.35M8.45,-18.85L8.5 -18.85L8.5 -20.35L8.5 -22.75L8.7 -22.65L13.6 -18.25L13.6 -13.85L8.45 -18.85" />
<linearGradient
id="LinearGradID_313" gradientUnits="userSpaceOnUse" gradientTransform="matrix(0.00805664, 0, 0, 0.00500488, 6.05, -8.35)" spreadMethod ="pad" x1="-819.2" y1="0" x2="819.2" y2="0" >
<stop  offset="0" style="stop-color:#93A2CC;stop-opacity:1" />
<stop  offset="1" style="stop-color:#FFFFFF;stop-opacity:1" />
</linearGradient>
<path style="fill:url(#LinearGradID_313) " d="M12.65,-12.2L12.4 -11.8L11 -10L10.95 -10L9.75 -10.05L6.25 -9.65Q4.5 -9.45 2.7 -8.5L1.1 -7.45Q0 -6.6 -0.2 -5.55L-0.25 -5.2L-0.25 -4.65L-0.15 -4.25L-0.3 -4.55L-0.45 -5.45L-0.45 -6.1L-0.35 -7.05L-0.55 -6.1Q-0.55 -8.75 2.45 -10.55Q4.1 -11.6 6.1 -12.05L7.95 -12.35L9.7 -12.45L9.8 -12.45L10.15 -12.45L11.25 -12.4L12.6 -12.2L12.65 -12.2" />
<path style="fill:#715944;fill-opacity:1" d="M-11.7,15.75L-11.65 18.5L-18.95 9.6L-19.2 6.55L-29.25 -5.85L-16.85 -10.65L-17.1 -10.45L-17.15 -10.4L-17.05 -10.3L-17.1 -10.3L-19.3 -9.25Q-22.3 -7.45 -22.3 -4.8L-22.3 -4.4L-22.1 -3.45L-22.3 -4.25L-22.3 -4.05Q-22.3 -1.1 -19.3 1Q-16.3 3.1 -12 3.1Q-7.75 3.1 -4.75 1Q-1.75 -1.1 -1.75 -4L-1.9 -3.25L-1.75 -4.15L-1.75 -4.8Q-1.75 -7.45 -4.75 -9.25Q-6.4 -10.3 -8.4 -10.75L-12 -11.15L-14.85 -10.9L-14.95 -11.05L-15 -11.1L-16.1 -10.9L2.45 -18.05L2.55 -18.05L7 -14.45L2.65 -18.1L8.5 -20.35L8.5 -18.85L8.45 -18.85L13.6 -13.85L18.65 -16.7L18.7 -16.7L18.85 -16.8L18.85 -18.8L20.7 -17.35L20.7 -9.85L25.4 -5.35L30.35 -8.25L30.4 -9.8L32.8 -7.95L-1.85 10.55Q-1.45 9.75 -1.45 8.75L-1.55 9.3L-1.45 8.65L-1.45 8.15Q-1.45 6.15 -3.65 4.85L-3.8 4.75L-4.35 4.45Q-5.35 3.9 -6.5 3.65L-9.15 3.35L-11.2 3.55L-11.25 3.5L-11.3 3.45L-11.4 3.5L-11.4 3.45L-12.7 3.65L-12.8 3.65L-12.7 3.75L-12.8 3.75L-12.95 3.9L-12.9 4L-12.85 4.05L-12.9 4.05L-12.95 4Q-13.85 4.25 -14.55 4.75Q-16.8 6.1 -16.8 8.05L-16.8 8.35L-16.75 8.55L-16.75 8.6L-16.75 8.65L-16.8 8.45L-16.8 8.6Q-16.8 9.6 -16.35 10.45Q-15.8 11.55 -14.5 12.45Q-12.3 14 -9.05 14L-8.4 14L-11.7 15.75M-0.55,-5.45L-0.4 -4.7L-0.55 -5.3Q-0.55 -2.4 2.45 -0.3Q3.95 0.75 5.85 1.3L9.7 1.8L9.8 1.8L13.75 1.3Q15.6 0.75 17.1 -0.3Q20.1 -2.4 20.1 -5.35L20.1 -5.55L20 -5.15L20 -5.2L20.1 -5.7L20.1 -6.1Q20.1 -8.75 17.1 -10.55L14.9 -11.6L14.9 -11.55L14.85 -11.55L14.85 -11.6L14.95 -11.7L14.9 -11.75L14.7 -11.9L14.6 -11.95L14.7 -12.05L14.6 -12.05L14.55 -12.05L14.55 -12.1L12.7 -12.4L12.65 -12.35L12.6 -12.2L11.25 -12.4L10.15 -12.45L9.8 -12.45L9.7 -12.45L7.95 -12.35L6.1 -12.05Q4.1 -11.6 2.45 -10.55Q-0.55 -8.75 -0.55 -6.1L-0.55 -5.45M-1.75,-15.25L2.95 -11.05L7.15 -13.75L7 -14.5L7 -14.45L6.95 -14.45L2.4 -17.65L2.4 -17.6L0.95 -17.05L0.7 -17.2L0.65 -17.2L0.25 -17L-1.7 -16.2L-1.8 -16.15L-1.75 -15.25M-3.2,-15.05L-3.2 -15L-4.85 -14.4L-5.1 -14.6L-5.15 -14.6L-7.9 -13.55L-7.85 -12.55L-2.85 -7.75L1.9 -10.6L1.75 -11.4L1.75 -11.35L1.7 -11.35L-3.2 -15.05M2.2,0.55L2.15 0.55L1.95 0.7L0.45 0.15L0.45 0.1L-4.1 3.3L-4.15 3.3L-4.15 3.25L-4.3 4L-0.05 6.7L4.6 2.5L4.7 1.6L2.2 0.55M-3.05,-15.45L1.75 -11.35L-2.95 -15.55L-2.95 -15.5L-3.05 -15.45" />
<path style="fill:#ECECEC;fill-opacity:1" d="M-8.4,14L-1.85 10.55L32.8 -7.95L34.45 -8.85L34.35 -6.45L-11.5 18.7L-11.65 18.75L-11.65 18.5L-11.7 15.75L-8.4 14M-16.85,-10.65L-29.25 -5.85L-31.15 -8.15L8.5 -22.75L8.5 -20.35L2.65 -18.1L2.55 -18.05L2.45 -18.05L-16.1 -10.9L-16.85 -10.8L-16.8 -10.75L-16.9 -10.75L-16.8 -10.65L-16.85 -10.65" />
<path style="fill:#BF9E7F;fill-opacity:1" d="M7,-14.45L2.55 -18.05L2.65 -18.1L7 -14.45M-2.95,-15.5L-2.95 -15.55L1.75 -11.35L-3.05 -15.45L-2.95 -15.5" />
<path style="fill:#E0CEC2;fill-opacity:1" d="M0.2,-16.95L-1.7 -16.2L-1.4 -15.9L0.1 -16.55L0.15 -16.6L4.25 -13.7L0.3 -16.95L0.25 -17L0.2 -16.95M3.05,-12L-1.8 -16.15L-1.7 -16.2L0.25 -17L0.65 -17.2L0.7 -17.2L0.95 -17.05L2.4 -17.6L2.4 -17.65L6.95 -14.45L3.05 -12M1.7,-11.35L-2.7 -8.8L-7.9 -13.55L-5.15 -14.6L-5.1 -14.6L-4.85 -14.4L-3.2 -15L-3.2 -15.05L1.7 -11.35M2.65,1.2L4.2 1.85L4.45 1.55L2.55 0.8L2.55 0.75L2.5 0.8L-1.5 4.05L2.6 1.15L2.65 1.2M4.7,1.6L-0.15 5.75L-4.1 3.3L0.45 0.1L0.45 0.15L1.95 0.7L2.15 0.55L2.2 0.55L4.7 1.6M-7.65,-13.55L-7.35 -13.25L-5.65 -13.9L-5.6 -13.95L-1.2 -10.6L-5.5 -14.4L-5.55 -14.35L-7.65 -13.55" />
<path style="fill:#563529;fill-opacity:1" d="M0.25,-17L0.3 -16.95L4.25 -13.7L0.15 -16.6L0.1 -16.55L-1.4 -15.9L-1.7 -16.2L0.2 -16.95L0.25 -17M2.6,1.15L-1.5 4.05L2.5 0.8L2.55 0.75L2.55 0.8L4.45 1.55L4.2 1.85L2.65 1.2L2.6 1.15M-5.55,-14.35L-5.5 -14.4L-1.2 -10.6L-5.6 -13.95L-5.65 -13.9L-7.35 -13.25L-7.65 -13.55L-5.55 -14.35" />
<path style="fill:#7B573E;fill-opacity:1" d="M-1.8,-16.15L3.05 -12L6.95 -14.45L7 -14.45L7 -14.5L7.15 -13.75L2.95 -11.05L-1.75 -15.25L-1.8 -16.15M-2.7,-8.8L1.7 -11.35L1.75 -11.35L1.75 -11.4L1.9 -10.6L-2.85 -7.75L-7.85 -12.55L-7.9 -13.55L-2.7 -8.8M-0.15,5.75L4.7 1.6L4.6 2.5L-0.05 6.7L-4.3 4L-4.15 3.25L-4.15 3.3L-4.1 3.3L-0.15 5.75" />
<path style="fill:#498576;fill-opacity:1" d="M8.2,-6.2L8.1 -5.7L10.3 -5.1L12.95 -8.9L13.1 -8.85L13.2 -8.8L13.05 -8.55L13.25 -8.55L13.25 -8.5L13.1 -8.5L14.8 -7.35L15 -6.9L15 -6.7L14.95 -6.6L14.95 -6.45L14.85 -6.1L14.75 -6L14.55 -5.7L13.55 -4.9L12 -4.35L10.15 -4.15L10 -4.15L8.2 -4.35L7.95 -4.45L7.25 -4.65L6.85 -4.85L6.65 -4.9L6.5 -4.95L5.5 -5.75L5.2 -6.15L5.2 -6.25L5.15 -6.35L5.15 -6.45L5.2 -6.75L5.2 -6.9Q5.3 -7.9 6.65 -8.6Q7.45 -9.1 8.4 -9.2L8.7 -9.3L9 -9.35L10.05 -9.4L10.65 -9.4L8.2 -6.2M-15.3,-7.55L-15.25 -7.55L-15.15 -7.6L-12.5 -3.8L-10.3 -4.4L-10.4 -4.9L-12.85 -8.1L-12.25 -8.1L-11.2 -8.05L-10.9 -8L-10.6 -7.9Q-9.65 -7.8 -8.85 -7.3Q-7.5 -6.6 -7.4 -5.6L-7.4 -5.45L-7.4 -5.3L-7.5 -4.9L-7.55 -4.8L-7.8 -4.4L-8.85 -3.6L-10.4 -3.05L-12.2 -2.85L-12.35 -2.85L-14.2 -3.05L-15.75 -3.6L-16.75 -4.4L-16.95 -4.7L-17.05 -4.8L-17.15 -5.15L-17.15 -5.3L-17.2 -5.4L-17.2 -5.6Q-17.15 -6.2 -15.3 -7.2L-15.45 -7.2L-15.4 -7.25L-15.25 -7.25L-15.15 -7.25L-15.3 -7.55M-12.95,7.8L-12.95 7.7L-13 7.6L-13 7.45L-12.7 7L-11.6 6.3L-11.7 6.25L-11.55 6.25L-11.6 6.15L-11.55 6.15L-11.6 6.05L-11.55 6.05L-11.5 6L-9.55 8.8L-7.9 8.35L-8 8L-9.8 5.6L-9.35 5.6L-8.55 5.65L-8.35 5.7L-8.1 5.75L-7.25 6L-6.85 6.2Q-5.85 6.7 -5.75 7.45L-5.75 7.6L-5.75 7.7L-5.85 8L-5.85 8.05L-6.05 8.35L-6.85 8.95L-8 9.35L-9.3 9.5L-9.4 9.5L-10.8 9.35L-11.95 8.95L-12.65 8.35L-12.8 8.15L-12.9 8.05L-12.95 7.8" />
<linearGradient
id="LinearGradID_314" gradientUnits="userSpaceOnUse" gradientTransform="matrix(-0.000106812, -0.0122223, -0.00610352, 4.57764e-005, 9.85, -5)" spreadMethod ="pad" x1="-819.2" y1="0" x2="819.2" y2="0" >
<stop  offset="0" style="stop-color:#3E4F82;stop-opacity:1" />
<stop  offset="1" style="stop-color:#FFFFFF;stop-opacity:1" />
</linearGradient>
<path style="fill:url(#LinearGradID_314) " d="M13.55,-9.65L13.55 -9.7Q15.25 -9.4 16.9 -8.5Q19.7 -7.05 19.8 -5.2L19.8 -4.85L19.65 -4.1L19.5 -3.75L18.95 -2.9L16.9 -1.45L15.4 -0.85L15.3 -0.8L15.15 -0.7L13.65 -0.35L9.9 0L9.6 0L5.85 -0.35L4.2 -0.8L2.7 -1.45L0.6 -2.9L0 -3.75L-0.15 -4.25L-0.25 -4.65L-0.25 -5.2L-0.2 -5.55Q0 -6.6 1.1 -7.45L2.7 -8.5Q4.5 -9.45 6.25 -9.65L9.75 -10.05L10.95 -10L11 -10L11.1 -10L10.65 -9.4L10.05 -9.4L9 -9.35L8.7 -9.3L8.4 -9.2Q7.45 -9.1 6.65 -8.6Q5.3 -7.9 5.2 -6.9L5.2 -6.75L5.15 -6.45L5.15 -6.35L5.15 -6.1L5.25 -5.75L5.2 -5.7L5.5 -5.1L5.55 -5.05L6.55 -4.2L6.6 -4.15L7.2 -3.8L7.35 -3.75L8.15 -3.5L9.95 -3.25L10.1 -3.25L11.95 -3.5L12.75 -3.75L13.5 -4.15L14.5 -5.05L14.8 -5.55L14.85 -5.75L14.9 -6.1L14.95 -6.25L14.95 -6.45L14.95 -6.6L15 -6.7L15 -6.9L14.8 -7.35L13.1 -8.5L13.25 -8.5L13.25 -8.55L13.05 -8.55L13.2 -8.8L13.55 -9.65" />
<path style="fill:#1B302B;fill-opacity:1" d="M5.15,-6.35L5.2 -6.25L5.2 -6.15L5.5 -5.75L6.5 -4.95L6.65 -4.9L6.85 -4.85L7.25 -4.65L7.95 -4.45L8.2 -4.35L10 -4.15L10.15 -4.15L12 -4.35L13.55 -4.9L14.55 -5.7L14.75 -6L14.75 -5.8L14.65 -5.6L14.4 -5.1L13.4 -4.2L12.65 -3.8L11.8 -3.55L10 -3.3L9.85 -3.3L8 -3.55L7.35 -3.75L7.2 -3.8L6.6 -4.15L6.55 -4.2L5.55 -5.05L5.5 -5.1L5.2 -5.7L5.25 -5.75L5.15 -6.1L5.15 -6.35M-7.45,-4.35L-7.75 -3.75L-8.75 -2.9L-8.8 -2.85L-9.55 -2.45Q-9.95 -2.25 -10.35 -2.2L-12.15 -1.95L-12.3 -1.95L-14.15 -2.2L-14.95 -2.45L-15.7 -2.85L-16.7 -3.75L-17 -4.25L-17.05 -4.45L-17.1 -4.8L-17.15 -4.95L-17.15 -5.15L-17.05 -4.8L-16.95 -4.7L-16.75 -4.4L-15.75 -3.6L-14.2 -3.05L-12.35 -2.85L-12.2 -2.85L-10.4 -3.05L-8.85 -3.6L-7.8 -4.4L-7.55 -4.8L-7.5 -4.9L-7.4 -5.3L-7.4 -5.45L-7.35 -5.15L-7.35 -4.8L-7.45 -4.45L-7.45 -4.35M-12.9,8.05L-12.8 8.15L-12.65 8.35L-11.95 8.95L-10.8 9.35L-9.4 9.5L-9.3 9.5L-8 9.35L-6.85 8.95L-6.05 8.35L-5.85 8.05L-5.85 8L-5.75 7.7L-5.75 7.6L-5.7 7.8L-5.7 8.05L-5.8 8.3L-5.75 8.35L-6 8.8L-6 8.85L-6.75 9.45L-6.8 9.5L-7.35 9.8L-7.95 10L-9.25 10.15L-9.4 10.15L-10.75 10L-11.1 9.9L-11.25 9.85L-11.9 9.5L-12.65 8.85L-12.85 8.45L-12.95 7.95L-12.95 7.8L-12.9 8.05" />
<path style="fill:#26386F;fill-opacity:1" d="M-0.3,-4.55L-0.15 -4.25L0 -3.75L0.6 -2.9L2.7 -1.45L4.2 -0.8L5.8 -0.3L9.65 0.15L9.85 0.15L13.7 -0.3L15.15 -0.7L15.3 -0.8L15.4 -0.85L16.9 -1.45L18.95 -2.9L19.5 -3.75L19.65 -4.1L19.8 -4.35L20 -5.2L20 -5.15L20.1 -5.55L20.1 -5.35Q20.1 -2.4 17.1 -0.3Q15.6 0.75 13.75 1.3L9.8 1.8L9.7 1.8L5.85 1.3Q3.95 0.75 2.45 -0.3Q-0.55 -2.4 -0.55 -5.3L-0.4 -4.7L-0.45 -5.3L-0.3 -4.55M14.6,-11.9L10.15 -5.6L10.1 -5.8L8.2 -6.2L10.65 -9.4L11.1 -10L11 -10L12.4 -11.8L12.65 -12.2L12.6 -12.2L12.65 -12.35L12.7 -12.4L14.55 -12.1L14.55 -12.05L14.6 -12.05L14.7 -12.05L14.6 -11.95L14.6 -11.9M-6.4,0.5L-4.9 -0.15L-2.8 -1.6L-2.2 -2.45L-2.05 -2.95L-1.9 -3.25L-1.75 -4Q-1.75 -1.1 -4.75 1Q-7.75 3.1 -12 3.1Q-16.3 3.1 -19.3 1Q-22.3 -1.1 -22.3 -4.05L-22.3 -4.25L-22.1 -3.45L-22 -3.05L-21.85 -2.8L-21.7 -2.45L-21.15 -1.6L-19.1 -0.15L-18.3 0.15L-17.7 0.45L-16 1L-12.15 1.45L-11.85 1.45L-8 1L-6.4 0.5M-10.4,-4.9L-12.3 -4.5L-12.35 -4.3L-16.8 -10.65L-16.9 -10.75L-16.8 -10.75L-15.05 -11.05L-15 -11L-14.65 -10.45L-13.3 -8.7L-12.85 -8.1L-10.4 -4.9M-12.8,3.65L-12.7 3.65L-11.4 3.45L-11.4 3.5L-11.3 3.45L-11.25 3.5L-11.2 3.55L-11.25 3.55L-11.1 3.85L-10.05 5.2L-10.1 5.2L-9.8 5.6L-8 8L-9.4 8.3L-9.4 8.35L-9.4 8.45L-12.7 3.75L-12.8 3.65M-8.4,14L-9.05 14Q-12.3 14 -14.5 12.45Q-15.8 11.55 -16.35 10.45Q-16.8 9.6 -16.8 8.6L-16.8 8.45L-16.75 8.65L-16.75 8.6L-16.55 9.35L-16.45 9.55L-16.35 9.8L-15.95 10.45L-14.4 11.5L-13.8 11.7L-13.4 11.95L-12.1 12.35L-9.25 12.7L-9.05 12.7L-6.2 12.35L-5 12L-3.9 11.5L-2.35 10.45L-1.9 9.8L-1.8 9.45L-1.7 9.2L-1.6 8.65L-1.7 9.55L-1.65 9.45L-1.55 9.3L-1.45 8.75Q-1.45 9.75 -1.85 10.55L-8.4 14" />
<path style="fill:#6B85CD;fill-opacity:1" d="M-0.45,-5.3L-0.4 -4.7L-0.55 -5.45L-0.55 -6.1L-0.35 -7.05L-0.45 -6.1L-0.45 -5.45L-0.3 -4.55L-0.45 -5.3M8,-3.55L9.85 -3.3L10 -3.3L11.8 -3.55L12.65 -3.8L13.4 -4.2L14.4 -5.1L14.65 -5.6L14.75 -5.8L14.75 -6L14.85 -6.1L14.95 -6.45L14.95 -6.25L14.9 -6.1L14.85 -5.75L14.8 -5.55L14.5 -5.05L13.5 -4.15L12.75 -3.75L11.95 -3.5L10.1 -3.25L9.95 -3.25L8.15 -3.5L7.35 -3.75L8 -3.55M14.55,-11.1L13.55 -9.7L13.55 -9.65L13.2 -8.8L13.1 -8.85L12.95 -8.9L14.55 -11.1M13.7,-0.3L9.85 0.15L9.65 0.15L5.8 -0.3L4.2 -0.8L5.85 -0.35L9.6 0L9.9 0L13.65 -0.35L15.15 -0.7L13.7 -0.3M-1.7,9.2L-1.6 8.55L-1.6 8.05Q-1.6 7.55 -1.75 7.1L-1.45 8.15L-1.45 8.65L-1.55 9.3L-1.65 9.45L-1.7 9.55L-1.6 8.65L-1.7 9.2M-12.3,4.9L-11.9 5.45L-11.5 6L-11.55 6.05L-11.6 6.05L-11.55 6.15L-11.6 6.15L-11.95 5.45L-11.95 5.4L-12.3 4.9M-13.8,11.7L-13.25 12L-12 12.3L-9.25 12.55L-9 12.55L-6.25 12.3L-5 12L-6.2 12.35L-9.05 12.7L-9.25 12.7L-12.1 12.35L-13.4 11.95L-13.8 11.7" />
<path style="fill:#D0D8EE;fill-opacity:1" d="M14.55,-11.1L12.95 -8.9L10.3 -5.1L8.1 -5.7L8.2 -6.2L10.1 -5.8L10.15 -5.6L14.6 -11.9L14.6 -11.95L14.7 -11.9L14.9 -11.75L14.95 -11.7L14.85 -11.6L14.85 -11.55L14.55 -11.1M-15.15,-7.6L-17.05 -10.3L-17.15 -10.4L-17.1 -10.45L-16.9 -10.6L-16.8 -10.65L-12.35 -4.3L-12.3 -4.5L-10.4 -4.9L-10.3 -4.4L-12.5 -3.8L-15.15 -7.6M-11.9,5.45L-12.85 4.05L-12.9 4L-12.95 3.9L-12.8 3.75L-12.7 3.75L-9.4 8.45L-9.4 8.35L-9.4 8.3L-8 8L-7.9 8.35L-9.55 8.8L-11.5 6L-11.9 5.45" />
<linearGradient
id="LinearGradID_315" gradientUnits="userSpaceOnUse" gradientTransform="matrix(0.0039978, 0, 0, 0.00457764, 16.8, -7.85)" spreadMethod ="pad" x1="-819.2" y1="0" x2="819.2" y2="0" >
<stop  offset="0" style="stop-color:#93A2CC;stop-opacity:1" />
<stop  offset="1" style="stop-color:#FFFFFF;stop-opacity:1" />
</linearGradient>
<path style="fill:url(#LinearGradID_315) " d="M19.8,-4.35L19.65 -4.1L19.8 -4.85L19.8 -5.2Q19.7 -7.05 16.9 -8.5Q15.25 -9.4 13.55 -9.7L14.55 -11.1L14.85 -11.55L14.9 -11.55L14.9 -11.6L17.1 -10.55Q20.1 -8.75 20.1 -6.1L20.1 -5.7L20 -5.2L19.8 -4.35" />
<linearGradient
id="LinearGradID_316" gradientUnits="userSpaceOnUse" gradientTransform="matrix(0.000946045, 0.00387573, -0.00444031, 0.00108337, -19.05, -6.55)" spreadMethod ="pad" x1="-819.2" y1="0" x2="819.2" y2="0" >
<stop  offset="0" style="stop-color:#93A2CC;stop-opacity:1" />
<stop  offset="1" style="stop-color:#FFFFFF;stop-opacity:1" />
</linearGradient>
<path style="fill:url(#LinearGradID_316) " d="M-22,-3.05L-22.1 -3.45L-22.3 -4.4L-22.3 -4.8Q-22.3 -7.45 -19.3 -9.25L-17.1 -10.3L-15.75 -8.4Q-17.45 -8.1 -19.1 -7.2Q-21.9 -5.75 -22 -3.9L-22 -3.55L-21.85 -2.8L-22 -3.05" />
<linearGradient
id="LinearGradID_317" gradientUnits="userSpaceOnUse" gradientTransform="matrix(0.000106812, -0.0122223, 0.00610352, 4.57764e-005, -12.05, -3.7)" spreadMethod ="pad" x1="-819.2" y1="0" x2="819.2" y2="0" >
<stop  offset="0" style="stop-color:#3E4F82;stop-opacity:1" />
<stop  offset="1" style="stop-color:#FFFFFF;stop-opacity:1" />
</linearGradient>
<path style="fill:url(#LinearGradID_317) " d="M-15.75,-8.35L-15.25 -7.25L-15.4 -7.25L-15.45 -7.2L-15.3 -7.2Q-17.15 -6.2 -17.2 -5.6L-17.2 -5.4L-17.15 -5.3L-17.15 -5.15L-17.15 -4.95L-17.1 -4.8L-17.05 -4.45L-17 -4.25L-16.7 -3.75L-15.7 -2.85L-14.95 -2.45L-14.15 -2.2L-12.3 -1.95L-12.15 -1.95L-10.35 -2.2Q-9.95 -2.25 -9.55 -2.45L-8.8 -2.85L-8.75 -2.9L-7.75 -3.75L-7.7 -3.8L-7.4 -4.4L-7.45 -4.45L-7.35 -4.8L-7.35 -5.15L-7.4 -5.45L-7.4 -5.6Q-7.5 -6.6 -8.85 -7.3Q-9.65 -7.8 -10.6 -7.9L-10.9 -8L-11.2 -8.05L-12.25 -8.1L-12.85 -8.1L-13.3 -8.7L-13.2 -8.7L-11.95 -8.75L-8.45 -8.35Q-6.7 -8.15 -4.9 -7.2L-3.3 -6.15Q-2.2 -5.3 -2 -4.25L-1.95 -3.9L-1.95 -3.35L-2.05 -2.95L-2.2 -2.45L-2.8 -1.6L-4.9 -0.15L-6.4 0.5L-8.05 0.95L-11.8 1.3L-12.1 1.3L-15.85 0.95L-17.5 0.5L-18.3 0.15L-19.1 -0.15L-21.15 -1.6L-21.7 -2.45L-21.85 -2.8L-22 -3.55L-22 -3.9Q-21.9 -5.75 -19.1 -7.2Q-17.45 -8.1 -15.75 -8.4L-15.75 -8.35" />
<linearGradient
id="LinearGradID_318" gradientUnits="userSpaceOnUse" gradientTransform="matrix(0.00799561, 0, 0, 0.00500488, -8.3, -7.05)" spreadMethod ="pad" x1="-819.2" y1="0" x2="819.2" y2="0" >
<stop  offset="0" style="stop-color:#93A2CC;stop-opacity:1" />
<stop  offset="1" style="stop-color:#FFFFFF;stop-opacity:1" />
</linearGradient>
<path style="fill:url(#LinearGradID_318) " d="M-2.05,-2.95L-1.95 -3.35L-1.95 -3.9L-2 -4.25Q-2.2 -5.3 -3.3 -6.15L-4.9 -7.2Q-6.7 -8.15 -8.45 -8.35L-11.95 -8.75L-13.2 -8.7L-14.6 -10.5L-14.85 -10.9L-12 -11.15L-8.4 -10.75Q-6.4 -10.3 -4.75 -9.25Q-1.75 -7.45 -1.75 -4.8L-1.75 -4.15L-1.9 -3.25L-2.05 -2.95" />
<path style="fill:#C8D1EC;fill-opacity:1" d="M-8,1L-11.85 1.45L-12.15 1.45L-16 1L-17.7 0.45L-18.3 0.15L-17.5 0.5L-15.85 0.95L-12.1 1.3L-11.8 1.3L-8.05 0.95L-6.4 0.5L-8 1M-15.15,-7.25L-15.25 -7.25L-15.75 -8.35L-15.2 -7.6L-15.3 -7.55L-15.15 -7.25" />
<linearGradient
id="LinearGradID_319" gradientUnits="userSpaceOnUse" gradientTransform="matrix(0.00598145, 0, 0, 0.00372314, -6.35, 6.4)" spreadMethod ="pad" x1="-819.2" y1="0" x2="819.2" y2="0" >
<stop  offset="0" style="stop-color:#93A2CC;stop-opacity:1" />
<stop  offset="1" style="stop-color:#FFFFFF;stop-opacity:1" />
</linearGradient>
<path style="fill:url(#LinearGradID_319) " d="M-1.75,7.1Q-1.6 7.55 -1.6 8.05L-1.6 8.55L-1.7 9.2L-1.8 9.45L-1.75 9.15L-1.75 8.45Q-1.9 7.7 -2.7 7.05L-3.9 6.3Q-5.25 5.55 -6.55 5.45L-9.1 5.15L-10.05 5.2L-11.1 3.85L-11.25 3.55L-11.2 3.55L-9.15 3.35L-6.5 3.65Q-5.35 3.9 -4.35 4.45L-3.8 4.75L-3.65 4.85Q-1.45 6.15 -1.45 8.15L-1.75 7.1" />
<linearGradient
id="LinearGradID_320" gradientUnits="userSpaceOnUse" gradientTransform="matrix(7.62939e-005, -0.0090332, 0.0045166, 3.05176e-005, -9.2, 8.85)" spreadMethod ="pad" x1="-819.2" y1="0" x2="819.2" y2="0" >
<stop  offset="0" style="stop-color:#3E4F82;stop-opacity:1" />
<stop  offset="1" style="stop-color:#FFFFFF;stop-opacity:1" />
</linearGradient>
<path style="fill:url(#LinearGradID_320) " d="M-10.1,5.2L-10.05 5.2L-9.1 5.15L-6.55 5.45Q-5.25 5.55 -3.9 6.3L-2.7 7.05Q-1.9 7.7 -1.75 8.45L-1.75 9.15L-1.8 9.45L-1.9 9.8L-2.35 10.45L-3.9 11.5L-5 12L-6.25 12.3L-9 12.55L-9.25 12.55L-12 12.3L-13.25 12L-13.8 11.7L-14.4 11.5L-15.95 10.45L-16.35 9.8L-16.45 9.55L-16.55 9L-16.55 8.75Q-16.5 7.35 -14.4 6.3Q-13.2 5.6 -11.95 5.4L-11.95 5.45L-11.6 6.15L-11.55 6.25L-11.7 6.25L-11.6 6.3L-12.7 7L-13 7.45L-13 7.6L-12.95 7.7L-12.95 7.8L-12.95 7.95L-12.85 8.45L-12.65 8.85L-11.9 9.5L-11.25 9.85L-11.1 9.9L-10.75 10L-9.4 10.15L-9.25 10.15L-7.95 10L-7.35 9.8L-6.8 9.5L-6.75 9.45L-6 8.85L-6 8.8L-5.75 8.35L-5.8 8.3L-5.7 8.05L-5.7 7.8L-5.75 7.6L-5.75 7.45Q-5.85 6.7 -6.85 6.2L-7.25 6L-8.1 5.75L-8.35 5.7L-8.55 5.65L-9.35 5.6L-9.8 5.6L-10.1 5.2" />
<linearGradient
id="LinearGradID_321" gradientUnits="userSpaceOnUse" gradientTransform="matrix(0.000579834, 0.00289917, -0.00332642, 0.000656128, -14.35, 6.75)" spreadMethod ="pad" x1="-819.2" y1="0" x2="819.2" y2="0" >
<stop  offset="0" style="stop-color:#93A2CC;stop-opacity:1" />
<stop  offset="1" style="stop-color:#FFFFFF;stop-opacity:1" />
</linearGradient>
<path style="fill:url(#LinearGradID_321) " d="M-12.55,4.55L-11.95 5.4Q-13.2 5.6 -14.4 6.3Q-16.5 7.35 -16.55 8.75L-16.55 9L-16.45 9.55L-16.55 9.35L-16.75 8.6L-16.75 8.55L-16.8 8.35L-16.8 8.05Q-16.8 6.1 -14.55 4.75Q-13.85 4.25 -12.95 4L-12.9 4.05L-12.85 4.05L-12.55 4.55" />
<path style="fill:#977859;fill-opacity:1" d="M-12.55,4.55L-12.85 4.05L-11.9 5.45L-12.3 4.9L-12.55 4.55" />
<path style="fill:#EFE3DE;fill-opacity:1" d="M-12.35,20.25L-13.7 21L-12.35 20.25" />
</g>
</svg>
