<?xml version="1.0" encoding="utf-8"?>
<svg version="1.1" id="Layer_1"
xmlns="http://www.w3.org/2000/svg"
xmlns:xlink="http://www.w3.org/1999/xlink"
xmlns:author="http://www.sothink.com"
width="58px" height="31px"
xml:space="preserve">
<g id="207" transform="matrix(1, 0, 0, 1, 28.8, 15.5)">
<linearGradient
id="LinearGradID_695" gradientUnits="userSpaceOnUse" gradientTransform="matrix(0.0307007, 0, 0, 0.0144958, -0.1, -0.35)" spreadMethod ="pad" x1="-819.2" y1="0" x2="819.2" y2="0" >
<stop  offset="0" style="stop-color:#D5DAF1;stop-opacity:0.6" />
<stop  offset="1" style="stop-color:#8E9DCA;stop-opacity:0.6" />
</linearGradient>
<path style="fill:url(#LinearGradID_695) " d="M8.55,7.7L8.6 7.7L8.6 8.15L8.55 8.15L8.55 8.2L-8.55 8.2L-8.55 8.15L0 8.15L4.3 8.15L8.55 8.15L8.55 7.7M-8.55,-8.95L-8.55 -9L-8.05 -9L-8.05 -8.95L-8.55 -8.95" />
<path style="fill:#374777;fill-opacity:1" d="M28.1,-15L28.3 -15L28.3 15L28.1 15L28.1 -15" />
<linearGradient
id="LinearGradID_696" gradientUnits="userSpaceOnUse" gradientTransform="matrix(0.0307007, 0, 0, 0.0144958, -0.1, -0.35)" spreadMethod ="pad" x1="-819.2" y1="0" x2="819.2" y2="0" >
<stop  offset="0" style="stop-color:#D5DAF1;stop-opacity:1" />
<stop  offset="1" style="stop-color:#8E9DCA;stop-opacity:1" />
</linearGradient>
<path style="fill:url(#LinearGradID_696) " d="M8.55,7.65L8.6 7.65L8.85 7.65L8.85 7.7L8.6 7.7L8.55 7.7L8.55 7.65" />
<path style="fill:#D3ECEF;fill-opacity:0.6" d="M25.05,-12.2L-25.25 -12.2L-25.25 11.5L-28.2 11.5L-28.2 -14.95L25.1 -14.95L25.1 11.5L25.05 11.5L25.05 -12.2" />
<path style="fill:#9DD6DD;fill-opacity:1" d="M-4.25,-8.95L0 -8.95L4.3 -8.95L8.55 -8.95L8.55 -4.7L8.55 -0.4L8.55 3.85L8.55 7.65L8.55 7.7L8.55 8.15L4.3 8.15L0 8.15L-8.55 8.15L-8.55 8.2L8.55 8.2L8.55 8.15L8.6 8.15L8.6 7.7L8.85 7.7L8.85 7.65L8.6 7.65L8.6 3.85L8.6 -0.4L8.6 -4.7L8.6 -9L4.3 -9L0 -9L-4.25 -9L-8.05 -9L-8.55 -9L-8.55 -8.95L-8.05 -8.95L-4.25 -8.95M-25.25,11.5L-25.25 -12.2L25.05 -12.2L25.05 11.5L25.05 11.55L-25.25 11.55L-25.25 11.5M-3.05,1.6Q-3.45 1.1 -4.3 1.1Q-5 1.1 -5.4 1.45Q-5.8 1.8 -5.8 2.3L-5.65 2.8L-5.35 2.95L-5.1 2.85L-5 2.6L-5.15 2.25L-5.25 1.9L-5.05 1.5L-4.5 1.35Q-4.1 1.35 -3.8 1.65Q-3.5 1.95 -3.5 2.5L-3.6 3L-3.9 3.75L-4.35 4.7L-4.45 5.55L-4.3 5.55L-4.15 4.75L-3.4 3.8L-2.85 3.05L-2.75 2.4Q-2.75 1.95 -3.05 1.6M-4.8,6.55L-4.7 6.9L-4.35 7L-4.05 6.9L-3.9 6.55L-4 6.2L-4.35 6.1L-4.7 6.2L-4.8 6.55" />
<path style="fill:#046B81;fill-opacity:1" d="M-2.75,2.4L-2.85 3.05L-3.4 3.8L-4.15 4.75L-4.3 5.55L-4.45 5.55L-4.35 4.7L-3.9 3.75L-3.6 3L-3.5 2.5Q-3.5 1.95 -3.8 1.65Q-4.1 1.35 -4.5 1.35L-5.05 1.5L-5.25 1.9L-5.15 2.25L-5 2.6L-5.1 2.85L-5.35 2.95L-5.65 2.8L-5.8 2.3Q-5.8 1.8 -5.4 1.45Q-5 1.1 -4.3 1.1Q-3.45 1.1 -3.05 1.6Q-2.75 1.95 -2.75 2.4M-4.7,6.2L-4.35 6.1L-4 6.2L-3.9 6.55L-4.05 6.9L-4.35 7L-4.7 6.9L-4.8 6.55L-4.7 6.2" />
<path style="fill:#42AEBD;fill-opacity:1" d="M28.1,15L-28.3 15L-28.3 -15L28.1 -15L28.1 15M-25.25,11.55L25.05 11.55L25.05 11.5L25.1 11.5L25.1 -14.95L-28.2 -14.95L-28.2 11.5L-25.25 11.5L-25.25 11.55" />
<path style="fill:none;stroke-width:0.5;stroke-linecap:round;stroke-linejoin:round;stroke-miterlimit:3;stroke:#374777;stroke-opacity:1" d="M4.3,-8.95L4.3 -9L0 -9L0 -8.95M8.55,-4.7L8.6 -4.7L8.6 -9L4.3 -9M8.55,-0.4L8.6 -0.4L8.6 -4.7M8.6,-0.4L8.6 3.85L8.6 7.65M8.6,7.7L8.6 8.15L8.55 8.15L8.55 8.2L-8.55 8.2L-8.55 8.15M-8.55,-8.95L-8.55 -9L-8.05 -9L-4.25 -9L0 -9M8.55,3.85L8.6 3.85M8.6,7.7L8.6 7.65M-4.25,-9L-4.25 -8.95" />
<path style="fill:none;stroke-width:1;stroke-linecap:round;stroke-linejoin:round;stroke-miterlimit:3;stroke:#FFFFFF;stroke-opacity:1" d="M28.1,15L-28.3 15L-28.3 -15L28.1 -15L28.1 15z" />
<path style="fill:none;stroke-width:0.5;stroke-linecap:round;stroke-linejoin:round;stroke-miterlimit:3;stroke:#046B81;stroke-opacity:1" d="M-4.25,-4.7L-4.25 -8.95L0 -8.95L4.3 -8.95L8.55 -8.95L8.55 -4.7L4.3 -4.7L4.3 -8.95M-8.55,-0.4L-4.25 -0.4L0 -0.4L4.3 -0.4L4.3 -4.7L0 -4.7L0 -0.4L0 3.85L4.3 3.85L4.3 -0.4L8.55 -0.4L8.55 -4.7M8.55,3.85L8.55 7.65L8.55 7.7L8.55 8.15L4.3 8.15L0 8.15L-8.55 8.15L-8.55 -0.4L-8.55 -4.7L-8.55 -8.95M0,-8.95L0 -4.7L-4.25 -4.7L-4.25 -0.4M4.3,3.85L8.55 3.85L8.55 -0.4M0,8.15L0 3.85M4.3,3.85L4.3 8.15M-4.25,-8.95L-8.05 -8.95L-8.55 -8.95M-4.25,-4.7L-8.55 -4.7" />
</g>
</svg>
