<?xml version="1.0" encoding="utf-8"?>
<svg version="1.1" id="Layer_1"
xmlns="http://www.w3.org/2000/svg"
xmlns:xlink="http://www.w3.org/1999/xlink"
xmlns:author="http://www.sothink.com"
width="35px" height="10px"
xml:space="preserve">
<g id="84" transform="matrix(1, 0, 0, 1, 20.45, 7.6)">
<path style="fill:none;stroke-width:0.25;stroke-linecap:round;stroke-linejoin:round;stroke-miterlimit:3;stroke:#FFFFFF;stroke-opacity:1" d="M-14.1,-6.45L-13.5 -6.45Q-10.7 -6.45 -8.65 -5.25Q-6.65 -4.1 -6.65 -2.4Q-6.65 -0.75 -8.65 0.45Q-10.7 1.65 -13.5 1.65Q-16.35 1.65 -18.35 0.45Q-20.35 -0.75 -20.35 -2.4Q-20.35 -4.1 -18.35 -5.25L-16.65 -6" />
<path style="fill:none;stroke-width:0.25;stroke-linecap:round;stroke-linejoin:round;stroke-miterlimit:3;stroke:#FFFFFF;stroke-opacity:1" d="M11.7,-7L12.6 -6.55Q14.2 -5.6 14.2 -4.25Q14.2 -2.95 12.6 -2Q11 -1.05 8.8 -1.05Q6.55 -1.05 4.95 -2Q3.35 -2.95 3.35 -4.25Q3.35 -5.6 4.95 -6.55Q6.55 -7.5 8.8 -7.5L9.45 -7.45" />
</g>
</svg>
