<?xml version="1.0" encoding="utf-8"?>
<svg version="1.1" id="Layer_1"
xmlns="http://www.w3.org/2000/svg"
xmlns:xlink="http://www.w3.org/1999/xlink"
xmlns:author="http://www.sothink.com"
width="99px" height="8px"
xml:space="preserve">
<g id="133" transform="matrix(1, 0, 0, 1, 63.5, 3.6)">
<path style="fill:#000066;fill-opacity:1" d="M1.15,-3.55L6.25 0.7L6.5 0.9L6.5 0.8L6.5 0.4L6.5 -3.45L6.5 -3.55L6.6 -3.55L8.35 -3.55L8.45 -3.55L8.5 -3.45L8.5 3.9L8.45 4L8.35 4.05L7.05 4.05L7 4L1.75 -0.4L1.7 -0.4L1.65 -0.45L1.65 -0.05L1.65 3.9L1.6 4L1.5 4.05L-0.25 4.05L-0.35 4L-0.35 3.9L-0.35 -3.45L-0.35 -3.55L-0.25 -3.55L1.05 -3.55L1.15 -3.55M12.1,-3.15Q12.55 -3.6 13.7 -3.55L18.6 -3.55Q19.7 -3.6 20.2 -3.15Q20.6 -2.8 20.65 -1.7L20.65 -1.45L20.6 -1.35L20.55 -1.3L18.65 -0.95L18.55 -0.95L18.5 -1L18.5 -1.1L18.5 -1.75L13.9 -1.75L13.9 2.2L18.5 2.2L18.5 1.15L15.9 1.15L15.8 1.1L15.8 1L15.8 -0.5L15.8 -0.6L15.9 -0.6L20.5 -0.6L20.6 -0.6L20.65 -0.5L20.65 2.1Q20.65 3.15 20.2 3.6Q19.75 4.05 18.6 4.05L13.7 4.05Q12.55 4.05 12.1 3.6Q11.65 3.15 11.7 2.1L11.7 -1.65Q11.65 -2.7 12.1 -3.15M35.3,2.15L35.3 3.25L35.15 3.85L34.45 4.05L33.2 4.05Q32.85 4.05 32.75 3.85L32.65 3.25L32.65 2.15L32.75 1.55L33.45 1.4L34.7 1.4Q35.05 1.35 35.15 1.6L35.3 2.15M30.6,2.15L30.6 3.25L30.45 3.85L29.75 4.05L28.5 4.05L28.05 3.85L27.95 3.25L27.95 2.15L28.05 1.55L28.75 1.4L30 1.4Q30.35 1.35 30.45 1.6L30.6 2.15M25.9,2.15L25.9 3.25L25.75 3.85L25.05 4.05L23.8 4.05Q23.45 4.05 23.35 3.85L23.25 3.25L23.25 2.15L23.35 1.55L24.05 1.4L25.3 1.4Q25.65 1.35 25.75 1.6L25.9 2.15M-50.35,-3.55L-48.4 -3.55L-48.3 -3.55L-48.25 -3.45L-48.25 2.2L-43.1 2.2L-43 2.2L-42.95 2.3L-42.95 3.9L-43 4L-43.1 4.05L-50.35 4.05L-50.45 4L-50.45 3.9L-50.45 -3.45L-50.45 -3.55L-50.35 -3.55M-40.6,-3.15Q-40.15 -3.6 -39 -3.55L-33.8 -3.55Q-32.65 -3.6 -32.2 -3.15Q-31.75 -2.7 -31.75 -1.65L-31.75 2.1Q-31.75 3.15 -32.2 3.6Q-32.65 4.05 -33.8 4.05L-39 4.05Q-40.15 4.05 -40.6 3.6Q-41.05 3.15 -41 2.1L-41 -1.65Q-41.05 -2.7 -40.6 -3.15M-38.8,-1.75L-38.8 2.2L-33.9 2.2L-33.9 -1.75L-38.8 -1.75M-25.65,-3.55L-23.9 -3.55L-23.8 -3.55L-23.8 -3.5L-19.7 3.85L-19.65 3.95L-19.7 4L-19.8 4.05L-21.9 4.05L-21.95 4L-22 3.95L-22.8 2.5L-27 2.5L-27.8 3.95L-27.8 4L-27.9 4.05L-29.75 4.05L-29.8 4L-29.85 3.95L-29.85 3.85L-25.75 -3.5L-25.7 -3.55L-25.65 -3.55M-17.55,-3.55L-12.85 -3.55Q-10.8 -3.6 -9.65 -2.6Q-8.55 -1.6 -8.5 0.2Q-8.55 1.25 -9 2.1Q-9.4 2.95 -10.2 3.45L-11.4 3.9L-13.25 4.05L-17.55 4.05L-17.65 4L-17.65 3.9L-17.65 -3.45L-17.65 -3.55L-17.55 -3.55M-12.85,-1.75L-15.45 -1.75L-15.45 2.2L-13.6 2.2Q-12 2.15 -11.35 1.7Q-10.75 1.25 -10.75 0.15Q-10.8 -0.8 -11.3 -1.3L-11.25 -1.3L-12.85 -1.75M-5.75,-3.55L-5.65 -3.55L-3.7 -3.55L-3.6 -3.55L-3.55 -3.45L-3.55 3.9L-3.6 4L-3.7 4.05L-5.65 4.05L-5.75 4L-5.75 3.9L-5.75 -3.45L-5.75 -3.55M-23.65,0.7L-24.85 -1.55L-26.1 0.7L-23.65 0.7" />
<path style="fill:none;stroke-width:0.25;stroke-linecap:round;stroke-linejoin:round;stroke-miterlimit:3;stroke:#FFFFFF;stroke-opacity:1" d="M-56.4,-1.6Q-55.9 -0.8 -55.9 0.25Q-55.9 1.3 -56.4 2.15L-57 2.9Q-58.1 4 -59.65 4Q-61.2 4 -62.3 2.9Q-63.4 1.8 -63.4 0.25Q-63.4 -1.3 -62.3 -2.4Q-61.2 -3.5 -59.65 -3.5Q-58.1 -3.5 -57 -2.4L-56.4 -1.6z" />
</g>
</svg>
