<?xml version="1.0" encoding="utf-8"?>
<svg version="1.1" id="Layer_1"
xmlns="http://www.w3.org/2000/svg"
xmlns:xlink="http://www.w3.org/1999/xlink"
xmlns:author="http://www.sothink.com"
width="36px" height="26px"
xml:space="preserve">
<g id="236" transform="matrix(1, 0, 0, 1, 18, 13)">
<path style="fill:#DBE6BE;fill-opacity:1" d="M-7.8,7.4L-12.6 -0.25L-11.7 -0.8L-11.7 -0.85L-0.2 -4.6L-0.05 -4.4L-0.05 -2.6Q0.25 -2.35 0.5 -2.4L0.75 -2.6L0.75 -3.3L4.5 1.75L4.75 1.65L-7.8 7.4M1.1,-5.35L0.6 -6L-12.2 -1.85L-12.3 -1.9L-12.4 -1.9L-14.55 -0.8L-13.85 -1.2L-15.05 -0.95L-15.05 -0.55L-13.8 1.45L-13.8 1.55L-13.8 2.35L-13.25 2.5L-8.95 9.35L-8.6 9.2L-8.6 10.4L-8.15 10.6L-7.8 10.4L-7.8 8.8L5.15 2.85L5.15 4.1L5.5 4.3L5.65 4.3L5.9 4.1L5.9 2.5L5.9 2.45L6.55 2.2L6.55 2.35L6.9 2.6L7.3 2.4L7.35 1.4Q9.95 0.2 12.6 -0.95L12.5 0Q12.7 0.2 12.85 0.25L13.35 0L13.4 -1.35L14.95 -2.05L15.2 -5.75L15.15 -5.7L9.25 -10.7L1.3 -9.45L0.8 -9.25L1.2 -8.75L1.1 -5.35M6.55,1.75L6.55 1.85L6.55 1.8L6.55 1.75M1.2,-10.05L1.15 -10.1L1.15 -10L1.2 -10.05M0,-4.65L-0.05 -4.65L0 -4.65M17.5,-12.5L17.5 12.5L-17.5 12.5L-17.5 -12.5L17.5 -12.5" />
<path style="fill:#6D4A36;fill-opacity:1" d="M-14.45,-0.7L-13.85 0.1L-11.85 -1.1L-11.65 -1.2L-11.65 -1L-11.65 -0.95L-11.7 -0.9L-11.7 -0.85L-11.7 -0.8L-12.6 -0.25L-13.85 0.45L-14.6 -0.45L-14.55 -0.8L-14.45 -0.7" />
<path style="fill:#BA8D74;fill-opacity:1" d="M-12.4,-1.65L-14.45 -0.7L-14.55 -0.8L-12.4 -1.9L-12.3 -1.9L-12.2 -1.85L-11.65 -1.2L-11.85 -1.1L-12.4 -1.65" />
<path style="fill:#916648;fill-opacity:1" d="M-0.15,-4.8L-0.05 -4.65L0 -4.65L4.75 1.65L4.5 1.75L0.75 -3.3L-0.05 -4.4L-0.2 -4.6L-11.7 -0.85L-11.7 -0.9L-11.65 -0.95L-11.65 -1L-0.15 -4.8M5.15,2.85L-7.8 8.8L-8.6 9.2L-8.95 9.35L-13.25 2.5L-13.8 1.55L-13.8 1.45L-15.05 -0.55L-15.05 -0.95L-8.85 9.1L6.65 1.95L6.65 2.1L6.55 2.2L5.9 2.45L5.9 2.5L5.15 2.85" />
<path style="fill:#D2B8A6;fill-opacity:1" d="M4.75,1.65L0 -4.65L-0.05 -4.65L-0.15 -4.8L-11.65 -1L-11.65 -1.2L-12.2 -1.85L0.6 -6L1.1 -5.35L6.35 1.5L6.55 1.8L6.55 1.85L6.65 1.95L-8.85 9.1L-15.05 -0.95L-13.85 -1.2L-14.55 -0.8L-14.6 -0.45L-13.85 0.45L-12.6 -0.25L-7.8 7.4L4.75 1.65" />
<path style="fill:#E0CDC2;fill-opacity:1" d="M-11.85,-1.1L-13.85 0.1L-14.45 -0.7L-12.4 -1.65L-11.85 -1.1" />
<path style="fill:#DCC5B8;fill-opacity:1" d="M1.15,-10L1.15 -10.1L1.2 -10.05L1.15 -10" />
<path style="fill:#FFFF00;fill-opacity:1" d="M1.85,-6.95L2.6 -6.15L2.35 -4.5L1.7 -5.4L1.85 -6.95M3.05,-3.9L3.2 -5.45L3.9 -4.65L3.75 -3L3.05 -3.9M10.45,-3.6L10.35 -2L9.15 -1.45L9.25 -3.2L10.45 -3.6M7.15,-0.6L7.25 -2.35L8.45 -2.8L8.35 -1.15L7.15 -0.6M11,-2.1L11.15 -3.85L12.35 -4.25L12.25 -2.65L11 -2.1" />
<path style="fill:#B38366;fill-opacity:1" d="M6.35,1.5L1.1 -5.35L1.2 -8.75L6.5 -2.55L6.55 -2.6L6.35 1.5M1.7,-5.4L2.35 -4.5L2.6 -6.15L1.85 -6.95L1.7 -5.4M3.75,-3L3.9 -4.65L3.2 -5.45L3.05 -3.9L3.75 -3M5.55,0.45L5.8 -1.85L4.8 -3L4.6 -0.85L5.55 0.45" />
<path style="fill:#003300;fill-opacity:1" d="M4.6,-0.85L4.8 -3L5.8 -1.85L5.55 0.45L4.6 -0.85" />
<path style="fill:#98CF5F;fill-opacity:1" d="M6.55,-2.6L6.5 -2.55L1.2 -8.75L0.8 -9.25L1.3 -9.45L9.25 -10.7L15.15 -5.7L6.55 -2.6" />
<path style="fill:#805740;fill-opacity:1" d="M6.55,-2.6L15.15 -5.7L15.2 -5.75L14.95 -2.05L13.4 -1.35L12.6 -0.95Q9.95 0.2 7.35 1.4L6.55 1.75L6.55 1.8L6.35 1.5L6.55 -2.6M9.25,-3.2L9.15 -1.45L10.35 -2L10.45 -3.6L9.25 -3.2M8.35,-1.15L8.45 -2.8L7.25 -2.35L7.15 -0.6L8.35 -1.15M12.25,-2.65L12.35 -4.25L11.15 -3.85L11 -2.1L12.25 -2.65" />
<linearGradient
id="LinearGradID_736" gradientUnits="userSpaceOnUse" gradientTransform="matrix(0.000473022, 0, 0, 0.00151062, 0.3, -3.9)" spreadMethod ="pad" x1="-819.2" y1="0" x2="819.2" y2="0" >
<stop  offset="0.243137" style="stop-color:#916648;stop-opacity:1" />
<stop  offset="1" style="stop-color:#DCC7B8;stop-opacity:1" />
</linearGradient>
<path style="fill:url(#LinearGradID_736) " d="M0.75,-2.6L0.5 -2.4Q0.25 -2.35 -0.05 -2.6L-0.05 -4.4L0.75 -3.3L0.75 -2.6" />
<linearGradient
id="LinearGradID_737" gradientUnits="userSpaceOnUse" gradientTransform="matrix(0.000473022, 3.05176e-005, -7.62939e-005, 0.00151062, 13, -1.25)" spreadMethod ="pad" x1="-819.2" y1="0" x2="819.2" y2="0" >
<stop  offset="0.243137" style="stop-color:#916648;stop-opacity:1" />
<stop  offset="1" style="stop-color:#DCC7B8;stop-opacity:1" />
</linearGradient>
<path style="fill:url(#LinearGradID_737) " d="M13.4,-1.35L13.35 0L12.85 0.25Q12.7 0.2 12.5 0L12.6 -0.95L13.4 -1.35" />
<linearGradient
id="LinearGradID_738" gradientUnits="userSpaceOnUse" gradientTransform="matrix(0.000473022, 3.05176e-005, -7.62939e-005, 0.00151062, 6.95, 1.1)" spreadMethod ="pad" x1="-819.2" y1="0" x2="819.2" y2="0" >
<stop  offset="0.243137" style="stop-color:#916648;stop-opacity:1" />
<stop  offset="1" style="stop-color:#DCC7B8;stop-opacity:1" />
</linearGradient>
<path style="fill:url(#LinearGradID_738) " d="M7.35,1.4L7.3 2.4L6.9 2.6L6.55 2.35L6.55 2.2L6.65 2.1L6.65 1.95L6.55 1.85L6.55 1.75L7.35 1.4" />
<linearGradient
id="LinearGradID_739" gradientUnits="userSpaceOnUse" gradientTransform="matrix(0.000473022, 0, 0, 0.00151062, 5.5, 2.85)" spreadMethod ="pad" x1="-819.2" y1="0" x2="819.2" y2="0" >
<stop  offset="0.243137" style="stop-color:#916648;stop-opacity:1" />
<stop  offset="1" style="stop-color:#DCC7B8;stop-opacity:1" />
</linearGradient>
<path style="fill:url(#LinearGradID_739) " d="M5.9,2.5L5.9 4.1L5.65 4.3L5.5 4.3L5.15 4.1L5.15 2.85L5.9 2.5" />
<linearGradient
id="LinearGradID_740" gradientUnits="userSpaceOnUse" gradientTransform="matrix(0.000473022, 0, 0, 0.00151062, -13.45, 1.05)" spreadMethod ="pad" x1="-819.2" y1="0" x2="819.2" y2="0" >
<stop  offset="0.243137" style="stop-color:#916648;stop-opacity:1" />
<stop  offset="1" style="stop-color:#DCC7B8;stop-opacity:1" />
</linearGradient>
<path style="fill:url(#LinearGradID_740) " d="M-13.25,2.5L-13.8 2.35L-13.8 1.55L-13.25 2.5" />
<linearGradient
id="LinearGradID_741" gradientUnits="userSpaceOnUse" gradientTransform="matrix(0.000473022, 0, 0, 0.00151062, -8.25, 9.1)" spreadMethod ="pad" x1="-819.2" y1="0" x2="819.2" y2="0" >
<stop  offset="0.243137" style="stop-color:#916648;stop-opacity:1" />
<stop  offset="1" style="stop-color:#DCC7B8;stop-opacity:1" />
</linearGradient>
<path style="fill:url(#LinearGradID_741) " d="M-7.8,8.8L-7.8 10.4L-8.15 10.6L-8.6 10.4L-8.6 9.2L-7.8 8.8" />
<path style="fill:none;stroke-width:1;stroke-linecap:round;stroke-linejoin:round;stroke-miterlimit:3;stroke:#563529;stroke-opacity:1" d="M17.5,-12.5L17.5 12.5L-17.5 12.5L-17.5 -12.5L17.5 -12.5z" />
</g>
</svg>
