<?xml version="1.0" encoding="utf-8"?>
<svg version="1.1" id="Layer_1"
xmlns="http://www.w3.org/2000/svg"
xmlns:xlink="http://www.w3.org/1999/xlink"
xmlns:author="http://www.sothink.com"
width="96px" height="16px"
xml:space="preserve">
<g id="106" transform="matrix(1, 0, 0, 1, -3.3, -0.35)">
<path style="fill:#D4D0D8;fill-opacity:1" d="M93.75,6.65L93.7 6.8L93.7 6.85L90.7 10.25L90.55 10.3L90.35 10.25L87.4 6.85L87.35 6.65Q87.35 6.4 87.6 6.4L93.5 6.4L93.75 6.65M82.55,0.35L98.55 0.35L98.55 16.35L82.55 16.35L82.55 0.35M97.55,15.35L97.55 1.35L83.55 1.35L83.55 15.35L97.55 15.35M78.75,9.15L73.75 9.15L73.75 9.1L6.25 9.1L6.25 9.15L3.3 9.15L3.3 8.1L78.75 8.1L78.75 9.15" />
</g>
</svg>
