<?xml version="1.0" encoding="utf-8"?>
<svg version="1.1" id="Layer_1"
xmlns="http://www.w3.org/2000/svg"
xmlns:xlink="http://www.w3.org/1999/xlink"
xmlns:author="http://www.sothink.com"
width="61px" height="30px"
xml:space="preserve">
<g id="177" transform="matrix(1, 0, 0, 1, 30, 15)">
<path style="fill:#42AEBD;fill-opacity:1" d="M-27.1,-12.35L-27.1 11.95L-30 11.95L-30 -15L27 -15L27 -12.35L-27.1 -12.35" />
<path style="fill:#D1EAED;fill-opacity:1" d="M30.05,-15L30.05 15L-29.95 15L-29.95 12L27 12L27 -12.35L27 -15L30.05 -15" />
<path style="fill:#9DD6DD;fill-opacity:0.6" d="M-30,11.95L-27.1 11.95L-27.1 -12.35L27 -12.35L27 12L-29.95 12L-30 12L-30 11.95M6.75,5.1L13.2 1.4L6.75 -2.35L6.75 0.25L-4.05 0.25L-4.05 -2.35L-10.5 1.4L-4.05 5.1L-4.05 2.8L6.75 2.8L6.75 5.1" />
<path style="fill:#FF9900;fill-opacity:1" d="M6.75,2.8L-4.05 2.8L-4.05 5.1L-10.5 1.4L-4.05 -2.35L-4.05 0.25L6.75 0.25L6.75 -2.35L13.2 1.4L6.75 5.1L6.75 2.8" />
<path style="fill:none;stroke-width:1;stroke-linecap:round;stroke-linejoin:round;stroke-miterlimit:3;stroke:#FF9900;stroke-opacity:1" d="M16.35,-8.7L16.35 11.3L-13.65 11.3L-13.65 -8.7L16.35 -8.7z" />
</g>
</svg>
