<?xml version="1.0" encoding="utf-8"?>
<svg version="1.1" id="Layer_1"
xmlns="http://www.w3.org/2000/svg"
xmlns:xlink="http://www.w3.org/1999/xlink"
xmlns:author="http://www.sothink.com"
width="23px" height="27px"
xml:space="preserve">
<g id="101" transform="matrix(1, 0, 0, 1, 11.35, 13.45)">
<path style="fill:#E7E7E7;fill-opacity:1" d="M2.25,-5.2L2.25 -4.85L2.3 -0.85L2.15 -0.85L2.1 -4.75L2.1 -5.1L2.05 -11.95L2.05 -12.15L2.05 -12.35L2.1 -12.35L2 -12.45L4.85 -13.4L4.9 -13.45L6.65 -13.2L6.95 -13.2L6.85 -13.1L6.8 -10.75L6.7 -10.75L6.65 -10.7L6.7 -12.75L6.7 -13L6.6 -13L5.2 -13.15L4.8 -13.2L4.75 -13.2L2.2 -12.35L2.2 -12.2L2.2 -11.7L2.25 -5.2M-5.85,4.1L-5.85 -0.1L-5.85 -1.65L-5.85 -1.8L-5.85 -1.85L-5.85 -6.2L-5.7 -6.2L-5.7 -1.95L-5.85 -1.85L-5.7 -1.8L-5.7 -1.75L-5.7 -0.2L-5.7 4.1L-5.85 4.1" />
<linearGradient
id="LinearGradID_343" gradientUnits="userSpaceOnUse" gradientTransform="matrix(0.000366211, 0, 0, 0.00726318, 4.8, -7.3)" spreadMethod ="pad" x1="-819.2" y1="0" x2="819.2" y2="0" >
<stop  offset="0" style="stop-color:#000000;stop-opacity:1" />
<stop  offset="1" style="stop-color:#FFFFFF;stop-opacity:1" />
</linearGradient>
<path style="fill:url(#LinearGradID_343) " d="M5.1,-7.8L5.05 -7.7L5.05 -7.1L5.05 -6.9L5.05 -6.55L5 -2.4L4.6 -2.4L4.65 -6.35L4.65 -6.65L4.65 -7.15L4.7 -7.1L4.7 -7.6L4.7 -7.7L4.65 -7.8L4.75 -13.2L4.8 -13.2L5.2 -13.15L5.1 -7.8" />
<linearGradient
id="LinearGradID_344" gradientUnits="userSpaceOnUse" gradientTransform="matrix(-0.000228882, 7.62939e-005, 0.00175476, 0.00337219, 3.45, -9.35)" spreadMethod ="pad" x1="-819.2" y1="0" x2="819.2" y2="0" >
<stop  offset="0" style="stop-color:#000000;stop-opacity:1" />
<stop  offset="1" style="stop-color:#FFFFFF;stop-opacity:1" />
</linearGradient>
<path style="fill:url(#LinearGradID_344) " d="M2.05,-11.95L1.95 -12.1L2.05 -12.15L2.05 -11.95M4.7,-7.1L2.2 -11.7L2.2 -12.2L2.25 -12.2L4.7 -7.6L4.7 -7.1" />
<linearGradient
id="LinearGradID_345" gradientUnits="userSpaceOnUse" gradientTransform="matrix(0.000137329, 9.15527e-005, -0.00111389, 0.0040741, 5.65, -9.8)" spreadMethod ="pad" x1="-819.2" y1="0" x2="819.2" y2="0" >
<stop  offset="0" style="stop-color:#000000;stop-opacity:1" />
<stop  offset="1" style="stop-color:#FFFFFF;stop-opacity:1" />
</linearGradient>
<path style="fill:url(#LinearGradID_345) " d="M6.6,-13L6.7 -13L6.7 -12.75L5.05 -7.1L5.05 -7.7L5.1 -7.8L6.6 -13" />
<path style="fill:#CCCCCC;fill-opacity:1" d="M6.7,-10.75L6.8 -10.75L7.15 -10.75L7.4 -10.35L7.3 -9.75L6.85 -9.4L6.45 -9.35L6.35 -9.5L6.45 -9.4L6.8 -9.4L7.15 -9.7L7.25 -10.2L7.05 -10.55L6.75 -10.55L6.65 -10.55L6.6 -10.5L6.3 -10.2L6.25 -9.75L6.25 -9.65L6.2 -9.8L6.3 -10.35L6.65 -10.7L6.7 -10.75M10.65,-9L10.6 -9L10.55 -8.95L10.25 -8.95L10 -9L9.95 -9L9.95 -9.05L9.9 -9.1L9.85 -9.2L9.85 -9.25L10 -9.4L10.35 -9.45L10.6 -9.3L10.7 -9.15L10.65 -9.05L10.65 -9M-5.85,-1.8L-5.9 -1.85L-5.85 -1.85L-5.85 -1.8M-5.7,-1.75L-5.7 -1.8L-5.85 -1.85L-5.7 -1.95L-5.65 -2.05L-5.7 -1.75M-5.7,4.1L-5.7 -0.2L-5.6 -0.3L-5.6 0.15L-0.2 2.1L-1.35 3.15L-2.1 3.75L-2.1 3.8L-2 6.35L-9.5 2.6L-5.9 -0.1L-5.9 4.1L-5.85 4.1L-5.7 4.1" />
<path style="fill:#EAEAEA;fill-opacity:1" d="M6.35,-9.5L6.25 -9.65L6.25 -9.75L6.3 -10.2L6.6 -10.5L6.65 -10.55L6.75 -10.55L7.05 -10.55L7.25 -10.2L7.15 -9.7L6.8 -9.4L6.45 -9.4L6.35 -9.5" />
<linearGradient
id="LinearGradID_346" gradientUnits="userSpaceOnUse" gradientTransform="matrix(-0.00050354, -4.57764e-005, 4.57764e-005, -0.000534058, 10.2, -8.5)" spreadMethod ="pad" x1="-819.2" y1="0" x2="819.2" y2="0" >
<stop  offset="0" style="stop-color:#000000;stop-opacity:1" />
<stop  offset="1" style="stop-color:#FFFFFF;stop-opacity:1" />
</linearGradient>
<path style="fill:url(#LinearGradID_346) " d="M10.6,-7.85L10.55 -7.55L9.65 -7.65L9.7 -8L9.7 -8.25L9.8 -9.2L9.9 -9.1L9.95 -9.05L9.95 -9L10 -9L10.25 -8.95L10.55 -8.95L10.6 -9L10.65 -9L10.65 -9.05L10.7 -9.05L10.7 -9L10.6 -8.05L10.6 -7.85" />
<path style="fill:#315951;fill-opacity:1" d="M5.05,-6.9L6.15 -7.45Q8.6 -8.3 9.7 -8.25L9.7 -8Q8.4 -8 6.3 -7.2L5.05 -6.55L5.05 -6.9M10.85,-7.65L10.6 -7.85L10.6 -8.05L10.8 -7.9L11.25 -6.9L10.85 -7.65M-10.3,12.05L-10.95 11.95Q-11.85 10.3 -10.65 6.35L-9.5 4.15L-9.45 5.25L-10.05 6.6Q-11.2 10.35 -10.3 12.05M-2.35,-2.15L2.1 -5.1L2.1 -4.75L-1.85 -2L-2.35 -2.15M4.65,-6.65L4.65 -6.35L2.25 -4.85L2.25 -5.2L4.65 -6.65" />
<path style="fill:#AAB3CD;fill-opacity:1" d="M11.25,-6.9L11.3 -6.75L11.3 -6.15L10.3 -4.35L3.35 4.8L2.05 4.25L2 2.1L2.5 1.5L2.5 0.55L2.45 -0.65L1.95 -0.9L-1.85 -2L2.1 -4.75L2.15 -0.85L2.3 -0.85L2.25 -4.85L4.65 -6.35L4.6 -2.4L5 -2.4L5.05 -6.55L6.3 -7.2Q8.4 -8 9.7 -8L9.65 -7.65L10.55 -7.55L10.6 -7.85L10.85 -7.65L11.25 -6.9" />
<path style="fill:#5E4937;fill-opacity:1" d="M-9.5,2.6L-9.5 0.7L-5.85 -1.65L-5.85 -0.1L-5.9 -0.1L-9.5 2.6M-2,9.35L-2 6.45L2 2.1L2.05 4.25L-2 9.35M0.95,1.1L0.9 0.6L2.45 -0.65L2.45 -0.25L0.95 1.1M-0.2,6.95L-0.2 5.3L-0.8 6.05L-0.8 7.75L-0.2 6.95" />
<path style="fill:#DBE6BE;fill-opacity:1" d="M-1.85,-2L1.95 -0.9L2.45 -0.65L0.9 0.6L0.85 0.6L0.75 0.55L0.7 0.55L0.25 0.4L0.3 0.4L0.15 0.35L0.1 0.35L-5.4 -1.6L-5.4 -1.65L-5.45 -1.55L-5.6 -1.95L-5.65 -2L-5.6 -2L-5.65 -2.05L-5.4 -2.15L-5.4 -2.1L-4.35 -2.7L-2.35 -2.15L-1.85 -2" />
<path style="fill:#999999;fill-opacity:1" d="M-2,9.35L-8.9 5.55L-9.45 5.25L-9.5 4.15L-9.5 2.6L-2 6.35L-2 6.45L-2 9.35M-0.2,2.1L-5.6 0.15L-5.6 -0.3L-5.65 -2L-5.65 -2.05L-5.6 -2L-5.65 -2L-5.6 -1.95L-5.45 -1.55L-5.4 -1.65L-5.4 -1.6L0.1 0.35L0.15 0.35L0.3 0.4L0.25 0.4L0.7 0.55L0.75 0.55L0.85 0.6L0.9 0.6L0.95 1.1L-0.2 2.1M-4.35,6L-5.3 5.55L-5.25 6.55L-4.3 7.05L-4.35 6M-7.25,5.55L-6.3 6.05L-6.35 5L-7.3 4.55L-7.25 5.55" />
<path style="fill:#977859;fill-opacity:1" d="M-2.1,3.8L-1.35 3.15L-0.2 2.1L0.95 1.1L2.45 -0.25L2.5 0.55L2.5 1.5L2 2.1L-2 6.45L-2 6.35L-2.1 3.8" />
<path style="fill:#563529;fill-opacity:1" d="M-10.3,12.05L-6.7 12.4Q-4.35 12.15 -2.2 10.55Q1.05 8.05 3.35 4.8L10.3 -4.35L11.3 -6.15L11.25 -5.45Q10.55 -3.55 8.6 -1.15L5.65 2.8Q2.8 7.05 0.5 9.35Q-4.2 14.15 -9.55 13.3L-10.95 11.95L-10.3 12.05" />
<path style="fill:#C0C8E2;fill-opacity:1" d="M-10.05,6.6L-9.45 5.25L-8.9 5.55L-8.9 5.6L-1.95 9.4L-2 9.35L2.05 4.25L3.35 4.8Q1.05 8.05 -2.2 10.55Q-4.35 12.15 -6.7 12.4L-10.3 12.05Q-11.2 10.35 -10.05 6.6M-4.3,7.05L-5.25 6.55L-5.3 5.55L-4.35 6L-4.3 7.05M-7.3,4.55L-6.35 5L-6.3 6.05L-7.25 5.55L-7.3 4.55M-7.05,9.4L-6.9 9.45L-6.7 9.4L-6.7 9.35L-6.4 9.05L-6.3 8.6Q-6.3 8.35 -6.45 8.3L-6.5 8.25L-6.55 8.25L-6.7 8.25L-6.75 8.25L-6.8 8.3L-6.85 8.25L-6.75 8.2L-6.7 8.2L-6.65 8.15L-8.65 7.25Q-9.45 7.65 -9.15 8.4L-7.2 9.3L-7.2 9.2L-7.05 9.4M-9.65,8.8Q-10.45 9.2 -10.15 9.95L-8.2 10.85L-8.2 10.75L-8 10.95L-7.55 10.9L-7.2 10.6L-7.1 10.05L-7.3 9.75L-7.35 9.7L-7.4 9.7L-7.6 9.7L-7.65 9.7L-9.65 8.8" />
<path style="fill:#666666;fill-opacity:1" d="M-5.7,-0.2L-5.7 -1.75L-5.65 -2.05L-5.65 -2L-5.6 -0.3L-5.7 -0.2" />
<path style="fill:#4F65A6;fill-opacity:1" d="M-0.8,7.75L-0.8 6.05L-0.2 5.3L-0.2 6.95L-0.8 7.75" />
<path style="fill:#B5B5B5;fill-opacity:1" d="M-1.95,9.4L-8.9 5.6L-8.9 5.55L-2 9.35L-1.95 9.4" />
<linearGradient
id="LinearGradID_347" gradientUnits="userSpaceOnUse" gradientTransform="matrix(0.000289917, -0.000640869, 0.000686646, 0.000320435, -7.8, 8.35)" spreadMethod ="pad" x1="-819.2" y1="0" x2="819.2" y2="0" >
<stop  offset="0" style="stop-color:#000000;stop-opacity:1" />
<stop  offset="1" style="stop-color:#FFFFFF;stop-opacity:1" />
</linearGradient>
<path style="fill:url(#LinearGradID_347) " d="M-7.1,8.6L-7.1 8.65L-7.2 9.05L-7.2 9.2L-7.2 9.3L-9.15 8.4Q-9.45 7.65 -8.65 7.25L-6.65 8.15L-6.7 8.2L-6.75 8.2L-6.85 8.25L-7.1 8.6" />
<linearGradient
id="LinearGradID_348" gradientUnits="userSpaceOnUse" gradientTransform="matrix(0.000411987, 0.000244141, -0.000320435, 0.000686646, 346, 260.75)" spreadMethod ="pad" x1="-819.2" y1="0" x2="819.2" y2="0" >
<stop  offset="0" style="stop-color:#000000;stop-opacity:1" />
<stop  offset="1" style="stop-color:#FFFFFF;stop-opacity:1" />
</linearGradient>
<path style="fill:url(#LinearGradID_348) " d="M-6.9,9.45L-7.05 9.4L-7.2 9.2L-7.2 9.05L-7.1 8.65L-7.1 8.6L-6.8 8.3L-6.75 8.25L-6.7 8.25L-6.55 8.25L-6.5 8.25L-6.45 8.3Q-6.3 8.35 -6.3 8.6L-6.4 9.05L-6.7 9.35L-6.9 9.45" />
<linearGradient
id="LinearGradID_349" gradientUnits="userSpaceOnUse" gradientTransform="matrix(0.00050354, 0.000259399, -0.000396729, 0.000747681, 419.35, 283.25)" spreadMethod ="pad" x1="-819.2" y1="0" x2="819.2" y2="0" >
<stop  offset="0" style="stop-color:#000000;stop-opacity:1" />
<stop  offset="1" style="stop-color:#FFFFFF;stop-opacity:1" />
</linearGradient>
<path style="fill:url(#LinearGradID_349) " d="M-8.2,10.7L-8.2 10.6L-8.1 10.15L-7.75 9.75L-7.7 9.75L-7.65 9.7L-7.6 9.7L-7.4 9.7L-7.35 9.7L-7.3 9.75L-7.1 10.05L-7.2 10.6L-7.55 10.9L-8 10.95L-8.2 10.75L-8.2 10.7" />
<linearGradient
id="LinearGradID_350" gradientUnits="userSpaceOnUse" gradientTransform="matrix(0.000289917, -0.000640869, 0.000686646, 0.000320435, -8.8, 9.9)" spreadMethod ="pad" x1="-819.2" y1="0" x2="819.2" y2="0" >
<stop  offset="0" style="stop-color:#000000;stop-opacity:1" />
<stop  offset="1" style="stop-color:#FFFFFF;stop-opacity:1" />
</linearGradient>
<path style="fill:url(#LinearGradID_350) " d="M-8.2,10.75L-8.2 10.85L-10.15 9.95Q-10.45 9.2 -9.65 8.8L-7.65 9.7L-7.7 9.75L-7.75 9.75L-8.1 10.15L-8.2 10.6L-8.2 10.7L-8.2 10.75" />
</g>
</svg>
