<?xml version="1.0" encoding="utf-8"?>
<svg version="1.1" id="Layer_1"
xmlns="http://www.w3.org/2000/svg"
xmlns:xlink="http://www.w3.org/1999/xlink"
xmlns:author="http://www.sothink.com"
width="20px" height="20px"
xml:space="preserve">
<g id="144" transform="matrix(1, 0, 0, 1, 10, 10)">
<path style="fill:#2ED3EB;fill-opacity:1" d="M4.35,-0.95L4.15 -0.65L4.2 -0.6Q4.3 -0.85 4.55 -0.85L4.75 -0.8L4.8 -0.75L4.9 -0.5L4.85 -0.3L4.75 -0.15L4.5 -0.1L4.5 0Q4.75 0.05 4.95 0.25L5.1 0.7L5.05 0.8L5 0.9L4.8 1.05L4.5 0.9L4.3 0.75L4.2 0.7L4.1 0.75L4.05 0.85L4.05 0.9L4.15 1.1L4.55 1.2L4.6 1.2L4.65 1.2L4.75 1.15L5.2 0.9L5.45 0.35L5.45 0.3L5.35 -0.05L5.05 -0.25L5.25 -0.5L5.35 -0.7L5.3 -0.9L5.2 -1.05L4.85 -1.2L4.45 -1.05L4.35 -0.95M4.05,-0.15L0.45 -0.15L0.35 -0.3L0.1 -0.45L0.1 -2.15L-0.2 -2.15L-0.2 -0.45L-0.4 -0.3L-0.55 0L-0.4 0.35L-0.05 0.5L0.35 0.35L0.45 0.15L4.05 0.15L4.05 -0.15M4.25,4.25Q2.5 6 0.05 6Q-2.4 6 -4.15 4.25Q-5.9 2.5 -5.9 0.05Q-5.9 -2.4 -4.15 -4.15Q-2.4 -5.9 0.05 -5.9Q2.5 -5.9 4.25 -4.15Q5.95 -2.4 5.95 0.05Q5.95 2.5 4.25 4.25M-1.45,-4.95L-1.35 -4.9L-1.25 -4.85L-1.25 -4.6L-1.25 -3.45L-1.25 -3.15L-1.35 -3.05L-1.6 -3L-1.65 -3L-1.65 -2.95L-0.35 -2.95L-0.35 -3L-0.4 -3L-0.6 -3.05L-0.7 -3.15L-0.7 -3.45L-0.7 -5.3L-0.75 -5.3L-1.7 -4.95L-1.65 -4.85L-1.45 -4.95M0.15,-4.65Q0.3 -4.9 0.6 -4.9L0.9 -4.8L1 -4.5L0.85 -4L0 -3L0 -2.95L1.5 -2.95L1.65 -3.6L1.55 -3.6L1.45 -3.45L1.35 -3.4L1.15 -3.4L0.6 -3.4L1.4 -4.3L1.5 -4.75L1.45 -5L1.2 -5.25L0.85 -5.3L0.4 -5.15L0.1 -4.65L0.15 -4.65M-4.35,-1.2L-4.7 -1.1L-4.95 -0.8L-5 -0.4L-4.85 0.15L-4.8 0.2L-4.45 0.3L-4.3 0.25L-4.1 0.2L-4.15 0.25L-4.25 0.65L-4.55 0.95L-5 1.15L-5 1.2L-4.95 1.2L-4.25 0.95L-3.75 0.4L-3.6 -0.25L-3.7 -0.75L-3.85 -0.95L-4 -1.1L-4.35 -1.2M-4.25,-1L-4.15 -0.8L-4.05 -0.25L-4.1 0.05L-4.25 0.15L-4.35 0.1L-4.45 0L-4.55 -0.6L-4.55 -0.65L-4.5 -1L-4.4 -1.1L-4.3 -1.1L-4.25 -1.05L-4.25 -1M0.4,3.25L0.7 3.15L0.7 3.1L0.65 3.1L0.15 3.2L0.1 3.25L-0.05 3.3L-0.3 3.55L-0.55 3.85L-0.7 4.55L-0.65 5L-0.6 5.05L-0.6 5.1L-0.35 5.4L-0.1 5.5L0 5.5L0.35 5.4L0.6 5.1L0.65 5L0.7 4.65L0.5 4.15Q0.35 4 0.2 4L0.1 4L0.05 4L-0.1 4.05L-0.2 4.05L-0.2 4.1L-0.2 4.05L-0.05 3.65L0 3.55L0.25 3.35L0.4 3.25M-0.15,4.15L-0.05 4.15L0.1 4.3L0.25 4.7L0.25 4.95L0.2 5.2L0.2 5.3L0.05 5.4L0 5.4L-0.1 5.3L-0.15 5.25L-0.2 5L-0.25 4.8L-0.25 4.55L-0.2 4.2L-0.15 4.15" />
<path style="fill:#563529;fill-opacity:1" d="M4.45,-1.05L4.85 -1.2L5.2 -1.05L5.3 -0.9L5.35 -0.7L5.25 -0.5L5.05 -0.25L5.35 -0.05L5.45 0.3L5.45 0.35L5.2 0.9L4.75 1.15L4.65 1.2L4.6 1.2L4.55 1.2L4.15 1.1L4.05 0.9L4.05 0.85L4.1 0.75L4.2 0.7L4.3 0.75L4.5 0.9L4.8 1.05L5 0.9L5.05 0.8L5.1 0.7L4.95 0.25Q4.75 0.05 4.5 0L4.5 -0.1L4.75 -0.15L4.85 -0.3L4.9 -0.5L4.8 -0.75L4.75 -0.8L4.55 -0.85Q4.3 -0.85 4.2 -0.6L4.15 -0.65L4.35 -0.95L4.45 -1.05M4.05,0.15L0.45 0.15L0.35 0.35L-0.05 0.5L-0.4 0.35L-0.55 0L-0.4 -0.3L-0.2 -0.45L-0.2 -2.15L0.1 -2.15L0.1 -0.45L0.35 -0.3L0.45 -0.15L4.05 -0.15L4.05 0.15M-1.65,-4.85L-1.7 -4.95L-0.75 -5.3L-0.7 -5.3L-0.7 -3.45L-0.7 -3.15L-0.6 -3.05L-0.4 -3L-0.35 -3L-0.35 -2.95L-1.65 -2.95L-1.65 -3L-1.6 -3L-1.35 -3.05L-1.25 -3.15L-1.25 -3.45L-1.25 -4.6L-1.25 -4.85L-1.35 -4.9L-1.45 -4.95L-1.65 -4.85M0.1,-4.65L0.4 -5.15L0.85 -5.3L1.2 -5.25L1.45 -5L1.5 -4.75L1.4 -4.3L0.6 -3.4L1.15 -3.4L1.35 -3.4L1.45 -3.45L1.55 -3.6L1.65 -3.6L1.5 -2.95L0 -2.95L0 -3L0.85 -4L1 -4.5L0.9 -4.8L0.6 -4.9Q0.3 -4.9 0.15 -4.65L0.1 -4.65M-4,-1.1L-3.85 -0.95L-3.7 -0.75L-3.6 -0.25L-3.75 0.4L-4.25 0.95L-4.95 1.2L-5 1.2L-5 1.15L-4.55 0.95L-4.25 0.65L-4.15 0.25L-4.1 0.2L-4.3 0.25L-4.45 0.3L-4.8 0.2L-4.85 0.15L-5 -0.4L-4.95 -0.8L-4.7 -1.1L-4.35 -1.2L-4 -1.1M-4.25,-1.05L-4.3 -1.1L-4.4 -1.1L-4.5 -1L-4.55 -0.65L-4.55 -0.6L-4.45 0L-4.35 0.1L-4.25 0.15L-4.1 0.05L-4.05 -0.25L-4.15 -0.8L-4.25 -1L-4.25 -1.05M0.25,3.35L0 3.55L-0.05 3.65L-0.2 4.05L-0.2 4.1L-0.2 4.05L-0.1 4.05L0.05 4L0.1 4L0.2 4Q0.35 4 0.5 4.15L0.7 4.65L0.65 5L0.6 5.1L0.35 5.4L0 5.5L-0.1 5.5L-0.35 5.4L-0.6 5.1L-0.6 5.05L-0.65 5L-0.7 4.55L-0.55 3.85L-0.3 3.55L-0.05 3.3L0.1 3.25L0.15 3.2L0.65 3.1L0.7 3.1L0.7 3.15L0.4 3.25L0.25 3.35M-0.2,4.2L-0.25 4.55L-0.25 4.8L-0.2 5L-0.15 5.25L-0.1 5.3L0 5.4L0.05 5.4L0.2 5.3L0.2 5.2L0.25 4.95L0.25 4.7L0.1 4.3L-0.05 4.15L-0.15 4.15L-0.2 4.2" />
<linearGradient
id="LinearGradID_472" gradientUnits="userSpaceOnUse" gradientTransform="matrix(0.00811768, 0, 0, 0.00811768, 0, 0)" spreadMethod ="pad" x1="-819.2" y1="0" x2="819.2" y2="0" >
<stop  offset="0.0745098" style="stop-color:#5E9DCC;stop-opacity:1" />
<stop  offset="1" style="stop-color:#98EBF5;stop-opacity:1" />
<stop  offset="1" style="stop-color:#5EB802;stop-opacity:1" />
<stop  offset="1" style="stop-color:#5EB802;stop-opacity:1" />
</linearGradient>
<path style="fill:url(#LinearGradID_472) " d="M5.95,0.05Q5.95 -2.4 4.25 -4.15Q2.5 -5.9 0.05 -5.9Q-2.4 -5.9 -4.15 -4.15Q-5.9 -2.4 -5.9 0.05Q-5.9 2.5 -4.15 4.25Q-2.4 6 0.05 6Q2.5 6 4.25 4.25Q5.95 2.5 5.95 0.05M4.7,4.7Q2.75 6.65 0 6.65Q-2.75 6.65 -4.7 4.7Q-6.65 2.75 -6.65 0Q-6.65 -2.75 -4.7 -4.7Q-2.75 -6.65 0 -6.65Q2.75 -6.65 4.7 -4.7Q6.65 -2.75 6.65 0Q6.65 2.75 4.7 4.7" />
<path style="fill:#DBE6BE;fill-opacity:1" d="M6.65,0Q6.65 -2.75 4.7 -4.7Q2.75 -6.65 0 -6.65Q-2.75 -6.65 -4.7 -4.7Q-6.65 -2.75 -6.65 0Q-6.65 2.75 -4.7 4.7Q-2.75 6.65 0 6.65Q2.75 6.65 4.7 4.7Q6.65 2.75 6.65 0M9.5,-9.5L9.5 9.5L-9.5 9.5L-9.5 -9.5L9.5 -9.5" />
<path style="fill:none;stroke-width:1;stroke-linecap:round;stroke-linejoin:round;stroke-miterlimit:3;stroke:#563529;stroke-opacity:1" d="M9.5,-9.5L9.5 9.5L-9.5 9.5L-9.5 -9.5L9.5 -9.5z" />
</g>
</svg>
