<?xml version="1.0" encoding="utf-8"?>
<svg version="1.1" id="Layer_1"
xmlns="http://www.w3.org/2000/svg"
xmlns:xlink="http://www.w3.org/1999/xlink"
xmlns:author="http://www.sothink.com"
width="58px" height="31px"
xml:space="preserve">
<g id="209" transform="matrix(1, 0, 0, 1, 28.8, 15.5)">
<linearGradient
id="LinearGradID_699" gradientUnits="userSpaceOnUse" gradientTransform="matrix(0.0307007, 0, 0, 0.0144958, -0.1, -0.35)" spreadMethod ="pad" x1="-819.2" y1="0" x2="819.2" y2="0" >
<stop  offset="0" style="stop-color:#D5DAF1;stop-opacity:0.6" />
<stop  offset="1" style="stop-color:#8E9DCA;stop-opacity:0.6" />
</linearGradient>
<path style="fill:url(#LinearGradID_699) " d="M-8.55,-8.95L-8.55 -9L-8.05 -9L-8.05 -8.95L-8.55 -8.95M-8.55,8.2L-8.55 8.15L-7.75 8.15L-7.75 8.2L-8.55 8.2" />
<path style="fill:#374777;fill-opacity:1" d="M28.1,-15L28.3 -15L28.3 15L28.1 15L28.1 -15" />
<path style="fill:#D3ECEF;fill-opacity:0.6" d="M28.1,15L-28.3 15L-28.3 -15L28.1 -15L28.1 15M25.1,11.5L25.1 -14.95L-28.2 -14.95L-28.2 11.5L-25.25 11.5L-25.25 11.55L25.05 11.55L25.05 11.5L25.1 11.5" />
<path style="fill:#9DD6DD;fill-opacity:1" d="M-25.25,-12.2L25.05 -12.2L25.05 11.5L25.05 11.55L-25.25 11.55L-25.25 11.5L-25.25 -12.2M-8.05,-8.95L-8.05 -9L-8.55 -9L-8.55 -8.95L-8.05 -8.95M-3,2.45Q-2.7 2.75 -2.7 3.3L-2.8 3.8L-3.1 4.55L-3.55 5.5L-3.65 6.35L-3.5 6.35L-3.35 5.55L-2.6 4.6L-2.05 3.85L-1.95 3.2Q-1.95 2.75 -2.25 2.4Q-2.65 1.9 -3.5 1.9Q-4.2 1.9 -4.6 2.25Q-5 2.6 -5 3.1L-4.85 3.6L-4.55 3.75L-4.3 3.65L-4.2 3.4L-4.35 3.05L-4.45 2.7L-4.25 2.3Q-4.05 2.15 -3.7 2.15Q-3.3 2.15 -3 2.45M-7.75,8.2L-7.75 8.15L-8.55 8.15L-8.55 8.2L-7.75 8.2M-3.55,6.9L-3.9 7L-4 7.35L-3.9 7.7L-3.55 7.8L-3.25 7.7L-3.1 7.35L-3.2 7L-3.55 6.9" />
<path style="fill:#42AEBD;fill-opacity:1" d="M-25.25,11.5L-28.2 11.5L-28.2 -14.95L25.1 -14.95L25.1 11.5L25.05 11.5L25.05 -12.2L-25.25 -12.2L-25.25 11.5" />
<path style="fill:#FF9900;fill-opacity:1" d="M-3.7,2.15Q-4.05 2.15 -4.25 2.3L-4.45 2.7L-4.35 3.05L-4.2 3.4L-4.3 3.65L-4.55 3.75L-4.85 3.6L-5 3.1Q-5 2.6 -4.6 2.25Q-4.2 1.9 -3.5 1.9Q-2.65 1.9 -2.25 2.4Q-1.95 2.75 -1.95 3.2L-2.05 3.85L-2.6 4.6L-3.35 5.55L-3.5 6.35L-3.65 6.35L-3.55 5.5L-3.1 4.55L-2.8 3.8L-2.7 3.3Q-2.7 2.75 -3 2.45Q-3.3 2.15 -3.7 2.15M-3.2,7L-3.1 7.35L-3.25 7.7L-3.55 7.8L-3.9 7.7L-4 7.35L-3.9 7L-3.55 6.9L-3.2 7" />
<path style="fill:none;stroke-width:1;stroke-linecap:round;stroke-linejoin:round;stroke-miterlimit:3;stroke:#FFFFFF;stroke-opacity:1" d="M28.1,15L-28.3 15L-28.3 -15L28.1 -15L28.1 15z" />
<path style="fill:none;stroke-width:0.5;stroke-linecap:round;stroke-linejoin:round;stroke-miterlimit:3;stroke:#FF9900;stroke-opacity:1" d="M5.1,-3.9L5.1 -8.15L0.8 -8.15L0.8 -3.9L5.1 -3.9L9.35 -3.9L9.35 -8.15L5.1 -8.15M5.1,4.65L5.1 8.95L9.35 8.95L9.35 4.65L5.1 4.65L5.1 0.4L0.8 0.4L0.8 4.65L5.1 4.65M5.1,-3.9L5.1 0.4L9.35 0.4L9.35 -3.9M9.35,0.4L9.35 4.65M-7.75,8.2L-7.75 8.95L0.8 8.95L0.8 4.65M5.1,8.95L0.8 8.95M0.8,-3.9L-3.45 -3.9L-3.45 0.4L0.8 0.4L0.8 -3.9M-7.75,-3.9L-3.45 -3.9L-3.45 -8.15L-7.75 -8.15L-7.75 -3.9L-7.75 0.4L-3.45 0.4M-7.75,8.2L-7.75 8.15L-7.75 0.4M-3.45,-8.15L0.8 -8.15" />
</g>
</svg>
