<?xml version="1.0" encoding="utf-8"?>
<svg version="1.1" id="Layer_1"
xmlns="http://www.w3.org/2000/svg"
xmlns:xlink="http://www.w3.org/1999/xlink"
xmlns:author="http://www.sothink.com"
width="271px" height="46px"
xml:space="preserve">
<g id="125" transform="matrix(1, 0, 0, 1, 135.05, 22.9)">
<radialGradient
id="RadialGradID_379" gradientUnits="userSpaceOnUse" gradientTransform="matrix(0.06073, 0, 0, 0.06073, -120.85, -20.6)" spreadMethod ="pad" cx="0" cy="0" r="819.2" fx="0" fy="0" >
<stop  offset="0.360784"  style="stop-color:#000066;stop-opacity:1" />
<stop  offset="0.411765"  style="stop-color:#046B81;stop-opacity:1" />
<stop  offset="0.52549"  style="stop-color:#FFFFFF;stop-opacity:1" />
<stop  offset="0.639216"  style="stop-color:#046B81;stop-opacity:1" />
<stop  offset="0.694118"  style="stop-color:#FF0000;stop-opacity:1" />
<stop  offset="0.752941"  style="stop-color:#000066;stop-opacity:1" />
</radialGradient>
<path style="fill:url(#RadialGradID_379) " d="M-129.25,-17.3Q-123.5 -22.45 -112.25 -22.4L-106.3 -22.1L-102.05 -21.75L-100.05 -22.05L-97.5 -22.8L-93.9 -5.4L-96.1 -5.05Q-99.35 -11.25 -102.3 -13.8Q-105.3 -16.35 -109.2 -16.3Q-114.5 -16.3 -117.65 -12.4Q-120.9 -8.55 -120.9 -2.15Q-120.9 6 -116.45 11.55Q-112.05 17.05 -105.35 17.05Q-101.05 17 -97.85 14.75Q-94.75 12.4 -92.7 7.85L-91.05 8.3L-95.95 22.45L-97.8 22L-99.6 21.85L-104.25 22.35L-109.85 22.8Q-121.1 22.8 -128 15.95Q-134.95 9 -134.95 -2.05Q-135 -12.15 -129.25 -17.3" />
<radialGradient
id="RadialGradID_380" gradientUnits="userSpaceOnUse" gradientTransform="matrix(0.0456543, 0, 0, 0.0456543, -81.05, -7.8)" spreadMethod ="pad" cx="0" cy="0" r="819.2" fx="0" fy="0" >
<stop  offset="0.360784"  style="stop-color:#000066;stop-opacity:1" />
<stop  offset="0.411765"  style="stop-color:#046B81;stop-opacity:1" />
<stop  offset="0.52549"  style="stop-color:#FFFFFF;stop-opacity:1" />
<stop  offset="0.639216"  style="stop-color:#046B81;stop-opacity:1" />
<stop  offset="0.694118"  style="stop-color:#FF0000;stop-opacity:1" />
<stop  offset="0.752941"  style="stop-color:#000066;stop-opacity:1" />
</radialGradient>
<path style="fill:url(#RadialGradID_380) " d="M-54.85,-6.95Q-49.55 -2.35 -49.55 5.55Q-49.55 13.45 -54.8 18.1Q-60.15 22.7 -69.3 22.7Q-78.45 22.7 -83.7 18.1Q-88.95 13.45 -88.95 5.55Q-88.95 -2.35 -83.7 -6.95Q-78.45 -11.6 -69.3 -11.6Q-60.15 -11.6 -54.85 -6.95M-69.65,-6.6Q-72.45 -6.6 -74.1 -3.85Q-75.8 -1.1 -75.75 3.6Q-75.8 10.45 -73.95 14.1Q-72.2 17.65 -68.75 17.7Q-66.05 17.7 -64.4 14.9Q-62.8 12.1 -62.8 7.3Q-62.8 0.7 -64.6 -2.95Q-66.45 -6.6 -69.65 -6.6" />
<radialGradient
id="RadialGradID_381" gradientUnits="userSpaceOnUse" gradientTransform="matrix(0.0685425, 0, 0, 0.0685425, -34.1, -19.2)" spreadMethod ="pad" cx="0" cy="0" r="819.2" fx="0" fy="0" >
<stop  offset="0.360784"  style="stop-color:#000066;stop-opacity:1" />
<stop  offset="0.411765"  style="stop-color:#046B81;stop-opacity:1" />
<stop  offset="0.52549"  style="stop-color:#FFFFFF;stop-opacity:1" />
<stop  offset="0.639216"  style="stop-color:#046B81;stop-opacity:1" />
<stop  offset="0.694118"  style="stop-color:#FF0000;stop-opacity:1" />
<stop  offset="0.752941"  style="stop-color:#000066;stop-opacity:1" />
</radialGradient>
<path style="fill:url(#RadialGradID_381) " d="M1.8,-18.2Q1.15 -17.1 1.15 -13L1.15 13.3Q1.15 17.35 1.8 18.55Q2.45 19.65 4.25 19.95L4.25 21.8L-16.25 21.8L-16.25 19.95Q-14 19.75 -13.05 18.45Q-12.25 17.1 -12.25 12.45L-12.25 -11.4L-24.45 12.9L-36.45 -11.6L-36.45 12.45Q-36.45 16.95 -35.55 18.4Q-34.7 19.75 -32.35 19.95L-32.35 21.8L-45.05 21.8L-45.05 19.95Q-43.25 19.65 -42.6 18.55Q-42 17.35 -41.95 13.3L-41.95 -13Q-42 -17.1 -42.6 -18.2Q-43.25 -19.4 -45.05 -19.7L-45.05 -21.5L-23.9 -21.5L-23.9 -19.7L-24.9 -19.05L-25.2 -18.05L-25 -17.15L-24.45 -15.75L-20.35 -6.4L-15.5 -15.85Q-14.65 -17.45 -14.65 -18Q-14.65 -18.6 -14.95 -19L-15.95 -19.7L-15.95 -21.5L4.25 -21.5L4.25 -19.7Q2.45 -19.4 1.8 -18.2" />
<radialGradient
id="RadialGradID_382" gradientUnits="userSpaceOnUse" gradientTransform="matrix(0.0559082, 0, 0, 0.0559082, 14.2, -20.7)" spreadMethod ="pad" cx="0" cy="0" r="819.2" fx="0" fy="0" >
<stop  offset="0.360784"  style="stop-color:#000066;stop-opacity:1" />
<stop  offset="0.411765"  style="stop-color:#046B81;stop-opacity:1" />
<stop  offset="0.52549"  style="stop-color:#FFFFFF;stop-opacity:1" />
<stop  offset="0.639216"  style="stop-color:#046B81;stop-opacity:1" />
<stop  offset="0.694118"  style="stop-color:#FF0000;stop-opacity:1" />
<stop  offset="0.752941"  style="stop-color:#000066;stop-opacity:1" />
</radialGradient>
<path style="fill:url(#RadialGradID_382) " d="M10.25,-19.7L10.25 -21.5L37.9 -21.5Q45.2 -21.5 48.15 -19.8Q51.05 -18.15 51.05 -14.25Q51.05 -8.75 44.95 -4.55Q38.85 -0.5 26.7 2.25L26.7 12.45Q26.7 17.45 27.7 18.6Q28.65 19.7 31.3 19.95L31.3 21.8L10.25 21.8L10.25 19.95Q12.05 19.65 12.7 18.55Q13.3 17.35 13.35 13.3L13.35 -13Q13.3 -17.1 12.7 -18.2Q12.05 -19.4 10.25 -19.7M31.2,-17.05Q28.5 -17.05 27.6 -16.3Q26.7 -15.65 26.7 -13.05L26.7 -2.95Q32.5 -5.3 34.85 -7.35Q37.15 -9.5 37.15 -12.35Q37.15 -14.7 35.65 -15.85Q34.2 -17.05 31.2 -17.05" />
<radialGradient
id="RadialGradID_383" gradientUnits="userSpaceOnUse" gradientTransform="matrix(0.060791, 0, 0, 0.060791, 65.9, -18.1)" spreadMethod ="pad" cx="0" cy="0" r="819.2" fx="0" fy="0" >
<stop  offset="0.360784"  style="stop-color:#000066;stop-opacity:1" />
<stop  offset="0.411765"  style="stop-color:#046B81;stop-opacity:1" />
<stop  offset="0.52549"  style="stop-color:#FFFFFF;stop-opacity:1" />
<stop  offset="0.639216"  style="stop-color:#046B81;stop-opacity:1" />
<stop  offset="0.694118"  style="stop-color:#FF0000;stop-opacity:1" />
<stop  offset="0.752941"  style="stop-color:#000066;stop-opacity:1" />
</radialGradient>
<path style="fill:url(#RadialGradID_383) " d="M80.7,-15.65L90.6 13.45Q92 17.55 93.05 18.75Q94.05 19.9 95.7 19.95L95.7 21.8L73.6 21.8L73.6 19.95Q75.3 19.6 76.1 18.8Q76.9 17.95 76.9 16.35Q76.85 12.1 72.65 8.95Q68.35 5.75 61.85 5.35L59.3 12.5L58.6 15.05Q58.3 16.1 58.3 16.9Q58.3 18.4 59.15 19.2Q60 19.95 61.7 19.95L61.7 21.8L47.05 21.8L47.05 19.95Q49.2 19.5 50.6 18.1Q51.95 16.6 53.7 11.85L63.7 -15.65L63.95 -16.65L64.1 -17.55Q64.1 -18.3 63.65 -18.8Q63.25 -19.3 62.35 -19.7L62.35 -21.5L82.1 -21.5L82.1 -19.7Q81.25 -19.4 80.8 -18.85Q80.3 -18.35 80.35 -17.75L80.4 -16.9L80.7 -15.65M68.65,1.65Q70.9 2.45 72.85 3.75L68.1 -11.85L63.6 0.6Q66.35 0.95 68.65 1.65" />
<radialGradient
id="RadialGradID_384" gradientUnits="userSpaceOnUse" gradientTransform="matrix(0.0543823, 0, 0, 0.0543823, 105.9, -19.4)" spreadMethod ="pad" cx="0" cy="0" r="819.2" fx="0" fy="0" >
<stop  offset="0.360784"  style="stop-color:#000066;stop-opacity:1" />
<stop  offset="0.411765"  style="stop-color:#046B81;stop-opacity:1" />
<stop  offset="0.52549"  style="stop-color:#FFFFFF;stop-opacity:1" />
<stop  offset="0.639216"  style="stop-color:#046B81;stop-opacity:1" />
<stop  offset="0.694118"  style="stop-color:#FF0000;stop-opacity:1" />
<stop  offset="0.752941"  style="stop-color:#000066;stop-opacity:1" />
</radialGradient>
<path style="fill:url(#RadialGradID_384) " d="M101.05,-18.8Q105.5 -22.45 113.1 -22.4L120.25 -21.75L126.15 -21.1L127.5 -21.4Q128.2 -21.6 129.2 -22.15L130.55 -8.4L128.75 -8.15Q126.45 -12.5 123.35 -14.9Q120.1 -17.3 116.55 -17.3Q113.85 -17.3 112.2 -16Q110.5 -14.7 110.5 -12.75Q110.5 -11.05 111.6 -10Q112.75 -9 116.2 -7.9L121.65 -6.2Q129.5 -3.75 132.25 -0.85Q135 1.95 135 6.9Q134.95 14 129.25 18.35Q123.55 22.65 114.15 22.7L105.9 21.9L100.65 21.15L98.95 21.45Q98.05 21.75 97 22.5L95.9 4.2L97.65 4.15Q98.7 10.55 102.55 14Q106.3 17.4 112.4 17.45Q116.55 17.4 118.75 15.95Q121 14.35 121 11.65Q121 7.75 113.8 5.5L112.6 5.1L107.4 3.4Q101.8 1.6 99.2 -1.35Q96.6 -4.35 96.6 -8.9Q96.6 -15.1 101.05 -18.8" />
<path style="fill:none;stroke-width:0.25;stroke-linecap:round;stroke-linejoin:round;stroke-miterlimit:3;stroke:#FF0000;stroke-opacity:1" d="M10.25,-19.7L10.25 -21.5L37.9 -21.5Q45.2 -21.5 48.15 -19.8Q51.05 -18.15 51.05 -14.25Q51.05 -8.75 44.95 -4.55Q38.85 -0.5 26.7 2.25L26.7 12.45Q26.7 17.45 27.7 18.6Q28.65 19.7 31.3 19.95L31.3 21.8L10.25 21.8L10.25 19.95Q12.05 19.65 12.7 18.55Q13.3 17.35 13.35 13.3L13.35 -13Q13.3 -17.1 12.7 -18.2Q12.05 -19.4 10.25 -19.7M1.8,-18.2Q1.15 -17.1 1.15 -13L1.15 13.3Q1.15 17.35 1.8 18.55Q2.45 19.65 4.25 19.95L4.25 21.8L-16.25 21.8L-16.25 19.95Q-14 19.75 -13.05 18.45Q-12.25 17.1 -12.25 12.45L-12.25 -11.4L-24.45 12.9L-36.45 -11.6L-36.45 12.45Q-36.45 16.95 -35.55 18.4Q-34.7 19.75 -32.35 19.95L-32.35 21.8L-45.05 21.8L-45.05 19.95Q-43.25 19.65 -42.6 18.55Q-42 17.35 -41.95 13.3L-41.95 -13Q-42 -17.1 -42.6 -18.2Q-43.25 -19.4 -45.05 -19.7L-45.05 -21.5L-23.9 -21.5L-23.9 -19.7L-24.9 -19.05L-25.2 -18.05L-25 -17.15L-24.45 -15.75L-20.35 -6.4L-15.5 -15.85Q-14.65 -17.45 -14.65 -18Q-14.65 -18.6 -14.95 -19L-15.95 -19.7L-15.95 -21.5L4.25 -21.5L4.25 -19.7Q2.45 -19.4 1.8 -18.2M31.2,-17.05Q28.5 -17.05 27.6 -16.3Q26.7 -15.65 26.7 -13.05L26.7 -2.95Q32.5 -5.3 34.85 -7.35Q37.15 -9.5 37.15 -12.35Q37.15 -14.7 35.65 -15.85Q34.2 -17.05 31.2 -17.05M80.7,-15.65L90.6 13.45Q92 17.55 93.05 18.75Q94.05 19.9 95.7 19.95L95.7 21.8L73.6 21.8L73.6 19.95Q75.3 19.6 76.1 18.8Q76.9 17.95 76.9 16.35Q76.85 12.1 72.65 8.95Q68.35 5.75 61.85 5.35L59.3 12.5L58.6 15.05Q58.3 16.1 58.3 16.9Q58.3 18.4 59.15 19.2Q60 19.95 61.7 19.95L61.7 21.8L47.05 21.8L47.05 19.95Q49.2 19.5 50.6 18.1Q51.95 16.6 53.7 11.85L63.7 -15.65L63.95 -16.65L64.1 -17.55Q64.1 -18.3 63.65 -18.8Q63.25 -19.3 62.35 -19.7L62.35 -21.5L82.1 -21.5L82.1 -19.7Q81.25 -19.4 80.8 -18.85Q80.3 -18.35 80.35 -17.75L80.4 -16.9L80.7 -15.65M101.05,-18.8Q105.5 -22.45 113.1 -22.4L120.25 -21.75L126.15 -21.1L127.5 -21.4Q128.2 -21.6 129.2 -22.15L130.55 -8.4L128.75 -8.15Q126.45 -12.5 123.35 -14.9Q120.1 -17.3 116.55 -17.3Q113.85 -17.3 112.2 -16Q110.5 -14.7 110.5 -12.75Q110.5 -11.05 111.6 -10Q112.75 -9 116.2 -7.9L121.65 -6.2Q129.5 -3.75 132.25 -0.85Q135 1.95 135 6.9Q134.95 14 129.25 18.35Q123.55 22.65 114.15 22.7L105.9 21.9L100.65 21.15L98.95 21.45Q98.05 21.75 97 22.5L95.9 4.2L97.65 4.15Q98.7 10.55 102.55 14Q106.3 17.4 112.4 17.45Q116.55 17.4 118.75 15.95Q121 14.35 121 11.65Q121 7.75 113.8 5.5L112.6 5.1L107.4 3.4Q101.8 1.6 99.2 -1.35Q96.6 -4.35 96.6 -8.9Q96.6 -15.1 101.05 -18.8M68.65,1.65Q70.9 2.45 72.85 3.75L68.1 -11.85L63.6 0.6Q66.35 0.95 68.65 1.65M-129.25,-17.3Q-123.5 -22.45 -112.25 -22.4L-106.3 -22.1L-102.05 -21.75L-100.05 -22.05L-97.5 -22.8L-93.9 -5.4L-96.1 -5.05Q-99.35 -11.25 -102.3 -13.8Q-105.3 -16.35 -109.2 -16.3Q-114.5 -16.3 -117.65 -12.4Q-120.9 -8.55 -120.9 -2.15Q-120.9 6 -116.45 11.55Q-112.05 17.05 -105.35 17.05Q-101.05 17 -97.85 14.75Q-94.75 12.4 -92.7 7.85L-91.05 8.3L-95.95 22.45L-97.8 22L-99.6 21.85L-104.25 22.35L-109.85 22.8Q-121.1 22.8 -128 15.95Q-134.95 9 -134.95 -2.05Q-135 -12.15 -129.25 -17.3M-54.85,-6.95Q-49.55 -2.35 -49.55 5.55Q-49.55 13.45 -54.8 18.1Q-60.15 22.7 -69.3 22.7Q-78.45 22.7 -83.7 18.1Q-88.95 13.45 -88.95 5.55Q-88.95 -2.35 -83.7 -6.95Q-78.45 -11.6 -69.3 -11.6Q-60.15 -11.6 -54.85 -6.95M-69.65,-6.6Q-72.45 -6.6 -74.1 -3.85Q-75.8 -1.1 -75.75 3.6Q-75.8 10.45 -73.95 14.1Q-72.2 17.65 -68.75 17.7Q-66.05 17.7 -64.4 14.9Q-62.8 12.1 -62.8 7.3Q-62.8 0.7 -64.6 -2.95Q-66.45 -6.6 -69.65 -6.6" />
</g>
</svg>
