<?xml version="1.0" encoding="utf-8"?>
<svg version="1.1" id="Layer_1"
xmlns="http://www.w3.org/2000/svg"
xmlns:xlink="http://www.w3.org/1999/xlink"
xmlns:author="http://www.sothink.com"
width="86px" height="32px"
xml:space="preserve">
<g id="213" transform="matrix(1, 0, 0, 1, 43.15, 15.55)">
<path style="fill:#0000CC;fill-opacity:1" d="M-42.35,-15.05L-40.2 -15L42.15 -15.05L42.65 -15.05L42.65 14.95L42.45 14.95L42.45 15L42.35 15L42.35 -14.9L42.2 -14.9L-42.55 -14.9L-42.55 -15L-42.35 -15L-42.35 -15.05" />
<path style="fill:#374777;fill-opacity:1" d="M42.35,15.1L42.2 15.1L42.2 -14.9L42.35 -14.9L42.35 15L42.35 15.1" />
<path style="fill:#9DD6DD;fill-opacity:1" d="M39.1,11.6L39.1 11.65L-39.55 11.65L-39.55 11.6L-39.55 -12.1L39.1 -12.1L39.1 11.6" />
<path style="fill:#42AEBD;fill-opacity:1" d="M-42.65,15.1L-42.65 15L-42.65 -14.9L-42.55 -14.9L42.2 -14.9L42.2 15.1L-42.65 15.1M-39.55,11.65L39.1 11.65L39.1 11.6L39.1 -14.85L-42.55 -14.85L-42.55 11.6L-39.55 11.6L-39.55 11.65" />
<path style="fill:#D1EAED;fill-opacity:1" d="M39.1,-12.1L-39.55 -12.1L-39.55 11.6L-42.55 11.6L-42.55 -14.85L39.1 -14.85L39.1 11.6L39.1 -12.1" />
<path style="fill:none;stroke-width:1;stroke-linecap:round;stroke-linejoin:round;stroke-miterlimit:3;stroke:#FFFFFF;stroke-opacity:1" d="M42.15,-15.05L-40.2 -15L-42.35 -15L-42.55 -15L-42.55 -14.9L42.2 -14.9L42.2 15.1M-40.2,-15L-42.35 -15.05L-42.35 -15M-42.55,-14.9L-42.65 -14.9L-42.65 15M-42.65,15.1L42.2 15.1" />
<path style="fill:none;stroke-width:1.25;stroke-linecap:round;stroke-linejoin:round;stroke-miterlimit:3;stroke:#046B81;stroke-opacity:1" d="M-23.85,4.3L-22.45 0.3L-18.1 0.3L-15.35 -2.45L-11.95 3.8L-5.7 -5.3L2.15 -4.7L11.65 2.55L21.15 -5.45" />
<path style="fill:none;stroke-width:0.25;stroke-linecap:round;stroke-linejoin:round;stroke-miterlimit:3;stroke:#046B81;stroke-opacity:1" d="M-27.45,-10.6L27.55 -10.6L27.55 9.5" />
<path style="fill:none;stroke-width:1.25;stroke-linecap:round;stroke-linejoin:round;stroke-miterlimit:3;stroke:#046B81;stroke-opacity:1" d="M27.55,9.5L-27.45 9.5L-27.45 -10.6" />
</g>
</svg>
