<?xml version="1.0" encoding="utf-8"?>
<svg version="1.1" id="Layer_1"
xmlns="http://www.w3.org/2000/svg"
xmlns:xlink="http://www.w3.org/1999/xlink"
xmlns:author="http://www.sothink.com"
width="30px" height="19px"
xml:space="preserve">
<g id="96" transform="matrix(1, 0, 0, 1, 14.95, 9.45)">
<radialGradient
id="RadialGradID_325" gradientUnits="userSpaceOnUse" gradientTransform="matrix(0.00317383, 0, 0, 0.00317383, 1.3, -8.85)" spreadMethod ="pad" cx="0" cy="0" r="819.2" fx="0" fy="0" >
<stop  offset="0"  style="stop-color:#10EF9B;stop-opacity:1" />
<stop  offset="1"  style="stop-color:#07784E;stop-opacity:1" />
<stop  offset="1"  style="stop-color:#805740;stop-opacity:1" />
</radialGradient>
<path style="fill:url(#RadialGradID_325) " d="M2.4,-5.35L2.05 -4.55Q1.75 -5.55 0.7 -6.55Q-0.05 -7.2 -0.05 -7.8L0.1 -8.5Q0.65 -9.45 1.5 -9.45Q2.3 -9.45 2.85 -8.5L3.2 -7.8L3.45 -6.2L3.45 -6.05Q2.8 -5.9 2.4 -5.35" />
<radialGradient
id="RadialGradID_326" gradientUnits="userSpaceOnUse" gradientTransform="matrix(0.00457764, 0, 0, 0.00457764, 2.35, -3.15)" spreadMethod ="pad" cx="0" cy="0" r="819.2" fx="0" fy="0" >
<stop  offset="0"  style="stop-color:#FE0101;stop-opacity:1" />
<stop  offset="1"  style="stop-color:#660000;stop-opacity:1" />
<stop  offset="1"  style="stop-color:#805740;stop-opacity:1" />
</radialGradient>
<path style="fill:url(#RadialGradID_326) " d="M-1.55,-2L-1.55 -2.05Q-1.55 -2.95 -0.45 -3.6Q0.6 -4.15 2.05 -4.2L2.1 -3.9Q2.2 -3.1 2.3 -3.25L2.3 -3.3L2.55 -3.5L2.9 -3.7L3.9 -4L4.85 -3.6Q5.95 -2.95 5.95 -2.05Q5.95 -1.55 5.6 -1.1L5.4 -2L5.15 -2.5L5.05 -2.7L5 -2.8Q4.45 -3.75 3.65 -3.75Q2.8 -3.75 2.25 -2.8Q1.9 -2.2 2.25 -1.5L2.9 -0.75L3.55 -0.05L2.2 0.1Q0.65 0.1 -0.45 -0.55L-0.95 -0.85L-0.95 -0.9Q-1.05 -1.55 -1.55 -2" />
<radialGradient
id="RadialGradID_327" gradientUnits="userSpaceOnUse" gradientTransform="matrix(0.00299072, 0, 0, 0.00299072, 4.8, -4.7)" spreadMethod ="pad" cx="0" cy="0" r="819.2" fx="0" fy="0" >
<stop  offset="0.0117647"  style="stop-color:#10EF9B;stop-opacity:1" />
<stop  offset="1"  style="stop-color:#07784E;stop-opacity:1" />
<stop  offset="1"  style="stop-color:#805740;stop-opacity:1" />
</radialGradient>
<path style="fill:url(#RadialGradID_327) " d="M2.05,-4.2L2.05 -4.55L2.4 -5.35Q2.8 -5.9 3.45 -6.05L3.65 -6.15Q4.45 -6.3 5.1 -5.85Q5.75 -5.4 5.9 -4.6Q6.05 -3.85 4.75 -3.95L3.9 -4L2.9 -3.7L2.55 -3.5L2.3 -3.3L2.3 -3.25Q2.2 -3.1 2.1 -3.9L2.05 -4.2" />
<radialGradient
id="RadialGradID_328" gradientUnits="userSpaceOnUse" gradientTransform="matrix(0.00683594, 0, 0, 0.00317383, 2.6, -2.7)" spreadMethod ="pad" cx="0" cy="0" r="819.2" fx="0" fy="0" >
<stop  offset="0"  style="stop-color:#10EF9B;stop-opacity:1" />
<stop  offset="1"  style="stop-color:#07784E;stop-opacity:1" />
<stop  offset="1"  style="stop-color:#805740;stop-opacity:1" />
</radialGradient>
<path style="fill:url(#RadialGradID_328) " d="M4.6,0.45L4.25 1.25L3.55 -0.05L2.9 -0.75L2.25 -1.5L2.15 -2L2.3 -2.7Q2.85 -3.65 3.7 -3.65Q4.5 -3.65 5.05 -2.7L5.15 -2.5L5.4 -2L5.6 -1.1L5.65 -0.4L5.65 -0.25Q5 -0.1 4.6 0.45" />
<radialGradient
id="RadialGradID_329" gradientUnits="userSpaceOnUse" gradientTransform="matrix(0.00299072, 0, 0, 0.00299072, 7.75, 1.45)" spreadMethod ="pad" cx="0" cy="0" r="819.2" fx="0" fy="0" >
<stop  offset="0.141176"  style="stop-color:#10EF9B;stop-opacity:1" />
<stop  offset="1"  style="stop-color:#07784E;stop-opacity:1" />
<stop  offset="1"  style="stop-color:#805740;stop-opacity:1" />
</radialGradient>
<path style="fill:url(#RadialGradID_329) " d="M4.25,1.25L4.6 0.45Q5 -0.1 5.65 -0.25L5.85 -0.35Q6.65 -0.5 7.3 -0.05L7.9 0.6L8.1 1.15L8.1 1.2Q8.25 1.95 6.95 1.85L6.35 1.8L6.1 1.8Q5.45 1.85 5.1 2.1L4.75 2.3L4.5 2.5L4.5 2.55L4.4 2.5L4.3 1.9L4.25 1.6L4.25 1.25" />
<radialGradient
id="RadialGradID_330" gradientUnits="userSpaceOnUse" gradientTransform="matrix(0.00683594, 0, 0, 0.00317383, 9.4, -6.5)" spreadMethod ="pad" cx="0" cy="0" r="819.2" fx="0" fy="0" >
<stop  offset="0"  style="stop-color:#10EF9B;stop-opacity:1" />
<stop  offset="1"  style="stop-color:#07784E;stop-opacity:1" />
<stop  offset="1"  style="stop-color:#805740;stop-opacity:1" />
</radialGradient>
<path style="fill:url(#RadialGradID_330) " d="M11.05,-2.55Q10.75 -3.55 9.7 -4.55Q8.95 -5.2 8.95 -5.8L9.1 -6.5Q9.65 -7.45 10.5 -7.45Q11.3 -7.45 11.85 -6.5L12.2 -5.8L12.45 -4.2L12.45 -4.05Q11.8 -3.9 11.4 -3.35L11.05 -2.55" />
<radialGradient
id="RadialGradID_331" gradientUnits="userSpaceOnUse" gradientTransform="matrix(0.00299072, 0, 0, 0.00299072, 14.55, -2.35)" spreadMethod ="pad" cx="0" cy="0" r="819.2" fx="0" fy="0" >
<stop  offset="0.141176"  style="stop-color:#10EF9B;stop-opacity:1" />
<stop  offset="1"  style="stop-color:#07784E;stop-opacity:1" />
<stop  offset="1"  style="stop-color:#805740;stop-opacity:1" />
</radialGradient>
<path style="fill:url(#RadialGradID_331) " d="M11.05,-2.2L11.05 -2.55L11.4 -3.35Q11.8 -3.9 12.45 -4.05L12.65 -4.15Q13.45 -4.3 14.1 -3.85Q14.75 -3.4 14.9 -2.6Q15.05 -1.85 13.75 -1.95L12.9 -2L11.9 -1.7L11.55 -1.5L11.3 -1.3L11.3 -1.25Q11.2 -1.1 11.1 -1.9L11.05 -2.2" />
<radialGradient
id="RadialGradID_332" gradientUnits="userSpaceOnUse" gradientTransform="matrix(0.00457764, 0, 0, 0.00457764, 11.35, -1.15)" spreadMethod ="pad" cx="0" cy="0" r="819.2" fx="0" fy="0" >
<stop  offset="0"  style="stop-color:#FE0101;stop-opacity:1" />
<stop  offset="1"  style="stop-color:#660000;stop-opacity:1" />
<stop  offset="1"  style="stop-color:#805740;stop-opacity:1" />
</radialGradient>
<path style="fill:url(#RadialGradID_332) " d="M7.9,0.6L7.45 0L7.45 -0.05Q7.45 -0.95 8.55 -1.6L11.05 -2.2L11.1 -1.9Q11.2 -1.1 11.3 -1.25L11.3 -1.3L11.55 -1.5L11.9 -1.7L12.9 -2L13.85 -1.6Q14.95 -0.95 14.95 -0.05Q14.95 0.85 13.85 1.45Q12.75 2.1 11.2 2.1Q9.65 2.1 8.55 1.45L8.1 1.15L7.9 0.6" />
<radialGradient
id="RadialGradID_333" gradientUnits="userSpaceOnUse" gradientTransform="matrix(0.00457764, 0, 0, 0.00457764, 4.5, 2.55)" spreadMethod ="pad" cx="0" cy="0" r="819.2" fx="0" fy="0" >
<stop  offset="0"  style="stop-color:#FE0101;stop-opacity:1" />
<stop  offset="1"  style="stop-color:#660000;stop-opacity:1" />
<stop  offset="1"  style="stop-color:#805740;stop-opacity:1" />
</radialGradient>
<path style="fill:url(#RadialGradID_333) " d="M1.5,4.75Q1.35 3.95 0.7 3.5L0.65 3.45Q0.75 2.65 1.7 2.1Q2.75 1.55 4.2 1.5L4.25 1.8L4.4 2.5L4.5 2.55L4.5 2.5L4.75 2.3L5.1 2.1Q5.45 1.85 6.1 1.8L6.35 1.8L7 2.1Q8.1 2.75 8.1 3.65Q8.1 4.55 7 5.15Q5.9 5.8 4.35 5.8Q2.8 5.8 1.7 5.15L1.5 5.05L1.5 4.75" />
<radialGradient
id="RadialGradID_334" gradientUnits="userSpaceOnUse" gradientTransform="matrix(0.00299072, 0, 0, 0.00299072, 0.4, 4.55)" spreadMethod ="pad" cx="0" cy="0" r="819.2" fx="0" fy="0" >
<stop  offset="0.00392157"  style="stop-color:#10EF9B;stop-opacity:1" />
<stop  offset="1"  style="stop-color:#07784E;stop-opacity:1" />
<stop  offset="1"  style="stop-color:#805740;stop-opacity:1" />
</radialGradient>
<path style="fill:url(#RadialGradID_334) " d="M-2,4Q-1.6 3.45 -0.95 3.3L-0.75 3.2Q0 3.05 0.65 3.45L0.7 3.5Q1.35 3.95 1.5 4.75L1.5 5.05Q1.35 5.5 0.35 5.4L-0.5 5.35L-1.5 5.65L-1.85 5.85L-2.1 6.05L-2.1 6.1L-2.3 5.45L-2.35 5.15L-2.35 4.8L-2 4" />
<radialGradient
id="RadialGradID_335" gradientUnits="userSpaceOnUse" gradientTransform="matrix(0.00457764, 0, 0, 0.00457764, -2.05, 6.2)" spreadMethod ="pad" cx="0" cy="0" r="819.2" fx="0" fy="0" >
<stop  offset="0"  style="stop-color:#FE0101;stop-opacity:1" />
<stop  offset="1"  style="stop-color:#660000;stop-opacity:1" />
<stop  offset="1"  style="stop-color:#805740;stop-opacity:1" />
</radialGradient>
<path style="fill:url(#RadialGradID_335) " d="M-2.3,5.45L-2.1 6.1L-2.1 6.05L-1.85 5.85L-1.5 5.65L-0.5 5.35L0.45 5.75Q1.55 6.4 1.55 7.3Q1.55 8.2 0.45 8.8Q-0.65 9.45 -2.2 9.45Q-3.75 9.45 -4.85 8.8Q-5.95 8.2 -5.95 7.3Q-5.95 6.4 -4.85 5.75Q-3.8 5.2 -2.35 5.15L-2.3 5.45" />
<radialGradient
id="RadialGradID_336" gradientUnits="userSpaceOnUse" gradientTransform="matrix(0.00305176, 0, 0, 0.00305176, -11.85, -1.25)" spreadMethod ="pad" cx="0" cy="0" r="819.2" fx="0" fy="0" >
<stop  offset="0"  style="stop-color:#10EF9B;stop-opacity:1" />
<stop  offset="1"  style="stop-color:#07784E;stop-opacity:1" />
<stop  offset="1"  style="stop-color:#805740;stop-opacity:1" />
</radialGradient>
<path style="fill:url(#RadialGradID_336) " d="M-11.35,2.8Q-11.65 1.8 -12.7 0.8Q-13.85 -0.2 -13.3 -1.15Q-12.75 -2.1 -11.9 -2.1Q-11.1 -2.1 -10.55 -1.15Q-10 -0.2 -9.95 1.15L-9.95 1.3Q-10.6 1.45 -11 2L-11.35 2.8" />
<radialGradient
id="RadialGradID_337" gradientUnits="userSpaceOnUse" gradientTransform="matrix(0.00305176, 0, 0, 0.00305176, -5.7, -4.7)" spreadMethod ="pad" cx="0" cy="0" r="819.2" fx="0" fy="0" >
<stop  offset="0"  style="stop-color:#10EF9B;stop-opacity:1" />
<stop  offset="1"  style="stop-color:#07784E;stop-opacity:1" />
<stop  offset="1"  style="stop-color:#805740;stop-opacity:1" />
</radialGradient>
<path style="fill:url(#RadialGradID_337) " d="M-4.8,-0.85Q-5.1 -1.85 -6.15 -2.85Q-7.3 -3.85 -6.75 -4.8Q-6.2 -5.75 -5.35 -5.75Q-4.55 -5.75 -4 -4.8Q-3.45 -3.85 -3.4 -2.5L-3.4 -2.35Q-4.05 -2.2 -4.45 -1.65L-4.8 -0.85" />
<radialGradient
id="RadialGradID_338" gradientUnits="userSpaceOnUse" gradientTransform="matrix(0.00286865, 0, 0, 0.00286865, -2.05, -0.85)" spreadMethod ="pad" cx="0" cy="0" r="819.2" fx="0" fy="0" >
<stop  offset="0"  style="stop-color:#10EF9B;stop-opacity:1" />
<stop  offset="1"  style="stop-color:#07784E;stop-opacity:1" />
<stop  offset="1"  style="stop-color:#805740;stop-opacity:1" />
</radialGradient>
<path style="fill:url(#RadialGradID_338) " d="M-0.95,-0.9L-0.95 -0.85Q-0.85 -0.15 -2.1 -0.25L-2.95 -0.3L-3.95 0L-4.3 0.2L-4.55 0.4L-4.55 0.45L-4.75 -0.2L-4.8 -0.5L-4.8 -0.85L-4.45 -1.65Q-4.05 -2.2 -3.4 -2.35L-3.2 -2.45Q-2.4 -2.6 -1.75 -2.15L-1.55 -2Q-1.05 -1.55 -0.95 -0.9" />
<radialGradient
id="RadialGradID_339" gradientUnits="userSpaceOnUse" gradientTransform="matrix(0.00457764, 0, 0, 0.00457764, -4.5, 0.55)" spreadMethod ="pad" cx="0" cy="0" r="819.2" fx="0" fy="0" >
<stop  offset="0"  style="stop-color:#FE0101;stop-opacity:1" />
<stop  offset="1"  style="stop-color:#660000;stop-opacity:1" />
<stop  offset="1"  style="stop-color:#805740;stop-opacity:1" />
</radialGradient>
<path style="fill:url(#RadialGradID_339) " d="M-7.5,2.75Q-7.65 1.95 -8.3 1.5L-8.35 1.45Q-8.25 0.65 -7.3 0.1L-4.8 -0.5L-4.75 -0.2L-4.55 0.45L-4.55 0.4L-4.3 0.2L-3.95 0L-2.95 -0.3L-2 0.1Q-0.9 0.75 -0.9 1.65L-1.05 2.3Q-1.2 1.5 -1.55 0.85Q-2.1 -0.1 -2.9 -0.1Q-3.75 -0.1 -4.3 0.85Q-4.85 1.8 -3.7 2.8L-3 3.6L-4.65 3.8Q-6.2 3.8 -7.3 3.15L-7.5 3.05L-7.5 2.75" />
<radialGradient
id="RadialGradID_340" gradientUnits="userSpaceOnUse" gradientTransform="matrix(0.00305176, 0, 0, 0.00305176, -3.25, 0.7)" spreadMethod ="pad" cx="0" cy="0" r="819.2" fx="0" fy="0" >
<stop  offset="0"  style="stop-color:#10EF9B;stop-opacity:1" />
<stop  offset="1"  style="stop-color:#07784E;stop-opacity:1" />
<stop  offset="1"  style="stop-color:#805740;stop-opacity:1" />
</radialGradient>
<path style="fill:url(#RadialGradID_340) " d="M-2.35,4.8Q-2.5 4.2 -3 3.6L-3.7 2.8Q-4.85 1.8 -4.3 0.85Q-3.75 -0.1 -2.9 -0.1Q-2.1 -0.1 -1.55 0.85Q-1.2 1.5 -1.05 2.3L-0.95 3.15L-0.95 3.3Q-1.6 3.45 -2 4L-2.35 4.8" />
<radialGradient
id="RadialGradID_341" gradientUnits="userSpaceOnUse" gradientTransform="matrix(0.00299072, 0, 0, 0.00299072, -8.6, 2.65)" spreadMethod ="pad" cx="0" cy="0" r="819.2" fx="0" fy="0" >
<stop  offset="0"  style="stop-color:#10EF9B;stop-opacity:1" />
<stop  offset="1"  style="stop-color:#07784E;stop-opacity:1" />
<stop  offset="1"  style="stop-color:#805740;stop-opacity:1" />
</radialGradient>
<path style="fill:url(#RadialGradID_341) " d="M-11.35,3.15L-11.35 2.8L-11 2Q-10.6 1.45 -9.95 1.3L-9.75 1.2Q-9 1.05 -8.35 1.45L-8.3 1.5Q-7.65 1.95 -7.5 2.75L-7.5 3.05Q-7.65 3.5 -8.65 3.4L-9.5 3.35L-10.5 3.65L-10.85 3.85L-11.1 4.05L-11.1 4.1L-11.3 3.45L-11.35 3.15" />
<radialGradient
id="RadialGradID_342" gradientUnits="userSpaceOnUse" gradientTransform="matrix(0.00457764, 0, 0, 0.00457764, -11.05, 4.2)" spreadMethod ="pad" cx="0" cy="0" r="819.2" fx="0" fy="0" >
<stop  offset="0"  style="stop-color:#FE0101;stop-opacity:1" />
<stop  offset="1"  style="stop-color:#660000;stop-opacity:1" />
<stop  offset="1"  style="stop-color:#805740;stop-opacity:1" />
</radialGradient>
<path style="fill:url(#RadialGradID_342) " d="M-11.3,3.45L-11.1 4.1L-11.1 4.05L-10.85 3.85L-10.5 3.65L-9.5 3.35L-8.55 3.75Q-7.45 4.4 -7.45 5.3Q-7.45 6.2 -8.55 6.8Q-9.65 7.45 -11.2 7.45Q-12.75 7.45 -13.85 6.8Q-14.95 6.2 -14.95 5.3Q-14.95 4.4 -13.85 3.75Q-12.8 3.2 -11.35 3.15L-11.3 3.45" />
</g>
</svg>
