<?xml version="1.0" encoding="utf-8"?>
<svg version="1.1" id="Layer_1"
xmlns="http://www.w3.org/2000/svg"
xmlns:xlink="http://www.w3.org/1999/xlink"
xmlns:author="http://www.sothink.com"
width="624px" height="444px"
xml:space="preserve">
<g id="165" transform="matrix(1, 0, 0, 1, 310.35, 210.3)">
<path style="fill:#9DD6DD;fill-opacity:1" d="M-228.15,-153.85L-306.85 -153.85L-306.85 -177.8L-228.15 -177.8L-228.15 -177.5L-228.15 -153.85M-289.55,-174.95L-292 -174.95L-294.55 -174.95L-294.55 -172.45L-294.55 -169.95L-294.55 -154.85L-287.05 -154.85L-287.05 -155.65L-287 -155.65L-287 -154.85L-284.6 -154.85L-282.05 -154.85L-282.05 -157.4L-284.6 -157.4L-284.6 -159.9L-287 -159.9L-287 -162.4L-284.6 -162.4L-282.05 -162.4L-282.05 -159.9L-279.6 -159.9L-279.6 -162.4L-279.6 -164.9L-277.1 -164.9L-277.1 -162.4L-277.1 -159.9L-279.6 -159.9L-279.6 -157.4L-277.1 -157.4L-274.6 -157.4L-274.6 -154.85L-272.1 -154.85L-269.6 -154.85L-267.1 -154.85L-267.1 -157.4L-264.65 -157.4L-262.15 -157.4L-259.65 -157.4L-257.15 -157.4L-254.65 -157.4L-254.65 -159.9L-252.2 -159.9L-252.2 -162.4L-249.65 -162.4L-249.65 -164.9L-247.2 -164.9L-247.2 -162.4L-247.2 -159.9L-247.2 -157.4L-249.65 -157.4L-252.2 -157.4L-252.2 -154.85L-249.65 -154.85L-247.2 -154.85L-239.55 -154.85L-239.5 -164.95L-239.55 -164.95L-239.55 -165L-239.55 -167.5L-239.55 -170L-242.05 -170L-244.5 -170L-244.5 -172.5L-242.05 -172.5L-242.05 -174.95L-244.5 -174.95L-247.2 -174.95L-249.65 -174.95L-252.2 -174.95L-254.65 -174.95L-257.15 -174.95L-259.65 -174.95L-259.65 -172.5L-257.15 -172.5L-257.15 -169.95L-257.15 -167.45L-254.65 -167.45L-254.65 -169.95L-252.2 -169.95L-249.65 -169.95L-249.65 -172.5L-247.2 -172.5L-247.2 -169.95L-247.2 -167.45L-247.2 -164.95L-249.65 -164.95L-249.65 -167.45L-252.2 -167.45L-252.2 -164.95L-254.65 -164.95L-257.15 -164.95L-259.65 -164.95L-262.15 -164.95L-262.15 -167.45L-262.15 -169.95L-264.65 -169.95L-264.65 -172.5L-267.1 -172.5L-267.1 -174.95L-269.6 -174.95L-272.1 -174.95L-272.1 -172.5L-272.1 -169.95L-274.6 -169.95L-274.6 -167.45L-277.1 -167.45L-277.1 -164.95L-279.6 -164.95L-279.6 -167.45L-282.05 -167.45L-282.05 -164.95L-284.6 -164.95L-287 -164.95L-287 -165.7L-287 -165.75L-287 -167.45L-287 -169.95L-284.6 -169.95L-284.6 -172.5L-282.05 -172.5L-282.05 -174.95L-284.6 -174.95L-287 -174.95L-287.05 -174.95L-287.05 -172.5L-287.05 -172.45L-287.05 -169.95L-289.55 -169.95L-292 -169.95L-292 -172.45L-289.55 -172.45L-289.55 -174.95M-254.65,-159.9L-257.15 -159.9L-257.15 -162.4L-259.65 -162.4L-262.15 -162.4L-262.15 -164.9L-259.65 -164.9L-257.15 -164.9L-254.65 -164.9L-254.65 -162.4L-254.65 -159.9" />
<path style="fill:#42AEBD;fill-opacity:1" d="M-306.85,-153.8L-306.75 -153.8L-309.75 -153.8L-309.75 -180.25L-228.1 -180.25L-228.1 -153.8L-228.1 -177.5L-228.15 -177.5L-228.15 -177.8L-306.85 -177.8L-306.85 -153.85L-306.85 -153.8" />
<path style="fill:#D1EAED;fill-opacity:1" d="M-228.15,-153.8L-228.15 -153.85L-228.15 -177.5L-228.1 -177.5L-228.1 -153.8L-228.1 -180.25L-309.75 -180.25L-309.75 -153.8L-306.75 -153.8L-228.15 -153.8M-224.85,-150.4L-224.85 -150.3L-309.85 -150.3L-309.85 -180.3L-309.75 -180.3L-224.85 -180.3L-224.85 -150.4" />
<path style="fill:#0000CC;fill-opacity:1" d="M-224.85,-180.3L-309.75 -180.3L-309.75 -180.4L-224.75 -180.4L-224.75 -150.4L-224.85 -150.4L-224.85 -180.3" />
<linearGradient
id="LinearGradID_560" gradientUnits="userSpaceOnUse" gradientTransform="matrix(0.0480347, 0, 0, 0.0146179, -267.5, -165.85)" spreadMethod ="pad" x1="-819.2" y1="0" x2="819.2" y2="0" >
<stop  offset="0" style="stop-color:#D5DAF1;stop-opacity:0.6" />
<stop  offset="1" style="stop-color:#8E9DCA;stop-opacity:0.6" />
</linearGradient>
<path style="fill:url(#LinearGradID_560) " d="M-287,-165.7L-287.05 -165.7L-287.05 -165.75L-287 -165.75L-287 -165.7" />
<path style="fill:#0595A9;fill-opacity:1" d="M-252.2,-157.4L-249.65 -157.4L-247.2 -157.4L-247.2 -159.9L-247.2 -162.4L-247.2 -164.9L-247.2 -164.95L-247.2 -167.45L-247.2 -169.95L-247.2 -172.5L-249.65 -172.5L-249.65 -169.95L-252.2 -169.95L-254.65 -169.95L-254.65 -167.45L-257.15 -167.45L-257.15 -169.95L-257.15 -172.5L-259.65 -172.5L-259.65 -174.95L-257.15 -174.95L-254.65 -174.95L-252.2 -174.95L-249.65 -174.95L-247.2 -174.95L-244.5 -174.95L-242.05 -174.95L-242.05 -172.5L-244.5 -172.5L-244.5 -170L-242.05 -170L-239.55 -170L-239.55 -167.5L-239.55 -165L-239.55 -164.95L-239.5 -164.95L-239.55 -154.85L-247.2 -154.85L-249.65 -154.85L-252.2 -154.85L-252.2 -157.4M-264.65,-157.4L-267.1 -157.4L-267.1 -154.85L-269.6 -154.85L-272.1 -154.85L-274.6 -154.85L-274.6 -157.4L-277.1 -157.4L-279.6 -157.4L-279.6 -159.9L-277.1 -159.9L-277.1 -162.4L-277.1 -164.9L-274.6 -164.9L-272.1 -164.9L-269.6 -164.9L-267.1 -164.9L-264.65 -164.9L-262.15 -164.9L-262.15 -162.4L-259.65 -162.4L-257.15 -162.4L-257.15 -159.9L-254.65 -159.9L-254.65 -162.4L-254.65 -164.9L-252.2 -164.9L-249.65 -164.9L-249.65 -162.4L-252.2 -162.4L-252.2 -159.9L-254.65 -159.9L-254.65 -157.4L-257.15 -157.4L-259.65 -157.4L-262.15 -157.4L-264.65 -157.4M-287,-159.85L-287 -159.9L-284.6 -159.9L-284.6 -157.4L-282.05 -157.4L-282.05 -154.85L-284.6 -154.85L-287 -154.85L-287 -155.65L-287 -157.4L-287 -159.85M-289.55,-172.45L-292 -172.45L-292 -169.95L-289.55 -169.95L-287.05 -169.95L-287.05 -165.75L-287.05 -165.7L-287.05 -155.65L-287.05 -154.85L-294.55 -154.85L-294.55 -169.95L-294.55 -172.45L-294.55 -174.95L-292 -174.95L-289.55 -174.95L-289.55 -172.45M-287,-174.95L-284.6 -174.95L-282.05 -174.95L-282.05 -172.5L-284.6 -172.5L-284.6 -169.95L-287 -169.95L-287 -172.45L-287 -172.5L-287 -174.95M-272.1,-174.95L-269.6 -174.95L-267.1 -174.95L-267.1 -172.5L-264.65 -172.5L-264.65 -169.95L-262.15 -169.95L-262.15 -167.45L-262.15 -164.95L-264.65 -164.95L-267.1 -164.95L-269.6 -164.95L-272.1 -164.95L-274.6 -164.95L-277.1 -164.95L-277.1 -167.45L-274.6 -167.45L-274.6 -169.95L-272.1 -169.95L-272.1 -172.5L-272.1 -174.95M-282.05,-167.45L-279.6 -167.45L-279.6 -164.95L-282.05 -164.95L-282.05 -167.45M-287,-164.9L-284.6 -164.9L-282.05 -164.9L-279.6 -164.9L-279.6 -162.4L-279.6 -159.9L-282.05 -159.9L-282.05 -162.4L-284.6 -162.4L-287 -162.4L-287 -164.9M-252.2,-164.95L-252.2 -167.45L-249.65 -167.45L-249.65 -164.95L-252.2 -164.95" />
<path style="fill:none;stroke-width:1;stroke-linecap:round;stroke-linejoin:round;stroke-miterlimit:3;stroke:#FFFFFF;stroke-opacity:1" d="M-309.75,-180.3L-309.75 -180.4L-224.75 -180.4L-224.75 -150.4L-224.85 -150.4L-224.85 -150.3L-309.85 -150.3L-309.85 -180.3L-309.75 -180.3L-224.85 -180.3L-224.85 -150.4" />
<path style="fill:none;stroke-width:0.5;stroke-linecap:round;stroke-linejoin:round;stroke-miterlimit:3;stroke:#046B81;stroke-opacity:1" d="M-279.6,-164.95L-282.05 -164.95M-252.2,-164.95L-249.65 -164.95M-287.05,-169.95L-287.05 -165.75L-287.05 -165.7L-287.05 -155.65L-287.05 -154.85" />
<path style="fill:none;stroke-width:0.5;stroke-linecap:round;stroke-linejoin:round;stroke-miterlimit:3;stroke:#0595A9;stroke-opacity:1" d="M-242.05,-174.95L-239.5 -174.95L-239.5 -172.55L-239.5 -172.5L-239.5 -170L-239.5 -167.5L-239.5 -165L-239.5 -164.95L-239.55 -154.85L-247.2 -154.85L-249.65 -154.85L-252.2 -154.85L-254.65 -154.85L-257.15 -154.85L-259.65 -154.85L-262.15 -154.85L-264.65 -154.85L-267.1 -154.85L-269.6 -154.85L-272.1 -154.85L-274.6 -154.85L-277.1 -154.85L-279.6 -154.85L-282.05 -154.85L-284.6 -154.85L-287 -154.85L-287.05 -154.85L-294.55 -154.85L-294.55 -169.95L-294.55 -172.45L-294.55 -174.95L-292 -174.95L-289.55 -174.95L-287.05 -174.95L-287 -174.95L-284.6 -174.95L-282.05 -174.95L-279.6 -174.95L-277.1 -174.95L-274.6 -174.95L-272.1 -174.95L-269.6 -174.95L-267.1 -174.95L-264.65 -174.95L-262.15 -174.95L-259.65 -174.95L-257.15 -174.95L-254.65 -174.95L-252.2 -174.95L-249.65 -174.95L-247.2 -174.95L-244.5 -174.95L-242.05 -174.95L-242.05 -172.5L-239.55 -172.5L-239.55 -172.55L-239.5 -172.55M-239.55,-170L-239.55 -172.5L-239.5 -172.5M-239.5,-170L-239.55 -170L-239.55 -167.5L-239.5 -167.5M-239.55,-170L-242.05 -170L-244.5 -170L-244.5 -172.5M-252.2,-169.95L-249.65 -169.95L-249.65 -172.5L-247.2 -172.5L-247.2 -169.95L-247.2 -167.45L-247.2 -164.95L-247.2 -164.9L-247.2 -162.4L-247.2 -159.9L-247.2 -157.4M-242.05,-170L-242.05 -172.5L-244.5 -172.5M-239.5,-165L-239.55 -165L-239.55 -164.95L-239.5 -164.95M-239.55,-165L-239.55 -167.5M-264.65,-169.95L-264.65 -172.5L-267.1 -172.5L-267.1 -174.95M-264.65,-169.95L-262.15 -169.95L-262.15 -172.5L-264.65 -172.5L-264.65 -174.95M-272.1,-172.5L-272.1 -169.95M-274.6,-169.95L-274.6 -167.45L-277.1 -167.45L-277.1 -164.95L-277.1 -164.9L-277.1 -162.4L-277.1 -159.9M-262.15,-162.4L-262.15 -164.9L-262.15 -164.95L-262.15 -167.45L-262.15 -169.95L-259.65 -169.95L-259.65 -172.5L-262.15 -172.5L-262.15 -174.95M-262.15,-164.9L-259.65 -164.9L-259.65 -164.95L-262.15 -164.95M-277.1,-164.95L-279.6 -164.95L-279.6 -164.9L-277.1 -164.9M-274.6,-169.95L-274.6 -172.5L-277.1 -172.5L-277.1 -169.95L-274.6 -169.95L-272.1 -169.95M-277.1,-169.95L-279.6 -169.95L-279.6 -167.45L-277.1 -167.45L-277.1 -169.95M-279.6,-172.5L-282.05 -172.5L-282.05 -169.95L-279.6 -169.95L-279.6 -172.5L-279.6 -174.95M-284.6,-169.95L-282.05 -169.95L-282.05 -167.45L-279.6 -167.45L-279.6 -164.95M-284.6,-164.95L-284.6 -167.45L-282.05 -167.45L-282.05 -164.95L-282.05 -164.9M-279.6,-164.9L-279.6 -162.4L-277.1 -162.4M-282.05,-162.4L-282.05 -159.9L-279.6 -159.9L-279.6 -162.4M-282.05,-162.4L-284.6 -162.4L-284.6 -159.9L-282.05 -159.9L-282.05 -157.4L-279.6 -157.4L-279.6 -159.9L-277.1 -159.9M-277.1,-157.4L-274.6 -157.4M-267.1,-154.85L-267.1 -157.4L-264.65 -157.4L-264.65 -154.85M-262.15,-162.4L-259.65 -162.4L-259.65 -164.9L-257.15 -164.9L-257.15 -164.95L-259.65 -164.95L-259.65 -167.45L-262.15 -167.45M-279.6,-172.5L-277.1 -172.5L-277.1 -174.95M-282.05,-164.95L-284.6 -164.95L-284.6 -164.9L-282.05 -164.9M-274.6,-154.85L-274.6 -157.4M-277.1,-157.4L-277.1 -154.85M-284.6,-162.4L-287 -162.4L-287 -159.9L-284.6 -159.9L-284.6 -157.4L-282.05 -157.4L-282.05 -154.85M-277.1,-157.4L-279.6 -157.4L-279.6 -154.85M-272.1,-172.5L-274.6 -172.5L-274.6 -174.95M-252.2,-162.4L-249.65 -162.4L-249.65 -164.9L-249.65 -164.95L-249.65 -167.45L-252.2 -167.45L-252.2 -164.95L-252.2 -164.9M-249.65,-164.95L-247.2 -164.95M-252.2,-169.95L-252.2 -167.45L-254.65 -167.45L-254.65 -164.95L-252.2 -164.95M-247.2,-169.95L-249.65 -169.95L-249.65 -167.45L-247.2 -167.45M-249.65,-164.9L-247.2 -164.9M-252.2,-162.4L-252.2 -159.9L-249.65 -159.9L-249.65 -162.4L-247.2 -162.4M-252.2,-169.95L-254.65 -169.95L-254.65 -167.45L-257.15 -167.45L-257.15 -164.95L-254.65 -164.95L-254.65 -164.9L-252.2 -164.9M-259.65,-174.95L-259.65 -172.5L-257.15 -172.5L-257.15 -169.95L-257.15 -167.45L-259.65 -167.45L-259.65 -169.95L-257.15 -169.95M-257.15,-164.9L-257.15 -162.4L-254.65 -162.4L-254.65 -164.9L-257.15 -164.9M-259.65,-162.4L-257.15 -162.4L-257.15 -159.9L-254.65 -159.9L-254.65 -162.4M-252.2,-159.9L-254.65 -159.9L-254.65 -157.4L-252.2 -157.4L-252.2 -159.9M-254.65,-157.4L-257.15 -157.4L-257.15 -154.85M-254.65,-157.4L-254.65 -154.85M-262.15,-157.4L-259.65 -157.4L-257.15 -157.4M-259.65,-157.4L-259.65 -154.85M-262.15,-157.4L-262.15 -154.85M-247.2,-159.9L-249.65 -159.9L-249.65 -157.4L-247.2 -157.4M-249.65,-157.4L-252.2 -157.4L-252.2 -154.85M-287,-167.45L-284.6 -167.45L-284.6 -169.95L-284.6 -172.5L-282.05 -172.5L-282.05 -174.95M-272.1,-172.5L-272.1 -174.95M-262.15,-157.4L-264.65 -157.4M-287,-172.45L-287 -172.5L-287.05 -172.5L-287.05 -172.45L-287 -172.45L-287 -169.95L-284.6 -169.95M-287,-172.5L-287 -174.95M-284.6,-164.95L-287 -164.95L-287 -165.7L-287 -165.75L-287 -167.45L-287 -169.95L-287.05 -169.95L-289.55 -169.95L-292 -169.95M-289.55,-172.45L-287.05 -172.45L-287.05 -169.95M-289.55,-169.95L-289.55 -172.45L-292 -172.45L-292 -169.95M-287,-164.95L-287 -164.9L-284.6 -164.9M-287.05,-174.95L-287.05 -172.5M-289.55,-172.45L-289.55 -174.95" />
<path style="fill:none;stroke-width:0.5;stroke-linecap:round;stroke-linejoin:round;stroke-miterlimit:3;stroke:#0595A9;stroke-opacity:1" d="M-244.5,-172.5L-247.2 -172.5L-247.2 -174.95M-247.2,-157.4L-247.2 -154.85M-244.5,-172.5L-244.5 -174.95M-269.6,-174.95L-269.6 -172.5L-267.1 -172.5L-267.1 -169.95L-264.65 -169.95M-272.1,-169.95L-272.1 -167.45L-269.6 -167.45L-269.6 -169.95L-267.1 -169.95L-267.1 -167.45L-264.65 -167.45L-264.65 -169.95M-272.1,-169.95L-269.6 -169.95L-269.6 -172.5L-272.1 -172.5M-262.15,-164.95L-264.65 -164.95L-267.1 -164.95L-269.6 -164.95L-272.1 -164.95L-274.6 -164.95L-277.1 -164.95M-277.1,-164.9L-274.6 -164.9L-272.1 -164.9L-269.6 -164.9L-267.1 -164.9L-264.65 -164.9L-262.15 -164.9M-262.15,-167.45L-264.65 -167.45L-264.65 -164.95M-272.1,-164.9L-272.1 -162.4L-269.6 -162.4L-269.6 -164.9M-267.1,-164.9L-267.1 -162.4L-264.65 -162.4L-264.65 -164.9M-267.1,-164.95L-267.1 -167.45L-269.6 -167.45L-269.6 -164.95M-277.1,-159.9L-274.6 -159.9L-274.6 -162.4L-272.1 -162.4L-272.1 -159.9L-269.6 -159.9L-269.6 -162.4L-267.1 -162.4L-267.1 -159.9L-264.65 -159.9L-264.65 -162.4L-262.15 -162.4M-272.1,-164.95L-272.1 -167.45L-274.6 -167.45L-274.6 -164.95M-277.1,-162.4L-274.6 -162.4L-274.6 -164.9M-282.05,-164.9L-279.6 -164.9M-279.6,-162.4L-282.05 -162.4M-282.05,-164.9L-282.05 -162.4M-277.1,-159.9L-277.1 -157.4M-274.6,-157.4L-274.6 -159.9L-272.1 -159.9L-272.1 -157.4L-269.6 -157.4L-269.6 -159.9L-267.1 -159.9L-267.1 -157.4L-269.6 -157.4L-269.6 -154.85M-264.65,-157.4L-264.65 -159.9L-262.15 -159.9L-262.15 -162.4M-274.6,-157.4L-272.1 -157.4L-272.1 -154.85M-249.65,-172.5L-252.2 -172.5L-252.2 -169.95M-252.2,-164.9L-249.65 -164.9M-252.2,-164.9L-252.2 -162.4M-257.15,-169.95L-254.65 -169.95L-254.65 -172.5L-257.15 -172.5L-257.15 -174.95M-254.65,-162.4L-252.2 -162.4M-257.15,-157.4L-257.15 -159.9L-259.65 -159.9L-259.65 -157.4M-259.65,-159.9L-262.15 -159.9L-262.15 -157.4M-249.65,-157.4L-249.65 -154.85M-254.65,-174.95L-254.65 -172.5L-252.2 -172.5L-252.2 -174.95M-259.65,-159.9L-259.65 -162.4M-249.65,-172.5L-249.65 -174.95M-284.6,-172.5L-287 -172.5M-292,-169.95L-294.55 -169.95M-284.6,-164.9L-284.6 -162.4M-287,-162.4L-287 -164.9M-287,-155.65L-287 -154.85M-287,-155.65L-287 -157.4L-287 -159.85M-287,-157.4L-284.6 -157.4L-284.6 -154.85M-292,-172.45L-294.55 -172.45M-292,-172.45L-292 -174.95M-284.6,-172.5L-284.6 -174.95" />
<path style="fill:#563529;fill-opacity:1" d="M243.9,-207.3L243.85 -207.3L243.85 -207.35L138.9 -207.35L138.9 -207.3L138.85 -207.3L138.85 -207.35L33.9 -207.35L33.9 -207.3L33.85 -207.3L33.85 -207.35L-130.2 -207.35L-130.2 186.65L-130.1 186.65L-130.1 186.7L-130.2 186.7L-130.2 229.85L-130.1 229.85L-130.1 229.9L-133.1 229.9L-133.1 -210.3L310 -210.3L310 -207.3L309.95 -207.3L309.95 -207.35L243.9 -207.35L243.9 -207.3" />
<path style="fill:#BF9E7F;fill-opacity:1" d="M310.05,-210.1L310.05 -210.2L313 -210.2L313 232.9L-133.1 232.9L-133.1 229.95L-133 229.95L-133 230L-7 230L-7 229.95L-6.9 229.95L-6.9 230L143 230L143 229.95L143.1 229.95L143.1 230L310.1 230L310.1 -210.1L310.05 -210.1" />
<path style="fill:#DDC9BB;fill-opacity:1" d="M-142.95,-206.95L-142.95 193.75L-142.95 -206.95" />
</g>
</svg>
