<?xml version="1.0" encoding="utf-8"?>
<svg version="1.1" id="Layer_1"
xmlns="http://www.w3.org/2000/svg"
xmlns:xlink="http://www.w3.org/1999/xlink"
xmlns:author="http://www.sothink.com"
width="100px" height="74px"
xml:space="preserve">
<g id="117" transform="matrix(1, 0, 0, 1, -45.55, -66.45)">
<path style="fill:#046B81;fill-opacity:1" d="M67.35,91.4L67.35 94.5L66.75 94.5L66.75 92.25L66 92.7L66 92.15L66.5 91.9L66.9 91.4L67.35 91.4M69.25,91.4Q69.7 91.4 69.95 91.7L70.25 92.95L69.95 94.25L69.25 94.55Q68.8 94.55 68.5 94.2Q68.25 93.85 68.25 92.95Q68.25 92.1 68.55 91.7Q68.8 91.4 69.25 91.4M69.25,91.85L69.05 91.95L68.9 92.2L68.85 92.95L68.9 93.7L69.05 94L69.25 94.05L69.45 94L69.55 93.75L69.65 92.95L69.55 92.2L69.45 91.95L69.25 91.85M72.4,91.7Q72.7 92.1 72.7 92.95L72.4 94.25L71.7 94.55Q71.25 94.55 70.95 94.2Q70.7 93.85 70.7 92.95Q70.7 92.1 71 91.7Q71.25 91.4 71.7 91.4Q72.15 91.4 72.4 91.7M71.7,91.85L71.5 91.95L71.35 92.2L71.3 92.95L71.35 93.7L71.5 94L71.7 94.05L71.9 94L72 93.75L72.1 92.95L72 92.2L71.9 91.95L71.7 91.85M71.5,107.15L71.35 107.4L71.3 108.15L71.35 108.9L71.5 109.2L71.7 109.25L71.9 109.2L72 108.95L72.1 108.15L72 107.4L71.9 107.15L71.7 107.05L71.5 107.15M72.7,108.15L72.4 109.45L71.7 109.75Q71.25 109.75 70.95 109.4Q70.7 109.05 70.7 108.15Q70.7 107.3 71 106.9Q71.25 106.6 71.7 106.6Q72.15 106.6 72.4 106.9Q72.7 107.3 72.7 108.15M70.05,107.9L70.35 108.65L70.1 109.35Q69.8 109.75 69.25 109.75Q68.85 109.75 68.55 109.5L68.25 108.9L68.85 108.85L69 109.15L69.3 109.3L69.6 109.15L69.7 108.65L69.6 108.25L69.25 108.1Q69 108.1 68.8 108.3L68.3 108.25L68.6 106.65L70.2 106.65L70.2 107.2L69.05 107.2L69 107.7L69.4 107.6Q69.8 107.6 70.05 107.9M71.7,123.35Q72.15 123.35 72.4 123.65Q72.7 124.05 72.7 124.9L72.4 126.2L71.7 126.5Q71.25 126.5 70.95 126.15Q70.7 125.8 70.7 124.9Q70.7 124.05 71 123.65Q71.25 123.35 71.7 123.35M71.5,123.9L71.35 124.15L71.3 124.9L71.35 125.65L71.5 125.95L71.7 126L71.9 125.95L72 125.7L72.1 124.9L72 124.15L71.9 123.9L71.7 123.8L71.5 123.9M80.65,131.9L80.5 132.15L80.45 132.9L80.5 133.65L80.65 133.95L80.85 134L81.05 133.95L81.15 133.7L81.25 132.9L81.15 132.15L81.05 131.9L80.85 131.8L80.65 131.9M80.85,131.35Q81.3 131.35 81.55 131.65Q81.85 132.05 81.85 132.9L81.55 134.2L80.85 134.5Q80.4 134.5 80.1 134.15Q79.85 133.8 79.85 132.9Q79.85 132.05 80.15 131.65Q80.4 131.35 80.85 131.35M135.25,131.65Q135.5 131.35 135.95 131.35Q136.4 131.35 136.65 131.65L136.95 132.9L136.65 134.2Q136.4 134.5 135.95 134.5Q135.5 134.5 135.2 134.15Q134.95 133.8 134.95 132.9Q134.95 132.05 135.25 131.65M136.25,132.15L136.15 131.9L135.95 131.8L135.75 131.9L135.6 132.15L135.55 132.9L135.6 133.65L135.75 133.95L135.95 134L136.15 133.95L136.25 133.7L136.35 132.9L136.25 132.15M134.45,131.95L133.3 131.95L133.25 132.45L133.65 132.35Q134.05 132.35 134.3 132.65L134.6 133.4L134.35 134.1Q134.05 134.5 133.5 134.5Q133.1 134.5 132.8 134.25L132.5 133.65L133.1 133.6L133.25 133.9Q133.35 134.05 133.55 134.05L133.85 133.9L133.95 133.4L133.85 133Q133.7 132.85 133.5 132.85L133.05 133.05L132.55 133L132.85 131.4L134.45 131.4L134.45 131.95M105.75,132.1L106.25 131.85L106.65 131.35L107.1 131.35L107.1 134.45L106.5 134.45L106.5 132.2L105.75 132.65L105.75 132.1M110.05,132.9L109.75 134.2L109.05 134.5Q108.6 134.5 108.3 134.15Q108.05 133.8 108.05 132.9Q108.05 132.05 108.35 131.65Q108.6 131.35 109.05 131.35Q109.5 131.35 109.75 131.65L110.05 132.9M108.85,131.9L108.7 132.15L108.65 132.9L108.7 133.65L108.85 133.95L109.05 134L109.25 133.95L109.35 133.7L109.45 132.9L109.35 132.15L109.25 131.9L109.05 131.8L108.85 131.9" />
<linearGradient
id="LinearGradID_355" gradientUnits="userSpaceOnUse" gradientTransform="matrix(-0.000167847, -0.0328979, 0.0333862, -0.000167847, 103.75, 111.65)" spreadMethod ="pad" x1="-819.2" y1="0" x2="819.2" y2="0" >
<stop  offset="0.847059" style="stop-color:#DBE6BE;stop-opacity:1" />
<stop  offset="0.984314" style="stop-color:#9DD6DD;stop-opacity:1" />
</linearGradient>
<path style="fill:url(#LinearGradID_355) " d="M62.55,84.3L136.3 84.3L145 84.3L145 139L62.55 139L62.55 130.35L62.55 84.3M66.9,91.4L66.5 91.9L66 92.15L66 92.7L66.75 92.25L66.75 94.5L67.35 94.5L67.35 91.4L66.9 91.4M68.55,91.7Q68.25 92.1 68.25 92.95Q68.25 93.85 68.5 94.2Q68.8 94.55 69.25 94.55L69.95 94.25L70.25 92.95L69.95 91.7Q69.7 91.4 69.25 91.4Q68.8 91.4 68.55 91.7M69.45,91.95L69.55 92.2L69.65 92.95L69.55 93.75L69.45 94L69.25 94.05L69.05 94L68.9 93.7L68.85 92.95L68.9 92.2L69.05 91.95L69.25 91.85L69.45 91.95M71.7,91.4Q71.25 91.4 71 91.7Q70.7 92.1 70.7 92.95Q70.7 93.85 70.95 94.2Q71.25 94.55 71.7 94.55L72.4 94.25L72.7 92.95Q72.7 92.1 72.4 91.7Q72.15 91.4 71.7 91.4M71.9,91.95L72 92.2L72.1 92.95L72 93.75L71.9 94L71.7 94.05L71.5 94L71.35 93.7L71.3 92.95L71.35 92.2L71.5 91.95L71.7 91.85L71.9 91.95M71.7,107.05L71.9 107.15L72 107.4L72.1 108.15L72 108.95L71.9 109.2L71.7 109.25L71.5 109.2L71.35 108.9L71.3 108.15L71.35 107.4L71.5 107.15L71.7 107.05M72.4,106.9Q72.15 106.6 71.7 106.6Q71.25 106.6 71 106.9Q70.7 107.3 70.7 108.15Q70.7 109.05 70.95 109.4Q71.25 109.75 71.7 109.75L72.4 109.45L72.7 108.15Q72.7 107.3 72.4 106.9M69.4,107.6L69 107.7L69.05 107.2L70.2 107.2L70.2 106.65L68.6 106.65L68.3 108.25L68.8 108.3Q69 108.1 69.25 108.1L69.6 108.25L69.7 108.65L69.6 109.15L69.3 109.3L69 109.15L68.85 108.85L68.25 108.9L68.55 109.5Q68.85 109.75 69.25 109.75Q69.8 109.75 70.1 109.35L70.35 108.65L70.05 107.9Q69.8 107.6 69.4 107.6M71,123.65Q70.7 124.05 70.7 124.9Q70.7 125.8 70.95 126.15Q71.25 126.5 71.7 126.5L72.4 126.2L72.7 124.9Q72.7 124.05 72.4 123.65Q72.15 123.35 71.7 123.35Q71.25 123.35 71 123.65M71.7,123.8L71.9 123.9L72 124.15L72.1 124.9L72 125.7L71.9 125.95L71.7 126L71.5 125.95L71.35 125.65L71.3 124.9L71.35 124.15L71.5 123.9L71.7 123.8M80.85,131.8L81.05 131.9L81.15 132.15L81.25 132.9L81.15 133.7L81.05 133.95L80.85 134L80.65 133.95L80.5 133.65L80.45 132.9L80.5 132.15L80.65 131.9L80.85 131.8M80.15,131.65Q79.85 132.05 79.85 132.9Q79.85 133.8 80.1 134.15Q80.4 134.5 80.85 134.5L81.55 134.2L81.85 132.9Q81.85 132.05 81.55 131.65Q81.3 131.35 80.85 131.35Q80.4 131.35 80.15 131.65M134.95,132.9Q134.95 133.8 135.2 134.15Q135.5 134.5 135.95 134.5Q136.4 134.5 136.65 134.2L136.95 132.9L136.65 131.65Q136.4 131.35 135.95 131.35Q135.5 131.35 135.25 131.65Q134.95 132.05 134.95 132.9M136.35,132.9L136.25 133.7L136.15 133.95L135.95 134L135.75 133.95L135.6 133.65L135.55 132.9L135.6 132.15L135.75 131.9L135.95 131.8L136.15 131.9L136.25 132.15L136.35 132.9M134.45,131.4L132.85 131.4L132.55 133L133.05 133.05L133.5 132.85Q133.7 132.85 133.85 133L133.95 133.4L133.85 133.9L133.55 134.05Q133.35 134.05 133.25 133.9L133.1 133.6L132.5 133.65L132.8 134.25Q133.1 134.5 133.5 134.5Q134.05 134.5 134.35 134.1L134.6 133.4L134.3 132.65Q134.05 132.35 133.65 132.35L133.25 132.45L133.3 131.95L134.45 131.95L134.45 131.4M105.75,132.65L106.5 132.2L106.5 134.45L107.1 134.45L107.1 131.35L106.65 131.35L106.25 131.85L105.75 132.1L105.75 132.65M109.75,131.65Q109.5 131.35 109.05 131.35Q108.6 131.35 108.35 131.65Q108.05 132.05 108.05 132.9Q108.05 133.8 108.3 134.15Q108.6 134.5 109.05 134.5L109.75 134.2L110.05 132.9L109.75 131.65M109.05,131.8L109.25 131.9L109.35 132.15L109.45 132.9L109.35 133.7L109.25 133.95L109.05 134L108.85 133.95L108.7 133.65L108.65 132.9L108.7 132.15L108.85 131.9L109.05 131.8" />
<linearGradient
id="LinearGradID_356" gradientUnits="userSpaceOnUse" gradientTransform="matrix(1.52588e-005, -0.0335083, 0.0333862, 1.52588e-005, 95.05, 103)" spreadMethod ="pad" x1="-819.2" y1="0" x2="819.2" y2="0" >
<stop  offset="0.847059" style="stop-color:#DBE6BE;stop-opacity:1" />
<stop  offset="0.984314" style="stop-color:#9DD6DD;stop-opacity:1" />
</linearGradient>
<path style="fill:url(#LinearGradID_356) " d="M53.85,75.65L128.5 75.65L136.3 75.65L136.3 84.3L62.55 84.3L62.55 130.35L53.85 130.35L53.85 121.65L53.85 75.65" />
<linearGradient
id="LinearGradID_357" gradientUnits="userSpaceOnUse" gradientTransform="matrix(0, -0.0332031, 0.0333862, 0, 87.25, 94.3)" spreadMethod ="pad" x1="-819.2" y1="0" x2="819.2" y2="0" >
<stop  offset="0.847059" style="stop-color:#DBE6BE;stop-opacity:1" />
<stop  offset="0.984314" style="stop-color:#9DD6DD;stop-opacity:1" />
</linearGradient>
<path style="fill:url(#LinearGradID_357) " d="M53.85,121.65L46.05 121.65L46.05 66.95L128.5 66.95L128.5 75.65L53.85 75.65L53.85 121.65" />
<path style="fill:none;stroke-width:1;stroke-linecap:round;stroke-linejoin:round;stroke-miterlimit:3;stroke:#046B81;stroke-opacity:1" d="M62.55,130.35L62.55 139L145 139L145 84.3L136.3 84.3L62.55 84.3L62.55 130.35L53.85 130.35L53.85 121.65L46.05 121.65L46.05 66.95L128.5 66.95L128.5 75.65L136.3 75.65L136.3 84.3M128.5,75.65L53.85 75.65L53.85 121.65M76,90.25L76 128.75L139.75 128.75" />
</g>
</svg>
