<?xml version="1.0" encoding="utf-8"?>
<svg version="1.1" id="Layer_1"
xmlns="http://www.w3.org/2000/svg"
xmlns:xlink="http://www.w3.org/1999/xlink"
xmlns:author="http://www.sothink.com"
width="66px" height="47px"
xml:space="preserve">
<g id="63" transform="matrix(1, 0, 0, 1, 32.6, 23.35)">
<path style="fill:#ECECEC;fill-opacity:1" d="M-6.25,-14.2L-6.4 -14.2L-6.45 -14.4L-20.75 -10.55L-21.5 -11.25L-0.75 -18.15L-0.75 -18.1L7.85 -20.95L7.85 -21L14.8 -23.35L14.6 -20.6L14.6 -20.55L9.25 -18.65L9.25 -18.5L0.85 -15.6L-0.75 -15.3L-0.75 -15.2L-0.75 -15.15L-0.7 -15.1L-0.75 -15.1L-0.85 -15L-0.85 -15.05L-6.25 -13.25L-6.25 -14.2M-20.05,-9.85L-7.1 -13.35L-7.1 -12.95L-9.15 -12.3L-10.85 -12L-10.7 -11.8L-10.75 -11.8L-10.85 -11.7L-10.85 -11.75L-19.25 -9.1L-20.05 -9.85M-29.4,-9.05L-29.35 -9.3L-29.35 -5.35L-30.7 -4.9L-32.6 -8.1L-29.4 -9.05M32.65,0.15L32.6 3.5L-16.65 23.35L-16.6 19.45L30.8 1L30.75 0.9L30.8 0.9L32.5 0.25L32.65 0.15" />
<path style="fill:#D9DBDB;fill-opacity:1" d="M32.5,0.25L30.8 0.9L30.75 0.9L14.6 -20.6L14.8 -23.35L32.5 0.25M-32.4,-4.05L-32.6 -8.1L-30.7 -4.9L-20.6 13.25L-20.5 16.9L-32.4 -4.05" />
<path style="fill:#715944;fill-opacity:1" d="M30.75,0.9L30.8 1L-16.6 19.45L-16.65 23.35L-20.5 16.9L-20.6 13.25L-30.7 -4.9L-29.35 -5.35L-29.3 -4.25L-26.3 0.8L-17.6 -1.9L-17.55 -7.5L-17.6 -7.6L-17.6 -7.55L-19.25 -9.1L-10.85 -11.75L-10.85 -11.7L-10.75 -11.8L-10.7 -11.8L-10.85 -12L-9.15 -12.3L-7.1 -12.95L-7.1 -10.75L-12 -9.25L-7.1 -2.75L-3.95 1.5L5.9 -1.8L8.15 -2.6L3.8 -7.8L7.1 -9.05L11.55 -3.35L19.4 -6.3L21.05 -6.95L22.45 -7.45L13.9 -18.1L2.95 -14.1L5.85 -10.7L2.4 -9.5L-0.4 -12.85L-6.25 -11.05L-6.25 -13.25L-0.85 -15.05L-0.85 -15L-0.75 -15.1L-0.7 -15.1L-0.75 -15.15L-0.75 -15.2L-0.75 -15.3L0.85 -15.6L9.25 -18.5L9.25 -18.65L14.6 -20.55L14.6 -20.6L30.75 0.9" />
<path style="fill:#977859;fill-opacity:1" d="M-0.75,-10.1L-6.25 -8.3L-6.25 -11.05L-0.4 -12.85L2.4 -9.5L0.3 -8.8L-0.75 -10.1M2.95,-14.1L13.9 -18.1L22.45 -7.45L21.05 -6.95L20.2 -6.65L18.05 -9.3L18.05 -9.6L19.6 -10.4L19.2 -11.15L17.35 -10.2L13.55 -14.95L5 -11.8L2.95 -14.1M1.75,-7L3.8 -7.8L8.15 -2.6L5.9 -1.8L1.75 -7M-10.2,-7.05L-12 -9.25L-7.1 -10.75L-7.1 -8.05L-10.2 -7.05" />
<path style="fill:#DDC5BB;fill-opacity:1" d="M-1.7,-5.65L-1.7 -1.6L-2.2 -1.6L-2.2 -1.8L-2.2 -6.1L-1.9 -6.1L-1.75 -6.1L-1.8 -6.3L12 -11.35L12.05 -11.65L12.05 -11.2L12.1 -11L12.05 -10.8L12.05 -6.7L11.65 -6.7L11.65 -10.65L11.55 -10.6L11.55 -10.7L11.05 -10.45L10.9 -10.4L10.35 -10.3L10.35 -10.2L7.1 -9.05L3.8 -7.8L1.75 -7L-1.7 -5.65" />
<path style="fill:#EFE3DE;fill-opacity:1" d="M-1.8,-6.3L-1.85 -6.25L-1.9 -6.3L-1.9 -6.1L-2.2 -6.1L-2.2 -1.8L-3.6 -4.1L-3.5 -7.4L-3.35 -7.3L-3.5 -7.45L0.3 -8.8L2.4 -9.5L5.85 -10.7L10.85 -12.45L12 -11.35L-1.8 -6.3" />
<path style="fill:#8E9DCA;fill-opacity:1" d="M19.4,-6.3L11.55 -3.35L7.1 -9.05L10.35 -10.2L10.35 -8.7L11.55 -6.9L11.55 -10.6L11.65 -10.65L11.65 -6.7L12.05 -6.7L12.05 -10.8L12.1 -11L12.05 -11.2L12.05 -11.65L12 -11.35L10.85 -12.45L5.85 -10.7L5 -11.8L13.55 -14.95L17.35 -10.2L17.3 -10.2L17.2 -10.2L17.2 -6.45L18.05 -6.45L18.05 -9.3L20.2 -6.65L19.4 -6.3M-10.2,-7.05L-7.1 -8.05L-7.1 -3.6L-6.25 -3.6L-6.25 -8.3L-0.75 -10.1L0.3 -8.8L-3.5 -7.45L-3.35 -7.3L-3.5 -7.4L-3.6 -4.1L-2.2 -1.8L-2.2 -1.6L-1.7 -1.6L-1.7 -5.65L1.75 -7L5.9 -1.8L-3.95 1.5L-7.1 -2.75L-10.2 -7.05M-1.9,-6.1L-1.9 -6.3L-1.85 -6.25L-1.8 -6.3L-1.75 -6.1L-1.9 -6.1M-22.35,-2.15L-24.6 -1.55L-24.5 -3.65L-22.25 -4.25L-22.35 -2.15" />
<linearGradient
id="LinearGradID_160" gradientUnits="userSpaceOnUse" gradientTransform="matrix(0.000228882, 0.000457764, -0.00115967, 0.000579834, 18.4, -10.35)" spreadMethod ="pad" x1="-819.2" y1="0" x2="819.2" y2="0" >
<stop  offset="0" style="stop-color:#A7907A;stop-opacity:1" />
<stop  offset="1" style="stop-color:#D9CFC6;stop-opacity:1" />
</linearGradient>
<path style="fill:url(#LinearGradID_160) " d="M17.7,-9.45L17.3 -10.2L17.35 -10.2L19.2 -11.15L19.6 -10.4L18.05 -9.6L17.7 -9.45" />
<linearGradient
id="LinearGradID_161" gradientUnits="userSpaceOnUse" gradientTransform="matrix(0.000518799, 0, 0, 0.00228882, 17.6, -8.35)" spreadMethod ="pad" x1="-819.2" y1="0" x2="819.2" y2="0" >
<stop  offset="0" style="stop-color:#A7907A;stop-opacity:1" />
<stop  offset="1" style="stop-color:#D9CFC6;stop-opacity:1" />
</linearGradient>
<path style="fill:url(#LinearGradID_161) " d="M18.05,-9.6L18.05 -9.3L18.05 -6.45L17.2 -6.45L17.2 -10.2L17.3 -10.2L17.7 -9.45L18.05 -9.6" />
<path style="fill:#BA8874;fill-opacity:1" d="M11.55,-10.6L11.55 -6.9L10.35 -8.7L10.35 -10.2L10.35 -10.3L10.9 -10.4L11.05 -10.45L11.55 -10.7L11.55 -10.6" />
<path style="fill:#DBE6BE;fill-opacity:1" d="M-19.25,-9.1L-17.6 -7.55L-17.6 -7.35L-26.1 -4.85L-29.3 -9.45L-21.5 -11.25L-20.75 -10.55L-22.7 -10.05L-22.6 -9.75L-22.65 -9.75L-22.65 -8.15L-21.8 -8.15L-21.8 -9.4L-20.05 -9.85L-19.25 -9.1" />
<linearGradient
id="LinearGradID_162" gradientUnits="userSpaceOnUse" gradientTransform="matrix(-0.000137329, -0.00050354, 0.0098877, -0.00265503, -14.45, -11.8)" spreadMethod ="pad" x1="-819.2" y1="0" x2="819.2" y2="0" >
<stop  offset="0" style="stop-color:#A7907A;stop-opacity:1" />
<stop  offset="1" style="stop-color:#D9CFC6;stop-opacity:1" />
</linearGradient>
<path style="fill:url(#LinearGradID_162) " d="M-6.25,-13.55L-7.1 -13.35L-20.05 -9.85L-21.8 -9.4L-21.8 -9.75L-22.6 -9.75L-22.7 -10.05L-20.75 -10.55L-6.45 -14.4L-6.4 -14.2L-6.25 -13.55" />
<linearGradient
id="LinearGradID_163" gradientUnits="userSpaceOnUse" gradientTransform="matrix(0.000518799, 0, 0, 0.000976563, -22.25, -8.95)" spreadMethod ="pad" x1="-819.2" y1="0" x2="819.2" y2="0" >
<stop  offset="0" style="stop-color:#A7907A;stop-opacity:1" />
<stop  offset="1" style="stop-color:#D9CFC6;stop-opacity:1" />
</linearGradient>
<path style="fill:url(#LinearGradID_163) " d="M-21.8,-9.4L-21.8 -8.15L-22.65 -8.15L-22.65 -9.75L-22.6 -9.75L-21.8 -9.75L-21.8 -9.4" />
<path style="fill:#C9BD6B;fill-opacity:1" d="M-26.3,0.8L-29.3 -4.25L-29.35 -5.35L-29.35 -9.3L-29.3 -9.45L-26.1 -4.85L-26.3 0.8" />
<path style="fill:#DCD5A3;fill-opacity:1" d="M-26.1,-4.85L-17.6 -7.35L-17.6 -7.55L-17.6 -7.6L-17.55 -7.5L-17.6 -1.9L-26.3 0.8L-26.1 -4.85M-22.25,-4.25L-24.5 -3.65L-24.6 -1.55L-22.35 -2.15L-22.25 -4.25" />
<linearGradient
id="LinearGradID_164" gradientUnits="userSpaceOnUse" gradientTransform="matrix(0.000518799, 0, 0, 0.00646973, -6.7, -8.9)" spreadMethod ="pad" x1="-819.2" y1="0" x2="819.2" y2="0" >
<stop  offset="0" style="stop-color:#A7907A;stop-opacity:1" />
<stop  offset="1" style="stop-color:#D9CFC6;stop-opacity:1" />
</linearGradient>
<path style="fill:url(#LinearGradID_164) " d="M-6.25,-8.3L-6.25 -3.6L-7.1 -3.6L-7.1 -8.05L-7.1 -10.75L-7.1 -12.95L-7.1 -13.35L-6.25 -13.55L-6.4 -14.2L-6.25 -14.2L-6.25 -13.25L-6.25 -11.05L-6.25 -8.3" />
<path style="fill:#8E9DCA;fill-opacity:1" d="M0.05,-10.4L1.15 -9.05L-3.5 -7.45L-3.35 -7.3L-3.5 -7.4L-3.55 -5.3L-2.25 -3.7L-1.4 -4.05L-1.7 -3.95L-1.7 -5.65L-0.6 -6.05L-0.65 -6.1L2.4 -7.2L3.55 -5.85L3.6 -5.85L4.75 -4.5L4.8 -4.5L5.6 -3.6L6.8 -2.1L5.45 -1.7L5.9 -1.8L-3.95 1.5L-10.15 -7L-10.2 -7L-10.2 -7.05L-11.35 -8.45L-7.2 -9.8L-7.1 -8.05L-7.1 -3.6L-6.25 -3.6L-6.25 -8.3L-6.2 -8.3L-6.15 -10.05L-0.9 -11.6L0.05 -10.4M-0.15,-10.45L-0.1 -10.5L-0.15 -10.5L-0.2 -10.5L-0.15 -10.45M-1.95,-8.1L-2.4 -8.65L-2.5 -8.6L-2 -8.05L-1.95 -8.1" />
<path style="fill:#FFFF00;fill-opacity:1" d="M-22.35,-2.15L-24.6 -1.55L-24.5 -3.65L-22.25 -4.25L-22.35 -2.15" />
</g>
</svg>
