<?xml version="1.0" encoding="utf-8"?>
<svg version="1.1" id="Layer_1"
xmlns="http://www.w3.org/2000/svg"
xmlns:xlink="http://www.w3.org/1999/xlink"
xmlns:author="http://www.sothink.com"
width="360px" height="12px"
xml:space="preserve">
<g id="127" transform="matrix(1, 0, 0, 1, 178.6, 5.25)">
<path style="fill:#000066;fill-opacity:1" d="M30.1,-3.25L30.1 3.95Q30.1 5.25 29.5 5.8Q28.95 6.3 27.45 6.3L21.4 6.3Q19.95 6.3 19.4 5.8Q18.85 5.3 18.85 3.95L18.85 -3.25L21.5 -3.25L21.5 4.15L27.4 4.15L27.4 -3.25L30.1 -3.25M36.7,-3.25L36.7 4.15L43.85 4.15L43.85 6.3L34.05 6.3L34.05 -3.25L36.7 -3.25M14.8,-3.25L14.8 6.3L12.3 6.3L12.3 0.05L8.55 5.2L7.9 5.2L4.1 0.15L4.1 6.3L1.9 6.3L1.9 -3.25L4 -3.25L8.35 2.15L12.7 -3.25L14.8 -3.25M76.2,-3.25L76.2 6.3L73.55 6.3L73.55 -3.25L76.2 -3.25M80.3,-2.75Q80.85 -3.25 82.35 -3.25L89.4 -3.25Q90.9 -3.25 91.45 -2.75Q92 -2.2 92 -0.9L92 3.95Q92 5.25 91.45 5.8Q90.9 6.3 89.4 6.3L82.35 6.3Q80.85 6.3 80.3 5.8Q79.75 5.25 79.75 3.95L79.75 -0.9Q79.75 -2.2 80.3 -2.75M59.3,-3.25L70.75 -3.25L70.75 -1.2L66.35 -1.2L66.35 6.3L63.7 6.3L63.7 -1.2L59.3 -1.2L59.3 -3.25M52.75,-3.25L58.35 6.3L55.5 6.3L54.35 4.3L48.55 4.3L47.4 6.3L44.85 6.3L50.35 -3.25L52.75 -3.25M121.25,-4.65Q121.9 -5.25 123.6 -5.25L131.25 -5.25Q132.95 -5.25 133.6 -4.65Q134.25 -4.05 134.25 -2.5L134.25 -2.1L131.3 -1.6L131.3 -2.85L123.65 -2.85L123.65 3.8L131.3 3.8L131.3 1.7L127.05 1.7L127.05 -0.6L134.25 -0.6L134.25 3.45Q134.25 5.05 133.6 5.7Q133 6.3 131.25 6.3L123.6 6.3Q121.9 6.3 121.25 5.7Q120.6 5.1 120.6 3.45L120.6 -2.4Q120.6 -4 121.25 -4.65M82.45,-1.15L82.45 4.1L89.35 4.1L89.35 -1.15L82.45 -1.15M97.6,-3.25L105.05 2.8L105.05 -3.25L107.5 -3.25L107.5 6.3L105.65 6.3L98.25 0.15L98.25 6.3L95.8 6.3L95.8 -3.25L97.6 -3.25M155.25,-3.25L159.6 2.15L163.95 -3.25L166.05 -3.25L166.05 6.3L163.55 6.3L163.55 0.05L159.8 5.2L159.15 5.2L155.35 0.15L155.35 6.3L153.15 6.3L153.15 -3.25L155.25 -3.25M145.4,-3.25L151 6.3L148.15 6.3L147 4.3L141.2 4.3L140.05 6.3L137.5 6.3L143 -3.25L145.4 -3.25M180.3,-1.2L172.75 -1.2L172.75 0.35L177.15 0.35L177.15 2.35L172.75 2.35L172.75 4.15L180.45 4.15L180.45 6.3L170.1 6.3L170.1 -3.25L180.3 -3.25L180.3 -1.2M146,2.2L144.1 -1.15L142.25 2.2L146 2.2M53.35,2.2L51.45 -1.15L49.6 2.2L53.35 2.2M-175.6,-5.25L-169 -5.25Q-167.25 -5.25 -166.65 -4.65Q-166 -4 -166 -2.4L-166 -1.2L-169 -0.75L-169 -2.85L-175.55 -2.85L-175.55 3.8L-169 3.8L-169 1.4L-166 1.95L-166 3.45Q-166 5.05 -166.6 5.7Q-167.25 6.3 -169 6.3L-175.6 6.3Q-177.3 6.3 -177.95 5.7Q-178.6 5.1 -178.6 3.45L-178.6 -2.4Q-178.6 -4 -177.95 -4.65Q-177.3 -5.25 -175.6 -5.25M-159.05,-1.15L-159.05 4.1L-152.15 4.1L-152.15 -1.15L-159.05 -1.15M-152.1,-3.25Q-150.6 -3.25 -150.05 -2.75Q-149.5 -2.2 -149.5 -0.9L-149.5 3.95Q-149.5 5.25 -150.05 5.8Q-150.6 6.3 -152.1 6.3L-159.15 6.3Q-160.65 6.3 -161.2 5.8Q-161.75 5.25 -161.75 3.95L-161.75 -0.9Q-161.75 -2.2 -161.2 -2.75Q-160.65 -3.25 -159.15 -3.25L-152.1 -3.25M-130.75,-2.75Q-130.2 -3.25 -128.7 -3.25L-123.3 -3.25Q-121.85 -3.25 -121.25 -2.75Q-120.65 -2.25 -120.65 -1.05L-120.65 -0.65L-123.05 -0.2L-123.05 -1.2L-128.85 -1.2L-128.85 0.3L-123.15 0.3Q-121.65 0.3 -121.1 0.8Q-120.55 1.35 -120.55 2.65L-120.55 3.95Q-120.55 5.25 -121.1 5.8Q-121.7 6.3 -123.15 6.3L-129.05 6.3Q-130.6 6.3 -131.15 5.8Q-131.7 5.3 -131.7 3.95L-131.7 3.5L-129.3 3.1L-129.3 4.15L-123 4.15L-123 2.5L-128.7 2.5Q-130.2 2.5 -130.75 2Q-131.3 1.5 -131.3 0.15L-131.3 -0.9Q-131.3 -2.2 -130.75 -2.75M-139.2,-3.25L-133.6 6.3L-136.45 6.3L-137.6 4.3L-143.4 4.3L-144.55 6.3L-147.1 6.3L-141.6 -3.25L-139.2 -3.25M-99.9,-5.25L-99.9 3.8L-91.55 3.8L-91.55 6.3L-102.95 6.3L-102.95 -5.25L-99.9 -5.25M-118,-1.2L-118 -3.25L-106.55 -3.25L-106.55 -1.2L-110.95 -1.2L-110.95 6.3L-113.6 6.3L-113.6 -1.2L-118 -1.2M-78.45,-1.2L-86 -1.2L-86 0.35L-81.6 0.35L-81.6 2.35L-86 2.35L-86 4.15L-78.3 4.15L-78.3 6.3L-88.65 6.3L-88.65 -3.25L-78.45 -3.25L-78.45 -1.2M-68.75,-3.25L-63.15 6.3L-66 6.3L-67.15 4.3L-72.95 4.3L-74.1 6.3L-76.65 6.3L-71.15 -3.25L-68.75 -3.25M-53.55,-1.25L-58.4 -1.25L-58.4 0.85L-53.55 0.85L-52.9 0.7Q-52.75 0.6 -52.75 0.3L-52.75 -0.75Q-52.75 -1.05 -52.9 -1.15L-53.55 -1.25M-50.2,-1.25L-50.2 0.9Q-50.2 1.9 -50.8 2.35Q-51.35 2.85 -52.6 2.85L-53.6 2.85L-49.3 6.3L-52.8 6.3L-56.6 2.85L-58.4 2.85L-58.4 6.3L-61 6.3L-61 -3.25L-52.6 -3.25Q-51.4 -3.25 -50.8 -2.8Q-50.2 -2.3 -50.2 -1.25M-44.85,-3.25L-37.4 2.8L-37.4 -3.25L-34.95 -3.25L-34.95 6.3L-36.8 6.3L-44.2 0.15L-44.2 6.3L-46.65 6.3L-46.65 -3.25L-44.85 -3.25M-21.5,-2.4Q-21.5 -4 -20.9 -4.65Q-20.25 -5.25 -18.55 -5.25L-12.2 -5.25Q-10.55 -5.25 -9.9 -4.65Q-9.25 -4.05 -9.25 -2.6L-9.25 -2.2L-11.95 -1.6L-11.95 -2.9L-18.8 -2.9L-18.8 -0.9L-12.1 -0.9Q-10.35 -0.9 -9.75 -0.3Q-9.1 0.35 -9.1 1.95L-9.1 3.45Q-9.1 5.05 -9.75 5.7Q-10.35 6.3 -12.1 6.3L-18.95 6.3Q-20.7 6.3 -21.35 5.7Q-21.95 5.05 -21.95 3.45L-21.95 3L-19.25 2.45L-19.25 3.8L-11.8 3.8L-11.8 1.65L-18.55 1.65Q-20.25 1.65 -20.9 1.05Q-21.5 0.45 -21.5 -1.2L-21.5 -2.4M-1.9,-3.25L-1.9 6.3L-4.55 6.3L-4.55 -3.25L-1.9 -3.25M-68.15,2.2L-70.05 -1.15L-71.9 2.2L-68.15 2.2M-138.6,2.2L-140.5 -1.15L-142.35 2.2L-138.6 2.2" />
</g>
</svg>
