<?xml version="1.0" encoding="utf-8"?>
<svg version="1.1" id="Layer_1"
xmlns="http://www.w3.org/2000/svg"
xmlns:xlink="http://www.w3.org/1999/xlink"
xmlns:author="http://www.sothink.com"
width="441px" height="441px"
xml:space="preserve">
<g id="137" transform="matrix(1, 0, 0, 1, 220.4, 220.7)">
<path style="fill:none;stroke-width:1;stroke-linecap:round;stroke-linejoin:round;stroke-miterlimit:3;stroke:#000000;stroke-opacity:1" d="M88.1,-214.2L88.1 -220.2L82.1 -220.2M104.05,-220.2L110.05 -220.2L110.05 -214.2M98.05,-220.2L92.05 -220.2M132.05,-210.2L132.05 -216.2M142.05,-220.2L136.05 -220.2M120.05,-220.2L114.05 -220.2M132.05,-220.2L126.05 -220.2M170.05,-220.2L182.05 -220.2M148.05,-220.2L154.05 -220.2L154.05 -214.2M176.05,-210.2L176.05 -216.2M164.05,-220.2L158.05 -220.2M204.05,-220.2L198.05 -220.2L198.05 -214.2M220.1,-218.2L220.1 -212.2M210.05,-220.2L216.05 -220.2M188.05,-220.2L194.05 -220.2M-65.9,-210.2L-65.9 -216.2M-93.9,-220.2L-87.9 -220.2L-87.9 -214.2M-55.9,-220.2L-61.9 -220.2M-77.9,-220.2L-83.9 -220.2M-65.9,-220.2L-71.9 -220.2M-49.9,-220.2L-43.9 -220.2L-43.9 -214.2M-27.9,-220.2L-21.9 -220.2L-21.9 -214.2M-33.9,-220.2L-39.9 -220.2M-11.9,-220.2L-17.9 -220.2M16.1,-220.2L28.1 -220.2M22.1,-210.2L22.1 -216.2M0.1,-210.2L0.1 -216.2M10.1,-220.2L4.1 -220.2M0.1,-220.2L-5.9 -220.2M44.1,-210.2L44.1 -216.2M66.1,-220.2L66.1 -214.2M34.1,-220.2L40.1 -220.2M56.1,-220.2L62.1 -220.2M44.1,-220.2L50.1 -220.2M66.1,-208.2L66.1 -202.2M60.1,-198.2L66.1 -198.2L66.1 -192.2M38.1,-198.2L44.1 -198.2L44.1 -204.2M44.1,-188.2L44.1 -194.2M44.1,-166.2L44.1 -172.2M38.1,-176.2L44.1 -176.2L44.1 -182.2M66.1,-166.2L66.1 -172.2M54.1,-176.2L48.1 -176.2M66.1,-186.2L66.1 -180.2M54.1,-198.2L48.1 -198.2M16.1,-198.2L22.1 -198.2L22.1 -204.2M22.1,-188.2L22.1 -194.2M-5.9,-198.2L0.1 -198.2L0.1 -204.2M10.1,-198.2L4.1 -198.2M0.1,-188.2L0.1 -194.2M0.1,-182.2L0.1 -170.2M10.1,-176.2L4.1 -176.2M16.1,-176.2L22.1 -176.2L22.1 -182.2M22.1,-166.2L22.1 -172.2M22.1,-160.2L22.1 -154.2L28.1 -154.2M22.1,-144.2L22.1 -150.2M12.1,-154.2L18.1 -154.2M0.1,-142.2L0.1 -136.2M6.1,-154.2L0.1 -154.2L0.1 -148.2M0.1,-126.2L0.1 -132.2L6.1 -132.2M0.1,-104.2L0.1 -110.2L6.1 -110.2M0.1,-120.2L0.1 -114.2M22.1,-138.2L22.1 -132.2L28.1 -132.2M12.1,-132.2L18.1 -132.2M22.1,-122.2L22.1 -128.2M12.1,-110.2L18.1 -110.2M66.1,-160.2L66.1 -154.2L60.1 -154.2M66.1,-144.2L66.1 -150.2M34.1,-154.2L40.1 -154.2M44.1,-142.2L44.1 -136.2M44.1,-116.2L44.1 -110.2L38.1 -110.2M34.1,-132.2L40.1 -132.2M44.1,-122.2L44.1 -128.2M44.1,-132.2L50.1 -132.2M56.1,-132.2L62.1 -132.2M66.1,-120.2L66.1 -114.2M66.1,-138.2L66.1 -126.2M54.1,-110.2L48.1 -110.2M54.1,-154.2L48.1 -154.2M44.1,-148.2L44.1 -160.2M32.1,-110.2L26.1 -110.2M0.1,-164.2L0.1 -158.2M32.1,-198.2L26.1 -198.2M32.1,-176.2L26.1 -176.2M-21.9,-208.2L-21.9 -202.2M-11.9,-198.2L-17.9 -198.2M-21.9,-192.2L-21.9 -198.2L-27.9 -198.2M-43.9,-208.2L-43.9 -202.2M-33.9,-198.2L-39.9 -198.2M-49.9,-198.2L-43.9 -198.2L-43.9 -192.2M-43.9,-166.2L-43.9 -172.2M-43.9,-176.2L-37.9 -176.2M-21.9,-170.2L-21.9 -176.2L-15.9 -176.2M-21.9,-186.2L-21.9 -180.2M-31.9,-176.2L-25.9 -176.2M-43.9,-186.2L-43.9 -180.2M-71.9,-198.2L-65.9 -198.2L-65.9 -204.2M-65.9,-188.2L-65.9 -194.2M-55.9,-198.2L-61.9 -198.2M-87.9,-208.2L-87.9 -202.2M-77.9,-198.2L-83.9 -198.2M-93.9,-198.2L-87.9 -198.2L-87.9 -192.2M-81.9,-176.2L-87.9 -176.2L-87.9 -170.2M-75.9,-176.2L-69.9 -176.2M-65.9,-182.2L-65.9 -176.2L-59.9 -176.2M-65.9,-166.2L-65.9 -172.2M-87.9,-186.2L-87.9 -180.2M-65.9,-160.2L-65.9 -154.2L-59.9 -154.2M-65.9,-144.2L-65.9 -150.2M-87.9,-144.2L-87.9 -150.2M-75.9,-154.2L-69.9 -154.2M-77.9,-110.2L-83.9 -110.2M-75.9,-132.2L-69.9 -132.2M-87.9,-122.2L-87.9 -128.2M-87.9,-138.2L-87.9 -132.2L-81.9 -132.2M-55.9,-132.2L-61.9 -132.2M-55.9,-110.2L-61.9 -110.2M-65.9,-120.2L-65.9 -114.2M-65.9,-126.2L-65.9 -138.2M-65.9,-104.2L-65.9 -110.2L-71.9 -110.2M-27.9,-154.2L-21.9 -154.2L-15.9 -154.2M-21.9,-154.2L-21.9 -148.2M-21.9,-142.2L-21.9 -136.2M-43.9,-142.2L-43.9 -136.2M-33.9,-154.2L-39.9 -154.2M-37.9,-132.2L-43.9 -132.2L-43.9 -126.2M-43.9,-120.2L-43.9 -114.2M-21.9,-116.2L-21.9 -110.2L-15.9 -110.2M-21.9,-132.2L-15.9 -132.2M-21.9,-122.2L-21.9 -128.2M-31.9,-110.2L-25.9 -110.2M-31.9,-132.2L-25.9 -132.2M-37.9,-110.2L-49.9 -110.2M-43.9,-148.2L-43.9 -160.2M-53.9,-176.2L-47.9 -176.2M-43.9,-132.2L-49.9 -132.2M-53.9,-154.2L-47.9 -154.2M-87.9,-164.2L-87.9 -158.2M-21.9,-164.2L-21.9 -158.2M-11.9,-88.2L-17.9 -88.2M-21.9,-100.2L-21.9 -106.2M-21.9,-88.2L-21.9 -94.2M-43.9,-100.2L-43.9 -106.2M-37.9,-88.2L-43.9 -88.2L-43.9 -94.2M-43.9,-72.2L-43.9 -66.2L-37.9 -66.2M-43.9,-78.2L-43.9 -84.2M-21.9,-72.2L-21.9 -60.2M-11.9,-66.2L-17.9 -66.2M-21.9,-78.2L-21.9 -84.2M-31.9,-66.2L-25.9 -66.2M-31.9,-88.2L-25.9 -88.2M-65.9,-98.2L-65.9 -92.2M-71.9,-88.2L-65.9 -88.2L-59.9 -88.2M-87.9,-98.2L-87.9 -92.2M-77.9,-88.2L-83.9 -88.2M-81.9,-66.2L-87.9 -66.2L-87.9 -60.2M-75.9,-66.2L-69.9 -66.2M-87.9,-76.2L-87.9 -70.2M-59.9,-66.2L-65.9 -66.2L-65.9 -60.2M-65.9,-76.2L-65.9 -70.2M-65.9,-88.2L-65.9 -82.2M-93.9,-88.2L-87.9 -88.2L-87.9 -82.2M-65.9,-54.2L-65.9 -48.2M-87.9,-54.2L-87.9 -48.2M-93.9,-44.2L-87.9 -44.2L-87.9 -38.2M-77.9,-44.2L-83.9 -44.2M-81.9,-22.2L-87.9 -22.2L-87.9 -16.2M-75.9,-22.2L-69.9 -22.2M-87.9,-32.2L-87.9 -26.2M-65.9,-28.2L-65.9 -16.2M-55.9,-22.2L-61.9 -22.2M-71.9,-44.2L-59.9 -44.2M-65.9,-34.2L-65.9 -40.2M-11.9,-44.2L-17.9 -44.2M-21.9,-54.2L-21.9 -48.2M-21.9,-38.2L-21.9 -44.2L-27.9 -44.2M-43.9,-38.2L-43.9 -50.2M-33.9,-44.2L-39.9 -44.2M-49.9,-22.2L-43.9 -22.2L-43.9 -16.2M-33.9,-22.2L-39.9 -22.2M-43.9,-32.2L-43.9 -26.2M-27.9,-22.2L-15.9 -22.2M-21.9,-12.2L-21.9 -18.2M-21.9,-32.2L-21.9 -26.2M-53.9,-44.2L-47.9 -44.2M-43.9,-56.2L-43.9 -62.2M-53.9,-88.2L-47.9 -88.2M-53.9,-66.2L-47.9 -66.2M66.1,-100.2L66.1 -106.2M60.1,-88.2L66.1 -88.2L66.1 -94.2M44.1,-100.2L44.1 -106.2M34.1,-88.2L40.1 -88.2M50.1,-66.2L38.1 -66.2M44.1,-76.2L44.1 -70.2M66.1,-72.2L66.1 -60.2M56.1,-66.2L62.1 -66.2M66.1,-78.2L66.1 -84.2M44.1,-82.2L44.1 -94.2M54.1,-88.2L48.1 -88.2M22.1,-98.2L22.1 -92.2M22.1,-82.2L22.1 -88.2L28.1 -88.2M12.1,-88.2L18.1 -88.2M6.1,-88.2L-5.9 -88.2M0.1,-98.2L0.1 -92.2M0.1,-60.2L0.1 -66.2L-5.9 -66.2M0.1,-66.2L0.1 -72.2M0.1,-78.2L0.1 -84.2M10.1,-66.2L4.1 -66.2M22.1,-76.2L22.1 -70.2M22.1,-60.2L22.1 -66.2L16.1 -66.2M22.1,-54.2L22.1 -48.2M12.1,-44.2L18.1 -44.2M28.1,-44.2L22.1 -44.2L22.1 -38.2M6.1,-44.2L-5.9 -44.2M0.1,-54.2L0.1 -48.2M0.1,-12.2L0.1 -18.2M6.1,-22.2L0.1 -22.2L0.1 -28.2M28.1,-22.2L22.1 -22.2L22.1 -16.2M12.1,-22.2L18.1 -22.2M22.1,-32.2L22.1 -26.2M0.1,-34.2L0.1 -40.2M66.1,-54.2L66.1 -48.2M72.1,-44.2L66.1 -44.2L66.1 -38.2M56.1,-44.2L62.1 -44.2M34.1,-44.2L40.1 -44.2M44.1,-50.2L44.1 -44.2L50.1 -44.2M44.1,-28.2L44.1 -16.2M34.1,-22.2L40.1 -22.2M60.1,-22.2L66.1 -22.2L66.1 -16.2M66.1,-32.2L66.1 -26.2M54.1,-22.2L48.1 -22.2M44.1,-34.2L44.1 -40.2M44.1,-56.2L44.1 -62.2M32.1,-66.2L26.1 -66.2M-87.9,-116.2L-87.9 -104.2M22.1,-116.2L22.1 -104.2M-9.9,-22.2L-3.9 -22.2M-9.9,-110.2L-3.9 -110.2M-9.9,-132.2L-3.9 -132.2M-9.9,-176.2L-3.9 -176.2M-9.9,-154.2L-3.9 -154.2M220.1,-206.2L220.1 -200.2M220.05,-198.2L220.05 -192.2M198.05,-208.2L198.05 -202.2M204.05,-198.2L198.05 -198.2L198.05 -192.2M198.05,-166.2L198.05 -172.2M220.1,-170.2L220.1 -173.2L220.1 -173.95L220.05 -176.2L220.1 -176.2L220.1 -173.95M198.05,-186.2L198.05 -180.2M220.05,-186.2L220.05 -180.2M210.05,-198.2L216.05 -198.2M210.05,-176.2L216.05 -176.2M182.05,-198.2L176.05 -198.2L176.05 -204.2M176.05,-188.2L176.05 -194.2M154.05,-208.2L154.05 -202.2M154.05,-192.2L154.05 -198.2L160.05 -198.2M166.05,-198.2L172.05 -198.2M160.05,-176.2L154.05 -176.2L154.05 -170.2M166.05,-176.2L172.05 -176.2M176.05,-182.2L176.05 -170.2M186.05,-176.2L180.05 -176.2M154.05,-186.2L154.05 -180.2M176.05,-148.2L176.05 -154.2L182.05 -154.2M176.05,-142.2L176.05 -136.2M166.05,-154.2L172.05 -154.2M154.05,-144.2L154.05 -150.2M154.05,-122.2L154.05 -128.2M148.05,-110.2L154.05 -110.2L154.05 -116.2M164.05,-110.2L158.05 -110.2M164.05,-132.2L158.05 -132.2M186.05,-110.2L180.05 -110.2M186.05,-132.2L180.05 -132.2M170.05,-132.2L176.05 -132.2L176.05 -126.2M176.05,-120.2L176.05 -114.2M176.05,-104.2L176.05 -110.2L170.05 -110.2M154.05,-132.2L154.05 -138.2M214.05,-154.2L220.05 -154.2L220.1 -154.2L220.1 -150.2L220.05 -148.2L220.05 -144.2M214.05,-132.2L220.05 -132.2L220.05 -136.2L220.05 -138.15L220.05 -138.2L220.1 -142.2M208.05,-154.2L202.05 -154.2M198.05,-142.2L198.05 -136.2M208.05,-132.2L202.05 -132.2M192.05,-132.2L198.05 -132.2L198.05 -126.2M198.05,-120.2L198.05 -114.2M220.05,-132.2L220.1 -132.2L220.1 -128.2L220.1 -126.2L220.05 -122.2M220.1,-104.2L220.1 -107.2L220.1 -107.95L220.05 -110.2L220.05 -116.2M220.1,-120.2L220.1 -114.2M220.1,-107.95L220.1 -110.2L220.05 -110.2M210.05,-110.2L216.05 -110.2M204.05,-110.2L192.05 -110.2M198.05,-148.2L198.05 -160.2M204.05,-176.2L192.05 -176.2M154.05,-164.2L154.05 -158.2M188.05,-198.2L194.05 -198.2M176.05,-164.2L176.05 -158.2M188.05,-154.2L194.05 -154.2M220.1,-164.2L220.1 -158.2M144.05,-198.2L150.05 -198.2M138.05,-198.2L132.05 -198.2L132.05 -204.2M132.05,-188.2L132.05 -194.2M122.05,-198.2L128.05 -198.2M138.05,-176.2L132.05 -176.2L132.05 -182.2M132.05,-166.2L132.05 -172.2M122.05,-176.2L128.05 -176.2M144.05,-176.2L150.05 -176.2M110.05,-208.2L110.05 -202.2M116.05,-198.2L110.05 -198.2L110.05 -192.2M100.1,-198.2L106.1 -198.2M88.1,-208.2L88.1 -202.2M88.1,-188.2L88.1 -194.2M88.1,-182.2L88.1 -170.2M78.1,-176.2L84.1 -176.2M110.05,-170.2L110.05 -176.2L104.05 -176.2M94.1,-198.2L82.1 -198.2M110.05,-186.2L110.05 -180.2M98.05,-176.2L92.05 -176.2M100.1,-154.2L106.1 -154.2M110.05,-142.2L110.05 -136.2M116.05,-154.2L110.05 -154.2L110.05 -148.2M88.1,-144.2L88.1 -150.2M78.1,-110.2L84.1 -110.2M88.1,-138.2L88.1 -132.2L82.1 -132.2M88.1,-122.2L88.1 -128.2M110.05,-104.2L110.05 -110.2L104.05 -110.2M110.05,-126.2L110.05 -132.2L104.05 -132.2M110.05,-120.2L110.05 -114.2M94.1,-154.2L82.1 -154.2M98.05,-110.2L92.05 -110.2M98.05,-132.2L92.05 -132.2M142.05,-154.2L136.05 -154.2M132.05,-142.2L132.05 -136.2M122.05,-154.2L128.05 -154.2M126.05,-110.2L132.05 -110.2L132.05 -116.2M132.05,-122.2L132.05 -128.2M120.05,-132.2L114.05 -132.2M120.05,-110.2L114.05 -110.2M142.05,-110.2L136.05 -110.2M144.05,-132.2L150.05 -132.2M126.05,-132.2L138.05 -132.2M132.05,-148.2L132.05 -160.2M88.1,-164.2L88.1 -158.2M110.05,-176.2L116.05 -176.2M110.05,-164.2L110.05 -158.2M142.05,-88.2L136.05 -88.2M122.05,-88.2L128.05 -88.2M132.05,-88.2L132.05 -94.2M132.05,-100.2L132.05 -106.2M126.05,-66.2L132.05 -66.2L132.05 -72.2M132.05,-78.2L132.05 -84.2M120.05,-66.2L114.05 -66.2M132.05,-66.2L132.05 -60.2M142.05,-66.2L136.05 -66.2M100.1,-88.2L106.1 -88.2M110.05,-98.2L110.05 -92.2M88.1,-98.2L88.1 -92.2M88.1,-72.2L88.1 -66.2L82.1 -66.2M88.1,-78.2L88.1 -84.2M110.05,-72.2L110.05 -66.2L104.05 -66.2M110.05,-78.2L110.05 -84.2M94.1,-88.2L82.1 -88.2M98.05,-66.2L92.05 -66.2M110.05,-38.2L110.05 -50.2M100.1,-44.2L106.1 -44.2M78.1,-44.2L84.1 -44.2M94.1,-44.2L88.1 -44.2L88.1 -50.2M88.1,-12.2L88.1 -18.2M88.1,-28.2L88.1 -22.2L82.1 -22.2M110.05,-12.2L110.05 -18.2M110.05,-32.2L110.05 -26.2M88.1,-34.2L88.1 -40.2M98.05,-22.2L92.05 -22.2M144.05,-44.2L150.05 -44.2M120.05,-44.2L114.05 -44.2M132.05,-54.2L132.05 -48.2M132.05,-28.2L132.05 -16.2M122.05,-22.2L128.05 -22.2M142.05,-22.2L136.05 -22.2M126.05,-44.2L138.05 -44.2M132.05,-34.2L132.05 -40.2M104.05,-22.2L116.05 -22.2M110.05,-56.2L110.05 -62.2M110.05,-88.2L116.05 -88.2M88.1,-56.2L88.1 -62.2M220.05,-82.2L220.1 -85.2L220.1 -85.95L220.05 -88.2L220.1 -88.2L220.1 -85.95M220.1,-98.2L220.1 -92.2M198.05,-100.2L198.05 -106.2M198.05,-82.2L198.05 -88.2L198.05 -94.2M198.05,-88.2L204.05 -88.2M198.05,-66.2L198.05 -60.2M198.05,-76.2L198.05 -70.2M208.05,-66.2L202.05 -66.2M214.05,-66.2L220.1 -66.2L220.1 -62.2L220.1 -60.2L220.05 -56.2M220.05,-76.2L220.05 -70.2M210.05,-88.2L216.05 -88.2M176.05,-98.2L176.05 -92.2M170.05,-88.2L176.05 -88.2L182.05 -88.2M154.05,-100.2L154.05 -106.2M148.05,-88.2L154.05 -88.2L154.05 -94.2M164.05,-88.2L158.05 -88.2M164.05,-66.2L158.05 -66.2M148.05,-66.2L154.05 -66.2L154.05 -72.2M154.05,-78.2L154.05 -84.2M176.05,-76.2L176.05 -70.2M170.05,-66.2L182.05 -66.2M176.05,-88.2L176.05 -82.2M176.05,-50.2L176.05 -44.2L182.05 -44.2M154.05,-38.2L154.05 -50.2M164.05,-44.2L158.05 -44.2M154.05,-12.2L154.05 -18.2M166.05,-22.2L172.05 -22.2M154.05,-32.2L154.05 -26.2M176.05,-28.2L176.05 -16.2M186.05,-22.2L180.05 -22.2M176.05,-34.2L176.05 -40.2M176.05,-44.2L170.05 -44.2M220.05,-38.2L220.1 -41.2L220.1 -41.95L220.05 -44.2L220.1 -48.2L220.1 -50.2L220.1 -54.2M220.05,-44.2L220.1 -44.2L220.1 -41.95M198.05,-54.2L198.05 -48.2M204.05,-44.2L198.05 -44.2L198.05 -38.2M192.05,-22.2L198.05 -22.2L198.05 -16.2M208.05,-22.2L202.05 -22.2M198.05,-32.2L198.05 -26.2M220.05,-32.2L220.05 -26.2M220.1,-32.2L220.1 -26.2M220.05,-12.2L220.1 -22.2L220.05 -22.2L214.05 -22.2M210.05,-44.2L216.05 -44.2M188.05,-44.2L194.05 -44.2M154.05,-56.2L154.05 -62.2M188.05,-66.2L194.05 -66.2M188.05,-88.2L194.05 -88.2M176.05,-56.2L176.05 -62.2M160.05,-22.2L148.05 -22.2M88.1,-116.2L88.1 -104.2M160.05,-154.2L148.05 -154.2M60.1,-110.2L72.1 -110.2M60.1,-176.2L72.1 -176.2M76.1,-220.2L70.1 -220.2M76.1,-66.2L70.1 -66.2M76.1,-22.2L70.1 -22.2M76.1,-154.2L70.1 -154.2M76.1,-88.2L70.1 -88.2M76.1,-132.2L70.1 -132.2M76.1,-198.2L70.1 -198.2M214.05,-0.2L220.05 -0.2L220.1 -10.2M220.1,5.8L220.1 -0.2L220.05 -0.2M220.05,9.8L220.05 3.8M198.05,-10.2L198.05 -4.2M192.05,-0.2L198.05 -0.2L198.05 5.8M208.05,-0.2L202.05 -0.2M198.05,31.8L198.05 25.8M220.1,11.8L220.1 15.8L220.05 17.8L220.1 25.8L220.1 27.8L220.1 31.8M220.05,33.8L220.05 37.8L220.1 43.8L220.1 47.8L220.1 49.8L220.05 53.8M198.05,11.8L198.05 17.8M210.05,21.8L216.05 21.8M176.05,-10.2L176.05 -4.2M186.05,-0.2L180.05 -0.2M176.05,9.8L176.05 3.8M154.05,5.8L154.05 -6.2M164.05,-0.2L158.05 -0.2M148.05,21.8L154.05 21.8L154.05 27.8M164.05,21.8L158.05 21.8M186.05,21.8L180.05 21.8M170.05,21.8L176.05 21.8L176.05 15.8M176.05,31.8L176.05 25.8M176.05,-0.2L170.05 -0.2M154.05,11.8L154.05 17.8M176.05,37.8L176.05 43.8L182.05 43.8M176.05,53.8L176.05 47.8M154.05,55.8L154.05 61.8M160.05,43.8L154.05 43.8L154.05 49.8M166.05,43.8L172.05 43.8M154.05,77.8L154.05 83.8M164.05,65.8L158.05 65.8M166.05,87.8L172.05 87.8M148.05,65.8L154.05 65.8L154.05 71.8M186.05,65.8L180.05 65.8M176.05,81.8L176.05 87.8L182.05 87.8M176.05,75.8L176.05 69.8M170.05,65.8L176.05 65.8L176.05 59.8M214.05,43.8L220.05 43.8L220.1 43.8M220.1,55.8L220.1 59.8L220.1 61.8L220.05 65.8L220.1 65.8L220.1 71.8M208.05,43.8L202.05 43.8M198.05,55.8L198.05 61.8M208.05,87.8L202.05 87.8M198.05,75.8L198.05 69.8M220.05,75.8L220.05 69.8M214.05,87.8L220.05 87.8L220.05 83.8L220.05 81.85L220.05 81.8L220.1 77.8M220.05,97.8L220.05 93.8L220.1 91.8L220.1 87.8L220.05 87.8M210.05,65.8L216.05 65.8M204.05,65.8L192.05 65.8M198.05,49.8L198.05 37.8M204.05,21.8L192.05 21.8M188.05,43.8L194.05 43.8M154.05,33.8L154.05 39.8M188.05,87.8L194.05 87.8M144.05,-0.2L150.05 -0.2M132.05,-10.2L132.05 -4.2M132.05,9.8L132.05 3.8M120.05,-0.2L114.05 -0.2M132.05,15.8L132.05 27.8M122.05,21.8L128.05 21.8M142.05,21.8L136.05 21.8M126.05,-0.2L138.05 -0.2M110.05,5.8L110.05 -6.2M100.1,-0.2L106.1 -0.2M94.1,-0.2L88.1 -0.2L88.1 -6.2M78.1,-0.2L84.1 -0.2M88.1,9.8L88.1 3.8M88.1,15.8L88.1 27.8M78.1,21.8L84.1 21.8M110.05,31.8L110.05 25.8M98.05,21.8L92.05 21.8M110.05,11.8L110.05 17.8M110.05,53.8L110.05 47.8M100.1,43.8L106.1 43.8M78.1,43.8L84.1 43.8M88.1,55.8L88.1 61.8M94.1,43.8L88.1 43.8L88.1 49.8M88.1,71.8L88.1 65.8L82.1 65.8M78.1,87.8L84.1 87.8M88.1,77.8L88.1 83.8M110.05,59.8L110.05 65.8L104.05 65.8M116.05,87.8L110.05 87.8L110.05 81.8M110.05,75.8L110.05 69.8M100.1,87.8L106.1 87.8M98.05,65.8L92.05 65.8M88.1,93.8L88.1 87.8L94.1 87.8M144.05,43.8L150.05 43.8M132.05,53.8L132.05 47.8M120.05,43.8L114.05 43.8M132.05,75.8L132.05 69.8M132.05,59.8L132.05 65.8L126.05 65.8M120.05,65.8L114.05 65.8M122.05,87.8L128.05 87.8M142.05,87.8L136.05 87.8M142.05,65.8L136.05 65.8M126.05,43.8L138.05 43.8M104.05,21.8L116.05 21.8M132.05,33.8L132.05 39.8M110.05,43.8L110.05 37.8M88.1,33.8L88.1 39.8M144.05,109.8L150.05 109.8M122.05,109.8L128.05 109.8M132.05,99.8L132.05 105.8M132.05,121.8L132.05 127.8M126.05,131.8L132.05 131.8L132.05 137.8M120.05,131.8L114.05 131.8M142.05,131.8L136.05 131.8M138.05,109.8L132.05 109.8L132.05 115.8M110.05,97.8L110.05 91.8M116.05,109.8L110.05 109.8L110.05 103.8M100.1,109.8L106.1 109.8M88.1,99.8L88.1 105.8M88.1,125.8L88.1 131.8L82.1 131.8M88.1,119.8L88.1 113.8M104.05,131.8L110.05 131.8L110.05 125.8M110.05,119.8L110.05 113.8M94.1,109.8L82.1 109.8M98.05,131.8L92.05 131.8M110.05,159.8L110.05 147.8M100.1,153.8L106.1 153.8M78.1,153.8L84.1 153.8M94.1,153.8L88.1 153.8L88.1 147.8M88.1,169.8L88.1 181.8M78.1,175.8L84.1 175.8M110.05,185.8L110.05 179.8M110.05,165.8L110.05 171.8M88.1,163.8L88.1 157.8M98.05,175.8L92.05 175.8M144.05,153.8L150.05 153.8M132.05,143.8L132.05 149.8M120.05,153.8L114.05 153.8M132.05,185.8L132.05 179.8M138.05,175.8L132.05 175.8L132.05 169.8M122.05,175.8L128.05 175.8M144.05,175.8L150.05 175.8M126.05,153.8L138.05 153.8M132.05,163.8L132.05 157.8M104.05,175.8L116.05 175.8M88.1,141.8L88.1 135.8M110.05,141.8L110.05 135.8M220.1,99.8L220.05 109.8L214.05 109.8M198.05,99.8L198.05 105.8M208.05,109.8L202.05 109.8M204.05,131.8L198.05 131.8L198.05 137.8M198.05,121.8L198.05 127.8M220.05,113.8L220.1 116.8L220.1 117.55L220.1 119.8M220.05,119.8L220.1 117.55M220.05,125.8L220.05 131.8L220.1 131.8L220.1 125.8M220.1,131.8L220.1 135.8L220.05 137.8L220.05 141.8M210.05,131.8L216.05 131.8M192.05,109.8L198.05 109.8L198.05 115.8M176.05,97.8L176.05 91.8M170.05,109.8L176.05 109.8L176.05 103.8M186.05,109.8L180.05 109.8M154.05,97.8L154.05 91.8M164.05,109.8L158.05 109.8M166.05,131.8L172.05 131.8M154.05,121.8L154.05 127.8M176.05,125.8L176.05 131.8L182.05 131.8M176.05,119.8L176.05 113.8M154.05,115.8L154.05 103.8M176.05,159.8L176.05 147.8M186.05,153.8L180.05 153.8M160.05,153.8L154.05 153.8L154.05 147.8M166.05,153.8L172.05 153.8M154.05,169.8L154.05 181.8M164.05,175.8L158.05 175.8M170.05,175.8L176.05 175.8L176.05 181.8M186.05,175.8L180.05 175.8M176.05,165.8L176.05 171.8M154.05,163.8L154.05 157.8M220.05,157.8L220.1 160.8L220.1 161.55L220.1 163.8M220.1,143.8L220.1 147.8L220.05 149.8L220.05 153.8M198.05,143.8L198.05 149.8M198.05,185.8L198.05 179.8M192.05,175.8L198.05 175.8L198.05 169.8M208.05,175.8L202.05 175.8M220.1,169.8L220.1 175.8L220.05 175.8L220.1 185.8M220.05,175.8L214.05 175.8M220.05,175.8L220.05 169.8M220.05,163.8L220.1 161.55M198.05,163.8L198.05 157.8M210.05,153.8L216.05 153.8M204.05,153.8L192.05 153.8M154.05,141.8L154.05 135.8M176.05,141.8L176.05 135.8M188.05,131.8L194.05 131.8M160.05,131.8L148.05 131.8M132.05,81.8L132.05 93.8M198.05,81.8L198.05 93.8M160.05,87.8L148.05 87.8M66.1,-10.2L66.1 -4.2M72.1,-0.2L66.1 -0.2L66.1 5.8M56.1,-0.2L62.1 -0.2M50.1,-0.2L38.1 -0.2M44.1,-10.2L44.1 -4.2M44.1,9.8L44.1 3.8M34.1,21.8L40.1 21.8M44.1,31.8L44.1 25.8M44.1,15.8L44.1 21.8L50.1 21.8M56.1,21.8L62.1 21.8M72.1,21.8L66.1 21.8L66.1 27.8M66.1,11.8L66.1 17.8M22.1,-10.2L22.1 -4.2M22.1,5.8L22.1 -0.2L16.1 -0.2M0.1,5.8L0.1 -6.2M10.1,-0.2L4.1 -0.2M6.1,21.8L-5.9 21.8M0.1,31.8L0.1 25.8M28.1,21.8L22.1 21.8L22.1 27.8M12.1,21.8L18.1 21.8M0.1,11.8L0.1 17.8M22.1,11.8L22.1 17.8M16.1,43.8L28.1 43.8M22.1,53.8L22.1 47.8M10.1,43.8L4.1 43.8M0.1,55.8L0.1 61.8M6.1,87.8L-5.9 87.8M0.1,77.8L0.1 83.8M0.1,71.8L0.1 65.8L6.1 65.8M22.1,93.8L22.1 87.8L28.1 87.8M22.1,77.8L22.1 83.8M12.1,65.8L18.1 65.8M12.1,87.8L18.1 87.8M22.1,59.8L22.1 71.8M66.1,53.8L66.1 47.8M34.1,43.8L40.1 43.8M44.1,55.8L44.1 61.8M34.1,87.8L40.1 87.8M44.1,71.8L44.1 65.8L38.1 65.8M44.1,77.8L44.1 83.8M66.1,59.8L66.1 65.8L66.1 71.8M66.1,77.8L66.1 83.8M66.1,65.8L60.1 65.8M54.1,43.8L48.1 43.8M54.1,87.8L48.1 87.8M54.1,65.8L48.1 65.8M44.1,49.8L44.1 37.8M0.1,49.8L0.1 37.8M22.1,33.8L22.1 39.8M32.1,65.8L26.1 65.8M32.1,-0.2L26.1 -0.2M66.1,33.8L66.1 39.8M-15.9,-0.2L-21.9 -0.2L-21.9 -6.2M-21.9,9.8L-21.9 3.8M-43.9,-10.2L-43.9 -4.2M-37.9,-0.2L-43.9 -0.2L-43.9 5.8M-43.9,31.8L-43.9 25.8M-21.9,15.8L-21.9 27.8M-11.9,21.8L-17.9 21.8M-31.9,21.8L-25.9 21.8M-43.9,11.8L-43.9 17.8M-31.9,-0.2L-25.9 -0.2M-65.9,-10.2L-65.9 -4.2M-59.9,-0.2L-65.9 -0.2L-65.9 5.8M-87.9,-10.2L-87.9 -4.2M-87.9,5.8L-87.9 -0.2L-81.9 -0.2M-75.9,-0.2L-69.9 -0.2M-93.9,21.8L-87.9 21.8L-87.9 27.8M-77.9,21.8L-83.9 21.8M-71.9,21.8L-65.9 21.8L-65.9 27.8M-55.9,21.8L-61.9 21.8M-65.9,11.8L-65.9 17.8M-87.9,11.8L-87.9 17.8M-65.9,49.8L-65.9 43.8L-59.9 43.8M-65.9,55.8L-65.9 61.8M-75.9,43.8L-69.9 43.8M-87.9,53.8L-87.9 47.8M-75.9,65.8L-69.9 65.8M-87.9,59.8L-87.9 65.8L-81.9 65.8M-77.9,87.8L-83.9 87.8M-87.9,75.8L-87.9 69.8M-55.9,87.8L-61.9 87.8M-65.9,71.8L-65.9 65.8L-59.9 65.8M-65.9,77.8L-65.9 83.8M-65.9,93.8L-65.9 87.8L-71.9 87.8M-21.9,49.8L-21.9 43.8L-15.9 43.8M-21.9,55.8L-21.9 61.8M-43.9,53.8L-43.9 47.8M-43.9,37.8L-43.9 43.8L-37.9 43.8M-43.9,59.8L-43.9 65.8L-37.9 65.8M-43.9,65.8L-43.9 71.8M-43.9,77.8L-43.9 83.8M-11.9,87.8L-17.9 87.8M-21.9,65.8L-15.9 65.8M-21.9,75.8L-21.9 69.8M-31.9,43.8L-25.9 43.8M-31.9,65.8L-25.9 65.8M-31.9,87.8L-25.9 87.8M-37.9,87.8L-49.9 87.8M-37.9,21.8L-49.9 21.8M-53.9,65.8L-47.9 65.8M-65.9,33.8L-65.9 39.8M-53.9,43.8L-47.9 43.8M-87.9,33.8L-87.9 39.8M-53.9,-0.2L-47.9 -0.2M-21.9,33.8L-21.9 39.8M-21.9,99.8L-21.9 105.8M-21.9,115.8L-21.9 109.8L-15.9 109.8M-43.9,97.8L-43.9 91.8M-37.9,109.8L-43.9 109.8L-43.9 103.8M-49.9,131.8L-43.9 131.8L-43.9 125.8M-43.9,119.8L-43.9 113.8M-33.9,131.8L-39.9 131.8M-11.9,131.8L-17.9 131.8M-21.9,121.8L-21.9 127.8M-21.9,137.8L-21.9 131.8L-27.9 131.8M-31.9,109.8L-25.9 109.8M-65.9,99.8L-65.9 105.8M-65.9,115.8L-65.9 109.8L-59.9 109.8M-87.9,99.8L-87.9 105.8M-75.9,109.8L-69.9 109.8M-87.9,125.8L-87.9 137.8M-87.9,119.8L-87.9 113.8M-77.9,131.8L-83.9 131.8M-55.9,131.8L-61.9 131.8M-71.9,131.8L-65.9 131.8L-65.9 137.8M-65.9,121.8L-65.9 127.8M-65.9,143.8L-65.9 149.8M-87.9,143.8L-87.9 149.8M-93.9,153.8L-87.9 153.8L-87.9 159.8M-77.9,153.8L-83.9 153.8M-93.9,175.8L-87.9 175.8L-87.9 181.8M-77.9,175.8L-83.9 175.8M-87.9,165.8L-87.9 171.8M-65.9,185.8L-65.9 179.8M-55.9,175.8L-61.9 175.8M-71.9,175.8L-65.9 175.8L-65.9 169.8M-71.9,153.8L-59.9 153.8M-65.9,163.8L-65.9 157.8M-21.9,159.8L-21.9 153.8L-15.9 153.8M-21.9,143.8L-21.9 149.8M-43.9,147.8L-43.9 153.8L-37.9 153.8M-43.9,185.8L-43.9 179.8M-49.9,175.8L-43.9 175.8L-43.9 169.8M-43.9,175.8L-37.9 175.8M-15.9,175.8L-21.9 175.8L-21.9 181.8M-21.9,165.8L-21.9 171.8M-43.9,163.8L-43.9 157.8M-31.9,153.8L-25.9 153.8M-31.9,175.8L-25.9 175.8M-53.9,153.8L-47.9 153.8M-43.9,141.8L-43.9 135.8M-53.9,109.8L-47.9 109.8M66.1,97.8L66.1 91.8M56.1,109.8L62.1 109.8M44.1,99.8L44.1 105.8M34.1,109.8L40.1 109.8M44.1,109.8L50.1 109.8M44.1,125.8L44.1 131.8L44.1 137.8M44.1,131.8L38.1 131.8M44.1,119.8L44.1 113.8M66.1,137.8L66.1 131.8L60.1 131.8M66.1,121.8L66.1 127.8M66.1,115.8L66.1 103.8M54.1,131.8L48.1 131.8M16.1,109.8L28.1 109.8M22.1,99.8L22.1 105.8M0.1,97.8L0.1 91.8M10.1,109.8L4.1 109.8M6.1,131.8L-5.9 131.8M0.1,121.8L0.1 127.8M22.1,125.8L22.1 137.8M22.1,119.8L22.1 113.8M12.1,131.8L18.1 131.8M0.1,115.8L0.1 103.8M16.1,153.8L28.1 153.8M22.1,143.8L22.1 149.8M0.1,153.8L0.1 147.8M10.1,153.8L4.1 153.8M0.1,185.8L0.1 179.8M6.1,175.8L0.1 175.8L0.1 169.8M22.1,169.8L22.1 181.8M12.1,175.8L18.1 175.8M0.1,163.8L0.1 157.8M22.1,163.8L22.1 157.8M56.1,153.8L62.1 153.8M72.1,153.8L66.1 153.8L66.1 159.8M66.1,143.8L66.1 149.8M44.1,143.8L44.1 149.8M34.1,153.8L40.1 153.8M50.1,153.8L44.1 153.8L44.1 159.8M50.1,175.8L38.1 175.8M44.1,185.8L44.1 179.8M44.1,165.8L44.1 171.8M72.1,175.8L66.1 175.8L66.1 181.8M56.1,175.8L62.1 175.8M66.1,165.8L66.1 171.8M32.1,175.8L26.1 175.8M0.1,141.8L0.1 135.8M32.1,131.8L26.1 131.8M-21.9,81.8L-21.9 93.8M-87.9,81.8L-87.9 93.8M-9.9,175.8L-3.9 175.8M-9.9,153.8L-3.9 153.8M-9.9,109.8L-3.9 109.8M-9.9,65.8L-3.9 65.8M44.1,87.8L44.1 93.8M-9.9,-0.2L-3.9 -0.2M-9.9,43.8L-3.9 43.8M66.1,187.8L66.1 193.8M66.1,203.8L66.1 197.8L60.1 197.8M44.1,197.8L44.1 191.8M44.1,207.8L44.1 201.8M34.1,197.8L40.1 197.8M44.1,213.8L44.1 219.8L50.15 219.8L54.1 219.8M44.1,219.8L38.15 219.8L26.15 219.8L22.1 219.8L16.1 219.8M56.15,219.8L62.15 219.8L72.1 219.8L74.15 219.8M54.1,197.8L48.1 197.8M66.1,209.8L66.1 215.8M16.1,197.8L28.1 197.8M22.1,187.8L22.1 193.8M22.1,207.8L22.1 201.8M-5.9,197.8L0.1 197.8L0.1 191.8M0.1,207.8L0.1 201.8M10.1,197.8L4.1 197.8M0.1,213.8L0.1 219.8L2.15 219.8M22.1,219.8L22.1 213.8M14.15,219.8L4.1 219.8M-21.9,187.8L-21.9 193.8M-11.9,197.8L-17.9 197.8M-27.9,197.8L-21.9 197.8L-21.9 203.8M-43.9,197.8L-43.9 191.8M-43.9,207.8L-43.9 201.8M-33.9,197.8L-39.9 197.8M-33.85,219.8L-43.9 219.8L-43.9 213.8M-31.9,219.8L-21.85 219.8L-9.85 219.8L0.1 219.8M-21.9,209.8L-21.9 215.8M-59.9,197.8L-65.9 197.8L-65.9 191.8M-65.9,207.8L-65.9 201.8M-87.9,187.8L-87.9 193.8M-87.9,203.8L-87.9 197.8L-81.9 197.8M-75.9,197.8L-69.9 197.8M-81.9,219.8L-87.9 219.8M-69.9,219.8L-75.9 219.8M-57.85,219.8L-65.9 219.8L-65.9 213.8M-87.9,209.8L-87.9 215.8M-45.85,219.8L-53.9 219.8M-53.9,197.8L-47.9 197.8M220.05,199.8L220.05 200.3L220.1 197.8L220.05 197.8L214.05 197.8M220.1,197.8L220.1 193.8L220.1 191.8L220.05 187.8M220.05,211.8L220.05 212.3L220.1 209.7M220.05,205.8L220.05 203.7L220.05 200.8L220.05 200.3M198.05,197.8L198.05 191.8M198.05,207.8L198.05 201.8M208.05,197.8L202.05 197.8M206.15,219.8L198.05 219.8L198.05 213.8M220.05,217.8L220.05 215.7L220.05 212.8L220.05 212.3M218.15,219.8L210.05 219.8M176.05,187.8L176.05 193.8M176.05,207.8L176.05 201.8M154.05,187.8L154.05 193.8M148.05,197.8L154.05 197.8L154.05 203.8M164.05,197.8L158.05 197.8M172.05,219.8L164.15 219.8M176.05,213.8L176.05 219.8L182.15 219.8M170.05,197.8L182.05 197.8M154.05,209.8L154.05 215.8M188.15,219.8L194.15 219.8M188.05,197.8L194.05 197.8M142.05,197.8L136.05 197.8M126.05,197.8L132.05 197.8L132.05 191.8M120.05,197.8L114.05 197.8M132.05,207.8L132.05 201.8M100.1,219.8L132.05 219.8L132.05 213.8M136.05,219.8L142.05 219.8L146.15 219.8M132.05,219.8L134.15 219.8M110.05,203.8L110.05 191.8M100.1,197.8L106.1 197.8M88.1,187.8L88.1 193.8M88.1,207.8L88.1 201.8M78.1,219.8L84.1 219.8L86.15 219.8M98.15,219.8L88.1 219.8L88.1 213.8M94.1,197.8L82.1 197.8M110.05,209.8L110.05 215.8M160.05,219.8L148.05 219.8M60.1,87.8L72.1 87.8M60.1,43.8L72.1 43.8M76.1,197.8L70.1 197.8M76.1,109.8L70.1 109.8M76.1,131.8L70.1 131.8M76.1,65.8L70.1 65.8M-219.85,-218.1L-219.85 -212.1M-203.9,-220.2L-197.9 -220.2L-197.9 -214.2M-181.9,-220.2L-175.9 -220.2L-175.9 -214.2M-187.9,-220.2L-193.9 -220.2M-209.9,-220.2L-215.9 -220.2M-131.9,-210.2L-131.9 -216.2M-153.9,-210.2L-153.9 -216.2M-143.9,-220.2L-149.9 -220.2M-131.9,-220.2L-137.9 -220.2M-153.9,-220.2L-159.9 -220.2M-115.9,-220.2L-109.9 -220.2L-109.9 -214.2M-121.9,-220.2L-127.9 -220.2M-99.9,-220.2L-105.9 -220.2M-165.9,-220.2L-171.9 -220.2M-115.9,-198.2L-109.9 -198.2L-109.9 -192.2M-109.9,-208.2L-109.9 -202.2M-99.9,-198.2L-105.9 -198.2M-121.9,-198.2L-127.9 -198.2M-121.9,-176.2L-127.9 -176.2M-97.9,-176.2L-91.9 -176.2M-109.9,-166.2L-109.9 -172.2M-115.9,-176.2L-103.9 -176.2M-109.9,-186.2L-109.9 -180.2M-131.9,-192.2L-131.9 -204.2M-141.9,-198.2L-135.9 -198.2M-147.9,-198.2L-153.9 -198.2L-153.9 -204.2M-163.9,-198.2L-157.9 -198.2M-153.9,-188.2L-153.9 -194.2M-153.9,-182.2L-153.9 -176.2L-159.9 -176.2M-153.9,-166.2L-153.9 -172.2M-137.9,-176.2L-131.9 -176.2L-131.9 -170.2M-143.9,-176.2L-149.9 -176.2M-131.9,-186.2L-131.9 -180.2M-125.9,-154.2L-131.9 -154.2L-131.9 -148.2M-131.9,-142.2L-131.9 -136.2M-141.9,-154.2L-135.9 -154.2M-163.9,-154.2L-157.9 -154.2M-153.9,-144.2L-153.9 -150.2M-163.9,-110.2L-157.9 -110.2M-163.9,-132.2L-157.9 -132.2M-153.9,-122.2L-153.9 -128.2M-143.9,-110.2L-149.9 -110.2M-125.9,-132.2L-131.9 -132.2L-131.9 -126.2M-131.9,-120.2L-131.9 -114.2M-141.9,-132.2L-135.9 -132.2M-153.9,-160.2L-153.9 -154.2L-147.9 -154.2M-153.9,-138.2L-153.9 -132.2L-147.9 -132.2M-99.9,-154.2L-105.9 -154.2M-109.9,-142.2L-109.9 -136.2M-119.9,-154.2L-113.9 -154.2M-119.9,-132.2L-113.9 -132.2M-119.9,-110.2L-113.9 -110.2M-97.9,-132.2L-91.9 -132.2M-109.9,-126.2L-109.9 -132.2L-103.9 -132.2M-109.9,-120.2L-109.9 -114.2M-109.9,-110.2L-103.9 -110.2M-97.9,-110.2L-91.9 -110.2M-109.9,-148.2L-109.9 -160.2M-137.9,-110.2L-125.9 -110.2M-131.9,-164.2L-131.9 -158.2M-175.9,-208.2L-175.9 -202.2M-185.9,-198.2L-179.9 -198.2M-175.9,-188.2L-175.9 -194.2M-197.9,-208.2L-197.9 -202.2M-207.85,-198.2L-201.85 -198.2M-191.9,-198.2L-197.9 -198.2L-197.9 -192.2M-207.85,-176.2L-201.85 -176.2M-197.9,-176.2L-197.9 -170.2M-175.9,-166.2L-175.9 -172.2M-175.9,-182.2L-175.9 -176.2L-181.9 -176.2M-187.9,-176.2L-193.9 -176.2M-197.9,-186.2L-197.9 -180.2M-213.85,-176.2L-219.85 -176.2L-219.85 -170.2M-219.85,-192.2L-219.85 -198.2L-213.85 -198.2M-219.85,-186.2L-219.85 -180.2M-219.85,-206.1L-219.85 -200.1M-219.85,-126.2L-219.85 -138.2M-219.85,-154.2L-213.85 -154.2M-219.85,-104.2L-219.85 -110.2L-213.85 -110.2M-219.85,-144.2L-219.85 -150.2M-219.85,-120.2L-219.85 -114.2M-185.9,-154.2L-179.9 -154.2M-175.9,-144.2L-175.9 -150.2M-207.85,-154.2L-201.85 -154.2M-197.9,-148.2L-197.9 -154.2L-191.9 -154.2M-197.9,-142.2L-197.9 -136.2M-197.9,-126.2L-197.9 -132.2L-203.9 -132.2M-207.85,-110.2L-201.85 -110.2M-197.9,-104.2L-197.9 -110.2L-191.9 -110.2M-197.9,-120.2L-197.9 -114.2M-169.9,-132.2L-175.9 -132.2L-181.9 -132.2M-169.9,-110.2L-175.9 -110.2L-175.9 -116.2M-175.9,-122.2L-175.9 -128.2M-185.9,-110.2L-179.9 -110.2M-187.9,-132.2L-193.9 -132.2M-175.9,-132.2L-175.9 -138.2M-219.85,-164.2L-219.85 -158.2M-209.9,-132.2L-215.9 -132.2M-169.9,-154.2L-175.9 -154.2L-175.9 -160.2M-197.9,-164.2L-197.9 -158.2M-175.9,-100.2L-175.9 -106.2M-169.9,-88.2L-175.9 -88.2L-175.9 -94.2M-185.9,-88.2L-179.9 -88.2M-191.9,-88.2L-203.9 -88.2M-197.9,-98.2L-197.9 -92.2M-197.9,-72.2L-197.9 -66.2L-191.9 -66.2M-197.9,-78.2L-197.9 -84.2M-207.85,-66.2L-201.85 -66.2M-185.9,-66.2L-179.9 -66.2M-169.9,-66.2L-175.9 -66.2L-175.9 -72.2M-175.9,-78.2L-175.9 -84.2M-219.85,-98.2L-219.85 -92.2M-213.85,-66.2L-219.85 -66.2L-219.85 -60.2M-219.85,-76.2L-219.85 -70.2M-219.85,-88.2L-219.85 -82.2M-213.85,-22.2L-219.85 -22.2L-219.85 -16.2M-219.85,-54.2L-219.85 -48.2M-219.85,-38.2L-219.85 -44.2L-213.85 -44.2M-219.85,-32.2L-219.85 -26.2M-175.9,-38.2L-175.9 -50.2M-185.9,-44.2L-179.9 -44.2M-207.85,-44.2L-201.85 -44.2M-197.9,-50.2L-197.9 -44.2L-191.9 -44.2M-197.9,-28.2L-197.9 -16.2M-207.85,-22.2L-201.85 -22.2M-175.9,-12.2L-175.9 -18.2M-175.9,-32.2L-175.9 -26.2M-197.9,-34.2L-197.9 -40.2M-187.9,-22.2L-193.9 -22.2M-175.9,-56.2L-175.9 -62.2M-197.9,-56.2L-197.9 -62.2M-209.9,-88.2L-215.9 -88.2M-99.9,-88.2L-105.9 -88.2M-115.9,-88.2L-109.9 -88.2L-109.9 -94.2M-109.9,-100.2L-109.9 -106.2M-121.9,-88.2L-127.9 -88.2M-119.9,-66.2L-113.9 -66.2M-103.9,-66.2L-109.9 -66.2L-109.9 -72.2M-109.9,-78.2L-109.9 -84.2M-97.9,-66.2L-91.9 -66.2M-131.9,-100.2L-131.9 -106.2M-141.9,-88.2L-135.9 -88.2M-163.9,-88.2L-157.9 -88.2M-153.9,-98.2L-153.9 -92.2M-163.9,-66.2L-157.9 -66.2M-153.9,-76.2L-153.9 -70.2M-147.9,-66.2L-153.9 -66.2L-153.9 -60.2M-125.9,-66.2L-131.9 -66.2L-131.9 -60.2M-131.9,-76.2L-131.9 -70.2M-141.9,-66.2L-135.9 -66.2M-131.9,-82.2L-131.9 -94.2M-153.9,-82.2L-153.9 -88.2L-147.9 -88.2M-131.9,-54.2L-131.9 -48.2M-125.9,-44.2L-131.9 -44.2L-131.9 -38.2M-141.9,-44.2L-135.9 -44.2M-153.9,-54.2L-153.9 -48.2M-153.9,-12.2L-153.9 -18.2M-163.9,-22.2L-157.9 -22.2M-147.9,-22.2L-153.9 -22.2L-153.9 -28.2M-125.9,-22.2L-131.9 -22.2L-131.9 -16.2M-131.9,-32.2L-131.9 -26.2M-141.9,-22.2L-135.9 -22.2M-147.9,-44.2L-159.9 -44.2M-153.9,-34.2L-153.9 -40.2M-109.9,-38.2L-109.9 -50.2M-99.9,-44.2L-105.9 -44.2M-119.9,-44.2L-113.9 -44.2M-119.9,-22.2L-113.9 -22.2M-109.9,-32.2L-109.9 -26.2M-103.9,-22.2L-109.9 -22.2L-109.9 -16.2M-97.9,-22.2L-91.9 -22.2M-109.9,-56.2L-109.9 -62.2M-181.9,-22.2L-169.9 -22.2M-153.9,-116.2L-153.9 -104.2M-165.9,-44.2L-171.9 -44.2M-175.9,-198.2L-169.9 -198.2M-165.9,-176.2L-171.9 -176.2M-97.9,-0.2L-91.9 -0.2M-103.9,-0.2L-109.9 -0.2L-109.9 5.8M-109.9,-10.2L-109.9 -4.2M-119.9,-0.2L-113.9 -0.2M-121.9,21.8L-127.9 21.8M-115.9,21.8L-109.9 21.8L-109.9 27.8M-99.9,21.8L-105.9 21.8M-109.9,11.8L-109.9 17.8M-131.9,-10.2L-131.9 -4.2M-143.9,-0.2L-149.9 -0.2M-131.9,9.8L-131.9 3.8M-153.9,5.8L-153.9 -6.2M-163.9,-0.2L-157.9 -0.2M-153.9,27.8L-153.9 21.8L-159.9 21.8M-137.9,21.8L-131.9 21.8L-131.9 15.8M-143.9,21.8L-149.9 21.8M-131.9,31.8L-131.9 25.8M-153.9,11.8L-153.9 17.8M-131.9,53.8L-131.9 47.8M-141.9,43.8L-135.9 43.8M-163.9,43.8L-157.9 43.8M-147.9,43.8L-153.9 43.8L-153.9 49.8M-153.9,55.8L-153.9 61.8M-163.9,87.8L-157.9 87.8M-147.9,87.8L-153.9 87.8L-153.9 81.8M-153.9,75.8L-153.9 69.8M-131.9,75.8L-131.9 69.8M-141.9,87.8L-135.9 87.8M-141.9,65.8L-135.9 65.8M-147.9,65.8L-159.9 65.8M-125.9,65.8L-131.9 65.8L-131.9 59.8M-99.9,43.8L-105.9 43.8M-115.9,43.8L-109.9 43.8L-109.9 49.8M-109.9,55.8L-109.9 61.8M-121.9,43.8L-127.9 43.8M-121.9,87.8L-127.9 87.8M-119.9,65.8L-113.9 65.8M-97.9,65.8L-91.9 65.8M-109.9,71.8L-109.9 65.8L-103.9 65.8M-97.9,87.8L-91.9 87.8M-109.9,77.8L-109.9 83.8M-115.9,87.8L-103.9 87.8M-137.9,-0.2L-125.9 -0.2M-153.9,33.8L-153.9 39.8M-131.9,43.8L-131.9 37.8M-109.9,33.8L-109.9 39.8M-175.9,5.8L-175.9 -0.2L-175.9 -6.2M-185.9,-0.2L-179.9 -0.2M-191.9,-0.2L-203.9 -0.2M-197.9,-10.2L-197.9 -4.2M-197.9,9.8L-197.9 3.8M-197.9,15.8L-197.9 27.8M-207.85,21.8L-201.85 21.8M-175.9,27.8L-175.9 21.8L-181.9 21.8M-175.9,11.8L-175.9 17.8M-187.9,21.8L-193.9 21.8M-219.85,-10.2L-219.85 -4.2M-213.85,21.8L-219.85 21.8L-219.85 27.8M-219.85,11.8L-219.85 17.8M-219.85,-0.2L-219.85 5.8M-219.85,93.8L-219.85 87.8L-213.85 87.8M-219.85,55.8L-219.85 61.8M-219.85,43.8L-219.85 49.8M-219.85,77.8L-219.85 83.8M-219.85,65.8L-219.85 71.8M-175.9,53.8L-175.9 47.8M-197.9,49.8L-197.9 43.8L-203.9 43.8M-197.9,55.8L-197.9 61.8M-197.9,71.8L-197.9 65.8L-203.9 65.8M-207.85,87.8L-201.85 87.8M-197.9,77.8L-197.9 83.8M-197.9,93.8L-197.9 87.8L-191.9 87.8M-175.9,59.8L-175.9 65.8L-181.9 65.8M-185.9,87.8L-179.9 87.8M-169.9,87.8L-175.9 87.8L-175.9 81.8M-175.9,75.8L-175.9 69.8M-187.9,65.8L-193.9 65.8M-187.9,43.8L-193.9 43.8M-219.85,33.8L-219.85 39.8M-209.9,43.8L-215.9 43.8M-209.9,-0.2L-215.9 -0.2M-197.9,33.8L-197.9 39.8M-209.9,65.8L-215.9 65.8M-175.9,33.8L-175.9 39.8M-175.9,97.8L-175.9 91.8M-185.9,109.8L-179.9 109.8M-197.9,99.8L-197.9 105.8M-197.9,115.8L-197.9 109.8L-203.9 109.8M-197.9,109.8L-191.9 109.8M-207.85,131.8L-201.85 131.8M-197.9,121.8L-197.9 127.8M-197.9,131.8L-197.9 137.8M-181.9,131.8L-175.9 131.8L-175.9 137.8M-175.9,121.8L-175.9 127.8M-175.9,115.8L-175.9 103.8M-187.9,131.8L-193.9 131.8M-219.85,99.8L-219.85 105.8M-213.85,131.8L-219.85 131.8L-219.85 137.8M-219.85,121.8L-219.85 127.8M-219.85,109.8L-219.85 115.8M-213.85,175.8L-219.85 175.8L-219.85 181.8M-219.85,143.8L-219.85 149.8M-219.85,165.8L-219.85 171.8M-219.85,153.8L-219.85 159.8M-175.9,143.8L-175.9 149.8M-169.9,153.8L-175.9 153.8L-175.9 159.8M-185.9,153.8L-179.9 153.8M-191.9,153.8L-203.9 153.8M-197.9,143.8L-197.9 149.8M-197.9,169.8L-197.9 181.8M-207.85,175.8L-201.85 175.8M-181.9,175.8L-175.9 175.8L-175.9 181.8M-175.9,165.8L-175.9 171.8M-197.9,163.8L-197.9 157.8M-187.9,175.8L-193.9 175.8M-209.9,109.8L-215.9 109.8M-209.9,153.8L-215.9 153.8M-109.9,97.8L-109.9 91.8M-99.9,109.8L-105.9 109.8M-119.9,109.8L-113.9 109.8M-121.9,131.8L-127.9 131.8M-97.9,131.8L-91.9 131.8M-109.9,121.8L-109.9 127.8M-115.9,131.8L-103.9 131.8M-109.9,115.8L-109.9 103.8M-131.9,99.8L-131.9 105.8M-131.9,115.8L-131.9 109.8L-137.9 109.8M-143.9,109.8L-149.9 109.8M-153.9,103.8L-153.9 109.8L-159.9 109.8M-153.9,97.8L-153.9 91.8M-153.9,125.8L-153.9 131.8L-159.9 131.8M-153.9,119.8L-153.9 113.8M-131.9,121.8L-131.9 127.8M-131.9,137.8L-131.9 131.8L-137.9 131.8M-143.9,131.8L-149.9 131.8M-131.9,159.8L-131.9 153.8L-137.9 153.8M-143.9,153.8L-149.9 153.8M-131.9,143.8L-131.9 149.8M-153.9,159.8L-153.9 147.8M-163.9,153.8L-157.9 153.8M-153.9,185.8L-153.9 179.8M-153.9,165.8L-153.9 171.8M-125.9,175.8L-131.9 175.8L-131.9 181.8M-141.9,175.8L-135.9 175.8M-131.9,165.8L-131.9 171.8M-147.9,175.8L-159.9 175.8M-115.9,153.8L-109.9 153.8L-109.9 147.8M-99.9,153.8L-105.9 153.8M-121.9,153.8L-127.9 153.8M-119.9,175.8L-113.9 175.8M-109.9,169.8L-109.9 181.8M-99.9,175.8L-105.9 175.8M-109.9,163.8L-109.9 157.8M-109.9,141.8L-109.9 135.8M-153.9,141.8L-153.9 135.8M-131.9,109.8L-125.9 109.8M-181.9,43.8L-169.9 43.8M-131.9,81.8L-131.9 93.8M-165.9,109.8L-171.9 109.8M-165.9,65.8L-171.9 65.8M-165.9,21.8L-171.9 21.8M-165.9,131.8L-171.9 131.8M-165.9,175.8L-171.9 175.8M-175.9,-0.2L-169.9 -0.2M-97.9,197.8L-91.9 197.8M-109.9,203.8L-109.9 197.8L-103.9 197.8M-109.9,187.8L-109.9 193.8M-119.9,197.8L-113.9 197.8M-127.9,219.8L-117.85 219.8M-91.9,219.8L-99.85 219.8M-115.9,219.8L-103.9 219.8M-109.9,209.8L-109.9 215.8M-131.9,187.8L-131.9 193.8M-131.9,207.8L-131.9 201.8M-143.9,197.8L-149.9 197.8M-153.9,197.8L-153.9 191.8M-163.9,197.8L-157.9 197.8M-153.9,207.8L-153.9 201.8M-163.9,219.8L-153.9 219.8L-153.9 213.8M-153.9,219.8L-153.85 219.8L-131.9 219.8L-131.9 213.8M-137.9,197.8L-125.9 197.8M-131.9,219.8L-129.85 219.8M-175.9,187.8L-175.9 193.8M-169.9,197.8L-175.9 197.8L-175.9 203.8M-185.9,197.8L-179.9 197.8M-191.9,197.8L-203.9 197.8M-197.9,187.8L-197.9 193.8M-197.9,207.8L-197.9 201.8M-207.85,219.8L-201.85 219.8M-197.9,219.8L-197.9 213.8M-187.9,219.8L-195.85 219.8M-175.9,209.8L-175.9 215.8M-219.85,187.8L-219.85 193.8M-219.85,219.8L-219.85 218.65L-219.9 219.8L-219.85 219.8L-213.85 219.8M-219.85,209.85L-219.85 215.85M-219.85,197.8L-219.85 203.85M-209.9,197.8L-215.9 197.8M-183.85,219.8L-165.85 219.8M-81.9,109.8L-93.9 109.8M-81.9,43.8L-93.9 43.8M-81.9,-154.2L-93.9 -154.2" />
</g>
</svg>
