<?xml version="1.0" encoding="utf-8"?>
<svg version="1.1" id="Layer_1"
xmlns="http://www.w3.org/2000/svg"
xmlns:xlink="http://www.w3.org/1999/xlink"
xmlns:author="http://www.sothink.com"
width="36px" height="26px"
xml:space="preserve">
<g id="179" transform="matrix(1, 0, 0, 1, 18, 13)">
<path style="fill:#DBE6BE;fill-opacity:1" d="M9.65,1.5Q14 4.25 13.3 3.05Q11.15 -0.25 11.15 -1.2L12.95 -5.2Q13.8 -7.5 9.85 -3.7Q9.15 -3 7.95 -3.2L7.85 -3.2Q7.1 -3.35 6.25 -3.8L5.05 -4.4L4.1 -6.1Q-0.3 -8.15 -2.45 -8.35Q-4.25 -8.45 -8.15 -7.3L-10.1 -3.75L-10.25 -3.55Q-13.4 -1.85 -13.4 -0.6Q-13.4 0.75 -11.5 1.9L-9.15 2.95L-3.75 4.3L-3.9 5.7L-3.6 7.4Q-3.25 8.05 -2.75 8.05L-2.25 7.85L-1.6 8.05Q-1.15 7.9 -0.95 7.15Q-0.8 6.4 -1.85 5.65L-2.75 4.45Q-0.65 4.65 1.15 4.4L3.25 3.7Q3.15 3.85 3.2 4.1Q3.2 4.5 3.5 4.85L4.3 5.15Q4.75 5.15 5.05 4.85Q5.4 4.5 4.6 4.1Q3.8 3.7 4.05 3.4L4.15 3.3L6.05 2.15Q7.1 1.45 7.95 1.25L8.15 1.2Q9 1.05 9.65 1.5M-17.5,-12.5L17.5 -12.5L17.5 12.5L-17.5 12.5L-17.5 -12.5" />
<linearGradient
id="LinearGradID_598" gradientUnits="userSpaceOnUse" gradientTransform="matrix(0.000762939, -0.00643921, 0.0162506, 0.00186157, 0, -0.8)" spreadMethod ="pad" x1="-819.2" y1="0" x2="819.2" y2="0" >
<stop  offset="0" style="stop-color:#DAC4B4;stop-opacity:1" />
<stop  offset="0.537255" style="stop-color:#977859;stop-opacity:1" />
<stop  offset="0.984314" style="stop-color:#563529;stop-opacity:1" />
</linearGradient>
<path style="fill:url(#LinearGradID_598) " d="M6.25,-3.8Q7.1 -3.35 7.85 -3.2L7.95 -2.55L8.25 -2.45L8.35 -2.1L8.4 -2.1L8.45 -1.95L8.6 -1.8L8.45 -0.8L8 0.15L8.15 1.2L7.95 1.25Q7.1 1.45 6.05 2.15L4.15 3.3L4.05 3.1Q3.8 3.1 3.5 3.4L3.25 3.7L1.15 4.4Q-0.65 4.65 -2.75 4.45L-2.75 4.1Q-2.65 3.35 -2.9 3.4L-3.35 4.25L-3.35 4.4L-3.75 4.3L-9.15 2.95L-11.5 1.9L-11.45 1.55L-11.4 1.55L-11.35 1.4L-8.45 1.05L-8.3 0.45L-8.2 0.4L-8.05 0.3L-7.95 0.3L-7.9 0.25L-7.7 0L-7.85 -0.95L-7.95 -2.2L-8.2 -2.4L-8.3 -2.65L-8.45 -2.85L-8.55 -3.15L-9.5 -3.8L-9.7 -3.8L-9.05 -4.15L-9 -4.2Q-6.9 -5.2 -3.9 -5.5L-2.15 -5.7L-0.4 -5.75L1.15 -5.55L1.3 -5.55L3.4 -5.1L3.55 -5.05L3.8 -4.9L4.6 -4.6L5.05 -4.4L6.25 -3.8M-7,-1.5L-7.6 -0.35L-6.95 1L-6.05 2.05Q-5.75 2.1 -5.5 1.45Q-5.25 0.75 -5.25 -0.2Q-5.25 -1.2 -5.5 -1.95Q-5.75 -2.6 -6.1 -2.5L-7 -1.5" />
<radialGradient
id="RadialGradID_599" gradientUnits="userSpaceOnUse" gradientTransform="matrix(0.00871277, 0, 0, 0.00871277, -1.2, -5.95)" spreadMethod ="pad" cx="0" cy="0" r="819.2" fx="0" fy="0" >
<stop  offset="0"  style="stop-color:#977859;stop-opacity:1" />
<stop  offset="0.0352941"  style="stop-color:#BF9E7F;stop-opacity:1" />
<stop  offset="0.796078"  style="stop-color:#563529;stop-opacity:1" />
</radialGradient>
<path style="fill:url(#RadialGradID_599) " d="M-2.15,-5.7L-3.9 -5.5Q-6.9 -5.2 -9 -4.2L-9.05 -4.15L-9.7 -3.8L-10.1 -3.75L-8.15 -7.3Q-4.25 -8.45 -2.45 -8.35Q-0.3 -8.15 4.1 -6.1L5.05 -4.4L4.6 -4.6L3.8 -4.9L3.55 -5.05L3.4 -5.1L1.3 -5.55L-0.4 -5.75L-2.15 -5.7" />
<path style="fill:#DDC9BB;fill-opacity:1" d="M1.15,-5.55L-0.4 -5.75L1.3 -5.55L1.15 -5.55" />
<radialGradient
id="RadialGradID_600" gradientUnits="userSpaceOnUse" gradientTransform="matrix(0.00292969, 0, 0, 0.00292969, -6.1, -0.25)" spreadMethod ="pad" cx="0" cy="0" r="819.2" fx="0" fy="0" >
<stop  offset="0"  style="stop-color:#BF9E7F;stop-opacity:1" />
<stop  offset="0.490196"  style="stop-color:#977859;stop-opacity:1" />
<stop  offset="0.984314"  style="stop-color:#563529;stop-opacity:1" />
</radialGradient>
<path style="fill:url(#RadialGradID_600) " d="M-6.1,-2.5Q-5.75 -2.6 -5.5 -1.95Q-5.25 -1.2 -5.25 -0.2Q-5.25 0.75 -5.5 1.45Q-5.75 2.1 -6.05 2.05L-6.95 1L-7.6 -0.35L-7 -1.5L-6.1 -2.5" />
<radialGradient
id="RadialGradID_601" gradientUnits="userSpaceOnUse" gradientTransform="matrix(0.0037384, 0, 0, 0.0037384, -10.5, -0.95)" spreadMethod ="pad" cx="0" cy="0" r="819.2" fx="0" fy="0" >
<stop  offset="0"  style="stop-color:#BF9E7F;stop-opacity:1" />
<stop  offset="0.490196"  style="stop-color:#977859;stop-opacity:1" />
<stop  offset="0.984314"  style="stop-color:#563529;stop-opacity:1" />
</radialGradient>
<path style="fill:url(#RadialGradID_601) " d="M-13.4,-0.6Q-13.4 -1.85 -10.25 -3.55L-9.7 -3.8L-9.5 -3.8L-8.55 -3.15L-8.45 -2.85L-8.3 -2.65L-8.2 -2.4L-7.95 -2.2L-7.85 -0.95L-7.7 0L-7.9 0.25L-7.95 0.3L-8.05 0.3L-8.2 0.4L-8.3 0.45L-8.45 1.05L-11.35 1.4L-11.4 1.55L-11.45 1.55L-11.5 1.9Q-13.4 0.75 -13.4 -0.6M-10.8,-2.25L-11.05 -1.6L-10.8 -1Q-10.5 -0.75 -10.15 -0.75Q-9.75 -0.75 -9.5 -1Q-9.2 -1.25 -9.15 -1.6Q-9.2 -2 -9.5 -2.25L-10.15 -2.5L-10.8 -2.25" />
<radialGradient
id="RadialGradID_602" gradientUnits="userSpaceOnUse" gradientTransform="matrix(0.00152588, 0, 0, 0.00152588, -10.05, -1.6)" spreadMethod ="pad" cx="0" cy="0" r="819.2" fx="0" fy="0" >
<stop  offset="0"  style="stop-color:#BF9E7F;stop-opacity:1" />
<stop  offset="0.490196"  style="stop-color:#977859;stop-opacity:1" />
<stop  offset="0.984314"  style="stop-color:#563529;stop-opacity:1" />
</radialGradient>
<path style="fill:url(#RadialGradID_602) " d="M-10.15,-2.5L-9.5 -2.25Q-9.2 -2 -9.15 -1.6Q-9.2 -1.25 -9.5 -1Q-9.75 -0.75 -10.15 -0.75Q-10.5 -0.75 -10.8 -1L-11.05 -1.6L-10.8 -2.25L-10.15 -2.5M-10.65,-2.1L-10.8 -1.6L-10.65 -1.2Q-10.45 -1 -10.15 -0.95Q-9.85 -1 -9.65 -1.2Q-9.4 -1.35 -9.4 -1.6L-9.65 -2.1L-10.15 -2.3L-10.65 -2.1" />
<radialGradient
id="RadialGradID_603" gradientUnits="userSpaceOnUse" gradientTransform="matrix(0.00115967, 0, 0, 0.00115967, -10.05, -1.6)" spreadMethod ="pad" cx="0" cy="0" r="819.2" fx="0" fy="0" >
<stop  offset="0"  style="stop-color:#BF9E7F;stop-opacity:1" />
<stop  offset="0.490196"  style="stop-color:#977859;stop-opacity:1" />
<stop  offset="0.984314"  style="stop-color:#563529;stop-opacity:1" />
</radialGradient>
<path style="fill:url(#RadialGradID_603) " d="M-10.15,-2.3L-9.65 -2.1L-9.4 -1.6Q-9.4 -1.35 -9.65 -1.2Q-9.85 -1 -10.15 -0.95Q-10.45 -1 -10.65 -1.2L-10.8 -1.6L-10.65 -2.1L-10.15 -2.3" />
<radialGradient
id="RadialGradID_604" gradientUnits="userSpaceOnUse" gradientTransform="matrix(0.00871277, 0, 0, 0.00871277, -1.2, -5.95)" spreadMethod ="pad" cx="0" cy="0" r="819.2" fx="0" fy="0" >
<stop  offset="0"  style="stop-color:#BF9E7F;stop-opacity:1" />
<stop  offset="0.490196"  style="stop-color:#977859;stop-opacity:1" />
<stop  offset="0.984314"  style="stop-color:#563529;stop-opacity:1" />
</radialGradient>
<path style="fill:url(#RadialGradID_604) " d="M-10.1,-3.75L-9.7 -3.8L-10.25 -3.55L-10.1 -3.75" />
<radialGradient
id="RadialGradID_605" gradientUnits="userSpaceOnUse" gradientTransform="matrix(0.00286865, -0.000671387, 0.000671387, 0.00286865, -1.3, 6.95)" spreadMethod ="pad" cx="0" cy="0" r="819.2" fx="0" fy="0" >
<stop  offset="0"  style="stop-color:#BF9E7F;stop-opacity:1" />
<stop  offset="0.490196"  style="stop-color:#977859;stop-opacity:1" />
<stop  offset="0.984314"  style="stop-color:#563529;stop-opacity:1" />
</radialGradient>
<path style="fill:url(#RadialGradID_605) " d="M-1.85,5.65Q-0.8 6.4 -0.95 7.15Q-1.15 7.9 -1.6 8.05L-2.25 7.85L-2.6 7.5L-3.25 5.95Q-3.5 5.05 -3.35 4.4L-3.35 4.25L-2.9 3.4Q-2.65 3.35 -2.75 4.1L-2.75 4.45L-1.85 5.65" />
<radialGradient
id="RadialGradID_606" gradientUnits="userSpaceOnUse" gradientTransform="matrix(0.00292969, 0, 0, 0.00292969, -2.2, 7.15)" spreadMethod ="pad" cx="0" cy="0" r="819.2" fx="0" fy="0" >
<stop  offset="0"  style="stop-color:#977859;stop-opacity:1" />
<stop  offset="0.0352941"  style="stop-color:#BF9E7F;stop-opacity:1" />
<stop  offset="0.796078"  style="stop-color:#563529;stop-opacity:1" />
</radialGradient>
<path style="fill:url(#RadialGradID_606) " d="M-3.25,5.95L-2.6 7.5L-2.25 7.85L-2.75 8.05Q-3.25 8.05 -3.6 7.4L-3.9 5.7L-3.75 4.3L-3.35 4.4Q-3.5 5.05 -3.25 5.95" />
<radialGradient
id="RadialGradID_607" gradientUnits="userSpaceOnUse" gradientTransform="matrix(0.00292969, 0, 0, 0.001297, 4.9, 4.75)" spreadMethod ="pad" cx="0" cy="0" r="819.2" fx="0" fy="0" >
<stop  offset="0"  style="stop-color:#977859;stop-opacity:1" />
<stop  offset="0.0352941"  style="stop-color:#BF9E7F;stop-opacity:1" />
<stop  offset="0.796078"  style="stop-color:#563529;stop-opacity:1" />
</radialGradient>
<path style="fill:url(#RadialGradID_607) " d="M3.25,3.7L3.5 3.4Q3.8 3.1 4.05 3.1L4.15 3.3L4.05 3.4Q3.8 3.7 4.6 4.1Q5.4 4.5 5.05 4.85Q4.75 5.15 4.3 5.15L3.5 4.85Q3.2 4.5 3.2 4.1Q3.15 3.85 3.25 3.7" />
<radialGradient
id="RadialGradID_608" gradientUnits="userSpaceOnUse" gradientTransform="matrix(0.00689697, 0, 0, 0.00689697, 12.45, -6.6)" spreadMethod ="pad" cx="0" cy="0" r="819.2" fx="0" fy="0" >
<stop  offset="0"  style="stop-color:#977859;stop-opacity:1" />
<stop  offset="0.0352941"  style="stop-color:#BF9E7F;stop-opacity:1" />
<stop  offset="0.796078"  style="stop-color:#563529;stop-opacity:1" />
</radialGradient>
<path style="fill:url(#RadialGradID_608) " d="M8.15,1.2L8 0.15L8.45 -0.8L8.6 -1.8L8.45 -1.95L8.4 -2.1L8.35 -2.1L8.25 -2.45L7.95 -2.55L7.85 -3.2L7.95 -3.2Q9.15 -3 9.85 -3.7Q13.8 -7.5 12.95 -5.2L11.15 -1.2Q11.15 -0.25 13.3 3.05Q14 4.25 9.65 1.5Q9 1.05 8.15 1.2" />
<path style="fill:none;stroke-width:1;stroke-linecap:round;stroke-linejoin:round;stroke-miterlimit:3;stroke:#563529;stroke-opacity:1" d="M-17.5,-12.5L17.5 -12.5L17.5 12.5L-17.5 12.5L-17.5 -12.5z" />
</g>
</svg>
