<?xml version="1.0" encoding="utf-8"?>
<svg version="1.1" id="Layer_1"
xmlns="http://www.w3.org/2000/svg"
xmlns:xlink="http://www.w3.org/1999/xlink"
xmlns:author="http://www.sothink.com"
width="13px" height="25px"
xml:space="preserve">
<g id="34" transform="matrix(1, 0, 0, 1, 5.7, 11.95)">
<path style="fill:#000066;fill-opacity:1" d="M5.65,-10.75L5.4 -10.55L5.1 -10.55L-5.1 -10.55L-5.4 -10.55L-5.6 -10.75L-5.7 -11.25L-5.6 -11.75L-5.4 -11.95L5.4 -11.95L5.65 -11.75L5.75 -11.25L5.7 -10.95L5.65 -10.75M5.1,10.65L5.4 10.65L5.65 10.85L5.75 11.35L5.65 11.8L5.4 12.05L-4.55 12.05L-5.4 12.05L-5.6 11.8L-5.7 11.35L-5.6 10.85L-5.4 10.65L-5.1 10.65L5.1 10.65" />
<path style="fill:#D1EAED;fill-opacity:1" d="M-5.1,10.65Q-3.15 2.55 -0.15 0.05L-0.95 -0.9L-1.3 -1.35L-0.9 -0.95L-1.5 -1.75L-1.5 -1.85L-1.8 -2.2L-2.25 -2.85Q-3.05 -4.2 -3.65 -5.8L-3.95 -6.6L-5.1 -10.55L5.1 -10.55Q3.85 -5.95 2.15 -2.85L2.2 -2.8L1.1 -1.15L0.15 0.05Q3.8 3.55 5.1 10.65L-5.1 10.65M-4.4,-10L-4.05 -8.6L-2.8 -5.45L-2.55 -5L-2.5 -4.8L-2.4 -4.6L-2.35 -4.45L-2.2 -4.1L-1.55 -2.75Q-0.95 -1.65 -1.2 -2.3L-1.8 -3.8L-1.85 -3.95L-1.95 -4.25L-2.05 -4.45L-2.1 -4.6L-2.15 -4.75L-2.2 -4.85L-2.3 -5.15L-2.35 -5.3L-2.45 -5.55L-2.45 -5.7L-2.5 -5.8L-2.7 -6.3L-2.7 -6.4L-2.85 -7.1L-2.95 -7.3L-3.25 -8.3L-3.7 -9.3L-4.05 -9.9L-4.3 -10.15L-4.35 -10.15L-4.4 -10.15L-4.4 -10M3.45,-7.8L3.05 -7.25L2.45 -5.8L2.05 -4.55L1.85 -4.1L1.75 -3.8L1.25 -2.7Q1.05 -2.25 1.5 -2.95L2.4 -4.75L2.4 -4.8L3.25 -6.8L3.4 -7.2L3.55 -7.8L3.45 -7.8M0.2,-0.3L0.15 -0.3L0.1 -0.2L0.15 -0.2L0.2 -0.3M-4.55,10.45L4.8 10.45L4.8 10.4L4.3 9.05L4.2 8.75L4 8.2L2.8 5.1L2.75 5.05L1.5 2.4Q0.9 1.25 1.2 1.9L2.05 4.1L2.15 4.45L2.2 4.5L2.2 4.6L2.85 6.65L0.8 4.8L0.15 4.8L-0.15 4.8L-0.6 4.8Q-1.85 5.55 -2.85 7L-3.25 7.7Q-4 8.85 -4.55 10.4L-4.55 10.45M-1.25,2.15L-2.2 4L-3.05 6L-3.3 7.05L-2.85 6.45L-2.25 5L-1.65 3.3L-1.05 1.9Q-0.85 1.45 -1.25 2.15" />
<path style="fill:#0099CC;fill-opacity:1" d="M-4.4,-10.15L-4.35 -10.15L-4.3 -10.15L-4.05 -9.9L-3.7 -9.3L-3.25 -8.3L-2.95 -7.3L-2.85 -7.1L-2.7 -6.4L-2.7 -6.3L-2.5 -5.8L-2.45 -5.7L-2.45 -5.55L-2.35 -5.3L-2.3 -5.15L-2.2 -4.85L-2.15 -4.75L-2.1 -4.6L-2.05 -4.45L-1.95 -4.25L-1.85 -3.95L-1.8 -3.8L-1.2 -2.3Q-0.95 -1.65 -1.55 -2.75L-2.2 -4.1L-2.35 -4.45L-2.4 -4.6L-2.5 -4.8L-2.55 -5L-2.8 -5.45L-4.05 -8.6L-4.4 -10L-4.4 -10.15M4.35,9.75L4.3 9.8L4.05 9.55L3.7 8.95Q3.15 7.95 2.9 6.95L2.85 6.7L2.85 6.65L2.2 4.6L2.2 4.5L2.15 4.45L2.05 4.1L1.2 1.9Q0.9 1.25 1.5 2.4L2.75 5.05L2.8 5.1L4 8.2L4.2 8.75L4.35 9.75" />
<path style="fill:#999999;fill-opacity:1" d="M5.1,-10.55L5.4 -10.55L5.65 -10.75L5.7 -10.95L6.55 -10.95L6.75 -10.7L6.9 -10.25L6.75 -9.7L6.55 -9.55L6.25 -9.55Q4.4 -2.45 1.3 1.05Q4.95 4.6 6.25 11.65L6.55 11.65L6.75 11.85L6.9 12.35L6.75 12.85L6.55 13.05L-4.25 13.05L-4.5 12.85L-4.55 12.35L-4.55 12.05L5.4 12.05L5.65 11.8L5.75 11.35L5.65 10.85L5.4 10.65L5.1 10.65Q3.8 3.55 0.15 0.05L1.1 -1.15L2.2 -2.8L2.35 -3.1L2.15 -2.85Q3.85 -5.95 5.1 -10.55" />
<path style="fill:#FFFFFF;fill-opacity:1" d="M3.55,-7.8L3.4 -7.2L3.25 -6.8L2.4 -4.8L2.4 -4.75L1.5 -2.95Q1.05 -2.25 1.25 -2.7L1.75 -3.8L1.85 -4.1L2.05 -4.55L2.45 -5.8L3.05 -7.25L3.45 -7.8L3.55 -7.8M-1.05,1.9L-1.65 3.3L-2.25 5L-2.85 6.45L-3.3 7.05L-3.05 6L-2.2 4L-1.25 2.15Q-0.85 1.45 -1.05 1.9" />
<path style="fill:#FF9900;fill-opacity:1" d="M4.2,8.75L4.3 9.05L4.8 10.4L-4.55 10.4Q-4 8.85 -3.25 7.7L-2.85 7Q-1.85 5.55 -0.6 4.8L-0.15 4.8L0.15 4.8L0.8 4.8L2.85 6.65L2.85 6.7L2.9 6.95Q3.15 7.95 3.7 8.95L4.05 9.55L4.3 9.8L4.35 9.75L4.2 8.75" />
</g>
</svg>
