<?xml version="1.0" encoding="utf-8"?>
<svg version="1.1" id="Layer_1"
xmlns="http://www.w3.org/2000/svg"
xmlns:xlink="http://www.w3.org/1999/xlink"
xmlns:author="http://www.sothink.com"
width="51px" height="30px"
xml:space="preserve">
<g id="131" transform="matrix(1, 0, 0, 1, 25, 15)">
<path style="fill:#977859;fill-opacity:1" d="M-25,-14.95L-25 -15L-24.95 -15L22 -15L22 -14.95L-25 -14.95" />
<path style="fill:#9DD6DD;fill-opacity:0.6" d="M0.25,-6.4L0.25 -2.65L-6.45 -2.65L-6.45 2.6L0.2 2.6L0.2 6.35L6.6 0L0.25 -6.4M-22.15,12L-22.15 -12.3L22 -12.3L22 12L-22.15 12" />
<path style="fill:#D1EAED;fill-opacity:1" d="M22,12L22 12.05L-24.95 12.05L-25 12.05L-25 -14.95L22 -14.95L22 -12.3L-22.15 -12.3L-22.15 12L22 12" />
<path style="fill:#42AEBD;fill-opacity:1" d="M25.05,-15L25.05 15L-24.95 15L-24.95 12.05L22 12.05L22 12L22 -12.3L22 -14.95L22 -15L-24.95 -15L25.05 -15" />
<path style="fill:#FF9900;fill-opacity:1" d="M6.6,0L0.2 6.35L0.2 2.6L-6.45 2.6L-6.45 -2.65L0.25 -2.65L0.25 -6.4L6.6 0" />
<path style="fill:none;stroke-width:1;stroke-linecap:round;stroke-linejoin:round;stroke-miterlimit:3;stroke:#FF9900;stroke-opacity:1" d="M10,-8.05L10 7.95L-10 7.95L-10 -8.05L-6.8 -8.05L-5.35 -8.05L4.9 -8.05L6 -8.05L10 -8.05z" />
</g>
</svg>
