<?xml version="1.0" encoding="utf-8"?>
<svg version="1.1" id="Layer_1"
xmlns="http://www.w3.org/2000/svg"
xmlns:xlink="http://www.w3.org/1999/xlink"
xmlns:author="http://www.sothink.com"
width="114px" height="61px"
xml:space="preserve">
<g id="221" transform="matrix(1, 0, 0, 1, 57.05, 30.5)">
<path style="fill:#374777;fill-opacity:1" d="M56.2,-30L56.6 -30L56.6 30L56.2 30L56.2 -30" />
<path style="fill:#9DD6DD;fill-opacity:0.6" d="M4,-7.8Q5.05 -6.65 5.05 -4.7L4.75 -2.8L3.55 -0.15Q2.3 2.1 1.95 3.4Q1.55 4.65 1.45 6.6L2.1 6.6Q2.2 4.75 2.7 3.7Q3.2 2.65 5.5 0.1Q6.9 -1.45 7.4 -2.65Q7.9 -3.85 7.9 -4.95Q7.9 -6.6 6.8 -7.95Q5.3 -9.8 2.05 -9.8Q-0.55 -9.8 -2.05 -8.45Q-3.55 -7.15 -3.55 -5.4Q-3.55 -4.25 -3 -3.6Q-2.5 -3 -1.85 -3Q-1.3 -3 -0.95 -3.35Q-0.6 -3.75 -0.6 -4.3L-1.05 -5.55L-1.55 -6.95Q-1.55 -7.7 -0.75 -8.3Q0.05 -8.95 1.4 -8.95Q2.9 -8.95 4 -7.8M50.1,23L50.1 23.05L-50.45 23.05L-50.45 23L-50.45 -24.4L50.1 -24.4L50.1 23M0.65,9Q0.15 9.5 0.15 10.2Q0.15 10.9 0.65 11.4Q1.15 11.9 1.85 11.9Q2.6 11.9 3.1 11.4Q3.6 10.9 3.6 10.2Q3.6 9.5 3.1 9Q2.6 8.5 1.85 8.5Q1.15 8.5 0.65 9" />
<path style="fill:#D1EAED;fill-opacity:1" d="M56.2,30L-56.55 30L-56.55 -30L56.2 -30L56.2 30M-50.45,23.05L50.1 23.05L50.1 23L50.15 23L50.15 -29.95L-56.4 -29.95L-56.4 23L-50.45 23L-50.45 23.05" />
<path style="fill:#42AEBD;fill-opacity:1" d="M50.1,-24.4L-50.45 -24.4L-50.45 23L-56.4 23L-56.4 -29.95L50.15 -29.95L50.15 23L50.1 23L50.1 -24.4" />
<path style="fill:#FF9900;fill-opacity:1" d="M1.4,-8.95Q0.05 -8.95 -0.75 -8.3Q-1.55 -7.7 -1.55 -6.95L-1.05 -5.55L-0.6 -4.3Q-0.6 -3.75 -0.95 -3.35Q-1.3 -3 -1.85 -3Q-2.5 -3 -3 -3.6Q-3.55 -4.25 -3.55 -5.4Q-3.55 -7.15 -2.05 -8.45Q-0.55 -9.8 2.05 -9.8Q5.3 -9.8 6.8 -7.95Q7.9 -6.6 7.9 -4.95Q7.9 -3.85 7.4 -2.65Q6.9 -1.45 5.5 0.1Q3.2 2.65 2.7 3.7Q2.2 4.75 2.1 6.6L1.45 6.6Q1.55 4.65 1.95 3.4Q2.3 2.1 3.55 -0.15L4.75 -2.8L5.05 -4.7Q5.05 -6.65 4 -7.8Q2.9 -8.95 1.4 -8.95M1.85,8.5Q2.6 8.5 3.1 9Q3.6 9.5 3.6 10.2Q3.6 10.9 3.1 11.4Q2.6 11.9 1.85 11.9Q1.15 11.9 0.65 11.4Q0.15 10.9 0.15 10.2Q0.15 9.5 0.65 9Q1.15 8.5 1.85 8.5" />
<path style="fill:none;stroke-width:1;stroke-linecap:round;stroke-linejoin:round;stroke-miterlimit:3;stroke:#FFFFFF;stroke-opacity:1" d="M56.2,30L-56.55 30L-56.55 -30L56.2 -30L56.2 30z" />
<path style="fill:none;stroke-width:0.5;stroke-linecap:round;stroke-linejoin:round;stroke-miterlimit:3;stroke:#FF9900;stroke-opacity:1" d="M19.55,18.6L-15.2 18.6L-15.2 -16.25L19.55 -16.25L19.55 18.6z" />
</g>
</svg>
