<?xml version="1.0" encoding="utf-8"?>
<svg version="1.1" id="Layer_1"
xmlns="http://www.w3.org/2000/svg"
xmlns:xlink="http://www.w3.org/1999/xlink"
xmlns:author="http://www.sothink.com"
width="36px" height="26px"
xml:space="preserve">
<g id="234" transform="matrix(1, 0, 0, 1, 18, 13)">
<path style="fill:#DBE6BE;fill-opacity:1" d="M5.6,-10.45L5.35 -10.4L5.3 -10.4L4.8 -10.25L4.7 -10.05L4.65 -10.05L4.3 -9.95L3.95 -9.8L3.8 -9.65Q3.5 -9.65 3.35 -9.45L3.15 -9.1L3.2 -8.9L2.85 -8.75L2.7 -8.35L2.7 -8.25L2.3 -8.1L2.15 -7.85L2.1 -7.7L2.05 -7.7L1.6 -7.55L1.4 -7.15L1.5 -6.95L1.35 -6.6Q1.3 -6.35 1.5 -6.2Q1.7 -6.05 1.95 -6L1.85 -5.7L2.05 -5.4L2.15 -5.25L2.5 -5.2L2.85 -5.25Q3.1 -5.3 3.3 -5.45L3.45 -5.65L3.55 -5.7L3.7 -6.05L3.6 -6.4L3.75 -6.65L3.95 -6.65L4.3 -6.55L4.65 -6.65L5.1 -6.8L5.2 -6.95L5.35 -7.05L5.5 -7.25L5.75 -7.4L5.9 -7.55L5.95 -7.6Q6.2 -7.6 6.35 -7.8L6.5 -7.95L6.65 -8.05L6.8 -8.25L6.85 -8.3L7 -8.45L7.1 -8.55L7.3 -8.9L7.2 -9.25L7.35 -9.6L7.15 -9.95L6.85 -10.1L6.9 -10.25L6.65 -10.65L6.25 -10.8L5.8 -10.65L5.7 -10.45L5.6 -10.45M5.4,1.65L5.25 1.35L5.2 1.4L4.75 0.95L4.65 0.75L4.6 0.75L4.05 0.2L4 0.05L3.95 0.05L3.55 -0.35L3.1 -0.25L3.1 -0.1L3.1 0.15L2.9 -5.1L2.8 -5.05L2.5 -5L2.25 -5.05L2.1 -5.15L1.9 0.15L1.9 -0.2L-1.8 0.95L-1.75 1L-1.7 1.25L-5.15 2.3L-6.15 2.45L-6.6 2.7L-8.4 3.3L-8.45 3.3L-8.4 4.05L-8.35 4.05L-5.1 8.7L-3.6 10.9L8.45 5.8L8.55 4.95L6.7 3L6.65 2.95L6.65 2.9L6.55 2.9L6.55 2.8L6.5 2.75L6.1 2.35L5.95 2.05L5.85 2.1L5.4 1.65M-17.5,-12.5L17.5 -12.5L17.5 12.5L-17.5 12.5L-17.5 -12.5" />
<path style="fill:#EFE3DE;fill-opacity:1" d="M-3.65,10L8.05 5.2L8.1 5.15L8.55 4.95L8.45 5.8L-3.6 10.9L-3.65 10M-7.95,3.95L-8.4 3.3L-8.4 4.05L-8.45 3.3L-8.4 3.3L-6.6 2.7L-6.6 2.8L-6.6 2.9L-6.6 2.95L-6.6 3.55L-7.95 3.95M-1.6,1.9L-3.8 2.6L-3.9 2.55L-4.15 2.45L-5.15 2.3L-1.7 1.25L-1.6 1.9M3.55,0.15L3.5 0.2L3.1 -0.1L3.1 -0.25L3.55 -0.35L3.55 0.15M-6.6,2.95L-6.55 3L-6.6 2.95" />
<path style="fill:#E4D0C9;fill-opacity:1" d="M6.15,2.5L6.1 2.35L6.5 2.75L6.15 2.5M8.1,5.15L6.7 3.7L6.7 3L6.65 3.05L6.65 2.95L6.7 3L8.55 4.95L8.1 5.15M-6.25,6.3L-6.1 6.5L-5.1 7.9L-5.1 8.7L-8.35 4.05L-8.4 4.05L-8.4 3.3L-7.95 3.95L-6.25 6.25L-6.25 6.3M3.55,-0.35L3.95 0.05L3.55 0.15L3.55 -0.35M4.35,0.85L4.05 0.2L4.6 0.75L4.35 0.85M5,1.45L4.75 0.95L5.2 1.4L5 1.45M5.7,2.1L5.4 1.65L5.85 2.1L5.75 2.15L5.7 2.1" />
<path style="fill:#715944;fill-opacity:1" d="M-6.1,6.5L-5.9 6.6L-5.2 6.75L-4.4 6.6L-4.2 6.5L-4 6.3L-4 5.1L-3.95 5.1L-3.8 5L-3.8 5.5L-3.6 5.7L-3.25 5.8L-2.8 5.7L-2.65 5.65L-2.55 5.5L-2.55 4.7L-2.55 4.6L-2.65 4.5L-2.7 4.45L-3.2 4.4L-3.65 4.45L-3.75 4.5L-3.75 2.9L-3.7 2.8L-3.7 2.75L-3.75 2.75L-3.8 2.6L-1.6 1.9L-1.45 3L2 7.1L6.8 5L6.7 3.7L8.1 5.15L8.05 5.2L-3.65 10L-3.6 10.9L-5.1 8.7L-5.1 7.9L-6.1 6.5M-6.25,6.25L-7.95 3.95L-6.6 3.55L-6.6 4.85L-6.25 5.2L-6.25 6.25" />
<path style="fill:#D5DAF1;fill-opacity:1" d="M6.8,-8.25L6.65 -8.05L6.5 -7.95L6.2 -7.9L6.25 -8.05L6.5 -8.2L6.65 -8.55L6.55 -8.85L6.7 -9.25L6.55 -9.65L6.25 -9.75L6.25 -9.9L6.1 -10.35L5.7 -10.45L5.8 -10.65L6.25 -10.8L6.65 -10.65L6.9 -10.25L6.85 -10.1L7.15 -9.95L7.35 -9.6L7.2 -9.25L7.3 -8.9L7.1 -8.55L7 -8.45L6.85 -8.4L6.8 -8.25M5.55,-7.5L5.6 -7.5L6.05 -7.7L6 -7.6L5.95 -7.6L5.9 -7.55L5.55 -7.5M4.9,-6.85L4.85 -6.85L4.95 -7.1L4.95 -7.15L5.4 -7.3L5.5 -7.45L5.5 -7.4L5.5 -7.25L5.35 -7.05L5.2 -6.95L4.9 -6.85M3.1,-5.55L3.05 -5.55L3.1 -5.7L3 -6.05L3.15 -6.4L3.1 -6.6L3.4 -6.55L3.75 -6.65L3.6 -6.4L3.7 -6.05L3.55 -5.7L3.45 -5.65L3.1 -5.55M2.1,-7.7L2.15 -7.85L2.15 -7.7L2.1 -7.7M4.2,-9.9L4.05 -9.6L3.8 -9.65L3.95 -9.8L4.3 -9.95L4.2 -9.9M5.2,-10.35L5 -9.95L4.7 -10.05L4.8 -10.25L5.3 -10.4L5.35 -10.4L5.2 -10.35M3.9,-8.55L3.95 -8.55L3.9 -8.55" />
<path style="fill:#FFFFFF;fill-opacity:1" d="M6.85,-8.4L7 -8.45L6.85 -8.3L6.8 -8.25L6.85 -8.4M3.45,-5.65L3.3 -5.45Q3.1 -5.3 2.85 -5.25L2.5 -5.2L2.15 -5.25L2.05 -5.4L1.85 -5.7L1.95 -6Q1.7 -6.05 1.5 -6.2Q1.3 -6.35 1.35 -6.6L1.5 -6.95L1.4 -7.15L1.6 -7.55L2.05 -7.7L2.1 -7.7L2.15 -7.7L2.15 -7.85L2.3 -8.1L2.7 -8.25L2.7 -8.35L2.85 -8.75L3.2 -8.9L3.15 -9.1L3.35 -9.45Q3.5 -9.65 3.8 -9.65L4.05 -9.6L4.2 -9.9L4.3 -9.95L4.65 -10.05L4.7 -10.05L5 -9.95L5.2 -10.35L5.35 -10.4L5.6 -10.45L5.7 -10.45L6.1 -10.35L6.25 -9.9L6.25 -9.75L6.55 -9.65L6.7 -9.25L6.55 -8.85L6.65 -8.55L6.5 -8.2L6.25 -8.05L6.2 -7.9L6.5 -7.95L6.35 -7.8Q6.2 -7.6 5.95 -7.6L6 -7.6L6.05 -7.7L5.6 -7.5L5.55 -7.5L5.9 -7.55L5.75 -7.4L5.5 -7.25L5.5 -7.4L5.5 -7.45L5.4 -7.3L4.95 -7.15L4.95 -7.1L4.85 -6.85L4.9 -6.85L5.2 -6.95L5.1 -6.8L4.65 -6.65L4.3 -6.55L3.95 -6.65L3.75 -6.65L3.4 -6.55L3.1 -6.6L3.15 -6.4L3 -6.05L3.1 -5.7L3.05 -5.55L3.1 -5.55L3.45 -5.65M3.95,-8.55L3.9 -8.55L3.95 -8.55" />
<path style="fill:#A8ABAC;fill-opacity:1" d="M1.25,4.2L1.2 3.65L1.5 4.15L1.75 4.8L1.8 4.95L2 7.1L-1.45 3L-1.6 1.9L-1.7 1.25L-1.75 1L-0.7 2.15L-0.75 1.6L-0.15 2.75L-0.15 2.7L0 2.9L0 2.7L-0.05 2.3L0.15 2.65L0.35 3.05L0.55 3.45L0.6 3.55L0.45 3.45L0.7 3.7L0.65 3.35L0.65 3.2L0.75 3.35L1.25 4.25L1.25 4.2M-1.35,2.4L1.65 5.7L1.6 5.2L-1.35 2L-1.35 2.4" />
<path style="fill:#D5D5D5;fill-opacity:1" d="M3.1,0.15L3.1 -0.1L3.5 0.2L1.55 0.85L1.55 0.9L-0.7 1.65L-0.15 2.7L-0.15 2.75L-0.75 1.6L-0.7 2.15L-1.75 1L-1.8 0.95L1.9 -0.2L1.9 0.15L1.9 0.25Q2.5 0.6 3.1 0.25L3.1 0.15M5.75,2.15L5.7 2.15L5.7 2.1L5.75 2.15M-0.15,2.7L-0.1 2.7L0 2.7L0 2.9L-0.15 2.7M0.15,2.65L0.15 2.6L0.35 3.05L0.15 2.65M0.7,3.7L0.45 3.45L0.6 3.55L0.55 3.45L0.65 3.35L0.7 3.7M1.25,4.25L0.75 3.35L1.25 4.2L1.25 4.25M1.5,4.15L1.55 4.15L1.75 4.8L1.5 4.15" />
<path style="fill:#EAEAEA;fill-opacity:1" d="M5.2,1.4L5.25 1.35L5.4 1.65L5.7 2.1L5.7 2.15L5.75 2.15L5.85 2.1L5.95 2.05L6.1 2.35L6.15 2.5L6.5 2.75L6.55 2.8L6.55 2.9L6.65 3.05L1.8 4.9L1.75 4.8L1.55 4.15L1.5 4.15L1.2 3.65L1.25 4.2L0.75 3.35L0.65 3.2L0.65 3.35L0.55 3.45L0.35 3.05L0.15 2.6L0.15 2.65L-0.05 2.3L0 2.7L-0.1 2.7L-0.15 2.7L-0.7 1.65L1.55 0.9L1.55 0.85L3.5 0.2L3.55 0.15L3.95 0.05L4 0.05L4.05 0.2L4.35 0.85L4.6 0.75L4.65 0.75L4.75 0.95L5 1.45L5.2 1.4" />
<path style="fill:#C9D8F3;fill-opacity:1" d="M-1.35,2L1.6 5.2L1.65 5.7L-1.35 2.4L-1.35 2" />
<path style="fill:#CED0D0;fill-opacity:1" d="M6.7,3.7L6.8 5L2 7.1L1.8 4.95L1.75 4.8L1.8 4.9L6.65 3.05L6.55 2.9L6.65 2.9L6.65 2.95L6.65 3.05L6.7 3M6.7,3L6.7 3.7" />
<linearGradient
id="LinearGradID_721" gradientUnits="userSpaceOnUse" gradientTransform="matrix(0.00175476, 0, 0, 0.00140381, -5.2, 3.65)" spreadMethod ="pad" x1="-819.2" y1="0" x2="819.2" y2="0" >
<stop  offset="0" style="stop-color:#A7907A;stop-opacity:1" />
<stop  offset="1" style="stop-color:#D9CFC6;stop-opacity:1" />
</linearGradient>
<path style="fill:url(#LinearGradID_721) " d="M-3.75,4.5L-3.8 4.6L-3.8 4.65L-3.8 4.7L-3.8 5L-3.95 5.1L-4 5.1L-4 4.8L-3.95 4.7L-4 4.65L-4.15 4.5L-4.35 4.45L-5.1 4.3L-5.9 4.45L-6.25 4.6L-6.25 4.65L-6.25 4.7L-6.25 4.8L-6.2 4.85L-6.25 4.85L-6.25 4.8L-6.25 5.2L-6.6 4.85L-6.6 3.55L-6.6 2.95L-6.55 3L-6.15 3.2L-5.85 3.3L-5.75 3.35L-4.6 3.35L-4.15 3.2L-3.9 3.1L-3.85 3.05L-3.8 3L-3.75 2.95L-3.75 2.9L-3.75 4.5" />
<linearGradient
id="LinearGradID_722" gradientUnits="userSpaceOnUse" gradientTransform="matrix(0.00175476, 0, 0, 0.000656128, 118.85, 66.7)" spreadMethod ="pad" x1="-819.2" y1="0" x2="819.2" y2="0" >
<stop  offset="0" style="stop-color:#A7907A;stop-opacity:1" />
<stop  offset="1" style="stop-color:#D9CFC6;stop-opacity:1" />
</linearGradient>
<path style="fill:url(#LinearGradID_722) " d="M-6.6,2.9L-6.6 2.8L-6.6 2.7L-6.15 2.45L-5.15 2.3L-4.15 2.45L-3.9 2.55L-3.8 2.6L-3.75 2.75L-3.7 2.75L-3.7 2.8L-3.75 2.9L-3.75 2.95L-3.8 3L-3.85 3.05L-3.9 3.1L-4.15 3.2L-4.6 3.35L-5.75 3.35L-5.85 3.3L-6.15 3.2L-6.55 3L-6.6 2.95L-6.6 2.9" />
<linearGradient
id="LinearGradID_723" gradientUnits="userSpaceOnUse" gradientTransform="matrix(0.00138855, 0, 0, 0.00050354, 92.4, 55)" spreadMethod ="pad" x1="-819.2" y1="0" x2="819.2" y2="0" >
<stop  offset="0" style="stop-color:#A7907A;stop-opacity:1" />
<stop  offset="1" style="stop-color:#D9CFC6;stop-opacity:1" />
</linearGradient>
<path style="fill:url(#LinearGradID_723) " d="M-4,4.85L-4.05 4.85L-4.15 4.9L-4.35 5L-4.7 5.1L-5.1 5.1L-5.6 5.1L-5.9 5L-6.2 4.85L-6.25 4.8L-6.25 4.7L-6.25 4.65L-6.25 4.6L-5.9 4.45L-5.1 4.3L-4.35 4.45L-4.15 4.5L-4 4.65L-3.95 4.7L-4 4.8L-4 4.85" />
<linearGradient
id="LinearGradID_724" gradientUnits="userSpaceOnUse" gradientTransform="matrix(0.00138855, 0, 0, 0.00108337, -5.2, 5.4)" spreadMethod ="pad" x1="-819.2" y1="0" x2="819.2" y2="0" >
<stop  offset="0" style="stop-color:#A7907A;stop-opacity:1" />
<stop  offset="1" style="stop-color:#D9CFC6;stop-opacity:1" />
</linearGradient>
<path style="fill:url(#LinearGradID_724) " d="M-6.25,6.25L-6.25 5.2L-6.25 4.8L-6.25 4.85L-6.2 4.85L-5.9 5L-5.6 5.1L-5.1 5.1L-4.7 5.1L-4.35 5L-4.15 4.9L-4.05 4.85L-4 4.85L-4 4.8L-4 5.1L-4 6.3L-4.2 6.5L-4.4 6.6L-5.2 6.75L-5.9 6.6L-6.1 6.5L-6.25 6.3L-6.25 6.25" />
<linearGradient
id="LinearGradID_725" gradientUnits="userSpaceOnUse" gradientTransform="matrix(0.000732422, 0, 0, 0.00335693, 2.45, -2.5)" spreadMethod ="pad" x1="-819.2" y1="0" x2="819.2" y2="0" >
<stop  offset="0" style="stop-color:#A7907A;stop-opacity:1" />
<stop  offset="1" style="stop-color:#D9CFC6;stop-opacity:1" />
</linearGradient>
<path style="fill:url(#LinearGradID_725) " d="M3.1,0.25Q2.5 0.6 1.9 0.25L1.9 0.15L2.1 -5.15L2.25 -5.05L2.5 -5L2.8 -5.05L2.9 -5.1L3.1 0.15L3.1 0.25" />
<linearGradient
id="LinearGradID_726" gradientUnits="userSpaceOnUse" gradientTransform="matrix(0.000793457, 0, 0, 0.000274658, 51.8, 32.95)" spreadMethod ="pad" x1="-819.2" y1="0" x2="819.2" y2="0" >
<stop  offset="0" style="stop-color:#A7907A;stop-opacity:1" />
<stop  offset="1" style="stop-color:#D9CFC6;stop-opacity:1" />
</linearGradient>
<path style="fill:url(#LinearGradID_726) " d="M-3.8,4.7L-3.8 4.65L-3.8 4.6L-3.75 4.5L-3.65 4.45L-3.2 4.4L-2.7 4.45L-2.65 4.5L-2.55 4.6L-2.55 4.7L-2.6 4.7L-2.65 4.75L-2.7 4.8L-2.95 4.85L-3.2 4.85L-3.25 4.85L-3.45 4.85L-3.65 4.8L-3.75 4.75L-3.8 4.7" />
<linearGradient
id="LinearGradID_727" gradientUnits="userSpaceOnUse" gradientTransform="matrix(0.000778198, 0, 0, 0.00062561, -3.2, 5)" spreadMethod ="pad" x1="-819.2" y1="0" x2="819.2" y2="0" >
<stop  offset="0" style="stop-color:#A7907A;stop-opacity:1" />
<stop  offset="1" style="stop-color:#D9CFC6;stop-opacity:1" />
</linearGradient>
<path style="fill:url(#LinearGradID_727) " d="M-3.75,4.75L-3.65 4.8L-3.45 4.85L-3.25 4.85L-3.2 4.85L-2.95 4.85L-2.7 4.8L-2.65 4.75L-2.6 4.7L-2.55 4.7L-2.55 5.5L-2.65 5.65L-2.8 5.7L-3.25 5.8L-3.6 5.7L-3.8 5.5L-3.8 5L-3.8 4.7L-3.75 4.75" />
<path style="fill:none;stroke-width:1;stroke-linecap:round;stroke-linejoin:round;stroke-miterlimit:3;stroke:#563529;stroke-opacity:1" d="M17.5,-12.5L17.5 12.5L-17.5 12.5L-17.5 -12.5L17.5 -12.5z" />
</g>
</svg>
