<?xml version="1.0" encoding="utf-8"?>
<svg version="1.1" id="Layer_1"
xmlns="http://www.w3.org/2000/svg"
xmlns:xlink="http://www.w3.org/1999/xlink"
xmlns:author="http://www.sothink.com"
width="24px" height="22px"
xml:space="preserve">
<g id="59" transform="matrix(1, 0, 0, 1, 11.75, 11)">
<path style="fill:#D5DAF1;fill-opacity:1" d="M9.7,-1.05L9 -0.15L8.6 0.2L7.3 0.5L7.25 0.5L7.4 -0.25Q7.95 -0.4 8.4 -0.8Q9.15 -1.4 9.15 -2.25L8.7 -3.45Q9.4 -4.05 9.4 -4.9Q9.4 -5.75 8.65 -6.4Q8.15 -6.85 7.45 -6.95L7.55 -7.55Q7.55 -8.4 6.8 -9.05Q6.1 -9.65 5.15 -9.65L5.2 -9.7L5.7 -10.4Q6.45 -11 7.45 -11Q8.45 -11 9.15 -10.4Q9.9 -9.75 9.9 -8.9L9.8 -8.3Q10.5 -8.2 11 -7.75Q11.75 -7.1 11.75 -6.25Q11.75 -5.4 11.05 -4.8L11.5 -3.6Q11.5 -2.75 10.75 -2.15L10.35 -1.8L9.75 -1.6L9.7 -1.05M2.2,4.35L2.15 4.35L2.3 3.6L2.3 3.35L2.45 3.35Q3.45 3.35 4.15 2.7L4.65 2.15L4.65 2.25L4.55 2.9L3.9 3.7L3.5 4.05L2.2 4.35M-4.85,9.6L-4.9 9.6L-4.75 8.85Q-4.75 8.1 -5.3 7.55Q-4.6 6.95 -4.6 6.1L-4.65 5.55L-3.8 5.7Q-2.95 5.7 -2.3 5.25L-2.35 5.35L-2.95 6.2Q-2.4 6.75 -2.4 7.5Q-2.4 8.35 -3.15 8.95L-3.55 9.3L-4.85 9.6M-0.45,-7.5Q-1.05 -6.95 -1.15 -6.2L-2.1 -6.4L-2.05 -6.45L-1.55 -7.15L-0.1 -7.7L-0.45 -7.5M3.35,-9.05Q2.75 -8.5 2.65 -7.75Q2.1 -8.1 1.35 -8.1L1.4 -8.15L1.9 -8.85Q2.65 -9.45 3.65 -9.45L4 -9.4L3.35 -9.05" />
<path style="fill:#FFFFFF;fill-opacity:1" d="M9.75,-1.6L10.35 -1.8L9.75 -1.15L9.7 -1.05L9.75 -1.6M-3.55,9.3L-4.15 9.95Q-4.85 10.6 -5.85 10.6L-5.9 10.6L-5.9 10.65L-7.2 10.95L-8.45 10.65L-8.95 10.3Q-9.65 9.7 -9.65 8.85Q-9.65 8.2 -9.25 7.7L-9.3 7.7Q-10.3 7.7 -11.05 7.05Q-11.75 6.45 -11.75 5.6Q-11.75 4.8 -11.15 4.2L-11.4 3.25Q-11.4 2.4 -10.7 1.75Q-9.95 1.15 -8.95 1.15L-8.85 1.1L-8.9 1.15L-8.6 1.2L-8.6 1.1L-8.5 0.6Q-8.4 0.05 -7.9 -0.4Q-7.25 -0.9 -6.4 -1L-6.5 -1.5Q-6.5 -2.35 -5.8 -3Q-5.2 -3.5 -4.45 -3.55L-4.6 -4.3Q-4.6 -5.15 -3.9 -5.8Q-3.15 -6.4 -2.15 -6.4L-2.05 -6.45L-2.1 -6.4L-1.15 -6.2Q-1.05 -6.95 -0.45 -7.5L-0.1 -7.7L1.3 -8.1L1.4 -8.15L1.35 -8.1Q2.1 -8.1 2.65 -7.75Q2.75 -8.5 3.35 -9.05L4 -9.4L5.1 -9.65L5.2 -9.7L5.15 -9.65Q6.1 -9.65 6.8 -9.05Q7.55 -8.4 7.55 -7.55L7.45 -6.95Q8.15 -6.85 8.65 -6.4Q9.4 -5.75 9.4 -4.9Q9.4 -4.05 8.7 -3.45L9.15 -2.25Q9.15 -1.4 8.4 -0.8Q7.95 -0.4 7.4 -0.25L7.25 0.5L7.3 0.5L8.6 0.2L8 0.85Q7.3 1.5 6.35 1.5L6.5 1.35L6.75 1.15L6.65 1.2Q5.95 1.85 4.95 1.85L4.8 1.85L4.75 2L4.8 2L6.1 1.7L5.5 2.35L4.55 2.9L4.65 2.25L4.65 2.15L4.15 2.7Q3.45 3.35 2.45 3.35L2.3 3.35L2.3 3.6L2.15 4.35L2.2 4.35L3.5 4.05L2.9 4.7Q2.2 5.35 1.2 5.35L1.15 5.35L-0.15 5.7Q-1 5.7 -1.65 5.25L-2.35 5.35L-2.3 5.25Q-2.95 5.7 -3.8 5.7L-4.65 5.55L-4.6 6.1Q-4.6 6.95 -5.3 7.55Q-4.75 8.1 -4.75 8.85L-4.9 9.6L-4.85 9.6L-3.55 9.3M-1.65,-2.25L-1.75 -2.2L-1.7 -2.15L-1.65 -2.15L-1.65 -2.25M3.25,-1.8L3.2 -1.75L3.3 -1.8L3.25 -1.8" />
</g>
</svg>
