<?xml version="1.0" encoding="utf-8"?>
<svg version="1.1" id="Layer_1"
xmlns="http://www.w3.org/2000/svg"
xmlns:xlink="http://www.w3.org/1999/xlink"
xmlns:author="http://www.sothink.com"
width="35px" height="25px"
xml:space="preserve">
<g id="164" transform="matrix(1, 0, 0, 1, 17.25, 12.5)">
<path style="fill:#4E6C33;fill-opacity:1" d="M14.75,-12.45L-16.9 -12.45L-16.9 -12.5L14.75 -12.5L14.75 -12.45M16.75,-12.5L17.2 -12.5L17.2 -12.45L16.75 -12.45L16.75 -12.5" />
<path style="fill:#563529;fill-opacity:1" d="M16.75,-12.45L16.75 12.5L-17.25 12.5L-17.25 -12.45L-16.9 -12.45L14.75 -12.45L14.75 -12.5L16.75 -12.5L16.75 -12.45M14.75,-10.6L-15.4 -10.6L-15.4 10.5L14.75 10.5L14.75 -10.6" />
<path style="fill:#DBE6BE;fill-opacity:1" d="M4.65,-5.3Q4.95 -4.9 4.75 -3.85L4.95 -3.85L5.55 -3.85L6.05 -6.55L-3.45 -6.55L-3.65 -6.55L-3.75 -6.05L-0.45 -0.25L-6.8 5.65L-6.95 6.1L-6.75 6.1L2.95 6.1L4.3 2.85L3.8 2.8L3.8 2.85L3.6 2.8L2.85 3.95L2 4.4L1.2 4.55L-4.55 4.55L1.45 -0.9L-1.35 -5.65L3.6 -5.65L3.8 -5.65L4.65 -5.3M14.75,10.5L-15.4 10.5L-15.4 -10.6L14.75 -10.6L14.75 10.5" />
<path style="fill:#715944;fill-opacity:1" d="M3.8,2.85L3.8 2.8L4.3 2.85L2.95 6.1L-6.75 6.1L-6.6 5.65L-0.25 -0.25L-3.55 -6.05L-3.45 -6.55L6.05 -6.55L5.55 -3.85L4.95 -3.85Q5.15 -4.9 4.85 -5.3Q4.55 -5.65 3.8 -5.65L3.6 -5.65L-1.35 -5.65L1.45 -0.9L-4.55 4.55L1.2 4.55L2.2 4.4L3.05 3.95L3.8 2.85" />
</g>
</svg>
