<?xml version="1.0" encoding="utf-8"?>
<svg version="1.1" id="Layer_1"
xmlns="http://www.w3.org/2000/svg"
xmlns:xlink="http://www.w3.org/1999/xlink"
xmlns:author="http://www.sothink.com"
width="36px" height="26px"
xml:space="preserve">
<g id="178" transform="matrix(1, 0, 0, 1, 18, 13)">
<path style="fill:#DBE6BE;fill-opacity:1" d="M-13.25,-5.45L-13.25 -5.35L-13.2 -5.2L-13 -4.1L-12.55 -3.75L-12.4 -3.75L-12.35 -3.7Q-13.2 -3.25 -13.2 -2.7L-13.2 -2.35L-13.1 -2.25L-13.1 -2.2L-12.9 -1.15L-12.45 -0.85L-12.35 -0.75Q-11 0 -8.95 0.45L-9 0.6L-9.4 0.7Q-12.55 1.4 -12.5 2.4L-12.5 2.5L-12.45 2.6L-12.45 2.65L-12.45 2.8L-12.25 3.9L-11.75 4.2L-11.6 4.25L-10.95 4.6L-10.8 5.25L-10.35 5.6L-10.25 5.6Q-7.45 7.25 -1.95 7.4L-0.2 7.45L0.15 7.45L2.9 7.3Q6.85 6.85 8.85 5.6L9.4 5.15L9.6 4.9L9.75 4.8L9.9 3.9L9.9 3.8Q9.9 3.45 9.55 3.2L10.9 2.5L11.45 2L11.65 1.8L11.85 1.65L11.95 1.1L12.4 0.8L12.95 0.35L13.15 0.15L13.15 0.1L13.3 0L13.5 -0.9L13.5 -0.95L13.5 -1Q13.4 -1.95 10.95 -2.55L11 -2.6L11 -2.7L11.15 -2.8L11.3 -3.7L11.3 -3.75L11.3 -3.8Q11.25 -4.85 8.2 -5.5L7.75 -5.65Q7.65 -6.7 4.65 -7.35L-2.75 -8.1L-10.2 -7.35Q-13.3 -6.65 -13.3 -5.65L-13.3 -5.55L-13.25 -5.45M17.5,-12.5L17.5 12.5L-17.5 12.5L-17.5 -12.5L17.5 -12.5" />
<path style="fill:#D9D900;fill-opacity:1" d="M-12.2,-5.55L-11.65 -4.85L-11.15 -4.55L-10.55 -4.35L-10 -4.2L-9.65 -4.1L-9.55 -4.1L-9.45 -4.05L-8.6 -3.85L-7.85 -3.75L-2.85 -3.4L3.7 -4.05Q5.3 -4.4 6 -4.85L6.25 -5.1L6.35 -5.2L6.35 -5.25L6.35 -5.4L6.4 -5.45L6.4 -5.65Q6.3 -6.3 4.55 -6.85L3.7 -7.1L-2.85 -7.7L-7.6 -7.4L-7.95 -7.35L-9.45 -7.1Q-12.05 -6.45 -12.2 -5.65L-12.2 -5.55M-10.2,-7.1L-2.8 -7.85L4.55 -7.1L5.1 -6.95L3.8 -7.35L-2.8 -7.95L-9.45 -7.35L-10.8 -6.95L-10.2 -7.1M11.15,-3.45L10.9 -3.15L10.5 -2.8L10.15 -2.6L10.05 -2.55L9.85 -2.4L9.5 -2.25L7.5 -1.5L6.2 -1.2L4.3 -0.9L1.85 -0.7L1 -0.7Q-2.85 -0.7 -6.55 -1.7L-6.9 -1.85L-7.8 -2.1L-8.35 -2.35L-7.25 -2.15L-4.75 -1.95L0.7 -1.55L5.45 -1.85L6.15 -2L7.25 -2.2L7.65 -2.3L7.7 -2.3L8.35 -2.45L8.8 -2.65L9.05 -2.75L9.5 -3.05L9.85 -3.25L9.85 -3.4L9.9 -3.55L10 -3.75Q9.95 -4.55 7.7 -5.15L7.6 -5.2L7.6 -5.3L7.55 -5.2L7.35 -5L6.95 -4.65L6.55 -4.4Q4.65 -3.2 0.7 -2.7L-7.2 -2.9L-8.2 -3.05L-9.65 -3.4L-9.7 -3.4L-10.1 -3.55L-10.15 -3.55L-10.5 -3.7L-10.75 -3.75L-11.2 -3.9L-11.35 -3.95L-12.35 -4.4L-13.05 -4.95L-13.2 -5.2L-13.25 -5.35L-13.25 -5.45L-13.3 -5.55L-13.3 -5.65Q-13.3 -6.65 -10.2 -7.35L-2.75 -8.1L4.65 -7.35Q7.65 -6.7 7.75 -5.65L8.2 -5.5Q11.25 -4.85 11.3 -3.8L11.3 -3.75L11.3 -3.7L11.15 -3.45M10.7,-2.35L11.1 -2.3L10.75 -2.4L10.8 -2.4L10.95 -2.55Q13.4 -1.95 13.5 -1L13.5 -0.95L13.5 -0.9L13.3 -0.65L13.3 -0.7L13.1 -0.5L13.05 -0.4L12.65 -0.05L12.25 0.15L11.7 0.45L10.55 0.95L9.9 1.15L6.4 1.85Q0.9 2.5 -4.35 1.05L-4.55 1L-4.05 1L-2.3 1.05L-1.95 1.05L-1.2 1L2.9 1.2L9.45 0.55L10.05 0.4L10.5 0.25L11.2 0.05L11.65 -0.25L11.95 -0.5L12 -0.55L12.1 -0.75L12.15 -0.95Q12.15 -1.65 10.55 -2.2L10.7 -2.35M9.8,4.1L9.8 4.05L9.65 4.25L9.5 4.4L9.15 4.7L8.75 4.9Q6.85 6.15 2.9 6.65Q-2.6 7.3 -7.9 5.8L-8.3 5.7L-9.2 5.4L-10.15 5L-10.4 4.85L-9.45 5.2L-9.3 5.25L-9.2 5.25L-3.35 6L-1.6 6.05L-1.25 6.05L0.75 6L5.9 5.35L8.1 4.5L8.45 4.25L8.55 4L8.6 3.85L8.5 3.55L8.7 3.5L9.35 3.25L9.55 3.2Q9.9 3.45 9.9 3.8L9.9 3.9L9.8 4.1M-12.45,2.55L-12.5 2.5L-12.5 2.4Q-12.55 1.4 -9.4 0.7L-9 0.6L-8.95 0.45L-8.9 0.45L-8.2 0.6L-7.9 0.65L-7.9 0.75L-8.65 0.85L-9 0.95Q-11.4 1.6 -11.35 2.45L-11.35 2.5L-10.95 3.15L-10.65 3.25L-10.35 3.4L-9.95 3.55L-9.75 3.65L-9.25 3.8L-8.65 3.95L-2.05 4.6L2.45 4.35L5 4.2L6.3 4L6.7 3.95Q4.8 4.85 1.5 5.25Q-3.7 5.9 -8.7 4.6L-9.3 4.4L-9.7 4.25L-9.85 4.25L-10.6 4.05L-11.1 3.85L-11.55 3.6L-12.35 3.05L-12.45 2.65L-12.45 2.6L-12.45 2.55M-0.55,-0.1L1.15 -0.1L1.5 -0.1L1.9 -0.1L3.15 -0.2L0.8 0.25L-3.6 0.4L-4.55 0.35L-6.85 0.1L-7.35 0.05L-7.4 0.05L-8.15 -0.1L-10 -0.6L-10.4 -0.75L-11.25 -0.95L-12.25 -1.4L-13 -2L-13.1 -2.2L-13.1 -2.25L-13.2 -2.35L-13.2 -2.7Q-13.2 -3.25 -12.35 -3.7L-12.1 -3.55L-11.8 -3.4L-11.6 -3.35L-12.1 -2.7L-12.1 -2.6L-11.6 -1.95L-11 -1.65L-10.45 -1.35L-9.35 -1.05L-7.5 -0.75L-6.35 -0.55L-6.3 -0.55L-5.55 -0.55L-4.4 -0.5L-0.55 -0.1M11.45,1.35L11.55 1.3L11.2 1.6L10.8 1.8L8.55 2.85L8.35 2.85L8.2 2.9L6.4 3.3L5.65 3.45L4.95 3.55Q-0.55 4.2 -5.85 2.7L-6.2 2.55L-7.1 2.3L-8.05 1.85L-8.85 1.3L-8.85 1.25L-8.75 1.2L-8.1 1.05L-7.85 1L-7.45 1.4L-6.85 1.65L-6.3 1.9L-5.2 2.2L1.4 2.85L6.45 2.5Q9.55 2.2 11.45 1.35M8.1,-5.3L8.45 -5.2L7.75 -5.45L7.75 -5.5L7.7 -5.45L7.65 -5.45L7.75 -5.4L8.1 -5.3" />
<linearGradient
id="LinearGradID_568" gradientUnits="userSpaceOnUse" gradientTransform="matrix(0.0114136, 0, 0, 0.00267029, -2.8, -5.8)" spreadMethod ="pad" x1="-819.2" y1="0" x2="819.2" y2="0" >
<stop  offset="0" style="stop-color:#FEFE30;stop-opacity:1" />
<stop  offset="1" style="stop-color:#805740;stop-opacity:1" />
<stop  offset="1" style="stop-color:#805740;stop-opacity:1" />
</linearGradient>
<path style="fill:url(#LinearGradID_568) " d="M-10.8,-6.95L-9.45 -7.35L-2.8 -7.95L3.8 -7.35L5.1 -6.95L4.55 -7.1L-2.8 -7.85L-10.2 -7.1L-10.8 -6.95" />
<linearGradient
id="LinearGradID_569" gradientUnits="userSpaceOnUse" gradientTransform="matrix(0.0113373, 0, 0, 0.00263977, -2.9, -5.55)" spreadMethod ="pad" x1="-819.2" y1="0" x2="819.2" y2="0" >
<stop  offset="0" style="stop-color:#FEFE30;stop-opacity:1" />
<stop  offset="1" style="stop-color:#805740;stop-opacity:1" />
<stop  offset="1" style="stop-color:#805740;stop-opacity:1" />
</linearGradient>
<path style="fill:url(#LinearGradID_569) " d="M6.05,-5.1L4.75 -4.5L5.6 -5L5.8 -5.2L5.9 -5.35L5.9 -5.55L5.9 -5.75Q5.55 -6.4 3.35 -6.95L-2.75 -7.5L-8.85 -6.95Q-11.25 -6.4 -11.45 -5.65L-11.45 -5.5L-11.25 -5.1L-10.9 -4.75L-10.3 -4.55L-10 -4.4L-10.55 -4.55L-11.15 -4.8L-11.7 -5.1Q-12.15 -5.35 -12.2 -5.65Q-12.05 -6.45 -9.45 -7.1L-7.95 -7.35L-7.6 -7.4L-2.85 -7.7L3.7 -7.1L4.55 -6.85Q6.3 -6.3 6.4 -5.65L6.4 -5.45L6.35 -5.4L6.35 -5.25L6.05 -5.1" />
<linearGradient
id="LinearGradID_570" gradientUnits="userSpaceOnUse" gradientTransform="matrix(0.0105896, 0, 0, 0.00245667, -2.8, -5.55)" spreadMethod ="pad" x1="-819.2" y1="0" x2="819.2" y2="0" >
<stop  offset="0" style="stop-color:#805740;stop-opacity:1" />
<stop  offset="0.258824" style="stop-color:#DDD335;stop-opacity:1" />
<stop  offset="0.529412" style="stop-color:#FEFE30;stop-opacity:1" />
<stop  offset="0.823529" style="stop-color:#DACE34;stop-opacity:1" />
<stop  offset="1" style="stop-color:#805740;stop-opacity:1" />
</linearGradient>
<path style="fill:url(#LinearGradID_570) " d="M-12.2,-5.65Q-12.15 -5.35 -11.7 -5.1L-11.15 -4.8L-10.55 -4.55L-10 -4.4L-10.3 -4.55L-10.9 -4.75L-11.25 -5.1L-11.45 -5.5L-11.45 -5.65Q-11.25 -6.4 -8.85 -6.95L-2.75 -7.5L3.35 -6.95Q5.55 -6.4 5.9 -5.75L5.9 -5.55L5.9 -5.35L5.8 -5.2L5.6 -5L4.75 -4.5L6.05 -5.1L6.35 -5.25L6.35 -5.2L6.25 -5.1L6 -4.85Q5.3 -4.4 3.7 -4.05L-2.85 -3.4L-7.85 -3.75L-8.6 -3.85L-9.45 -4.05L-9.55 -4.1L-9.65 -4.1L-10 -4.2L-10.55 -4.35L-11.15 -4.55L-11.65 -4.85L-12.2 -5.55L-12.2 -5.65" />
<linearGradient
id="LinearGradID_571" gradientUnits="userSpaceOnUse" gradientTransform="matrix(0.0129547, 0, 0, 0.000534058, -2.75, -4.5)" spreadMethod ="pad" x1="-819.2" y1="0" x2="819.2" y2="0" >
<stop  offset="0" style="stop-color:#805740;stop-opacity:1" />
<stop  offset="0.741176" style="stop-color:#FEFE30;stop-opacity:1" />
<stop  offset="1" style="stop-color:#805740;stop-opacity:1" />
</linearGradient>
<path style="fill:url(#LinearGradID_571) " d="M-13.3,-5.55L-13.25 -5.45L-13.3 -5.55M7.75,-5.4L7.65 -5.45L7.7 -5.45L7.75 -5.5L7.75 -5.45L7.75 -5.4" />
<linearGradient
id="LinearGradID_572" gradientUnits="userSpaceOnUse" gradientTransform="matrix(0.0128479, 0, 0, 0.000534058, -2.75, -4.2)" spreadMethod ="pad" x1="-819.2" y1="0" x2="819.2" y2="0" >
<stop  offset="0.388235" style="stop-color:#805740;stop-opacity:1" />
<stop  offset="0.741176" style="stop-color:#FEFE30;stop-opacity:1" />
<stop  offset="1" style="stop-color:#805740;stop-opacity:1" />
</linearGradient>
<path style="fill:url(#LinearGradID_572) " d="M-9.5,-2.6L-11 -3.05L-11.2 -3.15L-11.6 -3.35L-11.8 -3.4L-12.1 -3.55L-12.35 -3.7L-12.4 -3.75L-12.55 -3.75L-13 -4.1L-13.2 -5.2L-13.05 -4.95L-12.35 -4.4L-11.35 -3.95L-11.2 -3.9L-10.75 -3.75L-10.5 -3.7L-10.15 -3.55L-10.1 -3.55L-9.7 -3.4L-9.65 -3.4L-8.2 -3.05L-7.2 -2.9L0.7 -2.7Q4.65 -3.2 6.55 -4.4L6.95 -4.65L7.35 -5L7.55 -5.2L7.6 -5.3L7.6 -5.2L7.55 -4.95L7.4 -4.4L7.2 -4.25L6.7 -3.75Q4.7 -2.5 0.75 -2.05L-1.8 -1.95L-2 -1.95L-2.4 -1.95L-3.7 -1.95L-4.15 -1.95L-4.75 -1.95L-7.25 -2.15L-8.35 -2.35L-9.45 -2.6L-9.5 -2.6" />
<linearGradient
id="LinearGradID_573" gradientUnits="userSpaceOnUse" gradientTransform="matrix(0.0113373, 0, 0, 0.00263977, -2.75, -2.65)" spreadMethod ="pad" x1="-819.2" y1="0" x2="819.2" y2="0" >
<stop  offset="0" style="stop-color:#FEFE30;stop-opacity:1" />
<stop  offset="1" style="stop-color:#805740;stop-opacity:1" />
<stop  offset="1" style="stop-color:#805740;stop-opacity:1" />
</linearGradient>
<path style="fill:url(#LinearGradID_573) " d="M-11.2,-3.15L-11 -3.05L-11.35 -2.65L-11.35 -2.55L-11.15 -2.1L-10.8 -1.8L-10.25 -1.6L-9.6 -1.3L-8.8 -1.1L-7.5 -0.85L-6.45 -0.7L-5.65 -0.6L-5.05 -0.55L-4.4 -0.5L-5.55 -0.55L-6.3 -0.55L-6.35 -0.55L-7.5 -0.75L-9.35 -1.05L-10.45 -1.35L-11 -1.65L-11.6 -1.95L-12.1 -2.6L-12.1 -2.7L-11.6 -3.35L-11.2 -3.15" />
<linearGradient
id="LinearGradID_574" gradientUnits="userSpaceOnUse" gradientTransform="matrix(0.0128479, 0, 0, 0.000534058, -2.75, -1.35)" spreadMethod ="pad" x1="-819.2" y1="0" x2="819.2" y2="0" >
<stop  offset="0.372549" style="stop-color:#805740;stop-opacity:1" />
<stop  offset="0.670588" style="stop-color:#FEFE30;stop-opacity:1" />
<stop  offset="1" style="stop-color:#805740;stop-opacity:1" />
</linearGradient>
<path style="fill:url(#LinearGradID_574) " d="M-7.1,0.75L-7.2 0.75L-7.9 0.65L-8.2 0.6L-8.9 0.45L-8.95 0.45Q-11 0 -12.35 -0.75L-12.45 -0.85L-12.9 -1.15L-13.1 -2.2L-13 -2L-12.25 -1.4L-11.25 -0.95L-10.4 -0.75L-10 -0.6L-8.15 -0.1L-7.4 0.05L-7.35 0.05L-6.85 0.1L-4.55 0.35L-3.6 0.4L0.8 0.25L3.15 -0.2L4.3 -0.25L5.95 -0.5L6.35 -0.55Q4.35 0.5 0.85 0.85L0.75 0.85L0 0.95L-0.45 0.95L-1.2 1L-1.95 1.05L-2.3 1.05L-4.05 1L-4.55 1L-6.35 0.85L-6.8 0.8L-7.1 0.75" />
<linearGradient
id="LinearGradID_575" gradientUnits="userSpaceOnUse" gradientTransform="matrix(0.0128479, 0, 0, 0.000534058, -2.05, 3.75)" spreadMethod ="pad" x1="-819.2" y1="0" x2="819.2" y2="0" >
<stop  offset="0.34902" style="stop-color:#805740;stop-opacity:1" />
<stop  offset="0.670588" style="stop-color:#FEFE30;stop-opacity:1" />
<stop  offset="1" style="stop-color:#805740;stop-opacity:1" />
</linearGradient>
<path style="fill:url(#LinearGradID_575) " d="M8.1,3.6L8.05 3.7L8 3.75L7.45 4.2Q6.5 4.8 5.05 5.25L3.7 5.6L2.65 5.8L1.5 5.9L0.75 6L-1.25 6.05L-1.6 6.05L-3.35 6L-9.2 5.25L-9.3 5.25L-9.45 5.2L-10.4 4.85Q-10.7 4.7 -10.95 4.6L-11.6 4.25L-11.75 4.2L-12.25 3.9L-12.45 2.8L-12.45 2.65L-12.35 3.05L-11.55 3.6L-11.1 3.85L-10.6 4.05L-9.85 4.25L-9.7 4.25L-9.3 4.4L-8.7 4.6Q-3.7 5.9 1.5 5.25Q4.8 4.85 6.7 3.95L8.1 3.6" />
<linearGradient
id="LinearGradID_576" gradientUnits="userSpaceOnUse" gradientTransform="matrix(0.0129547, 0, 0, 0.000534058, -1.95, 3.55)" spreadMethod ="pad" x1="-819.2" y1="0" x2="819.2" y2="0" >
<stop  offset="0" style="stop-color:#805740;stop-opacity:1" />
<stop  offset="0.741176" style="stop-color:#FEFE30;stop-opacity:1" />
<stop  offset="1" style="stop-color:#805740;stop-opacity:1" />
</linearGradient>
<path style="fill:url(#LinearGradID_576) " d="M-12.45,2.6L-12.5 2.5L-12.45 2.55L-12.45 2.6" />
<linearGradient
id="LinearGradID_577" gradientUnits="userSpaceOnUse" gradientTransform="matrix(0.0113373, 0, 0, 0.00263977, 0.7, -3.8)" spreadMethod ="pad" x1="-819.2" y1="0" x2="819.2" y2="0" >
<stop  offset="0" style="stop-color:#FEFE30;stop-opacity:1" />
<stop  offset="1" style="stop-color:#805740;stop-opacity:1" />
<stop  offset="1" style="stop-color:#805740;stop-opacity:1" />
</linearGradient>
<path style="fill:url(#LinearGradID_577) " d="M7.6,-5.2L7.7 -5.15Q9.95 -4.55 10 -3.75L9.9 -3.55L9.85 -3.4L9.85 -3.25L9.5 -3.05L9.05 -2.75L8.8 -2.65L8.35 -2.45L7.7 -2.3L7.65 -2.3L7.25 -2.2L6.15 -2L5.45 -1.85L0.7 -1.55L-4.75 -1.95L-4.15 -1.95L-3.7 -1.95L0.8 -1.65L5.65 -2L6.35 -2.1L6.9 -2.25L7.8 -2.5L7.95 -2.55L8.4 -2.7L8.65 -2.8L9.15 -3.15L9.4 -3.4L9.45 -3.5L9.5 -3.7Q9.45 -4.4 7.65 -4.9L7.55 -4.95L7.6 -5.2" />
<linearGradient
id="LinearGradID_578" gradientUnits="userSpaceOnUse" gradientTransform="matrix(0.00384521, 0, 0, 0.00154114, -8.25, -1.85)" spreadMethod ="pad" x1="-819.2" y1="0" x2="819.2" y2="0" >
<stop  offset="0" style="stop-color:#805740;stop-opacity:1" />
<stop  offset="0.356863" style="stop-color:#DDD335;stop-opacity:1" />
<stop  offset="0.490196" style="stop-color:#FEFE30;stop-opacity:1" />
<stop  offset="0.678431" style="stop-color:#DACE34;stop-opacity:1" />
<stop  offset="1" style="stop-color:#805740;stop-opacity:1" />
</linearGradient>
<path style="fill:url(#LinearGradID_578) " d="M-9.5,-2.6L-9.45 -2.3L-8.95 -1.95L-8.85 -1.95Q-7.8 -1.3 -6.4 -0.9L-5.8 -0.7L-5.05 -0.55L-5.65 -0.6L-6.45 -0.7L-7.5 -0.85L-8.8 -1.1L-9.6 -1.3L-10.25 -1.6L-10.8 -1.8L-11.15 -2.1L-11.35 -2.55L-11.35 -2.65L-11 -3.05L-9.5 -2.6" />
<linearGradient
id="LinearGradID_579" gradientUnits="userSpaceOnUse" gradientTransform="matrix(0.0128479, 0, 0, 0.000534058, 0.75, -2.45)" spreadMethod ="pad" x1="-819.2" y1="0" x2="819.2" y2="0" >
<stop  offset="0.372549" style="stop-color:#805740;stop-opacity:1" />
<stop  offset="0.670588" style="stop-color:#FEFE30;stop-opacity:1" />
<stop  offset="0.960784" style="stop-color:#DDD335;stop-opacity:1" />
<stop  offset="1" style="stop-color:#805740;stop-opacity:1" />
</linearGradient>
<path style="fill:url(#LinearGradID_579) " d="M11,-2.7L11 -2.6L10.95 -2.55L10.8 -2.4L10.75 -2.4L10.7 -2.35L10.55 -2.2L10.5 -2.15L10.25 -2L10.25 -1.95Q8.8 -1 6.35 -0.55L5.95 -0.5L4.3 -0.25L3.15 -0.2L1.9 -0.1L1.5 -0.1L1.15 -0.1L-0.55 -0.1L-4.4 -0.5L-5.05 -0.55L-5.8 -0.7L-6.4 -0.9Q-7.8 -1.3 -8.85 -1.95L-8.95 -1.95L-9.45 -2.3L-9.5 -2.6L-9.45 -2.6L-8.35 -2.35L-7.8 -2.1L-6.9 -1.85L-6.55 -1.7Q-2.85 -0.7 1 -0.7L1.85 -0.7L4.3 -0.9L6.2 -1.2L7.5 -1.5L9.5 -2.25L9.85 -2.4L10.05 -2.55L10.15 -2.6L10.5 -2.8L10.9 -3.15L11.15 -3.45L11 -2.7" />
<linearGradient
id="LinearGradID_580" gradientUnits="userSpaceOnUse" gradientTransform="matrix(0.00805664, 0, 0, 0.00202942, 2.85, -3.35)" spreadMethod ="pad" x1="-819.2" y1="0" x2="819.2" y2="0" >
<stop  offset="0" style="stop-color:#805740;stop-opacity:1" />
<stop  offset="0.270588" style="stop-color:#DDD335;stop-opacity:1" />
<stop  offset="0.490196" style="stop-color:#FEFE30;stop-opacity:1" />
<stop  offset="0.639216" style="stop-color:#DACE34;stop-opacity:1" />
<stop  offset="1" style="stop-color:#805740;stop-opacity:1" />
</linearGradient>
<path style="fill:url(#LinearGradID_580) " d="M7.65,-4.9Q9.45 -4.4 9.5 -3.7L9.45 -3.5L9.4 -3.4L9.15 -3.15L8.65 -2.8L8.4 -2.7L7.95 -2.55L7.8 -2.5L6.9 -2.25L6.35 -2.1L5.65 -2L0.8 -1.65L-3.7 -1.95L-2.4 -1.95L-2 -1.95L-1.8 -1.95L0.75 -2.05Q4.7 -2.5 6.7 -3.75L7.2 -4.25L7.4 -4.4L7.55 -4.95L7.65 -4.9" />
<linearGradient
id="LinearGradID_581" gradientUnits="userSpaceOnUse" gradientTransform="matrix(0.0113373, 0, 0, 0.00263977, 1.4, 0.65)" spreadMethod ="pad" x1="-819.2" y1="0" x2="819.2" y2="0" >
<stop  offset="0" style="stop-color:#FEFE30;stop-opacity:1" />
<stop  offset="1" style="stop-color:#805740;stop-opacity:1" />
<stop  offset="1" style="stop-color:#805740;stop-opacity:1" />
</linearGradient>
<path style="fill:url(#LinearGradID_581) " d="M-7.9,0.75L-7.9 0.65L-7.2 0.75L-7.15 0.85L-7 1.15L-6.65 1.45L-6.1 1.7L-4.9 2.1L-4.65 2.15L1.5 2.8L4.75 2.65L6.45 2.5L1.4 2.85L-5.2 2.2L-6.3 1.9L-6.85 1.65L-7.45 1.4L-7.85 1L-7.9 0.8L-7.9 0.75" />
<linearGradient
id="LinearGradID_582" gradientUnits="userSpaceOnUse" gradientTransform="matrix(0.00730896, 0, 0, 0.0012207, -1.25, 1.7)" spreadMethod ="pad" x1="-819.2" y1="0" x2="819.2" y2="0" >
<stop  offset="0" style="stop-color:#805740;stop-opacity:1" />
<stop  offset="0.423529" style="stop-color:#DDD335;stop-opacity:1" />
<stop  offset="0.490196" style="stop-color:#FEFE30;stop-opacity:1" />
<stop  offset="0.560784" style="stop-color:#DACE34;stop-opacity:1" />
<stop  offset="1" style="stop-color:#805740;stop-opacity:1" />
</linearGradient>
<path style="fill:url(#LinearGradID_582) " d="M4.75,2.65L1.5 2.8L-4.65 2.15L-4.9 2.1L-6.1 1.7L-6.65 1.45L-7 1.15L-7.15 0.85L-7.2 0.75L-7.1 0.75L-6.8 0.8L-6.65 0.85Q-4.25 2.3 0.25 2.6L1.55 2.65L3.3 2.7L3.7 2.7L4.75 2.65" />
<linearGradient
id="LinearGradID_583" gradientUnits="userSpaceOnUse" gradientTransform="matrix(0.0128479, 0, 0, 0.000534058, 2.95, 0.3)" spreadMethod ="pad" x1="-819.2" y1="0" x2="819.2" y2="0" >
<stop  offset="0.372549" style="stop-color:#805740;stop-opacity:1" />
<stop  offset="0.670588" style="stop-color:#FEFE30;stop-opacity:1" />
<stop  offset="1" style="stop-color:#805740;stop-opacity:1" />
</linearGradient>
<path style="fill:url(#LinearGradID_583) " d="M11.55,1.3L11.45 1.35Q9.55 2.2 6.45 2.5L4.75 2.65L3.7 2.7L3.3 2.7L1.55 2.65L0.25 2.6Q-4.25 2.3 -6.65 0.85L-6.8 0.8L-6.35 0.85L-4.55 1L-4.35 1.05Q0.9 2.5 6.4 1.85L9.9 1.15L10.55 0.95L11.7 0.45L12.25 0.15L12.65 -0.05L13.05 -0.4L13.1 -0.5L13.3 -0.7L13.3 -0.65L13.15 0.1L13.15 0.15L12.95 0.35L12.4 0.8L11.95 1.1L11.8 1.15L11.55 1.3" />
<linearGradient
id="LinearGradID_584" gradientUnits="userSpaceOnUse" gradientTransform="matrix(0.0113373, 0, 0, 0.00263977, -2.1, 2.4)" spreadMethod ="pad" x1="-819.2" y1="0" x2="819.2" y2="0" >
<stop  offset="0" style="stop-color:#FEFE30;stop-opacity:1" />
<stop  offset="1" style="stop-color:#805740;stop-opacity:1" />
<stop  offset="1" style="stop-color:#805740;stop-opacity:1" />
</linearGradient>
<path style="fill:url(#LinearGradID_584) " d="M-10.65,2.4L-10.65 2.5L-10.45 2.9L-10.3 3.05L-10.1 3.2L-9.8 3.35L-9.55 3.45L-9.2 3.55L-8.1 3.9L-1.95 4.5L1.65 4.35L1.85 4.35L2.2 4.35L2.45 4.35L-2.05 4.6L-8.65 3.95L-9.25 3.8L-9.75 3.65L-9.95 3.55L-10.35 3.4L-10.65 3.25L-10.95 3.15L-11.35 2.5L-11.35 2.45Q-11.4 1.6 -9 0.95L-8.65 0.85L-7.9 0.75L-7.9 0.8L-7.85 1L-8.1 1.05L-8.75 1.2L-8.85 1.25L-8.9 1.25Q-10.55 1.75 -10.65 2.4" />
<linearGradient
id="LinearGradID_585" gradientUnits="userSpaceOnUse" gradientTransform="matrix(0.0128479, 0, 0, 0.000534058, 1.45, 2)" spreadMethod ="pad" x1="-819.2" y1="0" x2="819.2" y2="0" >
<stop  offset="0.4" style="stop-color:#805740;stop-opacity:1" />
<stop  offset="0.670588" style="stop-color:#FEFE30;stop-opacity:1" />
<stop  offset="1" style="stop-color:#805740;stop-opacity:1" />
</linearGradient>
<path style="fill:url(#LinearGradID_585) " d="M11.65,1.8L11.45 2L10.9 2.5L9.55 3.2L9.35 3.25L8.7 3.5L8.5 3.55L8.2 3.6L8.1 3.6L6.7 3.95L6.3 4L5 4.2L2.45 4.35L2.2 4.35L1.85 4.35L1.65 4.35L0.1 4.25Q-5.35 4.1 -8.15 2.5L-8.25 2.5L-8.75 2.15L-8.9 1.25L-8.85 1.25L-8.85 1.3L-8.05 1.85L-7.1 2.3L-6.2 2.55L-5.85 2.7Q-0.55 4.2 4.95 3.55L5.65 3.45L6.4 3.3L8.2 2.9L8.35 2.85L8.55 2.85L10.8 1.8L11.2 1.6L11.55 1.3L11.8 1.15L11.65 1.8" />
<linearGradient
id="LinearGradID_586" gradientUnits="userSpaceOnUse" gradientTransform="matrix(0.00749207, 0, 0, 0.0019989, -4.45, 2.85)" spreadMethod ="pad" x1="-819.2" y1="0" x2="819.2" y2="0" >
<stop  offset="0" style="stop-color:#805740;stop-opacity:1" />
<stop  offset="0.407843" style="stop-color:#EAE433;stop-opacity:1" />
<stop  offset="0.490196" style="stop-color:#FEFE30;stop-opacity:1" />
<stop  offset="0.560784" style="stop-color:#DACE34;stop-opacity:1" />
<stop  offset="1" style="stop-color:#805740;stop-opacity:1" />
<stop  offset="1" style="stop-color:#DDD335;stop-opacity:1" />
</linearGradient>
<path style="fill:url(#LinearGradID_586) " d="M-8.9,1.25L-8.75 2.15L-8.25 2.5L-8.15 2.5Q-5.35 4.1 0.1 4.25L1.65 4.35L-1.95 4.5L-8.1 3.9L-9.2 3.55L-9.55 3.45L-9.8 3.35L-10.1 3.2L-10.3 3.05L-10.45 2.9L-10.65 2.5L-10.65 2.4Q-10.55 1.75 -8.9 1.25" />
<linearGradient
id="LinearGradID_587" gradientUnits="userSpaceOnUse" gradientTransform="matrix(0.0128479, 0, 0, 0.000534058, -0.65, 5.15)" spreadMethod ="pad" x1="-819.2" y1="0" x2="819.2" y2="0" >
<stop  offset="0.333333" style="stop-color:#805740;stop-opacity:1" />
<stop  offset="0.670588" style="stop-color:#FEFE30;stop-opacity:1" />
<stop  offset="1" style="stop-color:#805740;stop-opacity:1" />
</linearGradient>
<path style="fill:url(#LinearGradID_587) " d="M9.6,4.9L9.4 5.15L8.85 5.6Q6.85 6.85 2.9 7.3L0.15 7.45L-0.2 7.45L-1.95 7.4Q-7.45 7.25 -10.25 5.6L-10.35 5.6L-10.8 5.25L-10.95 4.6Q-10.7 4.7 -10.4 4.85L-10.15 5L-9.2 5.4L-8.3 5.7L-7.9 5.8Q-2.6 7.3 2.9 6.65Q6.85 6.15 8.75 4.9L9.15 4.7L9.5 4.4L9.65 4.25L9.8 4.05L9.8 4.1L9.6 4.9" />
<linearGradient
id="LinearGradID_588" gradientUnits="userSpaceOnUse" gradientTransform="matrix(0.0114136, 0, 0, 0.00267029, 0.75, -3.95)" spreadMethod ="pad" x1="-819.2" y1="0" x2="819.2" y2="0" >
<stop  offset="0" style="stop-color:#FEFE30;stop-opacity:1" />
<stop  offset="1" style="stop-color:#805740;stop-opacity:1" />
<stop  offset="1" style="stop-color:#805740;stop-opacity:1" />
</linearGradient>
<path style="fill:url(#LinearGradID_588) " d="M7.75,-5.4L7.75 -5.45L8.45 -5.2L8.1 -5.3L7.75 -5.4" />
<linearGradient
id="LinearGradID_589" gradientUnits="userSpaceOnUse" gradientTransform="matrix(0.00741577, 0, 0, 0.00192261, 5.55, -0.45)" spreadMethod ="pad" x1="-819.2" y1="0" x2="819.2" y2="0" >
<stop  offset="0" style="stop-color:#805740;stop-opacity:1" />
<stop  offset="0.270588" style="stop-color:#DDD335;stop-opacity:1" />
<stop  offset="0.490196" style="stop-color:#FEFE30;stop-opacity:1" />
<stop  offset="0.678431" style="stop-color:#DACE34;stop-opacity:1" />
<stop  offset="1" style="stop-color:#805740;stop-opacity:1" />
</linearGradient>
<path style="fill:url(#LinearGradID_589) " d="M10.25,-1.95L10.25 -2Q11.6 -1.5 11.65 -0.9L11.6 -0.7L11.55 -0.6L11.35 -0.4L11 -0.1L10.35 0.1L10.15 0.2L9.9 0.35L9.1 0.5L2.95 1.1L-0.45 0.95L0 0.95L0.75 0.85L0.85 0.85Q4.35 0.5 6.35 -0.55Q8.8 -1 10.25 -1.95" />
<linearGradient
id="LinearGradID_590" gradientUnits="userSpaceOnUse" gradientTransform="matrix(0.0113373, 0, 0, 0.00263977, 2.85, -1)" spreadMethod ="pad" x1="-819.2" y1="0" x2="819.2" y2="0" >
<stop  offset="0" style="stop-color:#FEFE30;stop-opacity:1" />
<stop  offset="1" style="stop-color:#805740;stop-opacity:1" />
<stop  offset="1" style="stop-color:#805740;stop-opacity:1" />
</linearGradient>
<path style="fill:url(#LinearGradID_590) " d="M10.5,-2.15L10.55 -2.2Q12.15 -1.65 12.15 -0.95L12.1 -0.75L12 -0.55L11.95 -0.5L11.65 -0.25L11.2 0.05L10.5 0.25L10.05 0.4L9.45 0.55L2.9 1.2L-1.2 1L-0.45 0.95L2.95 1.1L9.1 0.5L9.9 0.35L10.15 0.2L10.35 0.1L11 -0.1L11.35 -0.4L11.55 -0.6L11.6 -0.7L11.65 -0.9Q11.6 -1.5 10.25 -2L10.5 -2.15" />
<linearGradient
id="LinearGradID_591" gradientUnits="userSpaceOnUse" gradientTransform="matrix(0.0113373, 0, 0, 0.00263977, -0.7, 3.8)" spreadMethod ="pad" x1="-819.2" y1="0" x2="819.2" y2="0" >
<stop  offset="0" style="stop-color:#FEFE30;stop-opacity:1" />
<stop  offset="1" style="stop-color:#805740;stop-opacity:1" />
<stop  offset="1" style="stop-color:#805740;stop-opacity:1" />
</linearGradient>
<path style="fill:url(#LinearGradID_591) " d="M8.2,3.6L8.5 3.55L8.6 3.85L8.55 4L8.45 4.25L8.1 4.5L5.9 5.35L0.75 6L1.5 5.9L2.65 5.8L5.2 5.35L5.55 5.25Q7.2 4.85 7.75 4.4L8 4.15L8.1 3.9L8.05 3.7L8.1 3.6L8.2 3.6" />
<linearGradient
id="LinearGradID_592" gradientUnits="userSpaceOnUse" gradientTransform="matrix(0.00328064, 0, 0, 0.00125122, 5.3, 4.7)" spreadMethod ="pad" x1="-819.2" y1="0" x2="819.2" y2="0" >
<stop  offset="0" style="stop-color:#805740;stop-opacity:1" />
<stop  offset="0.407843" style="stop-color:#EAE433;stop-opacity:1" />
<stop  offset="0.490196" style="stop-color:#FEFE30;stop-opacity:1" />
<stop  offset="0.560784" style="stop-color:#DACE34;stop-opacity:1" />
<stop  offset="1" style="stop-color:#DDD335;stop-opacity:1" />
<stop  offset="1" style="stop-color:#805740;stop-opacity:1" />
</linearGradient>
<path style="fill:url(#LinearGradID_592) " d="M8.1,3.9L8 4.15L7.75 4.4Q7.2 4.85 5.55 5.25L5.2 5.35L2.65 5.8L3.7 5.6L5.05 5.25Q6.5 4.8 7.45 4.2L8 3.75L8.05 3.7L8.1 3.9" />
<linearGradient
id="LinearGradID_593" gradientUnits="userSpaceOnUse" gradientTransform="matrix(0.0129547, 0, 0, 0.000534058, 0.85, -2.65)" spreadMethod ="pad" x1="-819.2" y1="0" x2="819.2" y2="0" >
<stop  offset="0" style="stop-color:#805740;stop-opacity:1" />
<stop  offset="0.741176" style="stop-color:#FEFE30;stop-opacity:1" />
<stop  offset="1" style="stop-color:#805740;stop-opacity:1" />
</linearGradient>
<path style="fill:url(#LinearGradID_593) " d="M11.15,-3.45L11.3 -3.7L11.15 -2.8L11 -2.7L11.15 -3.45" />
<linearGradient
id="LinearGradID_594" gradientUnits="userSpaceOnUse" gradientTransform="matrix(0.0114136, 0, 0, 0.00267029, 2.95, -1.15)" spreadMethod ="pad" x1="-819.2" y1="0" x2="819.2" y2="0" >
<stop  offset="0" style="stop-color:#FEFE30;stop-opacity:1" />
<stop  offset="1" style="stop-color:#805740;stop-opacity:1" />
<stop  offset="1" style="stop-color:#805740;stop-opacity:1" />
</linearGradient>
<path style="fill:url(#LinearGradID_594) " d="M10.75,-2.4L11.1 -2.3L10.7 -2.35L10.75 -2.4" />
<linearGradient
id="LinearGradID_595" gradientUnits="userSpaceOnUse" gradientTransform="matrix(0.0129547, 0, 0, 0.000534058, 3.05, 0.15)" spreadMethod ="pad" x1="-819.2" y1="0" x2="819.2" y2="0" >
<stop  offset="0" style="stop-color:#805740;stop-opacity:1" />
<stop  offset="0.741176" style="stop-color:#FEFE30;stop-opacity:1" />
<stop  offset="1" style="stop-color:#805740;stop-opacity:1" />
</linearGradient>
<path style="fill:url(#LinearGradID_595) " d="M13.3,-0.65L13.5 -0.9L13.3 0L13.15 0.1L13.3 -0.65" />
<linearGradient
id="LinearGradID_596" gradientUnits="userSpaceOnUse" gradientTransform="matrix(0.0129547, 0, 0, 0.000534058, 1.55, 1.8)" spreadMethod ="pad" x1="-819.2" y1="0" x2="819.2" y2="0" >
<stop  offset="0" style="stop-color:#805740;stop-opacity:1" />
<stop  offset="0.741176" style="stop-color:#FEFE30;stop-opacity:1" />
<stop  offset="1" style="stop-color:#805740;stop-opacity:1" />
</linearGradient>
<path style="fill:url(#LinearGradID_596) " d="M11.8,1.15L11.95 1.1L11.85 1.65L11.65 1.8L11.8 1.15" />
<linearGradient
id="LinearGradID_597" gradientUnits="userSpaceOnUse" gradientTransform="matrix(0.0129547, 0, 0, 0.000534058, -0.55, 4.95)" spreadMethod ="pad" x1="-819.2" y1="0" x2="819.2" y2="0" >
<stop  offset="0" style="stop-color:#805740;stop-opacity:1" />
<stop  offset="0.741176" style="stop-color:#FEFE30;stop-opacity:1" />
<stop  offset="1" style="stop-color:#805740;stop-opacity:1" />
</linearGradient>
<path style="fill:url(#LinearGradID_597) " d="M9.8,4.1L9.9 3.9L9.75 4.8L9.6 4.9L9.8 4.1" />
<path style="fill:none;stroke-width:1;stroke-linecap:round;stroke-linejoin:round;stroke-miterlimit:3;stroke:#563529;stroke-opacity:1" d="M17.5,-12.5L17.5 12.5L-17.5 12.5L-17.5 -12.5L17.5 -12.5z" />
</g>
</svg>
