<?xml version="1.0" encoding="utf-8"?>
<svg version="1.1" id="Layer_1"
xmlns="http://www.w3.org/2000/svg"
xmlns:xlink="http://www.w3.org/1999/xlink"
xmlns:author="http://www.sothink.com"
width="20px" height="20px"
xml:space="preserve">
<g id="141" transform="matrix(1, 0, 0, 1, 10, 10)">
<path style="fill:#DBE6BE;fill-opacity:1" d="M4.45,-3.35Q4.4 -3.95 2.65 -4.35L-1.55 -4.75L-5.8 -4.35Q-7.6 -3.95 -7.6 -3.35L-7.6 -3.3L-7.55 -3.25L-7.55 -3.2L-7.55 -3.1L-7.4 -2.5L-7.15 -2.3L-7.1 -2.25L-7.05 -2.25L-7.55 -1.65L-7.55 -1.5L-7.5 -1.4L-7.35 -0.8L-7.1 -0.6L-7.05 -0.55L-5.1 0.15L-5.15 0.2L-5.35 0.25Q-7.15 0.65 -7.15 1.25L-7.15 1.3L-7.1 1.35L-7.1 1.4L-7.1 1.45L-7 2.1L-6.7 2.25L-6.6 2.3L-6.25 2.5L-6.15 2.9L-5.9 3.05L-5.85 3.1Q-4.25 4 -1.1 4.1L-0.1 4.15L0.1 4.15L1.7 4.05Q3.95 3.8 5.1 3.05L5.4 2.8L5.5 2.7L5.5 2.65L5.6 2.6L5.7 2.1L5.7 2.05L5.5 1.7L6.25 1.3L6.55 1L6.7 0.9L6.8 0.8L6.85 0.5L7.1 0.35L7.4 0.05L7.55 -0.05L7.65 -0.15L7.75 -0.65L7.75 -0.7Q7.7 -1.25 6.3 -1.6L6.3 -1.7L6.4 -1.75L6.5 -2.25L6.5 -2.3Q6.45 -2.9 4.7 -3.3L4.45 -3.35M9.5,9.5L-9.5 9.5L-9.5 -9.5L9.5 -9.5L9.5 9.5" />
<path style="fill:none;stroke-width:1;stroke-linecap:round;stroke-linejoin:round;stroke-miterlimit:3;stroke:#563529;stroke-opacity:1" d="M9.5,9.5L-9.5 9.5L-9.5 -9.5L9.5 -9.5L9.5 9.5z" />
<path style="fill:#D9D900;fill-opacity:1" d="M2.95,-4.1L2.2 -4.35L-1.6 -4.7L-5.4 -4.35L-6.15 -4.1L-5.8 -4.2L-1.6 -4.6L2.6 -4.2L2.95 -4.1M-6.95,-3.3L-6.65 -2.9L-6.35 -2.75L-6 -2.6L-5.7 -2.55L-5.5 -2.5L-5.45 -2.45L-5.4 -2.45L-4.9 -2.35L-4.5 -2.25L-1.6 -2.05L2.15 -2.45L3.45 -2.9L3.6 -3.05L3.65 -3.1L3.65 -3.15L3.65 -3.2L3.7 -3.25L3.7 -3.35L2.6 -4.05L2.15 -4.2L-1.6 -4.55L-4.35 -4.35L-4.55 -4.35L-5.4 -4.2Q-6.9 -3.85 -6.95 -3.35L-6.95 -3.3M4.2,-3L4 -2.8L3.75 -2.65Q2.65 -1.95 0.4 -1.7L-4.1 -1.8L-4.7 -1.9L-5.5 -2.1L-5.55 -2.1L-5.75 -2.15L-5.8 -2.15L-6 -2.25L-6.15 -2.3L-6.4 -2.35L-6.5 -2.4L-7.05 -2.65L-7.45 -2.95L-7.55 -3.2L-7.55 -3.25L-7.6 -3.3L-7.6 -3.35Q-7.6 -3.95 -5.8 -4.35L-1.55 -4.75L2.65 -4.35Q4.4 -3.95 4.45 -3.35L4.7 -3.3Q6.45 -2.9 6.5 -2.3L6.5 -2.25L6.4 -2.1L6.25 -1.95L6 -1.75L5.8 -1.6L5.75 -1.6L5.65 -1.5L5.45 -1.4L4.3 -1L3.55 -0.8L2.45 -0.65L1.05 -0.55L0.6 -0.55Q-1.6 -0.55 -3.75 -1.1L-3.95 -1.2L-4.45 -1.35L-4.75 -1.45L-4.15 -1.35L-2.7 -1.25L0.4 -1L3.15 -1.2L3.55 -1.25L4.15 -1.4L4.4 -1.45L4.8 -1.55L5.05 -1.65L5.2 -1.7L5.45 -1.85L5.65 -2L5.65 -2.1L5.7 -2.15L5.75 -2.25Q5.7 -2.75 4.4 -3.1L4.35 -3.1L4.2 -3M4.35,-3.15L4.35 -3.1L4.35 -3.15M4.65,-3.15L4.85 -3.1L4.45 -3.25L4.45 -3.3L4.4 -3.25L4.45 -3.2L4.65 -3.15M-7.55,-1.5L-7.55 -1.65L-7.05 -2.25L-6.9 -2.15L-6.75 -2.1L-6.6 -2.05L-6.9 -1.65L-6.9 -1.6L-6.6 -1.25L-6.3 -1.05L-5.95 -0.9L-5.35 -0.75L-4.3 -0.55L-3.6 -0.45L-3.15 -0.45L-2.5 -0.4L-0.3 -0.2L0.65 -0.2L0.9 -0.2L1.1 -0.2L1.8 -0.25L0.45 0L-2.05 0.1L-2.6 0.05L-3.9 -0.05L-4.2 -0.1L-4.65 -0.2L-5.7 -0.5L-5.95 -0.55L-6.4 -0.7L-7 -0.95L-7.4 -1.25L-7.5 -1.4L-7.55 -1.5M-7.1,1.4L-7.1 1.35L-7.15 1.3L-7.15 1.25Q-7.15 0.65 -5.35 0.25L-5.15 0.2L-5.1 0.15L-4.65 0.2L-4.5 0.25L-4.5 0.3L-4.95 0.35L-5.15 0.4Q-6.5 0.8 -6.5 1.25L-6.5 1.3L-6.25 1.65L-6.1 1.75L-5.9 1.8L-5.7 1.9L-5.55 1.95L-5.3 2.05L-4.95 2.15L-1.15 2.5L1.4 2.35L2.9 2.25L3.6 2.15L3.85 2.15L0.85 2.9L-4.95 2.5L-5.3 2.4L-5.55 2.3L-5.6 2.3L-6.05 2.2L-6.35 2.05L-6.6 1.95L-7.05 1.6L-7.1 1.4M7.75,-0.7L7.75 -0.65L7.65 -0.5L7.65 -0.55L7.5 -0.4L7.5 -0.35L7.25 -0.15L7.05 -0.05L6.7 0.15L6.05 0.4L5.7 0.55L3.7 0.95L-2.5 0.45L-2.6 0.45L-2.3 0.45L-1.3 0.45L-1.1 0.45L-0.65 0.45L1.65 0.55L5.4 0.2L5.75 0.1L6 0L6.45 -0.1L6.7 -0.3L6.85 -0.4L6.9 -0.45L6.95 -0.55L6.95 -0.7Q6.95 -1.1 6.05 -1.4L6.15 -1.5L6.2 -1.5L6.3 -1.6Q7.7 -1.25 7.75 -0.7M4.9,1.9L5 1.85L5.35 1.75L5.5 1.7L5.7 2.05L5.7 2.1L5.6 2.2L5.55 2.3L5.45 2.4L5.25 2.55L5 2.7Q3.9 3.4 1.65 3.65L-4.5 3.2L-4.75 3.15L-5.25 2.95L-5.8 2.75L-5.95 2.65L-5.4 2.85L-5.3 2.85L-5.25 2.9L-1.9 3.3L-0.9 3.35L-0.7 3.35L0.45 3.3L3.4 2.95L4.65 2.45L4.85 2.3L4.9 2.15L4.95 2.05L4.9 1.9M6.35,-1.45L6.15 -1.5L6.35 -1.45M-5,0.55L-4.6 0.45L-4.45 0.45L-4.25 0.65L-3.9 0.8L-3.6 0.95L-2.95 1.15L0.8 1.5L3.7 1.3L6.55 0.65L6.65 0.6L6.45 0.8L6.2 0.9L4.9 1.5L4.8 1.5L4.7 1.55L3.7 1.75L3.25 1.85L2.85 1.9Q-0.3 2.25 -3.35 1.4L-3.55 1.35L-4.05 1.2L-4.6 0.95L-5.05 0.6L-5 0.55" />
<linearGradient
id="LinearGradID_419" gradientUnits="userSpaceOnUse" gradientTransform="matrix(0.00653076, 0, 0, 0.00152588, -1.6, -3.45)" spreadMethod ="pad" x1="-819.2" y1="0" x2="819.2" y2="0" >
<stop  offset="0" style="stop-color:#FEFE30;stop-opacity:1" />
<stop  offset="1" style="stop-color:#805740;stop-opacity:1" />
<stop  offset="1" style="stop-color:#805740;stop-opacity:1" />
</linearGradient>
<path style="fill:url(#LinearGradID_419) " d="M2.6,-4.2L-1.6 -4.6L-5.8 -4.2L-6.15 -4.1L-5.4 -4.35L-1.6 -4.7L2.2 -4.35L2.95 -4.1L2.6 -4.2" />
<linearGradient
id="LinearGradID_420" gradientUnits="userSpaceOnUse" gradientTransform="matrix(0.00605774, 0, 0, 0.00140381, -1.6, -3.3)" spreadMethod ="pad" x1="-819.2" y1="0" x2="819.2" y2="0" >
<stop  offset="0" style="stop-color:#805740;stop-opacity:1" />
<stop  offset="0.258824" style="stop-color:#DDD335;stop-opacity:1" />
<stop  offset="0.529412" style="stop-color:#FEFE30;stop-opacity:1" />
<stop  offset="0.823529" style="stop-color:#DACE34;stop-opacity:1" />
<stop  offset="1" style="stop-color:#805740;stop-opacity:1" />
</linearGradient>
<path style="fill:url(#LinearGradID_420) " d="M-6.95,-3.35L-6.7 -3.05L-6.35 -2.9L-6 -2.75L-5.7 -2.65L-5.9 -2.75L-6.2 -2.85L-6.4 -3.05L-6.55 -3.3L-6.55 -3.35Q-6.45 -3.8 -5.05 -4.1L-1.55 -4.4L1.95 -4.1Q3.2 -3.8 3.4 -3.4L3.4 -3.3L3.4 -3.2L3.35 -3.1L3.2 -3L2.75 -2.7L3.5 -3.05L3.65 -3.15L3.65 -3.1L3.6 -3.05L3.45 -2.9L2.15 -2.45L-1.6 -2.05L-4.5 -2.25L-4.9 -2.35L-5.4 -2.45L-5.45 -2.45L-5.5 -2.5L-5.7 -2.55L-6 -2.6L-6.35 -2.75L-6.65 -2.9L-6.95 -3.3L-6.95 -3.35" />
<linearGradient
id="LinearGradID_421" gradientUnits="userSpaceOnUse" gradientTransform="matrix(0.00648499, 0, 0, 0.00151062, -1.65, -3.3)" spreadMethod ="pad" x1="-819.2" y1="0" x2="819.2" y2="0" >
<stop  offset="0" style="stop-color:#FEFE30;stop-opacity:1" />
<stop  offset="1" style="stop-color:#805740;stop-opacity:1" />
<stop  offset="1" style="stop-color:#805740;stop-opacity:1" />
</linearGradient>
<path style="fill:url(#LinearGradID_421) " d="M3.5,-3.05L2.75 -2.7L3.2 -3L3.35 -3.1L3.4 -3.2L3.4 -3.3L3.4 -3.4Q3.2 -3.8 1.95 -4.1L-1.55 -4.4L-5.05 -4.1Q-6.45 -3.8 -6.55 -3.35L-6.55 -3.3L-6.4 -3.05L-6.2 -2.85L-5.9 -2.75L-5.7 -2.65L-6 -2.75L-6.35 -2.9L-6.7 -3.05L-6.95 -3.35Q-6.9 -3.85 -5.4 -4.2L-4.55 -4.35L-4.35 -4.35L-1.6 -4.55L2.15 -4.2L2.6 -4.05L3.7 -3.35L3.7 -3.25L3.65 -3.2L3.65 -3.15L3.5 -3.05" />
<linearGradient
id="LinearGradID_422" gradientUnits="userSpaceOnUse" gradientTransform="matrix(0.00653076, 0, 0, 0.00152588, 0.45, -2.4)" spreadMethod ="pad" x1="-819.2" y1="0" x2="819.2" y2="0" >
<stop  offset="0" style="stop-color:#FEFE30;stop-opacity:1" />
<stop  offset="1" style="stop-color:#805740;stop-opacity:1" />
<stop  offset="1" style="stop-color:#805740;stop-opacity:1" />
</linearGradient>
<path style="fill:url(#LinearGradID_422) " d="M4.45,-3.2L4.45 -3.25L4.85 -3.1L4.65 -3.15L4.45 -3.2" />
<linearGradient
id="LinearGradID_423" gradientUnits="userSpaceOnUse" gradientTransform="matrix(0.00741577, 0, 0, 0.000305176, -1.55, -2.7)" spreadMethod ="pad" x1="-819.2" y1="0" x2="819.2" y2="0" >
<stop  offset="0" style="stop-color:#805740;stop-opacity:1" />
<stop  offset="0.741176" style="stop-color:#FEFE30;stop-opacity:1" />
<stop  offset="1" style="stop-color:#805740;stop-opacity:1" />
</linearGradient>
<path style="fill:url(#LinearGradID_423) " d="M-7.6,-3.3L-7.55 -3.25L-7.6 -3.3M4.45,-3.2L4.4 -3.25L4.45 -3.3L4.45 -3.25L4.45 -3.2" />
<linearGradient
id="LinearGradID_424" gradientUnits="userSpaceOnUse" gradientTransform="matrix(0.00735474, 0, 0, 0.000305176, -1.55, -2.55)" spreadMethod ="pad" x1="-819.2" y1="0" x2="819.2" y2="0" >
<stop  offset="0.388235" style="stop-color:#805740;stop-opacity:1" />
<stop  offset="0.741176" style="stop-color:#FEFE30;stop-opacity:1" />
<stop  offset="1" style="stop-color:#805740;stop-opacity:1" />
</linearGradient>
<path style="fill:url(#LinearGradID_424) " d="M-6.4,-1.95L-6.6 -2.05L-6.75 -2.1L-6.9 -2.15L-7.05 -2.25L-7.1 -2.25L-7.15 -2.3L-7.4 -2.5L-7.55 -3.1L-7.55 -3.2L-7.45 -2.95L-7.05 -2.65L-6.5 -2.4L-6.4 -2.35L-6.15 -2.3L-6 -2.25L-5.8 -2.15L-5.75 -2.15L-5.55 -2.1L-5.5 -2.1L-4.7 -1.9L-4.1 -1.8L0.4 -1.7Q2.65 -1.95 3.75 -2.65L4 -2.8L4.2 -3L4.35 -3.1L4.35 -3.15L4.35 -3.1L4.35 -2.95L4.3 -2.75L4.25 -2.65L4.15 -2.55L3.85 -2.3Q2.7 -1.55 0.45 -1.3L-1 -1.25L-1.15 -1.25L-1.35 -1.25L-2.1 -1.25L-2.35 -1.25L-2.7 -1.25L-4.15 -1.35L-4.75 -1.45L-5.4 -1.6L-6.3 -1.9L-6.4 -1.95" />
<linearGradient
id="LinearGradID_425" gradientUnits="userSpaceOnUse" gradientTransform="matrix(0.00648499, 0, 0, 0.00151062, 0.4, -2.3)" spreadMethod ="pad" x1="-819.2" y1="0" x2="819.2" y2="0" >
<stop  offset="0" style="stop-color:#FEFE30;stop-opacity:1" />
<stop  offset="1" style="stop-color:#805740;stop-opacity:1" />
<stop  offset="1" style="stop-color:#805740;stop-opacity:1" />
</linearGradient>
<path style="fill:url(#LinearGradID_425) " d="M-2.35,-1.25L-2.1 -1.25L0.45 -1.05L3.25 -1.25L3.65 -1.35L3.95 -1.4L4.5 -1.55L4.55 -1.6L4.8 -1.7L4.95 -1.75L5.25 -1.95L5.4 -2.1L5.4 -2.15L5.45 -2.25Q5.4 -2.65 4.4 -2.95L4.35 -2.95L4.35 -3.1L4.4 -3.1Q5.7 -2.75 5.75 -2.25L5.7 -2.15L5.65 -2.1L5.65 -2L5.45 -1.85L5.2 -1.7L5.05 -1.65L4.8 -1.55L4.4 -1.45L4.15 -1.4L3.55 -1.25L3.15 -1.2L0.4 -1L-2.7 -1.25L-2.35 -1.25" />
<linearGradient
id="LinearGradID_426" gradientUnits="userSpaceOnUse" gradientTransform="matrix(0.00735474, 0, 0, 0.000305176, 0.45, -1.55)" spreadMethod ="pad" x1="-819.2" y1="0" x2="819.2" y2="0" >
<stop  offset="0.372549" style="stop-color:#805740;stop-opacity:1" />
<stop  offset="0.670588" style="stop-color:#FEFE30;stop-opacity:1" />
<stop  offset="0.960784" style="stop-color:#DDD335;stop-opacity:1" />
<stop  offset="1" style="stop-color:#805740;stop-opacity:1" />
</linearGradient>
<path style="fill:url(#LinearGradID_426) " d="M-2.85,-0.45L-3.3 -0.55L-3.65 -0.65Q-4.45 -0.9 -5.05 -1.25L-5.1 -1.25L-5.4 -1.45L-5.4 -1.6L-4.75 -1.45L-4.45 -1.35L-3.95 -1.2L-3.75 -1.1Q-1.6 -0.55 0.6 -0.55L1.05 -0.55L2.45 -0.65L3.55 -0.8L4.3 -1L5.45 -1.4L5.65 -1.5L5.75 -1.6L5.8 -1.6L6 -1.75L6.25 -1.95L6.4 -2.1L6.3 -1.7L6.3 -1.6L6.2 -1.5L6.15 -1.5L6.05 -1.4L6.05 -1.35L5.9 -1.25Q5.05 -0.7 3.65 -0.45L3.4 -0.4L2.5 -0.3L1.8 -0.25L1.1 -0.2L0.9 -0.2L0.65 -0.2L-0.3 -0.2L-2.5 -0.4L-2.85 -0.45" />
<linearGradient
id="LinearGradID_427" gradientUnits="userSpaceOnUse" gradientTransform="matrix(0.00735474, 0, 0, 0.000305176, -1.55, -0.9)" spreadMethod ="pad" x1="-819.2" y1="0" x2="819.2" y2="0" >
<stop  offset="0.372549" style="stop-color:#805740;stop-opacity:1" />
<stop  offset="0.670588" style="stop-color:#FEFE30;stop-opacity:1" />
<stop  offset="1" style="stop-color:#805740;stop-opacity:1" />
</linearGradient>
<path style="fill:url(#LinearGradID_427) " d="M0.5,0.35L0.45 0.35L0 0.4L-0.25 0.4L-0.65 0.45L-1.1 0.45L-1.3 0.45L-2.3 0.45L-2.6 0.45L-3.6 0.35L-3.85 0.35L-4.05 0.3L-4.1 0.3L-4.5 0.25L-4.65 0.2L-5.1 0.15L-7.05 -0.55L-7.1 -0.6L-7.35 -0.8L-7.5 -1.4L-7.4 -1.25L-7 -0.95L-6.4 -0.7L-5.95 -0.55L-5.7 -0.5L-4.65 -0.2L-4.2 -0.1L-3.9 -0.05L-2.6 0.05L-2.05 0.1L0.45 0L1.8 -0.25L2.5 -0.3L3.4 -0.4L3.65 -0.45Q2.5 0.15 0.5 0.35" />
<linearGradient
id="LinearGradID_428" gradientUnits="userSpaceOnUse" gradientTransform="matrix(0.00460815, 0, 0, 0.00115967, 1.65, -2.05)" spreadMethod ="pad" x1="-819.2" y1="0" x2="819.2" y2="0" >
<stop  offset="0" style="stop-color:#805740;stop-opacity:1" />
<stop  offset="0.270588" style="stop-color:#DDD335;stop-opacity:1" />
<stop  offset="0.490196" style="stop-color:#FEFE30;stop-opacity:1" />
<stop  offset="0.639216" style="stop-color:#DACE34;stop-opacity:1" />
<stop  offset="1" style="stop-color:#805740;stop-opacity:1" />
</linearGradient>
<path style="fill:url(#LinearGradID_428) " d="M-1.35,-1.25L-1.15 -1.25L-1 -1.25L0.45 -1.3Q2.7 -1.55 3.85 -2.3L4.15 -2.55L4.25 -2.65L4.3 -2.75L4.35 -2.95L4.4 -2.95Q5.4 -2.65 5.45 -2.25L5.4 -2.15L5.4 -2.1L5.25 -1.95L4.95 -1.75L4.8 -1.7L4.55 -1.6L4.5 -1.55L3.95 -1.4L3.65 -1.35L3.25 -1.25L0.45 -1.05L-2.1 -1.25L-1.35 -1.25" />
<linearGradient
id="LinearGradID_429" gradientUnits="userSpaceOnUse" gradientTransform="matrix(0.00741577, 0, 0, 0.000305176, 0.5, -1.65)" spreadMethod ="pad" x1="-819.2" y1="0" x2="819.2" y2="0" >
<stop  offset="0" style="stop-color:#805740;stop-opacity:1" />
<stop  offset="0.741176" style="stop-color:#FEFE30;stop-opacity:1" />
<stop  offset="1" style="stop-color:#805740;stop-opacity:1" />
</linearGradient>
<path style="fill:url(#LinearGradID_429) " d="M6.3,-1.7L6.4 -2.1L6.5 -2.25L6.4 -1.75L6.3 -1.7" />
<linearGradient
id="LinearGradID_430" gradientUnits="userSpaceOnUse" gradientTransform="matrix(0.00653076, 0, 0, 0.00152588, 1.7, -0.8)" spreadMethod ="pad" x1="-819.2" y1="0" x2="819.2" y2="0" >
<stop  offset="0" style="stop-color:#FEFE30;stop-opacity:1" />
<stop  offset="1" style="stop-color:#805740;stop-opacity:1" />
<stop  offset="1" style="stop-color:#805740;stop-opacity:1" />
</linearGradient>
<path style="fill:url(#LinearGradID_430) " d="M6.15,-1.5L6.35 -1.45L6.15 -1.5" />
<linearGradient
id="LinearGradID_431" gradientUnits="userSpaceOnUse" gradientTransform="matrix(0.00648499, 0, 0, 0.00151062, 1.65, -0.7)" spreadMethod ="pad" x1="-819.2" y1="0" x2="819.2" y2="0" >
<stop  offset="0" style="stop-color:#FEFE30;stop-opacity:1" />
<stop  offset="1" style="stop-color:#805740;stop-opacity:1" />
<stop  offset="1" style="stop-color:#805740;stop-opacity:1" />
</linearGradient>
<path style="fill:url(#LinearGradID_431) " d="M-0.65,0.45L-0.25 0.4L1.7 0.5L5.2 0.15L5.7 0.05L5.85 0L5.95 -0.05L6.3 -0.2L6.5 -0.35L6.65 -0.5L6.65 -0.55L6.7 -0.65L5.9 -1.25L6.05 -1.35L6.05 -1.4Q6.95 -1.1 6.95 -0.7L6.95 -0.55L6.9 -0.45L6.85 -0.4L6.7 -0.3L6.45 -0.1L6 0L5.75 0.1L5.4 0.2L1.65 0.55L-0.65 0.45" />
<linearGradient
id="LinearGradID_432" gradientUnits="userSpaceOnUse" gradientTransform="matrix(0.00424194, 0, 0, 0.00109863, 3.2, -0.4)" spreadMethod ="pad" x1="-819.2" y1="0" x2="819.2" y2="0" >
<stop  offset="0" style="stop-color:#805740;stop-opacity:1" />
<stop  offset="0.270588" style="stop-color:#DDD335;stop-opacity:1" />
<stop  offset="0.490196" style="stop-color:#FEFE30;stop-opacity:1" />
<stop  offset="0.678431" style="stop-color:#DACE34;stop-opacity:1" />
<stop  offset="1" style="stop-color:#805740;stop-opacity:1" />
</linearGradient>
<path style="fill:url(#LinearGradID_432) " d="M-0.25,0.4L0 0.4L0.45 0.35L0.5 0.35Q2.5 0.15 3.65 -0.45Q5.05 -0.7 5.9 -1.25L6.7 -0.65L6.65 -0.55L6.65 -0.5L6.5 -0.35L6.3 -0.2L5.95 -0.05L5.85 0L5.7 0.05L5.2 0.15L1.7 0.5L-0.25 0.4" />
<linearGradient
id="LinearGradID_433" gradientUnits="userSpaceOnUse" gradientTransform="matrix(0.00735474, 0, 0, 0.000305176, 1.7, 0.05)" spreadMethod ="pad" x1="-819.2" y1="0" x2="819.2" y2="0" >
<stop  offset="0.372549" style="stop-color:#805740;stop-opacity:1" />
<stop  offset="0.670588" style="stop-color:#FEFE30;stop-opacity:1" />
<stop  offset="1" style="stop-color:#805740;stop-opacity:1" />
</linearGradient>
<path style="fill:url(#LinearGradID_433) " d="M6.75,0.55L6.65 0.6L6.55 0.65L3.7 1.3L2.75 1.4L2.15 1.4L1.9 1.4L0.9 1.4L0.15 1.35Q-2.4 1.15 -3.8 0.35L-3.85 0.35L-3.6 0.35L-2.6 0.45L-2.5 0.45L3.7 0.95L5.7 0.55L6.05 0.4L6.7 0.15L7.05 -0.05L7.25 -0.15L7.5 -0.35L7.5 -0.4L7.65 -0.55L7.65 -0.5L7.55 -0.05L7.4 0.05L7.1 0.35L6.85 0.5L6.75 0.55" />
<linearGradient
id="LinearGradID_434" gradientUnits="userSpaceOnUse" gradientTransform="matrix(0.00741577, 0, 0, 0.000305176, 1.75, -0.05)" spreadMethod ="pad" x1="-819.2" y1="0" x2="819.2" y2="0" >
<stop  offset="0" style="stop-color:#805740;stop-opacity:1" />
<stop  offset="0.741176" style="stop-color:#FEFE30;stop-opacity:1" />
<stop  offset="1" style="stop-color:#805740;stop-opacity:1" />
</linearGradient>
<path style="fill:url(#LinearGradID_434) " d="M7.65,-0.5L7.75 -0.65L7.65 -0.15L7.55 -0.05L7.65 -0.5" />
<linearGradient
id="LinearGradID_435" gradientUnits="userSpaceOnUse" gradientTransform="matrix(0.00219727, 0, 0, 0.00088501, -4.7, -1.2)" spreadMethod ="pad" x1="-819.2" y1="0" x2="819.2" y2="0" >
<stop  offset="0" style="stop-color:#805740;stop-opacity:1" />
<stop  offset="0.356863" style="stop-color:#DDD335;stop-opacity:1" />
<stop  offset="0.490196" style="stop-color:#FEFE30;stop-opacity:1" />
<stop  offset="0.678431" style="stop-color:#DACE34;stop-opacity:1" />
<stop  offset="1" style="stop-color:#805740;stop-opacity:1" />
</linearGradient>
<path style="fill:url(#LinearGradID_435) " d="M-3.2,-0.5L-3.65 -0.55L-4.3 -0.6L-5 -0.75L-5.5 -0.9L-5.85 -1.05L-6.15 -1.15L-6.35 -1.35L-6.5 -1.6L-6.5 -1.65L-6.3 -1.9L-5.4 -1.6L-5.4 -1.45L-5.1 -1.25L-5.05 -1.25Q-4.45 -0.9 -3.65 -0.65L-3.3 -0.55L-2.85 -0.45L-3.2 -0.5" />
<linearGradient
id="LinearGradID_436" gradientUnits="userSpaceOnUse" gradientTransform="matrix(0.00648499, 0, 0, 0.00151062, -1.55, -1.65)" spreadMethod ="pad" x1="-819.2" y1="0" x2="819.2" y2="0" >
<stop  offset="0" style="stop-color:#FEFE30;stop-opacity:1" />
<stop  offset="1" style="stop-color:#805740;stop-opacity:1" />
<stop  offset="1" style="stop-color:#805740;stop-opacity:1" />
</linearGradient>
<path style="fill:url(#LinearGradID_436) " d="M-6.3,-1.9L-6.5 -1.65L-6.5 -1.6L-6.35 -1.35L-6.15 -1.15L-5.85 -1.05L-5.5 -0.9L-5 -0.75L-4.3 -0.6L-3.65 -0.55L-3.2 -0.5L-2.85 -0.45L-2.5 -0.4L-3.15 -0.45L-3.6 -0.45L-4.3 -0.55L-5.35 -0.75L-5.95 -0.9L-6.3 -1.05L-6.6 -1.25L-6.9 -1.6L-6.9 -1.65L-6.6 -2.05L-6.4 -1.95L-6.3 -1.9" />
<linearGradient
id="LinearGradID_437" gradientUnits="userSpaceOnUse" gradientTransform="matrix(0.00648499, 0, 0, 0.00151062, 0.8, 0.25)" spreadMethod ="pad" x1="-819.2" y1="0" x2="819.2" y2="0" >
<stop  offset="0" style="stop-color:#FEFE30;stop-opacity:1" />
<stop  offset="1" style="stop-color:#805740;stop-opacity:1" />
<stop  offset="1" style="stop-color:#805740;stop-opacity:1" />
</linearGradient>
<path style="fill:url(#LinearGradID_437) " d="M-4.5,0.25L-4.1 0.3L-4.05 0.35L-4 0.55L-3.8 0.7L-3.45 0.85L-2.8 1.05L-2.65 1.1L0.85 1.45L2.75 1.4L3.7 1.3L0.8 1.5L-2.95 1.15L-3.6 0.95L-3.9 0.8L-4.25 0.65L-4.45 0.45L-4.5 0.35L-4.5 0.3L-4.5 0.25" />
<linearGradient
id="LinearGradID_438" gradientUnits="userSpaceOnUse" gradientTransform="matrix(0.00418091, 0, 0, 0.000701904, -0.7, 0.85)" spreadMethod ="pad" x1="-819.2" y1="0" x2="819.2" y2="0" >
<stop  offset="0" style="stop-color:#805740;stop-opacity:1" />
<stop  offset="0.423529" style="stop-color:#DDD335;stop-opacity:1" />
<stop  offset="0.490196" style="stop-color:#FEFE30;stop-opacity:1" />
<stop  offset="0.560784" style="stop-color:#DACE34;stop-opacity:1" />
<stop  offset="1" style="stop-color:#805740;stop-opacity:1" />
</linearGradient>
<path style="fill:url(#LinearGradID_438) " d="M2.75,1.4L0.85 1.45L-2.65 1.1L-2.8 1.05L-3.45 0.85L-3.8 0.7L-4 0.55L-4.05 0.35L-4.1 0.3L-4.05 0.3L-3.85 0.35L-3.8 0.35Q-2.4 1.15 0.15 1.35L0.9 1.4L1.9 1.4L2.15 1.4L2.75 1.4" />
<linearGradient
id="LinearGradID_439" gradientUnits="userSpaceOnUse" gradientTransform="matrix(0.00735474, 0, 0, 0.000305176, 0.85, 1)" spreadMethod ="pad" x1="-819.2" y1="0" x2="819.2" y2="0" >
<stop  offset="0.4" style="stop-color:#805740;stop-opacity:1" />
<stop  offset="0.670588" style="stop-color:#FEFE30;stop-opacity:1" />
<stop  offset="1" style="stop-color:#805740;stop-opacity:1" />
</linearGradient>
<path style="fill:url(#LinearGradID_439) " d="M6.7,0.9L6.55 1L6.25 1.3L5.5 1.7L5.35 1.75L5 1.85L4.9 1.9L4.7 1.95L4.65 1.95L3.85 2.15L3.6 2.15L2.9 2.25L1.4 2.35L1.3 2.35L1.05 2.35L0.95 2.35L0.3 2.3L0.05 2.3Q-3.05 2.25 -4.65 1.3L-4.7 1.3L-5 1.1L-5.1 0.6L-5.05 0.6L-4.6 0.95L-4.05 1.2L-3.55 1.35L-3.35 1.4Q-0.3 2.25 2.85 1.9L3.25 1.85L3.7 1.75L4.7 1.55L4.8 1.5L4.9 1.5L6.2 0.9L6.45 0.8L6.65 0.6L6.75 0.55L6.7 0.9" />
<linearGradient
id="LinearGradID_440" gradientUnits="userSpaceOnUse" gradientTransform="matrix(0.00648499, 0, 0, 0.00151062, -1.2, 1.25)" spreadMethod ="pad" x1="-819.2" y1="0" x2="819.2" y2="0" >
<stop  offset="0" style="stop-color:#FEFE30;stop-opacity:1" />
<stop  offset="1" style="stop-color:#805740;stop-opacity:1" />
<stop  offset="1" style="stop-color:#805740;stop-opacity:1" />
</linearGradient>
<path style="fill:url(#LinearGradID_440) " d="M-6.1,1.25L-6.1 1.3L-5.95 1.55L-5.9 1.6L-5.75 1.7L-5.6 1.8L-5.45 1.85L-5.25 1.9L-4.6 2.1L-1.1 2.45L0.95 2.35L1.05 2.35L1.3 2.35L1.4 2.35L-1.15 2.5L-4.95 2.15L-5.3 2.05L-5.55 1.95L-5.7 1.9L-5.9 1.8L-6.1 1.75L-6.25 1.65L-6.5 1.3L-6.5 1.25Q-6.5 0.8 -5.15 0.4L-4.95 0.35L-4.5 0.3L-4.5 0.35L-4.45 0.45L-4.6 0.45L-5 0.55L-5.05 0.6L-5.1 0.6Q-6 0.85 -6.1 1.25" />
<linearGradient
id="LinearGradID_441" gradientUnits="userSpaceOnUse" gradientTransform="matrix(0.00428772, 0, 0, 0.00114441, -2.55, 1.5)" spreadMethod ="pad" x1="-819.2" y1="0" x2="819.2" y2="0" >
<stop  offset="0" style="stop-color:#805740;stop-opacity:1" />
<stop  offset="0.407843" style="stop-color:#EAE433;stop-opacity:1" />
<stop  offset="0.490196" style="stop-color:#FEFE30;stop-opacity:1" />
<stop  offset="0.560784" style="stop-color:#DACE34;stop-opacity:1" />
<stop  offset="1" style="stop-color:#805740;stop-opacity:1" />
<stop  offset="1" style="stop-color:#DDD335;stop-opacity:1" />
</linearGradient>
<path style="fill:url(#LinearGradID_441) " d="M-5.1,0.6L-5 1.1L-4.7 1.3L-4.65 1.3Q-3.05 2.25 0.05 2.3L0.3 2.3L0.95 2.35L-1.1 2.45L-4.6 2.1L-5.25 1.9L-5.45 1.85L-5.6 1.8L-5.75 1.7L-5.9 1.6L-5.95 1.55L-6.1 1.3L-6.1 1.25Q-6 0.85 -5.1 0.6" />
<linearGradient
id="LinearGradID_442" gradientUnits="userSpaceOnUse" gradientTransform="matrix(0.00735474, 0, 0, 0.000305176, -0.35, 2.8)" spreadMethod ="pad" x1="-819.2" y1="0" x2="819.2" y2="0" >
<stop  offset="0.333333" style="stop-color:#805740;stop-opacity:1" />
<stop  offset="0.670588" style="stop-color:#FEFE30;stop-opacity:1" />
<stop  offset="1" style="stop-color:#805740;stop-opacity:1" />
</linearGradient>
<path style="fill:url(#LinearGradID_442) " d="M5.5,2.65L5.5 2.7L5.4 2.8L5.1 3.05Q3.95 3.8 1.7 4.05L0.1 4.15L-0.1 4.15L-1.1 4.1Q-4.25 4 -5.85 3.1L-5.9 3.05L-6.15 2.9L-6.25 2.5L-5.95 2.65L-5.8 2.75L-5.25 2.95L-4.75 3.15L-4.5 3.2L1.65 3.65Q3.9 3.4 5 2.7L5.25 2.55L5.45 2.4L5.55 2.3L5.6 2.2L5.5 2.65" />
<linearGradient
id="LinearGradID_443" gradientUnits="userSpaceOnUse" gradientTransform="matrix(0.00735474, 0, 0, 0.000305176, -1.15, 2)" spreadMethod ="pad" x1="-819.2" y1="0" x2="819.2" y2="0" >
<stop  offset="0.34902" style="stop-color:#805740;stop-opacity:1" />
<stop  offset="0.670588" style="stop-color:#FEFE30;stop-opacity:1" />
<stop  offset="1" style="stop-color:#805740;stop-opacity:1" />
</linearGradient>
<path style="fill:url(#LinearGradID_443) " d="M-7.05,1.6L-6.6 1.95L-6.35 2.05L-6.05 2.2L-5.6 2.3L-5.55 2.3L-5.3 2.4L-4.95 2.5L0.85 2.9L3.85 2.15L4.65 1.95L4.6 2L4.3 2.25L2.9 2.9L2.15 3.1L1.55 3.2L0.9 3.25L0.45 3.3L-0.7 3.35L-0.9 3.35L-1.9 3.3L-5.25 2.9L-5.3 2.85L-5.4 2.85L-5.95 2.65L-6.25 2.5L-6.6 2.3L-6.7 2.25L-7 2.1L-7.1 1.45L-7.1 1.4L-7.05 1.6" />
<linearGradient
id="LinearGradID_444" gradientUnits="userSpaceOnUse" gradientTransform="matrix(0.00741577, 0, 0, 0.000305176, -1.1, 1.9)" spreadMethod ="pad" x1="-819.2" y1="0" x2="819.2" y2="0" >
<stop  offset="0" style="stop-color:#805740;stop-opacity:1" />
<stop  offset="0.741176" style="stop-color:#FEFE30;stop-opacity:1" />
<stop  offset="1" style="stop-color:#805740;stop-opacity:1" />
</linearGradient>
<path style="fill:url(#LinearGradID_444) " d="M-7.1,1.35L-7.15 1.3L-7.1 1.35" />
<linearGradient
id="LinearGradID_445" gradientUnits="userSpaceOnUse" gradientTransform="matrix(0.00741577, 0, 0, 0.000305176, 0.9, 0.9)" spreadMethod ="pad" x1="-819.2" y1="0" x2="819.2" y2="0" >
<stop  offset="0" style="stop-color:#805740;stop-opacity:1" />
<stop  offset="0.741176" style="stop-color:#FEFE30;stop-opacity:1" />
<stop  offset="1" style="stop-color:#805740;stop-opacity:1" />
</linearGradient>
<path style="fill:url(#LinearGradID_445) " d="M6.75,0.55L6.85 0.5L6.8 0.8L6.7 0.9L6.75 0.55" />
<linearGradient
id="LinearGradID_446" gradientUnits="userSpaceOnUse" gradientTransform="matrix(0.00741577, 0, 0, 0.000305176, -0.3, 2.7)" spreadMethod ="pad" x1="-819.2" y1="0" x2="819.2" y2="0" >
<stop  offset="0" style="stop-color:#805740;stop-opacity:1" />
<stop  offset="0.741176" style="stop-color:#FEFE30;stop-opacity:1" />
<stop  offset="1" style="stop-color:#805740;stop-opacity:1" />
</linearGradient>
<path style="fill:url(#LinearGradID_446) " d="M5.6,2.2L5.7 2.1L5.6 2.6L5.5 2.65L5.6 2.2" />
<linearGradient
id="LinearGradID_447" gradientUnits="userSpaceOnUse" gradientTransform="matrix(0.00187683, 0, 0, 0.000717163, 3.05, 2.55)" spreadMethod ="pad" x1="-819.2" y1="0" x2="819.2" y2="0" >
<stop  offset="0" style="stop-color:#805740;stop-opacity:1" />
<stop  offset="0.407843" style="stop-color:#EAE433;stop-opacity:1" />
<stop  offset="0.490196" style="stop-color:#FEFE30;stop-opacity:1" />
<stop  offset="0.560784" style="stop-color:#DACE34;stop-opacity:1" />
<stop  offset="1" style="stop-color:#DDD335;stop-opacity:1" />
<stop  offset="1" style="stop-color:#805740;stop-opacity:1" />
</linearGradient>
<path style="fill:url(#LinearGradID_447) " d="M4.65,2.1L4.6 2.25L4.45 2.4L3.2 2.9L3 2.95L1.55 3.2L2.15 3.1L2.9 2.9L4.3 2.25L4.6 2L4.65 2.1" />
<linearGradient
id="LinearGradID_448" gradientUnits="userSpaceOnUse" gradientTransform="matrix(0.00648499, 0, 0, 0.00151062, -0.4, 2.05)" spreadMethod ="pad" x1="-819.2" y1="0" x2="819.2" y2="0" >
<stop  offset="0" style="stop-color:#FEFE30;stop-opacity:1" />
<stop  offset="1" style="stop-color:#805740;stop-opacity:1" />
<stop  offset="1" style="stop-color:#805740;stop-opacity:1" />
</linearGradient>
<path style="fill:url(#LinearGradID_448) " d="M4.95,2.05L4.9 2.15L4.85 2.3L4.65 2.45L3.4 2.95L0.45 3.3L0.9 3.25L1.55 3.2L3 2.95L3.2 2.9L4.45 2.4L4.6 2.25L4.65 2.1L4.6 2L4.65 1.95L4.7 1.95L4.9 1.9L4.95 2.05" />
</g>
</svg>
