<?xml version="1.0" encoding="utf-8"?>
<svg version="1.1" id="Layer_1"
xmlns="http://www.w3.org/2000/svg"
xmlns:xlink="http://www.w3.org/1999/xlink"
xmlns:author="http://www.sothink.com"
width="36px" height="26px"
xml:space="preserve">
<g id="240" transform="matrix(1, 0, 0, 1, 18, 13)">
<path style="fill:#DBE6BE;fill-opacity:1" d="M8.05,-8.35L8 -8.3L5.55 -10.25L5.5 -10.2L2.9 -9.2L3.35 -8.85L3.25 -8.85L-15.25 -2.05L-15.55 -2.4L-15.4 -0.9L-15.35 -0.8L-15.35 -0.65L-15.25 -0.7L-9.55 6.25L-6.15 10.4L-6.15 10.55L15.35 -1.25L15.4 -2.4L13.5 -3.85L13.55 -8.45L11.3 -10.05L9 -9.15L8.95 -9.15L8.95 -7.4L8.2 -8L8.05 -7.95L8.3 -8.05L8.05 -8.25L8.05 -8.35M-7.8,-1.85L-7.85 -1.8L-8.55 -2.85L-8.7 -3.05L-8.7 -3.1L-7.8 -1.85M17.5,-12.5L17.5 12.5L-17.5 12.5L-17.5 -12.5L17.5 -12.5" />
<path style="fill:#BF9E7F;fill-opacity:1" d="M-2,-5.5L0.2 -3.55L-2.05 -5.45L-2 -5.5M2.6,-5L0.5 -6.7L0.55 -6.7L2.6 -5" />
<path style="fill:#715944;fill-opacity:1" d="M-2.05,-5.45L0.2 -3.55L-2 -5.5L-2.05 -5.45M2.55,-5L0.45 -6.5L-0.25 -6.2L-0.35 -6.3L-0.4 -6.3L-1.45 -5.85L-1.55 -5.8L-1.5 -5.4L0.7 -3.45L2.7 -4.7L2.6 -5L2.55 -5M-6.2,9.1L-6.15 10.4L-9.55 6.25L-9.7 4.8L-14.4 -1L-8.6 -3.25L-8.7 -3.15L-8.7 -3.1L-8.7 -3.05L-9.75 -2.6Q-11.2 -1.75 -11.15 -0.5L-11.15 -0.3L-11.15 -0.15L-11.15 -0.25L-11.15 -0.15Q-11.2 1.25 -9.75 2.25Q-8.4 3.2 -6.35 3.2Q-4.35 3.2 -2.95 2.25Q-1.55 1.25 -1.55 -0.15L-1.55 -0.5Q-1.55 -1.75 -2.95 -2.6L-4.65 -3.3L-6.35 -3.45L-7.7 -3.35L-7.7 -3.45L-8.3 -3.35L0.5 -6.7L2.6 -5L0.55 -6.7L3.25 -7.75L3.25 -7.05L5.65 -4.75L8.1 -6.1L8.1 -7.05L8.95 -6.35L8.95 -2.85L11.15 -0.75L13.45 -2.1L13.5 -2.85L14.6 -1.95L-1.6 6.7L-1.4 5.85L-1.4 5.55Q-1.4 4.65 -2.45 4L-3.7 3.5L-5 3.35L-6 3.4L-6.65 3.45L-6.6 3.5L-6.65 3.55L-6.75 3.6L-6.65 3.8L-6.75 3.65Q-7.15 3.75 -7.5 4Q-8.55 4.65 -8.55 5.55L-8.55 5.7L-8.55 5.8L-8.55 5.85L-8.55 5.75L-8.55 5.85Q-8.55 6.85 -7.5 7.55Q-6.5 8.3 -5 8.3L-4.65 8.3L-6.2 9.1M-2.15,-5.3L-2.15 -5.25L-2.9 -5L-3 -5.05L-3.05 -5.05L-4.3 -4.6L-4.3 -4.15L-1.95 -1.85L0.3 -3.2L0.2 -3.55L0.15 -3.55L-2.15 -5.3M-6.1,4.55L-6.65 3.8L-6.05 4.55L-6.1 4.55M6.15,-3.9L5.3 -4.05L5.3 -4L5.25 -3.95L3.9 -4.05L2.25 -3.85Q1.25 -3.65 0.5 -3.15Q-0.9 -2.35 -0.85 -1.1L-0.85 -0.75Q-0.9 0.6 0.5 1.6Q1.9 2.6 3.9 2.6Q5.9 2.6 7.3 1.6Q8.7 0.6 8.7 -0.75L8.7 -0.85L8.7 -0.75L8.7 -0.8L8.7 -0.9L8.7 -1.1Q8.7 -2.35 7.3 -3.15L6.3 -3.7L6.15 -3.45L5.4 -2.45L6.3 -3.75L6.15 -3.85L6.15 -3.9M-2.65,3.6L-0.65 4.9L1.55 2.9L1.55 2.5L0.4 2L0.3 2.1L-0.45 1.85L-0.45 1.8L-2.55 3.3L-2.65 3.6" />
<path style="fill:#E0CEC2;fill-opacity:1" d="M-1.3,-5.7L-0.55 -6L1.35 -4.65L-0.5 -6.15L-0.55 -6.2L-0.55 -6.15L-1.45 -5.85L-1.3 -5.7M-0.4,-6.3L-0.35 -6.3L-0.25 -6.2L0.45 -6.5L2.55 -5L0.7 -3.85L-1.55 -5.8L-1.45 -5.85L-0.4 -6.3M0.15,-3.55L-1.9 -2.35L-4.3 -4.6L-3.05 -5.05L-3 -5.05L-2.9 -5L-2.15 -5.25L-2.15 -5.3L0.15 -3.55M-3.25,-4.95L-4.2 -4.6L-4.05 -4.45L-3.3 -4.75L-3.25 -4.75L-1.2 -3.2L-3.2 -5L-3.25 -4.95M-0.7,4.4L-2.55 3.3L-0.45 1.8L-0.45 1.85L0.3 2.1L0.4 2L1.55 2.5L-0.7 4.4M0.6,2.3L1.3 2.6L1.45 2.5L0.55 2.1L-1.3 3.65L0.55 2.3L0.6 2.3" />
<path style="fill:#563529;fill-opacity:1" d="M-1.45,-5.85L-0.55 -6.15L-0.55 -6.2L-0.5 -6.15L1.35 -4.65L-0.55 -6L-1.3 -5.7L-1.45 -5.85M-3.2,-5L-1.2 -3.2L-3.25 -4.75L-3.3 -4.75L-4.05 -4.45L-4.2 -4.6L-3.25 -4.95L-3.2 -5M0.55,2.3L-1.3 3.65L0.55 2.1L1.45 2.5L1.3 2.6L0.6 2.3L0.55 2.3" />
<path style="fill:#ECECEC;fill-opacity:1" d="M-8.3,-3.35L-8.6 -3.3L-8.55 -3.25L-8.6 -3.25L-14.4 -1L-15.25 -2.05L3.25 -8.85L3.25 -7.75L0.55 -6.7L0.5 -6.7L-8.3 -3.35M15.4,-2.4L15.35 -1.25L-6.15 10.55L-6.15 10.4L-6.2 9.1L-4.65 8.3L-2.45 7.1L-1.6 6.7L14.6 -1.95L15.4 -2.4M-15.25,-0.7L-15.35 -0.65L-15.35 -0.8L-15.25 -0.7" />
<path style="fill:#C4AF9B;fill-opacity:1" d="M5.65,-4.75L3.25 -7.05L3.25 -7.75L3.25 -8.85L3.35 -8.85L5.65 -6.8L5.65 -4.75M11.3,-7.05L11.15 -0.75L8.95 -2.85L8.95 -6.35L8.95 -7.4L8.95 -9.15L9 -9.15L8.95 -9.15L11.25 -7.1L11.3 -7.05" />
<path style="fill:#A58769;fill-opacity:1" d="M2.9,-9.2L5.5 -10.2L5.55 -10.25L8 -8.3L8.05 -8.25L8.3 -8.05L8.05 -7.95L5.75 -6.7L5.65 -6.8L3.35 -8.85L2.9 -9.2M11.25,-7.1L8.95 -9.15L9 -9.15L11.3 -10.05L13.55 -8.45L11.25 -7.1" />
<path style="fill:#E0D6CD;fill-opacity:1" d="M8.1,-7.05L8.1 -6.1L5.65 -4.75L5.65 -6.8L5.75 -6.7L8.05 -7.95L8.1 -7.05M8.05,-8.25L8 -8.3L8.05 -8.35L8.05 -8.25M13.5,-2.85L13.45 -2.1L11.15 -0.75L11.3 -7.05L11.25 -7.1L13.55 -8.45L13.5 -3.85L13.5 -2.85" />
<path style="fill:#C5C5C5;fill-opacity:1" d="M-15.35,-0.8L-15.4 -0.9L-15.55 -2.4L-15.25 -2.05L-14.4 -1L-9.7 4.8L-9.55 6.25L-15.25 -0.7L-15.35 -0.8M14.6,-1.95L13.5 -2.85L13.5 -3.85L15.4 -2.4L14.6 -1.95M8.1,-7.05L8.05 -7.95L8.2 -8L8.95 -7.4L8.95 -6.35L8.1 -7.05" />
<path style="fill:#7B573E;fill-opacity:1" d="M2.6,-5L2.7 -4.7L0.7 -3.45L-1.5 -5.4L-1.55 -5.8L0.7 -3.85L2.55 -5L2.6 -5M-1.9,-2.35L0.15 -3.55L0.2 -3.55L0.3 -3.2L-1.95 -1.85L-4.3 -4.15L-4.3 -4.6L-1.9 -2.35M1.55,2.5L1.55 2.9L-0.65 4.9L-2.65 3.6L-2.55 3.3L-0.7 4.4L1.55 2.5" />
<path style="fill:#C8D1EC;fill-opacity:1" d="M-2.95,-2.35Q-3.8 -2.85 -4.65 -3L-6.35 -3.2L-7.5 -3.1L-7.7 -3.35L-6.35 -3.45L-4.65 -3.3L-2.95 -2.6Q-1.55 -1.75 -1.55 -0.5Q-1.65 -1.6 -2.95 -2.35M-11.15,-0.5Q-11.2 -1.75 -9.75 -2.6L-8.7 -3.05L-8.55 -2.85Q-9.15 -2.7 -9.75 -2.35Q-11.1 -1.6 -11.15 -0.5M-2.45,4.2Q-3.1 3.8 -3.7 3.7L-5 3.55L-5.85 3.6L-5.85 3.55L-6 3.4L-5 3.35L-3.7 3.5L-2.45 4Q-1.4 4.65 -1.4 5.55Q-1.45 4.75 -2.45 4.2M-8.55,5.55Q-8.55 4.65 -7.5 4Q-7.15 3.75 -6.75 3.65L-6.65 3.8L-7.5 4.2Q-8.5 4.75 -8.55 5.55M7.3,-2.95Q6.7 -3.3 6.15 -3.45L6.3 -3.7L7.3 -3.15Q8.7 -2.35 8.7 -1.1Q8.65 -2.2 7.3 -2.95M5.1,-3.7L3.9 -3.8L2.25 -3.6Q1.35 -3.45 0.5 -2.95Q-0.8 -2.2 -0.85 -1.1Q-0.9 -2.35 0.5 -3.15Q1.25 -3.65 2.25 -3.85L3.9 -4.05L5.25 -3.95L5.1 -3.7" />
<path style="fill:#6B85CD;fill-opacity:1" d="M-9.75,-2.35Q-9.15 -2.7 -8.55 -2.85L-7.85 -1.8L-8.1 -1.7Q-8.75 -1.35 -8.75 -0.85L-8.75 -0.8L-8.7 -0.75L-8.7 -0.6L-8.7 -0.55L-8.7 -0.35L-8.65 -0.25L-8.55 0L-8.05 0.4L-7.7 0.55L-7.3 0.7L-6.45 0.85L-6.4 0.85L-5.55 0.7L-5.15 0.55L-4.85 0.4L-4.35 0L-4.2 -0.25L-4.2 -0.3L-4.15 -0.55L-4.15 -0.75L-4.15 -0.85Q-4.2 -1.35 -4.85 -1.7L-5.65 -2L-5.8 -2L-5.95 -2L-6.4 -2.05L-6.45 -2.05L-6.7 -2.05L-7.5 -3.1L-6.35 -3.2L-4.65 -3Q-3.8 -2.85 -2.95 -2.35Q-1.65 -1.6 -1.55 -0.5L-1.55 -0.15L-1.6 0.25L-1.65 0.3L-1.95 0.8L-2.95 1.6L-3.7 2L-4.45 2.25L-6.3 2.4L-6.4 2.4L-8.2 2.25L-9 2L-9.75 1.6L-10.7 0.8L-11 0.3L-11.05 0.15L-11.15 -0.15L-11.15 -0.3L-11.15 -0.5Q-11.1 -1.6 -9.75 -2.35M-5.85,3.6L-5 3.55L-3.7 3.7Q-3.1 3.8 -2.45 4.2Q-1.45 4.75 -1.4 5.55L-1.4 5.85L-1.45 6.1L-1.7 6.55L-2.45 7.1L-3 7.4L-3.55 7.55L-4.9 7.7L-5 7.7L-6.35 7.55L-6.95 7.4L-7.5 7.1L-8.25 6.55L-8.45 6.15L-8.5 6L-8.55 5.85L-8.55 5.8L-8.55 5.7L-8.55 5.55Q-8.5 4.75 -7.5 4.2L-6.65 3.8L-6.1 4.55L-6.3 4.7Q-6.75 4.9 -6.75 5.25L-6.75 5.4L-6.75 5.5L-6.7 5.55L-6.7 5.65L-6.6 5.9L-6.25 6.25L-6 6.35L-5.7 6.45L-5.05 6.55L-5 6.55L-4.4 6.45L-4.1 6.35L-3.85 6.25L-3.5 5.9L-3.4 5.7L-3.35 5.55L-3.35 5.4L-3.35 5.25Q-3.4 4.9 -3.85 4.7L-4.45 4.45L-4.55 4.4L-4.7 4.4L-5.05 4.4L-5.25 4.4L-5.85 3.6M-0.85,-0.75L-0.85 -1.1Q-0.8 -2.2 0.5 -2.95Q1.35 -3.45 2.25 -3.6L3.9 -3.8L5.1 -3.7L4.3 -2.65L4 -2.7L3.5 -2.65L3.4 -2.6L3.25 -2.6L2.4 -2.3Q1.8 -2 1.75 -1.5L1.75 -1.45L1.7 -1.3L1.7 -1.15L1.75 -0.9L1.9 -0.6L2.4 -0.2L2.7 0L3.15 0.1L4 0.2L4.05 0.2L4.9 0.1L5.3 0L5.6 -0.2L6.1 -0.6L6.25 -0.85L6.3 -1L6.3 -1.15L6.3 -1.25L6.3 -1.3L6.3 -1.35L6.3 -1.5Q6.25 -2 5.65 -2.3L5.4 -2.45L6.15 -3.45Q6.7 -3.3 7.3 -2.95Q8.65 -2.2 8.7 -1.1L8.7 -0.9L8.7 -0.8L8.7 -0.75L8.65 -0.45L8.55 -0.3L8.3 0.2L7.3 1L6.55 1.35L5.8 1.6L4 1.85L3.85 1.85L2.05 1.6L1.25 1.35L0.5 1L-0.5 0.2L-0.8 -0.35L-0.85 -0.75" />
<path style="fill:#D0D8EE;fill-opacity:1" d="M-5.55,-0.6L-5.5 -0.3L-6.55 -0.05L-7.8 -1.85L-8.7 -3.1L-8.7 -3.15L-8.6 -3.25L-8.55 -3.25L-6.45 -0.3L-6.45 -0.35L-5.55 -0.6M-5.05,5.7L-5.05 5.65L-4.4 5.5L-4.35 5.7L-5.15 5.85L-6.05 4.55L-6.65 3.8L-6.75 3.6L-6.65 3.55L-6.6 3.5L-5.05 5.7M4.15,-0.65L3.1 -0.95L3.15 -1.15L4 -1L4.05 -0.85L6.15 -3.85L6.3 -3.75L5.4 -2.45L4.15 -0.65" />
<path style="fill:#26386F;fill-opacity:1" d="M-6.7,-2.05L-5.55 -0.6L-6.45 -0.35L-6.45 -0.3L-8.55 -3.25L-8.6 -3.3L-8.3 -3.35L-7.7 -3.45L-7.7 -3.35L-7.5 -3.1L-6.7 -2.05M-1.55,-0.15Q-1.55 1.25 -2.95 2.25Q-4.35 3.2 -6.35 3.2Q-8.4 3.2 -9.75 2.25Q-11.2 1.25 -11.15 -0.15L-11.15 -0.25L-11.15 -0.15L-11.05 0.15L-11 0.3L-10.7 0.8L-9.75 1.6L-9 2L-8.2 2.25L-6.4 2.4L-6.3 2.4L-4.45 2.25L-3.7 2L-2.95 1.6L-1.95 0.8L-1.65 0.3L-1.6 0.25L-1.55 -0.15M-5.25,4.4L-4.4 5.5L-5.05 5.65L-5.05 5.7L-6.6 3.5L-6.65 3.45L-6 3.4L-5.85 3.55L-5.85 3.6L-5.25 4.4M-2.45,7.1L-4.65 8.3L-5 8.3Q-6.5 8.3 -7.5 7.55Q-8.55 6.85 -8.55 5.85L-8.55 5.75L-8.55 5.85L-8.5 6L-8.45 6.15L-8.25 6.55L-7.5 7.1L-6.95 7.4L-6.35 7.55L-5 7.7L-4.9 7.7L-3.55 7.55L-3 7.4L-2.45 7.1L-1.7 6.55L-1.45 6.1L-1.4 5.85L-1.6 6.7L-2.45 7.1M-0.8,-0.35L-0.5 0.2L0.5 1L1.25 1.35L2.05 1.6L3.85 1.85L4 1.85L5.8 1.6L6.55 1.35L7.3 1L8.3 0.2L8.55 -0.3L8.65 -0.45L8.7 -0.75L8.7 -0.85L8.7 -0.75Q8.7 0.6 7.3 1.6Q5.9 2.6 3.9 2.6Q1.9 2.6 0.5 1.6Q-0.9 0.6 -0.85 -0.75L-0.8 -0.35M4.3,-2.65L5.1 -3.7L5.25 -3.95L5.3 -4L5.3 -4.05L6.15 -3.9L6.15 -3.85L4.05 -0.85L4 -1L3.15 -1.15L4.3 -2.65" />
<path style="fill:#498576;fill-opacity:1" d="M-6.55,-0.05L-5.5 -0.3L-5.55 -0.6L-6.7 -2.05L-6.45 -2.05L-6.4 -2.05L-5.95 -2L-5.8 -2L-5.65 -2L-4.85 -1.7Q-4.2 -1.35 -4.15 -0.85L-4.15 -0.75L-4.2 -0.6L-4.35 -0.3L-4.85 0.05L-5.2 0.2L-5.55 0.3L-6.4 0.4L-6.5 0.4L-7.35 0.3L-7.7 0.2L-8.1 0.05L-8.55 -0.3L-8.7 -0.55L-8.7 -0.6L-8.7 -0.75L-8.75 -0.8L-8.75 -0.85Q-8.75 -1.35 -8.1 -1.7L-7.85 -1.8L-7.8 -1.85L-6.55 -0.05M-5.25,4.4L-5.05 4.4L-4.7 4.4L-4.55 4.4L-4.45 4.45L-3.85 4.7Q-3.4 4.9 -3.35 5.25L-3.35 5.4L-3.4 5.5L-3.4 5.55L-3.5 5.7L-3.85 5.95L-4.15 6.05L-4.4 6.1L-5 6.25L-5.1 6.25L-5.7 6.1L-6 6.05L-6.3 5.95L-6.6 5.7L-6.7 5.55L-6.7 5.45L-6.75 5.4L-6.75 5.25Q-6.75 4.9 -6.3 4.7L-6.1 4.55L-6.05 4.55L-5.15 5.85L-4.35 5.7L-4.4 5.5L-5.25 4.4M3.15,-1.15L3.1 -0.95L4.15 -0.65L5.4 -2.45L5.65 -2.3Q6.25 -2 6.3 -1.5L6.3 -1.35L6.3 -1.3L6.3 -1.25L6.25 -1.15L6.15 -0.95L5.65 -0.6L5.3 -0.45L4.9 -0.3L4.05 -0.2L4 -0.2L3.15 -0.3Q2.9 -0.4 2.75 -0.45L2.4 -0.6L1.95 -0.95L1.8 -1.15L1.75 -1.35L1.75 -1.45L1.75 -1.5Q1.8 -2 2.4 -2.3L3.25 -2.6L3.4 -2.6L3.5 -2.65L4 -2.7L4.3 -2.65L3.15 -1.15" />
<path style="fill:#1B302B;fill-opacity:1" d="M-4.15,-0.55L-4.2 -0.3L-4.2 -0.25L-4.35 0L-4.85 0.4L-5.15 0.55L-5.55 0.7L-6.4 0.85L-6.45 0.85L-7.3 0.7L-7.7 0.55L-8.05 0.4L-8.55 0L-8.65 -0.25L-8.7 -0.35L-8.7 -0.55L-8.7 -0.6L-8.7 -0.55L-8.55 -0.3L-8.1 0.05L-7.7 0.2L-7.35 0.3L-6.5 0.4L-6.4 0.4L-5.55 0.3L-5.2 0.2L-4.85 0.05L-4.35 -0.3L-4.2 -0.6L-4.15 -0.75L-4.15 -0.55M-3.35,5.4L-3.35 5.55L-3.4 5.7L-3.5 5.9L-3.85 6.25L-4.1 6.35L-4.4 6.45L-5 6.55L-5.05 6.55L-5.7 6.45L-6 6.35L-6.25 6.25L-6.6 5.9L-6.7 5.65L-6.7 5.55L-6.75 5.5L-6.75 5.4L-6.7 5.45L-6.7 5.55L-6.6 5.7L-6.3 5.95L-6 6.05L-5.7 6.1L-5.1 6.25L-5 6.25L-4.4 6.1L-4.15 6.05L-3.85 5.95L-3.5 5.7L-3.4 5.55L-3.4 5.5L-3.35 5.4M1.75,-1.35L1.8 -1.15L1.95 -0.95L2.4 -0.6L2.75 -0.45Q2.9 -0.4 3.15 -0.3L4 -0.2L4.05 -0.2L4.9 -0.3L5.3 -0.45L5.65 -0.6L6.15 -0.95L6.25 -1.15L6.3 -1.25L6.3 -1.15L6.3 -1L6.25 -0.85L6.1 -0.6L5.6 -0.2L5.3 0L4.9 0.1L4.05 0.2L4 0.2L3.15 0.1L2.7 0L2.4 -0.2L1.9 -0.6L1.75 -0.9L1.7 -1.15L1.7 -1.3L1.75 -1.45L1.75 -1.35" />
<path style="fill:none;stroke-width:1;stroke-linecap:round;stroke-linejoin:round;stroke-miterlimit:3;stroke:#563529;stroke-opacity:1" d="M17.5,-12.5L17.5 12.5L-17.5 12.5L-17.5 -12.5L17.5 -12.5z" />
</g>
</svg>
