<?xml version="1.0" encoding="utf-8"?>
<svg version="1.1" id="Layer_1"
xmlns="http://www.w3.org/2000/svg"
xmlns:xlink="http://www.w3.org/1999/xlink"
xmlns:author="http://www.sothink.com"
width="17px" height="17px"
xml:space="preserve">
<g id="230" transform="matrix(1, 0, 0, 1, 297.55, 198.2)">
<path style="fill:#FFFFFF;fill-opacity:1" d="M-285.75,-195.7L-287.95 -188.9L-293.35 -184.5L-291.15 -191.35L-285.75 -195.7" />
<path style="fill:none;stroke-width:0.5;stroke-linecap:round;stroke-linejoin:round;stroke-miterlimit:3;stroke:#FFFFFF;stroke-opacity:1" d="M-281.4,-189.85L-281.55 -188.25Q-282.05 -186 -283.75 -184.3Q-286.1 -181.95 -289.35 -181.9L-289.6 -181.9Q-292.75 -182.05 -294.95 -184.3Q-296.7 -186.05 -297.15 -188.3L-297.3 -189.9L-297.3 -189.95L-297.3 -190L-297.3 -190.05L-297.25 -190.45L-297.05 -191.9Q-296.6 -194 -294.95 -195.6Q-292.7 -197.9 -289.55 -197.95L-289.35 -197.95Q-286.1 -197.95 -283.75 -195.6Q-282.15 -193.95 -281.6 -191.85L-281.4 -190.35L-281.4 -189.95L-281.4 -189.85L-282.6 -189.85M-289.55,-196.25L-289.55 -197.95M-285.75,-195.7L-287.95 -188.9L-293.35 -184.5L-291.15 -191.35L-285.75 -195.7M-297.3,-190.05L-295.9 -190.05M-289.6,-183.45L-289.6 -181.9" />
</g>
</svg>
