<?xml version="1.0" encoding="utf-8"?>
<svg version="1.1" id="Layer_1"
xmlns="http://www.w3.org/2000/svg"
xmlns:xlink="http://www.w3.org/1999/xlink"
xmlns:author="http://www.sothink.com"
width="58px" height="31px"
xml:space="preserve">
<g id="206" transform="matrix(1, 0, 0, 1, 29.05, 15.5)">
<linearGradient
id="LinearGradID_694" gradientUnits="userSpaceOnUse" gradientTransform="matrix(-7.62939e-005, 0.0183563, -0.0183105, -6.10352e-005, 0.25, 0)" spreadMethod ="pad" x1="-819.2" y1="0" x2="819.2" y2="0" >
<stop  offset="0" style="stop-color:#9DD6DD;stop-opacity:1" />
<stop  offset="1" style="stop-color:#DBE6BE;stop-opacity:1" />
</linearGradient>
<path style="fill:url(#LinearGradID_694) " d="M28.05,-15L28.3 -15L28.55 -15L28.55 15L28.3 15L28.05 15L28.05 -15" />
<path style="fill:#9DD6DD;fill-opacity:1" d="M0.3,-5.1Q-1 -5.1 -1.75 -4.45Q-2.55 -3.75 -2.55 -2.9L-2.25 -2Q-2 -1.7 -1.65 -1.7Q-1.4 -1.7 -1.25 -1.85L-1.05 -2.35L-1.3 -2.95L-1.5 -3.65L-1.1 -4.35L-0.05 -4.65Q0.7 -4.65 1.25 -4.1Q1.75 -3.5 1.75 -2.55L1.65 -1.6L1 -0.25Q0.4 0.85 0.25 1.5Q0.05 2.15 0 3.1L0.3 3.1Q0.35 2.15 0.6 1.65L2 -0.15L2.95 -1.55L3.2 -2.7Q3.2 -3.5 2.65 -4.2Q1.9 -5.1 0.3 -5.1M-0.7,4.9L-0.4 5.5L0.2 5.75L0.8 5.5L1.05 4.9L0.8 4.3L0.2 4.05Q-0.15 4.05 -0.4 4.3L-0.7 4.9M24.8,11.5L24.8 11.55L-25.5 11.55L-25.5 11.5L-25.5 -12.2L24.8 -12.2L24.8 11.5" />
<path style="fill:#42AEBD;fill-opacity:1" d="M24.8,-12.2L-25.5 -12.2L-25.5 11.5L-28.45 11.5L-28.45 -14.95L24.85 -14.95L24.85 11.5L24.8 11.5L24.8 -12.2" />
<path style="fill:#D3ECEF;fill-opacity:0.6" d="M28.05,15L-28.55 15L-28.55 -15L28.05 -15L28.05 15M-25.5,11.55L24.8 11.55L24.8 11.5L24.85 11.5L24.85 -14.95L-28.45 -14.95L-28.45 11.5L-25.5 11.5L-25.5 11.55" />
<path style="fill:#FF9900;fill-opacity:1" d="M2.65,-4.2Q3.2 -3.5 3.2 -2.7L2.95 -1.55L2 -0.15L0.6 1.65Q0.35 2.15 0.3 3.1L0 3.1Q0.05 2.15 0.25 1.5Q0.4 0.85 1 -0.25L1.65 -1.6L1.75 -2.55Q1.75 -3.5 1.25 -4.1Q0.7 -4.65 -0.05 -4.65L-1.1 -4.35L-1.5 -3.65L-1.3 -2.95L-1.05 -2.35L-1.25 -1.85Q-1.4 -1.7 -1.65 -1.7Q-2 -1.7 -2.25 -2L-2.55 -2.9Q-2.55 -3.75 -1.75 -4.45Q-1 -5.1 0.3 -5.1Q1.9 -5.1 2.65 -4.2M-0.4,4.3Q-0.15 4.05 0.2 4.05L0.8 4.3L1.05 4.9L0.8 5.5L0.2 5.75L-0.4 5.5L-0.7 4.9L-0.4 4.3" />
<path style="fill:none;stroke-width:1;stroke-linecap:round;stroke-linejoin:round;stroke-miterlimit:3;stroke:#FFFFFF;stroke-opacity:1" d="M28.3,15L28.05 15L-28.55 15L-28.55 -15L28.05 -15L28.3 -15M28.05,15L28.05 -15" />
<path style="fill:none;stroke-width:0.5;stroke-linecap:round;stroke-linejoin:round;stroke-miterlimit:3;stroke:#FF9900;stroke-opacity:1" d="M9.05,9.1L-8.35 9.1L-8.35 -8.3L9.05 -8.3L9.05 9.1z" />
</g>
</svg>
