<?xml version="1.0" encoding="utf-8"?>
<svg version="1.1" id="Layer_1"
xmlns="http://www.w3.org/2000/svg"
xmlns:xlink="http://www.w3.org/1999/xlink"
xmlns:author="http://www.sothink.com"
width="36px" height="26px"
xml:space="preserve">
<g id="238" transform="matrix(1, 0, 0, 1, 18, 13)">
<path style="fill:#DBE6BE;fill-opacity:1" d="M-1.95,-6.75L-9.45 4.8L-9.35 4.85L-9.35 4.8L-3.85 8L-0.95 -2.4L-0.9 -2.4L-0.95 -2.35L-3.5 6.95Q-2.75 7.1 -0.95 8.25L-0.95 8.2L5.9 10.85L6.05 10.8L6 10.65L9.45 -2.4L3.35 -10.9L-1.95 -6.75M-0.95,-2.75L-0.9 -2.65L-0.95 -2.55L-0.95 -2.65L-1 -2.55L-1 -2.65L-0.95 -2.75M17.5,12.5L-17.5 12.5L-17.5 -12.5L17.5 -12.5L17.5 12.5M-0.8,8.5L-0.8 8.55L-0.8 8.5" />
<path style="fill:#000000;fill-opacity:1" d="M-0.9,-2.2L-0.95 8.2L-0.95 8.25Q-2.75 7.1 -3.5 6.95L-0.95 -2.35L-0.9 -2.2M-9.4,4.8L-1 -2.65L-1 -2.55L-9.35 4.8L-9.35 4.85L-9.45 4.8L-9.4 4.8M-9.35,4.8L-9.4 4.8L-9.35 4.8" />
<path style="fill:#F38601;fill-opacity:1" d="M-1,-2.55L-0.95 -2.65L-0.95 -2.55L-0.95 -2.5L-0.9 -2.45L-0.95 -2.4L-3.85 8L-9.35 4.8L-1 -2.55M-9.4,4.8L-9.35 4.8L-9.4 4.8" />
<path style="fill:#FF9900;fill-opacity:1" d="M-0.95,-2.35L-0.9 -2.4L-0.95 -2.4L-0.9 -2.45L-0.95 -2.5L-0.95 -2.55L-0.9 -2.65L3.35 -10.9L9.45 -2.4L6 10.65L-0.9 -2.25L-0.9 -2.2L-0.95 -2.35" />
<path style="fill:#FECB8F;fill-opacity:1" d="M-9.45,4.8L-1.95 -6.75L3.35 -10.9L-0.9 -2.65L-0.95 -2.75L-1 -2.65L-9.4 4.8L-9.45 4.8" />
<path style="fill:#D87701;fill-opacity:1" d="M-0.9,-2.2L-0.9 -2.25L6 10.65L6.05 10.8L5.9 10.85L-0.95 8.2L-0.9 -2.2" />
<path style="fill:none;stroke-width:1;stroke-linecap:round;stroke-linejoin:round;stroke-miterlimit:3;stroke:#563529;stroke-opacity:1" d="M17.5,12.5L-17.5 12.5L-17.5 -12.5L17.5 -12.5L17.5 12.5z" />
</g>
</svg>
