<?xml version="1.0" encoding="utf-8"?>
<svg version="1.1" id="Layer_1"
xmlns="http://www.w3.org/2000/svg"
xmlns:xlink="http://www.w3.org/1999/xlink"
xmlns:author="http://www.sothink.com"
width="94px" height="8px"
xml:space="preserve">
<g id="38" transform="matrix(1, 0, 0, 1, -1.05, -0.75)">
<path style="fill:#D4D0D8;fill-opacity:1" d="M94.7,5.7L20.4 5.7L20.4 5.75L11.95 5.75L11.95 4.85L11.95 3.8L11.95 4.7L94.7 4.7L94.7 5.7M7.2,2.65Q6.3 1.75 5.05 1.75Q3.8 1.75 2.95 2.65Q2.05 3.5 2.05 4.75Q2.05 6 2.95 6.9Q3.8 7.75 5.05 7.75Q6.3 7.75 7.15 6.9Q8.05 6 8.05 4.75Q8.05 3.6 7.2 2.65M7.05,4.75Q7.05 5.6 6.45 6.15Q5.9 6.75 5.05 6.75Q4.25 6.75 3.65 6.15Q3.05 5.6 3.05 4.75Q3.05 3.95 3.65 3.35Q4.25 2.75 5.05 2.75Q5.9 2.75 6.45 3.35Q7.05 3.95 7.05 4.75M9.05,4.75Q9.05 6.45 7.9 7.6Q6.7 8.75 5.05 8.75Q3.3 8.75 2.25 7.6Q1.05 6.5 1.05 4.75Q1.05 3.1 2.25 1.95Q3.4 0.75 5.05 0.75Q6.6 0.75 7.9 1.95Q9.05 3.2 9.05 4.75" />
</g>
</svg>
