<?xml version="1.0" encoding="utf-8"?>
<svg version="1.1" id="Layer_1"
xmlns="http://www.w3.org/2000/svg"
xmlns:xlink="http://www.w3.org/1999/xlink"
xmlns:author="http://www.sothink.com"
width="35px" height="25px"
xml:space="preserve">
<g id="163" transform="matrix(1, 0, 0, 1, 17.2, 12.5)">
<path style="fill:#563529;fill-opacity:1" d="M16.8,-12.5L16.8 -12.45L16.8 12.5L-17.2 12.5L-17.2 -12.45L14.8 -12.45L14.8 -12.5L16.8 -12.5M14.8,-10.6L-15.35 -10.6L-15.35 10.5L14.8 10.5L14.8 -10.6" />
<path style="fill:#DBE6BE;fill-opacity:1" d="M14.8,10.5L-15.35 10.5L-15.35 -10.6L14.8 -10.6L14.8 10.5" />
<path style="fill:#4E6C33;fill-opacity:1" d="M17.15,-12.5L17.15 -12.45L16.8 -12.45L16.8 -12.5L17.15 -12.5" />
<path style="fill:#977859;fill-opacity:1" d="M-17.2,-12.5L14.8 -12.5L14.8 -12.45L-17.2 -12.45L-17.2 -12.5" />
<path style="fill:#C4AF9B;fill-opacity:1" d="M3.55,-3.8L1.95 -5.4L1.95 -5.85L1.95 -6.6L2 -6.6L3.55 -5.2L3.55 -3.8M7.4,-5.4L7.3 -1.15L5.8 -2.55L5.8 -4.9L5.8 -5.6L5.8 -6.8L7.35 -5.4L7.4 -5.4" />
<path style="fill:#A58769;fill-opacity:1" d="M5.2,-6.2L5.35 -6.05L5.2 -6L3.65 -5.15L3.55 -5.2L2 -6.6L1.7 -6.85L3.45 -7.5L3.5 -7.55L5.15 -6.25L5.2 -6.2M7.35,-5.4L5.8 -6.8L7.4 -7.4L8.9 -6.3L7.35 -5.4" />
<path style="fill:#E0D6CD;fill-opacity:1" d="M5.2,-5.4L5.2 -4.75L3.55 -3.8L3.55 -5.2L3.65 -5.15L5.2 -6L5.2 -5.4M5.2,-6.2L5.15 -6.25L5.2 -6.25L5.2 -6.2M8.85,-2.55L8.85 -2.05L7.3 -1.15L7.4 -5.4L7.35 -5.4L8.9 -6.3L8.85 -3.25L8.85 -2.55" />
<path style="fill:#C5C5C5;fill-opacity:1" d="M8.85,-2.55L8.85 -3.25L10.15 -2.25L9.6 -1.95L8.85 -2.55M-10.6,-1.15L-10.65 -1.25L-10.75 -2.25L-10.55 -2L-10 -1.3L-6.8 2.6L-6.7 3.6L-10.55 -1.1L-10.6 -1.15M5.2,-6L5.3 -6L5.8 -5.6L5.8 -4.9L5.2 -5.4L5.2 -6" />
<path style="fill:#ECECEC;fill-opacity:1" d="M-10.55,-2L1.95 -6.6L1.95 -5.85L0.1 -5.15L-5.85 -2.9L-6.05 -2.85L-6.05 -2.8L-10 -1.3L-10.55 -2M-4.45,5.55L-3.4 5L-1.9 4.2L-1.35 3.9L9.6 -1.95L10.15 -2.25L10.1 -1.45L-4.4 6.5L-4.4 6.4L-4.45 5.55M-10.55,-1.1L-10.6 -1.05L-10.6 -1.15L-10.55 -1.1" />
<path style="fill:#715944;fill-opacity:1" d="M-1.2,3.3L-1.2 3.15Q-1.2 2.5 -1.9 2.1Q-2.3 1.85 -2.75 1.75L-3.6 1.65L-4.3 1.7L-4.3 1.65L-4.75 1.7L-4.7 1.75L-4.75 1.75L-4.8 1.8L-4.35 2.45L-4.75 1.95L-4.8 1.85Q-5.1 1.9 -5.3 2.1Q-6.05 2.5 -6.05 3.15L-6.05 3.2L-6 3.3L-6.05 3.25L-6.05 3.3Q-6.05 4 -5.3 4.5Q-4.65 4.95 -3.6 5L-3.4 5L-4.45 5.55L-4.4 6.4L-6.7 3.6L-6.8 2.6L-10 -1.3L-6.05 -2.8L-6.15 -2.75L-6.1 -2.7L-6.15 -2.7L-6.85 -2.35Q-7.8 -1.8 -7.8 -0.95L-7.8 -0.85L-7.75 -0.75L-7.75 -0.7L-7.8 -0.8L-7.8 -0.7Q-7.8 0.2 -6.85 0.9Q-5.9 1.55 -4.55 1.55Q-3.2 1.55 -2.25 0.9Q-1.3 0.2 -1.3 -0.7L-1.3 -0.95Q-1.3 -1.8 -2.25 -2.35Q-2.75 -2.7 -3.4 -2.85L-4.55 -2.95L-5.45 -2.9L-5.45 -2.95L-5.85 -2.9L0.1 -5.15L1.5 -4L0.1 -5.15L1.95 -5.85L1.95 -5.4L3.55 -3.8L5.2 -4.75L5.2 -5.4L5.8 -4.9L5.8 -2.55L7.3 -1.15L8.85 -2.05L8.85 -2.55L9.6 -1.95L-1.35 3.9L-1.2 3.3M4.7,-2.75L4 -3.1L3.9 -2.95L3.4 -2.25L4 -3.15L3.9 -3.25L3.35 -3.35L3.3 -3.35L3.3 -3.3L2.4 -3.35L1.25 -3.25Q0.6 -3.1 0.1 -2.75Q-0.85 -2.2 -0.85 -1.35L-0.85 -1.1Q-0.85 -0.2 0.1 0.45Q1.05 1.1 2.4 1.15Q3.75 1.1 4.7 0.45Q5.6 -0.2 5.65 -1.15L5.65 -1.2L5.6 -1.15L5.65 -1.25L5.65 -1.35Q5.6 -2.2 4.7 -2.75M0.05,-5L-0.4 -4.8L-0.5 -4.9L-0.5 -4.85L-1.2 -4.55L-1.3 -4.55L-1.25 -4.25L0.2 -2.95L1.55 -3.8L1.5 -4L0.05 -5M-1.7,-4.2L-1.7 -4.15L-2.2 -4L-2.3 -4.05L-3.15 -3.7L-3.15 -3.4L-1.55 -1.9L-0.05 -2.8L-0.1 -3L-0.15 -3L-1.7 -4.2M-1.65,-4.3L-0.1 -3L-1.6 -4.35L-1.65 -4.3M0,0.75L-0.05 0.8L-0.55 0.6L-1.95 1.6L-2 1.6L-2.05 1.8L-0.7 2.7L0.8 1.35L0.8 1.05L0 0.75" />
<path style="fill:#C8D1EC;fill-opacity:1" d="M5.65,-1.35Q5.6 -2.1 4.7 -2.6L3.9 -2.95L4 -3.1L4.7 -2.75Q5.6 -2.2 5.65 -1.35M-0.85,-1.35Q-0.85 -2.2 0.1 -2.75Q0.6 -3.1 1.25 -3.25L2.4 -3.35L3.3 -3.3L3.2 -3.1L2.4 -3.2L1.25 -3.05L0.1 -2.6Q-0.8 -2.1 -0.85 -1.35M-2.25,-2.2L-3.4 -2.65L-4.55 -2.8L-5.3 -2.7L-5.35 -2.75L-5.45 -2.9L-4.55 -2.95L-3.4 -2.85Q-2.75 -2.7 -2.25 -2.35Q-1.3 -1.8 -1.3 -0.95Q-1.35 -1.7 -2.25 -2.2M-6.85,-2.2Q-7.75 -1.7 -7.8 -0.95Q-7.8 -1.8 -6.85 -2.35L-6.15 -2.7L-6.05 -2.55L-6.85 -2.2M-4.75,1.95Q-5.05 2 -5.3 2.2Q-6 2.6 -6.05 3.15Q-6.05 2.5 -5.3 2.1Q-5.1 1.9 -4.8 1.85L-4.75 1.95M-4.3,1.7L-3.6 1.65L-2.75 1.75Q-2.3 1.85 -1.9 2.1Q-1.2 2.5 -1.2 3.15Q-1.25 2.6 -1.9 2.2Q-2.35 1.95 -2.75 1.85L-3.6 1.75L-4.2 1.8L-4.3 1.7" />
<path style="fill:#6B85CD;fill-opacity:1" d="M0.1,-2.6L1.25 -3.05L2.4 -3.2L3.2 -3.1L2.65 -2.4L2.45 -2.45L2.1 -2.4L2.05 -2.4L1.95 -2.35L1.4 -2.2L0.95 -1.65L0.95 -1.6L0.9 -1.5L0.9 -1.4L0.95 -1.25L0.95 -1.2L1.05 -1.05L1.35 -0.75L1.6 -0.65L1.85 -0.55L2.45 -0.5L2.5 -0.5L3.05 -0.55L3.3 -0.65L3.55 -0.75L3.85 -1.05L3.95 -1.2L4 -1.3L4 -1.4L4 -1.45L4 -1.5L4 -1.55L4 -1.65L3.55 -2.2L3.4 -2.25L3.9 -2.95L4.7 -2.6Q5.6 -2.1 5.65 -1.35L5.65 -1.25L5.6 -1.15L5.6 -0.95L5.55 -0.8L5.35 -0.5L4.7 0.05L4.2 0.3L3.65 0.45L2.45 0.6L2.35 0.6L1.15 0.45L0.6 0.3L0.1 0.05L-0.6 -0.5L-0.8 -0.85L-0.85 -1.1L-0.85 -1.35Q-0.8 -2.1 0.1 -2.6M-6.05,-2.55L-5.55 -1.85L-5.7 -1.75L-6.15 -1.2L-6.15 -1.15L-6.15 -1.05L-6.15 -1L-6.1 -0.85L-6.1 -0.8L-6 -0.65L-5.7 -0.35L-5.45 -0.25L-5.2 -0.15L-4.6 -0.05L-4.55 -0.05L-4 -0.15L-3.75 -0.25L-3.5 -0.35L-3.2 -0.65L-3.1 -0.8L-3.1 -0.85L-3.05 -1L-3.05 -1.15L-3.05 -1.2Q-3.1 -1.55 -3.5 -1.75L-4.05 -1.95L-4.15 -2L-4.25 -2L-4.6 -2L-4.8 -2L-5.3 -2.7L-4.55 -2.8L-3.4 -2.65L-2.25 -2.2Q-1.35 -1.7 -1.3 -0.95L-1.3 -0.7L-1.35 -0.45L-1.35 -0.4L-1.55 -0.1L-2.25 0.45L-2.75 0.7L-3.25 0.9L-4.5 1L-4.55 1L-5.8 0.9L-6.35 0.7L-6.85 0.45L-7.5 -0.1L-7.7 -0.4L-7.7 -0.55L-7.75 -0.7L-7.75 -0.75L-7.8 -0.85L-7.8 -0.95Q-7.75 -1.7 -6.85 -2.2L-6.05 -2.55M-4.2,1.8L-3.6 1.75L-2.75 1.85Q-2.35 1.95 -1.9 2.2Q-1.25 2.6 -1.2 3.15L-1.2 3.3L-1.25 3.5L-1.4 3.8L-1.9 4.2L-2.25 4.35L-2.65 4.5L-3.55 4.6L-3.65 4.6L-4.55 4.5L-4.95 4.35L-5.3 4.2L-5.8 3.8L-5.95 3.55L-6 3.45L-6 3.4L-6 3.3L-6.05 3.2L-6.05 3.15Q-6 2.6 -5.3 2.2Q-5.05 2 -4.75 1.95L-4.35 2.45L-4.5 2.55L-4.8 2.95L-4.8 3.05L-4.8 3.1L-4.8 3.2L-4.75 3.25L-4.7 3.35L-4.45 3.6L-4.3 3.65L-4.1 3.75L-3.65 3.8L-3.2 3.75L-3 3.65L-2.85 3.6L-2.6 3.35L-2.55 3.25L-2.55 3.2L-2.5 3.1L-2.5 3.05L-2.5 2.95L-2.85 2.55L-3.25 2.4L-3.35 2.35L-3.4 2.35L-3.65 2.35L-3.8 2.35L-4.2 1.8" />
<path style="fill:#498576;fill-opacity:1" d="M3.95,-1.4L3.9 -1.25L3.55 -1L3.35 -0.9L3.05 -0.85L2.5 -0.75L2.45 -0.75L1.85 -0.85L1.6 -0.9L1.4 -1L1.05 -1.25L0.95 -1.4L0.95 -1.55L0.95 -1.6L0.95 -1.65L1.4 -2.2L1.95 -2.35L2.05 -2.4L2.1 -2.4L2.45 -2.45L2.65 -2.4L1.85 -1.4L1.85 -1.25L2.55 -1.05L3.4 -2.25L3.55 -2.2L4 -1.65L4 -1.55L4 -1.5L4 -1.45L3.95 -1.4M-3.1,-1L-3.2 -0.85L-3.5 -0.6L-3.75 -0.5L-4 -0.4L-4.6 -0.35L-4.65 -0.35L-5.2 -0.4L-5.45 -0.5L-5.7 -0.6L-6 -0.85L-6.1 -1L-6.15 -1.05L-6.15 -1.15L-6.15 -1.2L-5.7 -1.75L-5.55 -1.85L-5.5 -1.85L-4.65 -0.65L-3.95 -0.85L-4 -1L-4.8 -2L-4.6 -2L-4.25 -2L-4.15 -2L-4.05 -1.95L-3.5 -1.75Q-3.1 -1.55 -3.05 -1.2L-3.05 -1.15L-3.1 -1M-4.8,3.05L-4.8 2.95L-4.5 2.55L-4.35 2.45L-3.7 3.35L-3.2 3.2L-3.2 3.1L-3.8 2.35L-3.65 2.35L-3.4 2.35L-3.35 2.35L-3.25 2.4L-2.85 2.55L-2.5 2.95L-2.5 3.05L-2.55 3.1L-2.6 3.2L-2.85 3.4L-3.05 3.45L-3.2 3.5L-3.65 3.6L-3.7 3.6L-4.1 3.5L-4.3 3.45L-4.5 3.4L-4.7 3.2L-4.8 3.1L-4.8 3.05" />
<path style="fill:#1B302B;fill-opacity:1" d="M0.95,-1.6L0.95 -1.55L0.95 -1.4L1.05 -1.25L1.4 -1L1.6 -0.9L1.85 -0.85L2.45 -0.75L2.5 -0.75L3.05 -0.85L3.35 -0.9L3.55 -1L3.9 -1.25L3.95 -1.4L4 -1.45L4 -1.4L4 -1.3L3.95 -1.2L3.85 -1.05L3.55 -0.75L3.3 -0.65L3.05 -0.55L2.5 -0.5L2.45 -0.5L1.85 -0.55L1.6 -0.65L1.35 -0.75L1.05 -1.05L0.95 -1.2L0.95 -1.25L0.9 -1.4L0.9 -1.5L0.95 -1.6M-6.15,-1.05L-6.1 -1L-6 -0.85L-5.7 -0.6L-5.45 -0.5L-5.2 -0.4L-4.65 -0.35L-4.6 -0.35L-4 -0.4L-3.75 -0.5L-3.5 -0.6L-3.2 -0.85L-3.1 -1L-3.05 -1.15L-3.05 -1L-3.1 -0.85L-3.1 -0.8L-3.2 -0.65L-3.5 -0.35L-3.75 -0.25L-4 -0.15L-4.55 -0.05L-4.6 -0.05L-5.2 -0.15L-5.45 -0.25L-5.7 -0.35L-6 -0.65L-6.1 -0.8L-6.1 -0.85L-6.15 -1L-6.15 -1.05M-4.8,3.1L-4.7 3.2L-4.5 3.4L-4.3 3.45L-4.1 3.5L-3.7 3.6L-3.65 3.6L-3.2 3.5L-3.05 3.45L-2.85 3.4L-2.6 3.2L-2.55 3.1L-2.5 3.05L-2.5 3.1L-2.55 3.2L-2.55 3.25L-2.6 3.35L-2.85 3.6L-3 3.65L-3.2 3.75L-3.65 3.8L-4.1 3.75L-4.3 3.65L-4.45 3.6L-4.7 3.35L-4.75 3.25L-4.8 3.2L-4.8 3.1L-4.8 3.05L-4.8 3.1" />
<path style="fill:#26386F;fill-opacity:1" d="M-1.35,3.9L-1.9 4.2L-3.4 5L-3.6 5Q-4.65 4.95 -5.3 4.5Q-6.05 4 -6.05 3.3L-6.05 3.25L-6 3.3L-6 3.4L-6 3.45L-5.95 3.55L-5.8 3.8L-5.3 4.2L-4.95 4.35L-4.55 4.5L-3.65 4.6L-3.55 4.6L-2.65 4.5L-2.25 4.35L-1.9 4.2L-1.4 3.8L-1.25 3.5L-1.2 3.3L-1.35 3.9M1.85,-1.4L2.65 -2.4L3.2 -3.1L3.3 -3.3L3.3 -3.35L3.35 -3.35L3.9 -3.25L2.5 -1.2L2.45 -1.3L1.85 -1.4M-0.8,-0.85L-0.6 -0.5L0.1 0.05L0.6 0.3L1.15 0.45L2.35 0.6L2.45 0.6L3.65 0.45L4.2 0.3L4.7 0.05L5.35 -0.5L5.55 -0.8L5.6 -0.95L5.6 -1.15L5.65 -1.2L5.65 -1.15Q5.6 -0.2 4.7 0.45Q3.75 1.1 2.4 1.15Q1.05 1.1 0.1 0.45Q-0.85 -0.2 -0.85 -1.1L-0.8 -0.85M-4.8,-2L-4 -1L-4.6 -0.85L-4.6 -0.8L-6.05 -2.8L-6.05 -2.85L-5.85 -2.9L-5.45 -2.95L-5.45 -2.9L-5.35 -2.75L-5.3 -2.7L-4.8 -2M-7.7,-0.55L-7.7 -0.4L-7.5 -0.1L-6.85 0.45L-6.35 0.7L-5.8 0.9L-4.55 1L-4.5 1L-3.25 0.9L-2.75 0.7L-2.25 0.45L-1.55 -0.1L-1.35 -0.4L-1.35 -0.45L-1.3 -0.7Q-1.3 0.2 -2.25 0.9Q-3.2 1.55 -4.55 1.55Q-5.9 1.55 -6.85 0.9Q-7.8 0.2 -7.8 -0.7L-7.8 -0.8L-7.75 -0.7L-7.7 -0.55M-4.3,1.7L-4.2 1.8L-3.8 2.35L-3.2 3.1L-3.65 3.2L-3.65 3.25L-4.7 1.75L-4.75 1.7L-4.3 1.65L-4.3 1.7" />
<path style="fill:#7B573E;fill-opacity:1" d="M0.25,-3.25L1.5 -4L1.55 -3.8L0.2 -2.95L-1.25 -4.25L-1.3 -4.55L0.25 -3.25M-1.55,-2.2L-0.15 -3L-0.1 -3L-0.05 -2.8L-1.55 -1.9L-3.15 -3.4L-3.15 -3.7L-1.55 -2.2M-0.75,2.35L0.8 1.05L0.8 1.35L-0.7 2.7L-2.05 1.8L-2 1.6L-1.95 1.6L-0.75 2.35" />
<path style="fill:#E0CEC2;fill-opacity:1" d="M1.5,-4L0.25 -3.25L-1.3 -4.55L-1.2 -4.55L-0.5 -4.85L-0.5 -4.9L-0.4 -4.8L0.05 -5L1.5 -4M-1.1,-4.45L-0.65 -4.65L-0.65 -4.7L0.65 -3.75L-0.6 -4.8L-1.2 -4.55L-1.1 -4.45M-0.15,-3L-1.55 -2.2L-3.15 -3.7L-2.3 -4.05L-2.2 -4L-1.7 -4.15L-1.7 -4.2L-0.15 -3M-1.05,-2.8L-2.4 -3.95L-2.4 -4L-2.45 -3.95L-3.1 -3.7L-3 -3.6L-2.45 -3.85L-1.05 -2.8M0.8,1.05L-0.75 2.35L-1.95 1.6L-0.55 0.6L-0.05 0.8L0 0.75L0.8 1.05M0.75,1.05L0.15 0.8L0.1 0.8L-1.15 1.85L0.15 0.95L0.65 1.15L0.75 1.05" />
<path style="fill:#BF9E7F;fill-opacity:1" d="M1.5,-4L0.1 -5.15L1.5 -4M-1.6,-4.35L-0.1 -3L-1.65 -4.3L-1.6 -4.35" />
<path style="fill:#563529;fill-opacity:1" d="M-1.2,-4.55L-0.6 -4.8L0.65 -3.75L-0.65 -4.7L-0.65 -4.65L-1.1 -4.45L-1.2 -4.55M-2.45,-3.85L-3 -3.6L-3.1 -3.7L-2.45 -3.95L-2.4 -4L-2.4 -3.95L-1.05 -2.8L-2.45 -3.85M0.65,1.15L0.15 0.95L-1.15 1.85L0.1 0.8L0.15 0.8L0.75 1.05L0.65 1.15" />
<path style="fill:#D0D8EE;fill-opacity:1" d="M2.45,-1.3L2.5 -1.2L3.9 -3.25L4 -3.15L3.4 -2.25L2.55 -1.05L1.85 -1.25L1.85 -1.4L2.45 -1.3M-4.6,-0.8L-4.6 -0.85L-4 -1L-3.95 -0.85L-4.65 -0.65L-5.5 -1.85L-6.1 -2.7L-6.15 -2.75L-6.05 -2.8L-4.6 -0.8M-4.8,1.8L-4.75 1.75L-4.7 1.75L-3.65 3.25L-3.65 3.2L-3.2 3.1L-3.2 3.2L-3.7 3.35L-4.35 2.45L-4.8 1.8" />
</g>
</svg>
