<?xml version="1.0" encoding="utf-8"?>
<svg version="1.1" id="Layer_1"
xmlns="http://www.w3.org/2000/svg"
xmlns:xlink="http://www.w3.org/1999/xlink"
xmlns:author="http://www.sothink.com"
width="36px" height="26px"
xml:space="preserve">
<g id="182" transform="matrix(1, 0, 0, 1, 18, 13)">
<path style="fill:#DBE6BE;fill-opacity:1" d="M-7.4,8Q-4.25 11.15 0.2 11.15Q4.6 11.15 7.7 8Q10.9 4.85 10.9 0.45L10.85 -0.8Q10.65 -4.95 7.65 -7.95Q4.55 -11.1 0.15 -11.05Q-4.3 -11.1 -7.45 -7.95Q-10.6 -4.8 -10.6 -0.35L-10.5 0.9Q-10.35 5.05 -7.4 8M-17.5,-12.5L17.5 -12.5L17.5 12.5L-17.5 12.5L-17.5 -12.5" />
<path style="fill:#046B81;fill-opacity:1" d="M10.85,-0.35Q10.85 4.1 7.65 7.2Q4.55 10.35 0.15 10.35Q-4.3 10.35 -7.45 7.2Q-10.15 4.55 -10.5 0.9L-10.6 -0.35Q-10.6 -4.8 -7.45 -7.95Q-4.3 -11.1 0.15 -11.05Q4.55 -11.1 7.65 -7.95Q10.65 -4.95 10.85 -0.8L10.85 -0.35M6.4,5.55Q3.8 8.2 0.1 8.2Q-3.6 8.2 -6.3 5.55Q-8.75 3.1 -8.9 -0.35L-8.9 -0.55L-8.9 -0.8Q-8.95 -4.55 -6.3 -7.2Q-3.6 -9.85 0.1 -9.8Q3.8 -9.85 6.4 -7.2Q9.1 -4.55 9.15 -0.8L9.15 -0.55Q9 3 6.4 5.55M2.9,-3.75L3.4 -3.4Q3.9 -2.9 3.9 -2.2L3.9 -2L3.4 -1.1Q2.95 -0.6 2.3 -0.55L1.6 -0.7L1.25 -0.3L0.85 0L0.85 0.45L0.85 5.3L-0.15 5.3L-0.15 0.65L-0.15 0.2L-0.85 -0.1L-1.8 0.2Q-2.45 0.2 -2.95 -0.3Q-3.35 -0.65 -3.4 -1.2L-3.4 -1.4Q-3.45 -2.1 -2.95 -2.6L-2.65 -2.85L-2.55 -2.9L-2.65 -3.1L-2.65 -3.35L-2.2 -4.5L-1.5 -4.9L-1.45 -4.9L-1.5 -5L-1.5 -5.25Q-1.55 -5.95 -1.05 -6.45L0.15 -6.9Q0.8 -6.9 1.25 -6.45L1.7 -5.7Q2.1 -5.6 2.4 -5.3Q2.9 -4.8 2.9 -4.1L2.85 -3.95L2.85 -3.75L2.9 -3.75M-5.5,4.75Q-3.2 7.1 0.1 7.1Q3.3 7.1 5.6 4.75Q7.85 2.55 7.95 -0.55L7.95 -0.8Q7.95 -4.1 5.6 -6.45Q3.3 -8.7 0.1 -8.7Q-3.2 -8.7 -5.5 -6.45Q-7.85 -4.1 -7.8 -0.8L-7.8 -0.55Q-7.75 2.55 -5.5 4.75M-9.4,-0.35Q-9.45 3.6 -6.65 6.4Q-3.8 9.25 0.15 9.25Q4.1 9.25 6.85 6.4Q9.7 3.6 9.75 -0.35Q9.7 -4.35 6.85 -7.15Q4.1 -9.95 0.15 -9.95Q-3.8 -9.95 -6.65 -7.15Q-9.45 -4.35 -9.4 -0.35" />
<path style="fill:#2B2231;fill-opacity:1" d="M10.85,-0.8L10.9 0.45Q10.9 4.85 7.7 8Q4.6 11.15 0.2 11.15Q-4.25 11.15 -7.4 8Q-10.35 5.05 -10.5 0.9Q-10.15 4.55 -7.45 7.2Q-4.3 10.35 0.15 10.35Q4.55 10.35 7.65 7.2Q10.85 4.1 10.85 -0.35L10.85 -0.8M9.15,-0.55L9.15 -0.35Q9.1 3.4 6.4 6Q3.8 8.65 0.1 8.65Q-3.6 8.65 -6.3 6Q-8.95 3.4 -8.9 -0.35Q-8.75 3.1 -6.3 5.55Q-3.6 8.2 0.1 8.2Q3.8 8.2 6.4 5.55Q9 3 9.15 -0.55M2.85,-3.75L2.85 -3.95L2.9 -3.75L2.85 -3.75M0.85,0L1.25 -0.3L1.6 -0.7L2.3 -0.55Q2.95 -0.6 3.4 -1.1L3.9 -2L3.9 -1.75Q3.9 -1.1 3.4 -0.65Q2.95 -0.15 2.3 -0.1L1.6 -0.25L1.25 0.15L0.85 0.45L0.85 0M0.85,5.3L0.85 5.75L-0.15 5.75L-0.15 5.3L0.85 5.3M-2.95,-0.3Q-2.45 0.2 -1.8 0.2L-0.85 -0.1L-0.15 0.2L-0.15 0.65L-0.85 0.35L-1.8 0.65Q-2.45 0.65 -2.95 0.15Q-3.45 -0.3 -3.4 -0.95L-3.4 -1.2Q-3.35 -0.65 -2.95 -0.3M-2.55,-2.9L-2.65 -2.85L-2.65 -2.9L-2.65 -3.1L-2.55 -2.9M-1.5,-4.9L-1.5 -5L-1.45 -4.9L-1.5 -4.9M5.6,-6Q3.3 -8.25 0.1 -8.25Q-3.2 -8.25 -5.5 -6Q-7.75 -3.75 -7.8 -0.55L-7.8 -0.8Q-7.85 -4.1 -5.5 -6.45Q-3.2 -8.7 0.1 -8.7Q3.3 -8.7 5.6 -6.45Q7.95 -4.1 7.95 -0.8L7.95 -0.55Q7.85 -3.75 5.6 -6" />
<path style="fill:#9DD6DD;fill-opacity:1" d="M-6.3,6Q-3.6 8.65 0.1 8.65Q3.8 8.65 6.4 6Q9.1 3.4 9.15 -0.35L9.15 -0.55L9.15 -0.8Q9.1 -4.55 6.4 -7.2Q3.8 -9.85 0.1 -9.8Q-3.6 -9.85 -6.3 -7.2Q-8.95 -4.55 -8.9 -0.8L-8.9 -0.55L-8.9 -0.35Q-8.95 3.4 -6.3 6M-1.5,-4.9L-2.2 -4.5L-2.65 -3.35L-2.65 -3.1L-2.65 -2.9L-2.65 -2.85L-2.95 -2.6Q-3.45 -2.1 -3.4 -1.4L-3.4 -1.2L-3.4 -0.95Q-3.45 -0.3 -2.95 0.15Q-2.45 0.65 -1.8 0.65L-0.85 0.35L-0.15 0.65L-0.15 5.3L-0.15 5.75L0.85 5.75L0.85 5.3L0.85 0.45L1.25 0.15L1.6 -0.25L2.3 -0.1Q2.95 -0.15 3.4 -0.65Q3.9 -1.1 3.9 -1.75L3.9 -2L3.9 -2.2Q3.9 -2.9 3.4 -3.4L2.9 -3.75L2.85 -3.95L2.9 -4.1Q2.9 -4.8 2.4 -5.3Q2.1 -5.6 1.7 -5.7L1.25 -6.45Q0.8 -6.9 0.15 -6.9L-1.05 -6.45Q-1.55 -5.95 -1.5 -5.25L-1.5 -5L-1.5 -4.9M-7.8,-0.55Q-7.75 -3.75 -5.5 -6Q-3.2 -8.25 0.1 -8.25Q3.3 -8.25 5.6 -6Q7.85 -3.75 7.95 -0.55Q7.85 2.55 5.6 4.75Q3.3 7.1 0.1 7.1Q-3.2 7.1 -5.5 4.75Q-7.75 2.55 -7.8 -0.55M-6.65,-7.15Q-3.8 -9.95 0.15 -9.95Q4.1 -9.95 6.85 -7.15Q9.7 -4.35 9.75 -0.35Q9.7 3.6 6.85 6.4Q4.1 9.25 0.15 9.25Q-3.8 9.25 -6.65 6.4Q-9.45 3.6 -9.4 -0.35Q-9.45 -4.35 -6.65 -7.15" />
<path style="fill:none;stroke-width:1;stroke-linecap:round;stroke-linejoin:round;stroke-miterlimit:3;stroke:#563529;stroke-opacity:1" d="M-17.5,-12.5L17.5 -12.5L17.5 12.5L-17.5 12.5L-17.5 -12.5z" />
</g>
</svg>
