<?xml version="1.0" encoding="utf-8"?>
<svg version="1.1" id="Layer_1"
xmlns="http://www.w3.org/2000/svg"
xmlns:xlink="http://www.w3.org/1999/xlink"
xmlns:author="http://www.sothink.com"
width="26px" height="25px"
xml:space="preserve">
<g id="154" transform="matrix(1, 0, 0, 1, 12.55, 12.5)">
<path style="fill:#977859;fill-opacity:1" d="M12.5,-12.5L12.6 -12.5L12.6 9.5L12.55 9.5L12.55 -12.45L12.5 -12.45L12.5 -12.5M9.5,-12.45L-9.45 -12.45L-9.45 -12.5L9.5 -12.5L9.5 -12.45" />
<path style="fill:#D1EAED;fill-opacity:1" d="M9.5,-12.5L12.5 -12.5L12.5 -12.45L12.5 12.5L-12.55 12.5L-12.55 9.55L-9.85 9.55L-9.75 9.55L-9.75 9.5L9.5 9.5L9.5 -9.85L9.6 -9.85L9.6 -12.45L9.5 -12.45L9.5 -12.5" />
<path style="fill:#42AEBD;fill-opacity:1" d="M-9.85,9.55L-12.55 9.55L-12.55 -12.45L-9.45 -12.45L9.5 -12.45L9.5 -9.85L-9.85 -9.85L-9.85 9.55" />
<path style="fill:#BADCD9;fill-opacity:0.6" d="M-9.85,-9.85L9.5 -9.85L9.5 9.5L-9.75 9.5L-9.75 9.55L-9.85 9.55L-9.85 -9.85" />
<path style="fill:none;stroke-width:2;stroke-linecap:round;stroke-linejoin:round;stroke-miterlimit:3;stroke:#FF9900;stroke-opacity:1" d="M7.75,2.25L2.1 2.25L2.1 7.9M2.1,-3.35L2.1 2.25L-3.5 2.25" />
</g>
</svg>
