<?xml version="1.0" encoding="utf-8"?>
<svg version="1.1" id="Layer_1"
xmlns="http://www.w3.org/2000/svg"
xmlns:xlink="http://www.w3.org/1999/xlink"
xmlns:author="http://www.sothink.com"
width="115px" height="61px"
xml:space="preserve">
<g id="227" transform="matrix(1, 0, 0, 1, 57.1, 30.5)">
<linearGradient
id="LinearGradID_715" gradientUnits="userSpaceOnUse" gradientTransform="matrix(0.0613708, 0, 0, 0.0289917, -0.25, -0.7)" spreadMethod ="pad" x1="-819.2" y1="0" x2="819.2" y2="0" >
<stop  offset="0" style="stop-color:#D5DAF1;stop-opacity:0.6" />
<stop  offset="1" style="stop-color:#8E9DCA;stop-opacity:0.6" />
</linearGradient>
<path style="fill:url(#LinearGradID_715) " d="M-15.15,16.35L-17.15 16.35L-17.15 16.3L-15.15 16.3L-15.15 16.35M-17.15,-17.95L-17.15 -18L-16.15 -18L-16.15 -17.95L-17.15 -17.95" />
<path style="fill:#374777;fill-opacity:1" d="M56.15,-30L56.55 -30L56.55 30L56.15 30L56.15 -30" />
<path style="fill:#9DD6DD;fill-opacity:0.6" d="M-15.15,16.3L-17.15 16.3L-17.15 16.35L-15.15 16.35L-15.15 16.3M-16.15,-17.95L-16.15 -18L-17.15 -18L-17.15 -17.95L-16.15 -17.95M-5.6,5.25Q-5.05 5.85 -5.05 6.95L-5.2 7.95L-5.85 9.4L-6.7 11.35L-6.95 13.05L-6.6 13.05L-6.25 11.5L-4.8 9.55L-3.75 8.05L-3.5 6.8Q-3.5 5.9 -4.1 5.15Q-4.9 4.15 -6.6 4.15Q-8 4.15 -8.8 4.85Q-9.65 5.6 -9.65 6.55L-9.35 7.5Q-9.05 7.85 -8.7 7.85L-8.25 7.65L-8.05 7.15L-8.3 6.45L-8.55 5.7Q-8.55 5.3 -8.15 4.95Q-7.7 4.6 -7 4.6Q-6.15 4.6 -5.6 5.25M-6.7,14.1Q-7.1 14.1 -7.35 14.4L-7.65 15.05L-7.35 15.7L-6.7 16L-6.05 15.7Q-5.8 15.45 -5.8 15.05Q-5.8 14.65 -6.05 14.4Q-6.35 14.1 -6.7 14.1M50.05,23L50.05 23.05L-50.5 23.05L-50.5 23L-50.5 -24.4L50.05 -24.4L50.05 23" />
<path style="fill:#D1EAED;fill-opacity:1" d="M56.15,30L-56.6 30L-56.6 -30L56.15 -30L56.15 30M-50.5,23.05L50.05 23.05L50.05 23L50.1 23L50.1 -29.95L-56.45 -29.95L-56.45 23L-50.5 23L-50.5 23.05" />
<path style="fill:#42AEBD;fill-opacity:1" d="M50.05,-24.4L-50.5 -24.4L-50.5 23L-56.45 23L-56.45 -29.95L50.1 -29.95L50.1 23L50.05 23L50.05 -24.4" />
<path style="fill:#FF9900;fill-opacity:1" d="M-7,4.6Q-7.7 4.6 -8.15 4.95Q-8.55 5.3 -8.55 5.7L-8.3 6.45L-8.05 7.15L-8.25 7.65L-8.7 7.85Q-9.05 7.85 -9.35 7.5L-9.65 6.55Q-9.65 5.6 -8.8 4.85Q-8 4.15 -6.6 4.15Q-4.9 4.15 -4.1 5.15Q-3.5 5.9 -3.5 6.8L-3.75 8.05L-4.8 9.55L-6.25 11.5L-6.6 13.05L-6.95 13.05L-6.7 11.35L-5.85 9.4L-5.2 7.95L-5.05 6.95Q-5.05 5.85 -5.6 5.25Q-6.15 4.6 -7 4.6M-6.05,14.4Q-5.8 14.65 -5.8 15.05Q-5.8 15.45 -6.05 15.7L-6.7 16L-7.35 15.7L-7.65 15.05L-7.35 14.4Q-7.1 14.1 -6.7 14.1Q-6.35 14.1 -6.05 14.4" />
<path style="fill:none;stroke-width:1;stroke-linecap:round;stroke-linejoin:round;stroke-miterlimit:3;stroke:#FFFFFF;stroke-opacity:1" d="M56.55,30L56.15 30L-56.6 30L-56.6 -30L56.15 -30L56.15 30" />
<path style="fill:none;stroke-width:0.5;stroke-linecap:round;stroke-linejoin:round;stroke-miterlimit:3;stroke:#FF9900;stroke-opacity:1" d="M2,-15.95L-6.55 -15.95L-6.55 -7.4L2 -7.4L2 -15.95L10.55 -15.95L19.1 -15.95L19.1 -7.4L19.1 1.15L19.1 9.7L19.1 18.3L10.55 18.3L2 18.3L-15.15 18.3L-15.15 16.35M-15.15,16.3L-15.15 1.15L-15.15 -7.4L-15.15 -15.95L-6.55 -15.95M10.55,-15.95L10.55 -7.4L19.1 -7.4M2,1.15L2 -7.4L10.55 -7.4L10.55 1.15L19.1 1.15M-15.15,1.15L-6.55 1.15L-6.55 -7.4L-15.15 -7.4M-15.15,16.3L-15.15 16.35M10.55,1.15L2 1.15L2 9.7L10.55 9.7L10.55 1.15M19.1,9.7L10.55 9.7L10.55 18.3M2,18.3L2 9.7M2,1.15L-6.55 1.15" />
</g>
</svg>
