<?xml version="1.0" encoding="utf-8"?>
<svg version="1.1" id="Layer_1"
xmlns="http://www.w3.org/2000/svg"
xmlns:xlink="http://www.w3.org/1999/xlink"
xmlns:author="http://www.sothink.com"
width="100px" height="80px"
xml:space="preserve">
<g id="171" transform="matrix(1, 0, 0, 1, 270, 90)">
<path style="fill:#563529;fill-opacity:1" d="M-173,-89.8L-172.8 -89.8L-172.8 -87.25L-173 -87.25L-266.9 -87.25L-266.9 -72.95L-266.9 -72.8L-269.8 -72.8L-269.8 -72.95L-270 -72.95L-270 -90L-173 -90L-173 -89.95L-173 -89.8M-173,-60L-173 -59.85L-172.8 -59.85L-172.8 -57.25L-173 -57.25L-266.9 -57.25L-266.9 -43L-266.9 -42.85L-269.8 -42.85L-269.8 -43L-270 -43L-270 -60L-173 -60M-173,-29.9L-172.8 -29.9L-172.8 -27.3L-173 -27.3L-266.9 -27.3L-266.9 -13L-266.9 -12.85L-269.8 -12.85L-269.8 -13L-270 -13L-270 -30.05L-173 -30.05L-173 -29.9" />
<path style="fill:#BF9E7F;fill-opacity:1" d="M-173,-87.25L-172.8 -87.25L-172.8 -89.8L-173 -89.8L-173 -89.95L-170 -89.95L-170 -69.95L-270 -69.95L-270 -72.95L-269.8 -72.95L-269.8 -72.8L-266.9 -72.8L-266.9 -72.95L-173 -72.95L-173 -87.25M-173,-43L-173 -57.25L-172.8 -57.25L-172.8 -59.85L-173 -59.85L-173 -60L-170 -60L-170 -39.95L-270 -39.95L-270 -43L-269.8 -43L-269.8 -42.85L-266.9 -42.85L-266.9 -43L-173 -43M-173,-27.3L-172.8 -27.3L-172.8 -29.9L-173 -29.9L-173 -30.05L-170 -30.05L-170 -10L-270 -10L-270 -13L-269.8 -13L-269.8 -12.85L-266.9 -12.85L-266.9 -13L-173 -13L-173 -27.3" />
<path style="fill:#DBE6BE;fill-opacity:1" d="M-253.9,-78.9L-253.85 -78.9L-253.9 -78.9M-173,-72.95L-266.9 -72.95L-266.9 -87.25L-173 -87.25L-173 -72.95M-173,-57.25L-173 -43L-266.9 -43L-266.9 -57.25L-173 -57.25M-173,-13L-266.9 -13L-266.9 -27.3L-173 -27.3L-173 -13" />
</g>
</svg>
