<?xml version="1.0" encoding="utf-8"?>
<svg version="1.1" id="Layer_1"
xmlns="http://www.w3.org/2000/svg"
xmlns:xlink="http://www.w3.org/1999/xlink"
xmlns:author="http://www.sothink.com"
width="86px" height="32px"
xml:space="preserve">
<g id="215" transform="matrix(1, 0, 0, 1, 43.15, 15.55)">
<path style="fill:#0000CC;fill-opacity:1" d="M-42.55,-14.9L-42.55 -15L-42.35 -15L-42.35 -15.05L-40.2 -15L42.15 -15.05L42.65 -15.05L42.65 14.95L42.45 14.95L42.45 15L42.35 15L42.35 -14.9L42.2 -14.9L-42.55 -14.9" />
<path style="fill:#374777;fill-opacity:1" d="M42.2,-14.9L42.35 -14.9L42.35 15L42.35 15.1L42.2 15.1L42.2 -14.9" />
<path style="fill:#D1EAED;fill-opacity:1" d="M42.2,-14.9L42.2 15.1L-42.65 15.1L-42.65 15L-42.65 -14.9L-42.55 -14.9L42.2 -14.9M39.1,-14.85L-42.55 -14.85L-42.55 11.6L-39.55 11.6L-39.55 11.65L39.1 11.65L39.1 11.6L39.1 -14.85" />
<path style="fill:#9DD6DD;fill-opacity:0.6" d="M-39.55,-12.1L39.1 -12.1L39.1 11.6L39.1 11.65L-39.55 11.65L-39.55 11.6L-39.55 -12.1M-26.65,10.3L28.35 10.3L28.35 -9.8L-26.65 -9.8L-26.65 10.3" />
<path style="fill:#42AEBD;fill-opacity:1" d="M-39.55,11.6L-42.55 11.6L-42.55 -14.85L39.1 -14.85L39.1 11.6L39.1 -12.1L-39.55 -12.1L-39.55 11.6" />
<path style="fill:#9DD6DD;fill-opacity:1" d="M-26.65,-9.8L28.35 -9.8L28.35 10.3L-26.65 10.3L-26.65 -9.8" />
<path style="fill:none;stroke-width:1.25;stroke-linecap:round;stroke-linejoin:round;stroke-miterlimit:3;stroke:#FF9900;stroke-opacity:1" d="M-23.05,5.1L-21.65 1.1L-17.3 1.1L-14.55 -1.65L-11.15 4.6L-4.9 -4.5L2.95 -3.9L12.45 3.35L21.95 -4.65M28.35,10.3L-26.65 10.3L-26.65 -9.8" />
<path style="fill:none;stroke-width:0.25;stroke-linecap:round;stroke-linejoin:round;stroke-miterlimit:3;stroke:#FF9900;stroke-opacity:1" d="M-26.65,-9.8L28.35 -9.8L28.35 10.3" />
<path style="fill:none;stroke-width:1;stroke-linecap:round;stroke-linejoin:round;stroke-miterlimit:3;stroke:#FFFFFF;stroke-opacity:1" d="M42.2,15.1L-42.65 15.1M-42.65,15L-42.65 -14.9L-42.55 -14.9L-42.55 -15L-42.35 -15L-42.35 -15.05L-40.2 -15L42.15 -15.05M42.2,15.1L42.2 -14.9L-42.55 -14.9M-40.2,-15L-42.35 -15" />
</g>
</svg>
