<?xml version="1.0" encoding="utf-8"?>
<svg version="1.1" id="Layer_1"
xmlns="http://www.w3.org/2000/svg"
xmlns:xlink="http://www.w3.org/1999/xlink"
xmlns:author="http://www.sothink.com"
width="30px" height="31px"
xml:space="preserve">
<g id="188" transform="matrix(1, 0, 0, 1, 15, 15)">
<path style="fill:#42AEBD;fill-opacity:1" d="M-15,12.05L-12.3 12.05L-12.3 12L12 12L12 -12.25L12 -14.95L15 -14.95L15 15.05L-15 15.05L-15 12.05" />
<path style="fill:#9DD6DD;fill-opacity:1" d="M12,-14.95L-15 -14.95L-15 -15L12 -15L12 -14.95" />
<path style="fill:#046B81;fill-opacity:1" d="M2.45,-2.2L7.9 -2.2L-0.1 8.1L-8.1 -2.15L-2.8 -2.15L-2.8 -7.9L2.45 -7.9L2.45 -2.2" />
<path style="fill:#D1EAED;fill-opacity:1" d="M-12.3,-12.25L-12.3 12L-12.3 12.05L-15 12.05L-15 -14.95L12 -14.95L12 -12.25L-12.3 -12.25" />
<path style="fill:#9DD6DD;fill-opacity:0.6" d="M9.9,-10.15L9.9 -10.2L-10.1 -10.2L-10.1 -10.15L9.9 -10.15M2.45,-7.9L-2.8 -7.9L-2.8 -2.15L-8.1 -2.15L-0.1 8.1L7.9 -2.2L2.45 -2.2L2.45 -7.9M-12.3,12L-12.3 -12.25L12 -12.25L12 12L-12.3 12" />
<path style="fill:none;stroke-width:1;stroke-linecap:round;stroke-linejoin:round;stroke-miterlimit:3;stroke:#046B81;stroke-opacity:1" d="M9.9,-10.15L9.9 9.85L-10.1 9.85L-10.1 -10.15L9.9 -10.15z" />
</g>
</svg>
