<?xml version="1.0" encoding="utf-8"?>
<svg version="1.1" id="Layer_1"
xmlns="http://www.w3.org/2000/svg"
xmlns:xlink="http://www.w3.org/1999/xlink"
xmlns:author="http://www.sothink.com"
width="32px" height="34px"
xml:space="preserve">
<g id="103" transform="matrix(1, 0, 0, 1, 15.85, 16.55)">
<path style="fill:#79A6A6;fill-opacity:1" d="M-1.7,11L-1.55 10.95L-1.35 11.7L2.9 11.9L2.55 12.15L0.6 13.5L3.4 11.95L3.9 11.95L9.5 14.85L7.95 14.6L6.05 14.45L5.6 14.45L3.25 14.55L8.9 14.9L2.85 16.45L2.4 16L2.05 15.7L0.2 14.25L2.55 16.55L2.5 16.55L-6.6 16.05L-3.1 13.9Q-4.95 14.6 -6.85 15.95L-12 13.3L-12.3 13.15L-11.85 13.2L-5.4 11.5L-3.2 12.5Q-4 11.95 -4.9 11.5L-1.85 11.65L-2 11.1L-1.7 11M-9.6,13.05L-12 13.3L-5.3 13.25L-9.6 13.05" />
<path style="fill:#FFFFFF;fill-opacity:1" d="M4.95,-9.6Q3.7 -11.9 0.95 -14.8Q10.25 -13.6 15.6 -10.7L6.4 -6.4L4.95 -9.6M-5,-16.25L-3.75 -16.2Q-2.6 -16.15 0.3 -15.2Q-6.4 -15.2 -13 -14L-15.75 -13.4L-5 -16.25" />
<path style="fill:#FF0000;fill-opacity:1" d="M3.8,-15.65L0.7 -15.15Q-0.75 -16.05 -4.1 -16.55L6.5 -15.75L3.8 -15.65M-0.2,-6.6L-8.25 -7Q-6.85 -11 0.5 -14.85Q4.4 -10.55 5.95 -6.25L-0.2 -6.6" />
<path style="fill:#0000FF;fill-opacity:1" d="M7.05,-15.25L15.9 -10.9L13.55 -11.9Q7.85 -14.05 1.45 -15.05L5.9 -15.4L7.05 -15.25M-15.85,-12.75Q-9.45 -14.95 0.15 -15Q-4.95 -12.65 -7.65 -9L-8.7 -7.45L-15.85 -12.75" />
<path style="fill:none;stroke-width:0.5;stroke-linecap:round;stroke-linejoin:round;stroke-miterlimit:3;stroke:#663333;stroke-opacity:1" d="M-0.2,-6.6L-1.7 11" />
</g>
</svg>
